ISO-10303-21;
HEADER;
FILE_DESCRIPTION(('Illustrative CAD - NOT vendor dimensions'),'2;1');
FILE_NAME('reference.step','2026-10-07',('CORNERSTONE'),(''),'reference generator','','');
FILE_SCHEMA(('CONFIG_CONTROL_DESIGN'));
ENDSEC;
DATA;
#1 = CARTESIAN_POINT('',(-200.000000000,0.000000000,-47.000000000));
#2 = CARTESIAN_POINT('',(-90.000000000,0.000000000,-47.000000000));
#3 = CARTESIAN_POINT('',(-90.000000000,15.000000000,-47.000000000));
#4 = CARTESIAN_POINT('',(-200.000000000,15.000000000,-47.000000000));
#5 = CARTESIAN_POINT('',(-200.000000000,0.000000000,48.000000000));
#6 = CARTESIAN_POINT('',(-90.000000000,0.000000000,48.000000000));
#7 = CARTESIAN_POINT('',(-90.000000000,15.000000000,48.000000000));
#8 = CARTESIAN_POINT('',(-200.000000000,15.000000000,48.000000000));
#9 = POLY_LOOP('',(#1,#4,#3,#2));
#10 = FACE_OUTER_BOUND('',#9,.T.);
#11 = DIRECTION('',(0.000000000,0.000000000,-1.000000000));
#12 = DIRECTION('',(0.000000000,1.000000000,0.000000000));
#13 = AXIS2_PLACEMENT_3D('',#1,#11,#12);
#14 = PLANE('',#13);
#15 = FACE_SURFACE('',(#10),#14,.T.);
#16 = POLY_LOOP('',(#5,#6,#7,#8));
#17 = FACE_OUTER_BOUND('',#16,.T.);
#18 = DIRECTION('',(0.000000000,0.000000000,1.000000000));
#19 = DIRECTION('',(1.000000000,0.000000000,0.000000000));
#20 = AXIS2_PLACEMENT_3D('',#5,#18,#19);
#21 = PLANE('',#20);
#22 = FACE_SURFACE('',(#17),#21,.T.);
#23 = POLY_LOOP('',(#1,#2,#6,#5));
#24 = FACE_OUTER_BOUND('',#23,.T.);
#25 = DIRECTION('',(0.000000000,-1.000000000,0.000000000));
#26 = DIRECTION('',(1.000000000,0.000000000,0.000000000));
#27 = AXIS2_PLACEMENT_3D('',#1,#25,#26);
#28 = PLANE('',#27);
#29 = FACE_SURFACE('',(#24),#28,.T.);
#30 = POLY_LOOP('',(#2,#3,#7,#6));
#31 = FACE_OUTER_BOUND('',#30,.T.);
#32 = DIRECTION('',(1.000000000,0.000000000,0.000000000));
#33 = DIRECTION('',(0.000000000,1.000000000,0.000000000));
#34 = AXIS2_PLACEMENT_3D('',#2,#32,#33);
#35 = PLANE('',#34);
#36 = FACE_SURFACE('',(#31),#35,.T.);
#37 = POLY_LOOP('',(#3,#4,#8,#7));
#38 = FACE_OUTER_BOUND('',#37,.T.);
#39 = DIRECTION('',(0.000000000,1.000000000,0.000000000));
#40 = DIRECTION('',(-1.000000000,0.000000000,0.000000000));
#41 = AXIS2_PLACEMENT_3D('',#3,#39,#40);
#42 = PLANE('',#41);
#43 = FACE_SURFACE('',(#38),#42,.T.);
#44 = POLY_LOOP('',(#4,#1,#5,#8));
#45 = FACE_OUTER_BOUND('',#44,.T.);
#46 = DIRECTION('',(-1.000000000,0.000000000,0.000000000));
#47 = DIRECTION('',(0.000000000,-1.000000000,0.000000000));
#48 = AXIS2_PLACEMENT_3D('',#4,#46,#47);
#49 = PLANE('',#48);
#50 = FACE_SURFACE('',(#45),#49,.T.);
#51 = CLOSED_SHELL('',(#15,#22,#29,#36,#43,#50));
#52 = FACETED_BREP('black support foot',#51);
#53 = CARTESIAN_POINT('',(-145.000000000,15.000000000,-15.000000000));
#54 = CARTESIAN_POINT('',(-149.635254916,15.000000000,-14.265847744));
#55 = CARTESIAN_POINT('',(-153.816778784,15.000000000,-12.135254916));
#56 = CARTESIAN_POINT('',(-157.135254916,15.000000000,-8.816778784));
#57 = CARTESIAN_POINT('',(-159.265847744,15.000000000,-4.635254916));
#58 = CARTESIAN_POINT('',(-160.000000000,15.000000000,-0.000000000));
#59 = CARTESIAN_POINT('',(-159.265847744,15.000000000,4.635254916));
#60 = CARTESIAN_POINT('',(-157.135254916,15.000000000,8.816778784));
#61 = CARTESIAN_POINT('',(-153.816778784,15.000000000,12.135254916));
#62 = CARTESIAN_POINT('',(-149.635254916,15.000000000,14.265847744));
#63 = CARTESIAN_POINT('',(-145.000000000,15.000000000,15.000000000));
#64 = CARTESIAN_POINT('',(-140.364745084,15.000000000,14.265847744));
#65 = CARTESIAN_POINT('',(-136.183221216,15.000000000,12.135254916));
#66 = CARTESIAN_POINT('',(-132.864745084,15.000000000,8.816778784));
#67 = CARTESIAN_POINT('',(-130.734152256,15.000000000,4.635254916));
#68 = CARTESIAN_POINT('',(-130.000000000,15.000000000,0.000000000));
#69 = CARTESIAN_POINT('',(-130.734152256,15.000000000,-4.635254916));
#70 = CARTESIAN_POINT('',(-132.864745084,15.000000000,-8.816778784));
#71 = CARTESIAN_POINT('',(-136.183221216,15.000000000,-12.135254916));
#72 = CARTESIAN_POINT('',(-140.364745084,15.000000000,-14.265847744));
#73 = CARTESIAN_POINT('',(-145.000000000,350.000000000,-15.000000000));
#74 = CARTESIAN_POINT('',(-149.635254916,350.000000000,-14.265847744));
#75 = CARTESIAN_POINT('',(-153.816778784,350.000000000,-12.135254916));
#76 = CARTESIAN_POINT('',(-157.135254916,350.000000000,-8.816778784));
#77 = CARTESIAN_POINT('',(-159.265847744,350.000000000,-4.635254916));
#78 = CARTESIAN_POINT('',(-160.000000000,350.000000000,-0.000000000));
#79 = CARTESIAN_POINT('',(-159.265847744,350.000000000,4.635254916));
#80 = CARTESIAN_POINT('',(-157.135254916,350.000000000,8.816778784));
#81 = CARTESIAN_POINT('',(-153.816778784,350.000000000,12.135254916));
#82 = CARTESIAN_POINT('',(-149.635254916,350.000000000,14.265847744));
#83 = CARTESIAN_POINT('',(-145.000000000,350.000000000,15.000000000));
#84 = CARTESIAN_POINT('',(-140.364745084,350.000000000,14.265847744));
#85 = CARTESIAN_POINT('',(-136.183221216,350.000000000,12.135254916));
#86 = CARTESIAN_POINT('',(-132.864745084,350.000000000,8.816778784));
#87 = CARTESIAN_POINT('',(-130.734152256,350.000000000,4.635254916));
#88 = CARTESIAN_POINT('',(-130.000000000,350.000000000,0.000000000));
#89 = CARTESIAN_POINT('',(-130.734152256,350.000000000,-4.635254916));
#90 = CARTESIAN_POINT('',(-132.864745084,350.000000000,-8.816778784));
#91 = CARTESIAN_POINT('',(-136.183221216,350.000000000,-12.135254916));
#92 = CARTESIAN_POINT('',(-140.364745084,350.000000000,-14.265847744));
#93 = POLY_LOOP('',(#72,#71,#70,#69,#68,#67,#66,#65,#64,#63,#62,#61,#60,#59,#58,#57,#56,#55,#54,#53));
#94 = FACE_OUTER_BOUND('',#93,.T.);
#95 = DIRECTION('',(0.000000000,-1.000000000,0.000000000));
#96 = DIRECTION('',(0.891006524,0.000000000,0.453990500));
#97 = AXIS2_PLACEMENT_3D('',#72,#95,#96);
#98 = PLANE('',#97);
#99 = FACE_SURFACE('',(#94),#98,.T.);
#100 = POLY_LOOP('',(#73,#74,#75,#76,#77,#78,#79,#80,#81,#82,#83,#84,#85,#86,#87,#88,#89,#90,#91,#92));
#101 = FACE_OUTER_BOUND('',#100,.T.);
#102 = DIRECTION('',(0.000000000,1.000000000,0.000000000));
#103 = DIRECTION('',(-0.987688341,0.000000000,0.156434465));
#104 = AXIS2_PLACEMENT_3D('',#73,#102,#103);
#105 = PLANE('',#104);
#106 = FACE_SURFACE('',(#101),#105,.T.);
#107 = POLY_LOOP('',(#53,#54,#74,#73));
#108 = FACE_OUTER_BOUND('',#107,.T.);
#109 = DIRECTION('',(-0.156434465,0.000000000,-0.987688341));
#110 = DIRECTION('',(-0.987688341,0.000000000,0.156434465));
#111 = AXIS2_PLACEMENT_3D('',#53,#109,#110);
#112 = PLANE('',#111);
#113 = FACE_SURFACE('',(#108),#112,.T.);
#114 = POLY_LOOP('',(#54,#55,#75,#74));
#115 = FACE_OUTER_BOUND('',#114,.T.);
#116 = DIRECTION('',(-0.453990500,0.000000000,-0.891006524));
#117 = DIRECTION('',(-0.891006524,0.000000000,0.453990500));
#118 = AXIS2_PLACEMENT_3D('',#54,#116,#117);
#119 = PLANE('',#118);
#120 = FACE_SURFACE('',(#115),#119,.T.);
#121 = POLY_LOOP('',(#55,#56,#76,#75));
#122 = FACE_OUTER_BOUND('',#121,.T.);
#123 = DIRECTION('',(-0.707106781,0.000000000,-0.707106781));
#124 = DIRECTION('',(-0.707106781,0.000000000,0.707106781));
#125 = AXIS2_PLACEMENT_3D('',#55,#123,#124);
#126 = PLANE('',#125);
#127 = FACE_SURFACE('',(#122),#126,.T.);
#128 = POLY_LOOP('',(#56,#57,#77,#76));
#129 = FACE_OUTER_BOUND('',#128,.T.);
#130 = DIRECTION('',(-0.891006524,0.000000000,-0.453990500));
#131 = DIRECTION('',(-0.453990500,0.000000000,0.891006524));
#132 = AXIS2_PLACEMENT_3D('',#56,#130,#131);
#133 = PLANE('',#132);
#134 = FACE_SURFACE('',(#129),#133,.T.);
#135 = POLY_LOOP('',(#57,#58,#78,#77));
#136 = FACE_OUTER_BOUND('',#135,.T.);
#137 = DIRECTION('',(-0.987688341,0.000000000,-0.156434465));
#138 = DIRECTION('',(-0.156434465,0.000000000,0.987688341));
#139 = AXIS2_PLACEMENT_3D('',#57,#137,#138);
#140 = PLANE('',#139);
#141 = FACE_SURFACE('',(#136),#140,.T.);
#142 = POLY_LOOP('',(#58,#59,#79,#78));
#143 = FACE_OUTER_BOUND('',#142,.T.);
#144 = DIRECTION('',(-0.987688341,0.000000000,0.156434465));
#145 = DIRECTION('',(0.156434465,0.000000000,0.987688341));
#146 = AXIS2_PLACEMENT_3D('',#58,#144,#145);
#147 = PLANE('',#146);
#148 = FACE_SURFACE('',(#143),#147,.T.);
#149 = POLY_LOOP('',(#59,#60,#80,#79));
#150 = FACE_OUTER_BOUND('',#149,.T.);
#151 = DIRECTION('',(-0.891006524,0.000000000,0.453990500));
#152 = DIRECTION('',(0.453990500,0.000000000,0.891006524));
#153 = AXIS2_PLACEMENT_3D('',#59,#151,#152);
#154 = PLANE('',#153);
#155 = FACE_SURFACE('',(#150),#154,.T.);
#156 = POLY_LOOP('',(#60,#61,#81,#80));
#157 = FACE_OUTER_BOUND('',#156,.T.);
#158 = DIRECTION('',(-0.707106781,0.000000000,0.707106781));
#159 = DIRECTION('',(0.707106781,0.000000000,0.707106781));
#160 = AXIS2_PLACEMENT_3D('',#60,#158,#159);
#161 = PLANE('',#160);
#162 = FACE_SURFACE('',(#157),#161,.T.);
#163 = POLY_LOOP('',(#61,#62,#82,#81));
#164 = FACE_OUTER_BOUND('',#163,.T.);
#165 = DIRECTION('',(-0.453990500,0.000000000,0.891006524));
#166 = DIRECTION('',(0.891006524,0.000000000,0.453990500));
#167 = AXIS2_PLACEMENT_3D('',#61,#165,#166);
#168 = PLANE('',#167);
#169 = FACE_SURFACE('',(#164),#168,.T.);
#170 = POLY_LOOP('',(#62,#63,#83,#82));
#171 = FACE_OUTER_BOUND('',#170,.T.);
#172 = DIRECTION('',(-0.156434465,0.000000000,0.987688341));
#173 = DIRECTION('',(0.987688341,0.000000000,0.156434465));
#174 = AXIS2_PLACEMENT_3D('',#62,#172,#173);
#175 = PLANE('',#174);
#176 = FACE_SURFACE('',(#171),#175,.T.);
#177 = POLY_LOOP('',(#63,#64,#84,#83));
#178 = FACE_OUTER_BOUND('',#177,.T.);
#179 = DIRECTION('',(0.156434465,0.000000000,0.987688341));
#180 = DIRECTION('',(0.987688341,0.000000000,-0.156434465));
#181 = AXIS2_PLACEMENT_3D('',#63,#179,#180);
#182 = PLANE('',#181);
#183 = FACE_SURFACE('',(#178),#182,.T.);
#184 = POLY_LOOP('',(#64,#65,#85,#84));
#185 = FACE_OUTER_BOUND('',#184,.T.);
#186 = DIRECTION('',(0.453990500,0.000000000,0.891006524));
#187 = DIRECTION('',(0.891006524,0.000000000,-0.453990500));
#188 = AXIS2_PLACEMENT_3D('',#64,#186,#187);
#189 = PLANE('',#188);
#190 = FACE_SURFACE('',(#185),#189,.T.);
#191 = POLY_LOOP('',(#65,#66,#86,#85));
#192 = FACE_OUTER_BOUND('',#191,.T.);
#193 = DIRECTION('',(0.707106781,0.000000000,0.707106781));
#194 = DIRECTION('',(0.707106781,0.000000000,-0.707106781));
#195 = AXIS2_PLACEMENT_3D('',#65,#193,#194);
#196 = PLANE('',#195);
#197 = FACE_SURFACE('',(#192),#196,.T.);
#198 = POLY_LOOP('',(#66,#67,#87,#86));
#199 = FACE_OUTER_BOUND('',#198,.T.);
#200 = DIRECTION('',(0.891006524,0.000000000,0.453990500));
#201 = DIRECTION('',(0.453990500,0.000000000,-0.891006524));
#202 = AXIS2_PLACEMENT_3D('',#66,#200,#201);
#203 = PLANE('',#202);
#204 = FACE_SURFACE('',(#199),#203,.T.);
#205 = POLY_LOOP('',(#67,#68,#88,#87));
#206 = FACE_OUTER_BOUND('',#205,.T.);
#207 = DIRECTION('',(0.987688341,0.000000000,0.156434465));
#208 = DIRECTION('',(0.156434465,0.000000000,-0.987688341));
#209 = AXIS2_PLACEMENT_3D('',#67,#207,#208);
#210 = PLANE('',#209);
#211 = FACE_SURFACE('',(#206),#210,.T.);
#212 = POLY_LOOP('',(#68,#69,#89,#88));
#213 = FACE_OUTER_BOUND('',#212,.T.);
#214 = DIRECTION('',(0.987688341,0.000000000,-0.156434465));
#215 = DIRECTION('',(-0.156434465,0.000000000,-0.987688341));
#216 = AXIS2_PLACEMENT_3D('',#68,#214,#215);
#217 = PLANE('',#216);
#218 = FACE_SURFACE('',(#213),#217,.T.);
#219 = POLY_LOOP('',(#69,#70,#90,#89));
#220 = FACE_OUTER_BOUND('',#219,.T.);
#221 = DIRECTION('',(0.891006524,0.000000000,-0.453990500));
#222 = DIRECTION('',(-0.453990500,0.000000000,-0.891006524));
#223 = AXIS2_PLACEMENT_3D('',#69,#221,#222);
#224 = PLANE('',#223);
#225 = FACE_SURFACE('',(#220),#224,.T.);
#226 = POLY_LOOP('',(#70,#71,#91,#90));
#227 = FACE_OUTER_BOUND('',#226,.T.);
#228 = DIRECTION('',(0.707106781,0.000000000,-0.707106781));
#229 = DIRECTION('',(-0.707106781,0.000000000,-0.707106781));
#230 = AXIS2_PLACEMENT_3D('',#70,#228,#229);
#231 = PLANE('',#230);
#232 = FACE_SURFACE('',(#227),#231,.T.);
#233 = POLY_LOOP('',(#71,#72,#92,#91));
#234 = FACE_OUTER_BOUND('',#233,.T.);
#235 = DIRECTION('',(0.453990500,0.000000000,-0.891006524));
#236 = DIRECTION('',(-0.891006524,0.000000000,-0.453990500));
#237 = AXIS2_PLACEMENT_3D('',#71,#235,#236);
#238 = PLANE('',#237);
#239 = FACE_SURFACE('',(#234),#238,.T.);
#240 = POLY_LOOP('',(#72,#53,#73,#92));
#241 = FACE_OUTER_BOUND('',#240,.T.);
#242 = DIRECTION('',(0.156434465,0.000000000,-0.987688341));
#243 = DIRECTION('',(-0.987688341,0.000000000,-0.156434465));
#244 = AXIS2_PLACEMENT_3D('',#72,#242,#243);
#245 = PLANE('',#244);
#246 = FACE_SURFACE('',(#241),#245,.T.);
#247 = CLOSED_SHELL('',(#99,#106,#113,#120,#127,#134,#141,#148,#155,#162,#169,#176,#183,#190,#197,#204,#211,#218,#225,#232,#239,#246));
#248 = FACETED_BREP('silver support post',#247);
#249 = CARTESIAN_POINT('',(-155.000000000,180.000000000,-35.000000000));
#250 = CARTESIAN_POINT('',(-25.000000000,180.000000000,-35.000000000));
#251 = CARTESIAN_POINT('',(-25.000000000,252.000000000,-35.000000000));
#252 = CARTESIAN_POINT('',(-155.000000000,252.000000000,-35.000000000));
#253 = CARTESIAN_POINT('',(-155.000000000,180.000000000,35.000000000));
#254 = CARTESIAN_POINT('',(-25.000000000,180.000000000,35.000000000));
#255 = CARTESIAN_POINT('',(-25.000000000,252.000000000,35.000000000));
#256 = CARTESIAN_POINT('',(-155.000000000,252.000000000,35.000000000));
#257 = POLY_LOOP('',(#249,#252,#251,#250));
#258 = FACE_OUTER_BOUND('',#257,.T.);
#259 = DIRECTION('',(0.000000000,0.000000000,-1.000000000));
#260 = DIRECTION('',(0.000000000,1.000000000,0.000000000));
#261 = AXIS2_PLACEMENT_3D('',#249,#259,#260);
#262 = PLANE('',#261);
#263 = FACE_SURFACE('',(#258),#262,.T.);
#264 = POLY_LOOP('',(#253,#254,#255,#256));
#265 = FACE_OUTER_BOUND('',#264,.T.);
#266 = DIRECTION('',(0.000000000,0.000000000,1.000000000));
#267 = DIRECTION('',(1.000000000,0.000000000,0.000000000));
#268 = AXIS2_PLACEMENT_3D('',#253,#266,#267);
#269 = PLANE('',#268);
#270 = FACE_SURFACE('',(#265),#269,.T.);
#271 = POLY_LOOP('',(#249,#250,#254,#253));
#272 = FACE_OUTER_BOUND('',#271,.T.);
#273 = DIRECTION('',(0.000000000,-1.000000000,0.000000000));
#274 = DIRECTION('',(1.000000000,0.000000000,0.000000000));
#275 = AXIS2_PLACEMENT_3D('',#249,#273,#274);
#276 = PLANE('',#275);
#277 = FACE_SURFACE('',(#272),#276,.T.);
#278 = POLY_LOOP('',(#250,#251,#255,#254));
#279 = FACE_OUTER_BOUND('',#278,.T.);
#280 = DIRECTION('',(1.000000000,0.000000000,0.000000000));
#281 = DIRECTION('',(0.000000000,1.000000000,0.000000000));
#282 = AXIS2_PLACEMENT_3D('',#250,#280,#281);
#283 = PLANE('',#282);
#284 = FACE_SURFACE('',(#279),#283,.T.);
#285 = POLY_LOOP('',(#251,#252,#256,#255));
#286 = FACE_OUTER_BOUND('',#285,.T.);
#287 = DIRECTION('',(0.000000000,1.000000000,0.000000000));
#288 = DIRECTION('',(-1.000000000,0.000000000,0.000000000));
#289 = AXIS2_PLACEMENT_3D('',#251,#287,#288);
#290 = PLANE('',#289);
#291 = FACE_SURFACE('',(#286),#290,.T.);
#292 = POLY_LOOP('',(#252,#249,#253,#256));
#293 = FACE_OUTER_BOUND('',#292,.T.);
#294 = DIRECTION('',(-1.000000000,0.000000000,0.000000000));
#295 = DIRECTION('',(0.000000000,-1.000000000,0.000000000));
#296 = AXIS2_PLACEMENT_3D('',#252,#294,#295);
#297 = PLANE('',#296);
#298 = FACE_SURFACE('',(#293),#297,.T.);
#299 = CLOSED_SHELL('',(#263,#270,#277,#284,#291,#298));
#300 = FACETED_BREP('black focus carriage',#299);
#301 = CARTESIAN_POINT('',(0.000000000,175.000000000,-24.000000000));
#302 = CARTESIAN_POINT('',(-7.416407865,175.000000000,-22.825356391));
#303 = CARTESIAN_POINT('',(-14.106846055,175.000000000,-19.416407865));
#304 = CARTESIAN_POINT('',(-19.416407865,175.000000000,-14.106846055));
#305 = CARTESIAN_POINT('',(-22.825356391,175.000000000,-7.416407865));
#306 = CARTESIAN_POINT('',(-24.000000000,175.000000000,-0.000000000));
#307 = CARTESIAN_POINT('',(-22.825356391,175.000000000,7.416407865));
#308 = CARTESIAN_POINT('',(-19.416407865,175.000000000,14.106846055));
#309 = CARTESIAN_POINT('',(-14.106846055,175.000000000,19.416407865));
#310 = CARTESIAN_POINT('',(-7.416407865,175.000000000,22.825356391));
#311 = CARTESIAN_POINT('',(-0.000000000,175.000000000,24.000000000));
#312 = CARTESIAN_POINT('',(7.416407865,175.000000000,22.825356391));
#313 = CARTESIAN_POINT('',(14.106846055,175.000000000,19.416407865));
#314 = CARTESIAN_POINT('',(19.416407865,175.000000000,14.106846055));
#315 = CARTESIAN_POINT('',(22.825356391,175.000000000,7.416407865));
#316 = CARTESIAN_POINT('',(24.000000000,175.000000000,0.000000000));
#317 = CARTESIAN_POINT('',(22.825356391,175.000000000,-7.416407865));
#318 = CARTESIAN_POINT('',(19.416407865,175.000000000,-14.106846055));
#319 = CARTESIAN_POINT('',(14.106846055,175.000000000,-19.416407865));
#320 = CARTESIAN_POINT('',(7.416407865,175.000000000,-22.825356391));
#321 = CARTESIAN_POINT('',(0.000000000,350.000000000,-24.000000000));
#322 = CARTESIAN_POINT('',(-7.416407865,350.000000000,-22.825356391));
#323 = CARTESIAN_POINT('',(-14.106846055,350.000000000,-19.416407865));
#324 = CARTESIAN_POINT('',(-19.416407865,350.000000000,-14.106846055));
#325 = CARTESIAN_POINT('',(-22.825356391,350.000000000,-7.416407865));
#326 = CARTESIAN_POINT('',(-24.000000000,350.000000000,-0.000000000));
#327 = CARTESIAN_POINT('',(-22.825356391,350.000000000,7.416407865));
#328 = CARTESIAN_POINT('',(-19.416407865,350.000000000,14.106846055));
#329 = CARTESIAN_POINT('',(-14.106846055,350.000000000,19.416407865));
#330 = CARTESIAN_POINT('',(-7.416407865,350.000000000,22.825356391));
#331 = CARTESIAN_POINT('',(-0.000000000,350.000000000,24.000000000));
#332 = CARTESIAN_POINT('',(7.416407865,350.000000000,22.825356391));
#333 = CARTESIAN_POINT('',(14.106846055,350.000000000,19.416407865));
#334 = CARTESIAN_POINT('',(19.416407865,350.000000000,14.106846055));
#335 = CARTESIAN_POINT('',(22.825356391,350.000000000,7.416407865));
#336 = CARTESIAN_POINT('',(24.000000000,350.000000000,0.000000000));
#337 = CARTESIAN_POINT('',(22.825356391,350.000000000,-7.416407865));
#338 = CARTESIAN_POINT('',(19.416407865,350.000000000,-14.106846055));
#339 = CARTESIAN_POINT('',(14.106846055,350.000000000,-19.416407865));
#340 = CARTESIAN_POINT('',(7.416407865,350.000000000,-22.825356391));
#341 = POLY_LOOP('',(#320,#319,#318,#317,#316,#315,#314,#313,#312,#311,#310,#309,#308,#307,#306,#305,#304,#303,#302,#301));
#342 = FACE_OUTER_BOUND('',#341,.T.);
#343 = DIRECTION('',(0.000000000,-1.000000000,0.000000000));
#344 = DIRECTION('',(0.891006524,0.000000000,0.453990500));
#345 = AXIS2_PLACEMENT_3D('',#320,#343,#344);
#346 = PLANE('',#345);
#347 = FACE_SURFACE('',(#342),#346,.T.);
#348 = POLY_LOOP('',(#321,#322,#323,#324,#325,#326,#327,#328,#329,#330,#331,#332,#333,#334,#335,#336,#337,#338,#339,#340));
#349 = FACE_OUTER_BOUND('',#348,.T.);
#350 = DIRECTION('',(0.000000000,1.000000000,0.000000000));
#351 = DIRECTION('',(-0.987688341,0.000000000,0.156434465));
#352 = AXIS2_PLACEMENT_3D('',#321,#350,#351);
#353 = PLANE('',#352);
#354 = FACE_SURFACE('',(#349),#353,.T.);
#355 = POLY_LOOP('',(#301,#302,#322,#321));
#356 = FACE_OUTER_BOUND('',#355,.T.);
#357 = DIRECTION('',(-0.156434465,0.000000000,-0.987688341));
#358 = DIRECTION('',(-0.987688341,0.000000000,0.156434465));
#359 = AXIS2_PLACEMENT_3D('',#301,#357,#358);
#360 = PLANE('',#359);
#361 = FACE_SURFACE('',(#356),#360,.T.);
#362 = POLY_LOOP('',(#302,#303,#323,#322));
#363 = FACE_OUTER_BOUND('',#362,.T.);
#364 = DIRECTION('',(-0.453990500,0.000000000,-0.891006524));
#365 = DIRECTION('',(-0.891006524,0.000000000,0.453990500));
#366 = AXIS2_PLACEMENT_3D('',#302,#364,#365);
#367 = PLANE('',#366);
#368 = FACE_SURFACE('',(#363),#367,.T.);
#369 = POLY_LOOP('',(#303,#304,#324,#323));
#370 = FACE_OUTER_BOUND('',#369,.T.);
#371 = DIRECTION('',(-0.707106781,0.000000000,-0.707106781));
#372 = DIRECTION('',(-0.707106781,0.000000000,0.707106781));
#373 = AXIS2_PLACEMENT_3D('',#303,#371,#372);
#374 = PLANE('',#373);
#375 = FACE_SURFACE('',(#370),#374,.T.);
#376 = POLY_LOOP('',(#304,#305,#325,#324));
#377 = FACE_OUTER_BOUND('',#376,.T.);
#378 = DIRECTION('',(-0.891006524,0.000000000,-0.453990500));
#379 = DIRECTION('',(-0.453990500,0.000000000,0.891006524));
#380 = AXIS2_PLACEMENT_3D('',#304,#378,#379);
#381 = PLANE('',#380);
#382 = FACE_SURFACE('',(#377),#381,.T.);
#383 = POLY_LOOP('',(#305,#306,#326,#325));
#384 = FACE_OUTER_BOUND('',#383,.T.);
#385 = DIRECTION('',(-0.987688341,0.000000000,-0.156434465));
#386 = DIRECTION('',(-0.156434465,0.000000000,0.987688341));
#387 = AXIS2_PLACEMENT_3D('',#305,#385,#386);
#388 = PLANE('',#387);
#389 = FACE_SURFACE('',(#384),#388,.T.);
#390 = POLY_LOOP('',(#306,#307,#327,#326));
#391 = FACE_OUTER_BOUND('',#390,.T.);
#392 = DIRECTION('',(-0.987688341,0.000000000,0.156434465));
#393 = DIRECTION('',(0.156434465,0.000000000,0.987688341));
#394 = AXIS2_PLACEMENT_3D('',#306,#392,#393);
#395 = PLANE('',#394);
#396 = FACE_SURFACE('',(#391),#395,.T.);
#397 = POLY_LOOP('',(#307,#308,#328,#327));
#398 = FACE_OUTER_BOUND('',#397,.T.);
#399 = DIRECTION('',(-0.891006524,0.000000000,0.453990500));
#400 = DIRECTION('',(0.453990500,0.000000000,0.891006524));
#401 = AXIS2_PLACEMENT_3D('',#307,#399,#400);
#402 = PLANE('',#401);
#403 = FACE_SURFACE('',(#398),#402,.T.);
#404 = POLY_LOOP('',(#308,#309,#329,#328));
#405 = FACE_OUTER_BOUND('',#404,.T.);
#406 = DIRECTION('',(-0.707106781,0.000000000,0.707106781));
#407 = DIRECTION('',(0.707106781,0.000000000,0.707106781));
#408 = AXIS2_PLACEMENT_3D('',#308,#406,#407);
#409 = PLANE('',#408);
#410 = FACE_SURFACE('',(#405),#409,.T.);
#411 = POLY_LOOP('',(#309,#310,#330,#329));
#412 = FACE_OUTER_BOUND('',#411,.T.);
#413 = DIRECTION('',(-0.453990500,0.000000000,0.891006524));
#414 = DIRECTION('',(0.891006524,0.000000000,0.453990500));
#415 = AXIS2_PLACEMENT_3D('',#309,#413,#414);
#416 = PLANE('',#415);
#417 = FACE_SURFACE('',(#412),#416,.T.);
#418 = POLY_LOOP('',(#310,#311,#331,#330));
#419 = FACE_OUTER_BOUND('',#418,.T.);
#420 = DIRECTION('',(-0.156434465,0.000000000,0.987688341));
#421 = DIRECTION('',(0.987688341,0.000000000,0.156434465));
#422 = AXIS2_PLACEMENT_3D('',#310,#420,#421);
#423 = PLANE('',#422);
#424 = FACE_SURFACE('',(#419),#423,.T.);
#425 = POLY_LOOP('',(#311,#312,#332,#331));
#426 = FACE_OUTER_BOUND('',#425,.T.);
#427 = DIRECTION('',(0.156434465,0.000000000,0.987688341));
#428 = DIRECTION('',(0.987688341,0.000000000,-0.156434465));
#429 = AXIS2_PLACEMENT_3D('',#311,#427,#428);
#430 = PLANE('',#429);
#431 = FACE_SURFACE('',(#426),#430,.T.);
#432 = POLY_LOOP('',(#312,#313,#333,#332));
#433 = FACE_OUTER_BOUND('',#432,.T.);
#434 = DIRECTION('',(0.453990500,0.000000000,0.891006524));
#435 = DIRECTION('',(0.891006524,0.000000000,-0.453990500));
#436 = AXIS2_PLACEMENT_3D('',#312,#434,#435);
#437 = PLANE('',#436);
#438 = FACE_SURFACE('',(#433),#437,.T.);
#439 = POLY_LOOP('',(#313,#314,#334,#333));
#440 = FACE_OUTER_BOUND('',#439,.T.);
#441 = DIRECTION('',(0.707106781,0.000000000,0.707106781));
#442 = DIRECTION('',(0.707106781,0.000000000,-0.707106781));
#443 = AXIS2_PLACEMENT_3D('',#313,#441,#442);
#444 = PLANE('',#443);
#445 = FACE_SURFACE('',(#440),#444,.T.);
#446 = POLY_LOOP('',(#314,#315,#335,#334));
#447 = FACE_OUTER_BOUND('',#446,.T.);
#448 = DIRECTION('',(0.891006524,0.000000000,0.453990500));
#449 = DIRECTION('',(0.453990500,0.000000000,-0.891006524));
#450 = AXIS2_PLACEMENT_3D('',#314,#448,#449);
#451 = PLANE('',#450);
#452 = FACE_SURFACE('',(#447),#451,.T.);
#453 = POLY_LOOP('',(#315,#316,#336,#335));
#454 = FACE_OUTER_BOUND('',#453,.T.);
#455 = DIRECTION('',(0.987688341,0.000000000,0.156434465));
#456 = DIRECTION('',(0.156434465,0.000000000,-0.987688341));
#457 = AXIS2_PLACEMENT_3D('',#315,#455,#456);
#458 = PLANE('',#457);
#459 = FACE_SURFACE('',(#454),#458,.T.);
#460 = POLY_LOOP('',(#316,#317,#337,#336));
#461 = FACE_OUTER_BOUND('',#460,.T.);
#462 = DIRECTION('',(0.987688341,0.000000000,-0.156434465));
#463 = DIRECTION('',(-0.156434465,0.000000000,-0.987688341));
#464 = AXIS2_PLACEMENT_3D('',#316,#462,#463);
#465 = PLANE('',#464);
#466 = FACE_SURFACE('',(#461),#465,.T.);
#467 = POLY_LOOP('',(#317,#318,#338,#337));
#468 = FACE_OUTER_BOUND('',#467,.T.);
#469 = DIRECTION('',(0.891006524,0.000000000,-0.453990500));
#470 = DIRECTION('',(-0.453990500,0.000000000,-0.891006524));
#471 = AXIS2_PLACEMENT_3D('',#317,#469,#470);
#472 = PLANE('',#471);
#473 = FACE_SURFACE('',(#468),#472,.T.);
#474 = POLY_LOOP('',(#318,#319,#339,#338));
#475 = FACE_OUTER_BOUND('',#474,.T.);
#476 = DIRECTION('',(0.707106781,0.000000000,-0.707106781));
#477 = DIRECTION('',(-0.707106781,0.000000000,-0.707106781));
#478 = AXIS2_PLACEMENT_3D('',#318,#476,#477);
#479 = PLANE('',#478);
#480 = FACE_SURFACE('',(#475),#479,.T.);
#481 = POLY_LOOP('',(#319,#320,#340,#339));
#482 = FACE_OUTER_BOUND('',#481,.T.);
#483 = DIRECTION('',(0.453990500,0.000000000,-0.891006524));
#484 = DIRECTION('',(-0.891006524,0.000000000,-0.453990500));
#485 = AXIS2_PLACEMENT_3D('',#319,#483,#484);
#486 = PLANE('',#485);
#487 = FACE_SURFACE('',(#482),#486,.T.);
#488 = POLY_LOOP('',(#320,#301,#321,#340));
#489 = FACE_OUTER_BOUND('',#488,.T.);
#490 = DIRECTION('',(0.156434465,0.000000000,-0.987688341));
#491 = DIRECTION('',(-0.987688341,0.000000000,-0.156434465));
#492 = AXIS2_PLACEMENT_3D('',#320,#490,#491);
#493 = PLANE('',#492);
#494 = FACE_SURFACE('',(#489),#493,.T.);
#495 = CLOSED_SHELL('',(#347,#354,#361,#368,#375,#382,#389,#396,#403,#410,#417,#424,#431,#438,#445,#452,#459,#466,#473,#480,#487,#494));
#496 = FACETED_BREP('black microscope tube',#495);
#497 = CARTESIAN_POINT('',(0.000000000,60.000000000,-18.000000000));
#498 = CARTESIAN_POINT('',(-5.562305899,60.000000000,-17.119017293));
#499 = CARTESIAN_POINT('',(-10.580134541,60.000000000,-14.562305899));
#500 = CARTESIAN_POINT('',(-14.562305899,60.000000000,-10.580134541));
#501 = CARTESIAN_POINT('',(-17.119017293,60.000000000,-5.562305899));
#502 = CARTESIAN_POINT('',(-18.000000000,60.000000000,-0.000000000));
#503 = CARTESIAN_POINT('',(-17.119017293,60.000000000,5.562305899));
#504 = CARTESIAN_POINT('',(-14.562305899,60.000000000,10.580134541));
#505 = CARTESIAN_POINT('',(-10.580134541,60.000000000,14.562305899));
#506 = CARTESIAN_POINT('',(-5.562305899,60.000000000,17.119017293));
#507 = CARTESIAN_POINT('',(-0.000000000,60.000000000,18.000000000));
#508 = CARTESIAN_POINT('',(5.562305899,60.000000000,17.119017293));
#509 = CARTESIAN_POINT('',(10.580134541,60.000000000,14.562305899));
#510 = CARTESIAN_POINT('',(14.562305899,60.000000000,10.580134541));
#511 = CARTESIAN_POINT('',(17.119017293,60.000000000,5.562305899));
#512 = CARTESIAN_POINT('',(18.000000000,60.000000000,0.000000000));
#513 = CARTESIAN_POINT('',(17.119017293,60.000000000,-5.562305899));
#514 = CARTESIAN_POINT('',(14.562305899,60.000000000,-10.580134541));
#515 = CARTESIAN_POINT('',(10.580134541,60.000000000,-14.562305899));
#516 = CARTESIAN_POINT('',(5.562305899,60.000000000,-17.119017293));
#517 = CARTESIAN_POINT('',(0.000000000,175.000000000,-18.000000000));
#518 = CARTESIAN_POINT('',(-5.562305899,175.000000000,-17.119017293));
#519 = CARTESIAN_POINT('',(-10.580134541,175.000000000,-14.562305899));
#520 = CARTESIAN_POINT('',(-14.562305899,175.000000000,-10.580134541));
#521 = CARTESIAN_POINT('',(-17.119017293,175.000000000,-5.562305899));
#522 = CARTESIAN_POINT('',(-18.000000000,175.000000000,-0.000000000));
#523 = CARTESIAN_POINT('',(-17.119017293,175.000000000,5.562305899));
#524 = CARTESIAN_POINT('',(-14.562305899,175.000000000,10.580134541));
#525 = CARTESIAN_POINT('',(-10.580134541,175.000000000,14.562305899));
#526 = CARTESIAN_POINT('',(-5.562305899,175.000000000,17.119017293));
#527 = CARTESIAN_POINT('',(-0.000000000,175.000000000,18.000000000));
#528 = CARTESIAN_POINT('',(5.562305899,175.000000000,17.119017293));
#529 = CARTESIAN_POINT('',(10.580134541,175.000000000,14.562305899));
#530 = CARTESIAN_POINT('',(14.562305899,175.000000000,10.580134541));
#531 = CARTESIAN_POINT('',(17.119017293,175.000000000,5.562305899));
#532 = CARTESIAN_POINT('',(18.000000000,175.000000000,0.000000000));
#533 = CARTESIAN_POINT('',(17.119017293,175.000000000,-5.562305899));
#534 = CARTESIAN_POINT('',(14.562305899,175.000000000,-10.580134541));
#535 = CARTESIAN_POINT('',(10.580134541,175.000000000,-14.562305899));
#536 = CARTESIAN_POINT('',(5.562305899,175.000000000,-17.119017293));
#537 = POLY_LOOP('',(#516,#515,#514,#513,#512,#511,#510,#509,#508,#507,#506,#505,#504,#503,#502,#501,#500,#499,#498,#497));
#538 = FACE_OUTER_BOUND('',#537,.T.);
#539 = DIRECTION('',(0.000000000,-1.000000000,0.000000000));
#540 = DIRECTION('',(0.891006524,0.000000000,0.453990500));
#541 = AXIS2_PLACEMENT_3D('',#516,#539,#540);
#542 = PLANE('',#541);
#543 = FACE_SURFACE('',(#538),#542,.T.);
#544 = POLY_LOOP('',(#517,#518,#519,#520,#521,#522,#523,#524,#525,#526,#527,#528,#529,#530,#531,#532,#533,#534,#535,#536));
#545 = FACE_OUTER_BOUND('',#544,.T.);
#546 = DIRECTION('',(0.000000000,1.000000000,0.000000000));
#547 = DIRECTION('',(-0.987688341,0.000000000,0.156434465));
#548 = AXIS2_PLACEMENT_3D('',#517,#546,#547);
#549 = PLANE('',#548);
#550 = FACE_SURFACE('',(#545),#549,.T.);
#551 = POLY_LOOP('',(#497,#498,#518,#517));
#552 = FACE_OUTER_BOUND('',#551,.T.);
#553 = DIRECTION('',(-0.156434465,0.000000000,-0.987688341));
#554 = DIRECTION('',(-0.987688341,0.000000000,0.156434465));
#555 = AXIS2_PLACEMENT_3D('',#497,#553,#554);
#556 = PLANE('',#555);
#557 = FACE_SURFACE('',(#552),#556,.T.);
#558 = POLY_LOOP('',(#498,#499,#519,#518));
#559 = FACE_OUTER_BOUND('',#558,.T.);
#560 = DIRECTION('',(-0.453990500,0.000000000,-0.891006524));
#561 = DIRECTION('',(-0.891006524,0.000000000,0.453990500));
#562 = AXIS2_PLACEMENT_3D('',#498,#560,#561);
#563 = PLANE('',#562);
#564 = FACE_SURFACE('',(#559),#563,.T.);
#565 = POLY_LOOP('',(#499,#500,#520,#519));
#566 = FACE_OUTER_BOUND('',#565,.T.);
#567 = DIRECTION('',(-0.707106781,0.000000000,-0.707106781));
#568 = DIRECTION('',(-0.707106781,0.000000000,0.707106781));
#569 = AXIS2_PLACEMENT_3D('',#499,#567,#568);
#570 = PLANE('',#569);
#571 = FACE_SURFACE('',(#566),#570,.T.);
#572 = POLY_LOOP('',(#500,#501,#521,#520));
#573 = FACE_OUTER_BOUND('',#572,.T.);
#574 = DIRECTION('',(-0.891006524,0.000000000,-0.453990500));
#575 = DIRECTION('',(-0.453990500,0.000000000,0.891006524));
#576 = AXIS2_PLACEMENT_3D('',#500,#574,#575);
#577 = PLANE('',#576);
#578 = FACE_SURFACE('',(#573),#577,.T.);
#579 = POLY_LOOP('',(#501,#502,#522,#521));
#580 = FACE_OUTER_BOUND('',#579,.T.);
#581 = DIRECTION('',(-0.987688341,0.000000000,-0.156434465));
#582 = DIRECTION('',(-0.156434465,0.000000000,0.987688341));
#583 = AXIS2_PLACEMENT_3D('',#501,#581,#582);
#584 = PLANE('',#583);
#585 = FACE_SURFACE('',(#580),#584,.T.);
#586 = POLY_LOOP('',(#502,#503,#523,#522));
#587 = FACE_OUTER_BOUND('',#586,.T.);
#588 = DIRECTION('',(-0.987688341,0.000000000,0.156434465));
#589 = DIRECTION('',(0.156434465,0.000000000,0.987688341));
#590 = AXIS2_PLACEMENT_3D('',#502,#588,#589);
#591 = PLANE('',#590);
#592 = FACE_SURFACE('',(#587),#591,.T.);
#593 = POLY_LOOP('',(#503,#504,#524,#523));
#594 = FACE_OUTER_BOUND('',#593,.T.);
#595 = DIRECTION('',(-0.891006524,0.000000000,0.453990500));
#596 = DIRECTION('',(0.453990500,0.000000000,0.891006524));
#597 = AXIS2_PLACEMENT_3D('',#503,#595,#596);
#598 = PLANE('',#597);
#599 = FACE_SURFACE('',(#594),#598,.T.);
#600 = POLY_LOOP('',(#504,#505,#525,#524));
#601 = FACE_OUTER_BOUND('',#600,.T.);
#602 = DIRECTION('',(-0.707106781,0.000000000,0.707106781));
#603 = DIRECTION('',(0.707106781,0.000000000,0.707106781));
#604 = AXIS2_PLACEMENT_3D('',#504,#602,#603);
#605 = PLANE('',#604);
#606 = FACE_SURFACE('',(#601),#605,.T.);
#607 = POLY_LOOP('',(#505,#506,#526,#525));
#608 = FACE_OUTER_BOUND('',#607,.T.);
#609 = DIRECTION('',(-0.453990500,0.000000000,0.891006524));
#610 = DIRECTION('',(0.891006524,0.000000000,0.453990500));
#611 = AXIS2_PLACEMENT_3D('',#505,#609,#610);
#612 = PLANE('',#611);
#613 = FACE_SURFACE('',(#608),#612,.T.);
#614 = POLY_LOOP('',(#506,#507,#527,#526));
#615 = FACE_OUTER_BOUND('',#614,.T.);
#616 = DIRECTION('',(-0.156434465,0.000000000,0.987688341));
#617 = DIRECTION('',(0.987688341,0.000000000,0.156434465));
#618 = AXIS2_PLACEMENT_3D('',#506,#616,#617);
#619 = PLANE('',#618);
#620 = FACE_SURFACE('',(#615),#619,.T.);
#621 = POLY_LOOP('',(#507,#508,#528,#527));
#622 = FACE_OUTER_BOUND('',#621,.T.);
#623 = DIRECTION('',(0.156434465,0.000000000,0.987688341));
#624 = DIRECTION('',(0.987688341,0.000000000,-0.156434465));
#625 = AXIS2_PLACEMENT_3D('',#507,#623,#624);
#626 = PLANE('',#625);
#627 = FACE_SURFACE('',(#622),#626,.T.);
#628 = POLY_LOOP('',(#508,#509,#529,#528));
#629 = FACE_OUTER_BOUND('',#628,.T.);
#630 = DIRECTION('',(0.453990500,0.000000000,0.891006524));
#631 = DIRECTION('',(0.891006524,0.000000000,-0.453990500));
#632 = AXIS2_PLACEMENT_3D('',#508,#630,#631);
#633 = PLANE('',#632);
#634 = FACE_SURFACE('',(#629),#633,.T.);
#635 = POLY_LOOP('',(#509,#510,#530,#529));
#636 = FACE_OUTER_BOUND('',#635,.T.);
#637 = DIRECTION('',(0.707106781,0.000000000,0.707106781));
#638 = DIRECTION('',(0.707106781,0.000000000,-0.707106781));
#639 = AXIS2_PLACEMENT_3D('',#509,#637,#638);
#640 = PLANE('',#639);
#641 = FACE_SURFACE('',(#636),#640,.T.);
#642 = POLY_LOOP('',(#510,#511,#531,#530));
#643 = FACE_OUTER_BOUND('',#642,.T.);
#644 = DIRECTION('',(0.891006524,0.000000000,0.453990500));
#645 = DIRECTION('',(0.453990500,0.000000000,-0.891006524));
#646 = AXIS2_PLACEMENT_3D('',#510,#644,#645);
#647 = PLANE('',#646);
#648 = FACE_SURFACE('',(#643),#647,.T.);
#649 = POLY_LOOP('',(#511,#512,#532,#531));
#650 = FACE_OUTER_BOUND('',#649,.T.);
#651 = DIRECTION('',(0.987688341,0.000000000,0.156434465));
#652 = DIRECTION('',(0.156434465,0.000000000,-0.987688341));
#653 = AXIS2_PLACEMENT_3D('',#511,#651,#652);
#654 = PLANE('',#653);
#655 = FACE_SURFACE('',(#650),#654,.T.);
#656 = POLY_LOOP('',(#512,#513,#533,#532));
#657 = FACE_OUTER_BOUND('',#656,.T.);
#658 = DIRECTION('',(0.987688341,0.000000000,-0.156434465));
#659 = DIRECTION('',(-0.156434465,0.000000000,-0.987688341));
#660 = AXIS2_PLACEMENT_3D('',#512,#658,#659);
#661 = PLANE('',#660);
#662 = FACE_SURFACE('',(#657),#661,.T.);
#663 = POLY_LOOP('',(#513,#514,#534,#533));
#664 = FACE_OUTER_BOUND('',#663,.T.);
#665 = DIRECTION('',(0.891006524,0.000000000,-0.453990500));
#666 = DIRECTION('',(-0.453990500,0.000000000,-0.891006524));
#667 = AXIS2_PLACEMENT_3D('',#513,#665,#666);
#668 = PLANE('',#667);
#669 = FACE_SURFACE('',(#664),#668,.T.);
#670 = POLY_LOOP('',(#514,#515,#535,#534));
#671 = FACE_OUTER_BOUND('',#670,.T.);
#672 = DIRECTION('',(0.707106781,0.000000000,-0.707106781));
#673 = DIRECTION('',(-0.707106781,0.000000000,-0.707106781));
#674 = AXIS2_PLACEMENT_3D('',#514,#672,#673);
#675 = PLANE('',#674);
#676 = FACE_SURFACE('',(#671),#675,.T.);
#677 = POLY_LOOP('',(#515,#516,#536,#535));
#678 = FACE_OUTER_BOUND('',#677,.T.);
#679 = DIRECTION('',(0.453990500,0.000000000,-0.891006524));
#680 = DIRECTION('',(-0.891006524,0.000000000,-0.453990500));
#681 = AXIS2_PLACEMENT_3D('',#515,#679,#680);
#682 = PLANE('',#681);
#683 = FACE_SURFACE('',(#678),#682,.T.);
#684 = POLY_LOOP('',(#516,#497,#517,#536));
#685 = FACE_OUTER_BOUND('',#684,.T.);
#686 = DIRECTION('',(0.156434465,0.000000000,-0.987688341));
#687 = DIRECTION('',(-0.987688341,0.000000000,-0.156434465));
#688 = AXIS2_PLACEMENT_3D('',#516,#686,#687);
#689 = PLANE('',#688);
#690 = FACE_SURFACE('',(#685),#689,.T.);
#691 = CLOSED_SHELL('',(#543,#550,#557,#564,#571,#578,#585,#592,#599,#606,#613,#620,#627,#634,#641,#648,#655,#662,#669,#676,#683,#690));
#692 = FACETED_BREP('black lower tube',#691);
#693 = CARTESIAN_POINT('',(0.000000000,0.000000000,-12.000000000));
#694 = CARTESIAN_POINT('',(-3.708203932,0.000000000,-11.412678196));
#695 = CARTESIAN_POINT('',(-7.053423028,0.000000000,-9.708203932));
#696 = CARTESIAN_POINT('',(-9.708203932,0.000000000,-7.053423028));
#697 = CARTESIAN_POINT('',(-11.412678196,0.000000000,-3.708203932));
#698 = CARTESIAN_POINT('',(-12.000000000,0.000000000,-0.000000000));
#699 = CARTESIAN_POINT('',(-11.412678196,0.000000000,3.708203932));
#700 = CARTESIAN_POINT('',(-9.708203932,0.000000000,7.053423028));
#701 = CARTESIAN_POINT('',(-7.053423028,0.000000000,9.708203932));
#702 = CARTESIAN_POINT('',(-3.708203932,0.000000000,11.412678196));
#703 = CARTESIAN_POINT('',(-0.000000000,0.000000000,12.000000000));
#704 = CARTESIAN_POINT('',(3.708203932,0.000000000,11.412678196));
#705 = CARTESIAN_POINT('',(7.053423028,0.000000000,9.708203932));
#706 = CARTESIAN_POINT('',(9.708203932,0.000000000,7.053423028));
#707 = CARTESIAN_POINT('',(11.412678196,0.000000000,3.708203932));
#708 = CARTESIAN_POINT('',(12.000000000,0.000000000,0.000000000));
#709 = CARTESIAN_POINT('',(11.412678196,0.000000000,-3.708203932));
#710 = CARTESIAN_POINT('',(9.708203932,0.000000000,-7.053423028));
#711 = CARTESIAN_POINT('',(7.053423028,0.000000000,-9.708203932));
#712 = CARTESIAN_POINT('',(3.708203932,0.000000000,-11.412678196));
#713 = CARTESIAN_POINT('',(0.000000000,60.000000000,-12.000000000));
#714 = CARTESIAN_POINT('',(-3.708203932,60.000000000,-11.412678196));
#715 = CARTESIAN_POINT('',(-7.053423028,60.000000000,-9.708203932));
#716 = CARTESIAN_POINT('',(-9.708203932,60.000000000,-7.053423028));
#717 = CARTESIAN_POINT('',(-11.412678196,60.000000000,-3.708203932));
#718 = CARTESIAN_POINT('',(-12.000000000,60.000000000,-0.000000000));
#719 = CARTESIAN_POINT('',(-11.412678196,60.000000000,3.708203932));
#720 = CARTESIAN_POINT('',(-9.708203932,60.000000000,7.053423028));
#721 = CARTESIAN_POINT('',(-7.053423028,60.000000000,9.708203932));
#722 = CARTESIAN_POINT('',(-3.708203932,60.000000000,11.412678196));
#723 = CARTESIAN_POINT('',(-0.000000000,60.000000000,12.000000000));
#724 = CARTESIAN_POINT('',(3.708203932,60.000000000,11.412678196));
#725 = CARTESIAN_POINT('',(7.053423028,60.000000000,9.708203932));
#726 = CARTESIAN_POINT('',(9.708203932,60.000000000,7.053423028));
#727 = CARTESIAN_POINT('',(11.412678196,60.000000000,3.708203932));
#728 = CARTESIAN_POINT('',(12.000000000,60.000000000,0.000000000));
#729 = CARTESIAN_POINT('',(11.412678196,60.000000000,-3.708203932));
#730 = CARTESIAN_POINT('',(9.708203932,60.000000000,-7.053423028));
#731 = CARTESIAN_POINT('',(7.053423028,60.000000000,-9.708203932));
#732 = CARTESIAN_POINT('',(3.708203932,60.000000000,-11.412678196));
#733 = POLY_LOOP('',(#712,#711,#710,#709,#708,#707,#706,#705,#704,#703,#702,#701,#700,#699,#698,#697,#696,#695,#694,#693));
#734 = FACE_OUTER_BOUND('',#733,.T.);
#735 = DIRECTION('',(0.000000000,-1.000000000,0.000000000));
#736 = DIRECTION('',(0.891006524,0.000000000,0.453990500));
#737 = AXIS2_PLACEMENT_3D('',#712,#735,#736);
#738 = PLANE('',#737);
#739 = FACE_SURFACE('',(#734),#738,.T.);
#740 = POLY_LOOP('',(#713,#714,#715,#716,#717,#718,#719,#720,#721,#722,#723,#724,#725,#726,#727,#728,#729,#730,#731,#732));
#741 = FACE_OUTER_BOUND('',#740,.T.);
#742 = DIRECTION('',(0.000000000,1.000000000,0.000000000));
#743 = DIRECTION('',(-0.987688341,0.000000000,0.156434465));
#744 = AXIS2_PLACEMENT_3D('',#713,#742,#743);
#745 = PLANE('',#744);
#746 = FACE_SURFACE('',(#741),#745,.T.);
#747 = POLY_LOOP('',(#693,#694,#714,#713));
#748 = FACE_OUTER_BOUND('',#747,.T.);
#749 = DIRECTION('',(-0.156434465,0.000000000,-0.987688341));
#750 = DIRECTION('',(-0.987688341,0.000000000,0.156434465));
#751 = AXIS2_PLACEMENT_3D('',#693,#749,#750);
#752 = PLANE('',#751);
#753 = FACE_SURFACE('',(#748),#752,.T.);
#754 = POLY_LOOP('',(#694,#695,#715,#714));
#755 = FACE_OUTER_BOUND('',#754,.T.);
#756 = DIRECTION('',(-0.453990500,0.000000000,-0.891006524));
#757 = DIRECTION('',(-0.891006524,0.000000000,0.453990500));
#758 = AXIS2_PLACEMENT_3D('',#694,#756,#757);
#759 = PLANE('',#758);
#760 = FACE_SURFACE('',(#755),#759,.T.);
#761 = POLY_LOOP('',(#695,#696,#716,#715));
#762 = FACE_OUTER_BOUND('',#761,.T.);
#763 = DIRECTION('',(-0.707106781,0.000000000,-0.707106781));
#764 = DIRECTION('',(-0.707106781,0.000000000,0.707106781));
#765 = AXIS2_PLACEMENT_3D('',#695,#763,#764);
#766 = PLANE('',#765);
#767 = FACE_SURFACE('',(#762),#766,.T.);
#768 = POLY_LOOP('',(#696,#697,#717,#716));
#769 = FACE_OUTER_BOUND('',#768,.T.);
#770 = DIRECTION('',(-0.891006524,0.000000000,-0.453990500));
#771 = DIRECTION('',(-0.453990500,0.000000000,0.891006524));
#772 = AXIS2_PLACEMENT_3D('',#696,#770,#771);
#773 = PLANE('',#772);
#774 = FACE_SURFACE('',(#769),#773,.T.);
#775 = POLY_LOOP('',(#697,#698,#718,#717));
#776 = FACE_OUTER_BOUND('',#775,.T.);
#777 = DIRECTION('',(-0.987688341,0.000000000,-0.156434465));
#778 = DIRECTION('',(-0.156434465,0.000000000,0.987688341));
#779 = AXIS2_PLACEMENT_3D('',#697,#777,#778);
#780 = PLANE('',#779);
#781 = FACE_SURFACE('',(#776),#780,.T.);
#782 = POLY_LOOP('',(#698,#699,#719,#718));
#783 = FACE_OUTER_BOUND('',#782,.T.);
#784 = DIRECTION('',(-0.987688341,0.000000000,0.156434465));
#785 = DIRECTION('',(0.156434465,0.000000000,0.987688341));
#786 = AXIS2_PLACEMENT_3D('',#698,#784,#785);
#787 = PLANE('',#786);
#788 = FACE_SURFACE('',(#783),#787,.T.);
#789 = POLY_LOOP('',(#699,#700,#720,#719));
#790 = FACE_OUTER_BOUND('',#789,.T.);
#791 = DIRECTION('',(-0.891006524,0.000000000,0.453990500));
#792 = DIRECTION('',(0.453990500,0.000000000,0.891006524));
#793 = AXIS2_PLACEMENT_3D('',#699,#791,#792);
#794 = PLANE('',#793);
#795 = FACE_SURFACE('',(#790),#794,.T.);
#796 = POLY_LOOP('',(#700,#701,#721,#720));
#797 = FACE_OUTER_BOUND('',#796,.T.);
#798 = DIRECTION('',(-0.707106781,0.000000000,0.707106781));
#799 = DIRECTION('',(0.707106781,0.000000000,0.707106781));
#800 = AXIS2_PLACEMENT_3D('',#700,#798,#799);
#801 = PLANE('',#800);
#802 = FACE_SURFACE('',(#797),#801,.T.);
#803 = POLY_LOOP('',(#701,#702,#722,#721));
#804 = FACE_OUTER_BOUND('',#803,.T.);
#805 = DIRECTION('',(-0.453990500,0.000000000,0.891006524));
#806 = DIRECTION('',(0.891006524,0.000000000,0.453990500));
#807 = AXIS2_PLACEMENT_3D('',#701,#805,#806);
#808 = PLANE('',#807);
#809 = FACE_SURFACE('',(#804),#808,.T.);
#810 = POLY_LOOP('',(#702,#703,#723,#722));
#811 = FACE_OUTER_BOUND('',#810,.T.);
#812 = DIRECTION('',(-0.156434465,0.000000000,0.987688341));
#813 = DIRECTION('',(0.987688341,0.000000000,0.156434465));
#814 = AXIS2_PLACEMENT_3D('',#702,#812,#813);
#815 = PLANE('',#814);
#816 = FACE_SURFACE('',(#811),#815,.T.);
#817 = POLY_LOOP('',(#703,#704,#724,#723));
#818 = FACE_OUTER_BOUND('',#817,.T.);
#819 = DIRECTION('',(0.156434465,0.000000000,0.987688341));
#820 = DIRECTION('',(0.987688341,0.000000000,-0.156434465));
#821 = AXIS2_PLACEMENT_3D('',#703,#819,#820);
#822 = PLANE('',#821);
#823 = FACE_SURFACE('',(#818),#822,.T.);
#824 = POLY_LOOP('',(#704,#705,#725,#724));
#825 = FACE_OUTER_BOUND('',#824,.T.);
#826 = DIRECTION('',(0.453990500,0.000000000,0.891006524));
#827 = DIRECTION('',(0.891006524,0.000000000,-0.453990500));
#828 = AXIS2_PLACEMENT_3D('',#704,#826,#827);
#829 = PLANE('',#828);
#830 = FACE_SURFACE('',(#825),#829,.T.);
#831 = POLY_LOOP('',(#705,#706,#726,#725));
#832 = FACE_OUTER_BOUND('',#831,.T.);
#833 = DIRECTION('',(0.707106781,0.000000000,0.707106781));
#834 = DIRECTION('',(0.707106781,0.000000000,-0.707106781));
#835 = AXIS2_PLACEMENT_3D('',#705,#833,#834);
#836 = PLANE('',#835);
#837 = FACE_SURFACE('',(#832),#836,.T.);
#838 = POLY_LOOP('',(#706,#707,#727,#726));
#839 = FACE_OUTER_BOUND('',#838,.T.);
#840 = DIRECTION('',(0.891006524,0.000000000,0.453990500));
#841 = DIRECTION('',(0.453990500,0.000000000,-0.891006524));
#842 = AXIS2_PLACEMENT_3D('',#706,#840,#841);
#843 = PLANE('',#842);
#844 = FACE_SURFACE('',(#839),#843,.T.);
#845 = POLY_LOOP('',(#707,#708,#728,#727));
#846 = FACE_OUTER_BOUND('',#845,.T.);
#847 = DIRECTION('',(0.987688341,0.000000000,0.156434465));
#848 = DIRECTION('',(0.156434465,0.000000000,-0.987688341));
#849 = AXIS2_PLACEMENT_3D('',#707,#847,#848);
#850 = PLANE('',#849);
#851 = FACE_SURFACE('',(#846),#850,.T.);
#852 = POLY_LOOP('',(#708,#709,#729,#728));
#853 = FACE_OUTER_BOUND('',#852,.T.);
#854 = DIRECTION('',(0.987688341,0.000000000,-0.156434465));
#855 = DIRECTION('',(-0.156434465,0.000000000,-0.987688341));
#856 = AXIS2_PLACEMENT_3D('',#708,#854,#855);
#857 = PLANE('',#856);
#858 = FACE_SURFACE('',(#853),#857,.T.);
#859 = POLY_LOOP('',(#709,#710,#730,#729));
#860 = FACE_OUTER_BOUND('',#859,.T.);
#861 = DIRECTION('',(0.891006524,0.000000000,-0.453990500));
#862 = DIRECTION('',(-0.453990500,0.000000000,-0.891006524));
#863 = AXIS2_PLACEMENT_3D('',#709,#861,#862);
#864 = PLANE('',#863);
#865 = FACE_SURFACE('',(#860),#864,.T.);
#866 = POLY_LOOP('',(#710,#711,#731,#730));
#867 = FACE_OUTER_BOUND('',#866,.T.);
#868 = DIRECTION('',(0.707106781,0.000000000,-0.707106781));
#869 = DIRECTION('',(-0.707106781,0.000000000,-0.707106781));
#870 = AXIS2_PLACEMENT_3D('',#710,#868,#869);
#871 = PLANE('',#870);
#872 = FACE_SURFACE('',(#867),#871,.T.);
#873 = POLY_LOOP('',(#711,#712,#732,#731));
#874 = FACE_OUTER_BOUND('',#873,.T.);
#875 = DIRECTION('',(0.453990500,0.000000000,-0.891006524));
#876 = DIRECTION('',(-0.891006524,0.000000000,-0.453990500));
#877 = AXIS2_PLACEMENT_3D('',#711,#875,#876);
#878 = PLANE('',#877);
#879 = FACE_SURFACE('',(#874),#878,.T.);
#880 = POLY_LOOP('',(#712,#693,#713,#732));
#881 = FACE_OUTER_BOUND('',#880,.T.);
#882 = DIRECTION('',(0.156434465,0.000000000,-0.987688341));
#883 = DIRECTION('',(-0.987688341,0.000000000,-0.156434465));
#884 = AXIS2_PLACEMENT_3D('',#712,#882,#883);
#885 = PLANE('',#884);
#886 = FACE_SURFACE('',(#881),#885,.T.);
#887 = CLOSED_SHELL('',(#739,#746,#753,#760,#767,#774,#781,#788,#795,#802,#809,#816,#823,#830,#837,#844,#851,#858,#865,#872,#879,#886));
#888 = FACETED_BREP('black objective',#887);
#889 = CARTESIAN_POINT('',(-95.000000000,162.000000000,40.000000000));
#890 = CARTESIAN_POINT('',(-96.545084972,162.000000000,40.244717419));
#891 = CARTESIAN_POINT('',(-97.938926261,162.000000000,40.954915028));
#892 = CARTESIAN_POINT('',(-99.045084972,162.000000000,42.061073739));
#893 = CARTESIAN_POINT('',(-99.755282581,162.000000000,43.454915028));
#894 = CARTESIAN_POINT('',(-100.000000000,162.000000000,45.000000000));
#895 = CARTESIAN_POINT('',(-99.755282581,162.000000000,46.545084972));
#896 = CARTESIAN_POINT('',(-99.045084972,162.000000000,47.938926261));
#897 = CARTESIAN_POINT('',(-97.938926261,162.000000000,49.045084972));
#898 = CARTESIAN_POINT('',(-96.545084972,162.000000000,49.755282581));
#899 = CARTESIAN_POINT('',(-95.000000000,162.000000000,50.000000000));
#900 = CARTESIAN_POINT('',(-93.454915028,162.000000000,49.755282581));
#901 = CARTESIAN_POINT('',(-92.061073739,162.000000000,49.045084972));
#902 = CARTESIAN_POINT('',(-90.954915028,162.000000000,47.938926261));
#903 = CARTESIAN_POINT('',(-90.244717419,162.000000000,46.545084972));
#904 = CARTESIAN_POINT('',(-90.000000000,162.000000000,45.000000000));
#905 = CARTESIAN_POINT('',(-90.244717419,162.000000000,43.454915028));
#906 = CARTESIAN_POINT('',(-90.954915028,162.000000000,42.061073739));
#907 = CARTESIAN_POINT('',(-92.061073739,162.000000000,40.954915028));
#908 = CARTESIAN_POINT('',(-93.454915028,162.000000000,40.244717419));
#909 = CARTESIAN_POINT('',(-95.000000000,265.000000000,40.000000000));
#910 = CARTESIAN_POINT('',(-96.545084972,265.000000000,40.244717419));
#911 = CARTESIAN_POINT('',(-97.938926261,265.000000000,40.954915028));
#912 = CARTESIAN_POINT('',(-99.045084972,265.000000000,42.061073739));
#913 = CARTESIAN_POINT('',(-99.755282581,265.000000000,43.454915028));
#914 = CARTESIAN_POINT('',(-100.000000000,265.000000000,45.000000000));
#915 = CARTESIAN_POINT('',(-99.755282581,265.000000000,46.545084972));
#916 = CARTESIAN_POINT('',(-99.045084972,265.000000000,47.938926261));
#917 = CARTESIAN_POINT('',(-97.938926261,265.000000000,49.045084972));
#918 = CARTESIAN_POINT('',(-96.545084972,265.000000000,49.755282581));
#919 = CARTESIAN_POINT('',(-95.000000000,265.000000000,50.000000000));
#920 = CARTESIAN_POINT('',(-93.454915028,265.000000000,49.755282581));
#921 = CARTESIAN_POINT('',(-92.061073739,265.000000000,49.045084972));
#922 = CARTESIAN_POINT('',(-90.954915028,265.000000000,47.938926261));
#923 = CARTESIAN_POINT('',(-90.244717419,265.000000000,46.545084972));
#924 = CARTESIAN_POINT('',(-90.000000000,265.000000000,45.000000000));
#925 = CARTESIAN_POINT('',(-90.244717419,265.000000000,43.454915028));
#926 = CARTESIAN_POINT('',(-90.954915028,265.000000000,42.061073739));
#927 = CARTESIAN_POINT('',(-92.061073739,265.000000000,40.954915028));
#928 = CARTESIAN_POINT('',(-93.454915028,265.000000000,40.244717419));
#929 = POLY_LOOP('',(#908,#907,#906,#905,#904,#903,#902,#901,#900,#899,#898,#897,#896,#895,#894,#893,#892,#891,#890,#889));
#930 = FACE_OUTER_BOUND('',#929,.T.);
#931 = DIRECTION('',(0.000000000,-1.000000000,0.000000000));
#932 = DIRECTION('',(0.891006524,0.000000000,0.453990500));
#933 = AXIS2_PLACEMENT_3D('',#908,#931,#932);
#934 = PLANE('',#933);
#935 = FACE_SURFACE('',(#930),#934,.T.);
#936 = POLY_LOOP('',(#909,#910,#911,#912,#913,#914,#915,#916,#917,#918,#919,#920,#921,#922,#923,#924,#925,#926,#927,#928));
#937 = FACE_OUTER_BOUND('',#936,.T.);
#938 = DIRECTION('',(0.000000000,1.000000000,0.000000000));
#939 = DIRECTION('',(-0.987688341,0.000000000,0.156434465));
#940 = AXIS2_PLACEMENT_3D('',#909,#938,#939);
#941 = PLANE('',#940);
#942 = FACE_SURFACE('',(#937),#941,.T.);
#943 = POLY_LOOP('',(#889,#890,#910,#909));
#944 = FACE_OUTER_BOUND('',#943,.T.);
#945 = DIRECTION('',(-0.156434465,0.000000000,-0.987688341));
#946 = DIRECTION('',(-0.987688341,0.000000000,0.156434465));
#947 = AXIS2_PLACEMENT_3D('',#889,#945,#946);
#948 = PLANE('',#947);
#949 = FACE_SURFACE('',(#944),#948,.T.);
#950 = POLY_LOOP('',(#890,#891,#911,#910));
#951 = FACE_OUTER_BOUND('',#950,.T.);
#952 = DIRECTION('',(-0.453990500,0.000000000,-0.891006524));
#953 = DIRECTION('',(-0.891006524,0.000000000,0.453990500));
#954 = AXIS2_PLACEMENT_3D('',#890,#952,#953);
#955 = PLANE('',#954);
#956 = FACE_SURFACE('',(#951),#955,.T.);
#957 = POLY_LOOP('',(#891,#892,#912,#911));
#958 = FACE_OUTER_BOUND('',#957,.T.);
#959 = DIRECTION('',(-0.707106781,0.000000000,-0.707106781));
#960 = DIRECTION('',(-0.707106781,0.000000000,0.707106781));
#961 = AXIS2_PLACEMENT_3D('',#891,#959,#960);
#962 = PLANE('',#961);
#963 = FACE_SURFACE('',(#958),#962,.T.);
#964 = POLY_LOOP('',(#892,#893,#913,#912));
#965 = FACE_OUTER_BOUND('',#964,.T.);
#966 = DIRECTION('',(-0.891006524,0.000000000,-0.453990500));
#967 = DIRECTION('',(-0.453990500,0.000000000,0.891006524));
#968 = AXIS2_PLACEMENT_3D('',#892,#966,#967);
#969 = PLANE('',#968);
#970 = FACE_SURFACE('',(#965),#969,.T.);
#971 = POLY_LOOP('',(#893,#894,#914,#913));
#972 = FACE_OUTER_BOUND('',#971,.T.);
#973 = DIRECTION('',(-0.987688341,0.000000000,-0.156434465));
#974 = DIRECTION('',(-0.156434465,0.000000000,0.987688341));
#975 = AXIS2_PLACEMENT_3D('',#893,#973,#974);
#976 = PLANE('',#975);
#977 = FACE_SURFACE('',(#972),#976,.T.);
#978 = POLY_LOOP('',(#894,#895,#915,#914));
#979 = FACE_OUTER_BOUND('',#978,.T.);
#980 = DIRECTION('',(-0.987688341,0.000000000,0.156434465));
#981 = DIRECTION('',(0.156434465,0.000000000,0.987688341));
#982 = AXIS2_PLACEMENT_3D('',#894,#980,#981);
#983 = PLANE('',#982);
#984 = FACE_SURFACE('',(#979),#983,.T.);
#985 = POLY_LOOP('',(#895,#896,#916,#915));
#986 = FACE_OUTER_BOUND('',#985,.T.);
#987 = DIRECTION('',(-0.891006524,0.000000000,0.453990500));
#988 = DIRECTION('',(0.453990500,0.000000000,0.891006524));
#989 = AXIS2_PLACEMENT_3D('',#895,#987,#988);
#990 = PLANE('',#989);
#991 = FACE_SURFACE('',(#986),#990,.T.);
#992 = POLY_LOOP('',(#896,#897,#917,#916));
#993 = FACE_OUTER_BOUND('',#992,.T.);
#994 = DIRECTION('',(-0.707106781,0.000000000,0.707106781));
#995 = DIRECTION('',(0.707106781,0.000000000,0.707106781));
#996 = AXIS2_PLACEMENT_3D('',#896,#994,#995);
#997 = PLANE('',#996);
#998 = FACE_SURFACE('',(#993),#997,.T.);
#999 = POLY_LOOP('',(#897,#898,#918,#917));
#1000 = FACE_OUTER_BOUND('',#999,.T.);
#1001 = DIRECTION('',(-0.453990500,0.000000000,0.891006524));
#1002 = DIRECTION('',(0.891006524,0.000000000,0.453990500));
#1003 = AXIS2_PLACEMENT_3D('',#897,#1001,#1002);
#1004 = PLANE('',#1003);
#1005 = FACE_SURFACE('',(#1000),#1004,.T.);
#1006 = POLY_LOOP('',(#898,#899,#919,#918));
#1007 = FACE_OUTER_BOUND('',#1006,.T.);
#1008 = DIRECTION('',(-0.156434465,0.000000000,0.987688341));
#1009 = DIRECTION('',(0.987688341,0.000000000,0.156434465));
#1010 = AXIS2_PLACEMENT_3D('',#898,#1008,#1009);
#1011 = PLANE('',#1010);
#1012 = FACE_SURFACE('',(#1007),#1011,.T.);
#1013 = POLY_LOOP('',(#899,#900,#920,#919));
#1014 = FACE_OUTER_BOUND('',#1013,.T.);
#1015 = DIRECTION('',(0.156434465,0.000000000,0.987688341));
#1016 = DIRECTION('',(0.987688341,0.000000000,-0.156434465));
#1017 = AXIS2_PLACEMENT_3D('',#899,#1015,#1016);
#1018 = PLANE('',#1017);
#1019 = FACE_SURFACE('',(#1014),#1018,.T.);
#1020 = POLY_LOOP('',(#900,#901,#921,#920));
#1021 = FACE_OUTER_BOUND('',#1020,.T.);
#1022 = DIRECTION('',(0.453990500,0.000000000,0.891006524));
#1023 = DIRECTION('',(0.891006524,0.000000000,-0.453990500));
#1024 = AXIS2_PLACEMENT_3D('',#900,#1022,#1023);
#1025 = PLANE('',#1024);
#1026 = FACE_SURFACE('',(#1021),#1025,.T.);
#1027 = POLY_LOOP('',(#901,#902,#922,#921));
#1028 = FACE_OUTER_BOUND('',#1027,.T.);
#1029 = DIRECTION('',(0.707106781,0.000000000,0.707106781));
#1030 = DIRECTION('',(0.707106781,0.000000000,-0.707106781));
#1031 = AXIS2_PLACEMENT_3D('',#901,#1029,#1030);
#1032 = PLANE('',#1031);
#1033 = FACE_SURFACE('',(#1028),#1032,.T.);
#1034 = POLY_LOOP('',(#902,#903,#923,#922));
#1035 = FACE_OUTER_BOUND('',#1034,.T.);
#1036 = DIRECTION('',(0.891006524,0.000000000,0.453990500));
#1037 = DIRECTION('',(0.453990500,0.000000000,-0.891006524));
#1038 = AXIS2_PLACEMENT_3D('',#902,#1036,#1037);
#1039 = PLANE('',#1038);
#1040 = FACE_SURFACE('',(#1035),#1039,.T.);
#1041 = POLY_LOOP('',(#903,#904,#924,#923));
#1042 = FACE_OUTER_BOUND('',#1041,.T.);
#1043 = DIRECTION('',(0.987688341,0.000000000,0.156434465));
#1044 = DIRECTION('',(0.156434465,0.000000000,-0.987688341));
#1045 = AXIS2_PLACEMENT_3D('',#903,#1043,#1044);
#1046 = PLANE('',#1045);
#1047 = FACE_SURFACE('',(#1042),#1046,.T.);
#1048 = POLY_LOOP('',(#904,#905,#925,#924));
#1049 = FACE_OUTER_BOUND('',#1048,.T.);
#1050 = DIRECTION('',(0.987688341,0.000000000,-0.156434465));
#1051 = DIRECTION('',(-0.156434465,0.000000000,-0.987688341));
#1052 = AXIS2_PLACEMENT_3D('',#904,#1050,#1051);
#1053 = PLANE('',#1052);
#1054 = FACE_SURFACE('',(#1049),#1053,.T.);
#1055 = POLY_LOOP('',(#905,#906,#926,#925));
#1056 = FACE_OUTER_BOUND('',#1055,.T.);
#1057 = DIRECTION('',(0.891006524,0.000000000,-0.453990500));
#1058 = DIRECTION('',(-0.453990500,0.000000000,-0.891006524));
#1059 = AXIS2_PLACEMENT_3D('',#905,#1057,#1058);
#1060 = PLANE('',#1059);
#1061 = FACE_SURFACE('',(#1056),#1060,.T.);
#1062 = POLY_LOOP('',(#906,#907,#927,#926));
#1063 = FACE_OUTER_BOUND('',#1062,.T.);
#1064 = DIRECTION('',(0.707106781,0.000000000,-0.707106781));
#1065 = DIRECTION('',(-0.707106781,0.000000000,-0.707106781));
#1066 = AXIS2_PLACEMENT_3D('',#906,#1064,#1065);
#1067 = PLANE('',#1066);
#1068 = FACE_SURFACE('',(#1063),#1067,.T.);
#1069 = POLY_LOOP('',(#907,#908,#928,#927));
#1070 = FACE_OUTER_BOUND('',#1069,.T.);
#1071 = DIRECTION('',(0.453990500,0.000000000,-0.891006524));
#1072 = DIRECTION('',(-0.891006524,0.000000000,-0.453990500));
#1073 = AXIS2_PLACEMENT_3D('',#907,#1071,#1072);
#1074 = PLANE('',#1073);
#1075 = FACE_SURFACE('',(#1070),#1074,.T.);
#1076 = POLY_LOOP('',(#908,#889,#909,#928));
#1077 = FACE_OUTER_BOUND('',#1076,.T.);
#1078 = DIRECTION('',(0.156434465,0.000000000,-0.987688341));
#1079 = DIRECTION('',(-0.987688341,0.000000000,-0.156434465));
#1080 = AXIS2_PLACEMENT_3D('',#908,#1078,#1079);
#1081 = PLANE('',#1080);
#1082 = FACE_SURFACE('',(#1077),#1081,.T.);
#1083 = CLOSED_SHELL('',(#935,#942,#949,#956,#963,#970,#977,#984,#991,#998,#1005,#1012,#1019,#1026,#1033,#1040,#1047,#1054,#1061,#1068,#1075,#1082));
#1084 = FACETED_BREP('silver focus screw',#1083);
#1085 = CARTESIAN_POINT('',(-175.000000000,216.000000000,-18.000000000));
#1086 = CARTESIAN_POINT('',(-175.000000000,210.437694101,-17.119017293));
#1087 = CARTESIAN_POINT('',(-175.000000000,205.419865459,-14.562305899));
#1088 = CARTESIAN_POINT('',(-175.000000000,201.437694101,-10.580134541));
#1089 = CARTESIAN_POINT('',(-175.000000000,198.880982707,-5.562305899));
#1090 = CARTESIAN_POINT('',(-175.000000000,198.000000000,-0.000000000));
#1091 = CARTESIAN_POINT('',(-175.000000000,198.880982707,5.562305899));
#1092 = CARTESIAN_POINT('',(-175.000000000,201.437694101,10.580134541));
#1093 = CARTESIAN_POINT('',(-175.000000000,205.419865459,14.562305899));
#1094 = CARTESIAN_POINT('',(-175.000000000,210.437694101,17.119017293));
#1095 = CARTESIAN_POINT('',(-175.000000000,216.000000000,18.000000000));
#1096 = CARTESIAN_POINT('',(-175.000000000,221.562305899,17.119017293));
#1097 = CARTESIAN_POINT('',(-175.000000000,226.580134541,14.562305899));
#1098 = CARTESIAN_POINT('',(-175.000000000,230.562305899,10.580134541));
#1099 = CARTESIAN_POINT('',(-175.000000000,233.119017293,5.562305899));
#1100 = CARTESIAN_POINT('',(-175.000000000,234.000000000,0.000000000));
#1101 = CARTESIAN_POINT('',(-175.000000000,233.119017293,-5.562305899));
#1102 = CARTESIAN_POINT('',(-175.000000000,230.562305899,-10.580134541));
#1103 = CARTESIAN_POINT('',(-175.000000000,226.580134541,-14.562305899));
#1104 = CARTESIAN_POINT('',(-175.000000000,221.562305899,-17.119017293));
#1105 = CARTESIAN_POINT('',(-195.000000000,216.000000000,-18.000000000));
#1106 = CARTESIAN_POINT('',(-195.000000000,210.437694101,-17.119017293));
#1107 = CARTESIAN_POINT('',(-195.000000000,205.419865459,-14.562305899));
#1108 = CARTESIAN_POINT('',(-195.000000000,201.437694101,-10.580134541));
#1109 = CARTESIAN_POINT('',(-195.000000000,198.880982707,-5.562305899));
#1110 = CARTESIAN_POINT('',(-195.000000000,198.000000000,-0.000000000));
#1111 = CARTESIAN_POINT('',(-195.000000000,198.880982707,5.562305899));
#1112 = CARTESIAN_POINT('',(-195.000000000,201.437694101,10.580134541));
#1113 = CARTESIAN_POINT('',(-195.000000000,205.419865459,14.562305899));
#1114 = CARTESIAN_POINT('',(-195.000000000,210.437694101,17.119017293));
#1115 = CARTESIAN_POINT('',(-195.000000000,216.000000000,18.000000000));
#1116 = CARTESIAN_POINT('',(-195.000000000,221.562305899,17.119017293));
#1117 = CARTESIAN_POINT('',(-195.000000000,226.580134541,14.562305899));
#1118 = CARTESIAN_POINT('',(-195.000000000,230.562305899,10.580134541));
#1119 = CARTESIAN_POINT('',(-195.000000000,233.119017293,5.562305899));
#1120 = CARTESIAN_POINT('',(-195.000000000,234.000000000,0.000000000));
#1121 = CARTESIAN_POINT('',(-195.000000000,233.119017293,-5.562305899));
#1122 = CARTESIAN_POINT('',(-195.000000000,230.562305899,-10.580134541));
#1123 = CARTESIAN_POINT('',(-195.000000000,226.580134541,-14.562305899));
#1124 = CARTESIAN_POINT('',(-195.000000000,221.562305899,-17.119017293));
#1125 = POLY_LOOP('',(#1104,#1103,#1102,#1101,#1100,#1099,#1098,#1097,#1096,#1095,#1094,#1093,#1092,#1091,#1090,#1089,#1088,#1087,#1086,#1085));
#1126 = FACE_OUTER_BOUND('',#1125,.T.);
#1127 = DIRECTION('',(1.000000000,0.000000000,0.000000000));
#1128 = DIRECTION('',(0.000000000,0.891006524,0.453990500));
#1129 = AXIS2_PLACEMENT_3D('',#1104,#1127,#1128);
#1130 = PLANE('',#1129);
#1131 = FACE_SURFACE('',(#1126),#1130,.T.);
#1132 = POLY_LOOP('',(#1105,#1106,#1107,#1108,#1109,#1110,#1111,#1112,#1113,#1114,#1115,#1116,#1117,#1118,#1119,#1120,#1121,#1122,#1123,#1124));
#1133 = FACE_OUTER_BOUND('',#1132,.T.);
#1134 = DIRECTION('',(-1.000000000,0.000000000,0.000000000));
#1135 = DIRECTION('',(0.000000000,-0.987688341,0.156434465));
#1136 = AXIS2_PLACEMENT_3D('',#1105,#1134,#1135);
#1137 = PLANE('',#1136);
#1138 = FACE_SURFACE('',(#1133),#1137,.T.);
#1139 = POLY_LOOP('',(#1085,#1086,#1106,#1105));
#1140 = FACE_OUTER_BOUND('',#1139,.T.);
#1141 = DIRECTION('',(0.000000000,-0.156434465,-0.987688341));
#1142 = DIRECTION('',(0.000000000,-0.987688341,0.156434465));
#1143 = AXIS2_PLACEMENT_3D('',#1085,#1141,#1142);
#1144 = PLANE('',#1143);
#1145 = FACE_SURFACE('',(#1140),#1144,.T.);
#1146 = POLY_LOOP('',(#1086,#1087,#1107,#1106));
#1147 = FACE_OUTER_BOUND('',#1146,.T.);
#1148 = DIRECTION('',(0.000000000,-0.453990500,-0.891006524));
#1149 = DIRECTION('',(0.000000000,-0.891006524,0.453990500));
#1150 = AXIS2_PLACEMENT_3D('',#1086,#1148,#1149);
#1151 = PLANE('',#1150);
#1152 = FACE_SURFACE('',(#1147),#1151,.T.);
#1153 = POLY_LOOP('',(#1087,#1088,#1108,#1107));
#1154 = FACE_OUTER_BOUND('',#1153,.T.);
#1155 = DIRECTION('',(0.000000000,-0.707106781,-0.707106781));
#1156 = DIRECTION('',(0.000000000,-0.707106781,0.707106781));
#1157 = AXIS2_PLACEMENT_3D('',#1087,#1155,#1156);
#1158 = PLANE('',#1157);
#1159 = FACE_SURFACE('',(#1154),#1158,.T.);
#1160 = POLY_LOOP('',(#1088,#1089,#1109,#1108));
#1161 = FACE_OUTER_BOUND('',#1160,.T.);
#1162 = DIRECTION('',(0.000000000,-0.891006524,-0.453990500));
#1163 = DIRECTION('',(0.000000000,-0.453990500,0.891006524));
#1164 = AXIS2_PLACEMENT_3D('',#1088,#1162,#1163);
#1165 = PLANE('',#1164);
#1166 = FACE_SURFACE('',(#1161),#1165,.T.);
#1167 = POLY_LOOP('',(#1089,#1090,#1110,#1109));
#1168 = FACE_OUTER_BOUND('',#1167,.T.);
#1169 = DIRECTION('',(0.000000000,-0.987688341,-0.156434465));
#1170 = DIRECTION('',(0.000000000,-0.156434465,0.987688341));
#1171 = AXIS2_PLACEMENT_3D('',#1089,#1169,#1170);
#1172 = PLANE('',#1171);
#1173 = FACE_SURFACE('',(#1168),#1172,.T.);
#1174 = POLY_LOOP('',(#1090,#1091,#1111,#1110));
#1175 = FACE_OUTER_BOUND('',#1174,.T.);
#1176 = DIRECTION('',(0.000000000,-0.987688341,0.156434465));
#1177 = DIRECTION('',(0.000000000,0.156434465,0.987688341));
#1178 = AXIS2_PLACEMENT_3D('',#1090,#1176,#1177);
#1179 = PLANE('',#1178);
#1180 = FACE_SURFACE('',(#1175),#1179,.T.);
#1181 = POLY_LOOP('',(#1091,#1092,#1112,#1111));
#1182 = FACE_OUTER_BOUND('',#1181,.T.);
#1183 = DIRECTION('',(0.000000000,-0.891006524,0.453990500));
#1184 = DIRECTION('',(0.000000000,0.453990500,0.891006524));
#1185 = AXIS2_PLACEMENT_3D('',#1091,#1183,#1184);
#1186 = PLANE('',#1185);
#1187 = FACE_SURFACE('',(#1182),#1186,.T.);
#1188 = POLY_LOOP('',(#1092,#1093,#1113,#1112));
#1189 = FACE_OUTER_BOUND('',#1188,.T.);
#1190 = DIRECTION('',(0.000000000,-0.707106781,0.707106781));
#1191 = DIRECTION('',(0.000000000,0.707106781,0.707106781));
#1192 = AXIS2_PLACEMENT_3D('',#1092,#1190,#1191);
#1193 = PLANE('',#1192);
#1194 = FACE_SURFACE('',(#1189),#1193,.T.);
#1195 = POLY_LOOP('',(#1093,#1094,#1114,#1113));
#1196 = FACE_OUTER_BOUND('',#1195,.T.);
#1197 = DIRECTION('',(0.000000000,-0.453990500,0.891006524));
#1198 = DIRECTION('',(0.000000000,0.891006524,0.453990500));
#1199 = AXIS2_PLACEMENT_3D('',#1093,#1197,#1198);
#1200 = PLANE('',#1199);
#1201 = FACE_SURFACE('',(#1196),#1200,.T.);
#1202 = POLY_LOOP('',(#1094,#1095,#1115,#1114));
#1203 = FACE_OUTER_BOUND('',#1202,.T.);
#1204 = DIRECTION('',(0.000000000,-0.156434465,0.987688341));
#1205 = DIRECTION('',(0.000000000,0.987688341,0.156434465));
#1206 = AXIS2_PLACEMENT_3D('',#1094,#1204,#1205);
#1207 = PLANE('',#1206);
#1208 = FACE_SURFACE('',(#1203),#1207,.T.);
#1209 = POLY_LOOP('',(#1095,#1096,#1116,#1115));
#1210 = FACE_OUTER_BOUND('',#1209,.T.);
#1211 = DIRECTION('',(0.000000000,0.156434465,0.987688341));
#1212 = DIRECTION('',(0.000000000,0.987688341,-0.156434465));
#1213 = AXIS2_PLACEMENT_3D('',#1095,#1211,#1212);
#1214 = PLANE('',#1213);
#1215 = FACE_SURFACE('',(#1210),#1214,.T.);
#1216 = POLY_LOOP('',(#1096,#1097,#1117,#1116));
#1217 = FACE_OUTER_BOUND('',#1216,.T.);
#1218 = DIRECTION('',(0.000000000,0.453990500,0.891006524));
#1219 = DIRECTION('',(0.000000000,0.891006524,-0.453990500));
#1220 = AXIS2_PLACEMENT_3D('',#1096,#1218,#1219);
#1221 = PLANE('',#1220);
#1222 = FACE_SURFACE('',(#1217),#1221,.T.);
#1223 = POLY_LOOP('',(#1097,#1098,#1118,#1117));
#1224 = FACE_OUTER_BOUND('',#1223,.T.);
#1225 = DIRECTION('',(0.000000000,0.707106781,0.707106781));
#1226 = DIRECTION('',(0.000000000,0.707106781,-0.707106781));
#1227 = AXIS2_PLACEMENT_3D('',#1097,#1225,#1226);
#1228 = PLANE('',#1227);
#1229 = FACE_SURFACE('',(#1224),#1228,.T.);
#1230 = POLY_LOOP('',(#1098,#1099,#1119,#1118));
#1231 = FACE_OUTER_BOUND('',#1230,.T.);
#1232 = DIRECTION('',(0.000000000,0.891006524,0.453990500));
#1233 = DIRECTION('',(0.000000000,0.453990500,-0.891006524));
#1234 = AXIS2_PLACEMENT_3D('',#1098,#1232,#1233);
#1235 = PLANE('',#1234);
#1236 = FACE_SURFACE('',(#1231),#1235,.T.);
#1237 = POLY_LOOP('',(#1099,#1100,#1120,#1119));
#1238 = FACE_OUTER_BOUND('',#1237,.T.);
#1239 = DIRECTION('',(0.000000000,0.987688341,0.156434465));
#1240 = DIRECTION('',(0.000000000,0.156434465,-0.987688341));
#1241 = AXIS2_PLACEMENT_3D('',#1099,#1239,#1240);
#1242 = PLANE('',#1241);
#1243 = FACE_SURFACE('',(#1238),#1242,.T.);
#1244 = POLY_LOOP('',(#1100,#1101,#1121,#1120));
#1245 = FACE_OUTER_BOUND('',#1244,.T.);
#1246 = DIRECTION('',(0.000000000,0.987688341,-0.156434465));
#1247 = DIRECTION('',(0.000000000,-0.156434465,-0.987688341));
#1248 = AXIS2_PLACEMENT_3D('',#1100,#1246,#1247);
#1249 = PLANE('',#1248);
#1250 = FACE_SURFACE('',(#1245),#1249,.T.);
#1251 = POLY_LOOP('',(#1101,#1102,#1122,#1121));
#1252 = FACE_OUTER_BOUND('',#1251,.T.);
#1253 = DIRECTION('',(0.000000000,0.891006524,-0.453990500));
#1254 = DIRECTION('',(0.000000000,-0.453990500,-0.891006524));
#1255 = AXIS2_PLACEMENT_3D('',#1101,#1253,#1254);
#1256 = PLANE('',#1255);
#1257 = FACE_SURFACE('',(#1252),#1256,.T.);
#1258 = POLY_LOOP('',(#1102,#1103,#1123,#1122));
#1259 = FACE_OUTER_BOUND('',#1258,.T.);
#1260 = DIRECTION('',(0.000000000,0.707106781,-0.707106781));
#1261 = DIRECTION('',(0.000000000,-0.707106781,-0.707106781));
#1262 = AXIS2_PLACEMENT_3D('',#1102,#1260,#1261);
#1263 = PLANE('',#1262);
#1264 = FACE_SURFACE('',(#1259),#1263,.T.);
#1265 = POLY_LOOP('',(#1103,#1104,#1124,#1123));
#1266 = FACE_OUTER_BOUND('',#1265,.T.);
#1267 = DIRECTION('',(0.000000000,0.453990500,-0.891006524));
#1268 = DIRECTION('',(0.000000000,-0.891006524,-0.453990500));
#1269 = AXIS2_PLACEMENT_3D('',#1103,#1267,#1268);
#1270 = PLANE('',#1269);
#1271 = FACE_SURFACE('',(#1266),#1270,.T.);
#1272 = POLY_LOOP('',(#1104,#1085,#1105,#1124));
#1273 = FACE_OUTER_BOUND('',#1272,.T.);
#1274 = DIRECTION('',(0.000000000,0.156434465,-0.987688341));
#1275 = DIRECTION('',(0.000000000,-0.987688341,-0.156434465));
#1276 = AXIS2_PLACEMENT_3D('',#1104,#1274,#1275);
#1277 = PLANE('',#1276);
#1278 = FACE_SURFACE('',(#1273),#1277,.T.);
#1279 = CLOSED_SHELL('',(#1131,#1138,#1145,#1152,#1159,#1166,#1173,#1180,#1187,#1194,#1201,#1208,#1215,#1222,#1229,#1236,#1243,#1250,#1257,#1264,#1271,#1278));
#1280 = FACETED_BREP('black focus knob',#1279);
#1281 = APPLICATION_CONTEXT('configuration controlled 3d designs of mechanical parts and assemblies');
#1282 = APPLICATION_PROTOCOL_DEFINITION('international standard','config_control_design',1994,#1281);
#1283 = PRODUCT_CONTEXT('',#1281,'mechanical');
#1284 = PRODUCT('REF','Illustrative reference','NOT vendor CAD',(#1283));
#1285 = PRODUCT_DEFINITION_FORMATION_WITH_SPECIFIED_SOURCE('','',#1284,.NOT_KNOWN.);
#1286 = PRODUCT_DEFINITION_CONTEXT('part definition',#1281,'design');
#1287 = PRODUCT_DEFINITION('design','',#1285,#1286);
#1288 = PRODUCT_DEFINITION_SHAPE('','',#1287);
#1289 = (LENGTH_UNIT()NAMED_UNIT(*)SI_UNIT(.MILLI.,.METRE.));
#1290 = (NAMED_UNIT(*)PLANE_ANGLE_UNIT()SI_UNIT($,.RADIAN.));
#1291 = (NAMED_UNIT(*)SI_UNIT($,.STERADIAN.)SOLID_ANGLE_UNIT());
#1292 = UNCERTAINTY_MEASURE_WITH_UNIT(LENGTH_MEASURE(0.000001),#1289,'distance_accuracy_value','');
#1293 = (GEOMETRIC_REPRESENTATION_CONTEXT(3)GLOBAL_UNCERTAINTY_ASSIGNED_CONTEXT((#1292))GLOBAL_UNIT_ASSIGNED_CONTEXT((#1289,#1290,#1291))REPRESENTATION_CONTEXT('',''));
#1294 = FACETED_BREP_SHAPE_REPRESENTATION('Illustrative reference',(#52,#248,#300,#496,#692,#888,#1084,#1280),#1293);
#1295 = SHAPE_DEFINITION_REPRESENTATION(#1288,#1294);
ENDSEC;
END-ISO-10303-21;
