ISO-10303-21;
HEADER;
FILE_DESCRIPTION(('Illustrative CAD - NOT vendor dimensions'),'2;1');
FILE_NAME('reference.step','2026-10-07',('CORNERSTONE'),(''),'reference generator','','');
FILE_SCHEMA(('CONFIG_CONTROL_DESIGN'));
ENDSEC;
DATA;
#1 = CARTESIAN_POINT('',(-210.000000000,80.000000000,-11.000000000));
#2 = CARTESIAN_POINT('',(210.000000000,80.000000000,-11.000000000));
#3 = CARTESIAN_POINT('',(210.000000000,340.000000000,-11.000000000));
#4 = CARTESIAN_POINT('',(-210.000000000,340.000000000,-11.000000000));
#5 = CARTESIAN_POINT('',(-210.000000000,80.000000000,11.000000000));
#6 = CARTESIAN_POINT('',(210.000000000,80.000000000,11.000000000));
#7 = CARTESIAN_POINT('',(210.000000000,340.000000000,11.000000000));
#8 = CARTESIAN_POINT('',(-210.000000000,340.000000000,11.000000000));
#9 = POLY_LOOP('',(#1,#4,#3,#2));
#10 = FACE_OUTER_BOUND('',#9,.T.);
#11 = DIRECTION('',(0.000000000,0.000000000,-1.000000000));
#12 = DIRECTION('',(0.000000000,1.000000000,0.000000000));
#13 = AXIS2_PLACEMENT_3D('',#1,#11,#12);
#14 = PLANE('',#13);
#15 = FACE_SURFACE('',(#10),#14,.T.);
#16 = POLY_LOOP('',(#5,#6,#7,#8));
#17 = FACE_OUTER_BOUND('',#16,.T.);
#18 = DIRECTION('',(0.000000000,0.000000000,1.000000000));
#19 = DIRECTION('',(1.000000000,0.000000000,0.000000000));
#20 = AXIS2_PLACEMENT_3D('',#5,#18,#19);
#21 = PLANE('',#20);
#22 = FACE_SURFACE('',(#17),#21,.T.);
#23 = POLY_LOOP('',(#1,#2,#6,#5));
#24 = FACE_OUTER_BOUND('',#23,.T.);
#25 = DIRECTION('',(0.000000000,-1.000000000,0.000000000));
#26 = DIRECTION('',(1.000000000,0.000000000,0.000000000));
#27 = AXIS2_PLACEMENT_3D('',#1,#25,#26);
#28 = PLANE('',#27);
#29 = FACE_SURFACE('',(#24),#28,.T.);
#30 = POLY_LOOP('',(#2,#3,#7,#6));
#31 = FACE_OUTER_BOUND('',#30,.T.);
#32 = DIRECTION('',(1.000000000,0.000000000,0.000000000));
#33 = DIRECTION('',(0.000000000,1.000000000,0.000000000));
#34 = AXIS2_PLACEMENT_3D('',#2,#32,#33);
#35 = PLANE('',#34);
#36 = FACE_SURFACE('',(#31),#35,.T.);
#37 = POLY_LOOP('',(#3,#4,#8,#7));
#38 = FACE_OUTER_BOUND('',#37,.T.);
#39 = DIRECTION('',(0.000000000,1.000000000,0.000000000));
#40 = DIRECTION('',(-1.000000000,0.000000000,0.000000000));
#41 = AXIS2_PLACEMENT_3D('',#3,#39,#40);
#42 = PLANE('',#41);
#43 = FACE_SURFACE('',(#38),#42,.T.);
#44 = POLY_LOOP('',(#4,#1,#5,#8));
#45 = FACE_OUTER_BOUND('',#44,.T.);
#46 = DIRECTION('',(-1.000000000,0.000000000,0.000000000));
#47 = DIRECTION('',(0.000000000,-1.000000000,0.000000000));
#48 = AXIS2_PLACEMENT_3D('',#4,#46,#47);
#49 = PLANE('',#48);
#50 = FACE_SURFACE('',(#45),#49,.T.);
#51 = CLOSED_SHELL('',(#15,#22,#29,#36,#43,#50));
#52 = FACETED_BREP('black display frame',#51);
#53 = CARTESIAN_POINT('',(-195.000000000,96.000000000,-14.000000000));
#54 = CARTESIAN_POINT('',(195.000000000,96.000000000,-14.000000000));
#55 = CARTESIAN_POINT('',(195.000000000,324.000000000,-14.000000000));
#56 = CARTESIAN_POINT('',(-195.000000000,324.000000000,-14.000000000));
#57 = CARTESIAN_POINT('',(-195.000000000,96.000000000,-12.000000000));
#58 = CARTESIAN_POINT('',(195.000000000,96.000000000,-12.000000000));
#59 = CARTESIAN_POINT('',(195.000000000,324.000000000,-12.000000000));
#60 = CARTESIAN_POINT('',(-195.000000000,324.000000000,-12.000000000));
#61 = POLY_LOOP('',(#53,#56,#55,#54));
#62 = FACE_OUTER_BOUND('',#61,.T.);
#63 = DIRECTION('',(0.000000000,0.000000000,-1.000000000));
#64 = DIRECTION('',(0.000000000,1.000000000,0.000000000));
#65 = AXIS2_PLACEMENT_3D('',#53,#63,#64);
#66 = PLANE('',#65);
#67 = FACE_SURFACE('',(#62),#66,.T.);
#68 = POLY_LOOP('',(#57,#58,#59,#60));
#69 = FACE_OUTER_BOUND('',#68,.T.);
#70 = DIRECTION('',(0.000000000,0.000000000,1.000000000));
#71 = DIRECTION('',(1.000000000,0.000000000,0.000000000));
#72 = AXIS2_PLACEMENT_3D('',#57,#70,#71);
#73 = PLANE('',#72);
#74 = FACE_SURFACE('',(#69),#73,.T.);
#75 = POLY_LOOP('',(#53,#54,#58,#57));
#76 = FACE_OUTER_BOUND('',#75,.T.);
#77 = DIRECTION('',(0.000000000,-1.000000000,0.000000000));
#78 = DIRECTION('',(1.000000000,0.000000000,0.000000000));
#79 = AXIS2_PLACEMENT_3D('',#53,#77,#78);
#80 = PLANE('',#79);
#81 = FACE_SURFACE('',(#76),#80,.T.);
#82 = POLY_LOOP('',(#54,#55,#59,#58));
#83 = FACE_OUTER_BOUND('',#82,.T.);
#84 = DIRECTION('',(1.000000000,0.000000000,0.000000000));
#85 = DIRECTION('',(0.000000000,1.000000000,0.000000000));
#86 = AXIS2_PLACEMENT_3D('',#54,#84,#85);
#87 = PLANE('',#86);
#88 = FACE_SURFACE('',(#83),#87,.T.);
#89 = POLY_LOOP('',(#55,#56,#60,#59));
#90 = FACE_OUTER_BOUND('',#89,.T.);
#91 = DIRECTION('',(0.000000000,1.000000000,0.000000000));
#92 = DIRECTION('',(-1.000000000,0.000000000,0.000000000));
#93 = AXIS2_PLACEMENT_3D('',#55,#91,#92);
#94 = PLANE('',#93);
#95 = FACE_SURFACE('',(#90),#94,.T.);
#96 = POLY_LOOP('',(#56,#53,#57,#60));
#97 = FACE_OUTER_BOUND('',#96,.T.);
#98 = DIRECTION('',(-1.000000000,0.000000000,0.000000000));
#99 = DIRECTION('',(0.000000000,-1.000000000,0.000000000));
#100 = AXIS2_PLACEMENT_3D('',#56,#98,#99);
#101 = PLANE('',#100);
#102 = FACE_SURFACE('',(#97),#101,.T.);
#103 = CLOSED_SHELL('',(#67,#74,#81,#88,#95,#102));
#104 = FACETED_BREP('screen glass',#103);
#105 = CARTESIAN_POINT('',(-17.500000000,5.000000000,-5.000000000));
#106 = CARTESIAN_POINT('',(17.500000000,5.000000000,-5.000000000));
#107 = CARTESIAN_POINT('',(17.500000000,85.000000000,-5.000000000));
#108 = CARTESIAN_POINT('',(-17.500000000,85.000000000,-5.000000000));
#109 = CARTESIAN_POINT('',(-17.500000000,5.000000000,25.000000000));
#110 = CARTESIAN_POINT('',(17.500000000,5.000000000,25.000000000));
#111 = CARTESIAN_POINT('',(17.500000000,85.000000000,25.000000000));
#112 = CARTESIAN_POINT('',(-17.500000000,85.000000000,25.000000000));
#113 = POLY_LOOP('',(#105,#108,#107,#106));
#114 = FACE_OUTER_BOUND('',#113,.T.);
#115 = DIRECTION('',(0.000000000,0.000000000,-1.000000000));
#116 = DIRECTION('',(0.000000000,1.000000000,0.000000000));
#117 = AXIS2_PLACEMENT_3D('',#105,#115,#116);
#118 = PLANE('',#117);
#119 = FACE_SURFACE('',(#114),#118,.T.);
#120 = POLY_LOOP('',(#109,#110,#111,#112));
#121 = FACE_OUTER_BOUND('',#120,.T.);
#122 = DIRECTION('',(0.000000000,0.000000000,1.000000000));
#123 = DIRECTION('',(1.000000000,0.000000000,0.000000000));
#124 = AXIS2_PLACEMENT_3D('',#109,#122,#123);
#125 = PLANE('',#124);
#126 = FACE_SURFACE('',(#121),#125,.T.);
#127 = POLY_LOOP('',(#105,#106,#110,#109));
#128 = FACE_OUTER_BOUND('',#127,.T.);
#129 = DIRECTION('',(0.000000000,-1.000000000,0.000000000));
#130 = DIRECTION('',(1.000000000,0.000000000,0.000000000));
#131 = AXIS2_PLACEMENT_3D('',#105,#129,#130);
#132 = PLANE('',#131);
#133 = FACE_SURFACE('',(#128),#132,.T.);
#134 = POLY_LOOP('',(#106,#107,#111,#110));
#135 = FACE_OUTER_BOUND('',#134,.T.);
#136 = DIRECTION('',(1.000000000,0.000000000,0.000000000));
#137 = DIRECTION('',(0.000000000,1.000000000,0.000000000));
#138 = AXIS2_PLACEMENT_3D('',#106,#136,#137);
#139 = PLANE('',#138);
#140 = FACE_SURFACE('',(#135),#139,.T.);
#141 = POLY_LOOP('',(#107,#108,#112,#111));
#142 = FACE_OUTER_BOUND('',#141,.T.);
#143 = DIRECTION('',(0.000000000,1.000000000,0.000000000));
#144 = DIRECTION('',(-1.000000000,0.000000000,0.000000000));
#145 = AXIS2_PLACEMENT_3D('',#107,#143,#144);
#146 = PLANE('',#145);
#147 = FACE_SURFACE('',(#142),#146,.T.);
#148 = POLY_LOOP('',(#108,#105,#109,#112));
#149 = FACE_OUTER_BOUND('',#148,.T.);
#150 = DIRECTION('',(-1.000000000,0.000000000,0.000000000));
#151 = DIRECTION('',(0.000000000,-1.000000000,0.000000000));
#152 = AXIS2_PLACEMENT_3D('',#108,#150,#151);
#153 = PLANE('',#152);
#154 = FACE_SURFACE('',(#149),#153,.T.);
#155 = CLOSED_SHELL('',(#119,#126,#133,#140,#147,#154));
#156 = FACETED_BREP('black stand neck',#155);
#157 = CARTESIAN_POINT('',(-90.000000000,0.000000000,-52.500000000));
#158 = CARTESIAN_POINT('',(90.000000000,0.000000000,-52.500000000));
#159 = CARTESIAN_POINT('',(90.000000000,7.000000000,-52.500000000));
#160 = CARTESIAN_POINT('',(-90.000000000,7.000000000,-52.500000000));
#161 = CARTESIAN_POINT('',(-90.000000000,0.000000000,52.500000000));
#162 = CARTESIAN_POINT('',(90.000000000,0.000000000,52.500000000));
#163 = CARTESIAN_POINT('',(90.000000000,7.000000000,52.500000000));
#164 = CARTESIAN_POINT('',(-90.000000000,7.000000000,52.500000000));
#165 = POLY_LOOP('',(#157,#160,#159,#158));
#166 = FACE_OUTER_BOUND('',#165,.T.);
#167 = DIRECTION('',(0.000000000,0.000000000,-1.000000000));
#168 = DIRECTION('',(0.000000000,1.000000000,0.000000000));
#169 = AXIS2_PLACEMENT_3D('',#157,#167,#168);
#170 = PLANE('',#169);
#171 = FACE_SURFACE('',(#166),#170,.T.);
#172 = POLY_LOOP('',(#161,#162,#163,#164));
#173 = FACE_OUTER_BOUND('',#172,.T.);
#174 = DIRECTION('',(0.000000000,0.000000000,1.000000000));
#175 = DIRECTION('',(1.000000000,0.000000000,0.000000000));
#176 = AXIS2_PLACEMENT_3D('',#161,#174,#175);
#177 = PLANE('',#176);
#178 = FACE_SURFACE('',(#173),#177,.T.);
#179 = POLY_LOOP('',(#157,#158,#162,#161));
#180 = FACE_OUTER_BOUND('',#179,.T.);
#181 = DIRECTION('',(0.000000000,-1.000000000,0.000000000));
#182 = DIRECTION('',(1.000000000,0.000000000,0.000000000));
#183 = AXIS2_PLACEMENT_3D('',#157,#181,#182);
#184 = PLANE('',#183);
#185 = FACE_SURFACE('',(#180),#184,.T.);
#186 = POLY_LOOP('',(#158,#159,#163,#162));
#187 = FACE_OUTER_BOUND('',#186,.T.);
#188 = DIRECTION('',(1.000000000,0.000000000,0.000000000));
#189 = DIRECTION('',(0.000000000,1.000000000,0.000000000));
#190 = AXIS2_PLACEMENT_3D('',#158,#188,#189);
#191 = PLANE('',#190);
#192 = FACE_SURFACE('',(#187),#191,.T.);
#193 = POLY_LOOP('',(#159,#160,#164,#163));
#194 = FACE_OUTER_BOUND('',#193,.T.);
#195 = DIRECTION('',(0.000000000,1.000000000,0.000000000));
#196 = DIRECTION('',(-1.000000000,0.000000000,0.000000000));
#197 = AXIS2_PLACEMENT_3D('',#159,#195,#196);
#198 = PLANE('',#197);
#199 = FACE_SURFACE('',(#194),#198,.T.);
#200 = POLY_LOOP('',(#160,#157,#161,#164));
#201 = FACE_OUTER_BOUND('',#200,.T.);
#202 = DIRECTION('',(-1.000000000,0.000000000,0.000000000));
#203 = DIRECTION('',(0.000000000,-1.000000000,0.000000000));
#204 = AXIS2_PLACEMENT_3D('',#160,#202,#203);
#205 = PLANE('',#204);
#206 = FACE_SURFACE('',(#201),#205,.T.);
#207 = CLOSED_SHELL('',(#171,#178,#185,#192,#199,#206));
#208 = FACETED_BREP('black monitor foot',#207);
#209 = APPLICATION_CONTEXT('configuration controlled 3d designs of mechanical parts and assemblies');
#210 = APPLICATION_PROTOCOL_DEFINITION('international standard','config_control_design',1994,#209);
#211 = PRODUCT_CONTEXT('',#209,'mechanical');
#212 = PRODUCT('REF','Illustrative reference','NOT vendor CAD',(#211));
#213 = PRODUCT_DEFINITION_FORMATION_WITH_SPECIFIED_SOURCE('','',#212,.NOT_KNOWN.);
#214 = PRODUCT_DEFINITION_CONTEXT('part definition',#209,'design');
#215 = PRODUCT_DEFINITION('design','',#213,#214);
#216 = PRODUCT_DEFINITION_SHAPE('','',#215);
#217 = (LENGTH_UNIT()NAMED_UNIT(*)SI_UNIT(.MILLI.,.METRE.));
#218 = (NAMED_UNIT(*)PLANE_ANGLE_UNIT()SI_UNIT($,.RADIAN.));
#219 = (NAMED_UNIT(*)SI_UNIT($,.STERADIAN.)SOLID_ANGLE_UNIT());
#220 = UNCERTAINTY_MEASURE_WITH_UNIT(LENGTH_MEASURE(0.000001),#217,'distance_accuracy_value','');
#221 = (GEOMETRIC_REPRESENTATION_CONTEXT(3)GLOBAL_UNCERTAINTY_ASSIGNED_CONTEXT((#220))GLOBAL_UNIT_ASSIGNED_CONTEXT((#217,#218,#219))REPRESENTATION_CONTEXT('',''));
#222 = FACETED_BREP_SHAPE_REPRESENTATION('Illustrative reference',(#52,#104,#156,#208),#221);
#223 = SHAPE_DEFINITION_REPRESENTATION(#216,#222);
ENDSEC;
END-ISO-10303-21;
