ISO-10303-21;
HEADER;
FILE_DESCRIPTION(('Illustrative CAD - NOT vendor dimensions'),'2;1');
FILE_NAME('reference.step','2026-10-07',('CORNERSTONE'),(''),'reference generator','','');
FILE_SCHEMA(('CONFIG_CONTROL_DESIGN'));
ENDSEC;
DATA;
#1 = CARTESIAN_POINT('',(14.000000000,14.000000000,0.000000000));
#2 = CARTESIAN_POINT('',(13.314791228,9.673762079,0.000000000));
#3 = CARTESIAN_POINT('',(11.326237921,5.771006468,0.000000000));
#4 = CARTESIAN_POINT('',(8.228993532,2.673762079,0.000000000));
#5 = CARTESIAN_POINT('',(4.326237921,0.685208772,0.000000000));
#6 = CARTESIAN_POINT('',(0.000000000,0.000000000,0.000000000));
#7 = CARTESIAN_POINT('',(-4.326237921,0.685208772,0.000000000));
#8 = CARTESIAN_POINT('',(-8.228993532,2.673762079,0.000000000));
#9 = CARTESIAN_POINT('',(-11.326237921,5.771006468,0.000000000));
#10 = CARTESIAN_POINT('',(-13.314791228,9.673762079,0.000000000));
#11 = CARTESIAN_POINT('',(-14.000000000,14.000000000,0.000000000));
#12 = CARTESIAN_POINT('',(-13.314791228,18.326237921,0.000000000));
#13 = CARTESIAN_POINT('',(-11.326237921,22.228993532,0.000000000));
#14 = CARTESIAN_POINT('',(-8.228993532,25.326237921,0.000000000));
#15 = CARTESIAN_POINT('',(-4.326237921,27.314791228,0.000000000));
#16 = CARTESIAN_POINT('',(-0.000000000,28.000000000,0.000000000));
#17 = CARTESIAN_POINT('',(4.326237921,27.314791228,0.000000000));
#18 = CARTESIAN_POINT('',(8.228993532,25.326237921,0.000000000));
#19 = CARTESIAN_POINT('',(11.326237921,22.228993532,0.000000000));
#20 = CARTESIAN_POINT('',(13.314791228,18.326237921,0.000000000));
#21 = CARTESIAN_POINT('',(14.000000000,14.000000000,-16.000000000));
#22 = CARTESIAN_POINT('',(13.314791228,9.673762079,-16.000000000));
#23 = CARTESIAN_POINT('',(11.326237921,5.771006468,-16.000000000));
#24 = CARTESIAN_POINT('',(8.228993532,2.673762079,-16.000000000));
#25 = CARTESIAN_POINT('',(4.326237921,0.685208772,-16.000000000));
#26 = CARTESIAN_POINT('',(0.000000000,0.000000000,-16.000000000));
#27 = CARTESIAN_POINT('',(-4.326237921,0.685208772,-16.000000000));
#28 = CARTESIAN_POINT('',(-8.228993532,2.673762079,-16.000000000));
#29 = CARTESIAN_POINT('',(-11.326237921,5.771006468,-16.000000000));
#30 = CARTESIAN_POINT('',(-13.314791228,9.673762079,-16.000000000));
#31 = CARTESIAN_POINT('',(-14.000000000,14.000000000,-16.000000000));
#32 = CARTESIAN_POINT('',(-13.314791228,18.326237921,-16.000000000));
#33 = CARTESIAN_POINT('',(-11.326237921,22.228993532,-16.000000000));
#34 = CARTESIAN_POINT('',(-8.228993532,25.326237921,-16.000000000));
#35 = CARTESIAN_POINT('',(-4.326237921,27.314791228,-16.000000000));
#36 = CARTESIAN_POINT('',(-0.000000000,28.000000000,-16.000000000));
#37 = CARTESIAN_POINT('',(4.326237921,27.314791228,-16.000000000));
#38 = CARTESIAN_POINT('',(8.228993532,25.326237921,-16.000000000));
#39 = CARTESIAN_POINT('',(11.326237921,22.228993532,-16.000000000));
#40 = CARTESIAN_POINT('',(13.314791228,18.326237921,-16.000000000));
#41 = POLY_LOOP('',(#20,#19,#18,#17,#16,#15,#14,#13,#12,#11,#10,#9,#8,#7,#6,#5,#4,#3,#2,#1));
#42 = FACE_OUTER_BOUND('',#41,.T.);
#43 = DIRECTION('',(0.000000000,0.000000000,1.000000000));
#44 = DIRECTION('',(-0.453990500,0.891006524,0.000000000));
#45 = AXIS2_PLACEMENT_3D('',#20,#43,#44);
#46 = PLANE('',#45);
#47 = FACE_SURFACE('',(#42),#46,.T.);
#48 = POLY_LOOP('',(#21,#22,#23,#24,#25,#26,#27,#28,#29,#30,#31,#32,#33,#34,#35,#36,#37,#38,#39,#40));
#49 = FACE_OUTER_BOUND('',#48,.T.);
#50 = DIRECTION('',(0.000000000,0.000000000,-1.000000000));
#51 = DIRECTION('',(-0.156434465,-0.987688341,0.000000000));
#52 = AXIS2_PLACEMENT_3D('',#21,#50,#51);
#53 = PLANE('',#52);
#54 = FACE_SURFACE('',(#49),#53,.T.);
#55 = POLY_LOOP('',(#1,#2,#22,#21));
#56 = FACE_OUTER_BOUND('',#55,.T.);
#57 = DIRECTION('',(0.987688341,-0.156434465,0.000000000));
#58 = DIRECTION('',(-0.156434465,-0.987688341,0.000000000));
#59 = AXIS2_PLACEMENT_3D('',#1,#57,#58);
#60 = PLANE('',#59);
#61 = FACE_SURFACE('',(#56),#60,.T.);
#62 = POLY_LOOP('',(#2,#3,#23,#22));
#63 = FACE_OUTER_BOUND('',#62,.T.);
#64 = DIRECTION('',(0.891006524,-0.453990500,0.000000000));
#65 = DIRECTION('',(-0.453990500,-0.891006524,0.000000000));
#66 = AXIS2_PLACEMENT_3D('',#2,#64,#65);
#67 = PLANE('',#66);
#68 = FACE_SURFACE('',(#63),#67,.T.);
#69 = POLY_LOOP('',(#3,#4,#24,#23));
#70 = FACE_OUTER_BOUND('',#69,.T.);
#71 = DIRECTION('',(0.707106781,-0.707106781,0.000000000));
#72 = DIRECTION('',(-0.707106781,-0.707106781,0.000000000));
#73 = AXIS2_PLACEMENT_3D('',#3,#71,#72);
#74 = PLANE('',#73);
#75 = FACE_SURFACE('',(#70),#74,.T.);
#76 = POLY_LOOP('',(#4,#5,#25,#24));
#77 = FACE_OUTER_BOUND('',#76,.T.);
#78 = DIRECTION('',(0.453990500,-0.891006524,0.000000000));
#79 = DIRECTION('',(-0.891006524,-0.453990500,0.000000000));
#80 = AXIS2_PLACEMENT_3D('',#4,#78,#79);
#81 = PLANE('',#80);
#82 = FACE_SURFACE('',(#77),#81,.T.);
#83 = POLY_LOOP('',(#5,#6,#26,#25));
#84 = FACE_OUTER_BOUND('',#83,.T.);
#85 = DIRECTION('',(0.156434465,-0.987688341,0.000000000));
#86 = DIRECTION('',(-0.987688341,-0.156434465,0.000000000));
#87 = AXIS2_PLACEMENT_3D('',#5,#85,#86);
#88 = PLANE('',#87);
#89 = FACE_SURFACE('',(#84),#88,.T.);
#90 = POLY_LOOP('',(#6,#7,#27,#26));
#91 = FACE_OUTER_BOUND('',#90,.T.);
#92 = DIRECTION('',(-0.156434465,-0.987688341,0.000000000));
#93 = DIRECTION('',(-0.987688341,0.156434465,0.000000000));
#94 = AXIS2_PLACEMENT_3D('',#6,#92,#93);
#95 = PLANE('',#94);
#96 = FACE_SURFACE('',(#91),#95,.T.);
#97 = POLY_LOOP('',(#7,#8,#28,#27));
#98 = FACE_OUTER_BOUND('',#97,.T.);
#99 = DIRECTION('',(-0.453990500,-0.891006524,0.000000000));
#100 = DIRECTION('',(-0.891006524,0.453990500,0.000000000));
#101 = AXIS2_PLACEMENT_3D('',#7,#99,#100);
#102 = PLANE('',#101);
#103 = FACE_SURFACE('',(#98),#102,.T.);
#104 = POLY_LOOP('',(#8,#9,#29,#28));
#105 = FACE_OUTER_BOUND('',#104,.T.);
#106 = DIRECTION('',(-0.707106781,-0.707106781,0.000000000));
#107 = DIRECTION('',(-0.707106781,0.707106781,0.000000000));
#108 = AXIS2_PLACEMENT_3D('',#8,#106,#107);
#109 = PLANE('',#108);
#110 = FACE_SURFACE('',(#105),#109,.T.);
#111 = POLY_LOOP('',(#9,#10,#30,#29));
#112 = FACE_OUTER_BOUND('',#111,.T.);
#113 = DIRECTION('',(-0.891006524,-0.453990500,0.000000000));
#114 = DIRECTION('',(-0.453990500,0.891006524,0.000000000));
#115 = AXIS2_PLACEMENT_3D('',#9,#113,#114);
#116 = PLANE('',#115);
#117 = FACE_SURFACE('',(#112),#116,.T.);
#118 = POLY_LOOP('',(#10,#11,#31,#30));
#119 = FACE_OUTER_BOUND('',#118,.T.);
#120 = DIRECTION('',(-0.987688341,-0.156434465,0.000000000));
#121 = DIRECTION('',(-0.156434465,0.987688341,0.000000000));
#122 = AXIS2_PLACEMENT_3D('',#10,#120,#121);
#123 = PLANE('',#122);
#124 = FACE_SURFACE('',(#119),#123,.T.);
#125 = POLY_LOOP('',(#11,#12,#32,#31));
#126 = FACE_OUTER_BOUND('',#125,.T.);
#127 = DIRECTION('',(-0.987688341,0.156434465,0.000000000));
#128 = DIRECTION('',(0.156434465,0.987688341,0.000000000));
#129 = AXIS2_PLACEMENT_3D('',#11,#127,#128);
#130 = PLANE('',#129);
#131 = FACE_SURFACE('',(#126),#130,.T.);
#132 = POLY_LOOP('',(#12,#13,#33,#32));
#133 = FACE_OUTER_BOUND('',#132,.T.);
#134 = DIRECTION('',(-0.891006524,0.453990500,0.000000000));
#135 = DIRECTION('',(0.453990500,0.891006524,0.000000000));
#136 = AXIS2_PLACEMENT_3D('',#12,#134,#135);
#137 = PLANE('',#136);
#138 = FACE_SURFACE('',(#133),#137,.T.);
#139 = POLY_LOOP('',(#13,#14,#34,#33));
#140 = FACE_OUTER_BOUND('',#139,.T.);
#141 = DIRECTION('',(-0.707106781,0.707106781,0.000000000));
#142 = DIRECTION('',(0.707106781,0.707106781,0.000000000));
#143 = AXIS2_PLACEMENT_3D('',#13,#141,#142);
#144 = PLANE('',#143);
#145 = FACE_SURFACE('',(#140),#144,.T.);
#146 = POLY_LOOP('',(#14,#15,#35,#34));
#147 = FACE_OUTER_BOUND('',#146,.T.);
#148 = DIRECTION('',(-0.453990500,0.891006524,0.000000000));
#149 = DIRECTION('',(0.891006524,0.453990500,0.000000000));
#150 = AXIS2_PLACEMENT_3D('',#14,#148,#149);
#151 = PLANE('',#150);
#152 = FACE_SURFACE('',(#147),#151,.T.);
#153 = POLY_LOOP('',(#15,#16,#36,#35));
#154 = FACE_OUTER_BOUND('',#153,.T.);
#155 = DIRECTION('',(-0.156434465,0.987688341,0.000000000));
#156 = DIRECTION('',(0.987688341,0.156434465,0.000000000));
#157 = AXIS2_PLACEMENT_3D('',#15,#155,#156);
#158 = PLANE('',#157);
#159 = FACE_SURFACE('',(#154),#158,.T.);
#160 = POLY_LOOP('',(#16,#17,#37,#36));
#161 = FACE_OUTER_BOUND('',#160,.T.);
#162 = DIRECTION('',(0.156434465,0.987688341,0.000000000));
#163 = DIRECTION('',(0.987688341,-0.156434465,0.000000000));
#164 = AXIS2_PLACEMENT_3D('',#16,#162,#163);
#165 = PLANE('',#164);
#166 = FACE_SURFACE('',(#161),#165,.T.);
#167 = POLY_LOOP('',(#17,#18,#38,#37));
#168 = FACE_OUTER_BOUND('',#167,.T.);
#169 = DIRECTION('',(0.453990500,0.891006524,0.000000000));
#170 = DIRECTION('',(0.891006524,-0.453990500,0.000000000));
#171 = AXIS2_PLACEMENT_3D('',#17,#169,#170);
#172 = PLANE('',#171);
#173 = FACE_SURFACE('',(#168),#172,.T.);
#174 = POLY_LOOP('',(#18,#19,#39,#38));
#175 = FACE_OUTER_BOUND('',#174,.T.);
#176 = DIRECTION('',(0.707106781,0.707106781,0.000000000));
#177 = DIRECTION('',(0.707106781,-0.707106781,0.000000000));
#178 = AXIS2_PLACEMENT_3D('',#18,#176,#177);
#179 = PLANE('',#178);
#180 = FACE_SURFACE('',(#175),#179,.T.);
#181 = POLY_LOOP('',(#19,#20,#40,#39));
#182 = FACE_OUTER_BOUND('',#181,.T.);
#183 = DIRECTION('',(0.891006524,0.453990500,0.000000000));
#184 = DIRECTION('',(0.453990500,-0.891006524,0.000000000));
#185 = AXIS2_PLACEMENT_3D('',#19,#183,#184);
#186 = PLANE('',#185);
#187 = FACE_SURFACE('',(#182),#186,.T.);
#188 = POLY_LOOP('',(#20,#1,#21,#40));
#189 = FACE_OUTER_BOUND('',#188,.T.);
#190 = DIRECTION('',(0.987688341,0.156434465,0.000000000));
#191 = DIRECTION('',(0.156434465,-0.987688341,0.000000000));
#192 = AXIS2_PLACEMENT_3D('',#20,#190,#191);
#193 = PLANE('',#192);
#194 = FACE_SURFACE('',(#189),#193,.T.);
#195 = CLOSED_SHELL('',(#47,#54,#61,#68,#75,#82,#89,#96,#103,#110,#117,#124,#131,#138,#145,#152,#159,#166,#173,#180,#187,#194));
#196 = FACETED_BREP('silver adapter body',#195);
#197 = CARTESIAN_POINT('',(7.000000000,14.000000000,-16.000000000));
#198 = CARTESIAN_POINT('',(6.657395614,11.836881039,-16.000000000));
#199 = CARTESIAN_POINT('',(5.663118961,9.885503234,-16.000000000));
#200 = CARTESIAN_POINT('',(4.114496766,8.336881039,-16.000000000));
#201 = CARTESIAN_POINT('',(2.163118961,7.342604386,-16.000000000));
#202 = CARTESIAN_POINT('',(0.000000000,7.000000000,-16.000000000));
#203 = CARTESIAN_POINT('',(-2.163118961,7.342604386,-16.000000000));
#204 = CARTESIAN_POINT('',(-4.114496766,8.336881039,-16.000000000));
#205 = CARTESIAN_POINT('',(-5.663118961,9.885503234,-16.000000000));
#206 = CARTESIAN_POINT('',(-6.657395614,11.836881039,-16.000000000));
#207 = CARTESIAN_POINT('',(-7.000000000,14.000000000,-16.000000000));
#208 = CARTESIAN_POINT('',(-6.657395614,16.163118961,-16.000000000));
#209 = CARTESIAN_POINT('',(-5.663118961,18.114496766,-16.000000000));
#210 = CARTESIAN_POINT('',(-4.114496766,19.663118961,-16.000000000));
#211 = CARTESIAN_POINT('',(-2.163118961,20.657395614,-16.000000000));
#212 = CARTESIAN_POINT('',(-0.000000000,21.000000000,-16.000000000));
#213 = CARTESIAN_POINT('',(2.163118961,20.657395614,-16.000000000));
#214 = CARTESIAN_POINT('',(4.114496766,19.663118961,-16.000000000));
#215 = CARTESIAN_POINT('',(5.663118961,18.114496766,-16.000000000));
#216 = CARTESIAN_POINT('',(6.657395614,16.163118961,-16.000000000));
#217 = CARTESIAN_POINT('',(7.000000000,14.000000000,-26.000000000));
#218 = CARTESIAN_POINT('',(6.657395614,11.836881039,-26.000000000));
#219 = CARTESIAN_POINT('',(5.663118961,9.885503234,-26.000000000));
#220 = CARTESIAN_POINT('',(4.114496766,8.336881039,-26.000000000));
#221 = CARTESIAN_POINT('',(2.163118961,7.342604386,-26.000000000));
#222 = CARTESIAN_POINT('',(0.000000000,7.000000000,-26.000000000));
#223 = CARTESIAN_POINT('',(-2.163118961,7.342604386,-26.000000000));
#224 = CARTESIAN_POINT('',(-4.114496766,8.336881039,-26.000000000));
#225 = CARTESIAN_POINT('',(-5.663118961,9.885503234,-26.000000000));
#226 = CARTESIAN_POINT('',(-6.657395614,11.836881039,-26.000000000));
#227 = CARTESIAN_POINT('',(-7.000000000,14.000000000,-26.000000000));
#228 = CARTESIAN_POINT('',(-6.657395614,16.163118961,-26.000000000));
#229 = CARTESIAN_POINT('',(-5.663118961,18.114496766,-26.000000000));
#230 = CARTESIAN_POINT('',(-4.114496766,19.663118961,-26.000000000));
#231 = CARTESIAN_POINT('',(-2.163118961,20.657395614,-26.000000000));
#232 = CARTESIAN_POINT('',(-0.000000000,21.000000000,-26.000000000));
#233 = CARTESIAN_POINT('',(2.163118961,20.657395614,-26.000000000));
#234 = CARTESIAN_POINT('',(4.114496766,19.663118961,-26.000000000));
#235 = CARTESIAN_POINT('',(5.663118961,18.114496766,-26.000000000));
#236 = CARTESIAN_POINT('',(6.657395614,16.163118961,-26.000000000));
#237 = POLY_LOOP('',(#216,#215,#214,#213,#212,#211,#210,#209,#208,#207,#206,#205,#204,#203,#202,#201,#200,#199,#198,#197));
#238 = FACE_OUTER_BOUND('',#237,.T.);
#239 = DIRECTION('',(0.000000000,0.000000000,1.000000000));
#240 = DIRECTION('',(-0.453990500,0.891006524,0.000000000));
#241 = AXIS2_PLACEMENT_3D('',#216,#239,#240);
#242 = PLANE('',#241);
#243 = FACE_SURFACE('',(#238),#242,.T.);
#244 = POLY_LOOP('',(#217,#218,#219,#220,#221,#222,#223,#224,#225,#226,#227,#228,#229,#230,#231,#232,#233,#234,#235,#236));
#245 = FACE_OUTER_BOUND('',#244,.T.);
#246 = DIRECTION('',(0.000000000,0.000000000,-1.000000000));
#247 = DIRECTION('',(-0.156434465,-0.987688341,0.000000000));
#248 = AXIS2_PLACEMENT_3D('',#217,#246,#247);
#249 = PLANE('',#248);
#250 = FACE_SURFACE('',(#245),#249,.T.);
#251 = POLY_LOOP('',(#197,#198,#218,#217));
#252 = FACE_OUTER_BOUND('',#251,.T.);
#253 = DIRECTION('',(0.987688341,-0.156434465,0.000000000));
#254 = DIRECTION('',(-0.156434465,-0.987688341,0.000000000));
#255 = AXIS2_PLACEMENT_3D('',#197,#253,#254);
#256 = PLANE('',#255);
#257 = FACE_SURFACE('',(#252),#256,.T.);
#258 = POLY_LOOP('',(#198,#199,#219,#218));
#259 = FACE_OUTER_BOUND('',#258,.T.);
#260 = DIRECTION('',(0.891006524,-0.453990500,0.000000000));
#261 = DIRECTION('',(-0.453990500,-0.891006524,0.000000000));
#262 = AXIS2_PLACEMENT_3D('',#198,#260,#261);
#263 = PLANE('',#262);
#264 = FACE_SURFACE('',(#259),#263,.T.);
#265 = POLY_LOOP('',(#199,#200,#220,#219));
#266 = FACE_OUTER_BOUND('',#265,.T.);
#267 = DIRECTION('',(0.707106781,-0.707106781,0.000000000));
#268 = DIRECTION('',(-0.707106781,-0.707106781,0.000000000));
#269 = AXIS2_PLACEMENT_3D('',#199,#267,#268);
#270 = PLANE('',#269);
#271 = FACE_SURFACE('',(#266),#270,.T.);
#272 = POLY_LOOP('',(#200,#201,#221,#220));
#273 = FACE_OUTER_BOUND('',#272,.T.);
#274 = DIRECTION('',(0.453990500,-0.891006524,0.000000000));
#275 = DIRECTION('',(-0.891006524,-0.453990500,0.000000000));
#276 = AXIS2_PLACEMENT_3D('',#200,#274,#275);
#277 = PLANE('',#276);
#278 = FACE_SURFACE('',(#273),#277,.T.);
#279 = POLY_LOOP('',(#201,#202,#222,#221));
#280 = FACE_OUTER_BOUND('',#279,.T.);
#281 = DIRECTION('',(0.156434465,-0.987688341,0.000000000));
#282 = DIRECTION('',(-0.987688341,-0.156434465,0.000000000));
#283 = AXIS2_PLACEMENT_3D('',#201,#281,#282);
#284 = PLANE('',#283);
#285 = FACE_SURFACE('',(#280),#284,.T.);
#286 = POLY_LOOP('',(#202,#203,#223,#222));
#287 = FACE_OUTER_BOUND('',#286,.T.);
#288 = DIRECTION('',(-0.156434465,-0.987688341,0.000000000));
#289 = DIRECTION('',(-0.987688341,0.156434465,0.000000000));
#290 = AXIS2_PLACEMENT_3D('',#202,#288,#289);
#291 = PLANE('',#290);
#292 = FACE_SURFACE('',(#287),#291,.T.);
#293 = POLY_LOOP('',(#203,#204,#224,#223));
#294 = FACE_OUTER_BOUND('',#293,.T.);
#295 = DIRECTION('',(-0.453990500,-0.891006524,0.000000000));
#296 = DIRECTION('',(-0.891006524,0.453990500,0.000000000));
#297 = AXIS2_PLACEMENT_3D('',#203,#295,#296);
#298 = PLANE('',#297);
#299 = FACE_SURFACE('',(#294),#298,.T.);
#300 = POLY_LOOP('',(#204,#205,#225,#224));
#301 = FACE_OUTER_BOUND('',#300,.T.);
#302 = DIRECTION('',(-0.707106781,-0.707106781,0.000000000));
#303 = DIRECTION('',(-0.707106781,0.707106781,0.000000000));
#304 = AXIS2_PLACEMENT_3D('',#204,#302,#303);
#305 = PLANE('',#304);
#306 = FACE_SURFACE('',(#301),#305,.T.);
#307 = POLY_LOOP('',(#205,#206,#226,#225));
#308 = FACE_OUTER_BOUND('',#307,.T.);
#309 = DIRECTION('',(-0.891006524,-0.453990500,0.000000000));
#310 = DIRECTION('',(-0.453990500,0.891006524,0.000000000));
#311 = AXIS2_PLACEMENT_3D('',#205,#309,#310);
#312 = PLANE('',#311);
#313 = FACE_SURFACE('',(#308),#312,.T.);
#314 = POLY_LOOP('',(#206,#207,#227,#226));
#315 = FACE_OUTER_BOUND('',#314,.T.);
#316 = DIRECTION('',(-0.987688341,-0.156434465,0.000000000));
#317 = DIRECTION('',(-0.156434465,0.987688341,0.000000000));
#318 = AXIS2_PLACEMENT_3D('',#206,#316,#317);
#319 = PLANE('',#318);
#320 = FACE_SURFACE('',(#315),#319,.T.);
#321 = POLY_LOOP('',(#207,#208,#228,#227));
#322 = FACE_OUTER_BOUND('',#321,.T.);
#323 = DIRECTION('',(-0.987688341,0.156434465,0.000000000));
#324 = DIRECTION('',(0.156434465,0.987688341,0.000000000));
#325 = AXIS2_PLACEMENT_3D('',#207,#323,#324);
#326 = PLANE('',#325);
#327 = FACE_SURFACE('',(#322),#326,.T.);
#328 = POLY_LOOP('',(#208,#209,#229,#228));
#329 = FACE_OUTER_BOUND('',#328,.T.);
#330 = DIRECTION('',(-0.891006524,0.453990500,0.000000000));
#331 = DIRECTION('',(0.453990500,0.891006524,0.000000000));
#332 = AXIS2_PLACEMENT_3D('',#208,#330,#331);
#333 = PLANE('',#332);
#334 = FACE_SURFACE('',(#329),#333,.T.);
#335 = POLY_LOOP('',(#209,#210,#230,#229));
#336 = FACE_OUTER_BOUND('',#335,.T.);
#337 = DIRECTION('',(-0.707106781,0.707106781,0.000000000));
#338 = DIRECTION('',(0.707106781,0.707106781,0.000000000));
#339 = AXIS2_PLACEMENT_3D('',#209,#337,#338);
#340 = PLANE('',#339);
#341 = FACE_SURFACE('',(#336),#340,.T.);
#342 = POLY_LOOP('',(#210,#211,#231,#230));
#343 = FACE_OUTER_BOUND('',#342,.T.);
#344 = DIRECTION('',(-0.453990500,0.891006524,0.000000000));
#345 = DIRECTION('',(0.891006524,0.453990500,0.000000000));
#346 = AXIS2_PLACEMENT_3D('',#210,#344,#345);
#347 = PLANE('',#346);
#348 = FACE_SURFACE('',(#343),#347,.T.);
#349 = POLY_LOOP('',(#211,#212,#232,#231));
#350 = FACE_OUTER_BOUND('',#349,.T.);
#351 = DIRECTION('',(-0.156434465,0.987688341,0.000000000));
#352 = DIRECTION('',(0.987688341,0.156434465,0.000000000));
#353 = AXIS2_PLACEMENT_3D('',#211,#351,#352);
#354 = PLANE('',#353);
#355 = FACE_SURFACE('',(#350),#354,.T.);
#356 = POLY_LOOP('',(#212,#213,#233,#232));
#357 = FACE_OUTER_BOUND('',#356,.T.);
#358 = DIRECTION('',(0.156434465,0.987688341,0.000000000));
#359 = DIRECTION('',(0.987688341,-0.156434465,0.000000000));
#360 = AXIS2_PLACEMENT_3D('',#212,#358,#359);
#361 = PLANE('',#360);
#362 = FACE_SURFACE('',(#357),#361,.T.);
#363 = POLY_LOOP('',(#213,#214,#234,#233));
#364 = FACE_OUTER_BOUND('',#363,.T.);
#365 = DIRECTION('',(0.453990500,0.891006524,0.000000000));
#366 = DIRECTION('',(0.891006524,-0.453990500,0.000000000));
#367 = AXIS2_PLACEMENT_3D('',#213,#365,#366);
#368 = PLANE('',#367);
#369 = FACE_SURFACE('',(#364),#368,.T.);
#370 = POLY_LOOP('',(#214,#215,#235,#234));
#371 = FACE_OUTER_BOUND('',#370,.T.);
#372 = DIRECTION('',(0.707106781,0.707106781,0.000000000));
#373 = DIRECTION('',(0.707106781,-0.707106781,0.000000000));
#374 = AXIS2_PLACEMENT_3D('',#214,#372,#373);
#375 = PLANE('',#374);
#376 = FACE_SURFACE('',(#371),#375,.T.);
#377 = POLY_LOOP('',(#215,#216,#236,#235));
#378 = FACE_OUTER_BOUND('',#377,.T.);
#379 = DIRECTION('',(0.891006524,0.453990500,0.000000000));
#380 = DIRECTION('',(0.453990500,-0.891006524,0.000000000));
#381 = AXIS2_PLACEMENT_3D('',#215,#379,#380);
#382 = PLANE('',#381);
#383 = FACE_SURFACE('',(#378),#382,.T.);
#384 = POLY_LOOP('',(#216,#197,#217,#236));
#385 = FACE_OUTER_BOUND('',#384,.T.);
#386 = DIRECTION('',(0.987688341,0.156434465,0.000000000));
#387 = DIRECTION('',(0.156434465,-0.987688341,0.000000000));
#388 = AXIS2_PLACEMENT_3D('',#216,#386,#387);
#389 = PLANE('',#388);
#390 = FACE_SURFACE('',(#385),#389,.T.);
#391 = CLOSED_SHELL('',(#243,#250,#257,#264,#271,#278,#285,#292,#299,#306,#313,#320,#327,#334,#341,#348,#355,#362,#369,#376,#383,#390));
#392 = FACETED_BREP('silver FC coupling sleeve',#391);
#393 = CARTESIAN_POINT('',(3.000000000,14.000000000,-26.000000000));
#394 = CARTESIAN_POINT('',(2.853169549,13.072949017,-26.000000000));
#395 = CARTESIAN_POINT('',(2.427050983,12.236644243,-26.000000000));
#396 = CARTESIAN_POINT('',(1.763355757,11.572949017,-26.000000000));
#397 = CARTESIAN_POINT('',(0.927050983,11.146830451,-26.000000000));
#398 = CARTESIAN_POINT('',(0.000000000,11.000000000,-26.000000000));
#399 = CARTESIAN_POINT('',(-0.927050983,11.146830451,-26.000000000));
#400 = CARTESIAN_POINT('',(-1.763355757,11.572949017,-26.000000000));
#401 = CARTESIAN_POINT('',(-2.427050983,12.236644243,-26.000000000));
#402 = CARTESIAN_POINT('',(-2.853169549,13.072949017,-26.000000000));
#403 = CARTESIAN_POINT('',(-3.000000000,14.000000000,-26.000000000));
#404 = CARTESIAN_POINT('',(-2.853169549,14.927050983,-26.000000000));
#405 = CARTESIAN_POINT('',(-2.427050983,15.763355757,-26.000000000));
#406 = CARTESIAN_POINT('',(-1.763355757,16.427050983,-26.000000000));
#407 = CARTESIAN_POINT('',(-0.927050983,16.853169549,-26.000000000));
#408 = CARTESIAN_POINT('',(-0.000000000,17.000000000,-26.000000000));
#409 = CARTESIAN_POINT('',(0.927050983,16.853169549,-26.000000000));
#410 = CARTESIAN_POINT('',(1.763355757,16.427050983,-26.000000000));
#411 = CARTESIAN_POINT('',(2.427050983,15.763355757,-26.000000000));
#412 = CARTESIAN_POINT('',(2.853169549,14.927050983,-26.000000000));
#413 = CARTESIAN_POINT('',(3.000000000,14.000000000,-27.000000000));
#414 = CARTESIAN_POINT('',(2.853169549,13.072949017,-27.000000000));
#415 = CARTESIAN_POINT('',(2.427050983,12.236644243,-27.000000000));
#416 = CARTESIAN_POINT('',(1.763355757,11.572949017,-27.000000000));
#417 = CARTESIAN_POINT('',(0.927050983,11.146830451,-27.000000000));
#418 = CARTESIAN_POINT('',(0.000000000,11.000000000,-27.000000000));
#419 = CARTESIAN_POINT('',(-0.927050983,11.146830451,-27.000000000));
#420 = CARTESIAN_POINT('',(-1.763355757,11.572949017,-27.000000000));
#421 = CARTESIAN_POINT('',(-2.427050983,12.236644243,-27.000000000));
#422 = CARTESIAN_POINT('',(-2.853169549,13.072949017,-27.000000000));
#423 = CARTESIAN_POINT('',(-3.000000000,14.000000000,-27.000000000));
#424 = CARTESIAN_POINT('',(-2.853169549,14.927050983,-27.000000000));
#425 = CARTESIAN_POINT('',(-2.427050983,15.763355757,-27.000000000));
#426 = CARTESIAN_POINT('',(-1.763355757,16.427050983,-27.000000000));
#427 = CARTESIAN_POINT('',(-0.927050983,16.853169549,-27.000000000));
#428 = CARTESIAN_POINT('',(-0.000000000,17.000000000,-27.000000000));
#429 = CARTESIAN_POINT('',(0.927050983,16.853169549,-27.000000000));
#430 = CARTESIAN_POINT('',(1.763355757,16.427050983,-27.000000000));
#431 = CARTESIAN_POINT('',(2.427050983,15.763355757,-27.000000000));
#432 = CARTESIAN_POINT('',(2.853169549,14.927050983,-27.000000000));
#433 = POLY_LOOP('',(#412,#411,#410,#409,#408,#407,#406,#405,#404,#403,#402,#401,#400,#399,#398,#397,#396,#395,#394,#393));
#434 = FACE_OUTER_BOUND('',#433,.T.);
#435 = DIRECTION('',(0.000000000,0.000000000,1.000000000));
#436 = DIRECTION('',(-0.453990500,0.891006524,0.000000000));
#437 = AXIS2_PLACEMENT_3D('',#412,#435,#436);
#438 = PLANE('',#437);
#439 = FACE_SURFACE('',(#434),#438,.T.);
#440 = POLY_LOOP('',(#413,#414,#415,#416,#417,#418,#419,#420,#421,#422,#423,#424,#425,#426,#427,#428,#429,#430,#431,#432));
#441 = FACE_OUTER_BOUND('',#440,.T.);
#442 = DIRECTION('',(0.000000000,0.000000000,-1.000000000));
#443 = DIRECTION('',(-0.156434465,-0.987688341,0.000000000));
#444 = AXIS2_PLACEMENT_3D('',#413,#442,#443);
#445 = PLANE('',#444);
#446 = FACE_SURFACE('',(#441),#445,.T.);
#447 = POLY_LOOP('',(#393,#394,#414,#413));
#448 = FACE_OUTER_BOUND('',#447,.T.);
#449 = DIRECTION('',(0.987688341,-0.156434465,0.000000000));
#450 = DIRECTION('',(-0.156434465,-0.987688341,0.000000000));
#451 = AXIS2_PLACEMENT_3D('',#393,#449,#450);
#452 = PLANE('',#451);
#453 = FACE_SURFACE('',(#448),#452,.T.);
#454 = POLY_LOOP('',(#394,#395,#415,#414));
#455 = FACE_OUTER_BOUND('',#454,.T.);
#456 = DIRECTION('',(0.891006524,-0.453990500,0.000000000));
#457 = DIRECTION('',(-0.453990500,-0.891006524,0.000000000));
#458 = AXIS2_PLACEMENT_3D('',#394,#456,#457);
#459 = PLANE('',#458);
#460 = FACE_SURFACE('',(#455),#459,.T.);
#461 = POLY_LOOP('',(#395,#396,#416,#415));
#462 = FACE_OUTER_BOUND('',#461,.T.);
#463 = DIRECTION('',(0.707106781,-0.707106781,0.000000000));
#464 = DIRECTION('',(-0.707106781,-0.707106781,0.000000000));
#465 = AXIS2_PLACEMENT_3D('',#395,#463,#464);
#466 = PLANE('',#465);
#467 = FACE_SURFACE('',(#462),#466,.T.);
#468 = POLY_LOOP('',(#396,#397,#417,#416));
#469 = FACE_OUTER_BOUND('',#468,.T.);
#470 = DIRECTION('',(0.453990500,-0.891006524,0.000000000));
#471 = DIRECTION('',(-0.891006524,-0.453990500,0.000000000));
#472 = AXIS2_PLACEMENT_3D('',#396,#470,#471);
#473 = PLANE('',#472);
#474 = FACE_SURFACE('',(#469),#473,.T.);
#475 = POLY_LOOP('',(#397,#398,#418,#417));
#476 = FACE_OUTER_BOUND('',#475,.T.);
#477 = DIRECTION('',(0.156434465,-0.987688341,0.000000000));
#478 = DIRECTION('',(-0.987688341,-0.156434465,0.000000000));
#479 = AXIS2_PLACEMENT_3D('',#397,#477,#478);
#480 = PLANE('',#479);
#481 = FACE_SURFACE('',(#476),#480,.T.);
#482 = POLY_LOOP('',(#398,#399,#419,#418));
#483 = FACE_OUTER_BOUND('',#482,.T.);
#484 = DIRECTION('',(-0.156434465,-0.987688341,0.000000000));
#485 = DIRECTION('',(-0.987688341,0.156434465,0.000000000));
#486 = AXIS2_PLACEMENT_3D('',#398,#484,#485);
#487 = PLANE('',#486);
#488 = FACE_SURFACE('',(#483),#487,.T.);
#489 = POLY_LOOP('',(#399,#400,#420,#419));
#490 = FACE_OUTER_BOUND('',#489,.T.);
#491 = DIRECTION('',(-0.453990500,-0.891006524,0.000000000));
#492 = DIRECTION('',(-0.891006524,0.453990500,0.000000000));
#493 = AXIS2_PLACEMENT_3D('',#399,#491,#492);
#494 = PLANE('',#493);
#495 = FACE_SURFACE('',(#490),#494,.T.);
#496 = POLY_LOOP('',(#400,#401,#421,#420));
#497 = FACE_OUTER_BOUND('',#496,.T.);
#498 = DIRECTION('',(-0.707106781,-0.707106781,0.000000000));
#499 = DIRECTION('',(-0.707106781,0.707106781,0.000000000));
#500 = AXIS2_PLACEMENT_3D('',#400,#498,#499);
#501 = PLANE('',#500);
#502 = FACE_SURFACE('',(#497),#501,.T.);
#503 = POLY_LOOP('',(#401,#402,#422,#421));
#504 = FACE_OUTER_BOUND('',#503,.T.);
#505 = DIRECTION('',(-0.891006524,-0.453990500,0.000000000));
#506 = DIRECTION('',(-0.453990500,0.891006524,0.000000000));
#507 = AXIS2_PLACEMENT_3D('',#401,#505,#506);
#508 = PLANE('',#507);
#509 = FACE_SURFACE('',(#504),#508,.T.);
#510 = POLY_LOOP('',(#402,#403,#423,#422));
#511 = FACE_OUTER_BOUND('',#510,.T.);
#512 = DIRECTION('',(-0.987688341,-0.156434465,0.000000000));
#513 = DIRECTION('',(-0.156434465,0.987688341,0.000000000));
#514 = AXIS2_PLACEMENT_3D('',#402,#512,#513);
#515 = PLANE('',#514);
#516 = FACE_SURFACE('',(#511),#515,.T.);
#517 = POLY_LOOP('',(#403,#404,#424,#423));
#518 = FACE_OUTER_BOUND('',#517,.T.);
#519 = DIRECTION('',(-0.987688341,0.156434465,0.000000000));
#520 = DIRECTION('',(0.156434465,0.987688341,0.000000000));
#521 = AXIS2_PLACEMENT_3D('',#403,#519,#520);
#522 = PLANE('',#521);
#523 = FACE_SURFACE('',(#518),#522,.T.);
#524 = POLY_LOOP('',(#404,#405,#425,#424));
#525 = FACE_OUTER_BOUND('',#524,.T.);
#526 = DIRECTION('',(-0.891006524,0.453990500,0.000000000));
#527 = DIRECTION('',(0.453990500,0.891006524,0.000000000));
#528 = AXIS2_PLACEMENT_3D('',#404,#526,#527);
#529 = PLANE('',#528);
#530 = FACE_SURFACE('',(#525),#529,.T.);
#531 = POLY_LOOP('',(#405,#406,#426,#425));
#532 = FACE_OUTER_BOUND('',#531,.T.);
#533 = DIRECTION('',(-0.707106781,0.707106781,0.000000000));
#534 = DIRECTION('',(0.707106781,0.707106781,0.000000000));
#535 = AXIS2_PLACEMENT_3D('',#405,#533,#534);
#536 = PLANE('',#535);
#537 = FACE_SURFACE('',(#532),#536,.T.);
#538 = POLY_LOOP('',(#406,#407,#427,#426));
#539 = FACE_OUTER_BOUND('',#538,.T.);
#540 = DIRECTION('',(-0.453990500,0.891006524,0.000000000));
#541 = DIRECTION('',(0.891006524,0.453990500,0.000000000));
#542 = AXIS2_PLACEMENT_3D('',#406,#540,#541);
#543 = PLANE('',#542);
#544 = FACE_SURFACE('',(#539),#543,.T.);
#545 = POLY_LOOP('',(#407,#408,#428,#427));
#546 = FACE_OUTER_BOUND('',#545,.T.);
#547 = DIRECTION('',(-0.156434465,0.987688341,0.000000000));
#548 = DIRECTION('',(0.987688341,0.156434465,0.000000000));
#549 = AXIS2_PLACEMENT_3D('',#407,#547,#548);
#550 = PLANE('',#549);
#551 = FACE_SURFACE('',(#546),#550,.T.);
#552 = POLY_LOOP('',(#408,#409,#429,#428));
#553 = FACE_OUTER_BOUND('',#552,.T.);
#554 = DIRECTION('',(0.156434465,0.987688341,0.000000000));
#555 = DIRECTION('',(0.987688341,-0.156434465,0.000000000));
#556 = AXIS2_PLACEMENT_3D('',#408,#554,#555);
#557 = PLANE('',#556);
#558 = FACE_SURFACE('',(#553),#557,.T.);
#559 = POLY_LOOP('',(#409,#410,#430,#429));
#560 = FACE_OUTER_BOUND('',#559,.T.);
#561 = DIRECTION('',(0.453990500,0.891006524,0.000000000));
#562 = DIRECTION('',(0.891006524,-0.453990500,0.000000000));
#563 = AXIS2_PLACEMENT_3D('',#409,#561,#562);
#564 = PLANE('',#563);
#565 = FACE_SURFACE('',(#560),#564,.T.);
#566 = POLY_LOOP('',(#410,#411,#431,#430));
#567 = FACE_OUTER_BOUND('',#566,.T.);
#568 = DIRECTION('',(0.707106781,0.707106781,0.000000000));
#569 = DIRECTION('',(0.707106781,-0.707106781,0.000000000));
#570 = AXIS2_PLACEMENT_3D('',#410,#568,#569);
#571 = PLANE('',#570);
#572 = FACE_SURFACE('',(#567),#571,.T.);
#573 = POLY_LOOP('',(#411,#412,#432,#431));
#574 = FACE_OUTER_BOUND('',#573,.T.);
#575 = DIRECTION('',(0.891006524,0.453990500,0.000000000));
#576 = DIRECTION('',(0.453990500,-0.891006524,0.000000000));
#577 = AXIS2_PLACEMENT_3D('',#411,#575,#576);
#578 = PLANE('',#577);
#579 = FACE_SURFACE('',(#574),#578,.T.);
#580 = POLY_LOOP('',(#412,#393,#413,#432));
#581 = FACE_OUTER_BOUND('',#580,.T.);
#582 = DIRECTION('',(0.987688341,0.156434465,0.000000000));
#583 = DIRECTION('',(0.156434465,-0.987688341,0.000000000));
#584 = AXIS2_PLACEMENT_3D('',#412,#582,#583);
#585 = PLANE('',#584);
#586 = FACE_SURFACE('',(#581),#585,.T.);
#587 = CLOSED_SHELL('',(#439,#446,#453,#460,#467,#474,#481,#488,#495,#502,#509,#516,#523,#530,#537,#544,#551,#558,#565,#572,#579,#586));
#588 = FACETED_BREP('black optical aperture',#587);
#589 = APPLICATION_CONTEXT('configuration controlled 3d designs of mechanical parts and assemblies');
#590 = APPLICATION_PROTOCOL_DEFINITION('international standard','config_control_design',1994,#589);
#591 = PRODUCT_CONTEXT('',#589,'mechanical');
#592 = PRODUCT('REF','Illustrative reference','NOT vendor CAD',(#591));
#593 = PRODUCT_DEFINITION_FORMATION_WITH_SPECIFIED_SOURCE('','',#592,.NOT_KNOWN.);
#594 = PRODUCT_DEFINITION_CONTEXT('part definition',#589,'design');
#595 = PRODUCT_DEFINITION('design','',#593,#594);
#596 = PRODUCT_DEFINITION_SHAPE('','',#595);
#597 = (LENGTH_UNIT()NAMED_UNIT(*)SI_UNIT(.MILLI.,.METRE.));
#598 = (NAMED_UNIT(*)PLANE_ANGLE_UNIT()SI_UNIT($,.RADIAN.));
#599 = (NAMED_UNIT(*)SI_UNIT($,.STERADIAN.)SOLID_ANGLE_UNIT());
#600 = UNCERTAINTY_MEASURE_WITH_UNIT(LENGTH_MEASURE(0.000001),#597,'distance_accuracy_value','');
#601 = (GEOMETRIC_REPRESENTATION_CONTEXT(3)GLOBAL_UNCERTAINTY_ASSIGNED_CONTEXT((#600))GLOBAL_UNIT_ASSIGNED_CONTEXT((#597,#598,#599))REPRESENTATION_CONTEXT('',''));
#602 = FACETED_BREP_SHAPE_REPRESENTATION('Illustrative reference',(#196,#392,#588),#601);
#603 = SHAPE_DEFINITION_REPRESENTATION(#596,#602);
ENDSEC;
END-ISO-10303-21;
