ISO-10303-21;
HEADER;
FILE_DESCRIPTION(('Illustrative CAD - NOT vendor dimensions'),'2;1');
FILE_NAME('reference.step','2026-10-07',('CORNERSTONE'),(''),'reference generator','','');
FILE_SCHEMA(('CONFIG_CONTROL_DESIGN'));
ENDSEC;
DATA;
#1 = CARTESIAN_POINT('',(28.000000000,28.000000000,22.000000000));
#2 = CARTESIAN_POINT('',(27.461987851,22.537470984,22.000000000));
#3 = CARTESIAN_POINT('',(25.868626910,17.284863894,22.000000000));
#4 = CARTESIAN_POINT('',(23.281149144,12.444033475,22.000000000));
#5 = CARTESIAN_POINT('',(19.798989873,8.201010127,22.000000000));
#6 = CARTESIAN_POINT('',(15.555966525,4.718850856,22.000000000));
#7 = CARTESIAN_POINT('',(10.715136106,2.131373090,22.000000000));
#8 = CARTESIAN_POINT('',(5.462529016,0.538012149,22.000000000));
#9 = CARTESIAN_POINT('',(0.000000000,0.000000000,22.000000000));
#10 = CARTESIAN_POINT('',(-5.462529016,0.538012149,22.000000000));
#11 = CARTESIAN_POINT('',(-10.715136106,2.131373090,22.000000000));
#12 = CARTESIAN_POINT('',(-15.555966525,4.718850856,22.000000000));
#13 = CARTESIAN_POINT('',(-19.798989873,8.201010127,22.000000000));
#14 = CARTESIAN_POINT('',(-23.281149144,12.444033475,22.000000000));
#15 = CARTESIAN_POINT('',(-25.868626910,17.284863894,22.000000000));
#16 = CARTESIAN_POINT('',(-27.461987851,22.537470984,22.000000000));
#17 = CARTESIAN_POINT('',(-28.000000000,28.000000000,22.000000000));
#18 = CARTESIAN_POINT('',(-27.461987851,33.462529016,22.000000000));
#19 = CARTESIAN_POINT('',(-25.868626910,38.715136106,22.000000000));
#20 = CARTESIAN_POINT('',(-23.281149144,43.555966525,22.000000000));
#21 = CARTESIAN_POINT('',(-19.798989873,47.798989873,22.000000000));
#22 = CARTESIAN_POINT('',(-15.555966525,51.281149144,22.000000000));
#23 = CARTESIAN_POINT('',(-10.715136106,53.868626910,22.000000000));
#24 = CARTESIAN_POINT('',(-5.462529016,55.461987851,22.000000000));
#25 = CARTESIAN_POINT('',(-0.000000000,56.000000000,22.000000000));
#26 = CARTESIAN_POINT('',(5.462529016,55.461987851,22.000000000));
#27 = CARTESIAN_POINT('',(10.715136106,53.868626910,22.000000000));
#28 = CARTESIAN_POINT('',(15.555966525,51.281149144,22.000000000));
#29 = CARTESIAN_POINT('',(19.798989873,47.798989873,22.000000000));
#30 = CARTESIAN_POINT('',(23.281149144,43.555966525,22.000000000));
#31 = CARTESIAN_POINT('',(25.868626910,38.715136106,22.000000000));
#32 = CARTESIAN_POINT('',(27.461987851,33.462529016,22.000000000));
#33 = CARTESIAN_POINT('',(28.000000000,28.000000000,-22.000000000));
#34 = CARTESIAN_POINT('',(27.461987851,22.537470984,-22.000000000));
#35 = CARTESIAN_POINT('',(25.868626910,17.284863894,-22.000000000));
#36 = CARTESIAN_POINT('',(23.281149144,12.444033475,-22.000000000));
#37 = CARTESIAN_POINT('',(19.798989873,8.201010127,-22.000000000));
#38 = CARTESIAN_POINT('',(15.555966525,4.718850856,-22.000000000));
#39 = CARTESIAN_POINT('',(10.715136106,2.131373090,-22.000000000));
#40 = CARTESIAN_POINT('',(5.462529016,0.538012149,-22.000000000));
#41 = CARTESIAN_POINT('',(0.000000000,0.000000000,-22.000000000));
#42 = CARTESIAN_POINT('',(-5.462529016,0.538012149,-22.000000000));
#43 = CARTESIAN_POINT('',(-10.715136106,2.131373090,-22.000000000));
#44 = CARTESIAN_POINT('',(-15.555966525,4.718850856,-22.000000000));
#45 = CARTESIAN_POINT('',(-19.798989873,8.201010127,-22.000000000));
#46 = CARTESIAN_POINT('',(-23.281149144,12.444033475,-22.000000000));
#47 = CARTESIAN_POINT('',(-25.868626910,17.284863894,-22.000000000));
#48 = CARTESIAN_POINT('',(-27.461987851,22.537470984,-22.000000000));
#49 = CARTESIAN_POINT('',(-28.000000000,28.000000000,-22.000000000));
#50 = CARTESIAN_POINT('',(-27.461987851,33.462529016,-22.000000000));
#51 = CARTESIAN_POINT('',(-25.868626910,38.715136106,-22.000000000));
#52 = CARTESIAN_POINT('',(-23.281149144,43.555966525,-22.000000000));
#53 = CARTESIAN_POINT('',(-19.798989873,47.798989873,-22.000000000));
#54 = CARTESIAN_POINT('',(-15.555966525,51.281149144,-22.000000000));
#55 = CARTESIAN_POINT('',(-10.715136106,53.868626910,-22.000000000));
#56 = CARTESIAN_POINT('',(-5.462529016,55.461987851,-22.000000000));
#57 = CARTESIAN_POINT('',(-0.000000000,56.000000000,-22.000000000));
#58 = CARTESIAN_POINT('',(5.462529016,55.461987851,-22.000000000));
#59 = CARTESIAN_POINT('',(10.715136106,53.868626910,-22.000000000));
#60 = CARTESIAN_POINT('',(15.555966525,51.281149144,-22.000000000));
#61 = CARTESIAN_POINT('',(19.798989873,47.798989873,-22.000000000));
#62 = CARTESIAN_POINT('',(23.281149144,43.555966525,-22.000000000));
#63 = CARTESIAN_POINT('',(25.868626910,38.715136106,-22.000000000));
#64 = CARTESIAN_POINT('',(27.461987851,33.462529016,-22.000000000));
#65 = POLY_LOOP('',(#32,#31,#30,#29,#28,#27,#26,#25,#24,#23,#22,#21,#20,#19,#18,#17,#16,#15,#14,#13,#12,#11,#10,#9,#8,#7,#6,#5,#4,#3,#2,#1));
#66 = FACE_OUTER_BOUND('',#65,.T.);
#67 = DIRECTION('',(0.000000000,0.000000000,1.000000000));
#68 = DIRECTION('',(-0.290284677,0.956940336,0.000000000));
#69 = AXIS2_PLACEMENT_3D('',#32,#67,#68);
#70 = PLANE('',#69);
#71 = FACE_SURFACE('',(#66),#70,.T.);
#72 = POLY_LOOP('',(#33,#34,#35,#36,#37,#38,#39,#40,#41,#42,#43,#44,#45,#46,#47,#48,#49,#50,#51,#52,#53,#54,#55,#56,#57,#58,#59,#60,#61,#62,#63,#64));
#73 = FACE_OUTER_BOUND('',#72,.T.);
#74 = DIRECTION('',(0.000000000,0.000000000,-1.000000000));
#75 = DIRECTION('',(-0.098017140,-0.995184727,0.000000000));
#76 = AXIS2_PLACEMENT_3D('',#33,#74,#75);
#77 = PLANE('',#76);
#78 = FACE_SURFACE('',(#73),#77,.T.);
#79 = POLY_LOOP('',(#1,#2,#34,#33));
#80 = FACE_OUTER_BOUND('',#79,.T.);
#81 = DIRECTION('',(0.995184727,-0.098017140,0.000000000));
#82 = DIRECTION('',(-0.098017140,-0.995184727,0.000000000));
#83 = AXIS2_PLACEMENT_3D('',#1,#81,#82);
#84 = PLANE('',#83);
#85 = FACE_SURFACE('',(#80),#84,.T.);
#86 = POLY_LOOP('',(#2,#3,#35,#34));
#87 = FACE_OUTER_BOUND('',#86,.T.);
#88 = DIRECTION('',(0.956940336,-0.290284677,0.000000000));
#89 = DIRECTION('',(-0.290284677,-0.956940336,0.000000000));
#90 = AXIS2_PLACEMENT_3D('',#2,#88,#89);
#91 = PLANE('',#90);
#92 = FACE_SURFACE('',(#87),#91,.T.);
#93 = POLY_LOOP('',(#3,#4,#36,#35));
#94 = FACE_OUTER_BOUND('',#93,.T.);
#95 = DIRECTION('',(0.881921264,-0.471396737,0.000000000));
#96 = DIRECTION('',(-0.471396737,-0.881921264,0.000000000));
#97 = AXIS2_PLACEMENT_3D('',#3,#95,#96);
#98 = PLANE('',#97);
#99 = FACE_SURFACE('',(#94),#98,.T.);
#100 = POLY_LOOP('',(#4,#5,#37,#36));
#101 = FACE_OUTER_BOUND('',#100,.T.);
#102 = DIRECTION('',(0.773010453,-0.634393284,0.000000000));
#103 = DIRECTION('',(-0.634393284,-0.773010453,0.000000000));
#104 = AXIS2_PLACEMENT_3D('',#4,#102,#103);
#105 = PLANE('',#104);
#106 = FACE_SURFACE('',(#101),#105,.T.);
#107 = POLY_LOOP('',(#5,#6,#38,#37));
#108 = FACE_OUTER_BOUND('',#107,.T.);
#109 = DIRECTION('',(0.634393284,-0.773010453,0.000000000));
#110 = DIRECTION('',(-0.773010453,-0.634393284,0.000000000));
#111 = AXIS2_PLACEMENT_3D('',#5,#109,#110);
#112 = PLANE('',#111);
#113 = FACE_SURFACE('',(#108),#112,.T.);
#114 = POLY_LOOP('',(#6,#7,#39,#38));
#115 = FACE_OUTER_BOUND('',#114,.T.);
#116 = DIRECTION('',(0.471396737,-0.881921264,0.000000000));
#117 = DIRECTION('',(-0.881921264,-0.471396737,0.000000000));
#118 = AXIS2_PLACEMENT_3D('',#6,#116,#117);
#119 = PLANE('',#118);
#120 = FACE_SURFACE('',(#115),#119,.T.);
#121 = POLY_LOOP('',(#7,#8,#40,#39));
#122 = FACE_OUTER_BOUND('',#121,.T.);
#123 = DIRECTION('',(0.290284677,-0.956940336,0.000000000));
#124 = DIRECTION('',(-0.956940336,-0.290284677,0.000000000));
#125 = AXIS2_PLACEMENT_3D('',#7,#123,#124);
#126 = PLANE('',#125);
#127 = FACE_SURFACE('',(#122),#126,.T.);
#128 = POLY_LOOP('',(#8,#9,#41,#40));
#129 = FACE_OUTER_BOUND('',#128,.T.);
#130 = DIRECTION('',(0.098017140,-0.995184727,0.000000000));
#131 = DIRECTION('',(-0.995184727,-0.098017140,0.000000000));
#132 = AXIS2_PLACEMENT_3D('',#8,#130,#131);
#133 = PLANE('',#132);
#134 = FACE_SURFACE('',(#129),#133,.T.);
#135 = POLY_LOOP('',(#9,#10,#42,#41));
#136 = FACE_OUTER_BOUND('',#135,.T.);
#137 = DIRECTION('',(-0.098017140,-0.995184727,0.000000000));
#138 = DIRECTION('',(-0.995184727,0.098017140,0.000000000));
#139 = AXIS2_PLACEMENT_3D('',#9,#137,#138);
#140 = PLANE('',#139);
#141 = FACE_SURFACE('',(#136),#140,.T.);
#142 = POLY_LOOP('',(#10,#11,#43,#42));
#143 = FACE_OUTER_BOUND('',#142,.T.);
#144 = DIRECTION('',(-0.290284677,-0.956940336,0.000000000));
#145 = DIRECTION('',(-0.956940336,0.290284677,0.000000000));
#146 = AXIS2_PLACEMENT_3D('',#10,#144,#145);
#147 = PLANE('',#146);
#148 = FACE_SURFACE('',(#143),#147,.T.);
#149 = POLY_LOOP('',(#11,#12,#44,#43));
#150 = FACE_OUTER_BOUND('',#149,.T.);
#151 = DIRECTION('',(-0.471396737,-0.881921264,0.000000000));
#152 = DIRECTION('',(-0.881921264,0.471396737,0.000000000));
#153 = AXIS2_PLACEMENT_3D('',#11,#151,#152);
#154 = PLANE('',#153);
#155 = FACE_SURFACE('',(#150),#154,.T.);
#156 = POLY_LOOP('',(#12,#13,#45,#44));
#157 = FACE_OUTER_BOUND('',#156,.T.);
#158 = DIRECTION('',(-0.634393284,-0.773010453,0.000000000));
#159 = DIRECTION('',(-0.773010453,0.634393284,0.000000000));
#160 = AXIS2_PLACEMENT_3D('',#12,#158,#159);
#161 = PLANE('',#160);
#162 = FACE_SURFACE('',(#157),#161,.T.);
#163 = POLY_LOOP('',(#13,#14,#46,#45));
#164 = FACE_OUTER_BOUND('',#163,.T.);
#165 = DIRECTION('',(-0.773010453,-0.634393284,0.000000000));
#166 = DIRECTION('',(-0.634393284,0.773010453,0.000000000));
#167 = AXIS2_PLACEMENT_3D('',#13,#165,#166);
#168 = PLANE('',#167);
#169 = FACE_SURFACE('',(#164),#168,.T.);
#170 = POLY_LOOP('',(#14,#15,#47,#46));
#171 = FACE_OUTER_BOUND('',#170,.T.);
#172 = DIRECTION('',(-0.881921264,-0.471396737,0.000000000));
#173 = DIRECTION('',(-0.471396737,0.881921264,0.000000000));
#174 = AXIS2_PLACEMENT_3D('',#14,#172,#173);
#175 = PLANE('',#174);
#176 = FACE_SURFACE('',(#171),#175,.T.);
#177 = POLY_LOOP('',(#15,#16,#48,#47));
#178 = FACE_OUTER_BOUND('',#177,.T.);
#179 = DIRECTION('',(-0.956940336,-0.290284677,0.000000000));
#180 = DIRECTION('',(-0.290284677,0.956940336,0.000000000));
#181 = AXIS2_PLACEMENT_3D('',#15,#179,#180);
#182 = PLANE('',#181);
#183 = FACE_SURFACE('',(#178),#182,.T.);
#184 = POLY_LOOP('',(#16,#17,#49,#48));
#185 = FACE_OUTER_BOUND('',#184,.T.);
#186 = DIRECTION('',(-0.995184727,-0.098017140,0.000000000));
#187 = DIRECTION('',(-0.098017140,0.995184727,0.000000000));
#188 = AXIS2_PLACEMENT_3D('',#16,#186,#187);
#189 = PLANE('',#188);
#190 = FACE_SURFACE('',(#185),#189,.T.);
#191 = POLY_LOOP('',(#17,#18,#50,#49));
#192 = FACE_OUTER_BOUND('',#191,.T.);
#193 = DIRECTION('',(-0.995184727,0.098017140,0.000000000));
#194 = DIRECTION('',(0.098017140,0.995184727,0.000000000));
#195 = AXIS2_PLACEMENT_3D('',#17,#193,#194);
#196 = PLANE('',#195);
#197 = FACE_SURFACE('',(#192),#196,.T.);
#198 = POLY_LOOP('',(#18,#19,#51,#50));
#199 = FACE_OUTER_BOUND('',#198,.T.);
#200 = DIRECTION('',(-0.956940336,0.290284677,0.000000000));
#201 = DIRECTION('',(0.290284677,0.956940336,0.000000000));
#202 = AXIS2_PLACEMENT_3D('',#18,#200,#201);
#203 = PLANE('',#202);
#204 = FACE_SURFACE('',(#199),#203,.T.);
#205 = POLY_LOOP('',(#19,#20,#52,#51));
#206 = FACE_OUTER_BOUND('',#205,.T.);
#207 = DIRECTION('',(-0.881921264,0.471396737,0.000000000));
#208 = DIRECTION('',(0.471396737,0.881921264,0.000000000));
#209 = AXIS2_PLACEMENT_3D('',#19,#207,#208);
#210 = PLANE('',#209);
#211 = FACE_SURFACE('',(#206),#210,.T.);
#212 = POLY_LOOP('',(#20,#21,#53,#52));
#213 = FACE_OUTER_BOUND('',#212,.T.);
#214 = DIRECTION('',(-0.773010453,0.634393284,0.000000000));
#215 = DIRECTION('',(0.634393284,0.773010453,0.000000000));
#216 = AXIS2_PLACEMENT_3D('',#20,#214,#215);
#217 = PLANE('',#216);
#218 = FACE_SURFACE('',(#213),#217,.T.);
#219 = POLY_LOOP('',(#21,#22,#54,#53));
#220 = FACE_OUTER_BOUND('',#219,.T.);
#221 = DIRECTION('',(-0.634393284,0.773010453,0.000000000));
#222 = DIRECTION('',(0.773010453,0.634393284,0.000000000));
#223 = AXIS2_PLACEMENT_3D('',#21,#221,#222);
#224 = PLANE('',#223);
#225 = FACE_SURFACE('',(#220),#224,.T.);
#226 = POLY_LOOP('',(#22,#23,#55,#54));
#227 = FACE_OUTER_BOUND('',#226,.T.);
#228 = DIRECTION('',(-0.471396737,0.881921264,0.000000000));
#229 = DIRECTION('',(0.881921264,0.471396737,0.000000000));
#230 = AXIS2_PLACEMENT_3D('',#22,#228,#229);
#231 = PLANE('',#230);
#232 = FACE_SURFACE('',(#227),#231,.T.);
#233 = POLY_LOOP('',(#23,#24,#56,#55));
#234 = FACE_OUTER_BOUND('',#233,.T.);
#235 = DIRECTION('',(-0.290284677,0.956940336,0.000000000));
#236 = DIRECTION('',(0.956940336,0.290284677,0.000000000));
#237 = AXIS2_PLACEMENT_3D('',#23,#235,#236);
#238 = PLANE('',#237);
#239 = FACE_SURFACE('',(#234),#238,.T.);
#240 = POLY_LOOP('',(#24,#25,#57,#56));
#241 = FACE_OUTER_BOUND('',#240,.T.);
#242 = DIRECTION('',(-0.098017140,0.995184727,0.000000000));
#243 = DIRECTION('',(0.995184727,0.098017140,0.000000000));
#244 = AXIS2_PLACEMENT_3D('',#24,#242,#243);
#245 = PLANE('',#244);
#246 = FACE_SURFACE('',(#241),#245,.T.);
#247 = POLY_LOOP('',(#25,#26,#58,#57));
#248 = FACE_OUTER_BOUND('',#247,.T.);
#249 = DIRECTION('',(0.098017140,0.995184727,0.000000000));
#250 = DIRECTION('',(0.995184727,-0.098017140,0.000000000));
#251 = AXIS2_PLACEMENT_3D('',#25,#249,#250);
#252 = PLANE('',#251);
#253 = FACE_SURFACE('',(#248),#252,.T.);
#254 = POLY_LOOP('',(#26,#27,#59,#58));
#255 = FACE_OUTER_BOUND('',#254,.T.);
#256 = DIRECTION('',(0.290284677,0.956940336,0.000000000));
#257 = DIRECTION('',(0.956940336,-0.290284677,0.000000000));
#258 = AXIS2_PLACEMENT_3D('',#26,#256,#257);
#259 = PLANE('',#258);
#260 = FACE_SURFACE('',(#255),#259,.T.);
#261 = POLY_LOOP('',(#27,#28,#60,#59));
#262 = FACE_OUTER_BOUND('',#261,.T.);
#263 = DIRECTION('',(0.471396737,0.881921264,0.000000000));
#264 = DIRECTION('',(0.881921264,-0.471396737,0.000000000));
#265 = AXIS2_PLACEMENT_3D('',#27,#263,#264);
#266 = PLANE('',#265);
#267 = FACE_SURFACE('',(#262),#266,.T.);
#268 = POLY_LOOP('',(#28,#29,#61,#60));
#269 = FACE_OUTER_BOUND('',#268,.T.);
#270 = DIRECTION('',(0.634393284,0.773010453,0.000000000));
#271 = DIRECTION('',(0.773010453,-0.634393284,0.000000000));
#272 = AXIS2_PLACEMENT_3D('',#28,#270,#271);
#273 = PLANE('',#272);
#274 = FACE_SURFACE('',(#269),#273,.T.);
#275 = POLY_LOOP('',(#29,#30,#62,#61));
#276 = FACE_OUTER_BOUND('',#275,.T.);
#277 = DIRECTION('',(0.773010453,0.634393284,0.000000000));
#278 = DIRECTION('',(0.634393284,-0.773010453,0.000000000));
#279 = AXIS2_PLACEMENT_3D('',#29,#277,#278);
#280 = PLANE('',#279);
#281 = FACE_SURFACE('',(#276),#280,.T.);
#282 = POLY_LOOP('',(#30,#31,#63,#62));
#283 = FACE_OUTER_BOUND('',#282,.T.);
#284 = DIRECTION('',(0.881921264,0.471396737,0.000000000));
#285 = DIRECTION('',(0.471396737,-0.881921264,0.000000000));
#286 = AXIS2_PLACEMENT_3D('',#30,#284,#285);
#287 = PLANE('',#286);
#288 = FACE_SURFACE('',(#283),#287,.T.);
#289 = POLY_LOOP('',(#31,#32,#64,#63));
#290 = FACE_OUTER_BOUND('',#289,.T.);
#291 = DIRECTION('',(0.956940336,0.290284677,0.000000000));
#292 = DIRECTION('',(0.290284677,-0.956940336,0.000000000));
#293 = AXIS2_PLACEMENT_3D('',#31,#291,#292);
#294 = PLANE('',#293);
#295 = FACE_SURFACE('',(#290),#294,.T.);
#296 = POLY_LOOP('',(#32,#1,#33,#64));
#297 = FACE_OUTER_BOUND('',#296,.T.);
#298 = DIRECTION('',(0.995184727,0.098017140,0.000000000));
#299 = DIRECTION('',(0.098017140,-0.995184727,0.000000000));
#300 = AXIS2_PLACEMENT_3D('',#32,#298,#299);
#301 = PLANE('',#300);
#302 = FACE_SURFACE('',(#297),#301,.T.);
#303 = CLOSED_SHELL('',(#71,#78,#85,#92,#99,#106,#113,#120,#127,#134,#141,#148,#155,#162,#169,#176,#183,#190,#197,#204,#211,#218,#225,#232,#239,#246,#253,#260,#267,#274,#281,#288,#295,#302));
#304 = FACETED_BREP('black optical head enclosure',#303);
#305 = CARTESIAN_POINT('',(20.000000000,28.000000000,-22.000000000));
#306 = CARTESIAN_POINT('',(19.615705608,24.098193560,-22.000000000));
#307 = CARTESIAN_POINT('',(18.477590650,20.346331353,-22.000000000));
#308 = CARTESIAN_POINT('',(16.629392246,16.888595340,-22.000000000));
#309 = CARTESIAN_POINT('',(14.142135624,13.857864376,-22.000000000));
#310 = CARTESIAN_POINT('',(11.111404660,11.370607754,-22.000000000));
#311 = CARTESIAN_POINT('',(7.653668647,9.522409350,-22.000000000));
#312 = CARTESIAN_POINT('',(3.901806440,8.384294392,-22.000000000));
#313 = CARTESIAN_POINT('',(0.000000000,8.000000000,-22.000000000));
#314 = CARTESIAN_POINT('',(-3.901806440,8.384294392,-22.000000000));
#315 = CARTESIAN_POINT('',(-7.653668647,9.522409350,-22.000000000));
#316 = CARTESIAN_POINT('',(-11.111404660,11.370607754,-22.000000000));
#317 = CARTESIAN_POINT('',(-14.142135624,13.857864376,-22.000000000));
#318 = CARTESIAN_POINT('',(-16.629392246,16.888595340,-22.000000000));
#319 = CARTESIAN_POINT('',(-18.477590650,20.346331353,-22.000000000));
#320 = CARTESIAN_POINT('',(-19.615705608,24.098193560,-22.000000000));
#321 = CARTESIAN_POINT('',(-20.000000000,28.000000000,-22.000000000));
#322 = CARTESIAN_POINT('',(-19.615705608,31.901806440,-22.000000000));
#323 = CARTESIAN_POINT('',(-18.477590650,35.653668647,-22.000000000));
#324 = CARTESIAN_POINT('',(-16.629392246,39.111404660,-22.000000000));
#325 = CARTESIAN_POINT('',(-14.142135624,42.142135624,-22.000000000));
#326 = CARTESIAN_POINT('',(-11.111404660,44.629392246,-22.000000000));
#327 = CARTESIAN_POINT('',(-7.653668647,46.477590650,-22.000000000));
#328 = CARTESIAN_POINT('',(-3.901806440,47.615705608,-22.000000000));
#329 = CARTESIAN_POINT('',(-0.000000000,48.000000000,-22.000000000));
#330 = CARTESIAN_POINT('',(3.901806440,47.615705608,-22.000000000));
#331 = CARTESIAN_POINT('',(7.653668647,46.477590650,-22.000000000));
#332 = CARTESIAN_POINT('',(11.111404660,44.629392246,-22.000000000));
#333 = CARTESIAN_POINT('',(14.142135624,42.142135624,-22.000000000));
#334 = CARTESIAN_POINT('',(16.629392246,39.111404660,-22.000000000));
#335 = CARTESIAN_POINT('',(18.477590650,35.653668647,-22.000000000));
#336 = CARTESIAN_POINT('',(19.615705608,31.901806440,-22.000000000));
#337 = CARTESIAN_POINT('',(20.000000000,28.000000000,-26.000000000));
#338 = CARTESIAN_POINT('',(19.615705608,24.098193560,-26.000000000));
#339 = CARTESIAN_POINT('',(18.477590650,20.346331353,-26.000000000));
#340 = CARTESIAN_POINT('',(16.629392246,16.888595340,-26.000000000));
#341 = CARTESIAN_POINT('',(14.142135624,13.857864376,-26.000000000));
#342 = CARTESIAN_POINT('',(11.111404660,11.370607754,-26.000000000));
#343 = CARTESIAN_POINT('',(7.653668647,9.522409350,-26.000000000));
#344 = CARTESIAN_POINT('',(3.901806440,8.384294392,-26.000000000));
#345 = CARTESIAN_POINT('',(0.000000000,8.000000000,-26.000000000));
#346 = CARTESIAN_POINT('',(-3.901806440,8.384294392,-26.000000000));
#347 = CARTESIAN_POINT('',(-7.653668647,9.522409350,-26.000000000));
#348 = CARTESIAN_POINT('',(-11.111404660,11.370607754,-26.000000000));
#349 = CARTESIAN_POINT('',(-14.142135624,13.857864376,-26.000000000));
#350 = CARTESIAN_POINT('',(-16.629392246,16.888595340,-26.000000000));
#351 = CARTESIAN_POINT('',(-18.477590650,20.346331353,-26.000000000));
#352 = CARTESIAN_POINT('',(-19.615705608,24.098193560,-26.000000000));
#353 = CARTESIAN_POINT('',(-20.000000000,28.000000000,-26.000000000));
#354 = CARTESIAN_POINT('',(-19.615705608,31.901806440,-26.000000000));
#355 = CARTESIAN_POINT('',(-18.477590650,35.653668647,-26.000000000));
#356 = CARTESIAN_POINT('',(-16.629392246,39.111404660,-26.000000000));
#357 = CARTESIAN_POINT('',(-14.142135624,42.142135624,-26.000000000));
#358 = CARTESIAN_POINT('',(-11.111404660,44.629392246,-26.000000000));
#359 = CARTESIAN_POINT('',(-7.653668647,46.477590650,-26.000000000));
#360 = CARTESIAN_POINT('',(-3.901806440,47.615705608,-26.000000000));
#361 = CARTESIAN_POINT('',(-0.000000000,48.000000000,-26.000000000));
#362 = CARTESIAN_POINT('',(3.901806440,47.615705608,-26.000000000));
#363 = CARTESIAN_POINT('',(7.653668647,46.477590650,-26.000000000));
#364 = CARTESIAN_POINT('',(11.111404660,44.629392246,-26.000000000));
#365 = CARTESIAN_POINT('',(14.142135624,42.142135624,-26.000000000));
#366 = CARTESIAN_POINT('',(16.629392246,39.111404660,-26.000000000));
#367 = CARTESIAN_POINT('',(18.477590650,35.653668647,-26.000000000));
#368 = CARTESIAN_POINT('',(19.615705608,31.901806440,-26.000000000));
#369 = POLY_LOOP('',(#336,#335,#334,#333,#332,#331,#330,#329,#328,#327,#326,#325,#324,#323,#322,#321,#320,#319,#318,#317,#316,#315,#314,#313,#312,#311,#310,#309,#308,#307,#306,#305));
#370 = FACE_OUTER_BOUND('',#369,.T.);
#371 = DIRECTION('',(0.000000000,0.000000000,1.000000000));
#372 = DIRECTION('',(-0.290284677,0.956940336,0.000000000));
#373 = AXIS2_PLACEMENT_3D('',#336,#371,#372);
#374 = PLANE('',#373);
#375 = FACE_SURFACE('',(#370),#374,.T.);
#376 = POLY_LOOP('',(#337,#338,#339,#340,#341,#342,#343,#344,#345,#346,#347,#348,#349,#350,#351,#352,#353,#354,#355,#356,#357,#358,#359,#360,#361,#362,#363,#364,#365,#366,#367,#368));
#377 = FACE_OUTER_BOUND('',#376,.T.);
#378 = DIRECTION('',(0.000000000,0.000000000,-1.000000000));
#379 = DIRECTION('',(-0.098017140,-0.995184727,0.000000000));
#380 = AXIS2_PLACEMENT_3D('',#337,#378,#379);
#381 = PLANE('',#380);
#382 = FACE_SURFACE('',(#377),#381,.T.);
#383 = POLY_LOOP('',(#305,#306,#338,#337));
#384 = FACE_OUTER_BOUND('',#383,.T.);
#385 = DIRECTION('',(0.995184727,-0.098017140,0.000000000));
#386 = DIRECTION('',(-0.098017140,-0.995184727,0.000000000));
#387 = AXIS2_PLACEMENT_3D('',#305,#385,#386);
#388 = PLANE('',#387);
#389 = FACE_SURFACE('',(#384),#388,.T.);
#390 = POLY_LOOP('',(#306,#307,#339,#338));
#391 = FACE_OUTER_BOUND('',#390,.T.);
#392 = DIRECTION('',(0.956940336,-0.290284677,0.000000000));
#393 = DIRECTION('',(-0.290284677,-0.956940336,0.000000000));
#394 = AXIS2_PLACEMENT_3D('',#306,#392,#393);
#395 = PLANE('',#394);
#396 = FACE_SURFACE('',(#391),#395,.T.);
#397 = POLY_LOOP('',(#307,#308,#340,#339));
#398 = FACE_OUTER_BOUND('',#397,.T.);
#399 = DIRECTION('',(0.881921264,-0.471396737,0.000000000));
#400 = DIRECTION('',(-0.471396737,-0.881921264,0.000000000));
#401 = AXIS2_PLACEMENT_3D('',#307,#399,#400);
#402 = PLANE('',#401);
#403 = FACE_SURFACE('',(#398),#402,.T.);
#404 = POLY_LOOP('',(#308,#309,#341,#340));
#405 = FACE_OUTER_BOUND('',#404,.T.);
#406 = DIRECTION('',(0.773010453,-0.634393284,0.000000000));
#407 = DIRECTION('',(-0.634393284,-0.773010453,0.000000000));
#408 = AXIS2_PLACEMENT_3D('',#308,#406,#407);
#409 = PLANE('',#408);
#410 = FACE_SURFACE('',(#405),#409,.T.);
#411 = POLY_LOOP('',(#309,#310,#342,#341));
#412 = FACE_OUTER_BOUND('',#411,.T.);
#413 = DIRECTION('',(0.634393284,-0.773010453,0.000000000));
#414 = DIRECTION('',(-0.773010453,-0.634393284,0.000000000));
#415 = AXIS2_PLACEMENT_3D('',#309,#413,#414);
#416 = PLANE('',#415);
#417 = FACE_SURFACE('',(#412),#416,.T.);
#418 = POLY_LOOP('',(#310,#311,#343,#342));
#419 = FACE_OUTER_BOUND('',#418,.T.);
#420 = DIRECTION('',(0.471396737,-0.881921264,0.000000000));
#421 = DIRECTION('',(-0.881921264,-0.471396737,0.000000000));
#422 = AXIS2_PLACEMENT_3D('',#310,#420,#421);
#423 = PLANE('',#422);
#424 = FACE_SURFACE('',(#419),#423,.T.);
#425 = POLY_LOOP('',(#311,#312,#344,#343));
#426 = FACE_OUTER_BOUND('',#425,.T.);
#427 = DIRECTION('',(0.290284677,-0.956940336,0.000000000));
#428 = DIRECTION('',(-0.956940336,-0.290284677,0.000000000));
#429 = AXIS2_PLACEMENT_3D('',#311,#427,#428);
#430 = PLANE('',#429);
#431 = FACE_SURFACE('',(#426),#430,.T.);
#432 = POLY_LOOP('',(#312,#313,#345,#344));
#433 = FACE_OUTER_BOUND('',#432,.T.);
#434 = DIRECTION('',(0.098017140,-0.995184727,0.000000000));
#435 = DIRECTION('',(-0.995184727,-0.098017140,0.000000000));
#436 = AXIS2_PLACEMENT_3D('',#312,#434,#435);
#437 = PLANE('',#436);
#438 = FACE_SURFACE('',(#433),#437,.T.);
#439 = POLY_LOOP('',(#313,#314,#346,#345));
#440 = FACE_OUTER_BOUND('',#439,.T.);
#441 = DIRECTION('',(-0.098017140,-0.995184727,0.000000000));
#442 = DIRECTION('',(-0.995184727,0.098017140,0.000000000));
#443 = AXIS2_PLACEMENT_3D('',#313,#441,#442);
#444 = PLANE('',#443);
#445 = FACE_SURFACE('',(#440),#444,.T.);
#446 = POLY_LOOP('',(#314,#315,#347,#346));
#447 = FACE_OUTER_BOUND('',#446,.T.);
#448 = DIRECTION('',(-0.290284677,-0.956940336,0.000000000));
#449 = DIRECTION('',(-0.956940336,0.290284677,0.000000000));
#450 = AXIS2_PLACEMENT_3D('',#314,#448,#449);
#451 = PLANE('',#450);
#452 = FACE_SURFACE('',(#447),#451,.T.);
#453 = POLY_LOOP('',(#315,#316,#348,#347));
#454 = FACE_OUTER_BOUND('',#453,.T.);
#455 = DIRECTION('',(-0.471396737,-0.881921264,0.000000000));
#456 = DIRECTION('',(-0.881921264,0.471396737,0.000000000));
#457 = AXIS2_PLACEMENT_3D('',#315,#455,#456);
#458 = PLANE('',#457);
#459 = FACE_SURFACE('',(#454),#458,.T.);
#460 = POLY_LOOP('',(#316,#317,#349,#348));
#461 = FACE_OUTER_BOUND('',#460,.T.);
#462 = DIRECTION('',(-0.634393284,-0.773010453,0.000000000));
#463 = DIRECTION('',(-0.773010453,0.634393284,0.000000000));
#464 = AXIS2_PLACEMENT_3D('',#316,#462,#463);
#465 = PLANE('',#464);
#466 = FACE_SURFACE('',(#461),#465,.T.);
#467 = POLY_LOOP('',(#317,#318,#350,#349));
#468 = FACE_OUTER_BOUND('',#467,.T.);
#469 = DIRECTION('',(-0.773010453,-0.634393284,0.000000000));
#470 = DIRECTION('',(-0.634393284,0.773010453,0.000000000));
#471 = AXIS2_PLACEMENT_3D('',#317,#469,#470);
#472 = PLANE('',#471);
#473 = FACE_SURFACE('',(#468),#472,.T.);
#474 = POLY_LOOP('',(#318,#319,#351,#350));
#475 = FACE_OUTER_BOUND('',#474,.T.);
#476 = DIRECTION('',(-0.881921264,-0.471396737,0.000000000));
#477 = DIRECTION('',(-0.471396737,0.881921264,0.000000000));
#478 = AXIS2_PLACEMENT_3D('',#318,#476,#477);
#479 = PLANE('',#478);
#480 = FACE_SURFACE('',(#475),#479,.T.);
#481 = POLY_LOOP('',(#319,#320,#352,#351));
#482 = FACE_OUTER_BOUND('',#481,.T.);
#483 = DIRECTION('',(-0.956940336,-0.290284677,0.000000000));
#484 = DIRECTION('',(-0.290284677,0.956940336,0.000000000));
#485 = AXIS2_PLACEMENT_3D('',#319,#483,#484);
#486 = PLANE('',#485);
#487 = FACE_SURFACE('',(#482),#486,.T.);
#488 = POLY_LOOP('',(#320,#321,#353,#352));
#489 = FACE_OUTER_BOUND('',#488,.T.);
#490 = DIRECTION('',(-0.995184727,-0.098017140,0.000000000));
#491 = DIRECTION('',(-0.098017140,0.995184727,0.000000000));
#492 = AXIS2_PLACEMENT_3D('',#320,#490,#491);
#493 = PLANE('',#492);
#494 = FACE_SURFACE('',(#489),#493,.T.);
#495 = POLY_LOOP('',(#321,#322,#354,#353));
#496 = FACE_OUTER_BOUND('',#495,.T.);
#497 = DIRECTION('',(-0.995184727,0.098017140,0.000000000));
#498 = DIRECTION('',(0.098017140,0.995184727,0.000000000));
#499 = AXIS2_PLACEMENT_3D('',#321,#497,#498);
#500 = PLANE('',#499);
#501 = FACE_SURFACE('',(#496),#500,.T.);
#502 = POLY_LOOP('',(#322,#323,#355,#354));
#503 = FACE_OUTER_BOUND('',#502,.T.);
#504 = DIRECTION('',(-0.956940336,0.290284677,0.000000000));
#505 = DIRECTION('',(0.290284677,0.956940336,0.000000000));
#506 = AXIS2_PLACEMENT_3D('',#322,#504,#505);
#507 = PLANE('',#506);
#508 = FACE_SURFACE('',(#503),#507,.T.);
#509 = POLY_LOOP('',(#323,#324,#356,#355));
#510 = FACE_OUTER_BOUND('',#509,.T.);
#511 = DIRECTION('',(-0.881921264,0.471396737,0.000000000));
#512 = DIRECTION('',(0.471396737,0.881921264,0.000000000));
#513 = AXIS2_PLACEMENT_3D('',#323,#511,#512);
#514 = PLANE('',#513);
#515 = FACE_SURFACE('',(#510),#514,.T.);
#516 = POLY_LOOP('',(#324,#325,#357,#356));
#517 = FACE_OUTER_BOUND('',#516,.T.);
#518 = DIRECTION('',(-0.773010453,0.634393284,0.000000000));
#519 = DIRECTION('',(0.634393284,0.773010453,0.000000000));
#520 = AXIS2_PLACEMENT_3D('',#324,#518,#519);
#521 = PLANE('',#520);
#522 = FACE_SURFACE('',(#517),#521,.T.);
#523 = POLY_LOOP('',(#325,#326,#358,#357));
#524 = FACE_OUTER_BOUND('',#523,.T.);
#525 = DIRECTION('',(-0.634393284,0.773010453,0.000000000));
#526 = DIRECTION('',(0.773010453,0.634393284,0.000000000));
#527 = AXIS2_PLACEMENT_3D('',#325,#525,#526);
#528 = PLANE('',#527);
#529 = FACE_SURFACE('',(#524),#528,.T.);
#530 = POLY_LOOP('',(#326,#327,#359,#358));
#531 = FACE_OUTER_BOUND('',#530,.T.);
#532 = DIRECTION('',(-0.471396737,0.881921264,0.000000000));
#533 = DIRECTION('',(0.881921264,0.471396737,0.000000000));
#534 = AXIS2_PLACEMENT_3D('',#326,#532,#533);
#535 = PLANE('',#534);
#536 = FACE_SURFACE('',(#531),#535,.T.);
#537 = POLY_LOOP('',(#327,#328,#360,#359));
#538 = FACE_OUTER_BOUND('',#537,.T.);
#539 = DIRECTION('',(-0.290284677,0.956940336,0.000000000));
#540 = DIRECTION('',(0.956940336,0.290284677,0.000000000));
#541 = AXIS2_PLACEMENT_3D('',#327,#539,#540);
#542 = PLANE('',#541);
#543 = FACE_SURFACE('',(#538),#542,.T.);
#544 = POLY_LOOP('',(#328,#329,#361,#360));
#545 = FACE_OUTER_BOUND('',#544,.T.);
#546 = DIRECTION('',(-0.098017140,0.995184727,0.000000000));
#547 = DIRECTION('',(0.995184727,0.098017140,0.000000000));
#548 = AXIS2_PLACEMENT_3D('',#328,#546,#547);
#549 = PLANE('',#548);
#550 = FACE_SURFACE('',(#545),#549,.T.);
#551 = POLY_LOOP('',(#329,#330,#362,#361));
#552 = FACE_OUTER_BOUND('',#551,.T.);
#553 = DIRECTION('',(0.098017140,0.995184727,0.000000000));
#554 = DIRECTION('',(0.995184727,-0.098017140,0.000000000));
#555 = AXIS2_PLACEMENT_3D('',#329,#553,#554);
#556 = PLANE('',#555);
#557 = FACE_SURFACE('',(#552),#556,.T.);
#558 = POLY_LOOP('',(#330,#331,#363,#362));
#559 = FACE_OUTER_BOUND('',#558,.T.);
#560 = DIRECTION('',(0.290284677,0.956940336,0.000000000));
#561 = DIRECTION('',(0.956940336,-0.290284677,0.000000000));
#562 = AXIS2_PLACEMENT_3D('',#330,#560,#561);
#563 = PLANE('',#562);
#564 = FACE_SURFACE('',(#559),#563,.T.);
#565 = POLY_LOOP('',(#331,#332,#364,#363));
#566 = FACE_OUTER_BOUND('',#565,.T.);
#567 = DIRECTION('',(0.471396737,0.881921264,0.000000000));
#568 = DIRECTION('',(0.881921264,-0.471396737,0.000000000));
#569 = AXIS2_PLACEMENT_3D('',#331,#567,#568);
#570 = PLANE('',#569);
#571 = FACE_SURFACE('',(#566),#570,.T.);
#572 = POLY_LOOP('',(#332,#333,#365,#364));
#573 = FACE_OUTER_BOUND('',#572,.T.);
#574 = DIRECTION('',(0.634393284,0.773010453,0.000000000));
#575 = DIRECTION('',(0.773010453,-0.634393284,0.000000000));
#576 = AXIS2_PLACEMENT_3D('',#332,#574,#575);
#577 = PLANE('',#576);
#578 = FACE_SURFACE('',(#573),#577,.T.);
#579 = POLY_LOOP('',(#333,#334,#366,#365));
#580 = FACE_OUTER_BOUND('',#579,.T.);
#581 = DIRECTION('',(0.773010453,0.634393284,0.000000000));
#582 = DIRECTION('',(0.634393284,-0.773010453,0.000000000));
#583 = AXIS2_PLACEMENT_3D('',#333,#581,#582);
#584 = PLANE('',#583);
#585 = FACE_SURFACE('',(#580),#584,.T.);
#586 = POLY_LOOP('',(#334,#335,#367,#366));
#587 = FACE_OUTER_BOUND('',#586,.T.);
#588 = DIRECTION('',(0.881921264,0.471396737,0.000000000));
#589 = DIRECTION('',(0.471396737,-0.881921264,0.000000000));
#590 = AXIS2_PLACEMENT_3D('',#334,#588,#589);
#591 = PLANE('',#590);
#592 = FACE_SURFACE('',(#587),#591,.T.);
#593 = POLY_LOOP('',(#335,#336,#368,#367));
#594 = FACE_OUTER_BOUND('',#593,.T.);
#595 = DIRECTION('',(0.956940336,0.290284677,0.000000000));
#596 = DIRECTION('',(0.290284677,-0.956940336,0.000000000));
#597 = AXIS2_PLACEMENT_3D('',#335,#595,#596);
#598 = PLANE('',#597);
#599 = FACE_SURFACE('',(#594),#598,.T.);
#600 = POLY_LOOP('',(#336,#305,#337,#368));
#601 = FACE_OUTER_BOUND('',#600,.T.);
#602 = DIRECTION('',(0.995184727,0.098017140,0.000000000));
#603 = DIRECTION('',(0.098017140,-0.995184727,0.000000000));
#604 = AXIS2_PLACEMENT_3D('',#336,#602,#603);
#605 = PLANE('',#604);
#606 = FACE_SURFACE('',(#601),#605,.T.);
#607 = CLOSED_SHELL('',(#375,#382,#389,#396,#403,#410,#417,#424,#431,#438,#445,#452,#459,#466,#473,#480,#487,#494,#501,#508,#515,#522,#529,#536,#543,#550,#557,#564,#571,#578,#585,#592,#599,#606));
#608 = FACETED_BREP('silver front ring',#607);
#609 = CARTESIAN_POINT('',(14.000000000,28.000000000,-26.000000000));
#610 = CARTESIAN_POINT('',(13.314791228,23.673762079,-26.000000000));
#611 = CARTESIAN_POINT('',(11.326237921,19.771006468,-26.000000000));
#612 = CARTESIAN_POINT('',(8.228993532,16.673762079,-26.000000000));
#613 = CARTESIAN_POINT('',(4.326237921,14.685208772,-26.000000000));
#614 = CARTESIAN_POINT('',(0.000000000,14.000000000,-26.000000000));
#615 = CARTESIAN_POINT('',(-4.326237921,14.685208772,-26.000000000));
#616 = CARTESIAN_POINT('',(-8.228993532,16.673762079,-26.000000000));
#617 = CARTESIAN_POINT('',(-11.326237921,19.771006468,-26.000000000));
#618 = CARTESIAN_POINT('',(-13.314791228,23.673762079,-26.000000000));
#619 = CARTESIAN_POINT('',(-14.000000000,28.000000000,-26.000000000));
#620 = CARTESIAN_POINT('',(-13.314791228,32.326237921,-26.000000000));
#621 = CARTESIAN_POINT('',(-11.326237921,36.228993532,-26.000000000));
#622 = CARTESIAN_POINT('',(-8.228993532,39.326237921,-26.000000000));
#623 = CARTESIAN_POINT('',(-4.326237921,41.314791228,-26.000000000));
#624 = CARTESIAN_POINT('',(-0.000000000,42.000000000,-26.000000000));
#625 = CARTESIAN_POINT('',(4.326237921,41.314791228,-26.000000000));
#626 = CARTESIAN_POINT('',(8.228993532,39.326237921,-26.000000000));
#627 = CARTESIAN_POINT('',(11.326237921,36.228993532,-26.000000000));
#628 = CARTESIAN_POINT('',(13.314791228,32.326237921,-26.000000000));
#629 = CARTESIAN_POINT('',(14.000000000,28.000000000,-42.000000000));
#630 = CARTESIAN_POINT('',(13.314791228,23.673762079,-42.000000000));
#631 = CARTESIAN_POINT('',(11.326237921,19.771006468,-42.000000000));
#632 = CARTESIAN_POINT('',(8.228993532,16.673762079,-42.000000000));
#633 = CARTESIAN_POINT('',(4.326237921,14.685208772,-42.000000000));
#634 = CARTESIAN_POINT('',(0.000000000,14.000000000,-42.000000000));
#635 = CARTESIAN_POINT('',(-4.326237921,14.685208772,-42.000000000));
#636 = CARTESIAN_POINT('',(-8.228993532,16.673762079,-42.000000000));
#637 = CARTESIAN_POINT('',(-11.326237921,19.771006468,-42.000000000));
#638 = CARTESIAN_POINT('',(-13.314791228,23.673762079,-42.000000000));
#639 = CARTESIAN_POINT('',(-14.000000000,28.000000000,-42.000000000));
#640 = CARTESIAN_POINT('',(-13.314791228,32.326237921,-42.000000000));
#641 = CARTESIAN_POINT('',(-11.326237921,36.228993532,-42.000000000));
#642 = CARTESIAN_POINT('',(-8.228993532,39.326237921,-42.000000000));
#643 = CARTESIAN_POINT('',(-4.326237921,41.314791228,-42.000000000));
#644 = CARTESIAN_POINT('',(-0.000000000,42.000000000,-42.000000000));
#645 = CARTESIAN_POINT('',(4.326237921,41.314791228,-42.000000000));
#646 = CARTESIAN_POINT('',(8.228993532,39.326237921,-42.000000000));
#647 = CARTESIAN_POINT('',(11.326237921,36.228993532,-42.000000000));
#648 = CARTESIAN_POINT('',(13.314791228,32.326237921,-42.000000000));
#649 = POLY_LOOP('',(#628,#627,#626,#625,#624,#623,#622,#621,#620,#619,#618,#617,#616,#615,#614,#613,#612,#611,#610,#609));
#650 = FACE_OUTER_BOUND('',#649,.T.);
#651 = DIRECTION('',(0.000000000,0.000000000,1.000000000));
#652 = DIRECTION('',(-0.453990500,0.891006524,0.000000000));
#653 = AXIS2_PLACEMENT_3D('',#628,#651,#652);
#654 = PLANE('',#653);
#655 = FACE_SURFACE('',(#650),#654,.T.);
#656 = POLY_LOOP('',(#629,#630,#631,#632,#633,#634,#635,#636,#637,#638,#639,#640,#641,#642,#643,#644,#645,#646,#647,#648));
#657 = FACE_OUTER_BOUND('',#656,.T.);
#658 = DIRECTION('',(0.000000000,0.000000000,-1.000000000));
#659 = DIRECTION('',(-0.156434465,-0.987688341,0.000000000));
#660 = AXIS2_PLACEMENT_3D('',#629,#658,#659);
#661 = PLANE('',#660);
#662 = FACE_SURFACE('',(#657),#661,.T.);
#663 = POLY_LOOP('',(#609,#610,#630,#629));
#664 = FACE_OUTER_BOUND('',#663,.T.);
#665 = DIRECTION('',(0.987688341,-0.156434465,0.000000000));
#666 = DIRECTION('',(-0.156434465,-0.987688341,0.000000000));
#667 = AXIS2_PLACEMENT_3D('',#609,#665,#666);
#668 = PLANE('',#667);
#669 = FACE_SURFACE('',(#664),#668,.T.);
#670 = POLY_LOOP('',(#610,#611,#631,#630));
#671 = FACE_OUTER_BOUND('',#670,.T.);
#672 = DIRECTION('',(0.891006524,-0.453990500,0.000000000));
#673 = DIRECTION('',(-0.453990500,-0.891006524,0.000000000));
#674 = AXIS2_PLACEMENT_3D('',#610,#672,#673);
#675 = PLANE('',#674);
#676 = FACE_SURFACE('',(#671),#675,.T.);
#677 = POLY_LOOP('',(#611,#612,#632,#631));
#678 = FACE_OUTER_BOUND('',#677,.T.);
#679 = DIRECTION('',(0.707106781,-0.707106781,0.000000000));
#680 = DIRECTION('',(-0.707106781,-0.707106781,0.000000000));
#681 = AXIS2_PLACEMENT_3D('',#611,#679,#680);
#682 = PLANE('',#681);
#683 = FACE_SURFACE('',(#678),#682,.T.);
#684 = POLY_LOOP('',(#612,#613,#633,#632));
#685 = FACE_OUTER_BOUND('',#684,.T.);
#686 = DIRECTION('',(0.453990500,-0.891006524,0.000000000));
#687 = DIRECTION('',(-0.891006524,-0.453990500,0.000000000));
#688 = AXIS2_PLACEMENT_3D('',#612,#686,#687);
#689 = PLANE('',#688);
#690 = FACE_SURFACE('',(#685),#689,.T.);
#691 = POLY_LOOP('',(#613,#614,#634,#633));
#692 = FACE_OUTER_BOUND('',#691,.T.);
#693 = DIRECTION('',(0.156434465,-0.987688341,0.000000000));
#694 = DIRECTION('',(-0.987688341,-0.156434465,0.000000000));
#695 = AXIS2_PLACEMENT_3D('',#613,#693,#694);
#696 = PLANE('',#695);
#697 = FACE_SURFACE('',(#692),#696,.T.);
#698 = POLY_LOOP('',(#614,#615,#635,#634));
#699 = FACE_OUTER_BOUND('',#698,.T.);
#700 = DIRECTION('',(-0.156434465,-0.987688341,0.000000000));
#701 = DIRECTION('',(-0.987688341,0.156434465,0.000000000));
#702 = AXIS2_PLACEMENT_3D('',#614,#700,#701);
#703 = PLANE('',#702);
#704 = FACE_SURFACE('',(#699),#703,.T.);
#705 = POLY_LOOP('',(#615,#616,#636,#635));
#706 = FACE_OUTER_BOUND('',#705,.T.);
#707 = DIRECTION('',(-0.453990500,-0.891006524,0.000000000));
#708 = DIRECTION('',(-0.891006524,0.453990500,0.000000000));
#709 = AXIS2_PLACEMENT_3D('',#615,#707,#708);
#710 = PLANE('',#709);
#711 = FACE_SURFACE('',(#706),#710,.T.);
#712 = POLY_LOOP('',(#616,#617,#637,#636));
#713 = FACE_OUTER_BOUND('',#712,.T.);
#714 = DIRECTION('',(-0.707106781,-0.707106781,0.000000000));
#715 = DIRECTION('',(-0.707106781,0.707106781,0.000000000));
#716 = AXIS2_PLACEMENT_3D('',#616,#714,#715);
#717 = PLANE('',#716);
#718 = FACE_SURFACE('',(#713),#717,.T.);
#719 = POLY_LOOP('',(#617,#618,#638,#637));
#720 = FACE_OUTER_BOUND('',#719,.T.);
#721 = DIRECTION('',(-0.891006524,-0.453990500,0.000000000));
#722 = DIRECTION('',(-0.453990500,0.891006524,0.000000000));
#723 = AXIS2_PLACEMENT_3D('',#617,#721,#722);
#724 = PLANE('',#723);
#725 = FACE_SURFACE('',(#720),#724,.T.);
#726 = POLY_LOOP('',(#618,#619,#639,#638));
#727 = FACE_OUTER_BOUND('',#726,.T.);
#728 = DIRECTION('',(-0.987688341,-0.156434465,0.000000000));
#729 = DIRECTION('',(-0.156434465,0.987688341,0.000000000));
#730 = AXIS2_PLACEMENT_3D('',#618,#728,#729);
#731 = PLANE('',#730);
#732 = FACE_SURFACE('',(#727),#731,.T.);
#733 = POLY_LOOP('',(#619,#620,#640,#639));
#734 = FACE_OUTER_BOUND('',#733,.T.);
#735 = DIRECTION('',(-0.987688341,0.156434465,0.000000000));
#736 = DIRECTION('',(0.156434465,0.987688341,0.000000000));
#737 = AXIS2_PLACEMENT_3D('',#619,#735,#736);
#738 = PLANE('',#737);
#739 = FACE_SURFACE('',(#734),#738,.T.);
#740 = POLY_LOOP('',(#620,#621,#641,#640));
#741 = FACE_OUTER_BOUND('',#740,.T.);
#742 = DIRECTION('',(-0.891006524,0.453990500,0.000000000));
#743 = DIRECTION('',(0.453990500,0.891006524,0.000000000));
#744 = AXIS2_PLACEMENT_3D('',#620,#742,#743);
#745 = PLANE('',#744);
#746 = FACE_SURFACE('',(#741),#745,.T.);
#747 = POLY_LOOP('',(#621,#622,#642,#641));
#748 = FACE_OUTER_BOUND('',#747,.T.);
#749 = DIRECTION('',(-0.707106781,0.707106781,0.000000000));
#750 = DIRECTION('',(0.707106781,0.707106781,0.000000000));
#751 = AXIS2_PLACEMENT_3D('',#621,#749,#750);
#752 = PLANE('',#751);
#753 = FACE_SURFACE('',(#748),#752,.T.);
#754 = POLY_LOOP('',(#622,#623,#643,#642));
#755 = FACE_OUTER_BOUND('',#754,.T.);
#756 = DIRECTION('',(-0.453990500,0.891006524,0.000000000));
#757 = DIRECTION('',(0.891006524,0.453990500,0.000000000));
#758 = AXIS2_PLACEMENT_3D('',#622,#756,#757);
#759 = PLANE('',#758);
#760 = FACE_SURFACE('',(#755),#759,.T.);
#761 = POLY_LOOP('',(#623,#624,#644,#643));
#762 = FACE_OUTER_BOUND('',#761,.T.);
#763 = DIRECTION('',(-0.156434465,0.987688341,0.000000000));
#764 = DIRECTION('',(0.987688341,0.156434465,0.000000000));
#765 = AXIS2_PLACEMENT_3D('',#623,#763,#764);
#766 = PLANE('',#765);
#767 = FACE_SURFACE('',(#762),#766,.T.);
#768 = POLY_LOOP('',(#624,#625,#645,#644));
#769 = FACE_OUTER_BOUND('',#768,.T.);
#770 = DIRECTION('',(0.156434465,0.987688341,0.000000000));
#771 = DIRECTION('',(0.987688341,-0.156434465,0.000000000));
#772 = AXIS2_PLACEMENT_3D('',#624,#770,#771);
#773 = PLANE('',#772);
#774 = FACE_SURFACE('',(#769),#773,.T.);
#775 = POLY_LOOP('',(#625,#626,#646,#645));
#776 = FACE_OUTER_BOUND('',#775,.T.);
#777 = DIRECTION('',(0.453990500,0.891006524,0.000000000));
#778 = DIRECTION('',(0.891006524,-0.453990500,0.000000000));
#779 = AXIS2_PLACEMENT_3D('',#625,#777,#778);
#780 = PLANE('',#779);
#781 = FACE_SURFACE('',(#776),#780,.T.);
#782 = POLY_LOOP('',(#626,#627,#647,#646));
#783 = FACE_OUTER_BOUND('',#782,.T.);
#784 = DIRECTION('',(0.707106781,0.707106781,0.000000000));
#785 = DIRECTION('',(0.707106781,-0.707106781,0.000000000));
#786 = AXIS2_PLACEMENT_3D('',#626,#784,#785);
#787 = PLANE('',#786);
#788 = FACE_SURFACE('',(#783),#787,.T.);
#789 = POLY_LOOP('',(#627,#628,#648,#647));
#790 = FACE_OUTER_BOUND('',#789,.T.);
#791 = DIRECTION('',(0.891006524,0.453990500,0.000000000));
#792 = DIRECTION('',(0.453990500,-0.891006524,0.000000000));
#793 = AXIS2_PLACEMENT_3D('',#627,#791,#792);
#794 = PLANE('',#793);
#795 = FACE_SURFACE('',(#790),#794,.T.);
#796 = POLY_LOOP('',(#628,#609,#629,#648));
#797 = FACE_OUTER_BOUND('',#796,.T.);
#798 = DIRECTION('',(0.987688341,0.156434465,0.000000000));
#799 = DIRECTION('',(0.156434465,-0.987688341,0.000000000));
#800 = AXIS2_PLACEMENT_3D('',#628,#798,#799);
#801 = PLANE('',#800);
#802 = FACE_SURFACE('',(#797),#801,.T.);
#803 = CLOSED_SHELL('',(#655,#662,#669,#676,#683,#690,#697,#704,#711,#718,#725,#732,#739,#746,#753,#760,#767,#774,#781,#788,#795,#802));
#804 = FACETED_BREP('silver adapter body',#803);
#805 = CARTESIAN_POINT('',(7.000000000,28.000000000,-42.000000000));
#806 = CARTESIAN_POINT('',(6.657395614,25.836881039,-42.000000000));
#807 = CARTESIAN_POINT('',(5.663118961,23.885503234,-42.000000000));
#808 = CARTESIAN_POINT('',(4.114496766,22.336881039,-42.000000000));
#809 = CARTESIAN_POINT('',(2.163118961,21.342604386,-42.000000000));
#810 = CARTESIAN_POINT('',(0.000000000,21.000000000,-42.000000000));
#811 = CARTESIAN_POINT('',(-2.163118961,21.342604386,-42.000000000));
#812 = CARTESIAN_POINT('',(-4.114496766,22.336881039,-42.000000000));
#813 = CARTESIAN_POINT('',(-5.663118961,23.885503234,-42.000000000));
#814 = CARTESIAN_POINT('',(-6.657395614,25.836881039,-42.000000000));
#815 = CARTESIAN_POINT('',(-7.000000000,28.000000000,-42.000000000));
#816 = CARTESIAN_POINT('',(-6.657395614,30.163118961,-42.000000000));
#817 = CARTESIAN_POINT('',(-5.663118961,32.114496766,-42.000000000));
#818 = CARTESIAN_POINT('',(-4.114496766,33.663118961,-42.000000000));
#819 = CARTESIAN_POINT('',(-2.163118961,34.657395614,-42.000000000));
#820 = CARTESIAN_POINT('',(-0.000000000,35.000000000,-42.000000000));
#821 = CARTESIAN_POINT('',(2.163118961,34.657395614,-42.000000000));
#822 = CARTESIAN_POINT('',(4.114496766,33.663118961,-42.000000000));
#823 = CARTESIAN_POINT('',(5.663118961,32.114496766,-42.000000000));
#824 = CARTESIAN_POINT('',(6.657395614,30.163118961,-42.000000000));
#825 = CARTESIAN_POINT('',(7.000000000,28.000000000,-52.000000000));
#826 = CARTESIAN_POINT('',(6.657395614,25.836881039,-52.000000000));
#827 = CARTESIAN_POINT('',(5.663118961,23.885503234,-52.000000000));
#828 = CARTESIAN_POINT('',(4.114496766,22.336881039,-52.000000000));
#829 = CARTESIAN_POINT('',(2.163118961,21.342604386,-52.000000000));
#830 = CARTESIAN_POINT('',(0.000000000,21.000000000,-52.000000000));
#831 = CARTESIAN_POINT('',(-2.163118961,21.342604386,-52.000000000));
#832 = CARTESIAN_POINT('',(-4.114496766,22.336881039,-52.000000000));
#833 = CARTESIAN_POINT('',(-5.663118961,23.885503234,-52.000000000));
#834 = CARTESIAN_POINT('',(-6.657395614,25.836881039,-52.000000000));
#835 = CARTESIAN_POINT('',(-7.000000000,28.000000000,-52.000000000));
#836 = CARTESIAN_POINT('',(-6.657395614,30.163118961,-52.000000000));
#837 = CARTESIAN_POINT('',(-5.663118961,32.114496766,-52.000000000));
#838 = CARTESIAN_POINT('',(-4.114496766,33.663118961,-52.000000000));
#839 = CARTESIAN_POINT('',(-2.163118961,34.657395614,-52.000000000));
#840 = CARTESIAN_POINT('',(-0.000000000,35.000000000,-52.000000000));
#841 = CARTESIAN_POINT('',(2.163118961,34.657395614,-52.000000000));
#842 = CARTESIAN_POINT('',(4.114496766,33.663118961,-52.000000000));
#843 = CARTESIAN_POINT('',(5.663118961,32.114496766,-52.000000000));
#844 = CARTESIAN_POINT('',(6.657395614,30.163118961,-52.000000000));
#845 = POLY_LOOP('',(#824,#823,#822,#821,#820,#819,#818,#817,#816,#815,#814,#813,#812,#811,#810,#809,#808,#807,#806,#805));
#846 = FACE_OUTER_BOUND('',#845,.T.);
#847 = DIRECTION('',(0.000000000,0.000000000,1.000000000));
#848 = DIRECTION('',(-0.453990500,0.891006524,0.000000000));
#849 = AXIS2_PLACEMENT_3D('',#824,#847,#848);
#850 = PLANE('',#849);
#851 = FACE_SURFACE('',(#846),#850,.T.);
#852 = POLY_LOOP('',(#825,#826,#827,#828,#829,#830,#831,#832,#833,#834,#835,#836,#837,#838,#839,#840,#841,#842,#843,#844));
#853 = FACE_OUTER_BOUND('',#852,.T.);
#854 = DIRECTION('',(0.000000000,0.000000000,-1.000000000));
#855 = DIRECTION('',(-0.156434465,-0.987688341,0.000000000));
#856 = AXIS2_PLACEMENT_3D('',#825,#854,#855);
#857 = PLANE('',#856);
#858 = FACE_SURFACE('',(#853),#857,.T.);
#859 = POLY_LOOP('',(#805,#806,#826,#825));
#860 = FACE_OUTER_BOUND('',#859,.T.);
#861 = DIRECTION('',(0.987688341,-0.156434465,0.000000000));
#862 = DIRECTION('',(-0.156434465,-0.987688341,0.000000000));
#863 = AXIS2_PLACEMENT_3D('',#805,#861,#862);
#864 = PLANE('',#863);
#865 = FACE_SURFACE('',(#860),#864,.T.);
#866 = POLY_LOOP('',(#806,#807,#827,#826));
#867 = FACE_OUTER_BOUND('',#866,.T.);
#868 = DIRECTION('',(0.891006524,-0.453990500,0.000000000));
#869 = DIRECTION('',(-0.453990500,-0.891006524,0.000000000));
#870 = AXIS2_PLACEMENT_3D('',#806,#868,#869);
#871 = PLANE('',#870);
#872 = FACE_SURFACE('',(#867),#871,.T.);
#873 = POLY_LOOP('',(#807,#808,#828,#827));
#874 = FACE_OUTER_BOUND('',#873,.T.);
#875 = DIRECTION('',(0.707106781,-0.707106781,0.000000000));
#876 = DIRECTION('',(-0.707106781,-0.707106781,0.000000000));
#877 = AXIS2_PLACEMENT_3D('',#807,#875,#876);
#878 = PLANE('',#877);
#879 = FACE_SURFACE('',(#874),#878,.T.);
#880 = POLY_LOOP('',(#808,#809,#829,#828));
#881 = FACE_OUTER_BOUND('',#880,.T.);
#882 = DIRECTION('',(0.453990500,-0.891006524,0.000000000));
#883 = DIRECTION('',(-0.891006524,-0.453990500,0.000000000));
#884 = AXIS2_PLACEMENT_3D('',#808,#882,#883);
#885 = PLANE('',#884);
#886 = FACE_SURFACE('',(#881),#885,.T.);
#887 = POLY_LOOP('',(#809,#810,#830,#829));
#888 = FACE_OUTER_BOUND('',#887,.T.);
#889 = DIRECTION('',(0.156434465,-0.987688341,0.000000000));
#890 = DIRECTION('',(-0.987688341,-0.156434465,0.000000000));
#891 = AXIS2_PLACEMENT_3D('',#809,#889,#890);
#892 = PLANE('',#891);
#893 = FACE_SURFACE('',(#888),#892,.T.);
#894 = POLY_LOOP('',(#810,#811,#831,#830));
#895 = FACE_OUTER_BOUND('',#894,.T.);
#896 = DIRECTION('',(-0.156434465,-0.987688341,0.000000000));
#897 = DIRECTION('',(-0.987688341,0.156434465,0.000000000));
#898 = AXIS2_PLACEMENT_3D('',#810,#896,#897);
#899 = PLANE('',#898);
#900 = FACE_SURFACE('',(#895),#899,.T.);
#901 = POLY_LOOP('',(#811,#812,#832,#831));
#902 = FACE_OUTER_BOUND('',#901,.T.);
#903 = DIRECTION('',(-0.453990500,-0.891006524,0.000000000));
#904 = DIRECTION('',(-0.891006524,0.453990500,0.000000000));
#905 = AXIS2_PLACEMENT_3D('',#811,#903,#904);
#906 = PLANE('',#905);
#907 = FACE_SURFACE('',(#902),#906,.T.);
#908 = POLY_LOOP('',(#812,#813,#833,#832));
#909 = FACE_OUTER_BOUND('',#908,.T.);
#910 = DIRECTION('',(-0.707106781,-0.707106781,0.000000000));
#911 = DIRECTION('',(-0.707106781,0.707106781,0.000000000));
#912 = AXIS2_PLACEMENT_3D('',#812,#910,#911);
#913 = PLANE('',#912);
#914 = FACE_SURFACE('',(#909),#913,.T.);
#915 = POLY_LOOP('',(#813,#814,#834,#833));
#916 = FACE_OUTER_BOUND('',#915,.T.);
#917 = DIRECTION('',(-0.891006524,-0.453990500,0.000000000));
#918 = DIRECTION('',(-0.453990500,0.891006524,0.000000000));
#919 = AXIS2_PLACEMENT_3D('',#813,#917,#918);
#920 = PLANE('',#919);
#921 = FACE_SURFACE('',(#916),#920,.T.);
#922 = POLY_LOOP('',(#814,#815,#835,#834));
#923 = FACE_OUTER_BOUND('',#922,.T.);
#924 = DIRECTION('',(-0.987688341,-0.156434465,0.000000000));
#925 = DIRECTION('',(-0.156434465,0.987688341,0.000000000));
#926 = AXIS2_PLACEMENT_3D('',#814,#924,#925);
#927 = PLANE('',#926);
#928 = FACE_SURFACE('',(#923),#927,.T.);
#929 = POLY_LOOP('',(#815,#816,#836,#835));
#930 = FACE_OUTER_BOUND('',#929,.T.);
#931 = DIRECTION('',(-0.987688341,0.156434465,0.000000000));
#932 = DIRECTION('',(0.156434465,0.987688341,0.000000000));
#933 = AXIS2_PLACEMENT_3D('',#815,#931,#932);
#934 = PLANE('',#933);
#935 = FACE_SURFACE('',(#930),#934,.T.);
#936 = POLY_LOOP('',(#816,#817,#837,#836));
#937 = FACE_OUTER_BOUND('',#936,.T.);
#938 = DIRECTION('',(-0.891006524,0.453990500,0.000000000));
#939 = DIRECTION('',(0.453990500,0.891006524,0.000000000));
#940 = AXIS2_PLACEMENT_3D('',#816,#938,#939);
#941 = PLANE('',#940);
#942 = FACE_SURFACE('',(#937),#941,.T.);
#943 = POLY_LOOP('',(#817,#818,#838,#837));
#944 = FACE_OUTER_BOUND('',#943,.T.);
#945 = DIRECTION('',(-0.707106781,0.707106781,0.000000000));
#946 = DIRECTION('',(0.707106781,0.707106781,0.000000000));
#947 = AXIS2_PLACEMENT_3D('',#817,#945,#946);
#948 = PLANE('',#947);
#949 = FACE_SURFACE('',(#944),#948,.T.);
#950 = POLY_LOOP('',(#818,#819,#839,#838));
#951 = FACE_OUTER_BOUND('',#950,.T.);
#952 = DIRECTION('',(-0.453990500,0.891006524,0.000000000));
#953 = DIRECTION('',(0.891006524,0.453990500,0.000000000));
#954 = AXIS2_PLACEMENT_3D('',#818,#952,#953);
#955 = PLANE('',#954);
#956 = FACE_SURFACE('',(#951),#955,.T.);
#957 = POLY_LOOP('',(#819,#820,#840,#839));
#958 = FACE_OUTER_BOUND('',#957,.T.);
#959 = DIRECTION('',(-0.156434465,0.987688341,0.000000000));
#960 = DIRECTION('',(0.987688341,0.156434465,0.000000000));
#961 = AXIS2_PLACEMENT_3D('',#819,#959,#960);
#962 = PLANE('',#961);
#963 = FACE_SURFACE('',(#958),#962,.T.);
#964 = POLY_LOOP('',(#820,#821,#841,#840));
#965 = FACE_OUTER_BOUND('',#964,.T.);
#966 = DIRECTION('',(0.156434465,0.987688341,0.000000000));
#967 = DIRECTION('',(0.987688341,-0.156434465,0.000000000));
#968 = AXIS2_PLACEMENT_3D('',#820,#966,#967);
#969 = PLANE('',#968);
#970 = FACE_SURFACE('',(#965),#969,.T.);
#971 = POLY_LOOP('',(#821,#822,#842,#841));
#972 = FACE_OUTER_BOUND('',#971,.T.);
#973 = DIRECTION('',(0.453990500,0.891006524,0.000000000));
#974 = DIRECTION('',(0.891006524,-0.453990500,0.000000000));
#975 = AXIS2_PLACEMENT_3D('',#821,#973,#974);
#976 = PLANE('',#975);
#977 = FACE_SURFACE('',(#972),#976,.T.);
#978 = POLY_LOOP('',(#822,#823,#843,#842));
#979 = FACE_OUTER_BOUND('',#978,.T.);
#980 = DIRECTION('',(0.707106781,0.707106781,0.000000000));
#981 = DIRECTION('',(0.707106781,-0.707106781,0.000000000));
#982 = AXIS2_PLACEMENT_3D('',#822,#980,#981);
#983 = PLANE('',#982);
#984 = FACE_SURFACE('',(#979),#983,.T.);
#985 = POLY_LOOP('',(#823,#824,#844,#843));
#986 = FACE_OUTER_BOUND('',#985,.T.);
#987 = DIRECTION('',(0.891006524,0.453990500,0.000000000));
#988 = DIRECTION('',(0.453990500,-0.891006524,0.000000000));
#989 = AXIS2_PLACEMENT_3D('',#823,#987,#988);
#990 = PLANE('',#989);
#991 = FACE_SURFACE('',(#986),#990,.T.);
#992 = POLY_LOOP('',(#824,#805,#825,#844));
#993 = FACE_OUTER_BOUND('',#992,.T.);
#994 = DIRECTION('',(0.987688341,0.156434465,0.000000000));
#995 = DIRECTION('',(0.156434465,-0.987688341,0.000000000));
#996 = AXIS2_PLACEMENT_3D('',#824,#994,#995);
#997 = PLANE('',#996);
#998 = FACE_SURFACE('',(#993),#997,.T.);
#999 = CLOSED_SHELL('',(#851,#858,#865,#872,#879,#886,#893,#900,#907,#914,#921,#928,#935,#942,#949,#956,#963,#970,#977,#984,#991,#998));
#1000 = FACETED_BREP('silver FC coupling sleeve',#999);
#1001 = CARTESIAN_POINT('',(3.000000000,28.000000000,-52.000000000));
#1002 = CARTESIAN_POINT('',(2.853169549,27.072949017,-52.000000000));
#1003 = CARTESIAN_POINT('',(2.427050983,26.236644243,-52.000000000));
#1004 = CARTESIAN_POINT('',(1.763355757,25.572949017,-52.000000000));
#1005 = CARTESIAN_POINT('',(0.927050983,25.146830451,-52.000000000));
#1006 = CARTESIAN_POINT('',(0.000000000,25.000000000,-52.000000000));
#1007 = CARTESIAN_POINT('',(-0.927050983,25.146830451,-52.000000000));
#1008 = CARTESIAN_POINT('',(-1.763355757,25.572949017,-52.000000000));
#1009 = CARTESIAN_POINT('',(-2.427050983,26.236644243,-52.000000000));
#1010 = CARTESIAN_POINT('',(-2.853169549,27.072949017,-52.000000000));
#1011 = CARTESIAN_POINT('',(-3.000000000,28.000000000,-52.000000000));
#1012 = CARTESIAN_POINT('',(-2.853169549,28.927050983,-52.000000000));
#1013 = CARTESIAN_POINT('',(-2.427050983,29.763355757,-52.000000000));
#1014 = CARTESIAN_POINT('',(-1.763355757,30.427050983,-52.000000000));
#1015 = CARTESIAN_POINT('',(-0.927050983,30.853169549,-52.000000000));
#1016 = CARTESIAN_POINT('',(-0.000000000,31.000000000,-52.000000000));
#1017 = CARTESIAN_POINT('',(0.927050983,30.853169549,-52.000000000));
#1018 = CARTESIAN_POINT('',(1.763355757,30.427050983,-52.000000000));
#1019 = CARTESIAN_POINT('',(2.427050983,29.763355757,-52.000000000));
#1020 = CARTESIAN_POINT('',(2.853169549,28.927050983,-52.000000000));
#1021 = CARTESIAN_POINT('',(3.000000000,28.000000000,-53.000000000));
#1022 = CARTESIAN_POINT('',(2.853169549,27.072949017,-53.000000000));
#1023 = CARTESIAN_POINT('',(2.427050983,26.236644243,-53.000000000));
#1024 = CARTESIAN_POINT('',(1.763355757,25.572949017,-53.000000000));
#1025 = CARTESIAN_POINT('',(0.927050983,25.146830451,-53.000000000));
#1026 = CARTESIAN_POINT('',(0.000000000,25.000000000,-53.000000000));
#1027 = CARTESIAN_POINT('',(-0.927050983,25.146830451,-53.000000000));
#1028 = CARTESIAN_POINT('',(-1.763355757,25.572949017,-53.000000000));
#1029 = CARTESIAN_POINT('',(-2.427050983,26.236644243,-53.000000000));
#1030 = CARTESIAN_POINT('',(-2.853169549,27.072949017,-53.000000000));
#1031 = CARTESIAN_POINT('',(-3.000000000,28.000000000,-53.000000000));
#1032 = CARTESIAN_POINT('',(-2.853169549,28.927050983,-53.000000000));
#1033 = CARTESIAN_POINT('',(-2.427050983,29.763355757,-53.000000000));
#1034 = CARTESIAN_POINT('',(-1.763355757,30.427050983,-53.000000000));
#1035 = CARTESIAN_POINT('',(-0.927050983,30.853169549,-53.000000000));
#1036 = CARTESIAN_POINT('',(-0.000000000,31.000000000,-53.000000000));
#1037 = CARTESIAN_POINT('',(0.927050983,30.853169549,-53.000000000));
#1038 = CARTESIAN_POINT('',(1.763355757,30.427050983,-53.000000000));
#1039 = CARTESIAN_POINT('',(2.427050983,29.763355757,-53.000000000));
#1040 = CARTESIAN_POINT('',(2.853169549,28.927050983,-53.000000000));
#1041 = POLY_LOOP('',(#1020,#1019,#1018,#1017,#1016,#1015,#1014,#1013,#1012,#1011,#1010,#1009,#1008,#1007,#1006,#1005,#1004,#1003,#1002,#1001));
#1042 = FACE_OUTER_BOUND('',#1041,.T.);
#1043 = DIRECTION('',(0.000000000,0.000000000,1.000000000));
#1044 = DIRECTION('',(-0.453990500,0.891006524,0.000000000));
#1045 = AXIS2_PLACEMENT_3D('',#1020,#1043,#1044);
#1046 = PLANE('',#1045);
#1047 = FACE_SURFACE('',(#1042),#1046,.T.);
#1048 = POLY_LOOP('',(#1021,#1022,#1023,#1024,#1025,#1026,#1027,#1028,#1029,#1030,#1031,#1032,#1033,#1034,#1035,#1036,#1037,#1038,#1039,#1040));
#1049 = FACE_OUTER_BOUND('',#1048,.T.);
#1050 = DIRECTION('',(0.000000000,0.000000000,-1.000000000));
#1051 = DIRECTION('',(-0.156434465,-0.987688341,0.000000000));
#1052 = AXIS2_PLACEMENT_3D('',#1021,#1050,#1051);
#1053 = PLANE('',#1052);
#1054 = FACE_SURFACE('',(#1049),#1053,.T.);
#1055 = POLY_LOOP('',(#1001,#1002,#1022,#1021));
#1056 = FACE_OUTER_BOUND('',#1055,.T.);
#1057 = DIRECTION('',(0.987688341,-0.156434465,0.000000000));
#1058 = DIRECTION('',(-0.156434465,-0.987688341,0.000000000));
#1059 = AXIS2_PLACEMENT_3D('',#1001,#1057,#1058);
#1060 = PLANE('',#1059);
#1061 = FACE_SURFACE('',(#1056),#1060,.T.);
#1062 = POLY_LOOP('',(#1002,#1003,#1023,#1022));
#1063 = FACE_OUTER_BOUND('',#1062,.T.);
#1064 = DIRECTION('',(0.891006524,-0.453990500,0.000000000));
#1065 = DIRECTION('',(-0.453990500,-0.891006524,0.000000000));
#1066 = AXIS2_PLACEMENT_3D('',#1002,#1064,#1065);
#1067 = PLANE('',#1066);
#1068 = FACE_SURFACE('',(#1063),#1067,.T.);
#1069 = POLY_LOOP('',(#1003,#1004,#1024,#1023));
#1070 = FACE_OUTER_BOUND('',#1069,.T.);
#1071 = DIRECTION('',(0.707106781,-0.707106781,0.000000000));
#1072 = DIRECTION('',(-0.707106781,-0.707106781,0.000000000));
#1073 = AXIS2_PLACEMENT_3D('',#1003,#1071,#1072);
#1074 = PLANE('',#1073);
#1075 = FACE_SURFACE('',(#1070),#1074,.T.);
#1076 = POLY_LOOP('',(#1004,#1005,#1025,#1024));
#1077 = FACE_OUTER_BOUND('',#1076,.T.);
#1078 = DIRECTION('',(0.453990500,-0.891006524,0.000000000));
#1079 = DIRECTION('',(-0.891006524,-0.453990500,0.000000000));
#1080 = AXIS2_PLACEMENT_3D('',#1004,#1078,#1079);
#1081 = PLANE('',#1080);
#1082 = FACE_SURFACE('',(#1077),#1081,.T.);
#1083 = POLY_LOOP('',(#1005,#1006,#1026,#1025));
#1084 = FACE_OUTER_BOUND('',#1083,.T.);
#1085 = DIRECTION('',(0.156434465,-0.987688341,0.000000000));
#1086 = DIRECTION('',(-0.987688341,-0.156434465,0.000000000));
#1087 = AXIS2_PLACEMENT_3D('',#1005,#1085,#1086);
#1088 = PLANE('',#1087);
#1089 = FACE_SURFACE('',(#1084),#1088,.T.);
#1090 = POLY_LOOP('',(#1006,#1007,#1027,#1026));
#1091 = FACE_OUTER_BOUND('',#1090,.T.);
#1092 = DIRECTION('',(-0.156434465,-0.987688341,0.000000000));
#1093 = DIRECTION('',(-0.987688341,0.156434465,0.000000000));
#1094 = AXIS2_PLACEMENT_3D('',#1006,#1092,#1093);
#1095 = PLANE('',#1094);
#1096 = FACE_SURFACE('',(#1091),#1095,.T.);
#1097 = POLY_LOOP('',(#1007,#1008,#1028,#1027));
#1098 = FACE_OUTER_BOUND('',#1097,.T.);
#1099 = DIRECTION('',(-0.453990500,-0.891006524,0.000000000));
#1100 = DIRECTION('',(-0.891006524,0.453990500,0.000000000));
#1101 = AXIS2_PLACEMENT_3D('',#1007,#1099,#1100);
#1102 = PLANE('',#1101);
#1103 = FACE_SURFACE('',(#1098),#1102,.T.);
#1104 = POLY_LOOP('',(#1008,#1009,#1029,#1028));
#1105 = FACE_OUTER_BOUND('',#1104,.T.);
#1106 = DIRECTION('',(-0.707106781,-0.707106781,0.000000000));
#1107 = DIRECTION('',(-0.707106781,0.707106781,0.000000000));
#1108 = AXIS2_PLACEMENT_3D('',#1008,#1106,#1107);
#1109 = PLANE('',#1108);
#1110 = FACE_SURFACE('',(#1105),#1109,.T.);
#1111 = POLY_LOOP('',(#1009,#1010,#1030,#1029));
#1112 = FACE_OUTER_BOUND('',#1111,.T.);
#1113 = DIRECTION('',(-0.891006524,-0.453990500,0.000000000));
#1114 = DIRECTION('',(-0.453990500,0.891006524,0.000000000));
#1115 = AXIS2_PLACEMENT_3D('',#1009,#1113,#1114);
#1116 = PLANE('',#1115);
#1117 = FACE_SURFACE('',(#1112),#1116,.T.);
#1118 = POLY_LOOP('',(#1010,#1011,#1031,#1030));
#1119 = FACE_OUTER_BOUND('',#1118,.T.);
#1120 = DIRECTION('',(-0.987688341,-0.156434465,0.000000000));
#1121 = DIRECTION('',(-0.156434465,0.987688341,0.000000000));
#1122 = AXIS2_PLACEMENT_3D('',#1010,#1120,#1121);
#1123 = PLANE('',#1122);
#1124 = FACE_SURFACE('',(#1119),#1123,.T.);
#1125 = POLY_LOOP('',(#1011,#1012,#1032,#1031));
#1126 = FACE_OUTER_BOUND('',#1125,.T.);
#1127 = DIRECTION('',(-0.987688341,0.156434465,0.000000000));
#1128 = DIRECTION('',(0.156434465,0.987688341,0.000000000));
#1129 = AXIS2_PLACEMENT_3D('',#1011,#1127,#1128);
#1130 = PLANE('',#1129);
#1131 = FACE_SURFACE('',(#1126),#1130,.T.);
#1132 = POLY_LOOP('',(#1012,#1013,#1033,#1032));
#1133 = FACE_OUTER_BOUND('',#1132,.T.);
#1134 = DIRECTION('',(-0.891006524,0.453990500,0.000000000));
#1135 = DIRECTION('',(0.453990500,0.891006524,0.000000000));
#1136 = AXIS2_PLACEMENT_3D('',#1012,#1134,#1135);
#1137 = PLANE('',#1136);
#1138 = FACE_SURFACE('',(#1133),#1137,.T.);
#1139 = POLY_LOOP('',(#1013,#1014,#1034,#1033));
#1140 = FACE_OUTER_BOUND('',#1139,.T.);
#1141 = DIRECTION('',(-0.707106781,0.707106781,0.000000000));
#1142 = DIRECTION('',(0.707106781,0.707106781,0.000000000));
#1143 = AXIS2_PLACEMENT_3D('',#1013,#1141,#1142);
#1144 = PLANE('',#1143);
#1145 = FACE_SURFACE('',(#1140),#1144,.T.);
#1146 = POLY_LOOP('',(#1014,#1015,#1035,#1034));
#1147 = FACE_OUTER_BOUND('',#1146,.T.);
#1148 = DIRECTION('',(-0.453990500,0.891006524,0.000000000));
#1149 = DIRECTION('',(0.891006524,0.453990500,0.000000000));
#1150 = AXIS2_PLACEMENT_3D('',#1014,#1148,#1149);
#1151 = PLANE('',#1150);
#1152 = FACE_SURFACE('',(#1147),#1151,.T.);
#1153 = POLY_LOOP('',(#1015,#1016,#1036,#1035));
#1154 = FACE_OUTER_BOUND('',#1153,.T.);
#1155 = DIRECTION('',(-0.156434465,0.987688341,0.000000000));
#1156 = DIRECTION('',(0.987688341,0.156434465,0.000000000));
#1157 = AXIS2_PLACEMENT_3D('',#1015,#1155,#1156);
#1158 = PLANE('',#1157);
#1159 = FACE_SURFACE('',(#1154),#1158,.T.);
#1160 = POLY_LOOP('',(#1016,#1017,#1037,#1036));
#1161 = FACE_OUTER_BOUND('',#1160,.T.);
#1162 = DIRECTION('',(0.156434465,0.987688341,0.000000000));
#1163 = DIRECTION('',(0.987688341,-0.156434465,0.000000000));
#1164 = AXIS2_PLACEMENT_3D('',#1016,#1162,#1163);
#1165 = PLANE('',#1164);
#1166 = FACE_SURFACE('',(#1161),#1165,.T.);
#1167 = POLY_LOOP('',(#1017,#1018,#1038,#1037));
#1168 = FACE_OUTER_BOUND('',#1167,.T.);
#1169 = DIRECTION('',(0.453990500,0.891006524,0.000000000));
#1170 = DIRECTION('',(0.891006524,-0.453990500,0.000000000));
#1171 = AXIS2_PLACEMENT_3D('',#1017,#1169,#1170);
#1172 = PLANE('',#1171);
#1173 = FACE_SURFACE('',(#1168),#1172,.T.);
#1174 = POLY_LOOP('',(#1018,#1019,#1039,#1038));
#1175 = FACE_OUTER_BOUND('',#1174,.T.);
#1176 = DIRECTION('',(0.707106781,0.707106781,0.000000000));
#1177 = DIRECTION('',(0.707106781,-0.707106781,0.000000000));
#1178 = AXIS2_PLACEMENT_3D('',#1018,#1176,#1177);
#1179 = PLANE('',#1178);
#1180 = FACE_SURFACE('',(#1175),#1179,.T.);
#1181 = POLY_LOOP('',(#1019,#1020,#1040,#1039));
#1182 = FACE_OUTER_BOUND('',#1181,.T.);
#1183 = DIRECTION('',(0.891006524,0.453990500,0.000000000));
#1184 = DIRECTION('',(0.453990500,-0.891006524,0.000000000));
#1185 = AXIS2_PLACEMENT_3D('',#1019,#1183,#1184);
#1186 = PLANE('',#1185);
#1187 = FACE_SURFACE('',(#1182),#1186,.T.);
#1188 = POLY_LOOP('',(#1020,#1001,#1021,#1040));
#1189 = FACE_OUTER_BOUND('',#1188,.T.);
#1190 = DIRECTION('',(0.987688341,0.156434465,0.000000000));
#1191 = DIRECTION('',(0.156434465,-0.987688341,0.000000000));
#1192 = AXIS2_PLACEMENT_3D('',#1020,#1190,#1191);
#1193 = PLANE('',#1192);
#1194 = FACE_SURFACE('',(#1189),#1193,.T.);
#1195 = CLOSED_SHELL('',(#1047,#1054,#1061,#1068,#1075,#1082,#1089,#1096,#1103,#1110,#1117,#1124,#1131,#1138,#1145,#1152,#1159,#1166,#1173,#1180,#1187,#1194));
#1196 = FACETED_BREP('black optical aperture',#1195);
#1197 = CARTESIAN_POINT('',(-19.000000000,0.000000000,-15.000000000));
#1198 = CARTESIAN_POINT('',(19.000000000,0.000000000,-15.000000000));
#1199 = CARTESIAN_POINT('',(19.000000000,6.000000000,-15.000000000));
#1200 = CARTESIAN_POINT('',(-19.000000000,6.000000000,-15.000000000));
#1201 = CARTESIAN_POINT('',(-19.000000000,0.000000000,15.000000000));
#1202 = CARTESIAN_POINT('',(19.000000000,0.000000000,15.000000000));
#1203 = CARTESIAN_POINT('',(19.000000000,6.000000000,15.000000000));
#1204 = CARTESIAN_POINT('',(-19.000000000,6.000000000,15.000000000));
#1205 = POLY_LOOP('',(#1197,#1200,#1199,#1198));
#1206 = FACE_OUTER_BOUND('',#1205,.T.);
#1207 = DIRECTION('',(0.000000000,0.000000000,-1.000000000));
#1208 = DIRECTION('',(0.000000000,1.000000000,0.000000000));
#1209 = AXIS2_PLACEMENT_3D('',#1197,#1207,#1208);
#1210 = PLANE('',#1209);
#1211 = FACE_SURFACE('',(#1206),#1210,.T.);
#1212 = POLY_LOOP('',(#1201,#1202,#1203,#1204));
#1213 = FACE_OUTER_BOUND('',#1212,.T.);
#1214 = DIRECTION('',(0.000000000,0.000000000,1.000000000));
#1215 = DIRECTION('',(1.000000000,0.000000000,0.000000000));
#1216 = AXIS2_PLACEMENT_3D('',#1201,#1214,#1215);
#1217 = PLANE('',#1216);
#1218 = FACE_SURFACE('',(#1213),#1217,.T.);
#1219 = POLY_LOOP('',(#1197,#1198,#1202,#1201));
#1220 = FACE_OUTER_BOUND('',#1219,.T.);
#1221 = DIRECTION('',(0.000000000,-1.000000000,0.000000000));
#1222 = DIRECTION('',(1.000000000,0.000000000,0.000000000));
#1223 = AXIS2_PLACEMENT_3D('',#1197,#1221,#1222);
#1224 = PLANE('',#1223);
#1225 = FACE_SURFACE('',(#1220),#1224,.T.);
#1226 = POLY_LOOP('',(#1198,#1199,#1203,#1202));
#1227 = FACE_OUTER_BOUND('',#1226,.T.);
#1228 = DIRECTION('',(1.000000000,0.000000000,0.000000000));
#1229 = DIRECTION('',(0.000000000,1.000000000,0.000000000));
#1230 = AXIS2_PLACEMENT_3D('',#1198,#1228,#1229);
#1231 = PLANE('',#1230);
#1232 = FACE_SURFACE('',(#1227),#1231,.T.);
#1233 = POLY_LOOP('',(#1199,#1200,#1204,#1203));
#1234 = FACE_OUTER_BOUND('',#1233,.T.);
#1235 = DIRECTION('',(0.000000000,1.000000000,0.000000000));
#1236 = DIRECTION('',(-1.000000000,0.000000000,0.000000000));
#1237 = AXIS2_PLACEMENT_3D('',#1199,#1235,#1236);
#1238 = PLANE('',#1237);
#1239 = FACE_SURFACE('',(#1234),#1238,.T.);
#1240 = POLY_LOOP('',(#1200,#1197,#1201,#1204));
#1241 = FACE_OUTER_BOUND('',#1240,.T.);
#1242 = DIRECTION('',(-1.000000000,0.000000000,0.000000000));
#1243 = DIRECTION('',(0.000000000,-1.000000000,0.000000000));
#1244 = AXIS2_PLACEMENT_3D('',#1200,#1242,#1243);
#1245 = PLANE('',#1244);
#1246 = FACE_SURFACE('',(#1241),#1245,.T.);
#1247 = CLOSED_SHELL('',(#1211,#1218,#1225,#1232,#1239,#1246));
#1248 = FACETED_BREP('black head support',#1247);
#1249 = CARTESIAN_POINT('',(-5.000000000,28.000000000,22.000000000));
#1250 = CARTESIAN_POINT('',(-4.755282581,26.454915028,22.000000000));
#1251 = CARTESIAN_POINT('',(-4.045084972,25.061073739,22.000000000));
#1252 = CARTESIAN_POINT('',(-2.938926261,23.954915028,22.000000000));
#1253 = CARTESIAN_POINT('',(-1.545084972,23.244717419,22.000000000));
#1254 = CARTESIAN_POINT('',(-0.000000000,23.000000000,22.000000000));
#1255 = CARTESIAN_POINT('',(1.545084972,23.244717419,22.000000000));
#1256 = CARTESIAN_POINT('',(2.938926261,23.954915028,22.000000000));
#1257 = CARTESIAN_POINT('',(4.045084972,25.061073739,22.000000000));
#1258 = CARTESIAN_POINT('',(4.755282581,26.454915028,22.000000000));
#1259 = CARTESIAN_POINT('',(5.000000000,28.000000000,22.000000000));
#1260 = CARTESIAN_POINT('',(4.755282581,29.545084972,22.000000000));
#1261 = CARTESIAN_POINT('',(4.045084972,30.938926261,22.000000000));
#1262 = CARTESIAN_POINT('',(2.938926261,32.045084972,22.000000000));
#1263 = CARTESIAN_POINT('',(1.545084972,32.755282581,22.000000000));
#1264 = CARTESIAN_POINT('',(0.000000000,33.000000000,22.000000000));
#1265 = CARTESIAN_POINT('',(-1.545084972,32.755282581,22.000000000));
#1266 = CARTESIAN_POINT('',(-2.938926261,32.045084972,22.000000000));
#1267 = CARTESIAN_POINT('',(-4.045084972,30.938926261,22.000000000));
#1268 = CARTESIAN_POINT('',(-4.755282581,29.545084972,22.000000000));
#1269 = CARTESIAN_POINT('',(-5.000000000,28.000000000,38.000000000));
#1270 = CARTESIAN_POINT('',(-4.755282581,26.454915028,38.000000000));
#1271 = CARTESIAN_POINT('',(-4.045084972,25.061073739,38.000000000));
#1272 = CARTESIAN_POINT('',(-2.938926261,23.954915028,38.000000000));
#1273 = CARTESIAN_POINT('',(-1.545084972,23.244717419,38.000000000));
#1274 = CARTESIAN_POINT('',(-0.000000000,23.000000000,38.000000000));
#1275 = CARTESIAN_POINT('',(1.545084972,23.244717419,38.000000000));
#1276 = CARTESIAN_POINT('',(2.938926261,23.954915028,38.000000000));
#1277 = CARTESIAN_POINT('',(4.045084972,25.061073739,38.000000000));
#1278 = CARTESIAN_POINT('',(4.755282581,26.454915028,38.000000000));
#1279 = CARTESIAN_POINT('',(5.000000000,28.000000000,38.000000000));
#1280 = CARTESIAN_POINT('',(4.755282581,29.545084972,38.000000000));
#1281 = CARTESIAN_POINT('',(4.045084972,30.938926261,38.000000000));
#1282 = CARTESIAN_POINT('',(2.938926261,32.045084972,38.000000000));
#1283 = CARTESIAN_POINT('',(1.545084972,32.755282581,38.000000000));
#1284 = CARTESIAN_POINT('',(0.000000000,33.000000000,38.000000000));
#1285 = CARTESIAN_POINT('',(-1.545084972,32.755282581,38.000000000));
#1286 = CARTESIAN_POINT('',(-2.938926261,32.045084972,38.000000000));
#1287 = CARTESIAN_POINT('',(-4.045084972,30.938926261,38.000000000));
#1288 = CARTESIAN_POINT('',(-4.755282581,29.545084972,38.000000000));
#1289 = POLY_LOOP('',(#1268,#1267,#1266,#1265,#1264,#1263,#1262,#1261,#1260,#1259,#1258,#1257,#1256,#1255,#1254,#1253,#1252,#1251,#1250,#1249));
#1290 = FACE_OUTER_BOUND('',#1289,.T.);
#1291 = DIRECTION('',(0.000000000,0.000000000,-1.000000000));
#1292 = DIRECTION('',(0.453990500,0.891006524,0.000000000));
#1293 = AXIS2_PLACEMENT_3D('',#1268,#1291,#1292);
#1294 = PLANE('',#1293);
#1295 = FACE_SURFACE('',(#1290),#1294,.T.);
#1296 = POLY_LOOP('',(#1269,#1270,#1271,#1272,#1273,#1274,#1275,#1276,#1277,#1278,#1279,#1280,#1281,#1282,#1283,#1284,#1285,#1286,#1287,#1288));
#1297 = FACE_OUTER_BOUND('',#1296,.T.);
#1298 = DIRECTION('',(0.000000000,0.000000000,1.000000000));
#1299 = DIRECTION('',(0.156434465,-0.987688341,0.000000000));
#1300 = AXIS2_PLACEMENT_3D('',#1269,#1298,#1299);
#1301 = PLANE('',#1300);
#1302 = FACE_SURFACE('',(#1297),#1301,.T.);
#1303 = POLY_LOOP('',(#1249,#1250,#1270,#1269));
#1304 = FACE_OUTER_BOUND('',#1303,.T.);
#1305 = DIRECTION('',(-0.987688341,-0.156434465,0.000000000));
#1306 = DIRECTION('',(0.156434465,-0.987688341,0.000000000));
#1307 = AXIS2_PLACEMENT_3D('',#1249,#1305,#1306);
#1308 = PLANE('',#1307);
#1309 = FACE_SURFACE('',(#1304),#1308,.T.);
#1310 = POLY_LOOP('',(#1250,#1251,#1271,#1270));
#1311 = FACE_OUTER_BOUND('',#1310,.T.);
#1312 = DIRECTION('',(-0.891006524,-0.453990500,0.000000000));
#1313 = DIRECTION('',(0.453990500,-0.891006524,0.000000000));
#1314 = AXIS2_PLACEMENT_3D('',#1250,#1312,#1313);
#1315 = PLANE('',#1314);
#1316 = FACE_SURFACE('',(#1311),#1315,.T.);
#1317 = POLY_LOOP('',(#1251,#1252,#1272,#1271));
#1318 = FACE_OUTER_BOUND('',#1317,.T.);
#1319 = DIRECTION('',(-0.707106781,-0.707106781,0.000000000));
#1320 = DIRECTION('',(0.707106781,-0.707106781,0.000000000));
#1321 = AXIS2_PLACEMENT_3D('',#1251,#1319,#1320);
#1322 = PLANE('',#1321);
#1323 = FACE_SURFACE('',(#1318),#1322,.T.);
#1324 = POLY_LOOP('',(#1252,#1253,#1273,#1272));
#1325 = FACE_OUTER_BOUND('',#1324,.T.);
#1326 = DIRECTION('',(-0.453990500,-0.891006524,0.000000000));
#1327 = DIRECTION('',(0.891006524,-0.453990500,0.000000000));
#1328 = AXIS2_PLACEMENT_3D('',#1252,#1326,#1327);
#1329 = PLANE('',#1328);
#1330 = FACE_SURFACE('',(#1325),#1329,.T.);
#1331 = POLY_LOOP('',(#1253,#1254,#1274,#1273));
#1332 = FACE_OUTER_BOUND('',#1331,.T.);
#1333 = DIRECTION('',(-0.156434465,-0.987688341,0.000000000));
#1334 = DIRECTION('',(0.987688341,-0.156434465,0.000000000));
#1335 = AXIS2_PLACEMENT_3D('',#1253,#1333,#1334);
#1336 = PLANE('',#1335);
#1337 = FACE_SURFACE('',(#1332),#1336,.T.);
#1338 = POLY_LOOP('',(#1254,#1255,#1275,#1274));
#1339 = FACE_OUTER_BOUND('',#1338,.T.);
#1340 = DIRECTION('',(0.156434465,-0.987688341,0.000000000));
#1341 = DIRECTION('',(0.987688341,0.156434465,0.000000000));
#1342 = AXIS2_PLACEMENT_3D('',#1254,#1340,#1341);
#1343 = PLANE('',#1342);
#1344 = FACE_SURFACE('',(#1339),#1343,.T.);
#1345 = POLY_LOOP('',(#1255,#1256,#1276,#1275));
#1346 = FACE_OUTER_BOUND('',#1345,.T.);
#1347 = DIRECTION('',(0.453990500,-0.891006524,0.000000000));
#1348 = DIRECTION('',(0.891006524,0.453990500,0.000000000));
#1349 = AXIS2_PLACEMENT_3D('',#1255,#1347,#1348);
#1350 = PLANE('',#1349);
#1351 = FACE_SURFACE('',(#1346),#1350,.T.);
#1352 = POLY_LOOP('',(#1256,#1257,#1277,#1276));
#1353 = FACE_OUTER_BOUND('',#1352,.T.);
#1354 = DIRECTION('',(0.707106781,-0.707106781,0.000000000));
#1355 = DIRECTION('',(0.707106781,0.707106781,0.000000000));
#1356 = AXIS2_PLACEMENT_3D('',#1256,#1354,#1355);
#1357 = PLANE('',#1356);
#1358 = FACE_SURFACE('',(#1353),#1357,.T.);
#1359 = POLY_LOOP('',(#1257,#1258,#1278,#1277));
#1360 = FACE_OUTER_BOUND('',#1359,.T.);
#1361 = DIRECTION('',(0.891006524,-0.453990500,0.000000000));
#1362 = DIRECTION('',(0.453990500,0.891006524,0.000000000));
#1363 = AXIS2_PLACEMENT_3D('',#1257,#1361,#1362);
#1364 = PLANE('',#1363);
#1365 = FACE_SURFACE('',(#1360),#1364,.T.);
#1366 = POLY_LOOP('',(#1258,#1259,#1279,#1278));
#1367 = FACE_OUTER_BOUND('',#1366,.T.);
#1368 = DIRECTION('',(0.987688341,-0.156434465,0.000000000));
#1369 = DIRECTION('',(0.156434465,0.987688341,0.000000000));
#1370 = AXIS2_PLACEMENT_3D('',#1258,#1368,#1369);
#1371 = PLANE('',#1370);
#1372 = FACE_SURFACE('',(#1367),#1371,.T.);
#1373 = POLY_LOOP('',(#1259,#1260,#1280,#1279));
#1374 = FACE_OUTER_BOUND('',#1373,.T.);
#1375 = DIRECTION('',(0.987688341,0.156434465,0.000000000));
#1376 = DIRECTION('',(-0.156434465,0.987688341,0.000000000));
#1377 = AXIS2_PLACEMENT_3D('',#1259,#1375,#1376);
#1378 = PLANE('',#1377);
#1379 = FACE_SURFACE('',(#1374),#1378,.T.);
#1380 = POLY_LOOP('',(#1260,#1261,#1281,#1280));
#1381 = FACE_OUTER_BOUND('',#1380,.T.);
#1382 = DIRECTION('',(0.891006524,0.453990500,0.000000000));
#1383 = DIRECTION('',(-0.453990500,0.891006524,0.000000000));
#1384 = AXIS2_PLACEMENT_3D('',#1260,#1382,#1383);
#1385 = PLANE('',#1384);
#1386 = FACE_SURFACE('',(#1381),#1385,.T.);
#1387 = POLY_LOOP('',(#1261,#1262,#1282,#1281));
#1388 = FACE_OUTER_BOUND('',#1387,.T.);
#1389 = DIRECTION('',(0.707106781,0.707106781,0.000000000));
#1390 = DIRECTION('',(-0.707106781,0.707106781,0.000000000));
#1391 = AXIS2_PLACEMENT_3D('',#1261,#1389,#1390);
#1392 = PLANE('',#1391);
#1393 = FACE_SURFACE('',(#1388),#1392,.T.);
#1394 = POLY_LOOP('',(#1262,#1263,#1283,#1282));
#1395 = FACE_OUTER_BOUND('',#1394,.T.);
#1396 = DIRECTION('',(0.453990500,0.891006524,0.000000000));
#1397 = DIRECTION('',(-0.891006524,0.453990500,0.000000000));
#1398 = AXIS2_PLACEMENT_3D('',#1262,#1396,#1397);
#1399 = PLANE('',#1398);
#1400 = FACE_SURFACE('',(#1395),#1399,.T.);
#1401 = POLY_LOOP('',(#1263,#1264,#1284,#1283));
#1402 = FACE_OUTER_BOUND('',#1401,.T.);
#1403 = DIRECTION('',(0.156434465,0.987688341,0.000000000));
#1404 = DIRECTION('',(-0.987688341,0.156434465,0.000000000));
#1405 = AXIS2_PLACEMENT_3D('',#1263,#1403,#1404);
#1406 = PLANE('',#1405);
#1407 = FACE_SURFACE('',(#1402),#1406,.T.);
#1408 = POLY_LOOP('',(#1264,#1265,#1285,#1284));
#1409 = FACE_OUTER_BOUND('',#1408,.T.);
#1410 = DIRECTION('',(-0.156434465,0.987688341,0.000000000));
#1411 = DIRECTION('',(-0.987688341,-0.156434465,0.000000000));
#1412 = AXIS2_PLACEMENT_3D('',#1264,#1410,#1411);
#1413 = PLANE('',#1412);
#1414 = FACE_SURFACE('',(#1409),#1413,.T.);
#1415 = POLY_LOOP('',(#1265,#1266,#1286,#1285));
#1416 = FACE_OUTER_BOUND('',#1415,.T.);
#1417 = DIRECTION('',(-0.453990500,0.891006524,0.000000000));
#1418 = DIRECTION('',(-0.891006524,-0.453990500,0.000000000));
#1419 = AXIS2_PLACEMENT_3D('',#1265,#1417,#1418);
#1420 = PLANE('',#1419);
#1421 = FACE_SURFACE('',(#1416),#1420,.T.);
#1422 = POLY_LOOP('',(#1266,#1267,#1287,#1286));
#1423 = FACE_OUTER_BOUND('',#1422,.T.);
#1424 = DIRECTION('',(-0.707106781,0.707106781,0.000000000));
#1425 = DIRECTION('',(-0.707106781,-0.707106781,0.000000000));
#1426 = AXIS2_PLACEMENT_3D('',#1266,#1424,#1425);
#1427 = PLANE('',#1426);
#1428 = FACE_SURFACE('',(#1423),#1427,.T.);
#1429 = POLY_LOOP('',(#1267,#1268,#1288,#1287));
#1430 = FACE_OUTER_BOUND('',#1429,.T.);
#1431 = DIRECTION('',(-0.891006524,0.453990500,0.000000000));
#1432 = DIRECTION('',(-0.453990500,-0.891006524,0.000000000));
#1433 = AXIS2_PLACEMENT_3D('',#1267,#1431,#1432);
#1434 = PLANE('',#1433);
#1435 = FACE_SURFACE('',(#1430),#1434,.T.);
#1436 = POLY_LOOP('',(#1268,#1249,#1269,#1288));
#1437 = FACE_OUTER_BOUND('',#1436,.T.);
#1438 = DIRECTION('',(-0.987688341,0.156434465,0.000000000));
#1439 = DIRECTION('',(-0.156434465,-0.987688341,0.000000000));
#1440 = AXIS2_PLACEMENT_3D('',#1268,#1438,#1439);
#1441 = PLANE('',#1440);
#1442 = FACE_SURFACE('',(#1437),#1441,.T.);
#1443 = CLOSED_SHELL('',(#1295,#1302,#1309,#1316,#1323,#1330,#1337,#1344,#1351,#1358,#1365,#1372,#1379,#1386,#1393,#1400,#1407,#1414,#1421,#1428,#1435,#1442));
#1444 = FACETED_BREP('black electrical cable stub',#1443);
#1445 = APPLICATION_CONTEXT('configuration controlled 3d designs of mechanical parts and assemblies');
#1446 = APPLICATION_PROTOCOL_DEFINITION('international standard','config_control_design',1994,#1445);
#1447 = PRODUCT_CONTEXT('',#1445,'mechanical');
#1448 = PRODUCT('REF','Illustrative reference','NOT vendor CAD',(#1447));
#1449 = PRODUCT_DEFINITION_FORMATION_WITH_SPECIFIED_SOURCE('','',#1448,.NOT_KNOWN.);
#1450 = PRODUCT_DEFINITION_CONTEXT('part definition',#1445,'design');
#1451 = PRODUCT_DEFINITION('design','',#1449,#1450);
#1452 = PRODUCT_DEFINITION_SHAPE('','',#1451);
#1453 = (LENGTH_UNIT()NAMED_UNIT(*)SI_UNIT(.MILLI.,.METRE.));
#1454 = (NAMED_UNIT(*)PLANE_ANGLE_UNIT()SI_UNIT($,.RADIAN.));
#1455 = (NAMED_UNIT(*)SI_UNIT($,.STERADIAN.)SOLID_ANGLE_UNIT());
#1456 = UNCERTAINTY_MEASURE_WITH_UNIT(LENGTH_MEASURE(0.000001),#1453,'distance_accuracy_value','');
#1457 = (GEOMETRIC_REPRESENTATION_CONTEXT(3)GLOBAL_UNCERTAINTY_ASSIGNED_CONTEXT((#1456))GLOBAL_UNIT_ASSIGNED_CONTEXT((#1453,#1454,#1455))REPRESENTATION_CONTEXT('',''));
#1458 = FACETED_BREP_SHAPE_REPRESENTATION('Illustrative reference',(#304,#608,#804,#1000,#1196,#1248,#1444),#1457);
#1459 = SHAPE_DEFINITION_REPRESENTATION(#1452,#1458);
ENDSEC;
END-ISO-10303-21;
