ISO-10303-21;
HEADER;
/* Generated by software containing ST-Developer
 * from STEP Tools, Inc. (www.steptools.com) 
 */

FILE_DESCRIPTION(
/* description */ (''),
/* implementation_level */ '2;1');

FILE_NAME(
/* name */ 'C:\\Users\\Callum\\Desktop\\Fibre Arm.stp',
/* time_stamp */ '2020-11-10T22:08:36+01:00',
/* author */ ('Callum'),
/* organization */ (''),
/* preprocessor_version */ 'ST-DEVELOPER v18.1',
/* originating_system */ 'Autodesk Inventor 2021',
/* authorisation */ '');

FILE_SCHEMA (('AUTOMOTIVE_DESIGN { 1 0 10303 214 3 1 1 }'));
ENDSEC;

DATA;
#10=MECHANICAL_DESIGN_GEOMETRIC_PRESENTATION_REPRESENTATION('',(#13),#1499);
#11=SHAPE_REPRESENTATION_RELATIONSHIP('SRR','None',#1506,#12);
#12=ADVANCED_BREP_SHAPE_REPRESENTATION('',(#14),#1498);
#13=STYLED_ITEM('',(#1515),#14);
#14=MANIFOLD_SOLID_BREP('Solid1',#897);
#15=CONICAL_SURFACE('',#986,49.,0.785398163397442);
#16=CONICAL_SURFACE('',#989,49.,0.785398163397442);
#17=ELLIPSE('',#946,10.3077640640441,10.);
#18=ELLIPSE('',#948,10.3077640640441,10.);
#19=ELLIPSE('',#979,4.24264068711931,3.);
#20=ELLIPSE('',#980,4.24264068711931,3.);
#21=FACE_BOUND('',#109,.T.);
#22=FACE_BOUND('',#110,.T.);
#23=FACE_BOUND('',#111,.T.);
#24=FACE_BOUND('',#119,.T.);
#25=FACE_BOUND('',#120,.T.);
#26=FACE_BOUND('',#121,.T.);
#27=CIRCLE('',#921,5.00000000000001);
#28=CIRCLE('',#922,5.00000000000001);
#29=CIRCLE('',#924,49.);
#30=CIRCLE('',#925,3.);
#31=CIRCLE('',#926,40.);
#32=CIRCLE('',#927,1.025);
#33=CIRCLE('',#928,1.025);
#34=CIRCLE('',#929,3.);
#35=CIRCLE('',#930,3.);
#36=CIRCLE('',#938,3.);
#37=CIRCLE('',#939,49.);
#38=CIRCLE('',#940,40.);
#39=CIRCLE('',#941,1.025);
#40=CIRCLE('',#942,1.025);
#41=CIRCLE('',#943,3.);
#42=CIRCLE('',#944,3.);
#43=CIRCLE('',#953,50.);
#44=CIRCLE('',#954,50.);
#45=CIRCLE('',#955,50.);
#46=CIRCLE('',#956,50.);
#47=CIRCLE('',#957,50.);
#48=CIRCLE('',#958,50.);
#49=CIRCLE('',#960,3.);
#50=CIRCLE('',#963,3.);
#51=CYLINDRICAL_SURFACE('',#920,5.00000000000001);
#52=CYLINDRICAL_SURFACE('',#950,3.);
#53=CYLINDRICAL_SURFACE('',#951,40.);
#54=CYLINDRICAL_SURFACE('',#952,50.);
#55=CYLINDRICAL_SURFACE('',#965,10.);
#56=CYLINDRICAL_SURFACE('',#976,1.025);
#57=CYLINDRICAL_SURFACE('',#978,3.);
#58=FACE_OUTER_BOUND('',#104,.T.);
#59=FACE_OUTER_BOUND('',#105,.T.);
#60=FACE_OUTER_BOUND('',#106,.T.);
#61=FACE_OUTER_BOUND('',#107,.T.);
#62=FACE_OUTER_BOUND('',#108,.T.);
#63=FACE_OUTER_BOUND('',#112,.T.);
#64=FACE_OUTER_BOUND('',#113,.T.);
#65=FACE_OUTER_BOUND('',#114,.T.);
#66=FACE_OUTER_BOUND('',#115,.T.);
#67=FACE_OUTER_BOUND('',#116,.T.);
#68=FACE_OUTER_BOUND('',#117,.T.);
#69=FACE_OUTER_BOUND('',#118,.T.);
#70=FACE_OUTER_BOUND('',#122,.T.);
#71=FACE_OUTER_BOUND('',#123,.T.);
#72=FACE_OUTER_BOUND('',#124,.T.);
#73=FACE_OUTER_BOUND('',#125,.T.);
#74=FACE_OUTER_BOUND('',#126,.T.);
#75=FACE_OUTER_BOUND('',#127,.T.);
#76=FACE_OUTER_BOUND('',#128,.T.);
#77=FACE_OUTER_BOUND('',#129,.T.);
#78=FACE_OUTER_BOUND('',#130,.T.);
#79=FACE_OUTER_BOUND('',#131,.T.);
#80=FACE_OUTER_BOUND('',#132,.T.);
#81=FACE_OUTER_BOUND('',#133,.T.);
#82=FACE_OUTER_BOUND('',#134,.T.);
#83=FACE_OUTER_BOUND('',#135,.T.);
#84=FACE_OUTER_BOUND('',#136,.T.);
#85=FACE_OUTER_BOUND('',#137,.T.);
#86=FACE_OUTER_BOUND('',#138,.T.);
#87=FACE_OUTER_BOUND('',#139,.T.);
#88=FACE_OUTER_BOUND('',#140,.T.);
#89=FACE_OUTER_BOUND('',#141,.T.);
#90=FACE_OUTER_BOUND('',#142,.T.);
#91=FACE_OUTER_BOUND('',#143,.T.);
#92=FACE_OUTER_BOUND('',#144,.T.);
#93=FACE_OUTER_BOUND('',#145,.T.);
#94=FACE_OUTER_BOUND('',#146,.T.);
#95=FACE_OUTER_BOUND('',#147,.T.);
#96=FACE_OUTER_BOUND('',#148,.T.);
#97=FACE_OUTER_BOUND('',#149,.T.);
#98=FACE_OUTER_BOUND('',#150,.T.);
#99=FACE_OUTER_BOUND('',#151,.T.);
#100=FACE_OUTER_BOUND('',#152,.T.);
#101=FACE_OUTER_BOUND('',#153,.T.);
#102=FACE_OUTER_BOUND('',#154,.T.);
#103=FACE_OUTER_BOUND('',#155,.T.);
#104=EDGE_LOOP('',(#562,#563,#564,#565,#566));
#105=EDGE_LOOP('',(#567,#568,#569,#570));
#106=EDGE_LOOP('',(#571,#572,#573,#574));
#107=EDGE_LOOP('',(#575,#576,#577,#578));
#108=EDGE_LOOP('',(#579,#580,#581,#582,#583,#584,#585,#586,#587,#588,#589,
#590));
#109=EDGE_LOOP('',(#591,#592));
#110=EDGE_LOOP('',(#593,#594,#595,#596));
#111=EDGE_LOOP('',(#597,#598));
#112=EDGE_LOOP('',(#599,#600,#601,#602,#603));
#113=EDGE_LOOP('',(#604,#605,#606,#607));
#114=EDGE_LOOP('',(#608,#609,#610,#611));
#115=EDGE_LOOP('',(#612,#613,#614,#615));
#116=EDGE_LOOP('',(#616,#617,#618,#619));
#117=EDGE_LOOP('',(#620,#621,#622,#623));
#118=EDGE_LOOP('',(#624,#625,#626,#627,#628,#629,#630,#631,#632,#633,#634,
#635));
#119=EDGE_LOOP('',(#636,#637));
#120=EDGE_LOOP('',(#638,#639,#640,#641));
#121=EDGE_LOOP('',(#642,#643));
#122=EDGE_LOOP('',(#644,#645,#646,#647,#648,#649,#650));
#123=EDGE_LOOP('',(#651,#652,#653,#654,#655,#656,#657));
#124=EDGE_LOOP('',(#658,#659,#660,#661,#662,#663));
#125=EDGE_LOOP('',(#664,#665,#666,#667,#668,#669));
#126=EDGE_LOOP('',(#670,#671,#672,#673));
#127=EDGE_LOOP('',(#674,#675,#676,#677,#678,#679,#680,#681,#682,#683,#684,
#685));
#128=EDGE_LOOP('',(#686,#687,#688,#689,#690));
#129=EDGE_LOOP('',(#691,#692,#693,#694));
#130=EDGE_LOOP('',(#695,#696,#697,#698,#699));
#131=EDGE_LOOP('',(#700,#701,#702,#703));
#132=EDGE_LOOP('',(#704,#705,#706,#707));
#133=EDGE_LOOP('',(#708,#709,#710,#711));
#134=EDGE_LOOP('',(#712,#713,#714,#715));
#135=EDGE_LOOP('',(#716,#717,#718,#719));
#136=EDGE_LOOP('',(#720,#721,#722,#723));
#137=EDGE_LOOP('',(#724,#725,#726,#727));
#138=EDGE_LOOP('',(#728,#729,#730,#731));
#139=EDGE_LOOP('',(#732,#733,#734,#735));
#140=EDGE_LOOP('',(#736,#737,#738,#739));
#141=EDGE_LOOP('',(#740,#741,#742,#743));
#142=EDGE_LOOP('',(#744,#745,#746,#747));
#143=EDGE_LOOP('',(#748,#749,#750,#751,#752,#753));
#144=EDGE_LOOP('',(#754,#755,#756,#757));
#145=EDGE_LOOP('',(#758,#759,#760,#761,#762,#763,#764,#765,#766,#767));
#146=EDGE_LOOP('',(#768,#769,#770,#771));
#147=EDGE_LOOP('',(#772,#773,#774,#775));
#148=EDGE_LOOP('',(#776,#777,#778,#779));
#149=EDGE_LOOP('',(#780,#781,#782,#783,#784,#785,#786,#787));
#150=EDGE_LOOP('',(#788,#789,#790,#791));
#151=EDGE_LOOP('',(#792,#793,#794,#795));
#152=EDGE_LOOP('',(#796,#797,#798,#799,#800));
#153=EDGE_LOOP('',(#801,#802,#803,#804));
#154=EDGE_LOOP('',(#805,#806,#807,#808));
#155=EDGE_LOOP('',(#809,#810,#811,#812,#813));
#156=LINE('',#1243,#254);
#157=LINE('',#1245,#255);
#158=LINE('',#1247,#256);
#159=LINE('',#1249,#257);
#160=LINE('',#1250,#258);
#161=LINE('',#1254,#259);
#162=LINE('',#1256,#260);
#163=LINE('',#1258,#261);
#164=LINE('',#1259,#262);
#165=LINE('',#1263,#263);
#166=LINE('',#1265,#264);
#167=LINE('',#1267,#265);
#168=LINE('',#1268,#266);
#169=LINE('',#1274,#267);
#170=LINE('',#1277,#268);
#171=LINE('',#1283,#269);
#172=LINE('',#1287,#270);
#173=LINE('',#1289,#271);
#174=LINE('',#1293,#272);
#175=LINE('',#1294,#273);
#176=LINE('',#1296,#274);
#177=LINE('',#1298,#275);
#178=LINE('',#1299,#276);
#179=LINE('',#1306,#277);
#180=LINE('',#1308,#278);
#181=LINE('',#1310,#279);
#182=LINE('',#1311,#280);
#183=LINE('',#1319,#281);
#184=LINE('',#1321,#282);
#185=LINE('',#1323,#283);
#186=LINE('',#1325,#284);
#187=LINE('',#1326,#285);
#188=LINE('',#1330,#286);
#189=LINE('',#1331,#287);
#190=LINE('',#1332,#288);
#191=LINE('',#1336,#289);
#192=LINE('',#1337,#290);
#193=LINE('',#1338,#291);
#194=LINE('',#1341,#292);
#195=LINE('',#1343,#293);
#196=LINE('',#1344,#294);
#197=LINE('',#1347,#295);
#198=LINE('',#1349,#296);
#199=LINE('',#1350,#297);
#200=LINE('',#1352,#298);
#201=LINE('',#1358,#299);
#202=LINE('',#1362,#300);
#203=LINE('',#1364,#301);
#204=LINE('',#1365,#302);
#205=LINE('',#1367,#303);
#206=LINE('',#1374,#304);
#207=LINE('',#1376,#305);
#208=LINE('',#1378,#306);
#209=LINE('',#1379,#307);
#210=LINE('',#1385,#308);
#211=LINE('',#1387,#309);
#212=LINE('',#1389,#310);
#213=LINE('',#1392,#311);
#214=LINE('',#1394,#312);
#215=LINE('',#1396,#313);
#216=LINE('',#1400,#314);
#217=LINE('',#1401,#315);
#218=LINE('',#1403,#316);
#219=LINE('',#1405,#317);
#220=LINE('',#1412,#318);
#221=LINE('',#1418,#319);
#222=LINE('',#1422,#320);
#223=LINE('',#1426,#321);
#224=LINE('',#1427,#322);
#225=LINE('',#1431,#323);
#226=LINE('',#1432,#324);
#227=LINE('',#1436,#325);
#228=LINE('',#1438,#326);
#229=LINE('',#1439,#327);
#230=LINE('',#1442,#328);
#231=LINE('',#1443,#329);
#232=LINE('',#1446,#330);
#233=LINE('',#1447,#331);
#234=LINE('',#1449,#332);
#235=LINE('',#1453,#333);
#236=LINE('',#1455,#334);
#237=LINE('',#1456,#335);
#238=LINE('',#1459,#336);
#239=LINE('',#1460,#337);
#240=LINE('',#1463,#338);
#241=LINE('',#1464,#339);
#242=LINE('',#1466,#340);
#243=LINE('',#1469,#341);
#244=LINE('',#1471,#342);
#245=LINE('',#1477,#343);
#246=LINE('',#1478,#344);
#247=LINE('',#1481,#345);
#248=LINE('',#1482,#346);
#249=LINE('',#1484,#347);
#250=LINE('',#1487,#348);
#251=LINE('',#1489,#349);
#252=LINE('',#1492,#350);
#253=LINE('',#1494,#351);
#254=VECTOR('',#995,6.46085414409968);
#255=VECTOR('',#996,18.1324865405185);
#256=VECTOR('',#997,2.50000000000001);
#257=VECTOR('',#998,24.4004357329497);
#258=VECTOR('',#999,0.933012701892233);
#259=VECTOR('',#1002,2.25);
#260=VECTOR('',#1003,1.39777946053082);
#261=VECTOR('',#1004,3.23837933514462);
#262=VECTOR('',#1005,0.988379335144618);
#263=VECTOR('',#1008,2.25);
#264=VECTOR('',#1009,85.1324865405186);
#265=VECTOR('',#1010,2.25);
#266=VECTOR('',#1011,85.1324865405187);
#267=VECTOR('',#1016,8.);
#268=VECTOR('',#1019,8.);
#269=VECTOR('',#1024,85.1324640337923);
#270=VECTOR('',#1027,34.4543379998411);
#271=VECTOR('',#1028,48.7424865405179);
#272=VECTOR('',#1031,2.76854850591916);
#273=VECTOR('',#1032,4.99999999999999);
#274=VECTOR('',#1033,1.9785697149234);
#275=VECTOR('',#1034,15.227258722712);
#276=VECTOR('',#1035,14.1324865405185);
#277=VECTOR('',#1040,60.);
#278=VECTOR('',#1041,1.00000000000003);
#279=VECTOR('',#1042,60.);
#280=VECTOR('',#1043,1.00000000000003);
#281=VECTOR('',#1050,2.49999999999999);
#282=VECTOR('',#1051,18.1324865405186);
#283=VECTOR('',#1052,6.46085414409966);
#284=VECTOR('',#1053,0.93301270189222);
#285=VECTOR('',#1054,24.4004357329497);
#286=VECTOR('',#1057,2.25);
#287=VECTOR('',#1058,85.1324865405186);
#288=VECTOR('',#1059,85.1324865405187);
#289=VECTOR('',#1062,3.23837933514462);
#290=VECTOR('',#1063,1.39777946053082);
#291=VECTOR('',#1064,0.988379335144618);
#292=VECTOR('',#1067,8.);
#293=VECTOR('',#1068,48.7424865405179);
#294=VECTOR('',#1069,8.);
#295=VECTOR('',#1072,8.);
#296=VECTOR('',#1073,2.76854850591916);
#297=VECTOR('',#1074,8.);
#298=VECTOR('',#1077,4.99999999999999);
#299=VECTOR('',#1082,85.1324640337923);
#300=VECTOR('',#1085,14.1324865405185);
#301=VECTOR('',#1086,15.227258722712);
#302=VECTOR('',#1087,1.97856971492338);
#303=VECTOR('',#1090,34.4543379998411);
#304=VECTOR('',#1095,1.);
#305=VECTOR('',#1096,60.);
#306=VECTOR('',#1097,1.);
#307=VECTOR('',#1098,60.);
#308=VECTOR('',#1105,4.24264068711931);
#309=VECTOR('',#1106,1.92267595997725);
#310=VECTOR('',#1107,13.8034490533002);
#311=VECTOR('',#1110,0.243891462607108);
#312=VECTOR('',#1113,4.24264068711933);
#313=VECTOR('',#1114,0.243891462607088);
#314=VECTOR('',#1117,13.8034490533002);
#315=VECTOR('',#1118,1.92267595997724);
#316=VECTOR('',#1121,7.89173871808058);
#317=VECTOR('',#1124,3.);
#318=VECTOR('',#1133,1.5);
#319=VECTOR('',#1140,1.);
#320=VECTOR('',#1145,96.8531562904502);
#321=VECTOR('',#1150,96.8531562904502);
#322=VECTOR('',#1151,1.5);
#323=VECTOR('',#1158,2.05233476833246);
#324=VECTOR('',#1159,5.75591913706717);
#325=VECTOR('',#1164,1.);
#326=VECTOR('',#1165,1.);
#327=VECTOR('',#1166,1.);
#328=VECTOR('',#1169,60.);
#329=VECTOR('',#1170,1.);
#330=VECTOR('',#1173,1.);
#331=VECTOR('',#1174,1.);
#332=VECTOR('',#1177,60.);
#333=VECTOR('',#1182,1.);
#334=VECTOR('',#1183,1.00000000000003);
#335=VECTOR('',#1184,1.);
#336=VECTOR('',#1187,60.);
#337=VECTOR('',#1188,1.);
#338=VECTOR('',#1191,1.00000000000003);
#339=VECTOR('',#1192,1.);
#340=VECTOR('',#1195,60.);
#341=VECTOR('',#1200,1.025);
#342=VECTOR('',#1203,8.);
#343=VECTOR('',#1212,33.1623600480148);
#344=VECTOR('',#1213,1.20000000000004);
#345=VECTOR('',#1216,33.1623600480148);
#346=VECTOR('',#1217,1.);
#347=VECTOR('',#1220,1.20000000000004);
#348=VECTOR('',#1225,1.41421356237307);
#349=VECTOR('',#1228,1.41421356237309);
#350=VECTOR('',#1233,1.41421356237308);
#351=VECTOR('',#1236,1.41421356237309);
#352=VERTEX_POINT('',#1241);
#353=VERTEX_POINT('',#1242);
#354=VERTEX_POINT('',#1244);
#355=VERTEX_POINT('',#1246);
#356=VERTEX_POINT('',#1248);
#357=VERTEX_POINT('',#1252);
#358=VERTEX_POINT('',#1253);
#359=VERTEX_POINT('',#1255);
#360=VERTEX_POINT('',#1257);
#361=VERTEX_POINT('',#1261);
#362=VERTEX_POINT('',#1262);
#363=VERTEX_POINT('',#1264);
#364=VERTEX_POINT('',#1266);
#365=VERTEX_POINT('',#1270);
#366=VERTEX_POINT('',#1271);
#367=VERTEX_POINT('',#1273);
#368=VERTEX_POINT('',#1275);
#369=VERTEX_POINT('',#1279);
#370=VERTEX_POINT('',#1280);
#371=VERTEX_POINT('',#1282);
#372=VERTEX_POINT('',#1284);
#373=VERTEX_POINT('',#1286);
#374=VERTEX_POINT('',#1288);
#375=VERTEX_POINT('',#1290);
#376=VERTEX_POINT('',#1292);
#377=VERTEX_POINT('',#1295);
#378=VERTEX_POINT('',#1297);
#379=VERTEX_POINT('',#1300);
#380=VERTEX_POINT('',#1301);
#381=VERTEX_POINT('',#1304);
#382=VERTEX_POINT('',#1305);
#383=VERTEX_POINT('',#1307);
#384=VERTEX_POINT('',#1309);
#385=VERTEX_POINT('',#1312);
#386=VERTEX_POINT('',#1313);
#387=VERTEX_POINT('',#1317);
#388=VERTEX_POINT('',#1318);
#389=VERTEX_POINT('',#1320);
#390=VERTEX_POINT('',#1322);
#391=VERTEX_POINT('',#1324);
#392=VERTEX_POINT('',#1328);
#393=VERTEX_POINT('',#1329);
#394=VERTEX_POINT('',#1334);
#395=VERTEX_POINT('',#1335);
#396=VERTEX_POINT('',#1340);
#397=VERTEX_POINT('',#1342);
#398=VERTEX_POINT('',#1346);
#399=VERTEX_POINT('',#1348);
#400=VERTEX_POINT('',#1354);
#401=VERTEX_POINT('',#1355);
#402=VERTEX_POINT('',#1357);
#403=VERTEX_POINT('',#1359);
#404=VERTEX_POINT('',#1361);
#405=VERTEX_POINT('',#1363);
#406=VERTEX_POINT('',#1368);
#407=VERTEX_POINT('',#1369);
#408=VERTEX_POINT('',#1372);
#409=VERTEX_POINT('',#1373);
#410=VERTEX_POINT('',#1375);
#411=VERTEX_POINT('',#1377);
#412=VERTEX_POINT('',#1380);
#413=VERTEX_POINT('',#1381);
#414=VERTEX_POINT('',#1386);
#415=VERTEX_POINT('',#1388);
#416=VERTEX_POINT('',#1390);
#417=VERTEX_POINT('',#1395);
#418=VERTEX_POINT('',#1397);
#419=VERTEX_POINT('',#1399);
#420=VERTEX_POINT('',#1409);
#421=VERTEX_POINT('',#1411);
#422=VERTEX_POINT('',#1415);
#423=VERTEX_POINT('',#1417);
#424=VERTEX_POINT('',#1421);
#425=VERTEX_POINT('',#1425);
#426=VERTEX_POINT('',#1435);
#427=VERTEX_POINT('',#1437);
#428=VERTEX_POINT('',#1441);
#429=VERTEX_POINT('',#1445);
#430=VERTEX_POINT('',#1452);
#431=VERTEX_POINT('',#1454);
#432=VERTEX_POINT('',#1458);
#433=VERTEX_POINT('',#1462);
#434=VERTEX_POINT('',#1476);
#435=VERTEX_POINT('',#1480);
#436=EDGE_CURVE('',#352,#353,#156,.F.);
#437=EDGE_CURVE('',#353,#354,#157,.T.);
#438=EDGE_CURVE('',#354,#355,#158,.F.);
#439=EDGE_CURVE('',#356,#355,#159,.T.);
#440=EDGE_CURVE('',#356,#352,#160,.F.);
#441=EDGE_CURVE('',#357,#358,#161,.T.);
#442=EDGE_CURVE('',#358,#359,#162,.F.);
#443=EDGE_CURVE('',#359,#360,#163,.F.);
#444=EDGE_CURVE('',#357,#360,#164,.T.);
#445=EDGE_CURVE('',#361,#362,#165,.T.);
#446=EDGE_CURVE('',#361,#363,#166,.T.);
#447=EDGE_CURVE('',#363,#364,#167,.T.);
#448=EDGE_CURVE('',#364,#362,#168,.T.);
#449=EDGE_CURVE('',#365,#366,#27,.T.);
#450=EDGE_CURVE('',#365,#367,#169,.F.);
#451=EDGE_CURVE('',#368,#367,#28,.F.);
#452=EDGE_CURVE('',#366,#368,#170,.F.);
#453=EDGE_CURVE('',#369,#370,#29,.F.);
#454=EDGE_CURVE('',#370,#371,#171,.T.);
#455=EDGE_CURVE('',#371,#372,#30,.F.);
#456=EDGE_CURVE('',#372,#373,#172,.F.);
#457=EDGE_CURVE('',#374,#373,#173,.T.);
#458=EDGE_CURVE('',#374,#375,#31,.T.);
#459=EDGE_CURVE('',#376,#375,#174,.T.);
#460=EDGE_CURVE('',#368,#376,#175,.T.);
#461=EDGE_CURVE('',#367,#377,#176,.T.);
#462=EDGE_CURVE('',#377,#378,#177,.T.);
#463=EDGE_CURVE('',#378,#369,#178,.T.);
#464=EDGE_CURVE('',#379,#380,#32,.T.);
#465=EDGE_CURVE('',#380,#379,#33,.T.);
#466=EDGE_CURVE('',#381,#382,#179,.T.);
#467=EDGE_CURVE('',#383,#381,#180,.T.);
#468=EDGE_CURVE('',#384,#383,#181,.T.);
#469=EDGE_CURVE('',#382,#384,#182,.T.);
#470=EDGE_CURVE('',#385,#386,#34,.T.);
#471=EDGE_CURVE('',#386,#385,#35,.T.);
#472=EDGE_CURVE('',#387,#388,#183,.F.);
#473=EDGE_CURVE('',#388,#389,#184,.T.);
#474=EDGE_CURVE('',#389,#390,#185,.T.);
#475=EDGE_CURVE('',#390,#391,#186,.T.);
#476=EDGE_CURVE('',#387,#391,#187,.T.);
#477=EDGE_CURVE('',#392,#393,#188,.T.);
#478=EDGE_CURVE('',#393,#358,#189,.T.);
#479=EDGE_CURVE('',#392,#357,#190,.T.);
#480=EDGE_CURVE('',#394,#395,#191,.F.);
#481=EDGE_CURVE('',#395,#361,#192,.T.);
#482=EDGE_CURVE('',#394,#362,#193,.T.);
#483=EDGE_CURVE('',#373,#396,#194,.T.);
#484=EDGE_CURVE('',#397,#396,#195,.T.);
#485=EDGE_CURVE('',#397,#374,#196,.F.);
#486=EDGE_CURVE('',#375,#398,#197,.T.);
#487=EDGE_CURVE('',#399,#398,#198,.T.);
#488=EDGE_CURVE('',#376,#399,#199,.T.);
#489=EDGE_CURVE('',#366,#399,#200,.T.);
#490=EDGE_CURVE('',#400,#401,#36,.T.);
#491=EDGE_CURVE('',#401,#402,#201,.T.);
#492=EDGE_CURVE('',#402,#403,#37,.T.);
#493=EDGE_CURVE('',#403,#404,#202,.T.);
#494=EDGE_CURVE('',#404,#405,#203,.T.);
#495=EDGE_CURVE('',#405,#365,#204,.T.);
#496=EDGE_CURVE('',#398,#397,#38,.F.);
#497=EDGE_CURVE('',#396,#400,#205,.F.);
#498=EDGE_CURVE('',#406,#407,#39,.T.);
#499=EDGE_CURVE('',#407,#406,#40,.T.);
#500=EDGE_CURVE('',#408,#409,#206,.T.);
#501=EDGE_CURVE('',#410,#408,#207,.T.);
#502=EDGE_CURVE('',#411,#410,#208,.T.);
#503=EDGE_CURVE('',#409,#411,#209,.T.);
#504=EDGE_CURVE('',#412,#413,#41,.T.);
#505=EDGE_CURVE('',#413,#412,#42,.T.);
#506=EDGE_CURVE('',#404,#353,#210,.T.);
#507=EDGE_CURVE('',#352,#414,#211,.T.);
#508=EDGE_CURVE('',#414,#415,#212,.F.);
#509=EDGE_CURVE('',#415,#416,#17,.F.);
#510=EDGE_CURVE('',#416,#405,#213,.F.);
#511=EDGE_CURVE('',#389,#378,#214,.T.);
#512=EDGE_CURVE('',#377,#417,#215,.T.);
#513=EDGE_CURVE('',#417,#418,#18,.T.);
#514=EDGE_CURVE('',#418,#419,#216,.T.);
#515=EDGE_CURVE('',#419,#390,#217,.F.);
#516=EDGE_CURVE('',#416,#417,#218,.T.);
#517=EDGE_CURVE('',#386,#413,#219,.T.);
#518=EDGE_CURVE('',#354,#393,#43,.F.);
#519=EDGE_CURVE('',#420,#392,#44,.F.);
#520=EDGE_CURVE('',#421,#420,#220,.T.);
#521=EDGE_CURVE('',#364,#421,#45,.F.);
#522=EDGE_CURVE('',#363,#388,#46,.T.);
#523=EDGE_CURVE('',#422,#387,#47,.F.);
#524=EDGE_CURVE('',#423,#422,#221,.F.);
#525=EDGE_CURVE('',#355,#423,#48,.F.);
#526=EDGE_CURVE('',#421,#424,#222,.T.);
#527=EDGE_CURVE('',#424,#394,#49,.F.);
#528=EDGE_CURVE('',#420,#425,#223,.T.);
#529=EDGE_CURVE('',#425,#424,#224,.F.);
#530=EDGE_CURVE('',#360,#425,#50,.F.);
#531=EDGE_CURVE('',#414,#419,#225,.F.);
#532=EDGE_CURVE('',#418,#415,#226,.F.);
#533=EDGE_CURVE('',#426,#409,#227,.T.);
#534=EDGE_CURVE('',#427,#426,#228,.T.);
#535=EDGE_CURVE('',#427,#408,#229,.T.);
#536=EDGE_CURVE('',#428,#427,#230,.T.);
#537=EDGE_CURVE('',#428,#410,#231,.T.);
#538=EDGE_CURVE('',#429,#428,#232,.T.);
#539=EDGE_CURVE('',#429,#411,#233,.T.);
#540=EDGE_CURVE('',#426,#429,#234,.T.);
#541=EDGE_CURVE('',#430,#381,#235,.T.);
#542=EDGE_CURVE('',#431,#430,#236,.T.);
#543=EDGE_CURVE('',#431,#383,#237,.T.);
#544=EDGE_CURVE('',#432,#431,#238,.T.);
#545=EDGE_CURVE('',#432,#384,#239,.T.);
#546=EDGE_CURVE('',#433,#432,#240,.T.);
#547=EDGE_CURVE('',#433,#382,#241,.T.);
#548=EDGE_CURVE('',#430,#433,#242,.T.);
#549=EDGE_CURVE('',#380,#407,#243,.T.);
#550=EDGE_CURVE('',#372,#400,#244,.F.);
#551=EDGE_CURVE('',#359,#401,#19,.T.);
#552=EDGE_CURVE('',#371,#395,#20,.F.);
#553=EDGE_CURVE('',#423,#434,#245,.T.);
#554=EDGE_CURVE('',#434,#356,#246,.F.);
#555=EDGE_CURVE('',#422,#435,#247,.T.);
#556=EDGE_CURVE('',#435,#434,#248,.F.);
#557=EDGE_CURVE('',#391,#435,#249,.F.);
#558=EDGE_CURVE('',#354,#403,#250,.T.);
#559=EDGE_CURVE('',#393,#402,#251,.T.);
#560=EDGE_CURVE('',#369,#388,#252,.T.);
#561=EDGE_CURVE('',#370,#363,#253,.T.);
#562=ORIENTED_EDGE('',*,*,#436,.T.);
#563=ORIENTED_EDGE('',*,*,#437,.T.);
#564=ORIENTED_EDGE('',*,*,#438,.T.);
#565=ORIENTED_EDGE('',*,*,#439,.F.);
#566=ORIENTED_EDGE('',*,*,#440,.T.);
#567=ORIENTED_EDGE('',*,*,#441,.T.);
#568=ORIENTED_EDGE('',*,*,#442,.T.);
#569=ORIENTED_EDGE('',*,*,#443,.T.);
#570=ORIENTED_EDGE('',*,*,#444,.F.);
#571=ORIENTED_EDGE('',*,*,#445,.F.);
#572=ORIENTED_EDGE('',*,*,#446,.T.);
#573=ORIENTED_EDGE('',*,*,#447,.T.);
#574=ORIENTED_EDGE('',*,*,#448,.T.);
#575=ORIENTED_EDGE('',*,*,#449,.F.);
#576=ORIENTED_EDGE('',*,*,#450,.T.);
#577=ORIENTED_EDGE('',*,*,#451,.F.);
#578=ORIENTED_EDGE('',*,*,#452,.F.);
#579=ORIENTED_EDGE('',*,*,#453,.T.);
#580=ORIENTED_EDGE('',*,*,#454,.T.);
#581=ORIENTED_EDGE('',*,*,#455,.T.);
#582=ORIENTED_EDGE('',*,*,#456,.T.);
#583=ORIENTED_EDGE('',*,*,#457,.F.);
#584=ORIENTED_EDGE('',*,*,#458,.T.);
#585=ORIENTED_EDGE('',*,*,#459,.F.);
#586=ORIENTED_EDGE('',*,*,#460,.F.);
#587=ORIENTED_EDGE('',*,*,#451,.T.);
#588=ORIENTED_EDGE('',*,*,#461,.T.);
#589=ORIENTED_EDGE('',*,*,#462,.T.);
#590=ORIENTED_EDGE('',*,*,#463,.T.);
#591=ORIENTED_EDGE('',*,*,#464,.T.);
#592=ORIENTED_EDGE('',*,*,#465,.T.);
#593=ORIENTED_EDGE('',*,*,#466,.F.);
#594=ORIENTED_EDGE('',*,*,#467,.F.);
#595=ORIENTED_EDGE('',*,*,#468,.F.);
#596=ORIENTED_EDGE('',*,*,#469,.F.);
#597=ORIENTED_EDGE('',*,*,#470,.T.);
#598=ORIENTED_EDGE('',*,*,#471,.T.);
#599=ORIENTED_EDGE('',*,*,#472,.T.);
#600=ORIENTED_EDGE('',*,*,#473,.T.);
#601=ORIENTED_EDGE('',*,*,#474,.T.);
#602=ORIENTED_EDGE('',*,*,#475,.T.);
#603=ORIENTED_EDGE('',*,*,#476,.F.);
#604=ORIENTED_EDGE('',*,*,#477,.T.);
#605=ORIENTED_EDGE('',*,*,#478,.T.);
#606=ORIENTED_EDGE('',*,*,#441,.F.);
#607=ORIENTED_EDGE('',*,*,#479,.F.);
#608=ORIENTED_EDGE('',*,*,#480,.T.);
#609=ORIENTED_EDGE('',*,*,#481,.T.);
#610=ORIENTED_EDGE('',*,*,#445,.T.);
#611=ORIENTED_EDGE('',*,*,#482,.F.);
#612=ORIENTED_EDGE('',*,*,#457,.T.);
#613=ORIENTED_EDGE('',*,*,#483,.T.);
#614=ORIENTED_EDGE('',*,*,#484,.F.);
#615=ORIENTED_EDGE('',*,*,#485,.T.);
#616=ORIENTED_EDGE('',*,*,#459,.T.);
#617=ORIENTED_EDGE('',*,*,#486,.T.);
#618=ORIENTED_EDGE('',*,*,#487,.F.);
#619=ORIENTED_EDGE('',*,*,#488,.F.);
#620=ORIENTED_EDGE('',*,*,#489,.F.);
#621=ORIENTED_EDGE('',*,*,#452,.T.);
#622=ORIENTED_EDGE('',*,*,#460,.T.);
#623=ORIENTED_EDGE('',*,*,#488,.T.);
#624=ORIENTED_EDGE('',*,*,#490,.T.);
#625=ORIENTED_EDGE('',*,*,#491,.T.);
#626=ORIENTED_EDGE('',*,*,#492,.T.);
#627=ORIENTED_EDGE('',*,*,#493,.T.);
#628=ORIENTED_EDGE('',*,*,#494,.T.);
#629=ORIENTED_EDGE('',*,*,#495,.T.);
#630=ORIENTED_EDGE('',*,*,#449,.T.);
#631=ORIENTED_EDGE('',*,*,#489,.T.);
#632=ORIENTED_EDGE('',*,*,#487,.T.);
#633=ORIENTED_EDGE('',*,*,#496,.T.);
#634=ORIENTED_EDGE('',*,*,#484,.T.);
#635=ORIENTED_EDGE('',*,*,#497,.T.);
#636=ORIENTED_EDGE('',*,*,#498,.F.);
#637=ORIENTED_EDGE('',*,*,#499,.F.);
#638=ORIENTED_EDGE('',*,*,#500,.F.);
#639=ORIENTED_EDGE('',*,*,#501,.F.);
#640=ORIENTED_EDGE('',*,*,#502,.F.);
#641=ORIENTED_EDGE('',*,*,#503,.F.);
#642=ORIENTED_EDGE('',*,*,#504,.F.);
#643=ORIENTED_EDGE('',*,*,#505,.F.);
#644=ORIENTED_EDGE('',*,*,#494,.F.);
#645=ORIENTED_EDGE('',*,*,#506,.T.);
#646=ORIENTED_EDGE('',*,*,#436,.F.);
#647=ORIENTED_EDGE('',*,*,#507,.T.);
#648=ORIENTED_EDGE('',*,*,#508,.T.);
#649=ORIENTED_EDGE('',*,*,#509,.T.);
#650=ORIENTED_EDGE('',*,*,#510,.T.);
#651=ORIENTED_EDGE('',*,*,#474,.F.);
#652=ORIENTED_EDGE('',*,*,#511,.T.);
#653=ORIENTED_EDGE('',*,*,#462,.F.);
#654=ORIENTED_EDGE('',*,*,#512,.T.);
#655=ORIENTED_EDGE('',*,*,#513,.T.);
#656=ORIENTED_EDGE('',*,*,#514,.T.);
#657=ORIENTED_EDGE('',*,*,#515,.T.);
#658=ORIENTED_EDGE('',*,*,#510,.F.);
#659=ORIENTED_EDGE('',*,*,#516,.T.);
#660=ORIENTED_EDGE('',*,*,#512,.F.);
#661=ORIENTED_EDGE('',*,*,#461,.F.);
#662=ORIENTED_EDGE('',*,*,#450,.F.);
#663=ORIENTED_EDGE('',*,*,#495,.F.);
#664=ORIENTED_EDGE('',*,*,#470,.F.);
#665=ORIENTED_EDGE('',*,*,#471,.F.);
#666=ORIENTED_EDGE('',*,*,#517,.T.);
#667=ORIENTED_EDGE('',*,*,#505,.T.);
#668=ORIENTED_EDGE('',*,*,#504,.T.);
#669=ORIENTED_EDGE('',*,*,#517,.F.);
#670=ORIENTED_EDGE('',*,*,#458,.F.);
#671=ORIENTED_EDGE('',*,*,#485,.F.);
#672=ORIENTED_EDGE('',*,*,#496,.F.);
#673=ORIENTED_EDGE('',*,*,#486,.F.);
#674=ORIENTED_EDGE('',*,*,#438,.F.);
#675=ORIENTED_EDGE('',*,*,#518,.T.);
#676=ORIENTED_EDGE('',*,*,#477,.F.);
#677=ORIENTED_EDGE('',*,*,#519,.F.);
#678=ORIENTED_EDGE('',*,*,#520,.F.);
#679=ORIENTED_EDGE('',*,*,#521,.F.);
#680=ORIENTED_EDGE('',*,*,#447,.F.);
#681=ORIENTED_EDGE('',*,*,#522,.T.);
#682=ORIENTED_EDGE('',*,*,#472,.F.);
#683=ORIENTED_EDGE('',*,*,#523,.F.);
#684=ORIENTED_EDGE('',*,*,#524,.F.);
#685=ORIENTED_EDGE('',*,*,#525,.F.);
#686=ORIENTED_EDGE('',*,*,#526,.T.);
#687=ORIENTED_EDGE('',*,*,#527,.T.);
#688=ORIENTED_EDGE('',*,*,#482,.T.);
#689=ORIENTED_EDGE('',*,*,#448,.F.);
#690=ORIENTED_EDGE('',*,*,#521,.T.);
#691=ORIENTED_EDGE('',*,*,#528,.T.);
#692=ORIENTED_EDGE('',*,*,#529,.T.);
#693=ORIENTED_EDGE('',*,*,#526,.F.);
#694=ORIENTED_EDGE('',*,*,#520,.T.);
#695=ORIENTED_EDGE('',*,*,#444,.T.);
#696=ORIENTED_EDGE('',*,*,#530,.T.);
#697=ORIENTED_EDGE('',*,*,#528,.F.);
#698=ORIENTED_EDGE('',*,*,#519,.T.);
#699=ORIENTED_EDGE('',*,*,#479,.T.);
#700=ORIENTED_EDGE('',*,*,#508,.F.);
#701=ORIENTED_EDGE('',*,*,#531,.T.);
#702=ORIENTED_EDGE('',*,*,#514,.F.);
#703=ORIENTED_EDGE('',*,*,#532,.T.);
#704=ORIENTED_EDGE('',*,*,#509,.F.);
#705=ORIENTED_EDGE('',*,*,#532,.F.);
#706=ORIENTED_EDGE('',*,*,#513,.F.);
#707=ORIENTED_EDGE('',*,*,#516,.F.);
#708=ORIENTED_EDGE('',*,*,#500,.T.);
#709=ORIENTED_EDGE('',*,*,#533,.F.);
#710=ORIENTED_EDGE('',*,*,#534,.F.);
#711=ORIENTED_EDGE('',*,*,#535,.T.);
#712=ORIENTED_EDGE('',*,*,#501,.T.);
#713=ORIENTED_EDGE('',*,*,#535,.F.);
#714=ORIENTED_EDGE('',*,*,#536,.F.);
#715=ORIENTED_EDGE('',*,*,#537,.T.);
#716=ORIENTED_EDGE('',*,*,#502,.T.);
#717=ORIENTED_EDGE('',*,*,#537,.F.);
#718=ORIENTED_EDGE('',*,*,#538,.F.);
#719=ORIENTED_EDGE('',*,*,#539,.T.);
#720=ORIENTED_EDGE('',*,*,#503,.T.);
#721=ORIENTED_EDGE('',*,*,#539,.F.);
#722=ORIENTED_EDGE('',*,*,#540,.F.);
#723=ORIENTED_EDGE('',*,*,#533,.T.);
#724=ORIENTED_EDGE('',*,*,#534,.T.);
#725=ORIENTED_EDGE('',*,*,#540,.T.);
#726=ORIENTED_EDGE('',*,*,#538,.T.);
#727=ORIENTED_EDGE('',*,*,#536,.T.);
#728=ORIENTED_EDGE('',*,*,#467,.T.);
#729=ORIENTED_EDGE('',*,*,#541,.F.);
#730=ORIENTED_EDGE('',*,*,#542,.F.);
#731=ORIENTED_EDGE('',*,*,#543,.T.);
#732=ORIENTED_EDGE('',*,*,#468,.T.);
#733=ORIENTED_EDGE('',*,*,#543,.F.);
#734=ORIENTED_EDGE('',*,*,#544,.F.);
#735=ORIENTED_EDGE('',*,*,#545,.T.);
#736=ORIENTED_EDGE('',*,*,#469,.T.);
#737=ORIENTED_EDGE('',*,*,#545,.F.);
#738=ORIENTED_EDGE('',*,*,#546,.F.);
#739=ORIENTED_EDGE('',*,*,#547,.T.);
#740=ORIENTED_EDGE('',*,*,#466,.T.);
#741=ORIENTED_EDGE('',*,*,#547,.F.);
#742=ORIENTED_EDGE('',*,*,#548,.F.);
#743=ORIENTED_EDGE('',*,*,#541,.T.);
#744=ORIENTED_EDGE('',*,*,#542,.T.);
#745=ORIENTED_EDGE('',*,*,#548,.T.);
#746=ORIENTED_EDGE('',*,*,#546,.T.);
#747=ORIENTED_EDGE('',*,*,#544,.T.);
#748=ORIENTED_EDGE('',*,*,#464,.F.);
#749=ORIENTED_EDGE('',*,*,#465,.F.);
#750=ORIENTED_EDGE('',*,*,#549,.T.);
#751=ORIENTED_EDGE('',*,*,#499,.T.);
#752=ORIENTED_EDGE('',*,*,#498,.T.);
#753=ORIENTED_EDGE('',*,*,#549,.F.);
#754=ORIENTED_EDGE('',*,*,#456,.F.);
#755=ORIENTED_EDGE('',*,*,#550,.T.);
#756=ORIENTED_EDGE('',*,*,#497,.F.);
#757=ORIENTED_EDGE('',*,*,#483,.F.);
#758=ORIENTED_EDGE('',*,*,#443,.F.);
#759=ORIENTED_EDGE('',*,*,#551,.T.);
#760=ORIENTED_EDGE('',*,*,#490,.F.);
#761=ORIENTED_EDGE('',*,*,#550,.F.);
#762=ORIENTED_EDGE('',*,*,#455,.F.);
#763=ORIENTED_EDGE('',*,*,#552,.T.);
#764=ORIENTED_EDGE('',*,*,#480,.F.);
#765=ORIENTED_EDGE('',*,*,#527,.F.);
#766=ORIENTED_EDGE('',*,*,#529,.F.);
#767=ORIENTED_EDGE('',*,*,#530,.F.);
#768=ORIENTED_EDGE('',*,*,#553,.T.);
#769=ORIENTED_EDGE('',*,*,#554,.T.);
#770=ORIENTED_EDGE('',*,*,#439,.T.);
#771=ORIENTED_EDGE('',*,*,#525,.T.);
#772=ORIENTED_EDGE('',*,*,#555,.T.);
#773=ORIENTED_EDGE('',*,*,#556,.T.);
#774=ORIENTED_EDGE('',*,*,#553,.F.);
#775=ORIENTED_EDGE('',*,*,#524,.T.);
#776=ORIENTED_EDGE('',*,*,#476,.T.);
#777=ORIENTED_EDGE('',*,*,#557,.T.);
#778=ORIENTED_EDGE('',*,*,#555,.F.);
#779=ORIENTED_EDGE('',*,*,#523,.T.);
#780=ORIENTED_EDGE('',*,*,#515,.F.);
#781=ORIENTED_EDGE('',*,*,#531,.F.);
#782=ORIENTED_EDGE('',*,*,#507,.F.);
#783=ORIENTED_EDGE('',*,*,#440,.F.);
#784=ORIENTED_EDGE('',*,*,#554,.F.);
#785=ORIENTED_EDGE('',*,*,#556,.F.);
#786=ORIENTED_EDGE('',*,*,#557,.F.);
#787=ORIENTED_EDGE('',*,*,#475,.F.);
#788=ORIENTED_EDGE('',*,*,#506,.F.);
#789=ORIENTED_EDGE('',*,*,#493,.F.);
#790=ORIENTED_EDGE('',*,*,#558,.F.);
#791=ORIENTED_EDGE('',*,*,#437,.F.);
#792=ORIENTED_EDGE('',*,*,#558,.T.);
#793=ORIENTED_EDGE('',*,*,#492,.F.);
#794=ORIENTED_EDGE('',*,*,#559,.F.);
#795=ORIENTED_EDGE('',*,*,#518,.F.);
#796=ORIENTED_EDGE('',*,*,#442,.F.);
#797=ORIENTED_EDGE('',*,*,#478,.F.);
#798=ORIENTED_EDGE('',*,*,#559,.T.);
#799=ORIENTED_EDGE('',*,*,#491,.F.);
#800=ORIENTED_EDGE('',*,*,#551,.F.);
#801=ORIENTED_EDGE('',*,*,#511,.F.);
#802=ORIENTED_EDGE('',*,*,#473,.F.);
#803=ORIENTED_EDGE('',*,*,#560,.F.);
#804=ORIENTED_EDGE('',*,*,#463,.F.);
#805=ORIENTED_EDGE('',*,*,#560,.T.);
#806=ORIENTED_EDGE('',*,*,#522,.F.);
#807=ORIENTED_EDGE('',*,*,#561,.F.);
#808=ORIENTED_EDGE('',*,*,#453,.F.);
#809=ORIENTED_EDGE('',*,*,#552,.F.);
#810=ORIENTED_EDGE('',*,*,#454,.F.);
#811=ORIENTED_EDGE('',*,*,#561,.T.);
#812=ORIENTED_EDGE('',*,*,#446,.F.);
#813=ORIENTED_EDGE('',*,*,#481,.F.);
#814=PLANE('',#917);
#815=PLANE('',#918);
#816=PLANE('',#919);
#817=PLANE('',#923);
#818=PLANE('',#931);
#819=PLANE('',#932);
#820=PLANE('',#933);
#821=PLANE('',#934);
#822=PLANE('',#935);
#823=PLANE('',#936);
#824=PLANE('',#937);
#825=PLANE('',#945);
#826=PLANE('',#947);
#827=PLANE('',#949);
#828=PLANE('',#959);
#829=PLANE('',#961);
#830=PLANE('',#962);
#831=PLANE('',#964);
#832=PLANE('',#966);
#833=PLANE('',#967);
#834=PLANE('',#968);
#835=PLANE('',#969);
#836=PLANE('',#970);
#837=PLANE('',#971);
#838=PLANE('',#972);
#839=PLANE('',#973);
#840=PLANE('',#974);
#841=PLANE('',#975);
#842=PLANE('',#977);
#843=PLANE('',#981);
#844=PLANE('',#982);
#845=PLANE('',#983);
#846=PLANE('',#984);
#847=PLANE('',#985);
#848=PLANE('',#987);
#849=PLANE('',#988);
#850=PLANE('',#990);
#851=ADVANCED_FACE('',(#58),#814,.T.);
#852=ADVANCED_FACE('',(#59),#815,.T.);
#853=ADVANCED_FACE('',(#60),#816,.T.);
#854=ADVANCED_FACE('',(#61),#51,.T.);
#855=ADVANCED_FACE('',(#62,#21,#22,#23),#817,.F.);
#856=ADVANCED_FACE('',(#63),#818,.T.);
#857=ADVANCED_FACE('',(#64),#819,.T.);
#858=ADVANCED_FACE('',(#65),#820,.T.);
#859=ADVANCED_FACE('',(#66),#821,.T.);
#860=ADVANCED_FACE('',(#67),#822,.T.);
#861=ADVANCED_FACE('',(#68),#823,.T.);
#862=ADVANCED_FACE('',(#69,#24,#25,#26),#824,.T.);
#863=ADVANCED_FACE('',(#70),#825,.F.);
#864=ADVANCED_FACE('',(#71),#826,.T.);
#865=ADVANCED_FACE('',(#72),#827,.F.);
#866=ADVANCED_FACE('',(#73),#52,.F.);
#867=ADVANCED_FACE('',(#74),#53,.F.);
#868=ADVANCED_FACE('',(#75),#54,.T.);
#869=ADVANCED_FACE('',(#76),#828,.F.);
#870=ADVANCED_FACE('',(#77),#829,.F.);
#871=ADVANCED_FACE('',(#78),#830,.F.);
#872=ADVANCED_FACE('',(#79),#831,.T.);
#873=ADVANCED_FACE('',(#80),#55,.T.);
#874=ADVANCED_FACE('',(#81),#832,.F.);
#875=ADVANCED_FACE('',(#82),#833,.F.);
#876=ADVANCED_FACE('',(#83),#834,.F.);
#877=ADVANCED_FACE('',(#84),#835,.F.);
#878=ADVANCED_FACE('',(#85),#836,.T.);
#879=ADVANCED_FACE('',(#86),#837,.F.);
#880=ADVANCED_FACE('',(#87),#838,.F.);
#881=ADVANCED_FACE('',(#88),#839,.F.);
#882=ADVANCED_FACE('',(#89),#840,.F.);
#883=ADVANCED_FACE('',(#90),#841,.T.);
#884=ADVANCED_FACE('',(#91),#56,.F.);
#885=ADVANCED_FACE('',(#92),#842,.F.);
#886=ADVANCED_FACE('',(#93),#57,.T.);
#887=ADVANCED_FACE('',(#94),#843,.F.);
#888=ADVANCED_FACE('',(#95),#844,.F.);
#889=ADVANCED_FACE('',(#96),#845,.F.);
#890=ADVANCED_FACE('',(#97),#846,.F.);
#891=ADVANCED_FACE('',(#98),#847,.F.);
#892=ADVANCED_FACE('',(#99),#15,.T.);
#893=ADVANCED_FACE('',(#100),#848,.F.);
#894=ADVANCED_FACE('',(#101),#849,.T.);
#895=ADVANCED_FACE('',(#102),#16,.T.);
#896=ADVANCED_FACE('',(#103),#850,.T.);
#897=CLOSED_SHELL('',(#851,#852,#853,#854,#855,#856,#857,#858,#859,#860,
#861,#862,#863,#864,#865,#866,#867,#868,#869,#870,#871,#872,#873,#874,#875,
#876,#877,#878,#879,#880,#881,#882,#883,#884,#885,#886,#887,#888,#889,#890,
#891,#892,#893,#894,#895,#896));
#898=DERIVED_UNIT_ELEMENT(#900,1.);
#899=DERIVED_UNIT_ELEMENT(#1501,3.);
#900=(
MASS_UNIT()
NAMED_UNIT(*)
SI_UNIT($,.GRAM.)
);
#901=DERIVED_UNIT((#898,#899));
#902=MEASURE_REPRESENTATION_ITEM('density measure',
POSITIVE_RATIO_MEASURE(1.),#901);
#903=PROPERTY_DEFINITION_REPRESENTATION(#908,#905);
#904=PROPERTY_DEFINITION_REPRESENTATION(#909,#906);
#905=REPRESENTATION('material name',(#907),#1498);
#906=REPRESENTATION('density',(#902),#1498);
#907=DESCRIPTIVE_REPRESENTATION_ITEM('Generic','Generic');
#908=PROPERTY_DEFINITION('material property','material name',#1508);
#909=PROPERTY_DEFINITION('material property','density of part',#1508);
#910=DATE_TIME_ROLE('creation_date');
#911=APPLIED_DATE_AND_TIME_ASSIGNMENT(#912,#910,(#1508));
#912=DATE_AND_TIME(#913,#914);
#913=CALENDAR_DATE(2013,13,8);
#914=LOCAL_TIME(15,34,33.,#915);
#915=COORDINATED_UNIVERSAL_TIME_OFFSET(0,0,.BEHIND.);
#916=AXIS2_PLACEMENT_3D('placement',#1239,#991,#992);
#917=AXIS2_PLACEMENT_3D('',#1240,#993,#994);
#918=AXIS2_PLACEMENT_3D('',#1251,#1000,#1001);
#919=AXIS2_PLACEMENT_3D('',#1260,#1006,#1007);
#920=AXIS2_PLACEMENT_3D('',#1269,#1012,#1013);
#921=AXIS2_PLACEMENT_3D('',#1272,#1014,#1015);
#922=AXIS2_PLACEMENT_3D('',#1276,#1017,#1018);
#923=AXIS2_PLACEMENT_3D('',#1278,#1020,#1021);
#924=AXIS2_PLACEMENT_3D('',#1281,#1022,#1023);
#925=AXIS2_PLACEMENT_3D('',#1285,#1025,#1026);
#926=AXIS2_PLACEMENT_3D('',#1291,#1029,#1030);
#927=AXIS2_PLACEMENT_3D('',#1302,#1036,#1037);
#928=AXIS2_PLACEMENT_3D('',#1303,#1038,#1039);
#929=AXIS2_PLACEMENT_3D('',#1314,#1044,#1045);
#930=AXIS2_PLACEMENT_3D('',#1315,#1046,#1047);
#931=AXIS2_PLACEMENT_3D('',#1316,#1048,#1049);
#932=AXIS2_PLACEMENT_3D('',#1327,#1055,#1056);
#933=AXIS2_PLACEMENT_3D('',#1333,#1060,#1061);
#934=AXIS2_PLACEMENT_3D('',#1339,#1065,#1066);
#935=AXIS2_PLACEMENT_3D('',#1345,#1070,#1071);
#936=AXIS2_PLACEMENT_3D('',#1351,#1075,#1076);
#937=AXIS2_PLACEMENT_3D('',#1353,#1078,#1079);
#938=AXIS2_PLACEMENT_3D('',#1356,#1080,#1081);
#939=AXIS2_PLACEMENT_3D('',#1360,#1083,#1084);
#940=AXIS2_PLACEMENT_3D('',#1366,#1088,#1089);
#941=AXIS2_PLACEMENT_3D('',#1370,#1091,#1092);
#942=AXIS2_PLACEMENT_3D('',#1371,#1093,#1094);
#943=AXIS2_PLACEMENT_3D('',#1382,#1099,#1100);
#944=AXIS2_PLACEMENT_3D('',#1383,#1101,#1102);
#945=AXIS2_PLACEMENT_3D('',#1384,#1103,#1104);
#946=AXIS2_PLACEMENT_3D('',#1391,#1108,#1109);
#947=AXIS2_PLACEMENT_3D('',#1393,#1111,#1112);
#948=AXIS2_PLACEMENT_3D('',#1398,#1115,#1116);
#949=AXIS2_PLACEMENT_3D('',#1402,#1119,#1120);
#950=AXIS2_PLACEMENT_3D('',#1404,#1122,#1123);
#951=AXIS2_PLACEMENT_3D('',#1406,#1125,#1126);
#952=AXIS2_PLACEMENT_3D('',#1407,#1127,#1128);
#953=AXIS2_PLACEMENT_3D('',#1408,#1129,#1130);
#954=AXIS2_PLACEMENT_3D('',#1410,#1131,#1132);
#955=AXIS2_PLACEMENT_3D('',#1413,#1134,#1135);
#956=AXIS2_PLACEMENT_3D('',#1414,#1136,#1137);
#957=AXIS2_PLACEMENT_3D('',#1416,#1138,#1139);
#958=AXIS2_PLACEMENT_3D('',#1419,#1141,#1142);
#959=AXIS2_PLACEMENT_3D('',#1420,#1143,#1144);
#960=AXIS2_PLACEMENT_3D('',#1423,#1146,#1147);
#961=AXIS2_PLACEMENT_3D('',#1424,#1148,#1149);
#962=AXIS2_PLACEMENT_3D('',#1428,#1152,#1153);
#963=AXIS2_PLACEMENT_3D('',#1429,#1154,#1155);
#964=AXIS2_PLACEMENT_3D('',#1430,#1156,#1157);
#965=AXIS2_PLACEMENT_3D('',#1433,#1160,#1161);
#966=AXIS2_PLACEMENT_3D('',#1434,#1162,#1163);
#967=AXIS2_PLACEMENT_3D('',#1440,#1167,#1168);
#968=AXIS2_PLACEMENT_3D('',#1444,#1171,#1172);
#969=AXIS2_PLACEMENT_3D('',#1448,#1175,#1176);
#970=AXIS2_PLACEMENT_3D('',#1450,#1178,#1179);
#971=AXIS2_PLACEMENT_3D('',#1451,#1180,#1181);
#972=AXIS2_PLACEMENT_3D('',#1457,#1185,#1186);
#973=AXIS2_PLACEMENT_3D('',#1461,#1189,#1190);
#974=AXIS2_PLACEMENT_3D('',#1465,#1193,#1194);
#975=AXIS2_PLACEMENT_3D('',#1467,#1196,#1197);
#976=AXIS2_PLACEMENT_3D('',#1468,#1198,#1199);
#977=AXIS2_PLACEMENT_3D('',#1470,#1201,#1202);
#978=AXIS2_PLACEMENT_3D('',#1472,#1204,#1205);
#979=AXIS2_PLACEMENT_3D('',#1473,#1206,#1207);
#980=AXIS2_PLACEMENT_3D('',#1474,#1208,#1209);
#981=AXIS2_PLACEMENT_3D('',#1475,#1210,#1211);
#982=AXIS2_PLACEMENT_3D('',#1479,#1214,#1215);
#983=AXIS2_PLACEMENT_3D('',#1483,#1218,#1219);
#984=AXIS2_PLACEMENT_3D('',#1485,#1221,#1222);
#985=AXIS2_PLACEMENT_3D('',#1486,#1223,#1224);
#986=AXIS2_PLACEMENT_3D('',#1488,#1226,#1227);
#987=AXIS2_PLACEMENT_3D('',#1490,#1229,#1230);
#988=AXIS2_PLACEMENT_3D('',#1491,#1231,#1232);
#989=AXIS2_PLACEMENT_3D('',#1493,#1234,#1235);
#990=AXIS2_PLACEMENT_3D('',#1495,#1237,#1238);
#991=DIRECTION('axis',(0.,0.,1.));
#992=DIRECTION('refdir',(1.,0.,0.));
#993=DIRECTION('center_axis',(-0.766044443118976,0.642787609686542,0.));
#994=DIRECTION('ref_axis',(0.,0.,1.));
#995=DIRECTION('',(-0.623595578723744,-0.743172271269882,-0.24253562503633));
#996=DIRECTION('',(0.642787609686542,0.766044443118976,0.));
#997=DIRECTION('',(0.,0.,1.));
#998=DIRECTION('',(0.642787609686541,0.766044443118976,0.));
#999=DIRECTION('',(0.,0.,-1.));
#1000=DIRECTION('center_axis',(0.984807753012208,-0.173648177666932,0.));
#1001=DIRECTION('ref_axis',(0.,0.,-1.));
#1002=DIRECTION('',(0.,0.,1.));
#1003=DIRECTION('',(0.122787803968972,0.696364240320016,-0.707106781186551));
#1004=DIRECTION('',(0.,0.,1.));
#1005=DIRECTION('',(-0.173648177666947,-0.984807753012205,0.));
#1006=DIRECTION('center_axis',(0.173648177666936,0.984807753012207,0.));
#1007=DIRECTION('ref_axis',(0.,0.,1.));
#1008=DIRECTION('',(0.,0.,1.));
#1009=DIRECTION('',(-0.984807753012207,0.173648177666936,0.));
#1010=DIRECTION('',(0.,0.,1.));
#1011=DIRECTION('',(0.984807753012207,-0.173648177666936,0.));
#1012=DIRECTION('center_axis',(0.,0.,1.));
#1013=DIRECTION('ref_axis',(1.,0.,0.));
#1014=DIRECTION('center_axis',(0.,0.,1.));
#1015=DIRECTION('ref_axis',(1.,0.,0.));
#1016=DIRECTION('',(0.,0.,1.));
#1017=DIRECTION('center_axis',(0.,0.,1.));
#1018=DIRECTION('ref_axis',(1.,0.,0.));
#1019=DIRECTION('',(0.,0.,1.));
#1020=DIRECTION('center_axis',(0.,0.,1.));
#1021=DIRECTION('ref_axis',(1.,0.,0.));
#1022=DIRECTION('center_axis',(0.,0.,1.));
#1023=DIRECTION('ref_axis',(1.,0.,0.));
#1024=DIRECTION('',(0.984807753012207,-0.173648177666936,0.));
#1025=DIRECTION('center_axis',(0.,0.,1.));
#1026=DIRECTION('ref_axis',(1.,0.,0.));
#1027=DIRECTION('',(0.999997528056898,0.00222348377394927,0.));
#1028=DIRECTION('',(0.984807753012207,-0.173648177666936,0.));
#1029=DIRECTION('center_axis',(0.,0.,1.));
#1030=DIRECTION('ref_axis',(1.,0.,0.));
#1031=DIRECTION('',(0.642787609686542,0.766044443118975,0.));
#1032=DIRECTION('',(-0.766044443118976,0.642787609686541,0.));
#1033=DIRECTION('',(-0.902033860697896,-0.431665280228151,0.));
#1034=DIRECTION('',(-0.766044443118975,0.642787609686543,0.));
#1035=DIRECTION('',(0.642787609686541,0.766044443118976,0.));
#1036=DIRECTION('center_axis',(0.,0.,1.));
#1037=DIRECTION('ref_axis',(1.,0.,0.));
#1038=DIRECTION('center_axis',(0.,0.,1.));
#1039=DIRECTION('ref_axis',(1.,0.,0.));
#1040=DIRECTION('',(-0.984807753012207,0.173648177666936,0.));
#1041=DIRECTION('',(-0.173648177666944,-0.984807753012206,0.));
#1042=DIRECTION('',(0.984807753012207,-0.173648177666936,0.));
#1043=DIRECTION('',(0.173648177666936,0.984807753012207,0.));
#1044=DIRECTION('center_axis',(0.,0.,1.));
#1045=DIRECTION('ref_axis',(1.,0.,0.));
#1046=DIRECTION('center_axis',(0.,0.,1.));
#1047=DIRECTION('ref_axis',(1.,0.,0.));
#1048=DIRECTION('center_axis',(-0.766044443118976,0.642787609686542,0.));
#1049=DIRECTION('ref_axis',(0.,0.,1.));
#1050=DIRECTION('',(0.,0.,1.));
#1051=DIRECTION('',(-0.642787609686541,-0.766044443118976,0.));
#1052=DIRECTION('',(-0.623595578723744,-0.743172271269883,0.242535625036329));
#1053=DIRECTION('',(0.,0.,1.));
#1054=DIRECTION('',(-0.642787609686541,-0.766044443118976,0.));
#1055=DIRECTION('center_axis',(0.173648177666936,0.984807753012207,0.));
#1056=DIRECTION('ref_axis',(0.,0.,1.));
#1057=DIRECTION('',(0.,0.,1.));
#1058=DIRECTION('',(0.984807753012207,-0.173648177666936,0.));
#1059=DIRECTION('',(0.984807753012207,-0.173648177666936,0.));
#1060=DIRECTION('center_axis',(0.984807753012208,-0.173648177666932,0.));
#1061=DIRECTION('ref_axis',(0.,0.,-1.));
#1062=DIRECTION('',(0.,0.,1.));
#1063=DIRECTION('',(0.122787803968972,0.696364240320015,0.707106781186551));
#1064=DIRECTION('',(0.173648177666947,0.984807753012205,0.));
#1065=DIRECTION('center_axis',(-0.173648177666936,-0.984807753012207,0.));
#1066=DIRECTION('ref_axis',(0.,0.,-1.));
#1067=DIRECTION('',(0.,0.,1.));
#1068=DIRECTION('',(0.984807753012207,-0.173648177666936,0.));
#1069=DIRECTION('',(0.,0.,1.));
#1070=DIRECTION('center_axis',(0.766044443118976,-0.642787609686542,0.));
#1071=DIRECTION('ref_axis',(0.,0.,-1.));
#1072=DIRECTION('',(0.,0.,1.));
#1073=DIRECTION('',(0.642787609686542,0.766044443118975,0.));
#1074=DIRECTION('',(0.,0.,1.));
#1075=DIRECTION('center_axis',(0.642787609686542,0.766044443118976,0.));
#1076=DIRECTION('ref_axis',(0.,0.,-1.));
#1077=DIRECTION('',(-0.766044443118976,0.642787609686541,0.));
#1078=DIRECTION('center_axis',(0.,0.,1.));
#1079=DIRECTION('ref_axis',(1.,0.,0.));
#1080=DIRECTION('center_axis',(0.,0.,1.));
#1081=DIRECTION('ref_axis',(1.,0.,0.));
#1082=DIRECTION('',(-0.984807753012207,0.173648177666936,0.));
#1083=DIRECTION('center_axis',(0.,0.,1.));
#1084=DIRECTION('ref_axis',(1.,0.,0.));
#1085=DIRECTION('',(-0.642787609686542,-0.766044443118976,0.));
#1086=DIRECTION('',(0.766044443118975,-0.642787609686543,0.));
#1087=DIRECTION('',(0.902033860697897,0.431665280228149,0.));
#1088=DIRECTION('center_axis',(0.,0.,1.));
#1089=DIRECTION('ref_axis',(1.,0.,0.));
#1090=DIRECTION('',(-0.999997528056898,-0.00222348377394927,0.));
#1091=DIRECTION('center_axis',(0.,0.,1.));
#1092=DIRECTION('ref_axis',(1.,0.,0.));
#1093=DIRECTION('center_axis',(0.,0.,1.));
#1094=DIRECTION('ref_axis',(1.,0.,0.));
#1095=DIRECTION('',(-0.173648177666935,-0.984807753012207,0.));
#1096=DIRECTION('',(-0.984807753012207,0.173648177666936,0.));
#1097=DIRECTION('',(0.173648177666932,0.984807753012208,0.));
#1098=DIRECTION('',(0.984807753012207,-0.173648177666936,0.));
#1099=DIRECTION('center_axis',(0.,0.,1.));
#1100=DIRECTION('ref_axis',(1.,0.,0.));
#1101=DIRECTION('center_axis',(0.,0.,1.));
#1102=DIRECTION('ref_axis',(1.,0.,0.));
#1103=DIRECTION('center_axis',(0.155898894680934,0.185793067817468,-0.970142500145333));
#1104=DIRECTION('ref_axis',(-0.987333060038317,0.,-0.15866136440663));
#1105=DIRECTION('',(-0.786584377035956,-0.570727134668926,-0.235702260395514));
#1106=DIRECTION('',(-0.169716011032435,-0.962507327866263,-0.211603684757578));
#1107=DIRECTION('',(-0.983117457763804,0.124429439157249,-0.13415431007257));
#1108=DIRECTION('center_axis',(0.155898894680934,0.185793067817468,-0.970142500145333));
#1109=DIRECTION('ref_axis',(0.623595578723745,0.743172271269882,0.24253562503633));
#1110=DIRECTION('',(-0.879536275788927,-0.420899136386632,-0.221945616222379));
#1111=DIRECTION('center_axis',(-0.155898894680934,-0.185793067817468,-0.970142500145333));
#1112=DIRECTION('ref_axis',(-0.987333060038317,0.,0.15866136440663));
#1113=DIRECTION('',(0.786584377035957,0.570727134668926,-0.235702260395513));
#1114=DIRECTION('',(-0.879536275788929,-0.420899136386631,0.221945616222374));
#1115=DIRECTION('center_axis',(-0.155898894680934,-0.185793067817468,-0.970142500145333));
#1116=DIRECTION('ref_axis',(-0.623595578723745,-0.743172271269882,0.242535625036329));
#1117=DIRECTION('',(-0.983117457763804,0.124429439157249,0.134154310072569));
#1118=DIRECTION('',(-0.169716011032436,-0.962507327866263,0.211603684757577));
#1119=DIRECTION('center_axis',(-0.431665280228149,0.902033860697897,0.));
#1120=DIRECTION('ref_axis',(0.,0.,1.));
#1121=DIRECTION('',(0.,0.,-1.));
#1122=DIRECTION('center_axis',(0.,0.,1.));
#1123=DIRECTION('ref_axis',(1.,0.,0.));
#1124=DIRECTION('',(0.,0.,1.));
#1125=DIRECTION('center_axis',(0.,0.,-1.));
#1126=DIRECTION('ref_axis',(-1.,0.,0.));
#1127=DIRECTION('center_axis',(0.,0.,1.));
#1128=DIRECTION('ref_axis',(1.,0.,0.));
#1129=DIRECTION('center_axis',(0.,0.,1.));
#1130=DIRECTION('ref_axis',(1.,0.,0.));
#1131=DIRECTION('center_axis',(0.,0.,1.));
#1132=DIRECTION('ref_axis',(1.,0.,0.));
#1133=DIRECTION('',(0.,0.,1.));
#1134=DIRECTION('center_axis',(0.,0.,-1.));
#1135=DIRECTION('ref_axis',(-1.,0.,0.));
#1136=DIRECTION('center_axis',(0.,0.,1.));
#1137=DIRECTION('ref_axis',(1.,0.,0.));
#1138=DIRECTION('center_axis',(3.02017108890923E-16,-2.53422444679604E-16,
-1.));
#1139=DIRECTION('ref_axis',(-1.,0.,-3.02017108890923E-16));
#1140=DIRECTION('',(0.,0.,1.));
#1141=DIRECTION('center_axis',(0.,0.,1.));
#1142=DIRECTION('ref_axis',(1.,0.,0.));
#1143=DIRECTION('center_axis',(0.,0.,-1.));
#1144=DIRECTION('ref_axis',(-1.,0.,0.));
#1145=DIRECTION('',(0.984807753012207,-0.173648177666936,0.));
#1146=DIRECTION('center_axis',(0.,0.,-1.));
#1147=DIRECTION('ref_axis',(-1.,0.,0.));
#1148=DIRECTION('center_axis',(-0.173648177666936,-0.984807753012207,0.));
#1149=DIRECTION('ref_axis',(0.,0.,-1.));
#1150=DIRECTION('',(0.984807753012207,-0.173648177666936,0.));
#1151=DIRECTION('',(0.,0.,1.));
#1152=DIRECTION('center_axis',(0.,0.,1.));
#1153=DIRECTION('ref_axis',(1.,0.,0.));
#1154=DIRECTION('center_axis',(0.,0.,1.));
#1155=DIRECTION('ref_axis',(1.,0.,0.));
#1156=DIRECTION('center_axis',(-0.12556448511561,-0.992085460067656,0.));
#1157=DIRECTION('ref_axis',(0.,0.,-1.));
#1158=DIRECTION('',(0.,0.,1.));
#1159=DIRECTION('',(0.,0.,-1.));
#1160=DIRECTION('center_axis',(0.,0.,1.));
#1161=DIRECTION('ref_axis',(1.,0.,0.));
#1162=DIRECTION('center_axis',(-0.984807753012207,0.173648177666935,0.));
#1163=DIRECTION('ref_axis',(0.,0.,1.));
#1164=DIRECTION('',(0.,0.,1.));
#1165=DIRECTION('',(-0.173648177666935,-0.984807753012207,0.));
#1166=DIRECTION('',(0.,0.,1.));
#1167=DIRECTION('center_axis',(0.173648177666936,0.984807753012207,0.));
#1168=DIRECTION('ref_axis',(0.,0.,1.));
#1169=DIRECTION('',(-0.984807753012207,0.173648177666936,0.));
#1170=DIRECTION('',(0.,0.,1.));
#1171=DIRECTION('center_axis',(0.984807753012207,-0.173648177666935,0.));
#1172=DIRECTION('ref_axis',(0.,0.,-1.));
#1173=DIRECTION('',(0.173648177666932,0.984807753012208,0.));
#1174=DIRECTION('',(0.,0.,1.));
#1175=DIRECTION('center_axis',(-0.173648177666936,-0.984807753012207,0.));
#1176=DIRECTION('ref_axis',(0.,0.,-1.));
#1177=DIRECTION('',(0.984807753012207,-0.173648177666936,0.));
#1178=DIRECTION('center_axis',(0.,0.,1.));
#1179=DIRECTION('ref_axis',(1.,0.,0.));
#1180=DIRECTION('center_axis',(0.984807753012207,-0.173648177666937,0.));
#1181=DIRECTION('ref_axis',(0.,0.,-1.));
#1182=DIRECTION('',(0.,0.,-1.));
#1183=DIRECTION('',(-0.173648177666944,-0.984807753012206,0.));
#1184=DIRECTION('',(0.,0.,-1.));
#1185=DIRECTION('center_axis',(0.173648177666936,0.984807753012207,0.));
#1186=DIRECTION('ref_axis',(0.,0.,1.));
#1187=DIRECTION('',(0.984807753012207,-0.173648177666936,0.));
#1188=DIRECTION('',(0.,0.,-1.));
#1189=DIRECTION('center_axis',(-0.984807753012207,0.173648177666936,0.));
#1190=DIRECTION('ref_axis',(0.,0.,1.));
#1191=DIRECTION('',(0.173648177666936,0.984807753012207,0.));
#1192=DIRECTION('',(0.,0.,-1.));
#1193=DIRECTION('center_axis',(-0.173648177666936,-0.984807753012207,0.));
#1194=DIRECTION('ref_axis',(0.,0.,-1.));
#1195=DIRECTION('',(-0.984807753012207,0.173648177666936,0.));
#1196=DIRECTION('center_axis',(0.,0.,-1.));
#1197=DIRECTION('ref_axis',(-1.,0.,0.));
#1198=DIRECTION('center_axis',(0.,0.,1.));
#1199=DIRECTION('ref_axis',(1.,0.,0.));
#1200=DIRECTION('',(0.,0.,1.));
#1201=DIRECTION('center_axis',(-0.00222348377394927,0.999997528056898,0.));
#1202=DIRECTION('ref_axis',(0.,0.,1.));
#1203=DIRECTION('',(0.,0.,-1.));
#1204=DIRECTION('center_axis',(0.,0.,1.));
#1205=DIRECTION('ref_axis',(1.,0.,0.));
#1206=DIRECTION('center_axis',(-0.122787803968977,-0.696364240320022,-0.707106781186544));
#1207=DIRECTION('ref_axis',(-0.122787803968976,-0.696364240320015,0.707106781186551));
#1208=DIRECTION('center_axis',(0.122787803968977,0.696364240320022,-0.707106781186544));
#1209=DIRECTION('ref_axis',(0.122787803968976,0.696364240320015,0.707106781186551));
#1210=DIRECTION('center_axis',(0.,0.,1.));
#1211=DIRECTION('ref_axis',(1.,0.,0.));
#1212=DIRECTION('',(-0.642787609686543,-0.766044443118975,0.));
#1213=DIRECTION('',(-0.173648177666943,-0.984807753012206,0.));
#1214=DIRECTION('center_axis',(0.766044443118975,-0.642787609686543,0.));
#1215=DIRECTION('ref_axis',(0.,0.,-1.));
#1216=DIRECTION('',(-0.642787609686543,-0.766044443118975,0.));
#1217=DIRECTION('',(0.,0.,-1.));
#1218=DIRECTION('center_axis',(3.02017108890923E-16,-2.53422444679604E-16,
-1.));
#1219=DIRECTION('ref_axis',(-1.,0.,-3.02017108890923E-16));
#1220=DIRECTION('',(0.173648177666943,0.984807753012206,-4.62592926927134E-16));
#1221=DIRECTION('center_axis',(0.984807753012207,-0.173648177666939,0.));
#1222=DIRECTION('ref_axis',(0.,0.,-1.));
#1223=DIRECTION('center_axis',(0.541675220419706,-0.45451947767205,-0.70710678118654));
#1224=DIRECTION('ref_axis',(-0.79384480609944,0.,-0.60812040241135));
#1225=DIRECTION('',(0.541675220419693,-0.454519477672039,0.707106781186557));
#1226=DIRECTION('center_axis',(0.,0.,-1.));
#1227=DIRECTION('ref_axis',(-1.,0.,0.));
#1228=DIRECTION('',(-0.122787803968976,-0.696364240320016,0.70710678118655));
#1229=DIRECTION('center_axis',(-0.122787803968977,-0.696364240320022,-0.707106781186544));
#1230=DIRECTION('ref_axis',(-0.985255774317391,0.,0.171087869746042));
#1231=DIRECTION('center_axis',(-0.541675220419706,0.45451947767205,-0.70710678118654));
#1232=DIRECTION('ref_axis',(-0.79384480609944,0.,0.60812040241135));
#1233=DIRECTION('',(-0.541675220419696,0.45451947767204,0.707106781186554));
#1234=DIRECTION('center_axis',(0.,0.,1.));
#1235=DIRECTION('ref_axis',(1.,0.,0.));
#1236=DIRECTION('',(0.122787803968976,0.696364240320016,0.707106781186549));
#1237=DIRECTION('center_axis',(0.122787803968977,0.696364240320022,-0.707106781186544));
#1238=DIRECTION('ref_axis',(-0.985255774317391,0.,-0.171087869746042));
#1239=CARTESIAN_POINT('',(0.,0.,0.));
#1240=CARTESIAN_POINT('Origin',(-78.,-21.5239332458524,0.));
#1241=CARTESIAN_POINT('',(-76.8866592015471,-20.1971053495144,5.43301270189222));
#1242=CARTESIAN_POINT('',(-72.8576991225076,-15.3955777009005,7.));
#1243=CARTESIAN_POINT('',(-72.8576991225076,-15.3955777009005,7.));
#1244=CARTESIAN_POINT('',(-61.2023614414543,-1.50528714660662,7.));
#1245=CARTESIAN_POINT('',(-72.8576991225076,-15.3955777009005,7.));
#1246=CARTESIAN_POINT('',(-61.2023614414543,-1.50528714660662,4.49999999999999));
#1247=CARTESIAN_POINT('',(-61.2023614414543,-1.50528714660662,4.49999999999999));
#1248=CARTESIAN_POINT('',(-76.8866592015471,-20.1971053495145,4.49999999999999));
#1249=CARTESIAN_POINT('',(-76.8866592015471,-20.1971053495145,4.49999999999999));
#1250=CARTESIAN_POINT('',(-76.8866592015471,-20.1971053495145,5.43301270189222));
#1251=CARTESIAN_POINT('Origin',(69.6214023761514,0.812618871660658,0.));
#1252=CARTESIAN_POINT('',(69.6214023761515,0.812618871660646,4.75));
#1253=CARTESIAN_POINT('',(69.6214023761514,0.812618871660658,7.));
#1254=CARTESIAN_POINT('',(69.6214023761514,0.812618871660658,4.75));
#1255=CARTESIAN_POINT('',(69.4497721057599,-0.160744760506806,7.98837933514462));
#1256=CARTESIAN_POINT('',(69.4497721057599,-0.160744760506807,7.98837933514462));
#1257=CARTESIAN_POINT('',(69.44977210576,-0.160744760506821,4.75));
#1258=CARTESIAN_POINT('',(69.4497721057599,-0.160744760506806,4.75));
#1259=CARTESIAN_POINT('',(69.6214023761515,0.812618871660646,4.75));
#1260=CARTESIAN_POINT('Origin',(-42.6466814672402,20.6085111256913,0.));
#1261=CARTESIAN_POINT('',(69.6214023761514,0.812618871660658,1.));
#1262=CARTESIAN_POINT('',(69.6214023761515,0.812618871660646,3.25));
#1263=CARTESIAN_POINT('',(69.6214023761514,0.812618871660658,1.));
#1264=CARTESIAN_POINT('',(-14.2177304021587,15.5957200196767,1.));
#1265=CARTESIAN_POINT('',(69.6214023761514,0.81261887166066,1.));
#1266=CARTESIAN_POINT('',(-14.2177304021587,15.5957200196767,3.25));
#1267=CARTESIAN_POINT('',(-14.2177304021587,15.5957200196767,1.));
#1268=CARTESIAN_POINT('',(-14.2177304021587,15.5957200196767,3.25));
#1269=CARTESIAN_POINT('Origin',(-54.7052215195234,-17.0981547059643,8.));
#1270=CARTESIAN_POINT('',(-56.0710104335617,-21.9080009241183,8.));
#1271=CARTESIAN_POINT('',(-51.4912834710907,-13.2679324903695,8.));
#1272=CARTESIAN_POINT('Origin',(-54.7052215195234,-17.0981547059643,8.));
#1273=CARTESIAN_POINT('',(-56.0710104335617,-21.9080009241183,0.));
#1274=CARTESIAN_POINT('',(-56.0710104335617,-21.9080009241183,0.));
#1275=CARTESIAN_POINT('',(-51.4912834710907,-13.2679324903695,0.));
#1276=CARTESIAN_POINT('Origin',(-54.7052215195234,-17.0981547059643,0.));
#1277=CARTESIAN_POINT('',(-51.4912834710907,-13.2679324903695,0.));
#1278=CARTESIAN_POINT('Origin',(0.,0.,0.));
#1279=CARTESIAN_POINT('',(-60.4363169983353,-2.14807475629314,0.));
#1280=CARTESIAN_POINT('',(-14.3913785798256,14.6109122666645,0.));
#1281=CARTESIAN_POINT('Origin',(-22.9001392855055,-33.6446676309337,0.));
#1282=CARTESIAN_POINT('',(69.4477320336859,-0.172184973099514,0.));
#1283=CARTESIAN_POINT('',(-14.3913785798257,14.6109122666645,0.));
#1284=CARTESIAN_POINT('',(66.5020192980451,-2.6397928116767,0.));
#1285=CARTESIAN_POINT('Origin',(66.4953488467233,0.360199772493993,0.));
#1286=CARTESIAN_POINT('',(32.0477664673671,-2.71640147316151,0.));
#1287=CARTESIAN_POINT('',(32.0477664673671,-2.71640147316151,0.));
#1288=CARTESIAN_POINT('',(-15.9542121788281,5.74764248955457,0.));
#1289=CARTESIAN_POINT('',(-15.9542121788281,5.74764248955457,0.));
#1290=CARTESIAN_POINT('',(-53.5419170102645,-7.93316324347204,0.));
#1291=CARTESIAN_POINT('Origin',(-22.9001392855055,-33.6446676309337,0.));
#1292=CARTESIAN_POINT('',(-55.3215056866856,-10.0539944419368,0.));
#1293=CARTESIAN_POINT('',(-55.3215056866856,-10.0539944419368,0.));
#1294=CARTESIAN_POINT('',(-51.4912834710907,-13.2679324903695,0.));
#1295=CARTESIAN_POINT('',(-57.855747312174,-22.7620807745617,0.));
#1296=CARTESIAN_POINT('',(-56.0710104335617,-21.9080009241183,0.));
#1297=CARTESIAN_POINT('',(-69.5205042406425,-12.9741875381111,0.));
#1298=CARTESIAN_POINT('',(-57.855747312174,-22.7620807745617,0.));
#1299=CARTESIAN_POINT('',(-69.5205042406425,-12.9741875381111,0.));
#1300=CARTESIAN_POINT('',(-38.4290561348744,10.3436016796925,0.));
#1301=CARTESIAN_POINT('',(-40.4790561348744,10.3436016796925,0.));
#1302=CARTESIAN_POINT('Origin',(-39.4540561348744,10.3436016796925,0.));
#1303=CARTESIAN_POINT('Origin',(-39.4540561348744,10.3436016796925,0.));
#1304=CARTESIAN_POINT('',(53.8592538292444,-1.43445079441931,0.));
#1305=CARTESIAN_POINT('',(-5.22921135148798,8.98443986559684,0.));
#1306=CARTESIAN_POINT('',(53.8592538292444,-1.4344507944193,0.));
#1307=CARTESIAN_POINT('',(54.0329020069114,-0.449643041407067,0.));
#1308=CARTESIAN_POINT('',(54.0329020069114,-0.449643041407067,0.));
#1309=CARTESIAN_POINT('',(-5.05556317382104,9.96924761860908,0.));
#1310=CARTESIAN_POINT('',(-5.05556317382105,9.96924761860908,0.));
#1311=CARTESIAN_POINT('',(-5.22921135148798,8.98443986559684,0.));
#1312=CARTESIAN_POINT('',(-51.7052215195234,-17.0981547059644,0.));
#1313=CARTESIAN_POINT('',(-57.7052215195234,-17.0981547059644,0.));
#1314=CARTESIAN_POINT('Origin',(-54.7052215195234,-17.0981547059644,0.));
#1315=CARTESIAN_POINT('Origin',(-54.7052215195234,-17.0981547059644,0.));
#1316=CARTESIAN_POINT('Origin',(-78.,-21.5239332458524,0.));
#1317=CARTESIAN_POINT('',(-61.2023614414543,-1.50528714660662,3.49999999999999));
#1318=CARTESIAN_POINT('',(-61.2023614414543,-1.50528714660662,1.));
#1319=CARTESIAN_POINT('',(-61.2023614414543,-1.50528714660662,1.));
#1320=CARTESIAN_POINT('',(-72.8576991225076,-15.3955777009005,1.));
#1321=CARTESIAN_POINT('',(-61.2023614414543,-1.50528714660661,1.));
#1322=CARTESIAN_POINT('',(-76.8866592015471,-20.1971053495145,2.56698729810777));
#1323=CARTESIAN_POINT('',(-72.8576991225076,-15.3955777009005,0.999999999999999));
#1324=CARTESIAN_POINT('',(-76.8866592015471,-20.1971053495145,3.49999999999999));
#1325=CARTESIAN_POINT('',(-76.8866592015471,-20.1971053495145,2.56698729810777));
#1326=CARTESIAN_POINT('',(-61.2023614414543,-1.5052871466066,3.49999999999999));
#1327=CARTESIAN_POINT('Origin',(-42.6466814672402,20.6085111256913,0.));
#1328=CARTESIAN_POINT('',(-14.2177304021587,15.5957200196767,4.75));
#1329=CARTESIAN_POINT('',(-14.2177304021587,15.5957200196767,7.));
#1330=CARTESIAN_POINT('',(-14.2177304021587,15.5957200196767,4.75));
#1331=CARTESIAN_POINT('',(-14.2177304021587,15.5957200196767,7.));
#1332=CARTESIAN_POINT('',(-14.2177304021587,15.5957200196767,4.75));
#1333=CARTESIAN_POINT('Origin',(69.6214023761514,0.812618871660658,0.));
#1334=CARTESIAN_POINT('',(69.44977210576,-0.160744760506821,3.25));
#1335=CARTESIAN_POINT('',(69.4497721057599,-0.160744760506806,0.0116206648553764));
#1336=CARTESIAN_POINT('',(69.4497721057599,-0.160744760506806,0.0116206648553764));
#1337=CARTESIAN_POINT('',(69.4497721057599,-0.160744760506806,0.0116206648553756));
#1338=CARTESIAN_POINT('',(69.44977210576,-0.160744760506822,3.25));
#1339=CARTESIAN_POINT('Origin',(67.8849205994821,-9.03545865846143,0.));
#1340=CARTESIAN_POINT('',(32.0477664673671,-2.71640147316151,8.));
#1341=CARTESIAN_POINT('',(32.0477664673671,-2.71640147316151,0.));
#1342=CARTESIAN_POINT('',(-15.9542121788281,5.74764248955457,8.));
#1343=CARTESIAN_POINT('',(-15.9542121788281,5.74764248955457,8.));
#1344=CARTESIAN_POINT('',(-15.9542121788281,5.74764248955457,0.));
#1345=CARTESIAN_POINT('Origin',(-55.3215056866856,-10.0539944419368,0.));
#1346=CARTESIAN_POINT('',(-53.5419170102645,-7.93316324347204,8.));
#1347=CARTESIAN_POINT('',(-53.5419170102645,-7.93316324347204,0.));
#1348=CARTESIAN_POINT('',(-55.3215056866856,-10.0539944419368,8.));
#1349=CARTESIAN_POINT('',(-55.3215056866856,-10.0539944419368,8.));
#1350=CARTESIAN_POINT('',(-55.3215056866856,-10.0539944419368,0.));
#1351=CARTESIAN_POINT('Origin',(-55.3215056866856,-10.0539944419368,0.));
#1352=CARTESIAN_POINT('',(-51.4912834710907,-13.2679324903695,8.));
#1353=CARTESIAN_POINT('Origin',(0.,0.,8.));
#1354=CARTESIAN_POINT('',(66.5020192980451,-2.6397928116767,8.));
#1355=CARTESIAN_POINT('',(69.4477320336859,-0.17218497309952,8.));
#1356=CARTESIAN_POINT('Origin',(66.4953488467233,0.360199772493993,8.));
#1357=CARTESIAN_POINT('',(-14.3913785798256,14.6109122666645,8.));
#1358=CARTESIAN_POINT('',(69.4477320336859,-0.172184973099523,8.));
#1359=CARTESIAN_POINT('',(-60.4363169983354,-2.14807475629314,8.));
#1360=CARTESIAN_POINT('Origin',(-22.9001392855055,-33.6446676309337,8.));
#1361=CARTESIAN_POINT('',(-69.5205042406425,-12.974187538111,8.));
#1362=CARTESIAN_POINT('',(-60.4363169983354,-2.14807475629314,8.));
#1363=CARTESIAN_POINT('',(-57.855747312174,-22.7620807745617,8.));
#1364=CARTESIAN_POINT('',(-69.5205042406425,-12.974187538111,8.));
#1365=CARTESIAN_POINT('',(-57.855747312174,-22.7620807745617,8.));
#1366=CARTESIAN_POINT('Origin',(-22.9001392855055,-33.6446676309337,8.));
#1367=CARTESIAN_POINT('',(66.5020192980451,-2.6397928116767,8.));
#1368=CARTESIAN_POINT('',(-38.4290561348744,10.3436016796925,8.));
#1369=CARTESIAN_POINT('',(-40.4790561348744,10.3436016796925,8.));
#1370=CARTESIAN_POINT('Origin',(-39.4540561348744,10.3436016796925,8.));
#1371=CARTESIAN_POINT('Origin',(-39.4540561348744,10.3436016796925,8.));
#1372=CARTESIAN_POINT('',(-5.05556317382104,9.96924761860908,8.));
#1373=CARTESIAN_POINT('',(-5.22921135148797,8.98443986559687,8.));
#1374=CARTESIAN_POINT('',(-5.05556317382104,9.96924761860908,8.));
#1375=CARTESIAN_POINT('',(54.0329020069114,-0.44964304140707,8.));
#1376=CARTESIAN_POINT('',(54.0329020069114,-0.449643041407068,8.));
#1377=CARTESIAN_POINT('',(53.8592538292445,-1.43445079441928,8.));
#1378=CARTESIAN_POINT('',(53.8592538292445,-1.43445079441928,8.));
#1379=CARTESIAN_POINT('',(-5.22921135148797,8.98443986559687,8.));
#1380=CARTESIAN_POINT('',(-51.7052215195234,-17.0981547059644,8.));
#1381=CARTESIAN_POINT('',(-57.7052215195234,-17.0981547059644,8.));
#1382=CARTESIAN_POINT('Origin',(-54.7052215195234,-17.0981547059644,8.));
#1383=CARTESIAN_POINT('Origin',(-54.7052215195234,-17.0981547059644,8.));
#1384=CARTESIAN_POINT('Origin',(-35.1127379226678,-41.8457315651579,8.));
#1385=CARTESIAN_POINT('',(-69.5205042406425,-12.974187538111,8.));
#1386=CARTESIAN_POINT('',(-77.2129680959824,-22.0476950501049,5.02616738416622));
#1387=CARTESIAN_POINT('',(-76.8866592015471,-20.1971053495144,5.43301270189222));
#1388=CARTESIAN_POINT('',(-63.6425563543297,-23.7652504742427,6.87795956853358));
#1389=CARTESIAN_POINT('',(-63.6425563543297,-23.7652504742427,6.87795956853358));
#1390=CARTESIAN_POINT('',(-58.0702587008921,-22.8647344805451,7.94586935904029));
#1391=CARTESIAN_POINT('Origin',(-62.3869115031736,-13.8443958735661,8.97969169111591));
#1392=CARTESIAN_POINT('',(-57.855747312174,-22.7620807745617,8.));
#1393=CARTESIAN_POINT('Origin',(-78.,-21.5239332458524,2.99999999999999));
#1394=CARTESIAN_POINT('',(-72.8576991225076,-15.3955777009005,1.));
#1395=CARTESIAN_POINT('',(-58.0702587008921,-22.8647344805451,0.0541306409597088));
#1396=CARTESIAN_POINT('',(-57.855747312174,-22.7620807745617,8.67361737988404E-16));
#1397=CARTESIAN_POINT('',(-63.6425563543297,-23.7652504742427,1.12204043146641));
#1398=CARTESIAN_POINT('Origin',(-62.3869115031736,-13.8443958735661,-0.979691691115916));
#1399=CARTESIAN_POINT('',(-77.2129680959824,-22.0476950501049,2.97383261583376));
#1400=CARTESIAN_POINT('',(-63.6425563543297,-23.7652504742427,1.12204043146641));
#1401=CARTESIAN_POINT('',(-76.8866592015471,-20.1971053495145,2.56698729810777));
#1402=CARTESIAN_POINT('Origin',(-71.4393149449574,-29.2624515302303,8.));
#1403=CARTESIAN_POINT('',(-58.0702587008921,-22.8647344805451,7.94586935904029));
#1404=CARTESIAN_POINT('Origin',(-54.7052215195234,-17.0981547059644,0.));
#1405=CARTESIAN_POINT('',(-57.7052215195234,-17.0981547059644,0.));
#1406=CARTESIAN_POINT('Origin',(-22.9001392855055,-33.6446676309337,0.));
#1407=CARTESIAN_POINT('Origin',(-22.9001392855055,-33.6446676309337,0.));
#1408=CARTESIAN_POINT('Origin',(-22.9001392855055,-33.6446676309337,7.));
#1409=CARTESIAN_POINT('',(-26.0313860093263,16.2571889873782,4.75));
#1410=CARTESIAN_POINT('Origin',(-22.9001392855055,-33.6446676309337,4.75));
#1411=CARTESIAN_POINT('',(-26.0313860093263,16.2571889873782,3.25));
#1412=CARTESIAN_POINT('',(-26.0313860093263,16.2571889873782,3.25));
#1413=CARTESIAN_POINT('Origin',(-22.9001392855055,-33.6446676309337,3.25));
#1414=CARTESIAN_POINT('Origin',(-22.9001392855055,-33.6446676309337,1.));
#1415=CARTESIAN_POINT('',(-55.7786828679195,4.02496698236327,3.49999999999999));
#1416=CARTESIAN_POINT('Origin',(-22.9001392855055,-33.6446676309337,3.50000000000001));
#1417=CARTESIAN_POINT('',(-55.7786828679195,4.02496698236331,4.49999999999999));
#1418=CARTESIAN_POINT('',(-55.7786828679195,4.02496698236327,3.49999999999999));
#1419=CARTESIAN_POINT('Origin',(-22.9001392855055,-33.6446676309337,4.49999999999999));
#1420=CARTESIAN_POINT('Origin',(-76.2066306024188,26.5260356294273,3.25));
#1421=CARTESIAN_POINT('',(69.350353209212,-0.561185103749413,3.25));
#1422=CARTESIAN_POINT('',(-26.0313860093263,16.2571889873782,3.25));
#1423=CARTESIAN_POINT('Origin',(66.4953488467233,0.360199772493993,3.25));
#1424=CARTESIAN_POINT('Origin',(-76.4497380511525,25.1473047752102,3.25));
#1425=CARTESIAN_POINT('',(69.350353209212,-0.561185103749421,4.75));
#1426=CARTESIAN_POINT('',(-26.0313860093263,16.2571889873782,4.75));
#1427=CARTESIAN_POINT('',(69.3503532092121,-0.561185103749422,3.25));
#1428=CARTESIAN_POINT('Origin',(-76.2066306024188,26.5260356294273,4.75));
#1429=CARTESIAN_POINT('Origin',(66.4953488467233,0.360199772493993,4.75));
#1430=CARTESIAN_POINT('Origin',(-77.4047294503803,-22.0234245444889,0.));
#1431=CARTESIAN_POINT('',(-77.2129680959824,-22.0476950501049,2.97383261583376));
#1432=CARTESIAN_POINT('',(-63.6425563543297,-23.7652504742427,6.87795956853358));
#1433=CARTESIAN_POINT('Origin',(-62.3869115031736,-13.8443958735661,8.));
#1434=CARTESIAN_POINT('Origin',(-5.05556317382104,9.96924761860908,7.));
#1435=CARTESIAN_POINT('',(-5.22921135148797,8.98443986559687,7.));
#1436=CARTESIAN_POINT('',(-5.22921135148797,8.98443986559687,7.));
#1437=CARTESIAN_POINT('',(-5.05556317382104,9.96924761860908,7.));
#1438=CARTESIAN_POINT('',(-5.05556317382104,9.96924761860908,7.));
#1439=CARTESIAN_POINT('',(-5.05556317382104,9.96924761860908,7.));
#1440=CARTESIAN_POINT('Origin',(-5.05556317382104,9.96924761860908,7.));
#1441=CARTESIAN_POINT('',(54.0329020069114,-0.44964304140707,7.));
#1442=CARTESIAN_POINT('',(54.0329020069114,-0.449643041407068,7.));
#1443=CARTESIAN_POINT('',(54.0329020069114,-0.44964304140707,7.));
#1444=CARTESIAN_POINT('Origin',(54.0329020069114,-0.44964304140707,7.));
#1445=CARTESIAN_POINT('',(53.8592538292445,-1.43445079441928,7.));
#1446=CARTESIAN_POINT('',(53.8592538292445,-1.43445079441928,7.));
#1447=CARTESIAN_POINT('',(53.8592538292445,-1.43445079441928,7.));
#1448=CARTESIAN_POINT('Origin',(-5.22921135148797,8.98443986559687,7.));
#1449=CARTESIAN_POINT('',(-5.22921135148797,8.98443986559687,7.));
#1450=CARTESIAN_POINT('Origin',(0.,0.,7.));
#1451=CARTESIAN_POINT('Origin',(54.0329020069114,-0.449643041407067,1.));
#1452=CARTESIAN_POINT('',(53.8592538292444,-1.4344507944193,1.));
#1453=CARTESIAN_POINT('',(53.8592538292444,-1.4344507944193,1.));
#1454=CARTESIAN_POINT('',(54.0329020069114,-0.449643041407067,1.));
#1455=CARTESIAN_POINT('',(54.0329020069114,-0.449643041407067,1.));
#1456=CARTESIAN_POINT('',(54.0329020069114,-0.449643041407067,1.));
#1457=CARTESIAN_POINT('Origin',(54.0329020069114,-0.449643041407067,1.));
#1458=CARTESIAN_POINT('',(-5.05556317382104,9.96924761860908,1.));
#1459=CARTESIAN_POINT('',(-5.05556317382105,9.96924761860908,1.));
#1460=CARTESIAN_POINT('',(-5.05556317382104,9.96924761860908,1.));
#1461=CARTESIAN_POINT('Origin',(-5.05556317382104,9.96924761860908,1.));
#1462=CARTESIAN_POINT('',(-5.22921135148798,8.98443986559684,1.));
#1463=CARTESIAN_POINT('',(-5.22921135148798,8.98443986559684,1.));
#1464=CARTESIAN_POINT('',(-5.22921135148798,8.98443986559684,1.));
#1465=CARTESIAN_POINT('Origin',(53.8592538292444,-1.4344507944193,1.));
#1466=CARTESIAN_POINT('',(53.8592538292444,-1.4344507944193,1.));
#1467=CARTESIAN_POINT('Origin',(0.,0.,1.));
#1468=CARTESIAN_POINT('Origin',(-39.4540561348744,10.3436016796925,0.));
#1469=CARTESIAN_POINT('',(-40.4790561348744,10.3436016796925,0.));
#1470=CARTESIAN_POINT('Origin',(32.0477664673671,-2.71640147316151,0.));
#1471=CARTESIAN_POINT('',(66.5020192980451,-2.6397928116767,8.));
#1472=CARTESIAN_POINT('Origin',(66.4953488467233,0.360199772493993,0.));
#1473=CARTESIAN_POINT('Origin',(66.4953488467233,0.360199772493993,7.98837933514463));
#1474=CARTESIAN_POINT('Origin',(66.4953488467233,0.360199772493993,0.0116206648553641));
#1475=CARTESIAN_POINT('Origin',(2.10513132831049,73.0082105037755,4.49999999999999));
#1476=CARTESIAN_POINT('',(-77.0950370147475,-21.3788746531291,4.49999999999999));
#1477=CARTESIAN_POINT('',(-55.7786828679195,4.02496698236332,4.49999999999999));
#1478=CARTESIAN_POINT('',(-76.8866592015471,-20.1971053495145,4.49999999999999));
#1479=CARTESIAN_POINT('Origin',(2.10513132831049,73.0082105037755,3.49999999999999));
#1480=CARTESIAN_POINT('',(-77.0950370147475,-21.3788746531291,3.49999999999999));
#1481=CARTESIAN_POINT('',(-55.7786828679195,4.02496698236331,3.49999999999999));
#1482=CARTESIAN_POINT('',(-77.0950370147475,-21.3788746531292,4.49999999999999));
#1483=CARTESIAN_POINT('Origin',(2.10513132831049,73.0082105037755,3.49999999999999));
#1484=CARTESIAN_POINT('',(-77.0950370147475,-21.3788746531291,3.49999999999999));
#1485=CARTESIAN_POINT('Origin',(-76.8866592015471,-20.1971053495145,0.));
#1486=CARTESIAN_POINT('Origin',(-34.4077663179748,28.8715440270468,8.));
#1487=CARTESIAN_POINT('',(-61.2023614414543,-1.50528714660661,7.));
#1488=CARTESIAN_POINT('Origin',(-22.9001392855055,-33.6446676309337,8.));
#1489=CARTESIAN_POINT('',(-14.2177304021587,15.5957200196767,7.));
#1490=CARTESIAN_POINT('Origin',(2.06465999106817,11.7092686710366,8.));
#1491=CARTESIAN_POINT('Origin',(-78.,-21.5239332458524,1.));
#1492=CARTESIAN_POINT('',(-60.4363169983353,-2.14807475629314,0.));
#1493=CARTESIAN_POINT('Origin',(-22.9001392855055,-33.6446676309337,0.));
#1494=CARTESIAN_POINT('',(-14.3913785798256,14.6109122666645,0.));
#1495=CARTESIAN_POINT('Origin',(-42.6466814672402,20.6085111256913,1.));
#1496=UNCERTAINTY_MEASURE_WITH_UNIT(LENGTH_MEASURE(0.01),#1500,
'DISTANCE_ACCURACY_VALUE',
'Maximum model space distance between geometric entities at asserted c
onnectivities');
#1497=UNCERTAINTY_MEASURE_WITH_UNIT(LENGTH_MEASURE(0.01),#1500,
'DISTANCE_ACCURACY_VALUE',
'Maximum model space distance between geometric entities at asserted c
onnectivities');
#1498=(
GEOMETRIC_REPRESENTATION_CONTEXT(3)
GLOBAL_UNCERTAINTY_ASSIGNED_CONTEXT((#1496))
GLOBAL_UNIT_ASSIGNED_CONTEXT((#1500,#1502,#1503))
REPRESENTATION_CONTEXT('','3D')
);
#1499=(
GEOMETRIC_REPRESENTATION_CONTEXT(3)
GLOBAL_UNCERTAINTY_ASSIGNED_CONTEXT((#1497))
GLOBAL_UNIT_ASSIGNED_CONTEXT((#1500,#1502,#1503))
REPRESENTATION_CONTEXT('','3D')
);
#1500=(
LENGTH_UNIT()
NAMED_UNIT(*)
SI_UNIT(.MILLI.,.METRE.)
);
#1501=(
LENGTH_UNIT()
NAMED_UNIT(*)
SI_UNIT(.CENTI.,.METRE.)
);
#1502=(
NAMED_UNIT(*)
PLANE_ANGLE_UNIT()
SI_UNIT($,.RADIAN.)
);
#1503=(
NAMED_UNIT(*)
SI_UNIT($,.STERADIAN.)
SOLID_ANGLE_UNIT()
);
#1504=SHAPE_DEFINITION_REPRESENTATION(#1505,#1506);
#1505=PRODUCT_DEFINITION_SHAPE('',$,#1508);
#1506=SHAPE_REPRESENTATION('',(#916),#1498);
#1507=PRODUCT_DEFINITION_CONTEXT('part definition',#1512,'design');
#1508=PRODUCT_DEFINITION('Alley Jig design 2','Alley Jig design 2',#1509,
#1507);
#1509=PRODUCT_DEFINITION_FORMATION('',$,#1514);
#1510=PRODUCT_RELATED_PRODUCT_CATEGORY('Alley Jig design 2',
'Alley Jig design 2',(#1514));
#1511=APPLICATION_PROTOCOL_DEFINITION('international standard',
'automotive_design',2009,#1512);
#1512=APPLICATION_CONTEXT(
'Core Data for Automotive Mechanical Design Process');
#1513=PRODUCT_CONTEXT('part definition',#1512,'mechanical');
#1514=PRODUCT('Alley Jig design 2','Alley Jig design 2',$,(#1513));
#1515=PRESENTATION_STYLE_ASSIGNMENT((#1516));
#1516=SURFACE_STYLE_USAGE(.BOTH.,#1519);
#1517=SURFACE_STYLE_RENDERING_WITH_PROPERTIES($,#1523,(#1518));
#1518=SURFACE_STYLE_TRANSPARENT(0.);
#1519=SURFACE_SIDE_STYLE('',(#1520,#1517));
#1520=SURFACE_STYLE_FILL_AREA(#1521);
#1521=FILL_AREA_STYLE('',(#1522));
#1522=FILL_AREA_STYLE_COLOUR('',#1523);
#1523=COLOUR_RGB('',0.792156862745098,0.819607843137255,0.933333333333333);
ENDSEC;
END-ISO-10303-21;
