ISO-10303-21;
HEADER;
FILE_DESCRIPTION(('Illustrative CAD - NOT vendor dimensions'),'2;1');
FILE_NAME('reference.step','2026-10-07',('CORNERSTONE'),(''),'reference generator','','');
FILE_SCHEMA(('CONFIG_CONTROL_DESIGN'));
ENDSEC;
DATA;
#1 = CARTESIAN_POINT('',(-78.000000000,0.000000000,0.000000000));
#2 = CARTESIAN_POINT('',(78.000000000,0.000000000,0.000000000));
#3 = CARTESIAN_POINT('',(78.000000000,30.000000000,0.000000000));
#4 = CARTESIAN_POINT('',(-78.000000000,30.000000000,0.000000000));
#5 = CARTESIAN_POINT('',(-78.000000000,0.000000000,490.000000000));
#6 = CARTESIAN_POINT('',(78.000000000,0.000000000,490.000000000));
#7 = CARTESIAN_POINT('',(78.000000000,30.000000000,490.000000000));
#8 = CARTESIAN_POINT('',(-78.000000000,30.000000000,490.000000000));
#9 = POLY_LOOP('',(#1,#4,#3,#2));
#10 = FACE_OUTER_BOUND('',#9,.T.);
#11 = DIRECTION('',(0.000000000,0.000000000,-1.000000000));
#12 = DIRECTION('',(0.000000000,1.000000000,0.000000000));
#13 = AXIS2_PLACEMENT_3D('',#1,#11,#12);
#14 = PLANE('',#13);
#15 = FACE_SURFACE('',(#10),#14,.T.);
#16 = POLY_LOOP('',(#5,#6,#7,#8));
#17 = FACE_OUTER_BOUND('',#16,.T.);
#18 = DIRECTION('',(0.000000000,0.000000000,1.000000000));
#19 = DIRECTION('',(1.000000000,0.000000000,0.000000000));
#20 = AXIS2_PLACEMENT_3D('',#5,#18,#19);
#21 = PLANE('',#20);
#22 = FACE_SURFACE('',(#17),#21,.T.);
#23 = POLY_LOOP('',(#1,#2,#6,#5));
#24 = FACE_OUTER_BOUND('',#23,.T.);
#25 = DIRECTION('',(0.000000000,-1.000000000,0.000000000));
#26 = DIRECTION('',(1.000000000,0.000000000,0.000000000));
#27 = AXIS2_PLACEMENT_3D('',#1,#25,#26);
#28 = PLANE('',#27);
#29 = FACE_SURFACE('',(#24),#28,.T.);
#30 = POLY_LOOP('',(#2,#3,#7,#6));
#31 = FACE_OUTER_BOUND('',#30,.T.);
#32 = DIRECTION('',(1.000000000,0.000000000,0.000000000));
#33 = DIRECTION('',(0.000000000,1.000000000,0.000000000));
#34 = AXIS2_PLACEMENT_3D('',#2,#32,#33);
#35 = PLANE('',#34);
#36 = FACE_SURFACE('',(#31),#35,.T.);
#37 = POLY_LOOP('',(#3,#4,#8,#7));
#38 = FACE_OUTER_BOUND('',#37,.T.);
#39 = DIRECTION('',(0.000000000,1.000000000,0.000000000));
#40 = DIRECTION('',(-1.000000000,0.000000000,0.000000000));
#41 = AXIS2_PLACEMENT_3D('',#3,#39,#40);
#42 = PLANE('',#41);
#43 = FACE_SURFACE('',(#38),#42,.T.);
#44 = POLY_LOOP('',(#4,#1,#5,#8));
#45 = FACE_OUTER_BOUND('',#44,.T.);
#46 = DIRECTION('',(-1.000000000,0.000000000,0.000000000));
#47 = DIRECTION('',(0.000000000,-1.000000000,0.000000000));
#48 = AXIS2_PLACEMENT_3D('',#4,#46,#47);
#49 = PLANE('',#48);
#50 = FACE_SURFACE('',(#45),#49,.T.);
#51 = CLOSED_SHELL('',(#15,#22,#29,#36,#43,#50));
#52 = FACETED_BREP('silver TLS extended body',#51);
#53 = CARTESIAN_POINT('',(-80.000000000,0.000000000,-4.000000000));
#54 = CARTESIAN_POINT('',(80.000000000,0.000000000,-4.000000000));
#55 = CARTESIAN_POINT('',(80.000000000,32.000000000,-4.000000000));
#56 = CARTESIAN_POINT('',(-80.000000000,32.000000000,-4.000000000));
#57 = CARTESIAN_POINT('',(-80.000000000,0.000000000,0.000000000));
#58 = CARTESIAN_POINT('',(80.000000000,0.000000000,0.000000000));
#59 = CARTESIAN_POINT('',(80.000000000,32.000000000,0.000000000));
#60 = CARTESIAN_POINT('',(-80.000000000,32.000000000,0.000000000));
#61 = POLY_LOOP('',(#53,#56,#55,#54));
#62 = FACE_OUTER_BOUND('',#61,.T.);
#63 = DIRECTION('',(0.000000000,0.000000000,-1.000000000));
#64 = DIRECTION('',(0.000000000,1.000000000,0.000000000));
#65 = AXIS2_PLACEMENT_3D('',#53,#63,#64);
#66 = PLANE('',#65);
#67 = FACE_SURFACE('',(#62),#66,.T.);
#68 = POLY_LOOP('',(#57,#58,#59,#60));
#69 = FACE_OUTER_BOUND('',#68,.T.);
#70 = DIRECTION('',(0.000000000,0.000000000,1.000000000));
#71 = DIRECTION('',(1.000000000,0.000000000,0.000000000));
#72 = AXIS2_PLACEMENT_3D('',#57,#70,#71);
#73 = PLANE('',#72);
#74 = FACE_SURFACE('',(#69),#73,.T.);
#75 = POLY_LOOP('',(#53,#54,#58,#57));
#76 = FACE_OUTER_BOUND('',#75,.T.);
#77 = DIRECTION('',(0.000000000,-1.000000000,0.000000000));
#78 = DIRECTION('',(1.000000000,0.000000000,0.000000000));
#79 = AXIS2_PLACEMENT_3D('',#53,#77,#78);
#80 = PLANE('',#79);
#81 = FACE_SURFACE('',(#76),#80,.T.);
#82 = POLY_LOOP('',(#54,#55,#59,#58));
#83 = FACE_OUTER_BOUND('',#82,.T.);
#84 = DIRECTION('',(1.000000000,0.000000000,0.000000000));
#85 = DIRECTION('',(0.000000000,1.000000000,0.000000000));
#86 = AXIS2_PLACEMENT_3D('',#54,#84,#85);
#87 = PLANE('',#86);
#88 = FACE_SURFACE('',(#83),#87,.T.);
#89 = POLY_LOOP('',(#55,#56,#60,#59));
#90 = FACE_OUTER_BOUND('',#89,.T.);
#91 = DIRECTION('',(0.000000000,1.000000000,0.000000000));
#92 = DIRECTION('',(-1.000000000,0.000000000,0.000000000));
#93 = AXIS2_PLACEMENT_3D('',#55,#91,#92);
#94 = PLANE('',#93);
#95 = FACE_SURFACE('',(#90),#94,.T.);
#96 = POLY_LOOP('',(#56,#53,#57,#60));
#97 = FACE_OUTER_BOUND('',#96,.T.);
#98 = DIRECTION('',(-1.000000000,0.000000000,0.000000000));
#99 = DIRECTION('',(0.000000000,-1.000000000,0.000000000));
#100 = AXIS2_PLACEMENT_3D('',#56,#98,#99);
#101 = PLANE('',#100);
#102 = FACE_SURFACE('',(#97),#101,.T.);
#103 = CLOSED_SHELL('',(#67,#74,#81,#88,#95,#102));
#104 = FACETED_BREP('silver horizontal front panel',#103);
#105 = CARTESIAN_POINT('',(-32.000000000,18.000000000,-6.000000000));
#106 = CARTESIAN_POINT('',(32.000000000,18.000000000,-6.000000000));
#107 = CARTESIAN_POINT('',(32.000000000,27.000000000,-6.000000000));
#108 = CARTESIAN_POINT('',(-32.000000000,27.000000000,-6.000000000));
#109 = CARTESIAN_POINT('',(-32.000000000,18.000000000,-4.000000000));
#110 = CARTESIAN_POINT('',(32.000000000,18.000000000,-4.000000000));
#111 = CARTESIAN_POINT('',(32.000000000,27.000000000,-4.000000000));
#112 = CARTESIAN_POINT('',(-32.000000000,27.000000000,-4.000000000));
#113 = POLY_LOOP('',(#105,#108,#107,#106));
#114 = FACE_OUTER_BOUND('',#113,.T.);
#115 = DIRECTION('',(0.000000000,0.000000000,-1.000000000));
#116 = DIRECTION('',(0.000000000,1.000000000,0.000000000));
#117 = AXIS2_PLACEMENT_3D('',#105,#115,#116);
#118 = PLANE('',#117);
#119 = FACE_SURFACE('',(#114),#118,.T.);
#120 = POLY_LOOP('',(#109,#110,#111,#112));
#121 = FACE_OUTER_BOUND('',#120,.T.);
#122 = DIRECTION('',(0.000000000,0.000000000,1.000000000));
#123 = DIRECTION('',(1.000000000,0.000000000,0.000000000));
#124 = AXIS2_PLACEMENT_3D('',#109,#122,#123);
#125 = PLANE('',#124);
#126 = FACE_SURFACE('',(#121),#125,.T.);
#127 = POLY_LOOP('',(#105,#106,#110,#109));
#128 = FACE_OUTER_BOUND('',#127,.T.);
#129 = DIRECTION('',(0.000000000,-1.000000000,0.000000000));
#130 = DIRECTION('',(1.000000000,0.000000000,0.000000000));
#131 = AXIS2_PLACEMENT_3D('',#105,#129,#130);
#132 = PLANE('',#131);
#133 = FACE_SURFACE('',(#128),#132,.T.);
#134 = POLY_LOOP('',(#106,#107,#111,#110));
#135 = FACE_OUTER_BOUND('',#134,.T.);
#136 = DIRECTION('',(1.000000000,0.000000000,0.000000000));
#137 = DIRECTION('',(0.000000000,1.000000000,0.000000000));
#138 = AXIS2_PLACEMENT_3D('',#106,#136,#137);
#139 = PLANE('',#138);
#140 = FACE_SURFACE('',(#135),#139,.T.);
#141 = POLY_LOOP('',(#107,#108,#112,#111));
#142 = FACE_OUTER_BOUND('',#141,.T.);
#143 = DIRECTION('',(0.000000000,1.000000000,0.000000000));
#144 = DIRECTION('',(-1.000000000,0.000000000,0.000000000));
#145 = AXIS2_PLACEMENT_3D('',#107,#143,#144);
#146 = PLANE('',#145);
#147 = FACE_SURFACE('',(#142),#146,.T.);
#148 = POLY_LOOP('',(#108,#105,#109,#112));
#149 = FACE_OUTER_BOUND('',#148,.T.);
#150 = DIRECTION('',(-1.000000000,0.000000000,0.000000000));
#151 = DIRECTION('',(0.000000000,-1.000000000,0.000000000));
#152 = AXIS2_PLACEMENT_3D('',#108,#150,#151);
#153 = PLANE('',#152);
#154 = FACE_SURFACE('',(#149),#153,.T.);
#155 = CLOSED_SHELL('',(#119,#126,#133,#140,#147,#154));
#156 = FACETED_BREP('black model nameplate',#155);
#157 = CARTESIAN_POINT('',(-41.000000000,10.000000000,-4.000000000));
#158 = CARTESIAN_POINT('',(-41.342604386,7.836881039,-4.000000000));
#159 = CARTESIAN_POINT('',(-42.336881039,5.885503234,-4.000000000));
#160 = CARTESIAN_POINT('',(-43.885503234,4.336881039,-4.000000000));
#161 = CARTESIAN_POINT('',(-45.836881039,3.342604386,-4.000000000));
#162 = CARTESIAN_POINT('',(-48.000000000,3.000000000,-4.000000000));
#163 = CARTESIAN_POINT('',(-50.163118961,3.342604386,-4.000000000));
#164 = CARTESIAN_POINT('',(-52.114496766,4.336881039,-4.000000000));
#165 = CARTESIAN_POINT('',(-53.663118961,5.885503234,-4.000000000));
#166 = CARTESIAN_POINT('',(-54.657395614,7.836881039,-4.000000000));
#167 = CARTESIAN_POINT('',(-55.000000000,10.000000000,-4.000000000));
#168 = CARTESIAN_POINT('',(-54.657395614,12.163118961,-4.000000000));
#169 = CARTESIAN_POINT('',(-53.663118961,14.114496766,-4.000000000));
#170 = CARTESIAN_POINT('',(-52.114496766,15.663118961,-4.000000000));
#171 = CARTESIAN_POINT('',(-50.163118961,16.657395614,-4.000000000));
#172 = CARTESIAN_POINT('',(-48.000000000,17.000000000,-4.000000000));
#173 = CARTESIAN_POINT('',(-45.836881039,16.657395614,-4.000000000));
#174 = CARTESIAN_POINT('',(-43.885503234,15.663118961,-4.000000000));
#175 = CARTESIAN_POINT('',(-42.336881039,14.114496766,-4.000000000));
#176 = CARTESIAN_POINT('',(-41.342604386,12.163118961,-4.000000000));
#177 = CARTESIAN_POINT('',(-41.000000000,10.000000000,-26.000000000));
#178 = CARTESIAN_POINT('',(-41.342604386,7.836881039,-26.000000000));
#179 = CARTESIAN_POINT('',(-42.336881039,5.885503234,-26.000000000));
#180 = CARTESIAN_POINT('',(-43.885503234,4.336881039,-26.000000000));
#181 = CARTESIAN_POINT('',(-45.836881039,3.342604386,-26.000000000));
#182 = CARTESIAN_POINT('',(-48.000000000,3.000000000,-26.000000000));
#183 = CARTESIAN_POINT('',(-50.163118961,3.342604386,-26.000000000));
#184 = CARTESIAN_POINT('',(-52.114496766,4.336881039,-26.000000000));
#185 = CARTESIAN_POINT('',(-53.663118961,5.885503234,-26.000000000));
#186 = CARTESIAN_POINT('',(-54.657395614,7.836881039,-26.000000000));
#187 = CARTESIAN_POINT('',(-55.000000000,10.000000000,-26.000000000));
#188 = CARTESIAN_POINT('',(-54.657395614,12.163118961,-26.000000000));
#189 = CARTESIAN_POINT('',(-53.663118961,14.114496766,-26.000000000));
#190 = CARTESIAN_POINT('',(-52.114496766,15.663118961,-26.000000000));
#191 = CARTESIAN_POINT('',(-50.163118961,16.657395614,-26.000000000));
#192 = CARTESIAN_POINT('',(-48.000000000,17.000000000,-26.000000000));
#193 = CARTESIAN_POINT('',(-45.836881039,16.657395614,-26.000000000));
#194 = CARTESIAN_POINT('',(-43.885503234,15.663118961,-26.000000000));
#195 = CARTESIAN_POINT('',(-42.336881039,14.114496766,-26.000000000));
#196 = CARTESIAN_POINT('',(-41.342604386,12.163118961,-26.000000000));
#197 = POLY_LOOP('',(#176,#175,#174,#173,#172,#171,#170,#169,#168,#167,#166,#165,#164,#163,#162,#161,#160,#159,#158,#157));
#198 = FACE_OUTER_BOUND('',#197,.T.);
#199 = DIRECTION('',(0.000000000,0.000000000,1.000000000));
#200 = DIRECTION('',(-0.453990500,0.891006524,0.000000000));
#201 = AXIS2_PLACEMENT_3D('',#176,#199,#200);
#202 = PLANE('',#201);
#203 = FACE_SURFACE('',(#198),#202,.T.);
#204 = POLY_LOOP('',(#177,#178,#179,#180,#181,#182,#183,#184,#185,#186,#187,#188,#189,#190,#191,#192,#193,#194,#195,#196));
#205 = FACE_OUTER_BOUND('',#204,.T.);
#206 = DIRECTION('',(0.000000000,0.000000000,-1.000000000));
#207 = DIRECTION('',(-0.156434465,-0.987688341,0.000000000));
#208 = AXIS2_PLACEMENT_3D('',#177,#206,#207);
#209 = PLANE('',#208);
#210 = FACE_SURFACE('',(#205),#209,.T.);
#211 = POLY_LOOP('',(#157,#158,#178,#177));
#212 = FACE_OUTER_BOUND('',#211,.T.);
#213 = DIRECTION('',(0.987688341,-0.156434465,0.000000000));
#214 = DIRECTION('',(-0.156434465,-0.987688341,0.000000000));
#215 = AXIS2_PLACEMENT_3D('',#157,#213,#214);
#216 = PLANE('',#215);
#217 = FACE_SURFACE('',(#212),#216,.T.);
#218 = POLY_LOOP('',(#158,#159,#179,#178));
#219 = FACE_OUTER_BOUND('',#218,.T.);
#220 = DIRECTION('',(0.891006524,-0.453990500,0.000000000));
#221 = DIRECTION('',(-0.453990500,-0.891006524,0.000000000));
#222 = AXIS2_PLACEMENT_3D('',#158,#220,#221);
#223 = PLANE('',#222);
#224 = FACE_SURFACE('',(#219),#223,.T.);
#225 = POLY_LOOP('',(#159,#160,#180,#179));
#226 = FACE_OUTER_BOUND('',#225,.T.);
#227 = DIRECTION('',(0.707106781,-0.707106781,0.000000000));
#228 = DIRECTION('',(-0.707106781,-0.707106781,0.000000000));
#229 = AXIS2_PLACEMENT_3D('',#159,#227,#228);
#230 = PLANE('',#229);
#231 = FACE_SURFACE('',(#226),#230,.T.);
#232 = POLY_LOOP('',(#160,#161,#181,#180));
#233 = FACE_OUTER_BOUND('',#232,.T.);
#234 = DIRECTION('',(0.453990500,-0.891006524,0.000000000));
#235 = DIRECTION('',(-0.891006524,-0.453990500,0.000000000));
#236 = AXIS2_PLACEMENT_3D('',#160,#234,#235);
#237 = PLANE('',#236);
#238 = FACE_SURFACE('',(#233),#237,.T.);
#239 = POLY_LOOP('',(#161,#162,#182,#181));
#240 = FACE_OUTER_BOUND('',#239,.T.);
#241 = DIRECTION('',(0.156434465,-0.987688341,0.000000000));
#242 = DIRECTION('',(-0.987688341,-0.156434465,0.000000000));
#243 = AXIS2_PLACEMENT_3D('',#161,#241,#242);
#244 = PLANE('',#243);
#245 = FACE_SURFACE('',(#240),#244,.T.);
#246 = POLY_LOOP('',(#162,#163,#183,#182));
#247 = FACE_OUTER_BOUND('',#246,.T.);
#248 = DIRECTION('',(-0.156434465,-0.987688341,0.000000000));
#249 = DIRECTION('',(-0.987688341,0.156434465,0.000000000));
#250 = AXIS2_PLACEMENT_3D('',#162,#248,#249);
#251 = PLANE('',#250);
#252 = FACE_SURFACE('',(#247),#251,.T.);
#253 = POLY_LOOP('',(#163,#164,#184,#183));
#254 = FACE_OUTER_BOUND('',#253,.T.);
#255 = DIRECTION('',(-0.453990500,-0.891006524,0.000000000));
#256 = DIRECTION('',(-0.891006524,0.453990500,0.000000000));
#257 = AXIS2_PLACEMENT_3D('',#163,#255,#256);
#258 = PLANE('',#257);
#259 = FACE_SURFACE('',(#254),#258,.T.);
#260 = POLY_LOOP('',(#164,#165,#185,#184));
#261 = FACE_OUTER_BOUND('',#260,.T.);
#262 = DIRECTION('',(-0.707106781,-0.707106781,0.000000000));
#263 = DIRECTION('',(-0.707106781,0.707106781,0.000000000));
#264 = AXIS2_PLACEMENT_3D('',#164,#262,#263);
#265 = PLANE('',#264);
#266 = FACE_SURFACE('',(#261),#265,.T.);
#267 = POLY_LOOP('',(#165,#166,#186,#185));
#268 = FACE_OUTER_BOUND('',#267,.T.);
#269 = DIRECTION('',(-0.891006524,-0.453990500,0.000000000));
#270 = DIRECTION('',(-0.453990500,0.891006524,0.000000000));
#271 = AXIS2_PLACEMENT_3D('',#165,#269,#270);
#272 = PLANE('',#271);
#273 = FACE_SURFACE('',(#268),#272,.T.);
#274 = POLY_LOOP('',(#166,#167,#187,#186));
#275 = FACE_OUTER_BOUND('',#274,.T.);
#276 = DIRECTION('',(-0.987688341,-0.156434465,0.000000000));
#277 = DIRECTION('',(-0.156434465,0.987688341,0.000000000));
#278 = AXIS2_PLACEMENT_3D('',#166,#276,#277);
#279 = PLANE('',#278);
#280 = FACE_SURFACE('',(#275),#279,.T.);
#281 = POLY_LOOP('',(#167,#168,#188,#187));
#282 = FACE_OUTER_BOUND('',#281,.T.);
#283 = DIRECTION('',(-0.987688341,0.156434465,0.000000000));
#284 = DIRECTION('',(0.156434465,0.987688341,0.000000000));
#285 = AXIS2_PLACEMENT_3D('',#167,#283,#284);
#286 = PLANE('',#285);
#287 = FACE_SURFACE('',(#282),#286,.T.);
#288 = POLY_LOOP('',(#168,#169,#189,#188));
#289 = FACE_OUTER_BOUND('',#288,.T.);
#290 = DIRECTION('',(-0.891006524,0.453990500,0.000000000));
#291 = DIRECTION('',(0.453990500,0.891006524,0.000000000));
#292 = AXIS2_PLACEMENT_3D('',#168,#290,#291);
#293 = PLANE('',#292);
#294 = FACE_SURFACE('',(#289),#293,.T.);
#295 = POLY_LOOP('',(#169,#170,#190,#189));
#296 = FACE_OUTER_BOUND('',#295,.T.);
#297 = DIRECTION('',(-0.707106781,0.707106781,0.000000000));
#298 = DIRECTION('',(0.707106781,0.707106781,0.000000000));
#299 = AXIS2_PLACEMENT_3D('',#169,#297,#298);
#300 = PLANE('',#299);
#301 = FACE_SURFACE('',(#296),#300,.T.);
#302 = POLY_LOOP('',(#170,#171,#191,#190));
#303 = FACE_OUTER_BOUND('',#302,.T.);
#304 = DIRECTION('',(-0.453990500,0.891006524,0.000000000));
#305 = DIRECTION('',(0.891006524,0.453990500,0.000000000));
#306 = AXIS2_PLACEMENT_3D('',#170,#304,#305);
#307 = PLANE('',#306);
#308 = FACE_SURFACE('',(#303),#307,.T.);
#309 = POLY_LOOP('',(#171,#172,#192,#191));
#310 = FACE_OUTER_BOUND('',#309,.T.);
#311 = DIRECTION('',(-0.156434465,0.987688341,0.000000000));
#312 = DIRECTION('',(0.987688341,0.156434465,0.000000000));
#313 = AXIS2_PLACEMENT_3D('',#171,#311,#312);
#314 = PLANE('',#313);
#315 = FACE_SURFACE('',(#310),#314,.T.);
#316 = POLY_LOOP('',(#172,#173,#193,#192));
#317 = FACE_OUTER_BOUND('',#316,.T.);
#318 = DIRECTION('',(0.156434465,0.987688341,0.000000000));
#319 = DIRECTION('',(0.987688341,-0.156434465,0.000000000));
#320 = AXIS2_PLACEMENT_3D('',#172,#318,#319);
#321 = PLANE('',#320);
#322 = FACE_SURFACE('',(#317),#321,.T.);
#323 = POLY_LOOP('',(#173,#174,#194,#193));
#324 = FACE_OUTER_BOUND('',#323,.T.);
#325 = DIRECTION('',(0.453990500,0.891006524,0.000000000));
#326 = DIRECTION('',(0.891006524,-0.453990500,0.000000000));
#327 = AXIS2_PLACEMENT_3D('',#173,#325,#326);
#328 = PLANE('',#327);
#329 = FACE_SURFACE('',(#324),#328,.T.);
#330 = POLY_LOOP('',(#174,#175,#195,#194));
#331 = FACE_OUTER_BOUND('',#330,.T.);
#332 = DIRECTION('',(0.707106781,0.707106781,0.000000000));
#333 = DIRECTION('',(0.707106781,-0.707106781,0.000000000));
#334 = AXIS2_PLACEMENT_3D('',#174,#332,#333);
#335 = PLANE('',#334);
#336 = FACE_SURFACE('',(#331),#335,.T.);
#337 = POLY_LOOP('',(#175,#176,#196,#195));
#338 = FACE_OUTER_BOUND('',#337,.T.);
#339 = DIRECTION('',(0.891006524,0.453990500,0.000000000));
#340 = DIRECTION('',(0.453990500,-0.891006524,0.000000000));
#341 = AXIS2_PLACEMENT_3D('',#175,#339,#340);
#342 = PLANE('',#341);
#343 = FACE_SURFACE('',(#338),#342,.T.);
#344 = POLY_LOOP('',(#176,#157,#177,#196));
#345 = FACE_OUTER_BOUND('',#344,.T.);
#346 = DIRECTION('',(0.987688341,0.156434465,0.000000000));
#347 = DIRECTION('',(0.156434465,-0.987688341,0.000000000));
#348 = AXIS2_PLACEMENT_3D('',#176,#346,#347);
#349 = PLANE('',#348);
#350 = FACE_SURFACE('',(#345),#349,.T.);
#351 = CLOSED_SHELL('',(#203,#210,#217,#224,#231,#238,#245,#252,#259,#266,#273,#280,#287,#294,#301,#308,#315,#322,#329,#336,#343,#350));
#352 = FACETED_BREP('gold optical connector',#351);
#353 = CARTESIAN_POINT('',(-45.000000000,10.000000000,-26.000000000));
#354 = CARTESIAN_POINT('',(-45.146830451,9.072949017,-26.000000000));
#355 = CARTESIAN_POINT('',(-45.572949017,8.236644243,-26.000000000));
#356 = CARTESIAN_POINT('',(-46.236644243,7.572949017,-26.000000000));
#357 = CARTESIAN_POINT('',(-47.072949017,7.146830451,-26.000000000));
#358 = CARTESIAN_POINT('',(-48.000000000,7.000000000,-26.000000000));
#359 = CARTESIAN_POINT('',(-48.927050983,7.146830451,-26.000000000));
#360 = CARTESIAN_POINT('',(-49.763355757,7.572949017,-26.000000000));
#361 = CARTESIAN_POINT('',(-50.427050983,8.236644243,-26.000000000));
#362 = CARTESIAN_POINT('',(-50.853169549,9.072949017,-26.000000000));
#363 = CARTESIAN_POINT('',(-51.000000000,10.000000000,-26.000000000));
#364 = CARTESIAN_POINT('',(-50.853169549,10.927050983,-26.000000000));
#365 = CARTESIAN_POINT('',(-50.427050983,11.763355757,-26.000000000));
#366 = CARTESIAN_POINT('',(-49.763355757,12.427050983,-26.000000000));
#367 = CARTESIAN_POINT('',(-48.927050983,12.853169549,-26.000000000));
#368 = CARTESIAN_POINT('',(-48.000000000,13.000000000,-26.000000000));
#369 = CARTESIAN_POINT('',(-47.072949017,12.853169549,-26.000000000));
#370 = CARTESIAN_POINT('',(-46.236644243,12.427050983,-26.000000000));
#371 = CARTESIAN_POINT('',(-45.572949017,11.763355757,-26.000000000));
#372 = CARTESIAN_POINT('',(-45.146830451,10.927050983,-26.000000000));
#373 = CARTESIAN_POINT('',(-45.000000000,10.000000000,-27.000000000));
#374 = CARTESIAN_POINT('',(-45.146830451,9.072949017,-27.000000000));
#375 = CARTESIAN_POINT('',(-45.572949017,8.236644243,-27.000000000));
#376 = CARTESIAN_POINT('',(-46.236644243,7.572949017,-27.000000000));
#377 = CARTESIAN_POINT('',(-47.072949017,7.146830451,-27.000000000));
#378 = CARTESIAN_POINT('',(-48.000000000,7.000000000,-27.000000000));
#379 = CARTESIAN_POINT('',(-48.927050983,7.146830451,-27.000000000));
#380 = CARTESIAN_POINT('',(-49.763355757,7.572949017,-27.000000000));
#381 = CARTESIAN_POINT('',(-50.427050983,8.236644243,-27.000000000));
#382 = CARTESIAN_POINT('',(-50.853169549,9.072949017,-27.000000000));
#383 = CARTESIAN_POINT('',(-51.000000000,10.000000000,-27.000000000));
#384 = CARTESIAN_POINT('',(-50.853169549,10.927050983,-27.000000000));
#385 = CARTESIAN_POINT('',(-50.427050983,11.763355757,-27.000000000));
#386 = CARTESIAN_POINT('',(-49.763355757,12.427050983,-27.000000000));
#387 = CARTESIAN_POINT('',(-48.927050983,12.853169549,-27.000000000));
#388 = CARTESIAN_POINT('',(-48.000000000,13.000000000,-27.000000000));
#389 = CARTESIAN_POINT('',(-47.072949017,12.853169549,-27.000000000));
#390 = CARTESIAN_POINT('',(-46.236644243,12.427050983,-27.000000000));
#391 = CARTESIAN_POINT('',(-45.572949017,11.763355757,-27.000000000));
#392 = CARTESIAN_POINT('',(-45.146830451,10.927050983,-27.000000000));
#393 = POLY_LOOP('',(#372,#371,#370,#369,#368,#367,#366,#365,#364,#363,#362,#361,#360,#359,#358,#357,#356,#355,#354,#353));
#394 = FACE_OUTER_BOUND('',#393,.T.);
#395 = DIRECTION('',(0.000000000,0.000000000,1.000000000));
#396 = DIRECTION('',(-0.453990500,0.891006524,0.000000000));
#397 = AXIS2_PLACEMENT_3D('',#372,#395,#396);
#398 = PLANE('',#397);
#399 = FACE_SURFACE('',(#394),#398,.T.);
#400 = POLY_LOOP('',(#373,#374,#375,#376,#377,#378,#379,#380,#381,#382,#383,#384,#385,#386,#387,#388,#389,#390,#391,#392));
#401 = FACE_OUTER_BOUND('',#400,.T.);
#402 = DIRECTION('',(0.000000000,0.000000000,-1.000000000));
#403 = DIRECTION('',(-0.156434465,-0.987688341,0.000000000));
#404 = AXIS2_PLACEMENT_3D('',#373,#402,#403);
#405 = PLANE('',#404);
#406 = FACE_SURFACE('',(#401),#405,.T.);
#407 = POLY_LOOP('',(#353,#354,#374,#373));
#408 = FACE_OUTER_BOUND('',#407,.T.);
#409 = DIRECTION('',(0.987688341,-0.156434465,0.000000000));
#410 = DIRECTION('',(-0.156434465,-0.987688341,0.000000000));
#411 = AXIS2_PLACEMENT_3D('',#353,#409,#410);
#412 = PLANE('',#411);
#413 = FACE_SURFACE('',(#408),#412,.T.);
#414 = POLY_LOOP('',(#354,#355,#375,#374));
#415 = FACE_OUTER_BOUND('',#414,.T.);
#416 = DIRECTION('',(0.891006524,-0.453990500,0.000000000));
#417 = DIRECTION('',(-0.453990500,-0.891006524,0.000000000));
#418 = AXIS2_PLACEMENT_3D('',#354,#416,#417);
#419 = PLANE('',#418);
#420 = FACE_SURFACE('',(#415),#419,.T.);
#421 = POLY_LOOP('',(#355,#356,#376,#375));
#422 = FACE_OUTER_BOUND('',#421,.T.);
#423 = DIRECTION('',(0.707106781,-0.707106781,0.000000000));
#424 = DIRECTION('',(-0.707106781,-0.707106781,0.000000000));
#425 = AXIS2_PLACEMENT_3D('',#355,#423,#424);
#426 = PLANE('',#425);
#427 = FACE_SURFACE('',(#422),#426,.T.);
#428 = POLY_LOOP('',(#356,#357,#377,#376));
#429 = FACE_OUTER_BOUND('',#428,.T.);
#430 = DIRECTION('',(0.453990500,-0.891006524,0.000000000));
#431 = DIRECTION('',(-0.891006524,-0.453990500,0.000000000));
#432 = AXIS2_PLACEMENT_3D('',#356,#430,#431);
#433 = PLANE('',#432);
#434 = FACE_SURFACE('',(#429),#433,.T.);
#435 = POLY_LOOP('',(#357,#358,#378,#377));
#436 = FACE_OUTER_BOUND('',#435,.T.);
#437 = DIRECTION('',(0.156434465,-0.987688341,0.000000000));
#438 = DIRECTION('',(-0.987688341,-0.156434465,0.000000000));
#439 = AXIS2_PLACEMENT_3D('',#357,#437,#438);
#440 = PLANE('',#439);
#441 = FACE_SURFACE('',(#436),#440,.T.);
#442 = POLY_LOOP('',(#358,#359,#379,#378));
#443 = FACE_OUTER_BOUND('',#442,.T.);
#444 = DIRECTION('',(-0.156434465,-0.987688341,0.000000000));
#445 = DIRECTION('',(-0.987688341,0.156434465,0.000000000));
#446 = AXIS2_PLACEMENT_3D('',#358,#444,#445);
#447 = PLANE('',#446);
#448 = FACE_SURFACE('',(#443),#447,.T.);
#449 = POLY_LOOP('',(#359,#360,#380,#379));
#450 = FACE_OUTER_BOUND('',#449,.T.);
#451 = DIRECTION('',(-0.453990500,-0.891006524,0.000000000));
#452 = DIRECTION('',(-0.891006524,0.453990500,0.000000000));
#453 = AXIS2_PLACEMENT_3D('',#359,#451,#452);
#454 = PLANE('',#453);
#455 = FACE_SURFACE('',(#450),#454,.T.);
#456 = POLY_LOOP('',(#360,#361,#381,#380));
#457 = FACE_OUTER_BOUND('',#456,.T.);
#458 = DIRECTION('',(-0.707106781,-0.707106781,0.000000000));
#459 = DIRECTION('',(-0.707106781,0.707106781,0.000000000));
#460 = AXIS2_PLACEMENT_3D('',#360,#458,#459);
#461 = PLANE('',#460);
#462 = FACE_SURFACE('',(#457),#461,.T.);
#463 = POLY_LOOP('',(#361,#362,#382,#381));
#464 = FACE_OUTER_BOUND('',#463,.T.);
#465 = DIRECTION('',(-0.891006524,-0.453990500,0.000000000));
#466 = DIRECTION('',(-0.453990500,0.891006524,0.000000000));
#467 = AXIS2_PLACEMENT_3D('',#361,#465,#466);
#468 = PLANE('',#467);
#469 = FACE_SURFACE('',(#464),#468,.T.);
#470 = POLY_LOOP('',(#362,#363,#383,#382));
#471 = FACE_OUTER_BOUND('',#470,.T.);
#472 = DIRECTION('',(-0.987688341,-0.156434465,0.000000000));
#473 = DIRECTION('',(-0.156434465,0.987688341,0.000000000));
#474 = AXIS2_PLACEMENT_3D('',#362,#472,#473);
#475 = PLANE('',#474);
#476 = FACE_SURFACE('',(#471),#475,.T.);
#477 = POLY_LOOP('',(#363,#364,#384,#383));
#478 = FACE_OUTER_BOUND('',#477,.T.);
#479 = DIRECTION('',(-0.987688341,0.156434465,0.000000000));
#480 = DIRECTION('',(0.156434465,0.987688341,0.000000000));
#481 = AXIS2_PLACEMENT_3D('',#363,#479,#480);
#482 = PLANE('',#481);
#483 = FACE_SURFACE('',(#478),#482,.T.);
#484 = POLY_LOOP('',(#364,#365,#385,#384));
#485 = FACE_OUTER_BOUND('',#484,.T.);
#486 = DIRECTION('',(-0.891006524,0.453990500,0.000000000));
#487 = DIRECTION('',(0.453990500,0.891006524,0.000000000));
#488 = AXIS2_PLACEMENT_3D('',#364,#486,#487);
#489 = PLANE('',#488);
#490 = FACE_SURFACE('',(#485),#489,.T.);
#491 = POLY_LOOP('',(#365,#366,#386,#385));
#492 = FACE_OUTER_BOUND('',#491,.T.);
#493 = DIRECTION('',(-0.707106781,0.707106781,0.000000000));
#494 = DIRECTION('',(0.707106781,0.707106781,0.000000000));
#495 = AXIS2_PLACEMENT_3D('',#365,#493,#494);
#496 = PLANE('',#495);
#497 = FACE_SURFACE('',(#492),#496,.T.);
#498 = POLY_LOOP('',(#366,#367,#387,#386));
#499 = FACE_OUTER_BOUND('',#498,.T.);
#500 = DIRECTION('',(-0.453990500,0.891006524,0.000000000));
#501 = DIRECTION('',(0.891006524,0.453990500,0.000000000));
#502 = AXIS2_PLACEMENT_3D('',#366,#500,#501);
#503 = PLANE('',#502);
#504 = FACE_SURFACE('',(#499),#503,.T.);
#505 = POLY_LOOP('',(#367,#368,#388,#387));
#506 = FACE_OUTER_BOUND('',#505,.T.);
#507 = DIRECTION('',(-0.156434465,0.987688341,0.000000000));
#508 = DIRECTION('',(0.987688341,0.156434465,0.000000000));
#509 = AXIS2_PLACEMENT_3D('',#367,#507,#508);
#510 = PLANE('',#509);
#511 = FACE_SURFACE('',(#506),#510,.T.);
#512 = POLY_LOOP('',(#368,#369,#389,#388));
#513 = FACE_OUTER_BOUND('',#512,.T.);
#514 = DIRECTION('',(0.156434465,0.987688341,0.000000000));
#515 = DIRECTION('',(0.987688341,-0.156434465,0.000000000));
#516 = AXIS2_PLACEMENT_3D('',#368,#514,#515);
#517 = PLANE('',#516);
#518 = FACE_SURFACE('',(#513),#517,.T.);
#519 = POLY_LOOP('',(#369,#370,#390,#389));
#520 = FACE_OUTER_BOUND('',#519,.T.);
#521 = DIRECTION('',(0.453990500,0.891006524,0.000000000));
#522 = DIRECTION('',(0.891006524,-0.453990500,0.000000000));
#523 = AXIS2_PLACEMENT_3D('',#369,#521,#522);
#524 = PLANE('',#523);
#525 = FACE_SURFACE('',(#520),#524,.T.);
#526 = POLY_LOOP('',(#370,#371,#391,#390));
#527 = FACE_OUTER_BOUND('',#526,.T.);
#528 = DIRECTION('',(0.707106781,0.707106781,0.000000000));
#529 = DIRECTION('',(0.707106781,-0.707106781,0.000000000));
#530 = AXIS2_PLACEMENT_3D('',#370,#528,#529);
#531 = PLANE('',#530);
#532 = FACE_SURFACE('',(#527),#531,.T.);
#533 = POLY_LOOP('',(#371,#372,#392,#391));
#534 = FACE_OUTER_BOUND('',#533,.T.);
#535 = DIRECTION('',(0.891006524,0.453990500,0.000000000));
#536 = DIRECTION('',(0.453990500,-0.891006524,0.000000000));
#537 = AXIS2_PLACEMENT_3D('',#371,#535,#536);
#538 = PLANE('',#537);
#539 = FACE_SURFACE('',(#534),#538,.T.);
#540 = POLY_LOOP('',(#372,#353,#373,#392));
#541 = FACE_OUTER_BOUND('',#540,.T.);
#542 = DIRECTION('',(0.987688341,0.156434465,0.000000000));
#543 = DIRECTION('',(0.156434465,-0.987688341,0.000000000));
#544 = AXIS2_PLACEMENT_3D('',#372,#542,#543);
#545 = PLANE('',#544);
#546 = FACE_SURFACE('',(#541),#545,.T.);
#547 = CLOSED_SHELL('',(#399,#406,#413,#420,#427,#434,#441,#448,#455,#462,#469,#476,#483,#490,#497,#504,#511,#518,#525,#532,#539,#546));
#548 = FACETED_BREP('black port aperture',#547);
#549 = CARTESIAN_POINT('',(55.000000000,10.000000000,-4.000000000));
#550 = CARTESIAN_POINT('',(54.657395614,7.836881039,-4.000000000));
#551 = CARTESIAN_POINT('',(53.663118961,5.885503234,-4.000000000));
#552 = CARTESIAN_POINT('',(52.114496766,4.336881039,-4.000000000));
#553 = CARTESIAN_POINT('',(50.163118961,3.342604386,-4.000000000));
#554 = CARTESIAN_POINT('',(48.000000000,3.000000000,-4.000000000));
#555 = CARTESIAN_POINT('',(45.836881039,3.342604386,-4.000000000));
#556 = CARTESIAN_POINT('',(43.885503234,4.336881039,-4.000000000));
#557 = CARTESIAN_POINT('',(42.336881039,5.885503234,-4.000000000));
#558 = CARTESIAN_POINT('',(41.342604386,7.836881039,-4.000000000));
#559 = CARTESIAN_POINT('',(41.000000000,10.000000000,-4.000000000));
#560 = CARTESIAN_POINT('',(41.342604386,12.163118961,-4.000000000));
#561 = CARTESIAN_POINT('',(42.336881039,14.114496766,-4.000000000));
#562 = CARTESIAN_POINT('',(43.885503234,15.663118961,-4.000000000));
#563 = CARTESIAN_POINT('',(45.836881039,16.657395614,-4.000000000));
#564 = CARTESIAN_POINT('',(48.000000000,17.000000000,-4.000000000));
#565 = CARTESIAN_POINT('',(50.163118961,16.657395614,-4.000000000));
#566 = CARTESIAN_POINT('',(52.114496766,15.663118961,-4.000000000));
#567 = CARTESIAN_POINT('',(53.663118961,14.114496766,-4.000000000));
#568 = CARTESIAN_POINT('',(54.657395614,12.163118961,-4.000000000));
#569 = CARTESIAN_POINT('',(55.000000000,10.000000000,-26.000000000));
#570 = CARTESIAN_POINT('',(54.657395614,7.836881039,-26.000000000));
#571 = CARTESIAN_POINT('',(53.663118961,5.885503234,-26.000000000));
#572 = CARTESIAN_POINT('',(52.114496766,4.336881039,-26.000000000));
#573 = CARTESIAN_POINT('',(50.163118961,3.342604386,-26.000000000));
#574 = CARTESIAN_POINT('',(48.000000000,3.000000000,-26.000000000));
#575 = CARTESIAN_POINT('',(45.836881039,3.342604386,-26.000000000));
#576 = CARTESIAN_POINT('',(43.885503234,4.336881039,-26.000000000));
#577 = CARTESIAN_POINT('',(42.336881039,5.885503234,-26.000000000));
#578 = CARTESIAN_POINT('',(41.342604386,7.836881039,-26.000000000));
#579 = CARTESIAN_POINT('',(41.000000000,10.000000000,-26.000000000));
#580 = CARTESIAN_POINT('',(41.342604386,12.163118961,-26.000000000));
#581 = CARTESIAN_POINT('',(42.336881039,14.114496766,-26.000000000));
#582 = CARTESIAN_POINT('',(43.885503234,15.663118961,-26.000000000));
#583 = CARTESIAN_POINT('',(45.836881039,16.657395614,-26.000000000));
#584 = CARTESIAN_POINT('',(48.000000000,17.000000000,-26.000000000));
#585 = CARTESIAN_POINT('',(50.163118961,16.657395614,-26.000000000));
#586 = CARTESIAN_POINT('',(52.114496766,15.663118961,-26.000000000));
#587 = CARTESIAN_POINT('',(53.663118961,14.114496766,-26.000000000));
#588 = CARTESIAN_POINT('',(54.657395614,12.163118961,-26.000000000));
#589 = POLY_LOOP('',(#568,#567,#566,#565,#564,#563,#562,#561,#560,#559,#558,#557,#556,#555,#554,#553,#552,#551,#550,#549));
#590 = FACE_OUTER_BOUND('',#589,.T.);
#591 = DIRECTION('',(0.000000000,0.000000000,1.000000000));
#592 = DIRECTION('',(-0.453990500,0.891006524,0.000000000));
#593 = AXIS2_PLACEMENT_3D('',#568,#591,#592);
#594 = PLANE('',#593);
#595 = FACE_SURFACE('',(#590),#594,.T.);
#596 = POLY_LOOP('',(#569,#570,#571,#572,#573,#574,#575,#576,#577,#578,#579,#580,#581,#582,#583,#584,#585,#586,#587,#588));
#597 = FACE_OUTER_BOUND('',#596,.T.);
#598 = DIRECTION('',(0.000000000,0.000000000,-1.000000000));
#599 = DIRECTION('',(-0.156434465,-0.987688341,0.000000000));
#600 = AXIS2_PLACEMENT_3D('',#569,#598,#599);
#601 = PLANE('',#600);
#602 = FACE_SURFACE('',(#597),#601,.T.);
#603 = POLY_LOOP('',(#549,#550,#570,#569));
#604 = FACE_OUTER_BOUND('',#603,.T.);
#605 = DIRECTION('',(0.987688341,-0.156434465,0.000000000));
#606 = DIRECTION('',(-0.156434465,-0.987688341,0.000000000));
#607 = AXIS2_PLACEMENT_3D('',#549,#605,#606);
#608 = PLANE('',#607);
#609 = FACE_SURFACE('',(#604),#608,.T.);
#610 = POLY_LOOP('',(#550,#551,#571,#570));
#611 = FACE_OUTER_BOUND('',#610,.T.);
#612 = DIRECTION('',(0.891006524,-0.453990500,0.000000000));
#613 = DIRECTION('',(-0.453990500,-0.891006524,0.000000000));
#614 = AXIS2_PLACEMENT_3D('',#550,#612,#613);
#615 = PLANE('',#614);
#616 = FACE_SURFACE('',(#611),#615,.T.);
#617 = POLY_LOOP('',(#551,#552,#572,#571));
#618 = FACE_OUTER_BOUND('',#617,.T.);
#619 = DIRECTION('',(0.707106781,-0.707106781,0.000000000));
#620 = DIRECTION('',(-0.707106781,-0.707106781,0.000000000));
#621 = AXIS2_PLACEMENT_3D('',#551,#619,#620);
#622 = PLANE('',#621);
#623 = FACE_SURFACE('',(#618),#622,.T.);
#624 = POLY_LOOP('',(#552,#553,#573,#572));
#625 = FACE_OUTER_BOUND('',#624,.T.);
#626 = DIRECTION('',(0.453990500,-0.891006524,0.000000000));
#627 = DIRECTION('',(-0.891006524,-0.453990500,0.000000000));
#628 = AXIS2_PLACEMENT_3D('',#552,#626,#627);
#629 = PLANE('',#628);
#630 = FACE_SURFACE('',(#625),#629,.T.);
#631 = POLY_LOOP('',(#553,#554,#574,#573));
#632 = FACE_OUTER_BOUND('',#631,.T.);
#633 = DIRECTION('',(0.156434465,-0.987688341,0.000000000));
#634 = DIRECTION('',(-0.987688341,-0.156434465,0.000000000));
#635 = AXIS2_PLACEMENT_3D('',#553,#633,#634);
#636 = PLANE('',#635);
#637 = FACE_SURFACE('',(#632),#636,.T.);
#638 = POLY_LOOP('',(#554,#555,#575,#574));
#639 = FACE_OUTER_BOUND('',#638,.T.);
#640 = DIRECTION('',(-0.156434465,-0.987688341,0.000000000));
#641 = DIRECTION('',(-0.987688341,0.156434465,0.000000000));
#642 = AXIS2_PLACEMENT_3D('',#554,#640,#641);
#643 = PLANE('',#642);
#644 = FACE_SURFACE('',(#639),#643,.T.);
#645 = POLY_LOOP('',(#555,#556,#576,#575));
#646 = FACE_OUTER_BOUND('',#645,.T.);
#647 = DIRECTION('',(-0.453990500,-0.891006524,0.000000000));
#648 = DIRECTION('',(-0.891006524,0.453990500,0.000000000));
#649 = AXIS2_PLACEMENT_3D('',#555,#647,#648);
#650 = PLANE('',#649);
#651 = FACE_SURFACE('',(#646),#650,.T.);
#652 = POLY_LOOP('',(#556,#557,#577,#576));
#653 = FACE_OUTER_BOUND('',#652,.T.);
#654 = DIRECTION('',(-0.707106781,-0.707106781,0.000000000));
#655 = DIRECTION('',(-0.707106781,0.707106781,0.000000000));
#656 = AXIS2_PLACEMENT_3D('',#556,#654,#655);
#657 = PLANE('',#656);
#658 = FACE_SURFACE('',(#653),#657,.T.);
#659 = POLY_LOOP('',(#557,#558,#578,#577));
#660 = FACE_OUTER_BOUND('',#659,.T.);
#661 = DIRECTION('',(-0.891006524,-0.453990500,0.000000000));
#662 = DIRECTION('',(-0.453990500,0.891006524,0.000000000));
#663 = AXIS2_PLACEMENT_3D('',#557,#661,#662);
#664 = PLANE('',#663);
#665 = FACE_SURFACE('',(#660),#664,.T.);
#666 = POLY_LOOP('',(#558,#559,#579,#578));
#667 = FACE_OUTER_BOUND('',#666,.T.);
#668 = DIRECTION('',(-0.987688341,-0.156434465,0.000000000));
#669 = DIRECTION('',(-0.156434465,0.987688341,0.000000000));
#670 = AXIS2_PLACEMENT_3D('',#558,#668,#669);
#671 = PLANE('',#670);
#672 = FACE_SURFACE('',(#667),#671,.T.);
#673 = POLY_LOOP('',(#559,#560,#580,#579));
#674 = FACE_OUTER_BOUND('',#673,.T.);
#675 = DIRECTION('',(-0.987688341,0.156434465,0.000000000));
#676 = DIRECTION('',(0.156434465,0.987688341,0.000000000));
#677 = AXIS2_PLACEMENT_3D('',#559,#675,#676);
#678 = PLANE('',#677);
#679 = FACE_SURFACE('',(#674),#678,.T.);
#680 = POLY_LOOP('',(#560,#561,#581,#580));
#681 = FACE_OUTER_BOUND('',#680,.T.);
#682 = DIRECTION('',(-0.891006524,0.453990500,0.000000000));
#683 = DIRECTION('',(0.453990500,0.891006524,0.000000000));
#684 = AXIS2_PLACEMENT_3D('',#560,#682,#683);
#685 = PLANE('',#684);
#686 = FACE_SURFACE('',(#681),#685,.T.);
#687 = POLY_LOOP('',(#561,#562,#582,#581));
#688 = FACE_OUTER_BOUND('',#687,.T.);
#689 = DIRECTION('',(-0.707106781,0.707106781,0.000000000));
#690 = DIRECTION('',(0.707106781,0.707106781,0.000000000));
#691 = AXIS2_PLACEMENT_3D('',#561,#689,#690);
#692 = PLANE('',#691);
#693 = FACE_SURFACE('',(#688),#692,.T.);
#694 = POLY_LOOP('',(#562,#563,#583,#582));
#695 = FACE_OUTER_BOUND('',#694,.T.);
#696 = DIRECTION('',(-0.453990500,0.891006524,0.000000000));
#697 = DIRECTION('',(0.891006524,0.453990500,0.000000000));
#698 = AXIS2_PLACEMENT_3D('',#562,#696,#697);
#699 = PLANE('',#698);
#700 = FACE_SURFACE('',(#695),#699,.T.);
#701 = POLY_LOOP('',(#563,#564,#584,#583));
#702 = FACE_OUTER_BOUND('',#701,.T.);
#703 = DIRECTION('',(-0.156434465,0.987688341,0.000000000));
#704 = DIRECTION('',(0.987688341,0.156434465,0.000000000));
#705 = AXIS2_PLACEMENT_3D('',#563,#703,#704);
#706 = PLANE('',#705);
#707 = FACE_SURFACE('',(#702),#706,.T.);
#708 = POLY_LOOP('',(#564,#565,#585,#584));
#709 = FACE_OUTER_BOUND('',#708,.T.);
#710 = DIRECTION('',(0.156434465,0.987688341,0.000000000));
#711 = DIRECTION('',(0.987688341,-0.156434465,0.000000000));
#712 = AXIS2_PLACEMENT_3D('',#564,#710,#711);
#713 = PLANE('',#712);
#714 = FACE_SURFACE('',(#709),#713,.T.);
#715 = POLY_LOOP('',(#565,#566,#586,#585));
#716 = FACE_OUTER_BOUND('',#715,.T.);
#717 = DIRECTION('',(0.453990500,0.891006524,0.000000000));
#718 = DIRECTION('',(0.891006524,-0.453990500,0.000000000));
#719 = AXIS2_PLACEMENT_3D('',#565,#717,#718);
#720 = PLANE('',#719);
#721 = FACE_SURFACE('',(#716),#720,.T.);
#722 = POLY_LOOP('',(#566,#567,#587,#586));
#723 = FACE_OUTER_BOUND('',#722,.T.);
#724 = DIRECTION('',(0.707106781,0.707106781,0.000000000));
#725 = DIRECTION('',(0.707106781,-0.707106781,0.000000000));
#726 = AXIS2_PLACEMENT_3D('',#566,#724,#725);
#727 = PLANE('',#726);
#728 = FACE_SURFACE('',(#723),#727,.T.);
#729 = POLY_LOOP('',(#567,#568,#588,#587));
#730 = FACE_OUTER_BOUND('',#729,.T.);
#731 = DIRECTION('',(0.891006524,0.453990500,0.000000000));
#732 = DIRECTION('',(0.453990500,-0.891006524,0.000000000));
#733 = AXIS2_PLACEMENT_3D('',#567,#731,#732);
#734 = PLANE('',#733);
#735 = FACE_SURFACE('',(#730),#734,.T.);
#736 = POLY_LOOP('',(#568,#549,#569,#588));
#737 = FACE_OUTER_BOUND('',#736,.T.);
#738 = DIRECTION('',(0.987688341,0.156434465,0.000000000));
#739 = DIRECTION('',(0.156434465,-0.987688341,0.000000000));
#740 = AXIS2_PLACEMENT_3D('',#568,#738,#739);
#741 = PLANE('',#740);
#742 = FACE_SURFACE('',(#737),#741,.T.);
#743 = CLOSED_SHELL('',(#595,#602,#609,#616,#623,#630,#637,#644,#651,#658,#665,#672,#679,#686,#693,#700,#707,#714,#721,#728,#735,#742));
#744 = FACETED_BREP('gold optical connector',#743);
#745 = CARTESIAN_POINT('',(51.000000000,10.000000000,-26.000000000));
#746 = CARTESIAN_POINT('',(50.853169549,9.072949017,-26.000000000));
#747 = CARTESIAN_POINT('',(50.427050983,8.236644243,-26.000000000));
#748 = CARTESIAN_POINT('',(49.763355757,7.572949017,-26.000000000));
#749 = CARTESIAN_POINT('',(48.927050983,7.146830451,-26.000000000));
#750 = CARTESIAN_POINT('',(48.000000000,7.000000000,-26.000000000));
#751 = CARTESIAN_POINT('',(47.072949017,7.146830451,-26.000000000));
#752 = CARTESIAN_POINT('',(46.236644243,7.572949017,-26.000000000));
#753 = CARTESIAN_POINT('',(45.572949017,8.236644243,-26.000000000));
#754 = CARTESIAN_POINT('',(45.146830451,9.072949017,-26.000000000));
#755 = CARTESIAN_POINT('',(45.000000000,10.000000000,-26.000000000));
#756 = CARTESIAN_POINT('',(45.146830451,10.927050983,-26.000000000));
#757 = CARTESIAN_POINT('',(45.572949017,11.763355757,-26.000000000));
#758 = CARTESIAN_POINT('',(46.236644243,12.427050983,-26.000000000));
#759 = CARTESIAN_POINT('',(47.072949017,12.853169549,-26.000000000));
#760 = CARTESIAN_POINT('',(48.000000000,13.000000000,-26.000000000));
#761 = CARTESIAN_POINT('',(48.927050983,12.853169549,-26.000000000));
#762 = CARTESIAN_POINT('',(49.763355757,12.427050983,-26.000000000));
#763 = CARTESIAN_POINT('',(50.427050983,11.763355757,-26.000000000));
#764 = CARTESIAN_POINT('',(50.853169549,10.927050983,-26.000000000));
#765 = CARTESIAN_POINT('',(51.000000000,10.000000000,-27.000000000));
#766 = CARTESIAN_POINT('',(50.853169549,9.072949017,-27.000000000));
#767 = CARTESIAN_POINT('',(50.427050983,8.236644243,-27.000000000));
#768 = CARTESIAN_POINT('',(49.763355757,7.572949017,-27.000000000));
#769 = CARTESIAN_POINT('',(48.927050983,7.146830451,-27.000000000));
#770 = CARTESIAN_POINT('',(48.000000000,7.000000000,-27.000000000));
#771 = CARTESIAN_POINT('',(47.072949017,7.146830451,-27.000000000));
#772 = CARTESIAN_POINT('',(46.236644243,7.572949017,-27.000000000));
#773 = CARTESIAN_POINT('',(45.572949017,8.236644243,-27.000000000));
#774 = CARTESIAN_POINT('',(45.146830451,9.072949017,-27.000000000));
#775 = CARTESIAN_POINT('',(45.000000000,10.000000000,-27.000000000));
#776 = CARTESIAN_POINT('',(45.146830451,10.927050983,-27.000000000));
#777 = CARTESIAN_POINT('',(45.572949017,11.763355757,-27.000000000));
#778 = CARTESIAN_POINT('',(46.236644243,12.427050983,-27.000000000));
#779 = CARTESIAN_POINT('',(47.072949017,12.853169549,-27.000000000));
#780 = CARTESIAN_POINT('',(48.000000000,13.000000000,-27.000000000));
#781 = CARTESIAN_POINT('',(48.927050983,12.853169549,-27.000000000));
#782 = CARTESIAN_POINT('',(49.763355757,12.427050983,-27.000000000));
#783 = CARTESIAN_POINT('',(50.427050983,11.763355757,-27.000000000));
#784 = CARTESIAN_POINT('',(50.853169549,10.927050983,-27.000000000));
#785 = POLY_LOOP('',(#764,#763,#762,#761,#760,#759,#758,#757,#756,#755,#754,#753,#752,#751,#750,#749,#748,#747,#746,#745));
#786 = FACE_OUTER_BOUND('',#785,.T.);
#787 = DIRECTION('',(0.000000000,0.000000000,1.000000000));
#788 = DIRECTION('',(-0.453990500,0.891006524,0.000000000));
#789 = AXIS2_PLACEMENT_3D('',#764,#787,#788);
#790 = PLANE('',#789);
#791 = FACE_SURFACE('',(#786),#790,.T.);
#792 = POLY_LOOP('',(#765,#766,#767,#768,#769,#770,#771,#772,#773,#774,#775,#776,#777,#778,#779,#780,#781,#782,#783,#784));
#793 = FACE_OUTER_BOUND('',#792,.T.);
#794 = DIRECTION('',(0.000000000,0.000000000,-1.000000000));
#795 = DIRECTION('',(-0.156434465,-0.987688341,0.000000000));
#796 = AXIS2_PLACEMENT_3D('',#765,#794,#795);
#797 = PLANE('',#796);
#798 = FACE_SURFACE('',(#793),#797,.T.);
#799 = POLY_LOOP('',(#745,#746,#766,#765));
#800 = FACE_OUTER_BOUND('',#799,.T.);
#801 = DIRECTION('',(0.987688341,-0.156434465,0.000000000));
#802 = DIRECTION('',(-0.156434465,-0.987688341,0.000000000));
#803 = AXIS2_PLACEMENT_3D('',#745,#801,#802);
#804 = PLANE('',#803);
#805 = FACE_SURFACE('',(#800),#804,.T.);
#806 = POLY_LOOP('',(#746,#747,#767,#766));
#807 = FACE_OUTER_BOUND('',#806,.T.);
#808 = DIRECTION('',(0.891006524,-0.453990500,0.000000000));
#809 = DIRECTION('',(-0.453990500,-0.891006524,0.000000000));
#810 = AXIS2_PLACEMENT_3D('',#746,#808,#809);
#811 = PLANE('',#810);
#812 = FACE_SURFACE('',(#807),#811,.T.);
#813 = POLY_LOOP('',(#747,#748,#768,#767));
#814 = FACE_OUTER_BOUND('',#813,.T.);
#815 = DIRECTION('',(0.707106781,-0.707106781,0.000000000));
#816 = DIRECTION('',(-0.707106781,-0.707106781,0.000000000));
#817 = AXIS2_PLACEMENT_3D('',#747,#815,#816);
#818 = PLANE('',#817);
#819 = FACE_SURFACE('',(#814),#818,.T.);
#820 = POLY_LOOP('',(#748,#749,#769,#768));
#821 = FACE_OUTER_BOUND('',#820,.T.);
#822 = DIRECTION('',(0.453990500,-0.891006524,0.000000000));
#823 = DIRECTION('',(-0.891006524,-0.453990500,0.000000000));
#824 = AXIS2_PLACEMENT_3D('',#748,#822,#823);
#825 = PLANE('',#824);
#826 = FACE_SURFACE('',(#821),#825,.T.);
#827 = POLY_LOOP('',(#749,#750,#770,#769));
#828 = FACE_OUTER_BOUND('',#827,.T.);
#829 = DIRECTION('',(0.156434465,-0.987688341,0.000000000));
#830 = DIRECTION('',(-0.987688341,-0.156434465,0.000000000));
#831 = AXIS2_PLACEMENT_3D('',#749,#829,#830);
#832 = PLANE('',#831);
#833 = FACE_SURFACE('',(#828),#832,.T.);
#834 = POLY_LOOP('',(#750,#751,#771,#770));
#835 = FACE_OUTER_BOUND('',#834,.T.);
#836 = DIRECTION('',(-0.156434465,-0.987688341,0.000000000));
#837 = DIRECTION('',(-0.987688341,0.156434465,0.000000000));
#838 = AXIS2_PLACEMENT_3D('',#750,#836,#837);
#839 = PLANE('',#838);
#840 = FACE_SURFACE('',(#835),#839,.T.);
#841 = POLY_LOOP('',(#751,#752,#772,#771));
#842 = FACE_OUTER_BOUND('',#841,.T.);
#843 = DIRECTION('',(-0.453990500,-0.891006524,0.000000000));
#844 = DIRECTION('',(-0.891006524,0.453990500,0.000000000));
#845 = AXIS2_PLACEMENT_3D('',#751,#843,#844);
#846 = PLANE('',#845);
#847 = FACE_SURFACE('',(#842),#846,.T.);
#848 = POLY_LOOP('',(#752,#753,#773,#772));
#849 = FACE_OUTER_BOUND('',#848,.T.);
#850 = DIRECTION('',(-0.707106781,-0.707106781,0.000000000));
#851 = DIRECTION('',(-0.707106781,0.707106781,0.000000000));
#852 = AXIS2_PLACEMENT_3D('',#752,#850,#851);
#853 = PLANE('',#852);
#854 = FACE_SURFACE('',(#849),#853,.T.);
#855 = POLY_LOOP('',(#753,#754,#774,#773));
#856 = FACE_OUTER_BOUND('',#855,.T.);
#857 = DIRECTION('',(-0.891006524,-0.453990500,0.000000000));
#858 = DIRECTION('',(-0.453990500,0.891006524,0.000000000));
#859 = AXIS2_PLACEMENT_3D('',#753,#857,#858);
#860 = PLANE('',#859);
#861 = FACE_SURFACE('',(#856),#860,.T.);
#862 = POLY_LOOP('',(#754,#755,#775,#774));
#863 = FACE_OUTER_BOUND('',#862,.T.);
#864 = DIRECTION('',(-0.987688341,-0.156434465,0.000000000));
#865 = DIRECTION('',(-0.156434465,0.987688341,0.000000000));
#866 = AXIS2_PLACEMENT_3D('',#754,#864,#865);
#867 = PLANE('',#866);
#868 = FACE_SURFACE('',(#863),#867,.T.);
#869 = POLY_LOOP('',(#755,#756,#776,#775));
#870 = FACE_OUTER_BOUND('',#869,.T.);
#871 = DIRECTION('',(-0.987688341,0.156434465,0.000000000));
#872 = DIRECTION('',(0.156434465,0.987688341,0.000000000));
#873 = AXIS2_PLACEMENT_3D('',#755,#871,#872);
#874 = PLANE('',#873);
#875 = FACE_SURFACE('',(#870),#874,.T.);
#876 = POLY_LOOP('',(#756,#757,#777,#776));
#877 = FACE_OUTER_BOUND('',#876,.T.);
#878 = DIRECTION('',(-0.891006524,0.453990500,0.000000000));
#879 = DIRECTION('',(0.453990500,0.891006524,0.000000000));
#880 = AXIS2_PLACEMENT_3D('',#756,#878,#879);
#881 = PLANE('',#880);
#882 = FACE_SURFACE('',(#877),#881,.T.);
#883 = POLY_LOOP('',(#757,#758,#778,#777));
#884 = FACE_OUTER_BOUND('',#883,.T.);
#885 = DIRECTION('',(-0.707106781,0.707106781,0.000000000));
#886 = DIRECTION('',(0.707106781,0.707106781,0.000000000));
#887 = AXIS2_PLACEMENT_3D('',#757,#885,#886);
#888 = PLANE('',#887);
#889 = FACE_SURFACE('',(#884),#888,.T.);
#890 = POLY_LOOP('',(#758,#759,#779,#778));
#891 = FACE_OUTER_BOUND('',#890,.T.);
#892 = DIRECTION('',(-0.453990500,0.891006524,0.000000000));
#893 = DIRECTION('',(0.891006524,0.453990500,0.000000000));
#894 = AXIS2_PLACEMENT_3D('',#758,#892,#893);
#895 = PLANE('',#894);
#896 = FACE_SURFACE('',(#891),#895,.T.);
#897 = POLY_LOOP('',(#759,#760,#780,#779));
#898 = FACE_OUTER_BOUND('',#897,.T.);
#899 = DIRECTION('',(-0.156434465,0.987688341,0.000000000));
#900 = DIRECTION('',(0.987688341,0.156434465,0.000000000));
#901 = AXIS2_PLACEMENT_3D('',#759,#899,#900);
#902 = PLANE('',#901);
#903 = FACE_SURFACE('',(#898),#902,.T.);
#904 = POLY_LOOP('',(#760,#761,#781,#780));
#905 = FACE_OUTER_BOUND('',#904,.T.);
#906 = DIRECTION('',(0.156434465,0.987688341,0.000000000));
#907 = DIRECTION('',(0.987688341,-0.156434465,0.000000000));
#908 = AXIS2_PLACEMENT_3D('',#760,#906,#907);
#909 = PLANE('',#908);
#910 = FACE_SURFACE('',(#905),#909,.T.);
#911 = POLY_LOOP('',(#761,#762,#782,#781));
#912 = FACE_OUTER_BOUND('',#911,.T.);
#913 = DIRECTION('',(0.453990500,0.891006524,0.000000000));
#914 = DIRECTION('',(0.891006524,-0.453990500,0.000000000));
#915 = AXIS2_PLACEMENT_3D('',#761,#913,#914);
#916 = PLANE('',#915);
#917 = FACE_SURFACE('',(#912),#916,.T.);
#918 = POLY_LOOP('',(#762,#763,#783,#782));
#919 = FACE_OUTER_BOUND('',#918,.T.);
#920 = DIRECTION('',(0.707106781,0.707106781,0.000000000));
#921 = DIRECTION('',(0.707106781,-0.707106781,0.000000000));
#922 = AXIS2_PLACEMENT_3D('',#762,#920,#921);
#923 = PLANE('',#922);
#924 = FACE_SURFACE('',(#919),#923,.T.);
#925 = POLY_LOOP('',(#763,#764,#784,#783));
#926 = FACE_OUTER_BOUND('',#925,.T.);
#927 = DIRECTION('',(0.891006524,0.453990500,0.000000000));
#928 = DIRECTION('',(0.453990500,-0.891006524,0.000000000));
#929 = AXIS2_PLACEMENT_3D('',#763,#927,#928);
#930 = PLANE('',#929);
#931 = FACE_SURFACE('',(#926),#930,.T.);
#932 = POLY_LOOP('',(#764,#745,#765,#784));
#933 = FACE_OUTER_BOUND('',#932,.T.);
#934 = DIRECTION('',(0.987688341,0.156434465,0.000000000));
#935 = DIRECTION('',(0.156434465,-0.987688341,0.000000000));
#936 = AXIS2_PLACEMENT_3D('',#764,#934,#935);
#937 = PLANE('',#936);
#938 = FACE_SURFACE('',(#933),#937,.T.);
#939 = CLOSED_SHELL('',(#791,#798,#805,#812,#819,#826,#833,#840,#847,#854,#861,#868,#875,#882,#889,#896,#903,#910,#917,#924,#931,#938));
#940 = FACETED_BREP('black port aperture',#939);
#941 = CARTESIAN_POINT('',(78.000000000,8.000000000,30.000000000));
#942 = CARTESIAN_POINT('',(79.000000000,8.000000000,30.000000000));
#943 = CARTESIAN_POINT('',(79.000000000,20.000000000,30.000000000));
#944 = CARTESIAN_POINT('',(78.000000000,20.000000000,30.000000000));
#945 = CARTESIAN_POINT('',(78.000000000,8.000000000,45.000000000));
#946 = CARTESIAN_POINT('',(79.000000000,8.000000000,45.000000000));
#947 = CARTESIAN_POINT('',(79.000000000,20.000000000,45.000000000));
#948 = CARTESIAN_POINT('',(78.000000000,20.000000000,45.000000000));
#949 = POLY_LOOP('',(#941,#944,#943,#942));
#950 = FACE_OUTER_BOUND('',#949,.T.);
#951 = DIRECTION('',(0.000000000,0.000000000,-1.000000000));
#952 = DIRECTION('',(0.000000000,1.000000000,0.000000000));
#953 = AXIS2_PLACEMENT_3D('',#941,#951,#952);
#954 = PLANE('',#953);
#955 = FACE_SURFACE('',(#950),#954,.T.);
#956 = POLY_LOOP('',(#945,#946,#947,#948));
#957 = FACE_OUTER_BOUND('',#956,.T.);
#958 = DIRECTION('',(0.000000000,0.000000000,1.000000000));
#959 = DIRECTION('',(1.000000000,0.000000000,0.000000000));
#960 = AXIS2_PLACEMENT_3D('',#945,#958,#959);
#961 = PLANE('',#960);
#962 = FACE_SURFACE('',(#957),#961,.T.);
#963 = POLY_LOOP('',(#941,#942,#946,#945));
#964 = FACE_OUTER_BOUND('',#963,.T.);
#965 = DIRECTION('',(0.000000000,-1.000000000,0.000000000));
#966 = DIRECTION('',(1.000000000,0.000000000,0.000000000));
#967 = AXIS2_PLACEMENT_3D('',#941,#965,#966);
#968 = PLANE('',#967);
#969 = FACE_SURFACE('',(#964),#968,.T.);
#970 = POLY_LOOP('',(#942,#943,#947,#946));
#971 = FACE_OUTER_BOUND('',#970,.T.);
#972 = DIRECTION('',(1.000000000,0.000000000,0.000000000));
#973 = DIRECTION('',(0.000000000,1.000000000,0.000000000));
#974 = AXIS2_PLACEMENT_3D('',#942,#972,#973);
#975 = PLANE('',#974);
#976 = FACE_SURFACE('',(#971),#975,.T.);
#977 = POLY_LOOP('',(#943,#944,#948,#947));
#978 = FACE_OUTER_BOUND('',#977,.T.);
#979 = DIRECTION('',(0.000000000,1.000000000,0.000000000));
#980 = DIRECTION('',(-1.000000000,0.000000000,0.000000000));
#981 = AXIS2_PLACEMENT_3D('',#943,#979,#980);
#982 = PLANE('',#981);
#983 = FACE_SURFACE('',(#978),#982,.T.);
#984 = POLY_LOOP('',(#944,#941,#945,#948));
#985 = FACE_OUTER_BOUND('',#984,.T.);
#986 = DIRECTION('',(-1.000000000,0.000000000,0.000000000));
#987 = DIRECTION('',(0.000000000,-1.000000000,0.000000000));
#988 = AXIS2_PLACEMENT_3D('',#944,#986,#987);
#989 = PLANE('',#988);
#990 = FACE_SURFACE('',(#985),#989,.T.);
#991 = CLOSED_SHELL('',(#955,#962,#969,#976,#983,#990));
#992 = FACETED_BREP('black ventilation',#991);
#993 = CARTESIAN_POINT('',(78.000000000,8.000000000,70.000000000));
#994 = CARTESIAN_POINT('',(79.000000000,8.000000000,70.000000000));
#995 = CARTESIAN_POINT('',(79.000000000,20.000000000,70.000000000));
#996 = CARTESIAN_POINT('',(78.000000000,20.000000000,70.000000000));
#997 = CARTESIAN_POINT('',(78.000000000,8.000000000,85.000000000));
#998 = CARTESIAN_POINT('',(79.000000000,8.000000000,85.000000000));
#999 = CARTESIAN_POINT('',(79.000000000,20.000000000,85.000000000));
#1000 = CARTESIAN_POINT('',(78.000000000,20.000000000,85.000000000));
#1001 = POLY_LOOP('',(#993,#996,#995,#994));
#1002 = FACE_OUTER_BOUND('',#1001,.T.);
#1003 = DIRECTION('',(0.000000000,0.000000000,-1.000000000));
#1004 = DIRECTION('',(0.000000000,1.000000000,0.000000000));
#1005 = AXIS2_PLACEMENT_3D('',#993,#1003,#1004);
#1006 = PLANE('',#1005);
#1007 = FACE_SURFACE('',(#1002),#1006,.T.);
#1008 = POLY_LOOP('',(#997,#998,#999,#1000));
#1009 = FACE_OUTER_BOUND('',#1008,.T.);
#1010 = DIRECTION('',(0.000000000,0.000000000,1.000000000));
#1011 = DIRECTION('',(1.000000000,0.000000000,0.000000000));
#1012 = AXIS2_PLACEMENT_3D('',#997,#1010,#1011);
#1013 = PLANE('',#1012);
#1014 = FACE_SURFACE('',(#1009),#1013,.T.);
#1015 = POLY_LOOP('',(#993,#994,#998,#997));
#1016 = FACE_OUTER_BOUND('',#1015,.T.);
#1017 = DIRECTION('',(0.000000000,-1.000000000,0.000000000));
#1018 = DIRECTION('',(1.000000000,0.000000000,0.000000000));
#1019 = AXIS2_PLACEMENT_3D('',#993,#1017,#1018);
#1020 = PLANE('',#1019);
#1021 = FACE_SURFACE('',(#1016),#1020,.T.);
#1022 = POLY_LOOP('',(#994,#995,#999,#998));
#1023 = FACE_OUTER_BOUND('',#1022,.T.);
#1024 = DIRECTION('',(1.000000000,0.000000000,0.000000000));
#1025 = DIRECTION('',(0.000000000,1.000000000,0.000000000));
#1026 = AXIS2_PLACEMENT_3D('',#994,#1024,#1025);
#1027 = PLANE('',#1026);
#1028 = FACE_SURFACE('',(#1023),#1027,.T.);
#1029 = POLY_LOOP('',(#995,#996,#1000,#999));
#1030 = FACE_OUTER_BOUND('',#1029,.T.);
#1031 = DIRECTION('',(0.000000000,1.000000000,0.000000000));
#1032 = DIRECTION('',(-1.000000000,0.000000000,0.000000000));
#1033 = AXIS2_PLACEMENT_3D('',#995,#1031,#1032);
#1034 = PLANE('',#1033);
#1035 = FACE_SURFACE('',(#1030),#1034,.T.);
#1036 = POLY_LOOP('',(#996,#993,#997,#1000));
#1037 = FACE_OUTER_BOUND('',#1036,.T.);
#1038 = DIRECTION('',(-1.000000000,0.000000000,0.000000000));
#1039 = DIRECTION('',(0.000000000,-1.000000000,0.000000000));
#1040 = AXIS2_PLACEMENT_3D('',#996,#1038,#1039);
#1041 = PLANE('',#1040);
#1042 = FACE_SURFACE('',(#1037),#1041,.T.);
#1043 = CLOSED_SHELL('',(#1007,#1014,#1021,#1028,#1035,#1042));
#1044 = FACETED_BREP('black ventilation',#1043);
#1045 = CARTESIAN_POINT('',(78.000000000,8.000000000,110.000000000));
#1046 = CARTESIAN_POINT('',(79.000000000,8.000000000,110.000000000));
#1047 = CARTESIAN_POINT('',(79.000000000,20.000000000,110.000000000));
#1048 = CARTESIAN_POINT('',(78.000000000,20.000000000,110.000000000));
#1049 = CARTESIAN_POINT('',(78.000000000,8.000000000,125.000000000));
#1050 = CARTESIAN_POINT('',(79.000000000,8.000000000,125.000000000));
#1051 = CARTESIAN_POINT('',(79.000000000,20.000000000,125.000000000));
#1052 = CARTESIAN_POINT('',(78.000000000,20.000000000,125.000000000));
#1053 = POLY_LOOP('',(#1045,#1048,#1047,#1046));
#1054 = FACE_OUTER_BOUND('',#1053,.T.);
#1055 = DIRECTION('',(0.000000000,0.000000000,-1.000000000));
#1056 = DIRECTION('',(0.000000000,1.000000000,0.000000000));
#1057 = AXIS2_PLACEMENT_3D('',#1045,#1055,#1056);
#1058 = PLANE('',#1057);
#1059 = FACE_SURFACE('',(#1054),#1058,.T.);
#1060 = POLY_LOOP('',(#1049,#1050,#1051,#1052));
#1061 = FACE_OUTER_BOUND('',#1060,.T.);
#1062 = DIRECTION('',(0.000000000,0.000000000,1.000000000));
#1063 = DIRECTION('',(1.000000000,0.000000000,0.000000000));
#1064 = AXIS2_PLACEMENT_3D('',#1049,#1062,#1063);
#1065 = PLANE('',#1064);
#1066 = FACE_SURFACE('',(#1061),#1065,.T.);
#1067 = POLY_LOOP('',(#1045,#1046,#1050,#1049));
#1068 = FACE_OUTER_BOUND('',#1067,.T.);
#1069 = DIRECTION('',(0.000000000,-1.000000000,0.000000000));
#1070 = DIRECTION('',(1.000000000,0.000000000,0.000000000));
#1071 = AXIS2_PLACEMENT_3D('',#1045,#1069,#1070);
#1072 = PLANE('',#1071);
#1073 = FACE_SURFACE('',(#1068),#1072,.T.);
#1074 = POLY_LOOP('',(#1046,#1047,#1051,#1050));
#1075 = FACE_OUTER_BOUND('',#1074,.T.);
#1076 = DIRECTION('',(1.000000000,0.000000000,0.000000000));
#1077 = DIRECTION('',(0.000000000,1.000000000,0.000000000));
#1078 = AXIS2_PLACEMENT_3D('',#1046,#1076,#1077);
#1079 = PLANE('',#1078);
#1080 = FACE_SURFACE('',(#1075),#1079,.T.);
#1081 = POLY_LOOP('',(#1047,#1048,#1052,#1051));
#1082 = FACE_OUTER_BOUND('',#1081,.T.);
#1083 = DIRECTION('',(0.000000000,1.000000000,0.000000000));
#1084 = DIRECTION('',(-1.000000000,0.000000000,0.000000000));
#1085 = AXIS2_PLACEMENT_3D('',#1047,#1083,#1084);
#1086 = PLANE('',#1085);
#1087 = FACE_SURFACE('',(#1082),#1086,.T.);
#1088 = POLY_LOOP('',(#1048,#1045,#1049,#1052));
#1089 = FACE_OUTER_BOUND('',#1088,.T.);
#1090 = DIRECTION('',(-1.000000000,0.000000000,0.000000000));
#1091 = DIRECTION('',(0.000000000,-1.000000000,0.000000000));
#1092 = AXIS2_PLACEMENT_3D('',#1048,#1090,#1091);
#1093 = PLANE('',#1092);
#1094 = FACE_SURFACE('',(#1089),#1093,.T.);
#1095 = CLOSED_SHELL('',(#1059,#1066,#1073,#1080,#1087,#1094));
#1096 = FACETED_BREP('black ventilation',#1095);
#1097 = CARTESIAN_POINT('',(78.000000000,8.000000000,150.000000000));
#1098 = CARTESIAN_POINT('',(79.000000000,8.000000000,150.000000000));
#1099 = CARTESIAN_POINT('',(79.000000000,20.000000000,150.000000000));
#1100 = CARTESIAN_POINT('',(78.000000000,20.000000000,150.000000000));
#1101 = CARTESIAN_POINT('',(78.000000000,8.000000000,165.000000000));
#1102 = CARTESIAN_POINT('',(79.000000000,8.000000000,165.000000000));
#1103 = CARTESIAN_POINT('',(79.000000000,20.000000000,165.000000000));
#1104 = CARTESIAN_POINT('',(78.000000000,20.000000000,165.000000000));
#1105 = POLY_LOOP('',(#1097,#1100,#1099,#1098));
#1106 = FACE_OUTER_BOUND('',#1105,.T.);
#1107 = DIRECTION('',(0.000000000,0.000000000,-1.000000000));
#1108 = DIRECTION('',(0.000000000,1.000000000,0.000000000));
#1109 = AXIS2_PLACEMENT_3D('',#1097,#1107,#1108);
#1110 = PLANE('',#1109);
#1111 = FACE_SURFACE('',(#1106),#1110,.T.);
#1112 = POLY_LOOP('',(#1101,#1102,#1103,#1104));
#1113 = FACE_OUTER_BOUND('',#1112,.T.);
#1114 = DIRECTION('',(0.000000000,0.000000000,1.000000000));
#1115 = DIRECTION('',(1.000000000,0.000000000,0.000000000));
#1116 = AXIS2_PLACEMENT_3D('',#1101,#1114,#1115);
#1117 = PLANE('',#1116);
#1118 = FACE_SURFACE('',(#1113),#1117,.T.);
#1119 = POLY_LOOP('',(#1097,#1098,#1102,#1101));
#1120 = FACE_OUTER_BOUND('',#1119,.T.);
#1121 = DIRECTION('',(0.000000000,-1.000000000,0.000000000));
#1122 = DIRECTION('',(1.000000000,0.000000000,0.000000000));
#1123 = AXIS2_PLACEMENT_3D('',#1097,#1121,#1122);
#1124 = PLANE('',#1123);
#1125 = FACE_SURFACE('',(#1120),#1124,.T.);
#1126 = POLY_LOOP('',(#1098,#1099,#1103,#1102));
#1127 = FACE_OUTER_BOUND('',#1126,.T.);
#1128 = DIRECTION('',(1.000000000,0.000000000,0.000000000));
#1129 = DIRECTION('',(0.000000000,1.000000000,0.000000000));
#1130 = AXIS2_PLACEMENT_3D('',#1098,#1128,#1129);
#1131 = PLANE('',#1130);
#1132 = FACE_SURFACE('',(#1127),#1131,.T.);
#1133 = POLY_LOOP('',(#1099,#1100,#1104,#1103));
#1134 = FACE_OUTER_BOUND('',#1133,.T.);
#1135 = DIRECTION('',(0.000000000,1.000000000,0.000000000));
#1136 = DIRECTION('',(-1.000000000,0.000000000,0.000000000));
#1137 = AXIS2_PLACEMENT_3D('',#1099,#1135,#1136);
#1138 = PLANE('',#1137);
#1139 = FACE_SURFACE('',(#1134),#1138,.T.);
#1140 = POLY_LOOP('',(#1100,#1097,#1101,#1104));
#1141 = FACE_OUTER_BOUND('',#1140,.T.);
#1142 = DIRECTION('',(-1.000000000,0.000000000,0.000000000));
#1143 = DIRECTION('',(0.000000000,-1.000000000,0.000000000));
#1144 = AXIS2_PLACEMENT_3D('',#1100,#1142,#1143);
#1145 = PLANE('',#1144);
#1146 = FACE_SURFACE('',(#1141),#1145,.T.);
#1147 = CLOSED_SHELL('',(#1111,#1118,#1125,#1132,#1139,#1146));
#1148 = FACETED_BREP('black ventilation',#1147);
#1149 = CARTESIAN_POINT('',(78.000000000,8.000000000,190.000000000));
#1150 = CARTESIAN_POINT('',(79.000000000,8.000000000,190.000000000));
#1151 = CARTESIAN_POINT('',(79.000000000,20.000000000,190.000000000));
#1152 = CARTESIAN_POINT('',(78.000000000,20.000000000,190.000000000));
#1153 = CARTESIAN_POINT('',(78.000000000,8.000000000,205.000000000));
#1154 = CARTESIAN_POINT('',(79.000000000,8.000000000,205.000000000));
#1155 = CARTESIAN_POINT('',(79.000000000,20.000000000,205.000000000));
#1156 = CARTESIAN_POINT('',(78.000000000,20.000000000,205.000000000));
#1157 = POLY_LOOP('',(#1149,#1152,#1151,#1150));
#1158 = FACE_OUTER_BOUND('',#1157,.T.);
#1159 = DIRECTION('',(0.000000000,0.000000000,-1.000000000));
#1160 = DIRECTION('',(0.000000000,1.000000000,0.000000000));
#1161 = AXIS2_PLACEMENT_3D('',#1149,#1159,#1160);
#1162 = PLANE('',#1161);
#1163 = FACE_SURFACE('',(#1158),#1162,.T.);
#1164 = POLY_LOOP('',(#1153,#1154,#1155,#1156));
#1165 = FACE_OUTER_BOUND('',#1164,.T.);
#1166 = DIRECTION('',(0.000000000,0.000000000,1.000000000));
#1167 = DIRECTION('',(1.000000000,0.000000000,0.000000000));
#1168 = AXIS2_PLACEMENT_3D('',#1153,#1166,#1167);
#1169 = PLANE('',#1168);
#1170 = FACE_SURFACE('',(#1165),#1169,.T.);
#1171 = POLY_LOOP('',(#1149,#1150,#1154,#1153));
#1172 = FACE_OUTER_BOUND('',#1171,.T.);
#1173 = DIRECTION('',(0.000000000,-1.000000000,0.000000000));
#1174 = DIRECTION('',(1.000000000,0.000000000,0.000000000));
#1175 = AXIS2_PLACEMENT_3D('',#1149,#1173,#1174);
#1176 = PLANE('',#1175);
#1177 = FACE_SURFACE('',(#1172),#1176,.T.);
#1178 = POLY_LOOP('',(#1150,#1151,#1155,#1154));
#1179 = FACE_OUTER_BOUND('',#1178,.T.);
#1180 = DIRECTION('',(1.000000000,0.000000000,0.000000000));
#1181 = DIRECTION('',(0.000000000,1.000000000,0.000000000));
#1182 = AXIS2_PLACEMENT_3D('',#1150,#1180,#1181);
#1183 = PLANE('',#1182);
#1184 = FACE_SURFACE('',(#1179),#1183,.T.);
#1185 = POLY_LOOP('',(#1151,#1152,#1156,#1155));
#1186 = FACE_OUTER_BOUND('',#1185,.T.);
#1187 = DIRECTION('',(0.000000000,1.000000000,0.000000000));
#1188 = DIRECTION('',(-1.000000000,0.000000000,0.000000000));
#1189 = AXIS2_PLACEMENT_3D('',#1151,#1187,#1188);
#1190 = PLANE('',#1189);
#1191 = FACE_SURFACE('',(#1186),#1190,.T.);
#1192 = POLY_LOOP('',(#1152,#1149,#1153,#1156));
#1193 = FACE_OUTER_BOUND('',#1192,.T.);
#1194 = DIRECTION('',(-1.000000000,0.000000000,0.000000000));
#1195 = DIRECTION('',(0.000000000,-1.000000000,0.000000000));
#1196 = AXIS2_PLACEMENT_3D('',#1152,#1194,#1195);
#1197 = PLANE('',#1196);
#1198 = FACE_SURFACE('',(#1193),#1197,.T.);
#1199 = CLOSED_SHELL('',(#1163,#1170,#1177,#1184,#1191,#1198));
#1200 = FACETED_BREP('black ventilation',#1199);
#1201 = CARTESIAN_POINT('',(78.000000000,8.000000000,230.000000000));
#1202 = CARTESIAN_POINT('',(79.000000000,8.000000000,230.000000000));
#1203 = CARTESIAN_POINT('',(79.000000000,20.000000000,230.000000000));
#1204 = CARTESIAN_POINT('',(78.000000000,20.000000000,230.000000000));
#1205 = CARTESIAN_POINT('',(78.000000000,8.000000000,245.000000000));
#1206 = CARTESIAN_POINT('',(79.000000000,8.000000000,245.000000000));
#1207 = CARTESIAN_POINT('',(79.000000000,20.000000000,245.000000000));
#1208 = CARTESIAN_POINT('',(78.000000000,20.000000000,245.000000000));
#1209 = POLY_LOOP('',(#1201,#1204,#1203,#1202));
#1210 = FACE_OUTER_BOUND('',#1209,.T.);
#1211 = DIRECTION('',(0.000000000,0.000000000,-1.000000000));
#1212 = DIRECTION('',(0.000000000,1.000000000,0.000000000));
#1213 = AXIS2_PLACEMENT_3D('',#1201,#1211,#1212);
#1214 = PLANE('',#1213);
#1215 = FACE_SURFACE('',(#1210),#1214,.T.);
#1216 = POLY_LOOP('',(#1205,#1206,#1207,#1208));
#1217 = FACE_OUTER_BOUND('',#1216,.T.);
#1218 = DIRECTION('',(0.000000000,0.000000000,1.000000000));
#1219 = DIRECTION('',(1.000000000,0.000000000,0.000000000));
#1220 = AXIS2_PLACEMENT_3D('',#1205,#1218,#1219);
#1221 = PLANE('',#1220);
#1222 = FACE_SURFACE('',(#1217),#1221,.T.);
#1223 = POLY_LOOP('',(#1201,#1202,#1206,#1205));
#1224 = FACE_OUTER_BOUND('',#1223,.T.);
#1225 = DIRECTION('',(0.000000000,-1.000000000,0.000000000));
#1226 = DIRECTION('',(1.000000000,0.000000000,0.000000000));
#1227 = AXIS2_PLACEMENT_3D('',#1201,#1225,#1226);
#1228 = PLANE('',#1227);
#1229 = FACE_SURFACE('',(#1224),#1228,.T.);
#1230 = POLY_LOOP('',(#1202,#1203,#1207,#1206));
#1231 = FACE_OUTER_BOUND('',#1230,.T.);
#1232 = DIRECTION('',(1.000000000,0.000000000,0.000000000));
#1233 = DIRECTION('',(0.000000000,1.000000000,0.000000000));
#1234 = AXIS2_PLACEMENT_3D('',#1202,#1232,#1233);
#1235 = PLANE('',#1234);
#1236 = FACE_SURFACE('',(#1231),#1235,.T.);
#1237 = POLY_LOOP('',(#1203,#1204,#1208,#1207));
#1238 = FACE_OUTER_BOUND('',#1237,.T.);
#1239 = DIRECTION('',(0.000000000,1.000000000,0.000000000));
#1240 = DIRECTION('',(-1.000000000,0.000000000,0.000000000));
#1241 = AXIS2_PLACEMENT_3D('',#1203,#1239,#1240);
#1242 = PLANE('',#1241);
#1243 = FACE_SURFACE('',(#1238),#1242,.T.);
#1244 = POLY_LOOP('',(#1204,#1201,#1205,#1208));
#1245 = FACE_OUTER_BOUND('',#1244,.T.);
#1246 = DIRECTION('',(-1.000000000,0.000000000,0.000000000));
#1247 = DIRECTION('',(0.000000000,-1.000000000,0.000000000));
#1248 = AXIS2_PLACEMENT_3D('',#1204,#1246,#1247);
#1249 = PLANE('',#1248);
#1250 = FACE_SURFACE('',(#1245),#1249,.T.);
#1251 = CLOSED_SHELL('',(#1215,#1222,#1229,#1236,#1243,#1250));
#1252 = FACETED_BREP('black ventilation',#1251);
#1253 = CARTESIAN_POINT('',(78.000000000,8.000000000,270.000000000));
#1254 = CARTESIAN_POINT('',(79.000000000,8.000000000,270.000000000));
#1255 = CARTESIAN_POINT('',(79.000000000,20.000000000,270.000000000));
#1256 = CARTESIAN_POINT('',(78.000000000,20.000000000,270.000000000));
#1257 = CARTESIAN_POINT('',(78.000000000,8.000000000,285.000000000));
#1258 = CARTESIAN_POINT('',(79.000000000,8.000000000,285.000000000));
#1259 = CARTESIAN_POINT('',(79.000000000,20.000000000,285.000000000));
#1260 = CARTESIAN_POINT('',(78.000000000,20.000000000,285.000000000));
#1261 = POLY_LOOP('',(#1253,#1256,#1255,#1254));
#1262 = FACE_OUTER_BOUND('',#1261,.T.);
#1263 = DIRECTION('',(0.000000000,0.000000000,-1.000000000));
#1264 = DIRECTION('',(0.000000000,1.000000000,0.000000000));
#1265 = AXIS2_PLACEMENT_3D('',#1253,#1263,#1264);
#1266 = PLANE('',#1265);
#1267 = FACE_SURFACE('',(#1262),#1266,.T.);
#1268 = POLY_LOOP('',(#1257,#1258,#1259,#1260));
#1269 = FACE_OUTER_BOUND('',#1268,.T.);
#1270 = DIRECTION('',(0.000000000,0.000000000,1.000000000));
#1271 = DIRECTION('',(1.000000000,0.000000000,0.000000000));
#1272 = AXIS2_PLACEMENT_3D('',#1257,#1270,#1271);
#1273 = PLANE('',#1272);
#1274 = FACE_SURFACE('',(#1269),#1273,.T.);
#1275 = POLY_LOOP('',(#1253,#1254,#1258,#1257));
#1276 = FACE_OUTER_BOUND('',#1275,.T.);
#1277 = DIRECTION('',(0.000000000,-1.000000000,0.000000000));
#1278 = DIRECTION('',(1.000000000,0.000000000,0.000000000));
#1279 = AXIS2_PLACEMENT_3D('',#1253,#1277,#1278);
#1280 = PLANE('',#1279);
#1281 = FACE_SURFACE('',(#1276),#1280,.T.);
#1282 = POLY_LOOP('',(#1254,#1255,#1259,#1258));
#1283 = FACE_OUTER_BOUND('',#1282,.T.);
#1284 = DIRECTION('',(1.000000000,0.000000000,0.000000000));
#1285 = DIRECTION('',(0.000000000,1.000000000,0.000000000));
#1286 = AXIS2_PLACEMENT_3D('',#1254,#1284,#1285);
#1287 = PLANE('',#1286);
#1288 = FACE_SURFACE('',(#1283),#1287,.T.);
#1289 = POLY_LOOP('',(#1255,#1256,#1260,#1259));
#1290 = FACE_OUTER_BOUND('',#1289,.T.);
#1291 = DIRECTION('',(0.000000000,1.000000000,0.000000000));
#1292 = DIRECTION('',(-1.000000000,0.000000000,0.000000000));
#1293 = AXIS2_PLACEMENT_3D('',#1255,#1291,#1292);
#1294 = PLANE('',#1293);
#1295 = FACE_SURFACE('',(#1290),#1294,.T.);
#1296 = POLY_LOOP('',(#1256,#1253,#1257,#1260));
#1297 = FACE_OUTER_BOUND('',#1296,.T.);
#1298 = DIRECTION('',(-1.000000000,0.000000000,0.000000000));
#1299 = DIRECTION('',(0.000000000,-1.000000000,0.000000000));
#1300 = AXIS2_PLACEMENT_3D('',#1256,#1298,#1299);
#1301 = PLANE('',#1300);
#1302 = FACE_SURFACE('',(#1297),#1301,.T.);
#1303 = CLOSED_SHELL('',(#1267,#1274,#1281,#1288,#1295,#1302));
#1304 = FACETED_BREP('black ventilation',#1303);
#1305 = CARTESIAN_POINT('',(78.000000000,8.000000000,310.000000000));
#1306 = CARTESIAN_POINT('',(79.000000000,8.000000000,310.000000000));
#1307 = CARTESIAN_POINT('',(79.000000000,20.000000000,310.000000000));
#1308 = CARTESIAN_POINT('',(78.000000000,20.000000000,310.000000000));
#1309 = CARTESIAN_POINT('',(78.000000000,8.000000000,325.000000000));
#1310 = CARTESIAN_POINT('',(79.000000000,8.000000000,325.000000000));
#1311 = CARTESIAN_POINT('',(79.000000000,20.000000000,325.000000000));
#1312 = CARTESIAN_POINT('',(78.000000000,20.000000000,325.000000000));
#1313 = POLY_LOOP('',(#1305,#1308,#1307,#1306));
#1314 = FACE_OUTER_BOUND('',#1313,.T.);
#1315 = DIRECTION('',(0.000000000,0.000000000,-1.000000000));
#1316 = DIRECTION('',(0.000000000,1.000000000,0.000000000));
#1317 = AXIS2_PLACEMENT_3D('',#1305,#1315,#1316);
#1318 = PLANE('',#1317);
#1319 = FACE_SURFACE('',(#1314),#1318,.T.);
#1320 = POLY_LOOP('',(#1309,#1310,#1311,#1312));
#1321 = FACE_OUTER_BOUND('',#1320,.T.);
#1322 = DIRECTION('',(0.000000000,0.000000000,1.000000000));
#1323 = DIRECTION('',(1.000000000,0.000000000,0.000000000));
#1324 = AXIS2_PLACEMENT_3D('',#1309,#1322,#1323);
#1325 = PLANE('',#1324);
#1326 = FACE_SURFACE('',(#1321),#1325,.T.);
#1327 = POLY_LOOP('',(#1305,#1306,#1310,#1309));
#1328 = FACE_OUTER_BOUND('',#1327,.T.);
#1329 = DIRECTION('',(0.000000000,-1.000000000,0.000000000));
#1330 = DIRECTION('',(1.000000000,0.000000000,0.000000000));
#1331 = AXIS2_PLACEMENT_3D('',#1305,#1329,#1330);
#1332 = PLANE('',#1331);
#1333 = FACE_SURFACE('',(#1328),#1332,.T.);
#1334 = POLY_LOOP('',(#1306,#1307,#1311,#1310));
#1335 = FACE_OUTER_BOUND('',#1334,.T.);
#1336 = DIRECTION('',(1.000000000,0.000000000,0.000000000));
#1337 = DIRECTION('',(0.000000000,1.000000000,0.000000000));
#1338 = AXIS2_PLACEMENT_3D('',#1306,#1336,#1337);
#1339 = PLANE('',#1338);
#1340 = FACE_SURFACE('',(#1335),#1339,.T.);
#1341 = POLY_LOOP('',(#1307,#1308,#1312,#1311));
#1342 = FACE_OUTER_BOUND('',#1341,.T.);
#1343 = DIRECTION('',(0.000000000,1.000000000,0.000000000));
#1344 = DIRECTION('',(-1.000000000,0.000000000,0.000000000));
#1345 = AXIS2_PLACEMENT_3D('',#1307,#1343,#1344);
#1346 = PLANE('',#1345);
#1347 = FACE_SURFACE('',(#1342),#1346,.T.);
#1348 = POLY_LOOP('',(#1308,#1305,#1309,#1312));
#1349 = FACE_OUTER_BOUND('',#1348,.T.);
#1350 = DIRECTION('',(-1.000000000,0.000000000,0.000000000));
#1351 = DIRECTION('',(0.000000000,-1.000000000,0.000000000));
#1352 = AXIS2_PLACEMENT_3D('',#1308,#1350,#1351);
#1353 = PLANE('',#1352);
#1354 = FACE_SURFACE('',(#1349),#1353,.T.);
#1355 = CLOSED_SHELL('',(#1319,#1326,#1333,#1340,#1347,#1354));
#1356 = FACETED_BREP('black ventilation',#1355);
#1357 = CARTESIAN_POINT('',(78.000000000,8.000000000,350.000000000));
#1358 = CARTESIAN_POINT('',(79.000000000,8.000000000,350.000000000));
#1359 = CARTESIAN_POINT('',(79.000000000,20.000000000,350.000000000));
#1360 = CARTESIAN_POINT('',(78.000000000,20.000000000,350.000000000));
#1361 = CARTESIAN_POINT('',(78.000000000,8.000000000,365.000000000));
#1362 = CARTESIAN_POINT('',(79.000000000,8.000000000,365.000000000));
#1363 = CARTESIAN_POINT('',(79.000000000,20.000000000,365.000000000));
#1364 = CARTESIAN_POINT('',(78.000000000,20.000000000,365.000000000));
#1365 = POLY_LOOP('',(#1357,#1360,#1359,#1358));
#1366 = FACE_OUTER_BOUND('',#1365,.T.);
#1367 = DIRECTION('',(0.000000000,0.000000000,-1.000000000));
#1368 = DIRECTION('',(0.000000000,1.000000000,0.000000000));
#1369 = AXIS2_PLACEMENT_3D('',#1357,#1367,#1368);
#1370 = PLANE('',#1369);
#1371 = FACE_SURFACE('',(#1366),#1370,.T.);
#1372 = POLY_LOOP('',(#1361,#1362,#1363,#1364));
#1373 = FACE_OUTER_BOUND('',#1372,.T.);
#1374 = DIRECTION('',(0.000000000,0.000000000,1.000000000));
#1375 = DIRECTION('',(1.000000000,0.000000000,0.000000000));
#1376 = AXIS2_PLACEMENT_3D('',#1361,#1374,#1375);
#1377 = PLANE('',#1376);
#1378 = FACE_SURFACE('',(#1373),#1377,.T.);
#1379 = POLY_LOOP('',(#1357,#1358,#1362,#1361));
#1380 = FACE_OUTER_BOUND('',#1379,.T.);
#1381 = DIRECTION('',(0.000000000,-1.000000000,0.000000000));
#1382 = DIRECTION('',(1.000000000,0.000000000,0.000000000));
#1383 = AXIS2_PLACEMENT_3D('',#1357,#1381,#1382);
#1384 = PLANE('',#1383);
#1385 = FACE_SURFACE('',(#1380),#1384,.T.);
#1386 = POLY_LOOP('',(#1358,#1359,#1363,#1362));
#1387 = FACE_OUTER_BOUND('',#1386,.T.);
#1388 = DIRECTION('',(1.000000000,0.000000000,0.000000000));
#1389 = DIRECTION('',(0.000000000,1.000000000,0.000000000));
#1390 = AXIS2_PLACEMENT_3D('',#1358,#1388,#1389);
#1391 = PLANE('',#1390);
#1392 = FACE_SURFACE('',(#1387),#1391,.T.);
#1393 = POLY_LOOP('',(#1359,#1360,#1364,#1363));
#1394 = FACE_OUTER_BOUND('',#1393,.T.);
#1395 = DIRECTION('',(0.000000000,1.000000000,0.000000000));
#1396 = DIRECTION('',(-1.000000000,0.000000000,0.000000000));
#1397 = AXIS2_PLACEMENT_3D('',#1359,#1395,#1396);
#1398 = PLANE('',#1397);
#1399 = FACE_SURFACE('',(#1394),#1398,.T.);
#1400 = POLY_LOOP('',(#1360,#1357,#1361,#1364));
#1401 = FACE_OUTER_BOUND('',#1400,.T.);
#1402 = DIRECTION('',(-1.000000000,0.000000000,0.000000000));
#1403 = DIRECTION('',(0.000000000,-1.000000000,0.000000000));
#1404 = AXIS2_PLACEMENT_3D('',#1360,#1402,#1403);
#1405 = PLANE('',#1404);
#1406 = FACE_SURFACE('',(#1401),#1405,.T.);
#1407 = CLOSED_SHELL('',(#1371,#1378,#1385,#1392,#1399,#1406));
#1408 = FACETED_BREP('black ventilation',#1407);
#1409 = CARTESIAN_POINT('',(78.000000000,8.000000000,390.000000000));
#1410 = CARTESIAN_POINT('',(79.000000000,8.000000000,390.000000000));
#1411 = CARTESIAN_POINT('',(79.000000000,20.000000000,390.000000000));
#1412 = CARTESIAN_POINT('',(78.000000000,20.000000000,390.000000000));
#1413 = CARTESIAN_POINT('',(78.000000000,8.000000000,405.000000000));
#1414 = CARTESIAN_POINT('',(79.000000000,8.000000000,405.000000000));
#1415 = CARTESIAN_POINT('',(79.000000000,20.000000000,405.000000000));
#1416 = CARTESIAN_POINT('',(78.000000000,20.000000000,405.000000000));
#1417 = POLY_LOOP('',(#1409,#1412,#1411,#1410));
#1418 = FACE_OUTER_BOUND('',#1417,.T.);
#1419 = DIRECTION('',(0.000000000,0.000000000,-1.000000000));
#1420 = DIRECTION('',(0.000000000,1.000000000,0.000000000));
#1421 = AXIS2_PLACEMENT_3D('',#1409,#1419,#1420);
#1422 = PLANE('',#1421);
#1423 = FACE_SURFACE('',(#1418),#1422,.T.);
#1424 = POLY_LOOP('',(#1413,#1414,#1415,#1416));
#1425 = FACE_OUTER_BOUND('',#1424,.T.);
#1426 = DIRECTION('',(0.000000000,0.000000000,1.000000000));
#1427 = DIRECTION('',(1.000000000,0.000000000,0.000000000));
#1428 = AXIS2_PLACEMENT_3D('',#1413,#1426,#1427);
#1429 = PLANE('',#1428);
#1430 = FACE_SURFACE('',(#1425),#1429,.T.);
#1431 = POLY_LOOP('',(#1409,#1410,#1414,#1413));
#1432 = FACE_OUTER_BOUND('',#1431,.T.);
#1433 = DIRECTION('',(0.000000000,-1.000000000,0.000000000));
#1434 = DIRECTION('',(1.000000000,0.000000000,0.000000000));
#1435 = AXIS2_PLACEMENT_3D('',#1409,#1433,#1434);
#1436 = PLANE('',#1435);
#1437 = FACE_SURFACE('',(#1432),#1436,.T.);
#1438 = POLY_LOOP('',(#1410,#1411,#1415,#1414));
#1439 = FACE_OUTER_BOUND('',#1438,.T.);
#1440 = DIRECTION('',(1.000000000,0.000000000,0.000000000));
#1441 = DIRECTION('',(0.000000000,1.000000000,0.000000000));
#1442 = AXIS2_PLACEMENT_3D('',#1410,#1440,#1441);
#1443 = PLANE('',#1442);
#1444 = FACE_SURFACE('',(#1439),#1443,.T.);
#1445 = POLY_LOOP('',(#1411,#1412,#1416,#1415));
#1446 = FACE_OUTER_BOUND('',#1445,.T.);
#1447 = DIRECTION('',(0.000000000,1.000000000,0.000000000));
#1448 = DIRECTION('',(-1.000000000,0.000000000,0.000000000));
#1449 = AXIS2_PLACEMENT_3D('',#1411,#1447,#1448);
#1450 = PLANE('',#1449);
#1451 = FACE_SURFACE('',(#1446),#1450,.T.);
#1452 = POLY_LOOP('',(#1412,#1409,#1413,#1416));
#1453 = FACE_OUTER_BOUND('',#1452,.T.);
#1454 = DIRECTION('',(-1.000000000,0.000000000,0.000000000));
#1455 = DIRECTION('',(0.000000000,-1.000000000,0.000000000));
#1456 = AXIS2_PLACEMENT_3D('',#1412,#1454,#1455);
#1457 = PLANE('',#1456);
#1458 = FACE_SURFACE('',(#1453),#1457,.T.);
#1459 = CLOSED_SHELL('',(#1423,#1430,#1437,#1444,#1451,#1458));
#1460 = FACETED_BREP('black ventilation',#1459);
#1461 = CARTESIAN_POINT('',(78.000000000,8.000000000,430.000000000));
#1462 = CARTESIAN_POINT('',(79.000000000,8.000000000,430.000000000));
#1463 = CARTESIAN_POINT('',(79.000000000,20.000000000,430.000000000));
#1464 = CARTESIAN_POINT('',(78.000000000,20.000000000,430.000000000));
#1465 = CARTESIAN_POINT('',(78.000000000,8.000000000,445.000000000));
#1466 = CARTESIAN_POINT('',(79.000000000,8.000000000,445.000000000));
#1467 = CARTESIAN_POINT('',(79.000000000,20.000000000,445.000000000));
#1468 = CARTESIAN_POINT('',(78.000000000,20.000000000,445.000000000));
#1469 = POLY_LOOP('',(#1461,#1464,#1463,#1462));
#1470 = FACE_OUTER_BOUND('',#1469,.T.);
#1471 = DIRECTION('',(0.000000000,0.000000000,-1.000000000));
#1472 = DIRECTION('',(0.000000000,1.000000000,0.000000000));
#1473 = AXIS2_PLACEMENT_3D('',#1461,#1471,#1472);
#1474 = PLANE('',#1473);
#1475 = FACE_SURFACE('',(#1470),#1474,.T.);
#1476 = POLY_LOOP('',(#1465,#1466,#1467,#1468));
#1477 = FACE_OUTER_BOUND('',#1476,.T.);
#1478 = DIRECTION('',(0.000000000,0.000000000,1.000000000));
#1479 = DIRECTION('',(1.000000000,0.000000000,0.000000000));
#1480 = AXIS2_PLACEMENT_3D('',#1465,#1478,#1479);
#1481 = PLANE('',#1480);
#1482 = FACE_SURFACE('',(#1477),#1481,.T.);
#1483 = POLY_LOOP('',(#1461,#1462,#1466,#1465));
#1484 = FACE_OUTER_BOUND('',#1483,.T.);
#1485 = DIRECTION('',(0.000000000,-1.000000000,0.000000000));
#1486 = DIRECTION('',(1.000000000,0.000000000,0.000000000));
#1487 = AXIS2_PLACEMENT_3D('',#1461,#1485,#1486);
#1488 = PLANE('',#1487);
#1489 = FACE_SURFACE('',(#1484),#1488,.T.);
#1490 = POLY_LOOP('',(#1462,#1463,#1467,#1466));
#1491 = FACE_OUTER_BOUND('',#1490,.T.);
#1492 = DIRECTION('',(1.000000000,0.000000000,0.000000000));
#1493 = DIRECTION('',(0.000000000,1.000000000,0.000000000));
#1494 = AXIS2_PLACEMENT_3D('',#1462,#1492,#1493);
#1495 = PLANE('',#1494);
#1496 = FACE_SURFACE('',(#1491),#1495,.T.);
#1497 = POLY_LOOP('',(#1463,#1464,#1468,#1467));
#1498 = FACE_OUTER_BOUND('',#1497,.T.);
#1499 = DIRECTION('',(0.000000000,1.000000000,0.000000000));
#1500 = DIRECTION('',(-1.000000000,0.000000000,0.000000000));
#1501 = AXIS2_PLACEMENT_3D('',#1463,#1499,#1500);
#1502 = PLANE('',#1501);
#1503 = FACE_SURFACE('',(#1498),#1502,.T.);
#1504 = POLY_LOOP('',(#1464,#1461,#1465,#1468));
#1505 = FACE_OUTER_BOUND('',#1504,.T.);
#1506 = DIRECTION('',(-1.000000000,0.000000000,0.000000000));
#1507 = DIRECTION('',(0.000000000,-1.000000000,0.000000000));
#1508 = AXIS2_PLACEMENT_3D('',#1464,#1506,#1507);
#1509 = PLANE('',#1508);
#1510 = FACE_SURFACE('',(#1505),#1509,.T.);
#1511 = CLOSED_SHELL('',(#1475,#1482,#1489,#1496,#1503,#1510));
#1512 = FACETED_BREP('black ventilation',#1511);
#1513 = CARTESIAN_POINT('',(-45.000000000,10.000000000,490.000000000));
#1514 = CARTESIAN_POINT('',(45.000000000,10.000000000,490.000000000));
#1515 = CARTESIAN_POINT('',(45.000000000,18.000000000,490.000000000));
#1516 = CARTESIAN_POINT('',(-45.000000000,18.000000000,490.000000000));
#1517 = CARTESIAN_POINT('',(-45.000000000,10.000000000,502.000000000));
#1518 = CARTESIAN_POINT('',(45.000000000,10.000000000,502.000000000));
#1519 = CARTESIAN_POINT('',(45.000000000,18.000000000,502.000000000));
#1520 = CARTESIAN_POINT('',(-45.000000000,18.000000000,502.000000000));
#1521 = POLY_LOOP('',(#1513,#1516,#1515,#1514));
#1522 = FACE_OUTER_BOUND('',#1521,.T.);
#1523 = DIRECTION('',(0.000000000,0.000000000,-1.000000000));
#1524 = DIRECTION('',(0.000000000,1.000000000,0.000000000));
#1525 = AXIS2_PLACEMENT_3D('',#1513,#1523,#1524);
#1526 = PLANE('',#1525);
#1527 = FACE_SURFACE('',(#1522),#1526,.T.);
#1528 = POLY_LOOP('',(#1517,#1518,#1519,#1520));
#1529 = FACE_OUTER_BOUND('',#1528,.T.);
#1530 = DIRECTION('',(0.000000000,0.000000000,1.000000000));
#1531 = DIRECTION('',(1.000000000,0.000000000,0.000000000));
#1532 = AXIS2_PLACEMENT_3D('',#1517,#1530,#1531);
#1533 = PLANE('',#1532);
#1534 = FACE_SURFACE('',(#1529),#1533,.T.);
#1535 = POLY_LOOP('',(#1513,#1514,#1518,#1517));
#1536 = FACE_OUTER_BOUND('',#1535,.T.);
#1537 = DIRECTION('',(0.000000000,-1.000000000,0.000000000));
#1538 = DIRECTION('',(1.000000000,0.000000000,0.000000000));
#1539 = AXIS2_PLACEMENT_3D('',#1513,#1537,#1538);
#1540 = PLANE('',#1539);
#1541 = FACE_SURFACE('',(#1536),#1540,.T.);
#1542 = POLY_LOOP('',(#1514,#1515,#1519,#1518));
#1543 = FACE_OUTER_BOUND('',#1542,.T.);
#1544 = DIRECTION('',(1.000000000,0.000000000,0.000000000));
#1545 = DIRECTION('',(0.000000000,1.000000000,0.000000000));
#1546 = AXIS2_PLACEMENT_3D('',#1514,#1544,#1545);
#1547 = PLANE('',#1546);
#1548 = FACE_SURFACE('',(#1543),#1547,.T.);
#1549 = POLY_LOOP('',(#1515,#1516,#1520,#1519));
#1550 = FACE_OUTER_BOUND('',#1549,.T.);
#1551 = DIRECTION('',(0.000000000,1.000000000,0.000000000));
#1552 = DIRECTION('',(-1.000000000,0.000000000,0.000000000));
#1553 = AXIS2_PLACEMENT_3D('',#1515,#1551,#1552);
#1554 = PLANE('',#1553);
#1555 = FACE_SURFACE('',(#1550),#1554,.T.);
#1556 = POLY_LOOP('',(#1516,#1513,#1517,#1520));
#1557 = FACE_OUTER_BOUND('',#1556,.T.);
#1558 = DIRECTION('',(-1.000000000,0.000000000,0.000000000));
#1559 = DIRECTION('',(0.000000000,-1.000000000,0.000000000));
#1560 = AXIS2_PLACEMENT_3D('',#1516,#1558,#1559);
#1561 = PLANE('',#1560);
#1562 = FACE_SURFACE('',(#1557),#1561,.T.);
#1563 = CLOSED_SHELL('',(#1527,#1534,#1541,#1548,#1555,#1562));
#1564 = FACETED_BREP('silver rear extraction handle',#1563);
#1565 = APPLICATION_CONTEXT('configuration controlled 3d designs of mechanical parts and assemblies');
#1566 = APPLICATION_PROTOCOL_DEFINITION('international standard','config_control_design',1994,#1565);
#1567 = PRODUCT_CONTEXT('',#1565,'mechanical');
#1568 = PRODUCT('REF','Illustrative reference','NOT vendor CAD',(#1567));
#1569 = PRODUCT_DEFINITION_FORMATION_WITH_SPECIFIED_SOURCE('','',#1568,.NOT_KNOWN.);
#1570 = PRODUCT_DEFINITION_CONTEXT('part definition',#1565,'design');
#1571 = PRODUCT_DEFINITION('design','',#1569,#1570);
#1572 = PRODUCT_DEFINITION_SHAPE('','',#1571);
#1573 = (LENGTH_UNIT()NAMED_UNIT(*)SI_UNIT(.MILLI.,.METRE.));
#1574 = (NAMED_UNIT(*)PLANE_ANGLE_UNIT()SI_UNIT($,.RADIAN.));
#1575 = (NAMED_UNIT(*)SI_UNIT($,.STERADIAN.)SOLID_ANGLE_UNIT());
#1576 = UNCERTAINTY_MEASURE_WITH_UNIT(LENGTH_MEASURE(0.000001),#1573,'distance_accuracy_value','');
#1577 = (GEOMETRIC_REPRESENTATION_CONTEXT(3)GLOBAL_UNCERTAINTY_ASSIGNED_CONTEXT((#1576))GLOBAL_UNIT_ASSIGNED_CONTEXT((#1573,#1574,#1575))REPRESENTATION_CONTEXT('',''));
#1578 = FACETED_BREP_SHAPE_REPRESENTATION('Illustrative reference',(#52,#104,#156,#352,#548,#744,#940,#992,#1044,#1096,#1148,#1200,#1252,#1304,#1356,#1408,#1460,#1512,#1564),#1577);
#1579 = SHAPE_DEFINITION_REPRESENTATION(#1572,#1578);
ENDSEC;
END-ISO-10303-21;
