ISO-10303-21;
HEADER;
FILE_DESCRIPTION(('Illustrative CAD - NOT vendor dimensions'),'2;1');
FILE_NAME('reference.step','2026-10-07',('CORNERSTONE'),(''),'reference generator','','');
FILE_SCHEMA(('CONFIG_CONTROL_DESIGN'));
ENDSEC;
DATA;
#1 = CARTESIAN_POINT('',(-40.000000000,8.000000000,-272.500000000));
#2 = CARTESIAN_POINT('',(213.000000000,8.000000000,-272.500000000));
#3 = CARTESIAN_POINT('',(213.000000000,153.000000000,-272.500000000));
#4 = CARTESIAN_POINT('',(-40.000000000,153.000000000,-272.500000000));
#5 = CARTESIAN_POINT('',(-40.000000000,8.000000000,272.500000000));
#6 = CARTESIAN_POINT('',(213.000000000,8.000000000,272.500000000));
#7 = CARTESIAN_POINT('',(213.000000000,153.000000000,272.500000000));
#8 = CARTESIAN_POINT('',(-40.000000000,153.000000000,272.500000000));
#9 = POLY_LOOP('',(#1,#4,#3,#2));
#10 = FACE_OUTER_BOUND('',#9,.T.);
#11 = DIRECTION('',(0.000000000,0.000000000,-1.000000000));
#12 = DIRECTION('',(0.000000000,1.000000000,0.000000000));
#13 = AXIS2_PLACEMENT_3D('',#1,#11,#12);
#14 = PLANE('',#13);
#15 = FACE_SURFACE('',(#10),#14,.T.);
#16 = POLY_LOOP('',(#5,#6,#7,#8));
#17 = FACE_OUTER_BOUND('',#16,.T.);
#18 = DIRECTION('',(0.000000000,0.000000000,1.000000000));
#19 = DIRECTION('',(1.000000000,0.000000000,0.000000000));
#20 = AXIS2_PLACEMENT_3D('',#5,#18,#19);
#21 = PLANE('',#20);
#22 = FACE_SURFACE('',(#17),#21,.T.);
#23 = POLY_LOOP('',(#1,#2,#6,#5));
#24 = FACE_OUTER_BOUND('',#23,.T.);
#25 = DIRECTION('',(0.000000000,-1.000000000,0.000000000));
#26 = DIRECTION('',(1.000000000,0.000000000,0.000000000));
#27 = AXIS2_PLACEMENT_3D('',#1,#25,#26);
#28 = PLANE('',#27);
#29 = FACE_SURFACE('',(#24),#28,.T.);
#30 = POLY_LOOP('',(#2,#3,#7,#6));
#31 = FACE_OUTER_BOUND('',#30,.T.);
#32 = DIRECTION('',(1.000000000,0.000000000,0.000000000));
#33 = DIRECTION('',(0.000000000,1.000000000,0.000000000));
#34 = AXIS2_PLACEMENT_3D('',#2,#32,#33);
#35 = PLANE('',#34);
#36 = FACE_SURFACE('',(#31),#35,.T.);
#37 = POLY_LOOP('',(#3,#4,#8,#7));
#38 = FACE_OUTER_BOUND('',#37,.T.);
#39 = DIRECTION('',(0.000000000,1.000000000,0.000000000));
#40 = DIRECTION('',(-1.000000000,0.000000000,0.000000000));
#41 = AXIS2_PLACEMENT_3D('',#3,#39,#40);
#42 = PLANE('',#41);
#43 = FACE_SURFACE('',(#38),#42,.T.);
#44 = POLY_LOOP('',(#4,#1,#5,#8));
#45 = FACE_OUTER_BOUND('',#44,.T.);
#46 = DIRECTION('',(-1.000000000,0.000000000,0.000000000));
#47 = DIRECTION('',(0.000000000,-1.000000000,0.000000000));
#48 = AXIS2_PLACEMENT_3D('',#4,#46,#47);
#49 = PLANE('',#48);
#50 = FACE_SURFACE('',(#45),#49,.T.);
#51 = CLOSED_SHELL('',(#15,#22,#29,#36,#43,#50));
#52 = FACETED_BREP('silver left electronics enclosure',#51);
#53 = CARTESIAN_POINT('',(-213.000000000,8.000000000,-272.500000000));
#54 = CARTESIAN_POINT('',(-40.000000000,8.000000000,-272.500000000));
#55 = CARTESIAN_POINT('',(-40.000000000,11.000000000,-272.500000000));
#56 = CARTESIAN_POINT('',(-213.000000000,11.000000000,-272.500000000));
#57 = CARTESIAN_POINT('',(-213.000000000,8.000000000,272.500000000));
#58 = CARTESIAN_POINT('',(-40.000000000,8.000000000,272.500000000));
#59 = CARTESIAN_POINT('',(-40.000000000,11.000000000,272.500000000));
#60 = CARTESIAN_POINT('',(-213.000000000,11.000000000,272.500000000));
#61 = POLY_LOOP('',(#53,#56,#55,#54));
#62 = FACE_OUTER_BOUND('',#61,.T.);
#63 = DIRECTION('',(0.000000000,0.000000000,-1.000000000));
#64 = DIRECTION('',(0.000000000,1.000000000,0.000000000));
#65 = AXIS2_PLACEMENT_3D('',#53,#63,#64);
#66 = PLANE('',#65);
#67 = FACE_SURFACE('',(#62),#66,.T.);
#68 = POLY_LOOP('',(#57,#58,#59,#60));
#69 = FACE_OUTER_BOUND('',#68,.T.);
#70 = DIRECTION('',(0.000000000,0.000000000,1.000000000));
#71 = DIRECTION('',(1.000000000,0.000000000,0.000000000));
#72 = AXIS2_PLACEMENT_3D('',#57,#70,#71);
#73 = PLANE('',#72);
#74 = FACE_SURFACE('',(#69),#73,.T.);
#75 = POLY_LOOP('',(#53,#54,#58,#57));
#76 = FACE_OUTER_BOUND('',#75,.T.);
#77 = DIRECTION('',(0.000000000,-1.000000000,0.000000000));
#78 = DIRECTION('',(1.000000000,0.000000000,0.000000000));
#79 = AXIS2_PLACEMENT_3D('',#53,#77,#78);
#80 = PLANE('',#79);
#81 = FACE_SURFACE('',(#76),#80,.T.);
#82 = POLY_LOOP('',(#54,#55,#59,#58));
#83 = FACE_OUTER_BOUND('',#82,.T.);
#84 = DIRECTION('',(1.000000000,0.000000000,0.000000000));
#85 = DIRECTION('',(0.000000000,1.000000000,0.000000000));
#86 = AXIS2_PLACEMENT_3D('',#54,#84,#85);
#87 = PLANE('',#86);
#88 = FACE_SURFACE('',(#83),#87,.T.);
#89 = POLY_LOOP('',(#55,#56,#60,#59));
#90 = FACE_OUTER_BOUND('',#89,.T.);
#91 = DIRECTION('',(0.000000000,1.000000000,0.000000000));
#92 = DIRECTION('',(-1.000000000,0.000000000,0.000000000));
#93 = AXIS2_PLACEMENT_3D('',#55,#91,#92);
#94 = PLANE('',#93);
#95 = FACE_SURFACE('',(#90),#94,.T.);
#96 = POLY_LOOP('',(#56,#53,#57,#60));
#97 = FACE_OUTER_BOUND('',#96,.T.);
#98 = DIRECTION('',(-1.000000000,0.000000000,0.000000000));
#99 = DIRECTION('',(0.000000000,-1.000000000,0.000000000));
#100 = AXIS2_PLACEMENT_3D('',#56,#98,#99);
#101 = PLANE('',#100);
#102 = FACE_SURFACE('',(#97),#101,.T.);
#103 = CLOSED_SHELL('',(#67,#74,#81,#88,#95,#102));
#104 = FACETED_BREP('silver bottom plate',#103);
#105 = CARTESIAN_POINT('',(-213.000000000,150.000000000,-272.500000000));
#106 = CARTESIAN_POINT('',(-40.000000000,150.000000000,-272.500000000));
#107 = CARTESIAN_POINT('',(-40.000000000,153.000000000,-272.500000000));
#108 = CARTESIAN_POINT('',(-213.000000000,153.000000000,-272.500000000));
#109 = CARTESIAN_POINT('',(-213.000000000,150.000000000,272.500000000));
#110 = CARTESIAN_POINT('',(-40.000000000,150.000000000,272.500000000));
#111 = CARTESIAN_POINT('',(-40.000000000,153.000000000,272.500000000));
#112 = CARTESIAN_POINT('',(-213.000000000,153.000000000,272.500000000));
#113 = POLY_LOOP('',(#105,#108,#107,#106));
#114 = FACE_OUTER_BOUND('',#113,.T.);
#115 = DIRECTION('',(0.000000000,0.000000000,-1.000000000));
#116 = DIRECTION('',(0.000000000,1.000000000,0.000000000));
#117 = AXIS2_PLACEMENT_3D('',#105,#115,#116);
#118 = PLANE('',#117);
#119 = FACE_SURFACE('',(#114),#118,.T.);
#120 = POLY_LOOP('',(#109,#110,#111,#112));
#121 = FACE_OUTER_BOUND('',#120,.T.);
#122 = DIRECTION('',(0.000000000,0.000000000,1.000000000));
#123 = DIRECTION('',(1.000000000,0.000000000,0.000000000));
#124 = AXIS2_PLACEMENT_3D('',#109,#122,#123);
#125 = PLANE('',#124);
#126 = FACE_SURFACE('',(#121),#125,.T.);
#127 = POLY_LOOP('',(#105,#106,#110,#109));
#128 = FACE_OUTER_BOUND('',#127,.T.);
#129 = DIRECTION('',(0.000000000,-1.000000000,0.000000000));
#130 = DIRECTION('',(1.000000000,0.000000000,0.000000000));
#131 = AXIS2_PLACEMENT_3D('',#105,#129,#130);
#132 = PLANE('',#131);
#133 = FACE_SURFACE('',(#128),#132,.T.);
#134 = POLY_LOOP('',(#106,#107,#111,#110));
#135 = FACE_OUTER_BOUND('',#134,.T.);
#136 = DIRECTION('',(1.000000000,0.000000000,0.000000000));
#137 = DIRECTION('',(0.000000000,1.000000000,0.000000000));
#138 = AXIS2_PLACEMENT_3D('',#106,#136,#137);
#139 = PLANE('',#138);
#140 = FACE_SURFACE('',(#135),#139,.T.);
#141 = POLY_LOOP('',(#107,#108,#112,#111));
#142 = FACE_OUTER_BOUND('',#141,.T.);
#143 = DIRECTION('',(0.000000000,1.000000000,0.000000000));
#144 = DIRECTION('',(-1.000000000,0.000000000,0.000000000));
#145 = AXIS2_PLACEMENT_3D('',#107,#143,#144);
#146 = PLANE('',#145);
#147 = FACE_SURFACE('',(#142),#146,.T.);
#148 = POLY_LOOP('',(#108,#105,#109,#112));
#149 = FACE_OUTER_BOUND('',#148,.T.);
#150 = DIRECTION('',(-1.000000000,0.000000000,0.000000000));
#151 = DIRECTION('',(0.000000000,-1.000000000,0.000000000));
#152 = AXIS2_PLACEMENT_3D('',#108,#150,#151);
#153 = PLANE('',#152);
#154 = FACE_SURFACE('',(#149),#153,.T.);
#155 = CLOSED_SHELL('',(#119,#126,#133,#140,#147,#154));
#156 = FACETED_BREP('silver removable top cover',#155);
#157 = CARTESIAN_POINT('',(-213.000000000,11.000000000,-272.500000000));
#158 = CARTESIAN_POINT('',(-210.000000000,11.000000000,-272.500000000));
#159 = CARTESIAN_POINT('',(-210.000000000,150.000000000,-272.500000000));
#160 = CARTESIAN_POINT('',(-213.000000000,150.000000000,-272.500000000));
#161 = CARTESIAN_POINT('',(-213.000000000,11.000000000,272.500000000));
#162 = CARTESIAN_POINT('',(-210.000000000,11.000000000,272.500000000));
#163 = CARTESIAN_POINT('',(-210.000000000,150.000000000,272.500000000));
#164 = CARTESIAN_POINT('',(-213.000000000,150.000000000,272.500000000));
#165 = POLY_LOOP('',(#157,#160,#159,#158));
#166 = FACE_OUTER_BOUND('',#165,.T.);
#167 = DIRECTION('',(0.000000000,0.000000000,-1.000000000));
#168 = DIRECTION('',(0.000000000,1.000000000,0.000000000));
#169 = AXIS2_PLACEMENT_3D('',#157,#167,#168);
#170 = PLANE('',#169);
#171 = FACE_SURFACE('',(#166),#170,.T.);
#172 = POLY_LOOP('',(#161,#162,#163,#164));
#173 = FACE_OUTER_BOUND('',#172,.T.);
#174 = DIRECTION('',(0.000000000,0.000000000,1.000000000));
#175 = DIRECTION('',(1.000000000,0.000000000,0.000000000));
#176 = AXIS2_PLACEMENT_3D('',#161,#174,#175);
#177 = PLANE('',#176);
#178 = FACE_SURFACE('',(#173),#177,.T.);
#179 = POLY_LOOP('',(#157,#158,#162,#161));
#180 = FACE_OUTER_BOUND('',#179,.T.);
#181 = DIRECTION('',(0.000000000,-1.000000000,0.000000000));
#182 = DIRECTION('',(1.000000000,0.000000000,0.000000000));
#183 = AXIS2_PLACEMENT_3D('',#157,#181,#182);
#184 = PLANE('',#183);
#185 = FACE_SURFACE('',(#180),#184,.T.);
#186 = POLY_LOOP('',(#158,#159,#163,#162));
#187 = FACE_OUTER_BOUND('',#186,.T.);
#188 = DIRECTION('',(1.000000000,0.000000000,0.000000000));
#189 = DIRECTION('',(0.000000000,1.000000000,0.000000000));
#190 = AXIS2_PLACEMENT_3D('',#158,#188,#189);
#191 = PLANE('',#190);
#192 = FACE_SURFACE('',(#187),#191,.T.);
#193 = POLY_LOOP('',(#159,#160,#164,#163));
#194 = FACE_OUTER_BOUND('',#193,.T.);
#195 = DIRECTION('',(0.000000000,1.000000000,0.000000000));
#196 = DIRECTION('',(-1.000000000,0.000000000,0.000000000));
#197 = AXIS2_PLACEMENT_3D('',#159,#195,#196);
#198 = PLANE('',#197);
#199 = FACE_SURFACE('',(#194),#198,.T.);
#200 = POLY_LOOP('',(#160,#157,#161,#164));
#201 = FACE_OUTER_BOUND('',#200,.T.);
#202 = DIRECTION('',(-1.000000000,0.000000000,0.000000000));
#203 = DIRECTION('',(0.000000000,-1.000000000,0.000000000));
#204 = AXIS2_PLACEMENT_3D('',#160,#202,#203);
#205 = PLANE('',#204);
#206 = FACE_SURFACE('',(#201),#205,.T.);
#207 = CLOSED_SHELL('',(#171,#178,#185,#192,#199,#206));
#208 = FACETED_BREP('silver right wall',#207);
#209 = CARTESIAN_POINT('',(-210.000000000,47.000000000,-272.500000000));
#210 = CARTESIAN_POINT('',(-40.000000000,47.000000000,-272.500000000));
#211 = CARTESIAN_POINT('',(-40.000000000,50.000000000,-272.500000000));
#212 = CARTESIAN_POINT('',(-210.000000000,50.000000000,-272.500000000));
#213 = CARTESIAN_POINT('',(-210.000000000,47.000000000,262.500000000));
#214 = CARTESIAN_POINT('',(-40.000000000,47.000000000,262.500000000));
#215 = CARTESIAN_POINT('',(-40.000000000,50.000000000,262.500000000));
#216 = CARTESIAN_POINT('',(-210.000000000,50.000000000,262.500000000));
#217 = POLY_LOOP('',(#209,#212,#211,#210));
#218 = FACE_OUTER_BOUND('',#217,.T.);
#219 = DIRECTION('',(0.000000000,0.000000000,-1.000000000));
#220 = DIRECTION('',(0.000000000,1.000000000,0.000000000));
#221 = AXIS2_PLACEMENT_3D('',#209,#219,#220);
#222 = PLANE('',#221);
#223 = FACE_SURFACE('',(#218),#222,.T.);
#224 = POLY_LOOP('',(#213,#214,#215,#216));
#225 = FACE_OUTER_BOUND('',#224,.T.);
#226 = DIRECTION('',(0.000000000,0.000000000,1.000000000));
#227 = DIRECTION('',(1.000000000,0.000000000,0.000000000));
#228 = AXIS2_PLACEMENT_3D('',#213,#226,#227);
#229 = PLANE('',#228);
#230 = FACE_SURFACE('',(#225),#229,.T.);
#231 = POLY_LOOP('',(#209,#210,#214,#213));
#232 = FACE_OUTER_BOUND('',#231,.T.);
#233 = DIRECTION('',(0.000000000,-1.000000000,0.000000000));
#234 = DIRECTION('',(1.000000000,0.000000000,0.000000000));
#235 = AXIS2_PLACEMENT_3D('',#209,#233,#234);
#236 = PLANE('',#235);
#237 = FACE_SURFACE('',(#232),#236,.T.);
#238 = POLY_LOOP('',(#210,#211,#215,#214));
#239 = FACE_OUTER_BOUND('',#238,.T.);
#240 = DIRECTION('',(1.000000000,0.000000000,0.000000000));
#241 = DIRECTION('',(0.000000000,1.000000000,0.000000000));
#242 = AXIS2_PLACEMENT_3D('',#210,#240,#241);
#243 = PLANE('',#242);
#244 = FACE_SURFACE('',(#239),#243,.T.);
#245 = POLY_LOOP('',(#211,#212,#216,#215));
#246 = FACE_OUTER_BOUND('',#245,.T.);
#247 = DIRECTION('',(0.000000000,1.000000000,0.000000000));
#248 = DIRECTION('',(-1.000000000,0.000000000,0.000000000));
#249 = AXIS2_PLACEMENT_3D('',#211,#247,#248);
#250 = PLANE('',#249);
#251 = FACE_SURFACE('',(#246),#250,.T.);
#252 = POLY_LOOP('',(#212,#209,#213,#216));
#253 = FACE_OUTER_BOUND('',#252,.T.);
#254 = DIRECTION('',(-1.000000000,0.000000000,0.000000000));
#255 = DIRECTION('',(0.000000000,-1.000000000,0.000000000));
#256 = AXIS2_PLACEMENT_3D('',#212,#254,#255);
#257 = PLANE('',#256);
#258 = FACE_SURFACE('',(#253),#257,.T.);
#259 = CLOSED_SHELL('',(#223,#230,#237,#244,#251,#258));
#260 = FACETED_BREP('silver horizontal bay divider',#259);
#261 = CARTESIAN_POINT('',(-210.000000000,50.000000000,264.500000000));
#262 = CARTESIAN_POINT('',(-40.000000000,50.000000000,264.500000000));
#263 = CARTESIAN_POINT('',(-40.000000000,150.000000000,264.500000000));
#264 = CARTESIAN_POINT('',(-210.000000000,150.000000000,264.500000000));
#265 = CARTESIAN_POINT('',(-210.000000000,50.000000000,272.500000000));
#266 = CARTESIAN_POINT('',(-40.000000000,50.000000000,272.500000000));
#267 = CARTESIAN_POINT('',(-40.000000000,150.000000000,272.500000000));
#268 = CARTESIAN_POINT('',(-210.000000000,150.000000000,272.500000000));
#269 = POLY_LOOP('',(#261,#264,#263,#262));
#270 = FACE_OUTER_BOUND('',#269,.T.);
#271 = DIRECTION('',(0.000000000,0.000000000,-1.000000000));
#272 = DIRECTION('',(0.000000000,1.000000000,0.000000000));
#273 = AXIS2_PLACEMENT_3D('',#261,#271,#272);
#274 = PLANE('',#273);
#275 = FACE_SURFACE('',(#270),#274,.T.);
#276 = POLY_LOOP('',(#265,#266,#267,#268));
#277 = FACE_OUTER_BOUND('',#276,.T.);
#278 = DIRECTION('',(0.000000000,0.000000000,1.000000000));
#279 = DIRECTION('',(1.000000000,0.000000000,0.000000000));
#280 = AXIS2_PLACEMENT_3D('',#265,#278,#279);
#281 = PLANE('',#280);
#282 = FACE_SURFACE('',(#277),#281,.T.);
#283 = POLY_LOOP('',(#261,#262,#266,#265));
#284 = FACE_OUTER_BOUND('',#283,.T.);
#285 = DIRECTION('',(0.000000000,-1.000000000,0.000000000));
#286 = DIRECTION('',(1.000000000,0.000000000,0.000000000));
#287 = AXIS2_PLACEMENT_3D('',#261,#285,#286);
#288 = PLANE('',#287);
#289 = FACE_SURFACE('',(#284),#288,.T.);
#290 = POLY_LOOP('',(#262,#263,#267,#266));
#291 = FACE_OUTER_BOUND('',#290,.T.);
#292 = DIRECTION('',(1.000000000,0.000000000,0.000000000));
#293 = DIRECTION('',(0.000000000,1.000000000,0.000000000));
#294 = AXIS2_PLACEMENT_3D('',#262,#292,#293);
#295 = PLANE('',#294);
#296 = FACE_SURFACE('',(#291),#295,.T.);
#297 = POLY_LOOP('',(#263,#264,#268,#267));
#298 = FACE_OUTER_BOUND('',#297,.T.);
#299 = DIRECTION('',(0.000000000,1.000000000,0.000000000));
#300 = DIRECTION('',(-1.000000000,0.000000000,0.000000000));
#301 = AXIS2_PLACEMENT_3D('',#263,#299,#300);
#302 = PLANE('',#301);
#303 = FACE_SURFACE('',(#298),#302,.T.);
#304 = POLY_LOOP('',(#264,#261,#265,#268));
#305 = FACE_OUTER_BOUND('',#304,.T.);
#306 = DIRECTION('',(-1.000000000,0.000000000,0.000000000));
#307 = DIRECTION('',(0.000000000,-1.000000000,0.000000000));
#308 = AXIS2_PLACEMENT_3D('',#264,#306,#307);
#309 = PLANE('',#308);
#310 = FACE_SURFACE('',(#305),#309,.T.);
#311 = CLOSED_SHELL('',(#275,#282,#289,#296,#303,#310));
#312 = FACETED_BREP('silver compact bay rear wall',#311);
#313 = CARTESIAN_POINT('',(-84.000000000,50.000000000,-272.500000000));
#314 = CARTESIAN_POINT('',(-82.000000000,50.000000000,-272.500000000));
#315 = CARTESIAN_POINT('',(-82.000000000,150.000000000,-272.500000000));
#316 = CARTESIAN_POINT('',(-84.000000000,150.000000000,-272.500000000));
#317 = CARTESIAN_POINT('',(-84.000000000,50.000000000,262.500000000));
#318 = CARTESIAN_POINT('',(-82.000000000,50.000000000,262.500000000));
#319 = CARTESIAN_POINT('',(-82.000000000,150.000000000,262.500000000));
#320 = CARTESIAN_POINT('',(-84.000000000,150.000000000,262.500000000));
#321 = POLY_LOOP('',(#313,#316,#315,#314));
#322 = FACE_OUTER_BOUND('',#321,.T.);
#323 = DIRECTION('',(0.000000000,0.000000000,-1.000000000));
#324 = DIRECTION('',(0.000000000,1.000000000,0.000000000));
#325 = AXIS2_PLACEMENT_3D('',#313,#323,#324);
#326 = PLANE('',#325);
#327 = FACE_SURFACE('',(#322),#326,.T.);
#328 = POLY_LOOP('',(#317,#318,#319,#320));
#329 = FACE_OUTER_BOUND('',#328,.T.);
#330 = DIRECTION('',(0.000000000,0.000000000,1.000000000));
#331 = DIRECTION('',(1.000000000,0.000000000,0.000000000));
#332 = AXIS2_PLACEMENT_3D('',#317,#330,#331);
#333 = PLANE('',#332);
#334 = FACE_SURFACE('',(#329),#333,.T.);
#335 = POLY_LOOP('',(#313,#314,#318,#317));
#336 = FACE_OUTER_BOUND('',#335,.T.);
#337 = DIRECTION('',(0.000000000,-1.000000000,0.000000000));
#338 = DIRECTION('',(1.000000000,0.000000000,0.000000000));
#339 = AXIS2_PLACEMENT_3D('',#313,#337,#338);
#340 = PLANE('',#339);
#341 = FACE_SURFACE('',(#336),#340,.T.);
#342 = POLY_LOOP('',(#314,#315,#319,#318));
#343 = FACE_OUTER_BOUND('',#342,.T.);
#344 = DIRECTION('',(1.000000000,0.000000000,0.000000000));
#345 = DIRECTION('',(0.000000000,1.000000000,0.000000000));
#346 = AXIS2_PLACEMENT_3D('',#314,#344,#345);
#347 = PLANE('',#346);
#348 = FACE_SURFACE('',(#343),#347,.T.);
#349 = POLY_LOOP('',(#315,#316,#320,#319));
#350 = FACE_OUTER_BOUND('',#349,.T.);
#351 = DIRECTION('',(0.000000000,1.000000000,0.000000000));
#352 = DIRECTION('',(-1.000000000,0.000000000,0.000000000));
#353 = AXIS2_PLACEMENT_3D('',#315,#351,#352);
#354 = PLANE('',#353);
#355 = FACE_SURFACE('',(#350),#354,.T.);
#356 = POLY_LOOP('',(#316,#313,#317,#320));
#357 = FACE_OUTER_BOUND('',#356,.T.);
#358 = DIRECTION('',(-1.000000000,0.000000000,0.000000000));
#359 = DIRECTION('',(0.000000000,-1.000000000,0.000000000));
#360 = AXIS2_PLACEMENT_3D('',#316,#358,#359);
#361 = PLANE('',#360);
#362 = FACE_SURFACE('',(#357),#361,.T.);
#363 = CLOSED_SHELL('',(#327,#334,#341,#348,#355,#362));
#364 = FACETED_BREP('silver vertical slot divider',#363);
#365 = CARTESIAN_POINT('',(-120.000000000,50.000000000,-272.500000000));
#366 = CARTESIAN_POINT('',(-118.000000000,50.000000000,-272.500000000));
#367 = CARTESIAN_POINT('',(-118.000000000,150.000000000,-272.500000000));
#368 = CARTESIAN_POINT('',(-120.000000000,150.000000000,-272.500000000));
#369 = CARTESIAN_POINT('',(-120.000000000,50.000000000,262.500000000));
#370 = CARTESIAN_POINT('',(-118.000000000,50.000000000,262.500000000));
#371 = CARTESIAN_POINT('',(-118.000000000,150.000000000,262.500000000));
#372 = CARTESIAN_POINT('',(-120.000000000,150.000000000,262.500000000));
#373 = POLY_LOOP('',(#365,#368,#367,#366));
#374 = FACE_OUTER_BOUND('',#373,.T.);
#375 = DIRECTION('',(0.000000000,0.000000000,-1.000000000));
#376 = DIRECTION('',(0.000000000,1.000000000,0.000000000));
#377 = AXIS2_PLACEMENT_3D('',#365,#375,#376);
#378 = PLANE('',#377);
#379 = FACE_SURFACE('',(#374),#378,.T.);
#380 = POLY_LOOP('',(#369,#370,#371,#372));
#381 = FACE_OUTER_BOUND('',#380,.T.);
#382 = DIRECTION('',(0.000000000,0.000000000,1.000000000));
#383 = DIRECTION('',(1.000000000,0.000000000,0.000000000));
#384 = AXIS2_PLACEMENT_3D('',#369,#382,#383);
#385 = PLANE('',#384);
#386 = FACE_SURFACE('',(#381),#385,.T.);
#387 = POLY_LOOP('',(#365,#366,#370,#369));
#388 = FACE_OUTER_BOUND('',#387,.T.);
#389 = DIRECTION('',(0.000000000,-1.000000000,0.000000000));
#390 = DIRECTION('',(1.000000000,0.000000000,0.000000000));
#391 = AXIS2_PLACEMENT_3D('',#365,#389,#390);
#392 = PLANE('',#391);
#393 = FACE_SURFACE('',(#388),#392,.T.);
#394 = POLY_LOOP('',(#366,#367,#371,#370));
#395 = FACE_OUTER_BOUND('',#394,.T.);
#396 = DIRECTION('',(1.000000000,0.000000000,0.000000000));
#397 = DIRECTION('',(0.000000000,1.000000000,0.000000000));
#398 = AXIS2_PLACEMENT_3D('',#366,#396,#397);
#399 = PLANE('',#398);
#400 = FACE_SURFACE('',(#395),#399,.T.);
#401 = POLY_LOOP('',(#367,#368,#372,#371));
#402 = FACE_OUTER_BOUND('',#401,.T.);
#403 = DIRECTION('',(0.000000000,1.000000000,0.000000000));
#404 = DIRECTION('',(-1.000000000,0.000000000,0.000000000));
#405 = AXIS2_PLACEMENT_3D('',#367,#403,#404);
#406 = PLANE('',#405);
#407 = FACE_SURFACE('',(#402),#406,.T.);
#408 = POLY_LOOP('',(#368,#365,#369,#372));
#409 = FACE_OUTER_BOUND('',#408,.T.);
#410 = DIRECTION('',(-1.000000000,0.000000000,0.000000000));
#411 = DIRECTION('',(0.000000000,-1.000000000,0.000000000));
#412 = AXIS2_PLACEMENT_3D('',#368,#410,#411);
#413 = PLANE('',#412);
#414 = FACE_SURFACE('',(#409),#413,.T.);
#415 = CLOSED_SHELL('',(#379,#386,#393,#400,#407,#414));
#416 = FACETED_BREP('silver vertical slot divider',#415);
#417 = CARTESIAN_POINT('',(-156.000000000,50.000000000,-272.500000000));
#418 = CARTESIAN_POINT('',(-154.000000000,50.000000000,-272.500000000));
#419 = CARTESIAN_POINT('',(-154.000000000,150.000000000,-272.500000000));
#420 = CARTESIAN_POINT('',(-156.000000000,150.000000000,-272.500000000));
#421 = CARTESIAN_POINT('',(-156.000000000,50.000000000,262.500000000));
#422 = CARTESIAN_POINT('',(-154.000000000,50.000000000,262.500000000));
#423 = CARTESIAN_POINT('',(-154.000000000,150.000000000,262.500000000));
#424 = CARTESIAN_POINT('',(-156.000000000,150.000000000,262.500000000));
#425 = POLY_LOOP('',(#417,#420,#419,#418));
#426 = FACE_OUTER_BOUND('',#425,.T.);
#427 = DIRECTION('',(0.000000000,0.000000000,-1.000000000));
#428 = DIRECTION('',(0.000000000,1.000000000,0.000000000));
#429 = AXIS2_PLACEMENT_3D('',#417,#427,#428);
#430 = PLANE('',#429);
#431 = FACE_SURFACE('',(#426),#430,.T.);
#432 = POLY_LOOP('',(#421,#422,#423,#424));
#433 = FACE_OUTER_BOUND('',#432,.T.);
#434 = DIRECTION('',(0.000000000,0.000000000,1.000000000));
#435 = DIRECTION('',(1.000000000,0.000000000,0.000000000));
#436 = AXIS2_PLACEMENT_3D('',#421,#434,#435);
#437 = PLANE('',#436);
#438 = FACE_SURFACE('',(#433),#437,.T.);
#439 = POLY_LOOP('',(#417,#418,#422,#421));
#440 = FACE_OUTER_BOUND('',#439,.T.);
#441 = DIRECTION('',(0.000000000,-1.000000000,0.000000000));
#442 = DIRECTION('',(1.000000000,0.000000000,0.000000000));
#443 = AXIS2_PLACEMENT_3D('',#417,#441,#442);
#444 = PLANE('',#443);
#445 = FACE_SURFACE('',(#440),#444,.T.);
#446 = POLY_LOOP('',(#418,#419,#423,#422));
#447 = FACE_OUTER_BOUND('',#446,.T.);
#448 = DIRECTION('',(1.000000000,0.000000000,0.000000000));
#449 = DIRECTION('',(0.000000000,1.000000000,0.000000000));
#450 = AXIS2_PLACEMENT_3D('',#418,#448,#449);
#451 = PLANE('',#450);
#452 = FACE_SURFACE('',(#447),#451,.T.);
#453 = POLY_LOOP('',(#419,#420,#424,#423));
#454 = FACE_OUTER_BOUND('',#453,.T.);
#455 = DIRECTION('',(0.000000000,1.000000000,0.000000000));
#456 = DIRECTION('',(-1.000000000,0.000000000,0.000000000));
#457 = AXIS2_PLACEMENT_3D('',#419,#455,#456);
#458 = PLANE('',#457);
#459 = FACE_SURFACE('',(#454),#458,.T.);
#460 = POLY_LOOP('',(#420,#417,#421,#424));
#461 = FACE_OUTER_BOUND('',#460,.T.);
#462 = DIRECTION('',(-1.000000000,0.000000000,0.000000000));
#463 = DIRECTION('',(0.000000000,-1.000000000,0.000000000));
#464 = AXIS2_PLACEMENT_3D('',#420,#462,#463);
#465 = PLANE('',#464);
#466 = FACE_SURFACE('',(#461),#465,.T.);
#467 = CLOSED_SHELL('',(#431,#438,#445,#452,#459,#466));
#468 = FACETED_BREP('silver vertical slot divider',#467);
#469 = CARTESIAN_POINT('',(-38.000000000,10.000000000,-275.500000000));
#470 = CARTESIAN_POINT('',(211.000000000,10.000000000,-275.500000000));
#471 = CARTESIAN_POINT('',(211.000000000,151.000000000,-275.500000000));
#472 = CARTESIAN_POINT('',(-38.000000000,151.000000000,-275.500000000));
#473 = CARTESIAN_POINT('',(-38.000000000,10.000000000,-272.500000000));
#474 = CARTESIAN_POINT('',(211.000000000,10.000000000,-272.500000000));
#475 = CARTESIAN_POINT('',(211.000000000,151.000000000,-272.500000000));
#476 = CARTESIAN_POINT('',(-38.000000000,151.000000000,-272.500000000));
#477 = POLY_LOOP('',(#469,#472,#471,#470));
#478 = FACE_OUTER_BOUND('',#477,.T.);
#479 = DIRECTION('',(0.000000000,0.000000000,-1.000000000));
#480 = DIRECTION('',(0.000000000,1.000000000,0.000000000));
#481 = AXIS2_PLACEMENT_3D('',#469,#479,#480);
#482 = PLANE('',#481);
#483 = FACE_SURFACE('',(#478),#482,.T.);
#484 = POLY_LOOP('',(#473,#474,#475,#476));
#485 = FACE_OUTER_BOUND('',#484,.T.);
#486 = DIRECTION('',(0.000000000,0.000000000,1.000000000));
#487 = DIRECTION('',(1.000000000,0.000000000,0.000000000));
#488 = AXIS2_PLACEMENT_3D('',#473,#486,#487);
#489 = PLANE('',#488);
#490 = FACE_SURFACE('',(#485),#489,.T.);
#491 = POLY_LOOP('',(#469,#470,#474,#473));
#492 = FACE_OUTER_BOUND('',#491,.T.);
#493 = DIRECTION('',(0.000000000,-1.000000000,0.000000000));
#494 = DIRECTION('',(1.000000000,0.000000000,0.000000000));
#495 = AXIS2_PLACEMENT_3D('',#469,#493,#494);
#496 = PLANE('',#495);
#497 = FACE_SURFACE('',(#492),#496,.T.);
#498 = POLY_LOOP('',(#470,#471,#475,#474));
#499 = FACE_OUTER_BOUND('',#498,.T.);
#500 = DIRECTION('',(1.000000000,0.000000000,0.000000000));
#501 = DIRECTION('',(0.000000000,1.000000000,0.000000000));
#502 = AXIS2_PLACEMENT_3D('',#470,#500,#501);
#503 = PLANE('',#502);
#504 = FACE_SURFACE('',(#499),#503,.T.);
#505 = POLY_LOOP('',(#471,#472,#476,#475));
#506 = FACE_OUTER_BOUND('',#505,.T.);
#507 = DIRECTION('',(0.000000000,1.000000000,0.000000000));
#508 = DIRECTION('',(-1.000000000,0.000000000,0.000000000));
#509 = AXIS2_PLACEMENT_3D('',#471,#507,#508);
#510 = PLANE('',#509);
#511 = FACE_SURFACE('',(#506),#510,.T.);
#512 = POLY_LOOP('',(#472,#469,#473,#476));
#513 = FACE_OUTER_BOUND('',#512,.T.);
#514 = DIRECTION('',(-1.000000000,0.000000000,0.000000000));
#515 = DIRECTION('',(0.000000000,-1.000000000,0.000000000));
#516 = AXIS2_PLACEMENT_3D('',#472,#514,#515);
#517 = PLANE('',#516);
#518 = FACE_SURFACE('',(#513),#517,.T.);
#519 = CLOSED_SHELL('',(#483,#490,#497,#504,#511,#518));
#520 = FACETED_BREP('silver left front panel',#519);
#521 = CARTESIAN_POINT('',(42.000000000,27.000000000,-277.500000000));
#522 = CARTESIAN_POINT('',(187.000000000,27.000000000,-277.500000000));
#523 = CARTESIAN_POINT('',(187.000000000,129.000000000,-277.500000000));
#524 = CARTESIAN_POINT('',(42.000000000,129.000000000,-277.500000000));
#525 = CARTESIAN_POINT('',(42.000000000,27.000000000,-275.500000000));
#526 = CARTESIAN_POINT('',(187.000000000,27.000000000,-275.500000000));
#527 = CARTESIAN_POINT('',(187.000000000,129.000000000,-275.500000000));
#528 = CARTESIAN_POINT('',(42.000000000,129.000000000,-275.500000000));
#529 = POLY_LOOP('',(#521,#524,#523,#522));
#530 = FACE_OUTER_BOUND('',#529,.T.);
#531 = DIRECTION('',(0.000000000,0.000000000,-1.000000000));
#532 = DIRECTION('',(0.000000000,1.000000000,0.000000000));
#533 = AXIS2_PLACEMENT_3D('',#521,#531,#532);
#534 = PLANE('',#533);
#535 = FACE_SURFACE('',(#530),#534,.T.);
#536 = POLY_LOOP('',(#525,#526,#527,#528));
#537 = FACE_OUTER_BOUND('',#536,.T.);
#538 = DIRECTION('',(0.000000000,0.000000000,1.000000000));
#539 = DIRECTION('',(1.000000000,0.000000000,0.000000000));
#540 = AXIS2_PLACEMENT_3D('',#525,#538,#539);
#541 = PLANE('',#540);
#542 = FACE_SURFACE('',(#537),#541,.T.);
#543 = POLY_LOOP('',(#521,#522,#526,#525));
#544 = FACE_OUTER_BOUND('',#543,.T.);
#545 = DIRECTION('',(0.000000000,-1.000000000,0.000000000));
#546 = DIRECTION('',(1.000000000,0.000000000,0.000000000));
#547 = AXIS2_PLACEMENT_3D('',#521,#545,#546);
#548 = PLANE('',#547);
#549 = FACE_SURFACE('',(#544),#548,.T.);
#550 = POLY_LOOP('',(#522,#523,#527,#526));
#551 = FACE_OUTER_BOUND('',#550,.T.);
#552 = DIRECTION('',(1.000000000,0.000000000,0.000000000));
#553 = DIRECTION('',(0.000000000,1.000000000,0.000000000));
#554 = AXIS2_PLACEMENT_3D('',#522,#552,#553);
#555 = PLANE('',#554);
#556 = FACE_SURFACE('',(#551),#555,.T.);
#557 = POLY_LOOP('',(#523,#524,#528,#527));
#558 = FACE_OUTER_BOUND('',#557,.T.);
#559 = DIRECTION('',(0.000000000,1.000000000,0.000000000));
#560 = DIRECTION('',(-1.000000000,0.000000000,0.000000000));
#561 = AXIS2_PLACEMENT_3D('',#523,#559,#560);
#562 = PLANE('',#561);
#563 = FACE_SURFACE('',(#558),#562,.T.);
#564 = POLY_LOOP('',(#524,#521,#525,#528));
#565 = FACE_OUTER_BOUND('',#564,.T.);
#566 = DIRECTION('',(-1.000000000,0.000000000,0.000000000));
#567 = DIRECTION('',(0.000000000,-1.000000000,0.000000000));
#568 = AXIS2_PLACEMENT_3D('',#524,#566,#567);
#569 = PLANE('',#568);
#570 = FACE_SURFACE('',(#565),#569,.T.);
#571 = CLOSED_SHELL('',(#535,#542,#549,#556,#563,#570));
#572 = FACETED_BREP('black display bezel',#571);
#573 = CARTESIAN_POINT('',(48.000000000,34.000000000,-280.500000000));
#574 = CARTESIAN_POINT('',(180.000000000,34.000000000,-280.500000000));
#575 = CARTESIAN_POINT('',(180.000000000,122.000000000,-280.500000000));
#576 = CARTESIAN_POINT('',(48.000000000,122.000000000,-280.500000000));
#577 = CARTESIAN_POINT('',(48.000000000,34.000000000,-279.500000000));
#578 = CARTESIAN_POINT('',(180.000000000,34.000000000,-279.500000000));
#579 = CARTESIAN_POINT('',(180.000000000,122.000000000,-279.500000000));
#580 = CARTESIAN_POINT('',(48.000000000,122.000000000,-279.500000000));
#581 = POLY_LOOP('',(#573,#576,#575,#574));
#582 = FACE_OUTER_BOUND('',#581,.T.);
#583 = DIRECTION('',(0.000000000,0.000000000,-1.000000000));
#584 = DIRECTION('',(0.000000000,1.000000000,0.000000000));
#585 = AXIS2_PLACEMENT_3D('',#573,#583,#584);
#586 = PLANE('',#585);
#587 = FACE_SURFACE('',(#582),#586,.T.);
#588 = POLY_LOOP('',(#577,#578,#579,#580));
#589 = FACE_OUTER_BOUND('',#588,.T.);
#590 = DIRECTION('',(0.000000000,0.000000000,1.000000000));
#591 = DIRECTION('',(1.000000000,0.000000000,0.000000000));
#592 = AXIS2_PLACEMENT_3D('',#577,#590,#591);
#593 = PLANE('',#592);
#594 = FACE_SURFACE('',(#589),#593,.T.);
#595 = POLY_LOOP('',(#573,#574,#578,#577));
#596 = FACE_OUTER_BOUND('',#595,.T.);
#597 = DIRECTION('',(0.000000000,-1.000000000,0.000000000));
#598 = DIRECTION('',(1.000000000,0.000000000,0.000000000));
#599 = AXIS2_PLACEMENT_3D('',#573,#597,#598);
#600 = PLANE('',#599);
#601 = FACE_SURFACE('',(#596),#600,.T.);
#602 = POLY_LOOP('',(#574,#575,#579,#578));
#603 = FACE_OUTER_BOUND('',#602,.T.);
#604 = DIRECTION('',(1.000000000,0.000000000,0.000000000));
#605 = DIRECTION('',(0.000000000,1.000000000,0.000000000));
#606 = AXIS2_PLACEMENT_3D('',#574,#604,#605);
#607 = PLANE('',#606);
#608 = FACE_SURFACE('',(#603),#607,.T.);
#609 = POLY_LOOP('',(#575,#576,#580,#579));
#610 = FACE_OUTER_BOUND('',#609,.T.);
#611 = DIRECTION('',(0.000000000,1.000000000,0.000000000));
#612 = DIRECTION('',(-1.000000000,0.000000000,0.000000000));
#613 = AXIS2_PLACEMENT_3D('',#575,#611,#612);
#614 = PLANE('',#613);
#615 = FACE_SURFACE('',(#610),#614,.T.);
#616 = POLY_LOOP('',(#576,#573,#577,#580));
#617 = FACE_OUTER_BOUND('',#616,.T.);
#618 = DIRECTION('',(-1.000000000,0.000000000,0.000000000));
#619 = DIRECTION('',(0.000000000,-1.000000000,0.000000000));
#620 = AXIS2_PLACEMENT_3D('',#576,#618,#619);
#621 = PLANE('',#620);
#622 = FACE_SURFACE('',(#617),#621,.T.);
#623 = CLOSED_SHELL('',(#587,#594,#601,#608,#615,#622));
#624 = FACETED_BREP('screen glass',#623);
#625 = CARTESIAN_POINT('',(20.000000000,88.000000000,-276.000000000));
#626 = CARTESIAN_POINT('',(19.119017293,82.437694101,-276.000000000));
#627 = CARTESIAN_POINT('',(16.562305899,77.419865459,-276.000000000));
#628 = CARTESIAN_POINT('',(12.580134541,73.437694101,-276.000000000));
#629 = CARTESIAN_POINT('',(7.562305899,70.880982707,-276.000000000));
#630 = CARTESIAN_POINT('',(2.000000000,70.000000000,-276.000000000));
#631 = CARTESIAN_POINT('',(-3.562305899,70.880982707,-276.000000000));
#632 = CARTESIAN_POINT('',(-8.580134541,73.437694101,-276.000000000));
#633 = CARTESIAN_POINT('',(-12.562305899,77.419865459,-276.000000000));
#634 = CARTESIAN_POINT('',(-15.119017293,82.437694101,-276.000000000));
#635 = CARTESIAN_POINT('',(-16.000000000,88.000000000,-276.000000000));
#636 = CARTESIAN_POINT('',(-15.119017293,93.562305899,-276.000000000));
#637 = CARTESIAN_POINT('',(-12.562305899,98.580134541,-276.000000000));
#638 = CARTESIAN_POINT('',(-8.580134541,102.562305899,-276.000000000));
#639 = CARTESIAN_POINT('',(-3.562305899,105.119017293,-276.000000000));
#640 = CARTESIAN_POINT('',(2.000000000,106.000000000,-276.000000000));
#641 = CARTESIAN_POINT('',(7.562305899,105.119017293,-276.000000000));
#642 = CARTESIAN_POINT('',(12.580134541,102.562305899,-276.000000000));
#643 = CARTESIAN_POINT('',(16.562305899,98.580134541,-276.000000000));
#644 = CARTESIAN_POINT('',(19.119017293,93.562305899,-276.000000000));
#645 = CARTESIAN_POINT('',(20.000000000,88.000000000,-287.000000000));
#646 = CARTESIAN_POINT('',(19.119017293,82.437694101,-287.000000000));
#647 = CARTESIAN_POINT('',(16.562305899,77.419865459,-287.000000000));
#648 = CARTESIAN_POINT('',(12.580134541,73.437694101,-287.000000000));
#649 = CARTESIAN_POINT('',(7.562305899,70.880982707,-287.000000000));
#650 = CARTESIAN_POINT('',(2.000000000,70.000000000,-287.000000000));
#651 = CARTESIAN_POINT('',(-3.562305899,70.880982707,-287.000000000));
#652 = CARTESIAN_POINT('',(-8.580134541,73.437694101,-287.000000000));
#653 = CARTESIAN_POINT('',(-12.562305899,77.419865459,-287.000000000));
#654 = CARTESIAN_POINT('',(-15.119017293,82.437694101,-287.000000000));
#655 = CARTESIAN_POINT('',(-16.000000000,88.000000000,-287.000000000));
#656 = CARTESIAN_POINT('',(-15.119017293,93.562305899,-287.000000000));
#657 = CARTESIAN_POINT('',(-12.562305899,98.580134541,-287.000000000));
#658 = CARTESIAN_POINT('',(-8.580134541,102.562305899,-287.000000000));
#659 = CARTESIAN_POINT('',(-3.562305899,105.119017293,-287.000000000));
#660 = CARTESIAN_POINT('',(2.000000000,106.000000000,-287.000000000));
#661 = CARTESIAN_POINT('',(7.562305899,105.119017293,-287.000000000));
#662 = CARTESIAN_POINT('',(12.580134541,102.562305899,-287.000000000));
#663 = CARTESIAN_POINT('',(16.562305899,98.580134541,-287.000000000));
#664 = CARTESIAN_POINT('',(19.119017293,93.562305899,-287.000000000));
#665 = POLY_LOOP('',(#644,#643,#642,#641,#640,#639,#638,#637,#636,#635,#634,#633,#632,#631,#630,#629,#628,#627,#626,#625));
#666 = FACE_OUTER_BOUND('',#665,.T.);
#667 = DIRECTION('',(0.000000000,0.000000000,1.000000000));
#668 = DIRECTION('',(-0.453990500,0.891006524,0.000000000));
#669 = AXIS2_PLACEMENT_3D('',#644,#667,#668);
#670 = PLANE('',#669);
#671 = FACE_SURFACE('',(#666),#670,.T.);
#672 = POLY_LOOP('',(#645,#646,#647,#648,#649,#650,#651,#652,#653,#654,#655,#656,#657,#658,#659,#660,#661,#662,#663,#664));
#673 = FACE_OUTER_BOUND('',#672,.T.);
#674 = DIRECTION('',(0.000000000,0.000000000,-1.000000000));
#675 = DIRECTION('',(-0.156434465,-0.987688341,0.000000000));
#676 = AXIS2_PLACEMENT_3D('',#645,#674,#675);
#677 = PLANE('',#676);
#678 = FACE_SURFACE('',(#673),#677,.T.);
#679 = POLY_LOOP('',(#625,#626,#646,#645));
#680 = FACE_OUTER_BOUND('',#679,.T.);
#681 = DIRECTION('',(0.987688341,-0.156434465,0.000000000));
#682 = DIRECTION('',(-0.156434465,-0.987688341,0.000000000));
#683 = AXIS2_PLACEMENT_3D('',#625,#681,#682);
#684 = PLANE('',#683);
#685 = FACE_SURFACE('',(#680),#684,.T.);
#686 = POLY_LOOP('',(#626,#627,#647,#646));
#687 = FACE_OUTER_BOUND('',#686,.T.);
#688 = DIRECTION('',(0.891006524,-0.453990500,0.000000000));
#689 = DIRECTION('',(-0.453990500,-0.891006524,0.000000000));
#690 = AXIS2_PLACEMENT_3D('',#626,#688,#689);
#691 = PLANE('',#690);
#692 = FACE_SURFACE('',(#687),#691,.T.);
#693 = POLY_LOOP('',(#627,#628,#648,#647));
#694 = FACE_OUTER_BOUND('',#693,.T.);
#695 = DIRECTION('',(0.707106781,-0.707106781,0.000000000));
#696 = DIRECTION('',(-0.707106781,-0.707106781,0.000000000));
#697 = AXIS2_PLACEMENT_3D('',#627,#695,#696);
#698 = PLANE('',#697);
#699 = FACE_SURFACE('',(#694),#698,.T.);
#700 = POLY_LOOP('',(#628,#629,#649,#648));
#701 = FACE_OUTER_BOUND('',#700,.T.);
#702 = DIRECTION('',(0.453990500,-0.891006524,0.000000000));
#703 = DIRECTION('',(-0.891006524,-0.453990500,0.000000000));
#704 = AXIS2_PLACEMENT_3D('',#628,#702,#703);
#705 = PLANE('',#704);
#706 = FACE_SURFACE('',(#701),#705,.T.);
#707 = POLY_LOOP('',(#629,#630,#650,#649));
#708 = FACE_OUTER_BOUND('',#707,.T.);
#709 = DIRECTION('',(0.156434465,-0.987688341,0.000000000));
#710 = DIRECTION('',(-0.987688341,-0.156434465,0.000000000));
#711 = AXIS2_PLACEMENT_3D('',#629,#709,#710);
#712 = PLANE('',#711);
#713 = FACE_SURFACE('',(#708),#712,.T.);
#714 = POLY_LOOP('',(#630,#631,#651,#650));
#715 = FACE_OUTER_BOUND('',#714,.T.);
#716 = DIRECTION('',(-0.156434465,-0.987688341,0.000000000));
#717 = DIRECTION('',(-0.987688341,0.156434465,0.000000000));
#718 = AXIS2_PLACEMENT_3D('',#630,#716,#717);
#719 = PLANE('',#718);
#720 = FACE_SURFACE('',(#715),#719,.T.);
#721 = POLY_LOOP('',(#631,#632,#652,#651));
#722 = FACE_OUTER_BOUND('',#721,.T.);
#723 = DIRECTION('',(-0.453990500,-0.891006524,0.000000000));
#724 = DIRECTION('',(-0.891006524,0.453990500,0.000000000));
#725 = AXIS2_PLACEMENT_3D('',#631,#723,#724);
#726 = PLANE('',#725);
#727 = FACE_SURFACE('',(#722),#726,.T.);
#728 = POLY_LOOP('',(#632,#633,#653,#652));
#729 = FACE_OUTER_BOUND('',#728,.T.);
#730 = DIRECTION('',(-0.707106781,-0.707106781,0.000000000));
#731 = DIRECTION('',(-0.707106781,0.707106781,0.000000000));
#732 = AXIS2_PLACEMENT_3D('',#632,#730,#731);
#733 = PLANE('',#732);
#734 = FACE_SURFACE('',(#729),#733,.T.);
#735 = POLY_LOOP('',(#633,#634,#654,#653));
#736 = FACE_OUTER_BOUND('',#735,.T.);
#737 = DIRECTION('',(-0.891006524,-0.453990500,0.000000000));
#738 = DIRECTION('',(-0.453990500,0.891006524,0.000000000));
#739 = AXIS2_PLACEMENT_3D('',#633,#737,#738);
#740 = PLANE('',#739);
#741 = FACE_SURFACE('',(#736),#740,.T.);
#742 = POLY_LOOP('',(#634,#635,#655,#654));
#743 = FACE_OUTER_BOUND('',#742,.T.);
#744 = DIRECTION('',(-0.987688341,-0.156434465,0.000000000));
#745 = DIRECTION('',(-0.156434465,0.987688341,0.000000000));
#746 = AXIS2_PLACEMENT_3D('',#634,#744,#745);
#747 = PLANE('',#746);
#748 = FACE_SURFACE('',(#743),#747,.T.);
#749 = POLY_LOOP('',(#635,#636,#656,#655));
#750 = FACE_OUTER_BOUND('',#749,.T.);
#751 = DIRECTION('',(-0.987688341,0.156434465,0.000000000));
#752 = DIRECTION('',(0.156434465,0.987688341,0.000000000));
#753 = AXIS2_PLACEMENT_3D('',#635,#751,#752);
#754 = PLANE('',#753);
#755 = FACE_SURFACE('',(#750),#754,.T.);
#756 = POLY_LOOP('',(#636,#637,#657,#656));
#757 = FACE_OUTER_BOUND('',#756,.T.);
#758 = DIRECTION('',(-0.891006524,0.453990500,0.000000000));
#759 = DIRECTION('',(0.453990500,0.891006524,0.000000000));
#760 = AXIS2_PLACEMENT_3D('',#636,#758,#759);
#761 = PLANE('',#760);
#762 = FACE_SURFACE('',(#757),#761,.T.);
#763 = POLY_LOOP('',(#637,#638,#658,#657));
#764 = FACE_OUTER_BOUND('',#763,.T.);
#765 = DIRECTION('',(-0.707106781,0.707106781,0.000000000));
#766 = DIRECTION('',(0.707106781,0.707106781,0.000000000));
#767 = AXIS2_PLACEMENT_3D('',#637,#765,#766);
#768 = PLANE('',#767);
#769 = FACE_SURFACE('',(#764),#768,.T.);
#770 = POLY_LOOP('',(#638,#639,#659,#658));
#771 = FACE_OUTER_BOUND('',#770,.T.);
#772 = DIRECTION('',(-0.453990500,0.891006524,0.000000000));
#773 = DIRECTION('',(0.891006524,0.453990500,0.000000000));
#774 = AXIS2_PLACEMENT_3D('',#638,#772,#773);
#775 = PLANE('',#774);
#776 = FACE_SURFACE('',(#771),#775,.T.);
#777 = POLY_LOOP('',(#639,#640,#660,#659));
#778 = FACE_OUTER_BOUND('',#777,.T.);
#779 = DIRECTION('',(-0.156434465,0.987688341,0.000000000));
#780 = DIRECTION('',(0.987688341,0.156434465,0.000000000));
#781 = AXIS2_PLACEMENT_3D('',#639,#779,#780);
#782 = PLANE('',#781);
#783 = FACE_SURFACE('',(#778),#782,.T.);
#784 = POLY_LOOP('',(#640,#641,#661,#660));
#785 = FACE_OUTER_BOUND('',#784,.T.);
#786 = DIRECTION('',(0.156434465,0.987688341,0.000000000));
#787 = DIRECTION('',(0.987688341,-0.156434465,0.000000000));
#788 = AXIS2_PLACEMENT_3D('',#640,#786,#787);
#789 = PLANE('',#788);
#790 = FACE_SURFACE('',(#785),#789,.T.);
#791 = POLY_LOOP('',(#641,#642,#662,#661));
#792 = FACE_OUTER_BOUND('',#791,.T.);
#793 = DIRECTION('',(0.453990500,0.891006524,0.000000000));
#794 = DIRECTION('',(0.891006524,-0.453990500,0.000000000));
#795 = AXIS2_PLACEMENT_3D('',#641,#793,#794);
#796 = PLANE('',#795);
#797 = FACE_SURFACE('',(#792),#796,.T.);
#798 = POLY_LOOP('',(#642,#643,#663,#662));
#799 = FACE_OUTER_BOUND('',#798,.T.);
#800 = DIRECTION('',(0.707106781,0.707106781,0.000000000));
#801 = DIRECTION('',(0.707106781,-0.707106781,0.000000000));
#802 = AXIS2_PLACEMENT_3D('',#642,#800,#801);
#803 = PLANE('',#802);
#804 = FACE_SURFACE('',(#799),#803,.T.);
#805 = POLY_LOOP('',(#643,#644,#664,#663));
#806 = FACE_OUTER_BOUND('',#805,.T.);
#807 = DIRECTION('',(0.891006524,0.453990500,0.000000000));
#808 = DIRECTION('',(0.453990500,-0.891006524,0.000000000));
#809 = AXIS2_PLACEMENT_3D('',#643,#807,#808);
#810 = PLANE('',#809);
#811 = FACE_SURFACE('',(#806),#810,.T.);
#812 = POLY_LOOP('',(#644,#625,#645,#664));
#813 = FACE_OUTER_BOUND('',#812,.T.);
#814 = DIRECTION('',(0.987688341,0.156434465,0.000000000));
#815 = DIRECTION('',(0.156434465,-0.987688341,0.000000000));
#816 = AXIS2_PLACEMENT_3D('',#644,#814,#815);
#817 = PLANE('',#816);
#818 = FACE_SURFACE('',(#813),#817,.T.);
#819 = CLOSED_SHELL('',(#671,#678,#685,#692,#699,#706,#713,#720,#727,#734,#741,#748,#755,#762,#769,#776,#783,#790,#797,#804,#811,#818));
#820 = FACETED_BREP('silver rotary control',#819);
#821 = CARTESIAN_POINT('',(25.000000000,38.000000000,-282.000000000));
#822 = CARTESIAN_POINT('',(37.000000000,38.000000000,-282.000000000));
#823 = CARTESIAN_POINT('',(37.000000000,45.000000000,-282.000000000));
#824 = CARTESIAN_POINT('',(25.000000000,45.000000000,-282.000000000));
#825 = CARTESIAN_POINT('',(25.000000000,38.000000000,-279.000000000));
#826 = CARTESIAN_POINT('',(37.000000000,38.000000000,-279.000000000));
#827 = CARTESIAN_POINT('',(37.000000000,45.000000000,-279.000000000));
#828 = CARTESIAN_POINT('',(25.000000000,45.000000000,-279.000000000));
#829 = POLY_LOOP('',(#821,#824,#823,#822));
#830 = FACE_OUTER_BOUND('',#829,.T.);
#831 = DIRECTION('',(0.000000000,0.000000000,-1.000000000));
#832 = DIRECTION('',(0.000000000,1.000000000,0.000000000));
#833 = AXIS2_PLACEMENT_3D('',#821,#831,#832);
#834 = PLANE('',#833);
#835 = FACE_SURFACE('',(#830),#834,.T.);
#836 = POLY_LOOP('',(#825,#826,#827,#828));
#837 = FACE_OUTER_BOUND('',#836,.T.);
#838 = DIRECTION('',(0.000000000,0.000000000,1.000000000));
#839 = DIRECTION('',(1.000000000,0.000000000,0.000000000));
#840 = AXIS2_PLACEMENT_3D('',#825,#838,#839);
#841 = PLANE('',#840);
#842 = FACE_SURFACE('',(#837),#841,.T.);
#843 = POLY_LOOP('',(#821,#822,#826,#825));
#844 = FACE_OUTER_BOUND('',#843,.T.);
#845 = DIRECTION('',(0.000000000,-1.000000000,0.000000000));
#846 = DIRECTION('',(1.000000000,0.000000000,0.000000000));
#847 = AXIS2_PLACEMENT_3D('',#821,#845,#846);
#848 = PLANE('',#847);
#849 = FACE_SURFACE('',(#844),#848,.T.);
#850 = POLY_LOOP('',(#822,#823,#827,#826));
#851 = FACE_OUTER_BOUND('',#850,.T.);
#852 = DIRECTION('',(1.000000000,0.000000000,0.000000000));
#853 = DIRECTION('',(0.000000000,1.000000000,0.000000000));
#854 = AXIS2_PLACEMENT_3D('',#822,#852,#853);
#855 = PLANE('',#854);
#856 = FACE_SURFACE('',(#851),#855,.T.);
#857 = POLY_LOOP('',(#823,#824,#828,#827));
#858 = FACE_OUTER_BOUND('',#857,.T.);
#859 = DIRECTION('',(0.000000000,1.000000000,0.000000000));
#860 = DIRECTION('',(-1.000000000,0.000000000,0.000000000));
#861 = AXIS2_PLACEMENT_3D('',#823,#859,#860);
#862 = PLANE('',#861);
#863 = FACE_SURFACE('',(#858),#862,.T.);
#864 = POLY_LOOP('',(#824,#821,#825,#828));
#865 = FACE_OUTER_BOUND('',#864,.T.);
#866 = DIRECTION('',(-1.000000000,0.000000000,0.000000000));
#867 = DIRECTION('',(0.000000000,-1.000000000,0.000000000));
#868 = AXIS2_PLACEMENT_3D('',#824,#866,#867);
#869 = PLANE('',#868);
#870 = FACE_SURFACE('',(#865),#869,.T.);
#871 = CLOSED_SHELL('',(#835,#842,#849,#856,#863,#870));
#872 = FACETED_BREP('black screen key',#871);
#873 = CARTESIAN_POINT('',(25.000000000,56.000000000,-282.000000000));
#874 = CARTESIAN_POINT('',(37.000000000,56.000000000,-282.000000000));
#875 = CARTESIAN_POINT('',(37.000000000,63.000000000,-282.000000000));
#876 = CARTESIAN_POINT('',(25.000000000,63.000000000,-282.000000000));
#877 = CARTESIAN_POINT('',(25.000000000,56.000000000,-279.000000000));
#878 = CARTESIAN_POINT('',(37.000000000,56.000000000,-279.000000000));
#879 = CARTESIAN_POINT('',(37.000000000,63.000000000,-279.000000000));
#880 = CARTESIAN_POINT('',(25.000000000,63.000000000,-279.000000000));
#881 = POLY_LOOP('',(#873,#876,#875,#874));
#882 = FACE_OUTER_BOUND('',#881,.T.);
#883 = DIRECTION('',(0.000000000,0.000000000,-1.000000000));
#884 = DIRECTION('',(0.000000000,1.000000000,0.000000000));
#885 = AXIS2_PLACEMENT_3D('',#873,#883,#884);
#886 = PLANE('',#885);
#887 = FACE_SURFACE('',(#882),#886,.T.);
#888 = POLY_LOOP('',(#877,#878,#879,#880));
#889 = FACE_OUTER_BOUND('',#888,.T.);
#890 = DIRECTION('',(0.000000000,0.000000000,1.000000000));
#891 = DIRECTION('',(1.000000000,0.000000000,0.000000000));
#892 = AXIS2_PLACEMENT_3D('',#877,#890,#891);
#893 = PLANE('',#892);
#894 = FACE_SURFACE('',(#889),#893,.T.);
#895 = POLY_LOOP('',(#873,#874,#878,#877));
#896 = FACE_OUTER_BOUND('',#895,.T.);
#897 = DIRECTION('',(0.000000000,-1.000000000,0.000000000));
#898 = DIRECTION('',(1.000000000,0.000000000,0.000000000));
#899 = AXIS2_PLACEMENT_3D('',#873,#897,#898);
#900 = PLANE('',#899);
#901 = FACE_SURFACE('',(#896),#900,.T.);
#902 = POLY_LOOP('',(#874,#875,#879,#878));
#903 = FACE_OUTER_BOUND('',#902,.T.);
#904 = DIRECTION('',(1.000000000,0.000000000,0.000000000));
#905 = DIRECTION('',(0.000000000,1.000000000,0.000000000));
#906 = AXIS2_PLACEMENT_3D('',#874,#904,#905);
#907 = PLANE('',#906);
#908 = FACE_SURFACE('',(#903),#907,.T.);
#909 = POLY_LOOP('',(#875,#876,#880,#879));
#910 = FACE_OUTER_BOUND('',#909,.T.);
#911 = DIRECTION('',(0.000000000,1.000000000,0.000000000));
#912 = DIRECTION('',(-1.000000000,0.000000000,0.000000000));
#913 = AXIS2_PLACEMENT_3D('',#875,#911,#912);
#914 = PLANE('',#913);
#915 = FACE_SURFACE('',(#910),#914,.T.);
#916 = POLY_LOOP('',(#876,#873,#877,#880));
#917 = FACE_OUTER_BOUND('',#916,.T.);
#918 = DIRECTION('',(-1.000000000,0.000000000,0.000000000));
#919 = DIRECTION('',(0.000000000,-1.000000000,0.000000000));
#920 = AXIS2_PLACEMENT_3D('',#876,#918,#919);
#921 = PLANE('',#920);
#922 = FACE_SURFACE('',(#917),#921,.T.);
#923 = CLOSED_SHELL('',(#887,#894,#901,#908,#915,#922));
#924 = FACETED_BREP('black screen key',#923);
#925 = CARTESIAN_POINT('',(25.000000000,74.000000000,-282.000000000));
#926 = CARTESIAN_POINT('',(37.000000000,74.000000000,-282.000000000));
#927 = CARTESIAN_POINT('',(37.000000000,81.000000000,-282.000000000));
#928 = CARTESIAN_POINT('',(25.000000000,81.000000000,-282.000000000));
#929 = CARTESIAN_POINT('',(25.000000000,74.000000000,-279.000000000));
#930 = CARTESIAN_POINT('',(37.000000000,74.000000000,-279.000000000));
#931 = CARTESIAN_POINT('',(37.000000000,81.000000000,-279.000000000));
#932 = CARTESIAN_POINT('',(25.000000000,81.000000000,-279.000000000));
#933 = POLY_LOOP('',(#925,#928,#927,#926));
#934 = FACE_OUTER_BOUND('',#933,.T.);
#935 = DIRECTION('',(0.000000000,0.000000000,-1.000000000));
#936 = DIRECTION('',(0.000000000,1.000000000,0.000000000));
#937 = AXIS2_PLACEMENT_3D('',#925,#935,#936);
#938 = PLANE('',#937);
#939 = FACE_SURFACE('',(#934),#938,.T.);
#940 = POLY_LOOP('',(#929,#930,#931,#932));
#941 = FACE_OUTER_BOUND('',#940,.T.);
#942 = DIRECTION('',(0.000000000,0.000000000,1.000000000));
#943 = DIRECTION('',(1.000000000,0.000000000,0.000000000));
#944 = AXIS2_PLACEMENT_3D('',#929,#942,#943);
#945 = PLANE('',#944);
#946 = FACE_SURFACE('',(#941),#945,.T.);
#947 = POLY_LOOP('',(#925,#926,#930,#929));
#948 = FACE_OUTER_BOUND('',#947,.T.);
#949 = DIRECTION('',(0.000000000,-1.000000000,0.000000000));
#950 = DIRECTION('',(1.000000000,0.000000000,0.000000000));
#951 = AXIS2_PLACEMENT_3D('',#925,#949,#950);
#952 = PLANE('',#951);
#953 = FACE_SURFACE('',(#948),#952,.T.);
#954 = POLY_LOOP('',(#926,#927,#931,#930));
#955 = FACE_OUTER_BOUND('',#954,.T.);
#956 = DIRECTION('',(1.000000000,0.000000000,0.000000000));
#957 = DIRECTION('',(0.000000000,1.000000000,0.000000000));
#958 = AXIS2_PLACEMENT_3D('',#926,#956,#957);
#959 = PLANE('',#958);
#960 = FACE_SURFACE('',(#955),#959,.T.);
#961 = POLY_LOOP('',(#927,#928,#932,#931));
#962 = FACE_OUTER_BOUND('',#961,.T.);
#963 = DIRECTION('',(0.000000000,1.000000000,0.000000000));
#964 = DIRECTION('',(-1.000000000,0.000000000,0.000000000));
#965 = AXIS2_PLACEMENT_3D('',#927,#963,#964);
#966 = PLANE('',#965);
#967 = FACE_SURFACE('',(#962),#966,.T.);
#968 = POLY_LOOP('',(#928,#925,#929,#932));
#969 = FACE_OUTER_BOUND('',#968,.T.);
#970 = DIRECTION('',(-1.000000000,0.000000000,0.000000000));
#971 = DIRECTION('',(0.000000000,-1.000000000,0.000000000));
#972 = AXIS2_PLACEMENT_3D('',#928,#970,#971);
#973 = PLANE('',#972);
#974 = FACE_SURFACE('',(#969),#973,.T.);
#975 = CLOSED_SHELL('',(#939,#946,#953,#960,#967,#974));
#976 = FACETED_BREP('black screen key',#975);
#977 = CARTESIAN_POINT('',(25.000000000,92.000000000,-282.000000000));
#978 = CARTESIAN_POINT('',(37.000000000,92.000000000,-282.000000000));
#979 = CARTESIAN_POINT('',(37.000000000,99.000000000,-282.000000000));
#980 = CARTESIAN_POINT('',(25.000000000,99.000000000,-282.000000000));
#981 = CARTESIAN_POINT('',(25.000000000,92.000000000,-279.000000000));
#982 = CARTESIAN_POINT('',(37.000000000,92.000000000,-279.000000000));
#983 = CARTESIAN_POINT('',(37.000000000,99.000000000,-279.000000000));
#984 = CARTESIAN_POINT('',(25.000000000,99.000000000,-279.000000000));
#985 = POLY_LOOP('',(#977,#980,#979,#978));
#986 = FACE_OUTER_BOUND('',#985,.T.);
#987 = DIRECTION('',(0.000000000,0.000000000,-1.000000000));
#988 = DIRECTION('',(0.000000000,1.000000000,0.000000000));
#989 = AXIS2_PLACEMENT_3D('',#977,#987,#988);
#990 = PLANE('',#989);
#991 = FACE_SURFACE('',(#986),#990,.T.);
#992 = POLY_LOOP('',(#981,#982,#983,#984));
#993 = FACE_OUTER_BOUND('',#992,.T.);
#994 = DIRECTION('',(0.000000000,0.000000000,1.000000000));
#995 = DIRECTION('',(1.000000000,0.000000000,0.000000000));
#996 = AXIS2_PLACEMENT_3D('',#981,#994,#995);
#997 = PLANE('',#996);
#998 = FACE_SURFACE('',(#993),#997,.T.);
#999 = POLY_LOOP('',(#977,#978,#982,#981));
#1000 = FACE_OUTER_BOUND('',#999,.T.);
#1001 = DIRECTION('',(0.000000000,-1.000000000,0.000000000));
#1002 = DIRECTION('',(1.000000000,0.000000000,0.000000000));
#1003 = AXIS2_PLACEMENT_3D('',#977,#1001,#1002);
#1004 = PLANE('',#1003);
#1005 = FACE_SURFACE('',(#1000),#1004,.T.);
#1006 = POLY_LOOP('',(#978,#979,#983,#982));
#1007 = FACE_OUTER_BOUND('',#1006,.T.);
#1008 = DIRECTION('',(1.000000000,0.000000000,0.000000000));
#1009 = DIRECTION('',(0.000000000,1.000000000,0.000000000));
#1010 = AXIS2_PLACEMENT_3D('',#978,#1008,#1009);
#1011 = PLANE('',#1010);
#1012 = FACE_SURFACE('',(#1007),#1011,.T.);
#1013 = POLY_LOOP('',(#979,#980,#984,#983));
#1014 = FACE_OUTER_BOUND('',#1013,.T.);
#1015 = DIRECTION('',(0.000000000,1.000000000,0.000000000));
#1016 = DIRECTION('',(-1.000000000,0.000000000,0.000000000));
#1017 = AXIS2_PLACEMENT_3D('',#979,#1015,#1016);
#1018 = PLANE('',#1017);
#1019 = FACE_SURFACE('',(#1014),#1018,.T.);
#1020 = POLY_LOOP('',(#980,#977,#981,#984));
#1021 = FACE_OUTER_BOUND('',#1020,.T.);
#1022 = DIRECTION('',(-1.000000000,0.000000000,0.000000000));
#1023 = DIRECTION('',(0.000000000,-1.000000000,0.000000000));
#1024 = AXIS2_PLACEMENT_3D('',#980,#1022,#1023);
#1025 = PLANE('',#1024);
#1026 = FACE_SURFACE('',(#1021),#1025,.T.);
#1027 = CLOSED_SHELL('',(#991,#998,#1005,#1012,#1019,#1026));
#1028 = FACETED_BREP('black screen key',#1027);
#1029 = CARTESIAN_POINT('',(25.000000000,110.000000000,-282.000000000));
#1030 = CARTESIAN_POINT('',(37.000000000,110.000000000,-282.000000000));
#1031 = CARTESIAN_POINT('',(37.000000000,117.000000000,-282.000000000));
#1032 = CARTESIAN_POINT('',(25.000000000,117.000000000,-282.000000000));
#1033 = CARTESIAN_POINT('',(25.000000000,110.000000000,-279.000000000));
#1034 = CARTESIAN_POINT('',(37.000000000,110.000000000,-279.000000000));
#1035 = CARTESIAN_POINT('',(37.000000000,117.000000000,-279.000000000));
#1036 = CARTESIAN_POINT('',(25.000000000,117.000000000,-279.000000000));
#1037 = POLY_LOOP('',(#1029,#1032,#1031,#1030));
#1038 = FACE_OUTER_BOUND('',#1037,.T.);
#1039 = DIRECTION('',(0.000000000,0.000000000,-1.000000000));
#1040 = DIRECTION('',(0.000000000,1.000000000,0.000000000));
#1041 = AXIS2_PLACEMENT_3D('',#1029,#1039,#1040);
#1042 = PLANE('',#1041);
#1043 = FACE_SURFACE('',(#1038),#1042,.T.);
#1044 = POLY_LOOP('',(#1033,#1034,#1035,#1036));
#1045 = FACE_OUTER_BOUND('',#1044,.T.);
#1046 = DIRECTION('',(0.000000000,0.000000000,1.000000000));
#1047 = DIRECTION('',(1.000000000,0.000000000,0.000000000));
#1048 = AXIS2_PLACEMENT_3D('',#1033,#1046,#1047);
#1049 = PLANE('',#1048);
#1050 = FACE_SURFACE('',(#1045),#1049,.T.);
#1051 = POLY_LOOP('',(#1029,#1030,#1034,#1033));
#1052 = FACE_OUTER_BOUND('',#1051,.T.);
#1053 = DIRECTION('',(0.000000000,-1.000000000,0.000000000));
#1054 = DIRECTION('',(1.000000000,0.000000000,0.000000000));
#1055 = AXIS2_PLACEMENT_3D('',#1029,#1053,#1054);
#1056 = PLANE('',#1055);
#1057 = FACE_SURFACE('',(#1052),#1056,.T.);
#1058 = POLY_LOOP('',(#1030,#1031,#1035,#1034));
#1059 = FACE_OUTER_BOUND('',#1058,.T.);
#1060 = DIRECTION('',(1.000000000,0.000000000,0.000000000));
#1061 = DIRECTION('',(0.000000000,1.000000000,0.000000000));
#1062 = AXIS2_PLACEMENT_3D('',#1030,#1060,#1061);
#1063 = PLANE('',#1062);
#1064 = FACE_SURFACE('',(#1059),#1063,.T.);
#1065 = POLY_LOOP('',(#1031,#1032,#1036,#1035));
#1066 = FACE_OUTER_BOUND('',#1065,.T.);
#1067 = DIRECTION('',(0.000000000,1.000000000,0.000000000));
#1068 = DIRECTION('',(-1.000000000,0.000000000,0.000000000));
#1069 = AXIS2_PLACEMENT_3D('',#1031,#1067,#1068);
#1070 = PLANE('',#1069);
#1071 = FACE_SURFACE('',(#1066),#1070,.T.);
#1072 = POLY_LOOP('',(#1032,#1029,#1033,#1036));
#1073 = FACE_OUTER_BOUND('',#1072,.T.);
#1074 = DIRECTION('',(-1.000000000,0.000000000,0.000000000));
#1075 = DIRECTION('',(0.000000000,-1.000000000,0.000000000));
#1076 = AXIS2_PLACEMENT_3D('',#1032,#1074,#1075);
#1077 = PLANE('',#1076);
#1078 = FACE_SURFACE('',(#1073),#1077,.T.);
#1079 = CLOSED_SHELL('',(#1043,#1050,#1057,#1064,#1071,#1078));
#1080 = FACETED_BREP('black screen key',#1079);
#1081 = CARTESIAN_POINT('',(-18.000000000,26.000000000,-282.000000000));
#1082 = CARTESIAN_POINT('',(-8.000000000,26.000000000,-282.000000000));
#1083 = CARTESIAN_POINT('',(-8.000000000,33.000000000,-282.000000000));
#1084 = CARTESIAN_POINT('',(-18.000000000,33.000000000,-282.000000000));
#1085 = CARTESIAN_POINT('',(-18.000000000,26.000000000,-279.000000000));
#1086 = CARTESIAN_POINT('',(-8.000000000,26.000000000,-279.000000000));
#1087 = CARTESIAN_POINT('',(-8.000000000,33.000000000,-279.000000000));
#1088 = CARTESIAN_POINT('',(-18.000000000,33.000000000,-279.000000000));
#1089 = POLY_LOOP('',(#1081,#1084,#1083,#1082));
#1090 = FACE_OUTER_BOUND('',#1089,.T.);
#1091 = DIRECTION('',(0.000000000,0.000000000,-1.000000000));
#1092 = DIRECTION('',(0.000000000,1.000000000,0.000000000));
#1093 = AXIS2_PLACEMENT_3D('',#1081,#1091,#1092);
#1094 = PLANE('',#1093);
#1095 = FACE_SURFACE('',(#1090),#1094,.T.);
#1096 = POLY_LOOP('',(#1085,#1086,#1087,#1088));
#1097 = FACE_OUTER_BOUND('',#1096,.T.);
#1098 = DIRECTION('',(0.000000000,0.000000000,1.000000000));
#1099 = DIRECTION('',(1.000000000,0.000000000,0.000000000));
#1100 = AXIS2_PLACEMENT_3D('',#1085,#1098,#1099);
#1101 = PLANE('',#1100);
#1102 = FACE_SURFACE('',(#1097),#1101,.T.);
#1103 = POLY_LOOP('',(#1081,#1082,#1086,#1085));
#1104 = FACE_OUTER_BOUND('',#1103,.T.);
#1105 = DIRECTION('',(0.000000000,-1.000000000,0.000000000));
#1106 = DIRECTION('',(1.000000000,0.000000000,0.000000000));
#1107 = AXIS2_PLACEMENT_3D('',#1081,#1105,#1106);
#1108 = PLANE('',#1107);
#1109 = FACE_SURFACE('',(#1104),#1108,.T.);
#1110 = POLY_LOOP('',(#1082,#1083,#1087,#1086));
#1111 = FACE_OUTER_BOUND('',#1110,.T.);
#1112 = DIRECTION('',(1.000000000,0.000000000,0.000000000));
#1113 = DIRECTION('',(0.000000000,1.000000000,0.000000000));
#1114 = AXIS2_PLACEMENT_3D('',#1082,#1112,#1113);
#1115 = PLANE('',#1114);
#1116 = FACE_SURFACE('',(#1111),#1115,.T.);
#1117 = POLY_LOOP('',(#1083,#1084,#1088,#1087));
#1118 = FACE_OUTER_BOUND('',#1117,.T.);
#1119 = DIRECTION('',(0.000000000,1.000000000,0.000000000));
#1120 = DIRECTION('',(-1.000000000,0.000000000,0.000000000));
#1121 = AXIS2_PLACEMENT_3D('',#1083,#1119,#1120);
#1122 = PLANE('',#1121);
#1123 = FACE_SURFACE('',(#1118),#1122,.T.);
#1124 = POLY_LOOP('',(#1084,#1081,#1085,#1088));
#1125 = FACE_OUTER_BOUND('',#1124,.T.);
#1126 = DIRECTION('',(-1.000000000,0.000000000,0.000000000));
#1127 = DIRECTION('',(0.000000000,-1.000000000,0.000000000));
#1128 = AXIS2_PLACEMENT_3D('',#1084,#1126,#1127);
#1129 = PLANE('',#1128);
#1130 = FACE_SURFACE('',(#1125),#1129,.T.);
#1131 = CLOSED_SHELL('',(#1095,#1102,#1109,#1116,#1123,#1130));
#1132 = FACETED_BREP('black keypad key',#1131);
#1133 = CARTESIAN_POINT('',(-3.000000000,26.000000000,-282.000000000));
#1134 = CARTESIAN_POINT('',(7.000000000,26.000000000,-282.000000000));
#1135 = CARTESIAN_POINT('',(7.000000000,33.000000000,-282.000000000));
#1136 = CARTESIAN_POINT('',(-3.000000000,33.000000000,-282.000000000));
#1137 = CARTESIAN_POINT('',(-3.000000000,26.000000000,-279.000000000));
#1138 = CARTESIAN_POINT('',(7.000000000,26.000000000,-279.000000000));
#1139 = CARTESIAN_POINT('',(7.000000000,33.000000000,-279.000000000));
#1140 = CARTESIAN_POINT('',(-3.000000000,33.000000000,-279.000000000));
#1141 = POLY_LOOP('',(#1133,#1136,#1135,#1134));
#1142 = FACE_OUTER_BOUND('',#1141,.T.);
#1143 = DIRECTION('',(0.000000000,0.000000000,-1.000000000));
#1144 = DIRECTION('',(0.000000000,1.000000000,0.000000000));
#1145 = AXIS2_PLACEMENT_3D('',#1133,#1143,#1144);
#1146 = PLANE('',#1145);
#1147 = FACE_SURFACE('',(#1142),#1146,.T.);
#1148 = POLY_LOOP('',(#1137,#1138,#1139,#1140));
#1149 = FACE_OUTER_BOUND('',#1148,.T.);
#1150 = DIRECTION('',(0.000000000,0.000000000,1.000000000));
#1151 = DIRECTION('',(1.000000000,0.000000000,0.000000000));
#1152 = AXIS2_PLACEMENT_3D('',#1137,#1150,#1151);
#1153 = PLANE('',#1152);
#1154 = FACE_SURFACE('',(#1149),#1153,.T.);
#1155 = POLY_LOOP('',(#1133,#1134,#1138,#1137));
#1156 = FACE_OUTER_BOUND('',#1155,.T.);
#1157 = DIRECTION('',(0.000000000,-1.000000000,0.000000000));
#1158 = DIRECTION('',(1.000000000,0.000000000,0.000000000));
#1159 = AXIS2_PLACEMENT_3D('',#1133,#1157,#1158);
#1160 = PLANE('',#1159);
#1161 = FACE_SURFACE('',(#1156),#1160,.T.);
#1162 = POLY_LOOP('',(#1134,#1135,#1139,#1138));
#1163 = FACE_OUTER_BOUND('',#1162,.T.);
#1164 = DIRECTION('',(1.000000000,0.000000000,0.000000000));
#1165 = DIRECTION('',(0.000000000,1.000000000,0.000000000));
#1166 = AXIS2_PLACEMENT_3D('',#1134,#1164,#1165);
#1167 = PLANE('',#1166);
#1168 = FACE_SURFACE('',(#1163),#1167,.T.);
#1169 = POLY_LOOP('',(#1135,#1136,#1140,#1139));
#1170 = FACE_OUTER_BOUND('',#1169,.T.);
#1171 = DIRECTION('',(0.000000000,1.000000000,0.000000000));
#1172 = DIRECTION('',(-1.000000000,0.000000000,0.000000000));
#1173 = AXIS2_PLACEMENT_3D('',#1135,#1171,#1172);
#1174 = PLANE('',#1173);
#1175 = FACE_SURFACE('',(#1170),#1174,.T.);
#1176 = POLY_LOOP('',(#1136,#1133,#1137,#1140));
#1177 = FACE_OUTER_BOUND('',#1176,.T.);
#1178 = DIRECTION('',(-1.000000000,0.000000000,0.000000000));
#1179 = DIRECTION('',(0.000000000,-1.000000000,0.000000000));
#1180 = AXIS2_PLACEMENT_3D('',#1136,#1178,#1179);
#1181 = PLANE('',#1180);
#1182 = FACE_SURFACE('',(#1177),#1181,.T.);
#1183 = CLOSED_SHELL('',(#1147,#1154,#1161,#1168,#1175,#1182));
#1184 = FACETED_BREP('black keypad key',#1183);
#1185 = CARTESIAN_POINT('',(12.000000000,26.000000000,-282.000000000));
#1186 = CARTESIAN_POINT('',(22.000000000,26.000000000,-282.000000000));
#1187 = CARTESIAN_POINT('',(22.000000000,33.000000000,-282.000000000));
#1188 = CARTESIAN_POINT('',(12.000000000,33.000000000,-282.000000000));
#1189 = CARTESIAN_POINT('',(12.000000000,26.000000000,-279.000000000));
#1190 = CARTESIAN_POINT('',(22.000000000,26.000000000,-279.000000000));
#1191 = CARTESIAN_POINT('',(22.000000000,33.000000000,-279.000000000));
#1192 = CARTESIAN_POINT('',(12.000000000,33.000000000,-279.000000000));
#1193 = POLY_LOOP('',(#1185,#1188,#1187,#1186));
#1194 = FACE_OUTER_BOUND('',#1193,.T.);
#1195 = DIRECTION('',(0.000000000,0.000000000,-1.000000000));
#1196 = DIRECTION('',(0.000000000,1.000000000,0.000000000));
#1197 = AXIS2_PLACEMENT_3D('',#1185,#1195,#1196);
#1198 = PLANE('',#1197);
#1199 = FACE_SURFACE('',(#1194),#1198,.T.);
#1200 = POLY_LOOP('',(#1189,#1190,#1191,#1192));
#1201 = FACE_OUTER_BOUND('',#1200,.T.);
#1202 = DIRECTION('',(0.000000000,0.000000000,1.000000000));
#1203 = DIRECTION('',(1.000000000,0.000000000,0.000000000));
#1204 = AXIS2_PLACEMENT_3D('',#1189,#1202,#1203);
#1205 = PLANE('',#1204);
#1206 = FACE_SURFACE('',(#1201),#1205,.T.);
#1207 = POLY_LOOP('',(#1185,#1186,#1190,#1189));
#1208 = FACE_OUTER_BOUND('',#1207,.T.);
#1209 = DIRECTION('',(0.000000000,-1.000000000,0.000000000));
#1210 = DIRECTION('',(1.000000000,0.000000000,0.000000000));
#1211 = AXIS2_PLACEMENT_3D('',#1185,#1209,#1210);
#1212 = PLANE('',#1211);
#1213 = FACE_SURFACE('',(#1208),#1212,.T.);
#1214 = POLY_LOOP('',(#1186,#1187,#1191,#1190));
#1215 = FACE_OUTER_BOUND('',#1214,.T.);
#1216 = DIRECTION('',(1.000000000,0.000000000,0.000000000));
#1217 = DIRECTION('',(0.000000000,1.000000000,0.000000000));
#1218 = AXIS2_PLACEMENT_3D('',#1186,#1216,#1217);
#1219 = PLANE('',#1218);
#1220 = FACE_SURFACE('',(#1215),#1219,.T.);
#1221 = POLY_LOOP('',(#1187,#1188,#1192,#1191));
#1222 = FACE_OUTER_BOUND('',#1221,.T.);
#1223 = DIRECTION('',(0.000000000,1.000000000,0.000000000));
#1224 = DIRECTION('',(-1.000000000,0.000000000,0.000000000));
#1225 = AXIS2_PLACEMENT_3D('',#1187,#1223,#1224);
#1226 = PLANE('',#1225);
#1227 = FACE_SURFACE('',(#1222),#1226,.T.);
#1228 = POLY_LOOP('',(#1188,#1185,#1189,#1192));
#1229 = FACE_OUTER_BOUND('',#1228,.T.);
#1230 = DIRECTION('',(-1.000000000,0.000000000,0.000000000));
#1231 = DIRECTION('',(0.000000000,-1.000000000,0.000000000));
#1232 = AXIS2_PLACEMENT_3D('',#1188,#1230,#1231);
#1233 = PLANE('',#1232);
#1234 = FACE_SURFACE('',(#1229),#1233,.T.);
#1235 = CLOSED_SHELL('',(#1199,#1206,#1213,#1220,#1227,#1234));
#1236 = FACETED_BREP('black keypad key',#1235);
#1237 = CARTESIAN_POINT('',(-18.000000000,38.000000000,-282.000000000));
#1238 = CARTESIAN_POINT('',(-8.000000000,38.000000000,-282.000000000));
#1239 = CARTESIAN_POINT('',(-8.000000000,45.000000000,-282.000000000));
#1240 = CARTESIAN_POINT('',(-18.000000000,45.000000000,-282.000000000));
#1241 = CARTESIAN_POINT('',(-18.000000000,38.000000000,-279.000000000));
#1242 = CARTESIAN_POINT('',(-8.000000000,38.000000000,-279.000000000));
#1243 = CARTESIAN_POINT('',(-8.000000000,45.000000000,-279.000000000));
#1244 = CARTESIAN_POINT('',(-18.000000000,45.000000000,-279.000000000));
#1245 = POLY_LOOP('',(#1237,#1240,#1239,#1238));
#1246 = FACE_OUTER_BOUND('',#1245,.T.);
#1247 = DIRECTION('',(0.000000000,0.000000000,-1.000000000));
#1248 = DIRECTION('',(0.000000000,1.000000000,0.000000000));
#1249 = AXIS2_PLACEMENT_3D('',#1237,#1247,#1248);
#1250 = PLANE('',#1249);
#1251 = FACE_SURFACE('',(#1246),#1250,.T.);
#1252 = POLY_LOOP('',(#1241,#1242,#1243,#1244));
#1253 = FACE_OUTER_BOUND('',#1252,.T.);
#1254 = DIRECTION('',(0.000000000,0.000000000,1.000000000));
#1255 = DIRECTION('',(1.000000000,0.000000000,0.000000000));
#1256 = AXIS2_PLACEMENT_3D('',#1241,#1254,#1255);
#1257 = PLANE('',#1256);
#1258 = FACE_SURFACE('',(#1253),#1257,.T.);
#1259 = POLY_LOOP('',(#1237,#1238,#1242,#1241));
#1260 = FACE_OUTER_BOUND('',#1259,.T.);
#1261 = DIRECTION('',(0.000000000,-1.000000000,0.000000000));
#1262 = DIRECTION('',(1.000000000,0.000000000,0.000000000));
#1263 = AXIS2_PLACEMENT_3D('',#1237,#1261,#1262);
#1264 = PLANE('',#1263);
#1265 = FACE_SURFACE('',(#1260),#1264,.T.);
#1266 = POLY_LOOP('',(#1238,#1239,#1243,#1242));
#1267 = FACE_OUTER_BOUND('',#1266,.T.);
#1268 = DIRECTION('',(1.000000000,0.000000000,0.000000000));
#1269 = DIRECTION('',(0.000000000,1.000000000,0.000000000));
#1270 = AXIS2_PLACEMENT_3D('',#1238,#1268,#1269);
#1271 = PLANE('',#1270);
#1272 = FACE_SURFACE('',(#1267),#1271,.T.);
#1273 = POLY_LOOP('',(#1239,#1240,#1244,#1243));
#1274 = FACE_OUTER_BOUND('',#1273,.T.);
#1275 = DIRECTION('',(0.000000000,1.000000000,0.000000000));
#1276 = DIRECTION('',(-1.000000000,0.000000000,0.000000000));
#1277 = AXIS2_PLACEMENT_3D('',#1239,#1275,#1276);
#1278 = PLANE('',#1277);
#1279 = FACE_SURFACE('',(#1274),#1278,.T.);
#1280 = POLY_LOOP('',(#1240,#1237,#1241,#1244));
#1281 = FACE_OUTER_BOUND('',#1280,.T.);
#1282 = DIRECTION('',(-1.000000000,0.000000000,0.000000000));
#1283 = DIRECTION('',(0.000000000,-1.000000000,0.000000000));
#1284 = AXIS2_PLACEMENT_3D('',#1240,#1282,#1283);
#1285 = PLANE('',#1284);
#1286 = FACE_SURFACE('',(#1281),#1285,.T.);
#1287 = CLOSED_SHELL('',(#1251,#1258,#1265,#1272,#1279,#1286));
#1288 = FACETED_BREP('black keypad key',#1287);
#1289 = CARTESIAN_POINT('',(-3.000000000,38.000000000,-282.000000000));
#1290 = CARTESIAN_POINT('',(7.000000000,38.000000000,-282.000000000));
#1291 = CARTESIAN_POINT('',(7.000000000,45.000000000,-282.000000000));
#1292 = CARTESIAN_POINT('',(-3.000000000,45.000000000,-282.000000000));
#1293 = CARTESIAN_POINT('',(-3.000000000,38.000000000,-279.000000000));
#1294 = CARTESIAN_POINT('',(7.000000000,38.000000000,-279.000000000));
#1295 = CARTESIAN_POINT('',(7.000000000,45.000000000,-279.000000000));
#1296 = CARTESIAN_POINT('',(-3.000000000,45.000000000,-279.000000000));
#1297 = POLY_LOOP('',(#1289,#1292,#1291,#1290));
#1298 = FACE_OUTER_BOUND('',#1297,.T.);
#1299 = DIRECTION('',(0.000000000,0.000000000,-1.000000000));
#1300 = DIRECTION('',(0.000000000,1.000000000,0.000000000));
#1301 = AXIS2_PLACEMENT_3D('',#1289,#1299,#1300);
#1302 = PLANE('',#1301);
#1303 = FACE_SURFACE('',(#1298),#1302,.T.);
#1304 = POLY_LOOP('',(#1293,#1294,#1295,#1296));
#1305 = FACE_OUTER_BOUND('',#1304,.T.);
#1306 = DIRECTION('',(0.000000000,0.000000000,1.000000000));
#1307 = DIRECTION('',(1.000000000,0.000000000,0.000000000));
#1308 = AXIS2_PLACEMENT_3D('',#1293,#1306,#1307);
#1309 = PLANE('',#1308);
#1310 = FACE_SURFACE('',(#1305),#1309,.T.);
#1311 = POLY_LOOP('',(#1289,#1290,#1294,#1293));
#1312 = FACE_OUTER_BOUND('',#1311,.T.);
#1313 = DIRECTION('',(0.000000000,-1.000000000,0.000000000));
#1314 = DIRECTION('',(1.000000000,0.000000000,0.000000000));
#1315 = AXIS2_PLACEMENT_3D('',#1289,#1313,#1314);
#1316 = PLANE('',#1315);
#1317 = FACE_SURFACE('',(#1312),#1316,.T.);
#1318 = POLY_LOOP('',(#1290,#1291,#1295,#1294));
#1319 = FACE_OUTER_BOUND('',#1318,.T.);
#1320 = DIRECTION('',(1.000000000,0.000000000,0.000000000));
#1321 = DIRECTION('',(0.000000000,1.000000000,0.000000000));
#1322 = AXIS2_PLACEMENT_3D('',#1290,#1320,#1321);
#1323 = PLANE('',#1322);
#1324 = FACE_SURFACE('',(#1319),#1323,.T.);
#1325 = POLY_LOOP('',(#1291,#1292,#1296,#1295));
#1326 = FACE_OUTER_BOUND('',#1325,.T.);
#1327 = DIRECTION('',(0.000000000,1.000000000,0.000000000));
#1328 = DIRECTION('',(-1.000000000,0.000000000,0.000000000));
#1329 = AXIS2_PLACEMENT_3D('',#1291,#1327,#1328);
#1330 = PLANE('',#1329);
#1331 = FACE_SURFACE('',(#1326),#1330,.T.);
#1332 = POLY_LOOP('',(#1292,#1289,#1293,#1296));
#1333 = FACE_OUTER_BOUND('',#1332,.T.);
#1334 = DIRECTION('',(-1.000000000,0.000000000,0.000000000));
#1335 = DIRECTION('',(0.000000000,-1.000000000,0.000000000));
#1336 = AXIS2_PLACEMENT_3D('',#1292,#1334,#1335);
#1337 = PLANE('',#1336);
#1338 = FACE_SURFACE('',(#1333),#1337,.T.);
#1339 = CLOSED_SHELL('',(#1303,#1310,#1317,#1324,#1331,#1338));
#1340 = FACETED_BREP('black keypad key',#1339);
#1341 = CARTESIAN_POINT('',(12.000000000,38.000000000,-282.000000000));
#1342 = CARTESIAN_POINT('',(22.000000000,38.000000000,-282.000000000));
#1343 = CARTESIAN_POINT('',(22.000000000,45.000000000,-282.000000000));
#1344 = CARTESIAN_POINT('',(12.000000000,45.000000000,-282.000000000));
#1345 = CARTESIAN_POINT('',(12.000000000,38.000000000,-279.000000000));
#1346 = CARTESIAN_POINT('',(22.000000000,38.000000000,-279.000000000));
#1347 = CARTESIAN_POINT('',(22.000000000,45.000000000,-279.000000000));
#1348 = CARTESIAN_POINT('',(12.000000000,45.000000000,-279.000000000));
#1349 = POLY_LOOP('',(#1341,#1344,#1343,#1342));
#1350 = FACE_OUTER_BOUND('',#1349,.T.);
#1351 = DIRECTION('',(0.000000000,0.000000000,-1.000000000));
#1352 = DIRECTION('',(0.000000000,1.000000000,0.000000000));
#1353 = AXIS2_PLACEMENT_3D('',#1341,#1351,#1352);
#1354 = PLANE('',#1353);
#1355 = FACE_SURFACE('',(#1350),#1354,.T.);
#1356 = POLY_LOOP('',(#1345,#1346,#1347,#1348));
#1357 = FACE_OUTER_BOUND('',#1356,.T.);
#1358 = DIRECTION('',(0.000000000,0.000000000,1.000000000));
#1359 = DIRECTION('',(1.000000000,0.000000000,0.000000000));
#1360 = AXIS2_PLACEMENT_3D('',#1345,#1358,#1359);
#1361 = PLANE('',#1360);
#1362 = FACE_SURFACE('',(#1357),#1361,.T.);
#1363 = POLY_LOOP('',(#1341,#1342,#1346,#1345));
#1364 = FACE_OUTER_BOUND('',#1363,.T.);
#1365 = DIRECTION('',(0.000000000,-1.000000000,0.000000000));
#1366 = DIRECTION('',(1.000000000,0.000000000,0.000000000));
#1367 = AXIS2_PLACEMENT_3D('',#1341,#1365,#1366);
#1368 = PLANE('',#1367);
#1369 = FACE_SURFACE('',(#1364),#1368,.T.);
#1370 = POLY_LOOP('',(#1342,#1343,#1347,#1346));
#1371 = FACE_OUTER_BOUND('',#1370,.T.);
#1372 = DIRECTION('',(1.000000000,0.000000000,0.000000000));
#1373 = DIRECTION('',(0.000000000,1.000000000,0.000000000));
#1374 = AXIS2_PLACEMENT_3D('',#1342,#1372,#1373);
#1375 = PLANE('',#1374);
#1376 = FACE_SURFACE('',(#1371),#1375,.T.);
#1377 = POLY_LOOP('',(#1343,#1344,#1348,#1347));
#1378 = FACE_OUTER_BOUND('',#1377,.T.);
#1379 = DIRECTION('',(0.000000000,1.000000000,0.000000000));
#1380 = DIRECTION('',(-1.000000000,0.000000000,0.000000000));
#1381 = AXIS2_PLACEMENT_3D('',#1343,#1379,#1380);
#1382 = PLANE('',#1381);
#1383 = FACE_SURFACE('',(#1378),#1382,.T.);
#1384 = POLY_LOOP('',(#1344,#1341,#1345,#1348));
#1385 = FACE_OUTER_BOUND('',#1384,.T.);
#1386 = DIRECTION('',(-1.000000000,0.000000000,0.000000000));
#1387 = DIRECTION('',(0.000000000,-1.000000000,0.000000000));
#1388 = AXIS2_PLACEMENT_3D('',#1344,#1386,#1387);
#1389 = PLANE('',#1388);
#1390 = FACE_SURFACE('',(#1385),#1389,.T.);
#1391 = CLOSED_SHELL('',(#1355,#1362,#1369,#1376,#1383,#1390));
#1392 = FACETED_BREP('black keypad key',#1391);
#1393 = CARTESIAN_POINT('',(-18.000000000,50.000000000,-282.000000000));
#1394 = CARTESIAN_POINT('',(-8.000000000,50.000000000,-282.000000000));
#1395 = CARTESIAN_POINT('',(-8.000000000,57.000000000,-282.000000000));
#1396 = CARTESIAN_POINT('',(-18.000000000,57.000000000,-282.000000000));
#1397 = CARTESIAN_POINT('',(-18.000000000,50.000000000,-279.000000000));
#1398 = CARTESIAN_POINT('',(-8.000000000,50.000000000,-279.000000000));
#1399 = CARTESIAN_POINT('',(-8.000000000,57.000000000,-279.000000000));
#1400 = CARTESIAN_POINT('',(-18.000000000,57.000000000,-279.000000000));
#1401 = POLY_LOOP('',(#1393,#1396,#1395,#1394));
#1402 = FACE_OUTER_BOUND('',#1401,.T.);
#1403 = DIRECTION('',(0.000000000,0.000000000,-1.000000000));
#1404 = DIRECTION('',(0.000000000,1.000000000,0.000000000));
#1405 = AXIS2_PLACEMENT_3D('',#1393,#1403,#1404);
#1406 = PLANE('',#1405);
#1407 = FACE_SURFACE('',(#1402),#1406,.T.);
#1408 = POLY_LOOP('',(#1397,#1398,#1399,#1400));
#1409 = FACE_OUTER_BOUND('',#1408,.T.);
#1410 = DIRECTION('',(0.000000000,0.000000000,1.000000000));
#1411 = DIRECTION('',(1.000000000,0.000000000,0.000000000));
#1412 = AXIS2_PLACEMENT_3D('',#1397,#1410,#1411);
#1413 = PLANE('',#1412);
#1414 = FACE_SURFACE('',(#1409),#1413,.T.);
#1415 = POLY_LOOP('',(#1393,#1394,#1398,#1397));
#1416 = FACE_OUTER_BOUND('',#1415,.T.);
#1417 = DIRECTION('',(0.000000000,-1.000000000,0.000000000));
#1418 = DIRECTION('',(1.000000000,0.000000000,0.000000000));
#1419 = AXIS2_PLACEMENT_3D('',#1393,#1417,#1418);
#1420 = PLANE('',#1419);
#1421 = FACE_SURFACE('',(#1416),#1420,.T.);
#1422 = POLY_LOOP('',(#1394,#1395,#1399,#1398));
#1423 = FACE_OUTER_BOUND('',#1422,.T.);
#1424 = DIRECTION('',(1.000000000,0.000000000,0.000000000));
#1425 = DIRECTION('',(0.000000000,1.000000000,0.000000000));
#1426 = AXIS2_PLACEMENT_3D('',#1394,#1424,#1425);
#1427 = PLANE('',#1426);
#1428 = FACE_SURFACE('',(#1423),#1427,.T.);
#1429 = POLY_LOOP('',(#1395,#1396,#1400,#1399));
#1430 = FACE_OUTER_BOUND('',#1429,.T.);
#1431 = DIRECTION('',(0.000000000,1.000000000,0.000000000));
#1432 = DIRECTION('',(-1.000000000,0.000000000,0.000000000));
#1433 = AXIS2_PLACEMENT_3D('',#1395,#1431,#1432);
#1434 = PLANE('',#1433);
#1435 = FACE_SURFACE('',(#1430),#1434,.T.);
#1436 = POLY_LOOP('',(#1396,#1393,#1397,#1400));
#1437 = FACE_OUTER_BOUND('',#1436,.T.);
#1438 = DIRECTION('',(-1.000000000,0.000000000,0.000000000));
#1439 = DIRECTION('',(0.000000000,-1.000000000,0.000000000));
#1440 = AXIS2_PLACEMENT_3D('',#1396,#1438,#1439);
#1441 = PLANE('',#1440);
#1442 = FACE_SURFACE('',(#1437),#1441,.T.);
#1443 = CLOSED_SHELL('',(#1407,#1414,#1421,#1428,#1435,#1442));
#1444 = FACETED_BREP('black keypad key',#1443);
#1445 = CARTESIAN_POINT('',(-3.000000000,50.000000000,-282.000000000));
#1446 = CARTESIAN_POINT('',(7.000000000,50.000000000,-282.000000000));
#1447 = CARTESIAN_POINT('',(7.000000000,57.000000000,-282.000000000));
#1448 = CARTESIAN_POINT('',(-3.000000000,57.000000000,-282.000000000));
#1449 = CARTESIAN_POINT('',(-3.000000000,50.000000000,-279.000000000));
#1450 = CARTESIAN_POINT('',(7.000000000,50.000000000,-279.000000000));
#1451 = CARTESIAN_POINT('',(7.000000000,57.000000000,-279.000000000));
#1452 = CARTESIAN_POINT('',(-3.000000000,57.000000000,-279.000000000));
#1453 = POLY_LOOP('',(#1445,#1448,#1447,#1446));
#1454 = FACE_OUTER_BOUND('',#1453,.T.);
#1455 = DIRECTION('',(0.000000000,0.000000000,-1.000000000));
#1456 = DIRECTION('',(0.000000000,1.000000000,0.000000000));
#1457 = AXIS2_PLACEMENT_3D('',#1445,#1455,#1456);
#1458 = PLANE('',#1457);
#1459 = FACE_SURFACE('',(#1454),#1458,.T.);
#1460 = POLY_LOOP('',(#1449,#1450,#1451,#1452));
#1461 = FACE_OUTER_BOUND('',#1460,.T.);
#1462 = DIRECTION('',(0.000000000,0.000000000,1.000000000));
#1463 = DIRECTION('',(1.000000000,0.000000000,0.000000000));
#1464 = AXIS2_PLACEMENT_3D('',#1449,#1462,#1463);
#1465 = PLANE('',#1464);
#1466 = FACE_SURFACE('',(#1461),#1465,.T.);
#1467 = POLY_LOOP('',(#1445,#1446,#1450,#1449));
#1468 = FACE_OUTER_BOUND('',#1467,.T.);
#1469 = DIRECTION('',(0.000000000,-1.000000000,0.000000000));
#1470 = DIRECTION('',(1.000000000,0.000000000,0.000000000));
#1471 = AXIS2_PLACEMENT_3D('',#1445,#1469,#1470);
#1472 = PLANE('',#1471);
#1473 = FACE_SURFACE('',(#1468),#1472,.T.);
#1474 = POLY_LOOP('',(#1446,#1447,#1451,#1450));
#1475 = FACE_OUTER_BOUND('',#1474,.T.);
#1476 = DIRECTION('',(1.000000000,0.000000000,0.000000000));
#1477 = DIRECTION('',(0.000000000,1.000000000,0.000000000));
#1478 = AXIS2_PLACEMENT_3D('',#1446,#1476,#1477);
#1479 = PLANE('',#1478);
#1480 = FACE_SURFACE('',(#1475),#1479,.T.);
#1481 = POLY_LOOP('',(#1447,#1448,#1452,#1451));
#1482 = FACE_OUTER_BOUND('',#1481,.T.);
#1483 = DIRECTION('',(0.000000000,1.000000000,0.000000000));
#1484 = DIRECTION('',(-1.000000000,0.000000000,0.000000000));
#1485 = AXIS2_PLACEMENT_3D('',#1447,#1483,#1484);
#1486 = PLANE('',#1485);
#1487 = FACE_SURFACE('',(#1482),#1486,.T.);
#1488 = POLY_LOOP('',(#1448,#1445,#1449,#1452));
#1489 = FACE_OUTER_BOUND('',#1488,.T.);
#1490 = DIRECTION('',(-1.000000000,0.000000000,0.000000000));
#1491 = DIRECTION('',(0.000000000,-1.000000000,0.000000000));
#1492 = AXIS2_PLACEMENT_3D('',#1448,#1490,#1491);
#1493 = PLANE('',#1492);
#1494 = FACE_SURFACE('',(#1489),#1493,.T.);
#1495 = CLOSED_SHELL('',(#1459,#1466,#1473,#1480,#1487,#1494));
#1496 = FACETED_BREP('black keypad key',#1495);
#1497 = CARTESIAN_POINT('',(12.000000000,50.000000000,-282.000000000));
#1498 = CARTESIAN_POINT('',(22.000000000,50.000000000,-282.000000000));
#1499 = CARTESIAN_POINT('',(22.000000000,57.000000000,-282.000000000));
#1500 = CARTESIAN_POINT('',(12.000000000,57.000000000,-282.000000000));
#1501 = CARTESIAN_POINT('',(12.000000000,50.000000000,-279.000000000));
#1502 = CARTESIAN_POINT('',(22.000000000,50.000000000,-279.000000000));
#1503 = CARTESIAN_POINT('',(22.000000000,57.000000000,-279.000000000));
#1504 = CARTESIAN_POINT('',(12.000000000,57.000000000,-279.000000000));
#1505 = POLY_LOOP('',(#1497,#1500,#1499,#1498));
#1506 = FACE_OUTER_BOUND('',#1505,.T.);
#1507 = DIRECTION('',(0.000000000,0.000000000,-1.000000000));
#1508 = DIRECTION('',(0.000000000,1.000000000,0.000000000));
#1509 = AXIS2_PLACEMENT_3D('',#1497,#1507,#1508);
#1510 = PLANE('',#1509);
#1511 = FACE_SURFACE('',(#1506),#1510,.T.);
#1512 = POLY_LOOP('',(#1501,#1502,#1503,#1504));
#1513 = FACE_OUTER_BOUND('',#1512,.T.);
#1514 = DIRECTION('',(0.000000000,0.000000000,1.000000000));
#1515 = DIRECTION('',(1.000000000,0.000000000,0.000000000));
#1516 = AXIS2_PLACEMENT_3D('',#1501,#1514,#1515);
#1517 = PLANE('',#1516);
#1518 = FACE_SURFACE('',(#1513),#1517,.T.);
#1519 = POLY_LOOP('',(#1497,#1498,#1502,#1501));
#1520 = FACE_OUTER_BOUND('',#1519,.T.);
#1521 = DIRECTION('',(0.000000000,-1.000000000,0.000000000));
#1522 = DIRECTION('',(1.000000000,0.000000000,0.000000000));
#1523 = AXIS2_PLACEMENT_3D('',#1497,#1521,#1522);
#1524 = PLANE('',#1523);
#1525 = FACE_SURFACE('',(#1520),#1524,.T.);
#1526 = POLY_LOOP('',(#1498,#1499,#1503,#1502));
#1527 = FACE_OUTER_BOUND('',#1526,.T.);
#1528 = DIRECTION('',(1.000000000,0.000000000,0.000000000));
#1529 = DIRECTION('',(0.000000000,1.000000000,0.000000000));
#1530 = AXIS2_PLACEMENT_3D('',#1498,#1528,#1529);
#1531 = PLANE('',#1530);
#1532 = FACE_SURFACE('',(#1527),#1531,.T.);
#1533 = POLY_LOOP('',(#1499,#1500,#1504,#1503));
#1534 = FACE_OUTER_BOUND('',#1533,.T.);
#1535 = DIRECTION('',(0.000000000,1.000000000,0.000000000));
#1536 = DIRECTION('',(-1.000000000,0.000000000,0.000000000));
#1537 = AXIS2_PLACEMENT_3D('',#1499,#1535,#1536);
#1538 = PLANE('',#1537);
#1539 = FACE_SURFACE('',(#1534),#1538,.T.);
#1540 = POLY_LOOP('',(#1500,#1497,#1501,#1504));
#1541 = FACE_OUTER_BOUND('',#1540,.T.);
#1542 = DIRECTION('',(-1.000000000,0.000000000,0.000000000));
#1543 = DIRECTION('',(0.000000000,-1.000000000,0.000000000));
#1544 = AXIS2_PLACEMENT_3D('',#1500,#1542,#1543);
#1545 = PLANE('',#1544);
#1546 = FACE_SURFACE('',(#1541),#1545,.T.);
#1547 = CLOSED_SHELL('',(#1511,#1518,#1525,#1532,#1539,#1546));
#1548 = FACETED_BREP('black keypad key',#1547);
#1549 = CARTESIAN_POINT('',(-177.500000000,0.000000000,-202.500000000));
#1550 = CARTESIAN_POINT('',(-152.500000000,0.000000000,-202.500000000));
#1551 = CARTESIAN_POINT('',(-152.500000000,8.000000000,-202.500000000));
#1552 = CARTESIAN_POINT('',(-177.500000000,8.000000000,-202.500000000));
#1553 = CARTESIAN_POINT('',(-177.500000000,0.000000000,-177.500000000));
#1554 = CARTESIAN_POINT('',(-152.500000000,0.000000000,-177.500000000));
#1555 = CARTESIAN_POINT('',(-152.500000000,8.000000000,-177.500000000));
#1556 = CARTESIAN_POINT('',(-177.500000000,8.000000000,-177.500000000));
#1557 = POLY_LOOP('',(#1549,#1552,#1551,#1550));
#1558 = FACE_OUTER_BOUND('',#1557,.T.);
#1559 = DIRECTION('',(0.000000000,0.000000000,-1.000000000));
#1560 = DIRECTION('',(0.000000000,1.000000000,0.000000000));
#1561 = AXIS2_PLACEMENT_3D('',#1549,#1559,#1560);
#1562 = PLANE('',#1561);
#1563 = FACE_SURFACE('',(#1558),#1562,.T.);
#1564 = POLY_LOOP('',(#1553,#1554,#1555,#1556));
#1565 = FACE_OUTER_BOUND('',#1564,.T.);
#1566 = DIRECTION('',(0.000000000,0.000000000,1.000000000));
#1567 = DIRECTION('',(1.000000000,0.000000000,0.000000000));
#1568 = AXIS2_PLACEMENT_3D('',#1553,#1566,#1567);
#1569 = PLANE('',#1568);
#1570 = FACE_SURFACE('',(#1565),#1569,.T.);
#1571 = POLY_LOOP('',(#1549,#1550,#1554,#1553));
#1572 = FACE_OUTER_BOUND('',#1571,.T.);
#1573 = DIRECTION('',(0.000000000,-1.000000000,0.000000000));
#1574 = DIRECTION('',(1.000000000,0.000000000,0.000000000));
#1575 = AXIS2_PLACEMENT_3D('',#1549,#1573,#1574);
#1576 = PLANE('',#1575);
#1577 = FACE_SURFACE('',(#1572),#1576,.T.);
#1578 = POLY_LOOP('',(#1550,#1551,#1555,#1554));
#1579 = FACE_OUTER_BOUND('',#1578,.T.);
#1580 = DIRECTION('',(1.000000000,0.000000000,0.000000000));
#1581 = DIRECTION('',(0.000000000,1.000000000,0.000000000));
#1582 = AXIS2_PLACEMENT_3D('',#1550,#1580,#1581);
#1583 = PLANE('',#1582);
#1584 = FACE_SURFACE('',(#1579),#1583,.T.);
#1585 = POLY_LOOP('',(#1551,#1552,#1556,#1555));
#1586 = FACE_OUTER_BOUND('',#1585,.T.);
#1587 = DIRECTION('',(0.000000000,1.000000000,0.000000000));
#1588 = DIRECTION('',(-1.000000000,0.000000000,0.000000000));
#1589 = AXIS2_PLACEMENT_3D('',#1551,#1587,#1588);
#1590 = PLANE('',#1589);
#1591 = FACE_SURFACE('',(#1586),#1590,.T.);
#1592 = POLY_LOOP('',(#1552,#1549,#1553,#1556));
#1593 = FACE_OUTER_BOUND('',#1592,.T.);
#1594 = DIRECTION('',(-1.000000000,0.000000000,0.000000000));
#1595 = DIRECTION('',(0.000000000,-1.000000000,0.000000000));
#1596 = AXIS2_PLACEMENT_3D('',#1552,#1594,#1595);
#1597 = PLANE('',#1596);
#1598 = FACE_SURFACE('',(#1593),#1597,.T.);
#1599 = CLOSED_SHELL('',(#1563,#1570,#1577,#1584,#1591,#1598));
#1600 = FACETED_BREP('black foot',#1599);
#1601 = CARTESIAN_POINT('',(-177.500000000,0.000000000,177.500000000));
#1602 = CARTESIAN_POINT('',(-152.500000000,0.000000000,177.500000000));
#1603 = CARTESIAN_POINT('',(-152.500000000,8.000000000,177.500000000));
#1604 = CARTESIAN_POINT('',(-177.500000000,8.000000000,177.500000000));
#1605 = CARTESIAN_POINT('',(-177.500000000,0.000000000,202.500000000));
#1606 = CARTESIAN_POINT('',(-152.500000000,0.000000000,202.500000000));
#1607 = CARTESIAN_POINT('',(-152.500000000,8.000000000,202.500000000));
#1608 = CARTESIAN_POINT('',(-177.500000000,8.000000000,202.500000000));
#1609 = POLY_LOOP('',(#1601,#1604,#1603,#1602));
#1610 = FACE_OUTER_BOUND('',#1609,.T.);
#1611 = DIRECTION('',(0.000000000,0.000000000,-1.000000000));
#1612 = DIRECTION('',(0.000000000,1.000000000,0.000000000));
#1613 = AXIS2_PLACEMENT_3D('',#1601,#1611,#1612);
#1614 = PLANE('',#1613);
#1615 = FACE_SURFACE('',(#1610),#1614,.T.);
#1616 = POLY_LOOP('',(#1605,#1606,#1607,#1608));
#1617 = FACE_OUTER_BOUND('',#1616,.T.);
#1618 = DIRECTION('',(0.000000000,0.000000000,1.000000000));
#1619 = DIRECTION('',(1.000000000,0.000000000,0.000000000));
#1620 = AXIS2_PLACEMENT_3D('',#1605,#1618,#1619);
#1621 = PLANE('',#1620);
#1622 = FACE_SURFACE('',(#1617),#1621,.T.);
#1623 = POLY_LOOP('',(#1601,#1602,#1606,#1605));
#1624 = FACE_OUTER_BOUND('',#1623,.T.);
#1625 = DIRECTION('',(0.000000000,-1.000000000,0.000000000));
#1626 = DIRECTION('',(1.000000000,0.000000000,0.000000000));
#1627 = AXIS2_PLACEMENT_3D('',#1601,#1625,#1626);
#1628 = PLANE('',#1627);
#1629 = FACE_SURFACE('',(#1624),#1628,.T.);
#1630 = POLY_LOOP('',(#1602,#1603,#1607,#1606));
#1631 = FACE_OUTER_BOUND('',#1630,.T.);
#1632 = DIRECTION('',(1.000000000,0.000000000,0.000000000));
#1633 = DIRECTION('',(0.000000000,1.000000000,0.000000000));
#1634 = AXIS2_PLACEMENT_3D('',#1602,#1632,#1633);
#1635 = PLANE('',#1634);
#1636 = FACE_SURFACE('',(#1631),#1635,.T.);
#1637 = POLY_LOOP('',(#1603,#1604,#1608,#1607));
#1638 = FACE_OUTER_BOUND('',#1637,.T.);
#1639 = DIRECTION('',(0.000000000,1.000000000,0.000000000));
#1640 = DIRECTION('',(-1.000000000,0.000000000,0.000000000));
#1641 = AXIS2_PLACEMENT_3D('',#1603,#1639,#1640);
#1642 = PLANE('',#1641);
#1643 = FACE_SURFACE('',(#1638),#1642,.T.);
#1644 = POLY_LOOP('',(#1604,#1601,#1605,#1608));
#1645 = FACE_OUTER_BOUND('',#1644,.T.);
#1646 = DIRECTION('',(-1.000000000,0.000000000,0.000000000));
#1647 = DIRECTION('',(0.000000000,-1.000000000,0.000000000));
#1648 = AXIS2_PLACEMENT_3D('',#1604,#1646,#1647);
#1649 = PLANE('',#1648);
#1650 = FACE_SURFACE('',(#1645),#1649,.T.);
#1651 = CLOSED_SHELL('',(#1615,#1622,#1629,#1636,#1643,#1650));
#1652 = FACETED_BREP('black foot',#1651);
#1653 = CARTESIAN_POINT('',(152.500000000,0.000000000,-202.500000000));
#1654 = CARTESIAN_POINT('',(177.500000000,0.000000000,-202.500000000));
#1655 = CARTESIAN_POINT('',(177.500000000,8.000000000,-202.500000000));
#1656 = CARTESIAN_POINT('',(152.500000000,8.000000000,-202.500000000));
#1657 = CARTESIAN_POINT('',(152.500000000,0.000000000,-177.500000000));
#1658 = CARTESIAN_POINT('',(177.500000000,0.000000000,-177.500000000));
#1659 = CARTESIAN_POINT('',(177.500000000,8.000000000,-177.500000000));
#1660 = CARTESIAN_POINT('',(152.500000000,8.000000000,-177.500000000));
#1661 = POLY_LOOP('',(#1653,#1656,#1655,#1654));
#1662 = FACE_OUTER_BOUND('',#1661,.T.);
#1663 = DIRECTION('',(0.000000000,0.000000000,-1.000000000));
#1664 = DIRECTION('',(0.000000000,1.000000000,0.000000000));
#1665 = AXIS2_PLACEMENT_3D('',#1653,#1663,#1664);
#1666 = PLANE('',#1665);
#1667 = FACE_SURFACE('',(#1662),#1666,.T.);
#1668 = POLY_LOOP('',(#1657,#1658,#1659,#1660));
#1669 = FACE_OUTER_BOUND('',#1668,.T.);
#1670 = DIRECTION('',(0.000000000,0.000000000,1.000000000));
#1671 = DIRECTION('',(1.000000000,0.000000000,0.000000000));
#1672 = AXIS2_PLACEMENT_3D('',#1657,#1670,#1671);
#1673 = PLANE('',#1672);
#1674 = FACE_SURFACE('',(#1669),#1673,.T.);
#1675 = POLY_LOOP('',(#1653,#1654,#1658,#1657));
#1676 = FACE_OUTER_BOUND('',#1675,.T.);
#1677 = DIRECTION('',(0.000000000,-1.000000000,0.000000000));
#1678 = DIRECTION('',(1.000000000,0.000000000,0.000000000));
#1679 = AXIS2_PLACEMENT_3D('',#1653,#1677,#1678);
#1680 = PLANE('',#1679);
#1681 = FACE_SURFACE('',(#1676),#1680,.T.);
#1682 = POLY_LOOP('',(#1654,#1655,#1659,#1658));
#1683 = FACE_OUTER_BOUND('',#1682,.T.);
#1684 = DIRECTION('',(1.000000000,0.000000000,0.000000000));
#1685 = DIRECTION('',(0.000000000,1.000000000,0.000000000));
#1686 = AXIS2_PLACEMENT_3D('',#1654,#1684,#1685);
#1687 = PLANE('',#1686);
#1688 = FACE_SURFACE('',(#1683),#1687,.T.);
#1689 = POLY_LOOP('',(#1655,#1656,#1660,#1659));
#1690 = FACE_OUTER_BOUND('',#1689,.T.);
#1691 = DIRECTION('',(0.000000000,1.000000000,0.000000000));
#1692 = DIRECTION('',(-1.000000000,0.000000000,0.000000000));
#1693 = AXIS2_PLACEMENT_3D('',#1655,#1691,#1692);
#1694 = PLANE('',#1693);
#1695 = FACE_SURFACE('',(#1690),#1694,.T.);
#1696 = POLY_LOOP('',(#1656,#1653,#1657,#1660));
#1697 = FACE_OUTER_BOUND('',#1696,.T.);
#1698 = DIRECTION('',(-1.000000000,0.000000000,0.000000000));
#1699 = DIRECTION('',(0.000000000,-1.000000000,0.000000000));
#1700 = AXIS2_PLACEMENT_3D('',#1656,#1698,#1699);
#1701 = PLANE('',#1700);
#1702 = FACE_SURFACE('',(#1697),#1701,.T.);
#1703 = CLOSED_SHELL('',(#1667,#1674,#1681,#1688,#1695,#1702));
#1704 = FACETED_BREP('black foot',#1703);
#1705 = CARTESIAN_POINT('',(152.500000000,0.000000000,177.500000000));
#1706 = CARTESIAN_POINT('',(177.500000000,0.000000000,177.500000000));
#1707 = CARTESIAN_POINT('',(177.500000000,8.000000000,177.500000000));
#1708 = CARTESIAN_POINT('',(152.500000000,8.000000000,177.500000000));
#1709 = CARTESIAN_POINT('',(152.500000000,0.000000000,202.500000000));
#1710 = CARTESIAN_POINT('',(177.500000000,0.000000000,202.500000000));
#1711 = CARTESIAN_POINT('',(177.500000000,8.000000000,202.500000000));
#1712 = CARTESIAN_POINT('',(152.500000000,8.000000000,202.500000000));
#1713 = POLY_LOOP('',(#1705,#1708,#1707,#1706));
#1714 = FACE_OUTER_BOUND('',#1713,.T.);
#1715 = DIRECTION('',(0.000000000,0.000000000,-1.000000000));
#1716 = DIRECTION('',(0.000000000,1.000000000,0.000000000));
#1717 = AXIS2_PLACEMENT_3D('',#1705,#1715,#1716);
#1718 = PLANE('',#1717);
#1719 = FACE_SURFACE('',(#1714),#1718,.T.);
#1720 = POLY_LOOP('',(#1709,#1710,#1711,#1712));
#1721 = FACE_OUTER_BOUND('',#1720,.T.);
#1722 = DIRECTION('',(0.000000000,0.000000000,1.000000000));
#1723 = DIRECTION('',(1.000000000,0.000000000,0.000000000));
#1724 = AXIS2_PLACEMENT_3D('',#1709,#1722,#1723);
#1725 = PLANE('',#1724);
#1726 = FACE_SURFACE('',(#1721),#1725,.T.);
#1727 = POLY_LOOP('',(#1705,#1706,#1710,#1709));
#1728 = FACE_OUTER_BOUND('',#1727,.T.);
#1729 = DIRECTION('',(0.000000000,-1.000000000,0.000000000));
#1730 = DIRECTION('',(1.000000000,0.000000000,0.000000000));
#1731 = AXIS2_PLACEMENT_3D('',#1705,#1729,#1730);
#1732 = PLANE('',#1731);
#1733 = FACE_SURFACE('',(#1728),#1732,.T.);
#1734 = POLY_LOOP('',(#1706,#1707,#1711,#1710));
#1735 = FACE_OUTER_BOUND('',#1734,.T.);
#1736 = DIRECTION('',(1.000000000,0.000000000,0.000000000));
#1737 = DIRECTION('',(0.000000000,1.000000000,0.000000000));
#1738 = AXIS2_PLACEMENT_3D('',#1706,#1736,#1737);
#1739 = PLANE('',#1738);
#1740 = FACE_SURFACE('',(#1735),#1739,.T.);
#1741 = POLY_LOOP('',(#1707,#1708,#1712,#1711));
#1742 = FACE_OUTER_BOUND('',#1741,.T.);
#1743 = DIRECTION('',(0.000000000,1.000000000,0.000000000));
#1744 = DIRECTION('',(-1.000000000,0.000000000,0.000000000));
#1745 = AXIS2_PLACEMENT_3D('',#1707,#1743,#1744);
#1746 = PLANE('',#1745);
#1747 = FACE_SURFACE('',(#1742),#1746,.T.);
#1748 = POLY_LOOP('',(#1708,#1705,#1709,#1712));
#1749 = FACE_OUTER_BOUND('',#1748,.T.);
#1750 = DIRECTION('',(-1.000000000,0.000000000,0.000000000));
#1751 = DIRECTION('',(0.000000000,-1.000000000,0.000000000));
#1752 = AXIS2_PLACEMENT_3D('',#1708,#1750,#1751);
#1753 = PLANE('',#1752);
#1754 = FACE_SURFACE('',(#1749),#1753,.T.);
#1755 = CLOSED_SHELL('',(#1719,#1726,#1733,#1740,#1747,#1754));
#1756 = FACETED_BREP('black foot',#1755);
#1757 = APPLICATION_CONTEXT('configuration controlled 3d designs of mechanical parts and assemblies');
#1758 = APPLICATION_PROTOCOL_DEFINITION('international standard','config_control_design',1994,#1757);
#1759 = PRODUCT_CONTEXT('',#1757,'mechanical');
#1760 = PRODUCT('REF','Illustrative reference','NOT vendor CAD',(#1759));
#1761 = PRODUCT_DEFINITION_FORMATION_WITH_SPECIFIED_SOURCE('','',#1760,.NOT_KNOWN.);
#1762 = PRODUCT_DEFINITION_CONTEXT('part definition',#1757,'design');
#1763 = PRODUCT_DEFINITION('design','',#1761,#1762);
#1764 = PRODUCT_DEFINITION_SHAPE('','',#1763);
#1765 = (LENGTH_UNIT()NAMED_UNIT(*)SI_UNIT(.MILLI.,.METRE.));
#1766 = (NAMED_UNIT(*)PLANE_ANGLE_UNIT()SI_UNIT($,.RADIAN.));
#1767 = (NAMED_UNIT(*)SI_UNIT($,.STERADIAN.)SOLID_ANGLE_UNIT());
#1768 = UNCERTAINTY_MEASURE_WITH_UNIT(LENGTH_MEASURE(0.000001),#1765,'distance_accuracy_value','');
#1769 = (GEOMETRIC_REPRESENTATION_CONTEXT(3)GLOBAL_UNCERTAINTY_ASSIGNED_CONTEXT((#1768))GLOBAL_UNIT_ASSIGNED_CONTEXT((#1765,#1766,#1767))REPRESENTATION_CONTEXT('',''));
#1770 = FACETED_BREP_SHAPE_REPRESENTATION('Illustrative reference',(#52,#104,#156,#208,#260,#312,#364,#416,#468,#520,#572,#624,#820,#872,#924,#976,#1028,#1080,#1132,#1184,#1236,#1288,#1340,#1392,#1444,#1496,#1548,#1600,#1652,#1704,#1756),#1769);
#1771 = SHAPE_DEFINITION_REPRESENTATION(#1764,#1770);
ENDSEC;
END-ISO-10303-21;
