ISO-10303-21;
HEADER;
FILE_DESCRIPTION(('Illustrative CAD - NOT vendor dimensions'),'2;1');
FILE_NAME('reference.step','2026-10-07',('CORNERSTONE'),(''),'reference generator','','');
FILE_SCHEMA(('CONFIG_CONTROL_DESIGN'));
ENDSEC;
DATA;
#1 = CARTESIAN_POINT('',(-35.000000000,0.000000000,-30.000000000));
#2 = CARTESIAN_POINT('',(35.000000000,0.000000000,-30.000000000));
#3 = CARTESIAN_POINT('',(35.000000000,12.000000000,-30.000000000));
#4 = CARTESIAN_POINT('',(-35.000000000,12.000000000,-30.000000000));
#5 = CARTESIAN_POINT('',(-35.000000000,0.000000000,30.000000000));
#6 = CARTESIAN_POINT('',(35.000000000,0.000000000,30.000000000));
#7 = CARTESIAN_POINT('',(35.000000000,12.000000000,30.000000000));
#8 = CARTESIAN_POINT('',(-35.000000000,12.000000000,30.000000000));
#9 = POLY_LOOP('',(#1,#4,#3,#2));
#10 = FACE_OUTER_BOUND('',#9,.T.);
#11 = DIRECTION('',(0.000000000,0.000000000,-1.000000000));
#12 = DIRECTION('',(0.000000000,1.000000000,0.000000000));
#13 = AXIS2_PLACEMENT_3D('',#1,#11,#12);
#14 = PLANE('',#13);
#15 = FACE_SURFACE('',(#10),#14,.T.);
#16 = POLY_LOOP('',(#5,#6,#7,#8));
#17 = FACE_OUTER_BOUND('',#16,.T.);
#18 = DIRECTION('',(0.000000000,0.000000000,1.000000000));
#19 = DIRECTION('',(1.000000000,0.000000000,0.000000000));
#20 = AXIS2_PLACEMENT_3D('',#5,#18,#19);
#21 = PLANE('',#20);
#22 = FACE_SURFACE('',(#17),#21,.T.);
#23 = POLY_LOOP('',(#1,#2,#6,#5));
#24 = FACE_OUTER_BOUND('',#23,.T.);
#25 = DIRECTION('',(0.000000000,-1.000000000,0.000000000));
#26 = DIRECTION('',(1.000000000,0.000000000,0.000000000));
#27 = AXIS2_PLACEMENT_3D('',#1,#25,#26);
#28 = PLANE('',#27);
#29 = FACE_SURFACE('',(#24),#28,.T.);
#30 = POLY_LOOP('',(#2,#3,#7,#6));
#31 = FACE_OUTER_BOUND('',#30,.T.);
#32 = DIRECTION('',(1.000000000,0.000000000,0.000000000));
#33 = DIRECTION('',(0.000000000,1.000000000,0.000000000));
#34 = AXIS2_PLACEMENT_3D('',#2,#32,#33);
#35 = PLANE('',#34);
#36 = FACE_SURFACE('',(#31),#35,.T.);
#37 = POLY_LOOP('',(#3,#4,#8,#7));
#38 = FACE_OUTER_BOUND('',#37,.T.);
#39 = DIRECTION('',(0.000000000,1.000000000,0.000000000));
#40 = DIRECTION('',(-1.000000000,0.000000000,0.000000000));
#41 = AXIS2_PLACEMENT_3D('',#3,#39,#40);
#42 = PLANE('',#41);
#43 = FACE_SURFACE('',(#38),#42,.T.);
#44 = POLY_LOOP('',(#4,#1,#5,#8));
#45 = FACE_OUTER_BOUND('',#44,.T.);
#46 = DIRECTION('',(-1.000000000,0.000000000,0.000000000));
#47 = DIRECTION('',(0.000000000,-1.000000000,0.000000000));
#48 = AXIS2_PLACEMENT_3D('',#4,#46,#47);
#49 = PLANE('',#48);
#50 = FACE_SURFACE('',(#45),#49,.T.);
#51 = CLOSED_SHELL('',(#15,#22,#29,#36,#43,#50));
#52 = FACETED_BREP('silver provisional arm base',#51);
#53 = CARTESIAN_POINT('',(0.000000000,12.000000000,-7.000000000));
#54 = CARTESIAN_POINT('',(-2.163118961,12.000000000,-6.657395614));
#55 = CARTESIAN_POINT('',(-4.114496766,12.000000000,-5.663118961));
#56 = CARTESIAN_POINT('',(-5.663118961,12.000000000,-4.114496766));
#57 = CARTESIAN_POINT('',(-6.657395614,12.000000000,-2.163118961));
#58 = CARTESIAN_POINT('',(-7.000000000,12.000000000,-0.000000000));
#59 = CARTESIAN_POINT('',(-6.657395614,12.000000000,2.163118961));
#60 = CARTESIAN_POINT('',(-5.663118961,12.000000000,4.114496766));
#61 = CARTESIAN_POINT('',(-4.114496766,12.000000000,5.663118961));
#62 = CARTESIAN_POINT('',(-2.163118961,12.000000000,6.657395614));
#63 = CARTESIAN_POINT('',(-0.000000000,12.000000000,7.000000000));
#64 = CARTESIAN_POINT('',(2.163118961,12.000000000,6.657395614));
#65 = CARTESIAN_POINT('',(4.114496766,12.000000000,5.663118961));
#66 = CARTESIAN_POINT('',(5.663118961,12.000000000,4.114496766));
#67 = CARTESIAN_POINT('',(6.657395614,12.000000000,2.163118961));
#68 = CARTESIAN_POINT('',(7.000000000,12.000000000,0.000000000));
#69 = CARTESIAN_POINT('',(6.657395614,12.000000000,-2.163118961));
#70 = CARTESIAN_POINT('',(5.663118961,12.000000000,-4.114496766));
#71 = CARTESIAN_POINT('',(4.114496766,12.000000000,-5.663118961));
#72 = CARTESIAN_POINT('',(2.163118961,12.000000000,-6.657395614));
#73 = CARTESIAN_POINT('',(0.000000000,70.000000000,-7.000000000));
#74 = CARTESIAN_POINT('',(-2.163118961,70.000000000,-6.657395614));
#75 = CARTESIAN_POINT('',(-4.114496766,70.000000000,-5.663118961));
#76 = CARTESIAN_POINT('',(-5.663118961,70.000000000,-4.114496766));
#77 = CARTESIAN_POINT('',(-6.657395614,70.000000000,-2.163118961));
#78 = CARTESIAN_POINT('',(-7.000000000,70.000000000,-0.000000000));
#79 = CARTESIAN_POINT('',(-6.657395614,70.000000000,2.163118961));
#80 = CARTESIAN_POINT('',(-5.663118961,70.000000000,4.114496766));
#81 = CARTESIAN_POINT('',(-4.114496766,70.000000000,5.663118961));
#82 = CARTESIAN_POINT('',(-2.163118961,70.000000000,6.657395614));
#83 = CARTESIAN_POINT('',(-0.000000000,70.000000000,7.000000000));
#84 = CARTESIAN_POINT('',(2.163118961,70.000000000,6.657395614));
#85 = CARTESIAN_POINT('',(4.114496766,70.000000000,5.663118961));
#86 = CARTESIAN_POINT('',(5.663118961,70.000000000,4.114496766));
#87 = CARTESIAN_POINT('',(6.657395614,70.000000000,2.163118961));
#88 = CARTESIAN_POINT('',(7.000000000,70.000000000,0.000000000));
#89 = CARTESIAN_POINT('',(6.657395614,70.000000000,-2.163118961));
#90 = CARTESIAN_POINT('',(5.663118961,70.000000000,-4.114496766));
#91 = CARTESIAN_POINT('',(4.114496766,70.000000000,-5.663118961));
#92 = CARTESIAN_POINT('',(2.163118961,70.000000000,-6.657395614));
#93 = POLY_LOOP('',(#72,#71,#70,#69,#68,#67,#66,#65,#64,#63,#62,#61,#60,#59,#58,#57,#56,#55,#54,#53));
#94 = FACE_OUTER_BOUND('',#93,.T.);
#95 = DIRECTION('',(0.000000000,-1.000000000,0.000000000));
#96 = DIRECTION('',(0.891006524,0.000000000,0.453990500));
#97 = AXIS2_PLACEMENT_3D('',#72,#95,#96);
#98 = PLANE('',#97);
#99 = FACE_SURFACE('',(#94),#98,.T.);
#100 = POLY_LOOP('',(#73,#74,#75,#76,#77,#78,#79,#80,#81,#82,#83,#84,#85,#86,#87,#88,#89,#90,#91,#92));
#101 = FACE_OUTER_BOUND('',#100,.T.);
#102 = DIRECTION('',(0.000000000,1.000000000,0.000000000));
#103 = DIRECTION('',(-0.987688341,0.000000000,0.156434465));
#104 = AXIS2_PLACEMENT_3D('',#73,#102,#103);
#105 = PLANE('',#104);
#106 = FACE_SURFACE('',(#101),#105,.T.);
#107 = POLY_LOOP('',(#53,#54,#74,#73));
#108 = FACE_OUTER_BOUND('',#107,.T.);
#109 = DIRECTION('',(-0.156434465,0.000000000,-0.987688341));
#110 = DIRECTION('',(-0.987688341,0.000000000,0.156434465));
#111 = AXIS2_PLACEMENT_3D('',#53,#109,#110);
#112 = PLANE('',#111);
#113 = FACE_SURFACE('',(#108),#112,.T.);
#114 = POLY_LOOP('',(#54,#55,#75,#74));
#115 = FACE_OUTER_BOUND('',#114,.T.);
#116 = DIRECTION('',(-0.453990500,0.000000000,-0.891006524));
#117 = DIRECTION('',(-0.891006524,0.000000000,0.453990500));
#118 = AXIS2_PLACEMENT_3D('',#54,#116,#117);
#119 = PLANE('',#118);
#120 = FACE_SURFACE('',(#115),#119,.T.);
#121 = POLY_LOOP('',(#55,#56,#76,#75));
#122 = FACE_OUTER_BOUND('',#121,.T.);
#123 = DIRECTION('',(-0.707106781,0.000000000,-0.707106781));
#124 = DIRECTION('',(-0.707106781,0.000000000,0.707106781));
#125 = AXIS2_PLACEMENT_3D('',#55,#123,#124);
#126 = PLANE('',#125);
#127 = FACE_SURFACE('',(#122),#126,.T.);
#128 = POLY_LOOP('',(#56,#57,#77,#76));
#129 = FACE_OUTER_BOUND('',#128,.T.);
#130 = DIRECTION('',(-0.891006524,0.000000000,-0.453990500));
#131 = DIRECTION('',(-0.453990500,0.000000000,0.891006524));
#132 = AXIS2_PLACEMENT_3D('',#56,#130,#131);
#133 = PLANE('',#132);
#134 = FACE_SURFACE('',(#129),#133,.T.);
#135 = POLY_LOOP('',(#57,#58,#78,#77));
#136 = FACE_OUTER_BOUND('',#135,.T.);
#137 = DIRECTION('',(-0.987688341,0.000000000,-0.156434465));
#138 = DIRECTION('',(-0.156434465,0.000000000,0.987688341));
#139 = AXIS2_PLACEMENT_3D('',#57,#137,#138);
#140 = PLANE('',#139);
#141 = FACE_SURFACE('',(#136),#140,.T.);
#142 = POLY_LOOP('',(#58,#59,#79,#78));
#143 = FACE_OUTER_BOUND('',#142,.T.);
#144 = DIRECTION('',(-0.987688341,0.000000000,0.156434465));
#145 = DIRECTION('',(0.156434465,0.000000000,0.987688341));
#146 = AXIS2_PLACEMENT_3D('',#58,#144,#145);
#147 = PLANE('',#146);
#148 = FACE_SURFACE('',(#143),#147,.T.);
#149 = POLY_LOOP('',(#59,#60,#80,#79));
#150 = FACE_OUTER_BOUND('',#149,.T.);
#151 = DIRECTION('',(-0.891006524,0.000000000,0.453990500));
#152 = DIRECTION('',(0.453990500,0.000000000,0.891006524));
#153 = AXIS2_PLACEMENT_3D('',#59,#151,#152);
#154 = PLANE('',#153);
#155 = FACE_SURFACE('',(#150),#154,.T.);
#156 = POLY_LOOP('',(#60,#61,#81,#80));
#157 = FACE_OUTER_BOUND('',#156,.T.);
#158 = DIRECTION('',(-0.707106781,0.000000000,0.707106781));
#159 = DIRECTION('',(0.707106781,0.000000000,0.707106781));
#160 = AXIS2_PLACEMENT_3D('',#60,#158,#159);
#161 = PLANE('',#160);
#162 = FACE_SURFACE('',(#157),#161,.T.);
#163 = POLY_LOOP('',(#61,#62,#82,#81));
#164 = FACE_OUTER_BOUND('',#163,.T.);
#165 = DIRECTION('',(-0.453990500,0.000000000,0.891006524));
#166 = DIRECTION('',(0.891006524,0.000000000,0.453990500));
#167 = AXIS2_PLACEMENT_3D('',#61,#165,#166);
#168 = PLANE('',#167);
#169 = FACE_SURFACE('',(#164),#168,.T.);
#170 = POLY_LOOP('',(#62,#63,#83,#82));
#171 = FACE_OUTER_BOUND('',#170,.T.);
#172 = DIRECTION('',(-0.156434465,0.000000000,0.987688341));
#173 = DIRECTION('',(0.987688341,0.000000000,0.156434465));
#174 = AXIS2_PLACEMENT_3D('',#62,#172,#173);
#175 = PLANE('',#174);
#176 = FACE_SURFACE('',(#171),#175,.T.);
#177 = POLY_LOOP('',(#63,#64,#84,#83));
#178 = FACE_OUTER_BOUND('',#177,.T.);
#179 = DIRECTION('',(0.156434465,0.000000000,0.987688341));
#180 = DIRECTION('',(0.987688341,0.000000000,-0.156434465));
#181 = AXIS2_PLACEMENT_3D('',#63,#179,#180);
#182 = PLANE('',#181);
#183 = FACE_SURFACE('',(#178),#182,.T.);
#184 = POLY_LOOP('',(#64,#65,#85,#84));
#185 = FACE_OUTER_BOUND('',#184,.T.);
#186 = DIRECTION('',(0.453990500,0.000000000,0.891006524));
#187 = DIRECTION('',(0.891006524,0.000000000,-0.453990500));
#188 = AXIS2_PLACEMENT_3D('',#64,#186,#187);
#189 = PLANE('',#188);
#190 = FACE_SURFACE('',(#185),#189,.T.);
#191 = POLY_LOOP('',(#65,#66,#86,#85));
#192 = FACE_OUTER_BOUND('',#191,.T.);
#193 = DIRECTION('',(0.707106781,0.000000000,0.707106781));
#194 = DIRECTION('',(0.707106781,0.000000000,-0.707106781));
#195 = AXIS2_PLACEMENT_3D('',#65,#193,#194);
#196 = PLANE('',#195);
#197 = FACE_SURFACE('',(#192),#196,.T.);
#198 = POLY_LOOP('',(#66,#67,#87,#86));
#199 = FACE_OUTER_BOUND('',#198,.T.);
#200 = DIRECTION('',(0.891006524,0.000000000,0.453990500));
#201 = DIRECTION('',(0.453990500,0.000000000,-0.891006524));
#202 = AXIS2_PLACEMENT_3D('',#66,#200,#201);
#203 = PLANE('',#202);
#204 = FACE_SURFACE('',(#199),#203,.T.);
#205 = POLY_LOOP('',(#67,#68,#88,#87));
#206 = FACE_OUTER_BOUND('',#205,.T.);
#207 = DIRECTION('',(0.987688341,0.000000000,0.156434465));
#208 = DIRECTION('',(0.156434465,0.000000000,-0.987688341));
#209 = AXIS2_PLACEMENT_3D('',#67,#207,#208);
#210 = PLANE('',#209);
#211 = FACE_SURFACE('',(#206),#210,.T.);
#212 = POLY_LOOP('',(#68,#69,#89,#88));
#213 = FACE_OUTER_BOUND('',#212,.T.);
#214 = DIRECTION('',(0.987688341,0.000000000,-0.156434465));
#215 = DIRECTION('',(-0.156434465,0.000000000,-0.987688341));
#216 = AXIS2_PLACEMENT_3D('',#68,#214,#215);
#217 = PLANE('',#216);
#218 = FACE_SURFACE('',(#213),#217,.T.);
#219 = POLY_LOOP('',(#69,#70,#90,#89));
#220 = FACE_OUTER_BOUND('',#219,.T.);
#221 = DIRECTION('',(0.891006524,0.000000000,-0.453990500));
#222 = DIRECTION('',(-0.453990500,0.000000000,-0.891006524));
#223 = AXIS2_PLACEMENT_3D('',#69,#221,#222);
#224 = PLANE('',#223);
#225 = FACE_SURFACE('',(#220),#224,.T.);
#226 = POLY_LOOP('',(#70,#71,#91,#90));
#227 = FACE_OUTER_BOUND('',#226,.T.);
#228 = DIRECTION('',(0.707106781,0.000000000,-0.707106781));
#229 = DIRECTION('',(-0.707106781,0.000000000,-0.707106781));
#230 = AXIS2_PLACEMENT_3D('',#70,#228,#229);
#231 = PLANE('',#230);
#232 = FACE_SURFACE('',(#227),#231,.T.);
#233 = POLY_LOOP('',(#71,#72,#92,#91));
#234 = FACE_OUTER_BOUND('',#233,.T.);
#235 = DIRECTION('',(0.453990500,0.000000000,-0.891006524));
#236 = DIRECTION('',(-0.891006524,0.000000000,-0.453990500));
#237 = AXIS2_PLACEMENT_3D('',#71,#235,#236);
#238 = PLANE('',#237);
#239 = FACE_SURFACE('',(#234),#238,.T.);
#240 = POLY_LOOP('',(#72,#53,#73,#92));
#241 = FACE_OUTER_BOUND('',#240,.T.);
#242 = DIRECTION('',(0.156434465,0.000000000,-0.987688341));
#243 = DIRECTION('',(-0.987688341,0.000000000,-0.156434465));
#244 = AXIS2_PLACEMENT_3D('',#72,#242,#243);
#245 = PLANE('',#244);
#246 = FACE_SURFACE('',(#241),#245,.T.);
#247 = CLOSED_SHELL('',(#99,#106,#113,#120,#127,#134,#141,#148,#155,#162,#169,#176,#183,#190,#197,#204,#211,#218,#225,#232,#239,#246));
#248 = FACETED_BREP('silver upright',#247);
#249 = CARTESIAN_POINT('',(0.000000000,65.000000000,5.000000000));
#250 = CARTESIAN_POINT('',(0.218508012,63.470443914,4.755282581));
#251 = CARTESIAN_POINT('',(0.415626938,62.090611436,4.045084972));
#252 = CARTESIAN_POINT('',(0.572061403,60.995570180,2.938926261));
#253 = CARTESIAN_POINT('',(0.672498512,60.292510416,1.545084972));
#254 = CARTESIAN_POINT('',(0.707106781,60.050252532,0.000000000));
#255 = CARTESIAN_POINT('',(0.672498512,60.292510416,-1.545084972));
#256 = CARTESIAN_POINT('',(0.572061403,60.995570180,-2.938926261));
#257 = CARTESIAN_POINT('',(0.415626938,62.090611436,-4.045084972));
#258 = CARTESIAN_POINT('',(0.218508012,63.470443914,-4.755282581));
#259 = CARTESIAN_POINT('',(0.000000000,65.000000000,-5.000000000));
#260 = CARTESIAN_POINT('',(-0.218508012,66.529556086,-4.755282581));
#261 = CARTESIAN_POINT('',(-0.415626938,67.909388564,-4.045084972));
#262 = CARTESIAN_POINT('',(-0.572061403,69.004429820,-2.938926261));
#263 = CARTESIAN_POINT('',(-0.672498512,69.707489584,-1.545084972));
#264 = CARTESIAN_POINT('',(-0.707106781,69.949747468,-0.000000000));
#265 = CARTESIAN_POINT('',(-0.672498512,69.707489584,1.545084972));
#266 = CARTESIAN_POINT('',(-0.572061403,69.004429820,2.938926261));
#267 = CARTESIAN_POINT('',(-0.415626938,67.909388564,4.045084972));
#268 = CARTESIAN_POINT('',(-0.218508012,66.529556086,4.755282581));
#269 = CARTESIAN_POINT('',(70.000000000,75.000000000,5.000000000));
#270 = CARTESIAN_POINT('',(70.218508012,73.470443914,4.755282581));
#271 = CARTESIAN_POINT('',(70.415626938,72.090611436,4.045084972));
#272 = CARTESIAN_POINT('',(70.572061403,70.995570180,2.938926261));
#273 = CARTESIAN_POINT('',(70.672498512,70.292510416,1.545084972));
#274 = CARTESIAN_POINT('',(70.707106781,70.050252532,0.000000000));
#275 = CARTESIAN_POINT('',(70.672498512,70.292510416,-1.545084972));
#276 = CARTESIAN_POINT('',(70.572061403,70.995570180,-2.938926261));
#277 = CARTESIAN_POINT('',(70.415626938,72.090611436,-4.045084972));
#278 = CARTESIAN_POINT('',(70.218508012,73.470443914,-4.755282581));
#279 = CARTESIAN_POINT('',(70.000000000,75.000000000,-5.000000000));
#280 = CARTESIAN_POINT('',(69.781491988,76.529556086,-4.755282581));
#281 = CARTESIAN_POINT('',(69.584373062,77.909388564,-4.045084972));
#282 = CARTESIAN_POINT('',(69.427938597,79.004429820,-2.938926261));
#283 = CARTESIAN_POINT('',(69.327501488,79.707489584,-1.545084972));
#284 = CARTESIAN_POINT('',(69.292893219,79.949747468,-0.000000000));
#285 = CARTESIAN_POINT('',(69.327501488,79.707489584,1.545084972));
#286 = CARTESIAN_POINT('',(69.427938597,79.004429820,2.938926261));
#287 = CARTESIAN_POINT('',(69.584373062,77.909388564,4.045084972));
#288 = CARTESIAN_POINT('',(69.781491988,76.529556086,4.755282581));
#289 = POLY_LOOP('',(#268,#267,#266,#265,#264,#263,#262,#261,#260,#259,#258,#257,#256,#255,#254,#253,#252,#251,#250,#249));
#290 = FACE_OUTER_BOUND('',#289,.T.);
#291 = DIRECTION('',(-0.989949494,-0.141421356,0.000000000));
#292 = DIRECTION('',(-0.126007351,0.882051457,-0.453990500));
#293 = AXIS2_PLACEMENT_3D('',#268,#291,#292);
#294 = PLANE('',#293);
#295 = FACE_SURFACE('',(#290),#294,.T.);
#296 = POLY_LOOP('',(#269,#270,#271,#272,#273,#274,#275,#276,#277,#278,#279,#280,#281,#282,#283,#284,#285,#286,#287,#288));
#297 = FACE_OUTER_BOUND('',#296,.T.);
#298 = DIRECTION('',(0.989949494,0.141421356,0.000000000));
#299 = DIRECTION('',(0.139680225,-0.977761573,-0.156434465));
#300 = AXIS2_PLACEMENT_3D('',#269,#298,#299);
#301 = PLANE('',#300);
#302 = FACE_SURFACE('',(#297),#301,.T.);
#303 = POLY_LOOP('',(#249,#250,#270,#269));
#304 = FACE_OUTER_BOUND('',#303,.T.);
#305 = DIRECTION('',(0.022123174,-0.154862219,0.987688341));
#306 = DIRECTION('',(0.139680225,-0.977761573,-0.156434465));
#307 = AXIS2_PLACEMENT_3D('',#249,#305,#306);
#308 = PLANE('',#307);
#309 = FACE_SURFACE('',(#304),#308,.T.);
#310 = POLY_LOOP('',(#250,#251,#271,#270));
#311 = FACE_OUTER_BOUND('',#310,.T.);
#312 = DIRECTION('',(0.064203952,-0.449427665,0.891006524));
#313 = DIRECTION('',(0.126007351,-0.882051457,-0.453990500));
#314 = AXIS2_PLACEMENT_3D('',#250,#312,#313);
#315 = PLANE('',#314);
#316 = FACE_SURFACE('',(#311),#315,.T.);
#317 = POLY_LOOP('',(#251,#252,#272,#271));
#318 = FACE_OUTER_BOUND('',#317,.T.);
#319 = DIRECTION('',(0.100000000,-0.700000000,0.707106781));
#320 = DIRECTION('',(0.100000000,-0.700000000,-0.707106781));
#321 = AXIS2_PLACEMENT_3D('',#251,#319,#320);
#322 = PLANE('',#321);
#323 = FACE_SURFACE('',(#318),#322,.T.);
#324 = POLY_LOOP('',(#252,#253,#273,#272));
#325 = FACE_OUTER_BOUND('',#324,.T.);
#326 = DIRECTION('',(0.126007351,-0.882051457,0.453990500));
#327 = DIRECTION('',(0.064203952,-0.449427665,-0.891006524));
#328 = AXIS2_PLACEMENT_3D('',#252,#326,#327);
#329 = PLANE('',#328);
#330 = FACE_SURFACE('',(#325),#329,.T.);
#331 = POLY_LOOP('',(#253,#254,#274,#273));
#332 = FACE_OUTER_BOUND('',#331,.T.);
#333 = DIRECTION('',(0.139680225,-0.977761573,0.156434465));
#334 = DIRECTION('',(0.022123174,-0.154862219,-0.987688341));
#335 = AXIS2_PLACEMENT_3D('',#253,#333,#334);
#336 = PLANE('',#335);
#337 = FACE_SURFACE('',(#332),#336,.T.);
#338 = POLY_LOOP('',(#254,#255,#275,#274));
#339 = FACE_OUTER_BOUND('',#338,.T.);
#340 = DIRECTION('',(0.139680225,-0.977761573,-0.156434465));
#341 = DIRECTION('',(-0.022123174,0.154862219,-0.987688341));
#342 = AXIS2_PLACEMENT_3D('',#254,#340,#341);
#343 = PLANE('',#342);
#344 = FACE_SURFACE('',(#339),#343,.T.);
#345 = POLY_LOOP('',(#255,#256,#276,#275));
#346 = FACE_OUTER_BOUND('',#345,.T.);
#347 = DIRECTION('',(0.126007351,-0.882051457,-0.453990500));
#348 = DIRECTION('',(-0.064203952,0.449427665,-0.891006524));
#349 = AXIS2_PLACEMENT_3D('',#255,#347,#348);
#350 = PLANE('',#349);
#351 = FACE_SURFACE('',(#346),#350,.T.);
#352 = POLY_LOOP('',(#256,#257,#277,#276));
#353 = FACE_OUTER_BOUND('',#352,.T.);
#354 = DIRECTION('',(0.100000000,-0.700000000,-0.707106781));
#355 = DIRECTION('',(-0.100000000,0.700000000,-0.707106781));
#356 = AXIS2_PLACEMENT_3D('',#256,#354,#355);
#357 = PLANE('',#356);
#358 = FACE_SURFACE('',(#353),#357,.T.);
#359 = POLY_LOOP('',(#257,#258,#278,#277));
#360 = FACE_OUTER_BOUND('',#359,.T.);
#361 = DIRECTION('',(0.064203952,-0.449427665,-0.891006524));
#362 = DIRECTION('',(-0.126007351,0.882051457,-0.453990500));
#363 = AXIS2_PLACEMENT_3D('',#257,#361,#362);
#364 = PLANE('',#363);
#365 = FACE_SURFACE('',(#360),#364,.T.);
#366 = POLY_LOOP('',(#258,#259,#279,#278));
#367 = FACE_OUTER_BOUND('',#366,.T.);
#368 = DIRECTION('',(0.022123174,-0.154862219,-0.987688341));
#369 = DIRECTION('',(-0.139680225,0.977761573,-0.156434465));
#370 = AXIS2_PLACEMENT_3D('',#258,#368,#369);
#371 = PLANE('',#370);
#372 = FACE_SURFACE('',(#367),#371,.T.);
#373 = POLY_LOOP('',(#259,#260,#280,#279));
#374 = FACE_OUTER_BOUND('',#373,.T.);
#375 = DIRECTION('',(-0.022123174,0.154862219,-0.987688341));
#376 = DIRECTION('',(-0.139680225,0.977761573,0.156434465));
#377 = AXIS2_PLACEMENT_3D('',#259,#375,#376);
#378 = PLANE('',#377);
#379 = FACE_SURFACE('',(#374),#378,.T.);
#380 = POLY_LOOP('',(#260,#261,#281,#280));
#381 = FACE_OUTER_BOUND('',#380,.T.);
#382 = DIRECTION('',(-0.064203952,0.449427665,-0.891006524));
#383 = DIRECTION('',(-0.126007351,0.882051457,0.453990500));
#384 = AXIS2_PLACEMENT_3D('',#260,#382,#383);
#385 = PLANE('',#384);
#386 = FACE_SURFACE('',(#381),#385,.T.);
#387 = POLY_LOOP('',(#261,#262,#282,#281));
#388 = FACE_OUTER_BOUND('',#387,.T.);
#389 = DIRECTION('',(-0.100000000,0.700000000,-0.707106781));
#390 = DIRECTION('',(-0.100000000,0.700000000,0.707106781));
#391 = AXIS2_PLACEMENT_3D('',#261,#389,#390);
#392 = PLANE('',#391);
#393 = FACE_SURFACE('',(#388),#392,.T.);
#394 = POLY_LOOP('',(#262,#263,#283,#282));
#395 = FACE_OUTER_BOUND('',#394,.T.);
#396 = DIRECTION('',(-0.126007351,0.882051457,-0.453990500));
#397 = DIRECTION('',(-0.064203952,0.449427665,0.891006524));
#398 = AXIS2_PLACEMENT_3D('',#262,#396,#397);
#399 = PLANE('',#398);
#400 = FACE_SURFACE('',(#395),#399,.T.);
#401 = POLY_LOOP('',(#263,#264,#284,#283));
#402 = FACE_OUTER_BOUND('',#401,.T.);
#403 = DIRECTION('',(-0.139680225,0.977761573,-0.156434465));
#404 = DIRECTION('',(-0.022123174,0.154862219,0.987688341));
#405 = AXIS2_PLACEMENT_3D('',#263,#403,#404);
#406 = PLANE('',#405);
#407 = FACE_SURFACE('',(#402),#406,.T.);
#408 = POLY_LOOP('',(#264,#265,#285,#284));
#409 = FACE_OUTER_BOUND('',#408,.T.);
#410 = DIRECTION('',(-0.139680225,0.977761573,0.156434465));
#411 = DIRECTION('',(0.022123174,-0.154862219,0.987688341));
#412 = AXIS2_PLACEMENT_3D('',#264,#410,#411);
#413 = PLANE('',#412);
#414 = FACE_SURFACE('',(#409),#413,.T.);
#415 = POLY_LOOP('',(#265,#266,#286,#285));
#416 = FACE_OUTER_BOUND('',#415,.T.);
#417 = DIRECTION('',(-0.126007351,0.882051457,0.453990500));
#418 = DIRECTION('',(0.064203952,-0.449427665,0.891006524));
#419 = AXIS2_PLACEMENT_3D('',#265,#417,#418);
#420 = PLANE('',#419);
#421 = FACE_SURFACE('',(#416),#420,.T.);
#422 = POLY_LOOP('',(#266,#267,#287,#286));
#423 = FACE_OUTER_BOUND('',#422,.T.);
#424 = DIRECTION('',(-0.100000000,0.700000000,0.707106781));
#425 = DIRECTION('',(0.100000000,-0.700000000,0.707106781));
#426 = AXIS2_PLACEMENT_3D('',#266,#424,#425);
#427 = PLANE('',#426);
#428 = FACE_SURFACE('',(#423),#427,.T.);
#429 = POLY_LOOP('',(#267,#268,#288,#287));
#430 = FACE_OUTER_BOUND('',#429,.T.);
#431 = DIRECTION('',(-0.064203952,0.449427665,0.891006524));
#432 = DIRECTION('',(0.126007351,-0.882051457,0.453990500));
#433 = AXIS2_PLACEMENT_3D('',#267,#431,#432);
#434 = PLANE('',#433);
#435 = FACE_SURFACE('',(#430),#434,.T.);
#436 = POLY_LOOP('',(#268,#249,#269,#288));
#437 = FACE_OUTER_BOUND('',#436,.T.);
#438 = DIRECTION('',(-0.022123174,0.154862219,0.987688341));
#439 = DIRECTION('',(0.139680225,-0.977761573,0.156434465));
#440 = AXIS2_PLACEMENT_3D('',#268,#438,#439);
#441 = PLANE('',#440);
#442 = FACE_SURFACE('',(#437),#441,.T.);
#443 = CLOSED_SHELL('',(#295,#302,#309,#316,#323,#330,#337,#344,#351,#358,#365,#372,#379,#386,#393,#400,#407,#414,#421,#428,#435,#442));
#444 = FACETED_BREP('silver angle arm',#443);
#445 = CARTESIAN_POINT('',(58.000000000,69.000000000,-10.000000000));
#446 = CARTESIAN_POINT('',(83.000000000,69.000000000,-10.000000000));
#447 = CARTESIAN_POINT('',(83.000000000,81.000000000,-10.000000000));
#448 = CARTESIAN_POINT('',(58.000000000,81.000000000,-10.000000000));
#449 = CARTESIAN_POINT('',(58.000000000,69.000000000,10.000000000));
#450 = CARTESIAN_POINT('',(83.000000000,69.000000000,10.000000000));
#451 = CARTESIAN_POINT('',(83.000000000,81.000000000,10.000000000));
#452 = CARTESIAN_POINT('',(58.000000000,81.000000000,10.000000000));
#453 = POLY_LOOP('',(#445,#448,#447,#446));
#454 = FACE_OUTER_BOUND('',#453,.T.);
#455 = DIRECTION('',(0.000000000,0.000000000,-1.000000000));
#456 = DIRECTION('',(0.000000000,1.000000000,0.000000000));
#457 = AXIS2_PLACEMENT_3D('',#445,#455,#456);
#458 = PLANE('',#457);
#459 = FACE_SURFACE('',(#454),#458,.T.);
#460 = POLY_LOOP('',(#449,#450,#451,#452));
#461 = FACE_OUTER_BOUND('',#460,.T.);
#462 = DIRECTION('',(0.000000000,0.000000000,1.000000000));
#463 = DIRECTION('',(1.000000000,0.000000000,0.000000000));
#464 = AXIS2_PLACEMENT_3D('',#449,#462,#463);
#465 = PLANE('',#464);
#466 = FACE_SURFACE('',(#461),#465,.T.);
#467 = POLY_LOOP('',(#445,#446,#450,#449));
#468 = FACE_OUTER_BOUND('',#467,.T.);
#469 = DIRECTION('',(0.000000000,-1.000000000,0.000000000));
#470 = DIRECTION('',(1.000000000,0.000000000,0.000000000));
#471 = AXIS2_PLACEMENT_3D('',#445,#469,#470);
#472 = PLANE('',#471);
#473 = FACE_SURFACE('',(#468),#472,.T.);
#474 = POLY_LOOP('',(#446,#447,#451,#450));
#475 = FACE_OUTER_BOUND('',#474,.T.);
#476 = DIRECTION('',(1.000000000,0.000000000,0.000000000));
#477 = DIRECTION('',(0.000000000,1.000000000,0.000000000));
#478 = AXIS2_PLACEMENT_3D('',#446,#476,#477);
#479 = PLANE('',#478);
#480 = FACE_SURFACE('',(#475),#479,.T.);
#481 = POLY_LOOP('',(#447,#448,#452,#451));
#482 = FACE_OUTER_BOUND('',#481,.T.);
#483 = DIRECTION('',(0.000000000,1.000000000,0.000000000));
#484 = DIRECTION('',(-1.000000000,0.000000000,0.000000000));
#485 = AXIS2_PLACEMENT_3D('',#447,#483,#484);
#486 = PLANE('',#485);
#487 = FACE_SURFACE('',(#482),#486,.T.);
#488 = POLY_LOOP('',(#448,#445,#449,#452));
#489 = FACE_OUTER_BOUND('',#488,.T.);
#490 = DIRECTION('',(-1.000000000,0.000000000,0.000000000));
#491 = DIRECTION('',(0.000000000,-1.000000000,0.000000000));
#492 = AXIS2_PLACEMENT_3D('',#448,#490,#491);
#493 = PLANE('',#492);
#494 = FACE_SURFACE('',(#489),#493,.T.);
#495 = CLOSED_SHELL('',(#459,#466,#473,#480,#487,#494));
#496 = FACETED_BREP('black fibre clamp',#495);
#497 = CARTESIAN_POINT('',(80.000000000,70.000000000,0.700000000));
#498 = CARTESIAN_POINT('',(79.786631260,69.964438543,0.665739561));
#499 = CARTESIAN_POINT('',(79.594148539,69.932358090,0.566311896));
#500 = CARTESIAN_POINT('',(79.441393387,69.906898898,0.411449677));
#501 = CARTESIAN_POINT('',(79.343318542,69.890553090,0.216311896));
#502 = CARTESIAN_POINT('',(79.309524253,69.884920709,0.000000000));
#503 = CARTESIAN_POINT('',(79.343318542,69.890553090,-0.216311896));
#504 = CARTESIAN_POINT('',(79.441393387,69.906898898,-0.411449677));
#505 = CARTESIAN_POINT('',(79.594148539,69.932358090,-0.566311896));
#506 = CARTESIAN_POINT('',(79.786631260,69.964438543,-0.665739561));
#507 = CARTESIAN_POINT('',(80.000000000,70.000000000,-0.700000000));
#508 = CARTESIAN_POINT('',(80.213368740,70.035561457,-0.665739561));
#509 = CARTESIAN_POINT('',(80.405851461,70.067641910,-0.566311896));
#510 = CARTESIAN_POINT('',(80.558606613,70.093101102,-0.411449677));
#511 = CARTESIAN_POINT('',(80.656681458,70.109446910,-0.216311896));
#512 = CARTESIAN_POINT('',(80.690475747,70.115079291,-0.000000000));
#513 = CARTESIAN_POINT('',(80.656681458,70.109446910,0.216311896));
#514 = CARTESIAN_POINT('',(80.558606613,70.093101102,0.411449677));
#515 = CARTESIAN_POINT('',(80.405851461,70.067641910,0.566311896));
#516 = CARTESIAN_POINT('',(80.213368740,70.035561457,0.665739561));
#517 = CARTESIAN_POINT('',(83.000000000,52.000000000,0.700000000));
#518 = CARTESIAN_POINT('',(82.786631260,51.964438543,0.665739561));
#519 = CARTESIAN_POINT('',(82.594148539,51.932358090,0.566311896));
#520 = CARTESIAN_POINT('',(82.441393387,51.906898898,0.411449677));
#521 = CARTESIAN_POINT('',(82.343318542,51.890553090,0.216311896));
#522 = CARTESIAN_POINT('',(82.309524253,51.884920709,0.000000000));
#523 = CARTESIAN_POINT('',(82.343318542,51.890553090,-0.216311896));
#524 = CARTESIAN_POINT('',(82.441393387,51.906898898,-0.411449677));
#525 = CARTESIAN_POINT('',(82.594148539,51.932358090,-0.566311896));
#526 = CARTESIAN_POINT('',(82.786631260,51.964438543,-0.665739561));
#527 = CARTESIAN_POINT('',(83.000000000,52.000000000,-0.700000000));
#528 = CARTESIAN_POINT('',(83.213368740,52.035561457,-0.665739561));
#529 = CARTESIAN_POINT('',(83.405851461,52.067641910,-0.566311896));
#530 = CARTESIAN_POINT('',(83.558606613,52.093101102,-0.411449677));
#531 = CARTESIAN_POINT('',(83.656681458,52.109446910,-0.216311896));
#532 = CARTESIAN_POINT('',(83.690475747,52.115079291,-0.000000000));
#533 = CARTESIAN_POINT('',(83.656681458,52.109446910,0.216311896));
#534 = CARTESIAN_POINT('',(83.558606613,52.093101102,0.411449677));
#535 = CARTESIAN_POINT('',(83.405851461,52.067641910,0.566311896));
#536 = CARTESIAN_POINT('',(83.213368740,52.035561457,0.665739561));
#537 = POLY_LOOP('',(#516,#515,#514,#513,#512,#511,#510,#509,#508,#507,#506,#505,#504,#503,#502,#501,#500,#499,#498,#497));
#538 = FACE_OUTER_BOUND('',#537,.T.);
#539 = DIRECTION('',(-0.164398987,0.986393924,0.000000000));
#540 = DIRECTION('',(0.878883422,0.146480570,-0.453990500));
#541 = AXIS2_PLACEMENT_3D('',#516,#539,#540);
#542 = PLANE('',#541);
#543 = FACE_SURFACE('',(#538),#542,.T.);
#544 = POLY_LOOP('',(#517,#518,#519,#520,#521,#522,#523,#524,#525,#526,#527,#528,#529,#530,#531,#532,#533,#534,#535,#536));
#545 = FACE_OUTER_BOUND('',#544,.T.);
#546 = DIRECTION('',(0.164398987,-0.986393924,0.000000000));
#547 = DIRECTION('',(-0.974249778,-0.162374963,-0.156434465));
#548 = AXIS2_PLACEMENT_3D('',#517,#546,#547);
#549 = PLANE('',#548);
#550 = FACE_SURFACE('',(#545),#549,.T.);
#551 = POLY_LOOP('',(#497,#498,#518,#517));
#552 = FACE_OUTER_BOUND('',#551,.T.);
#553 = DIRECTION('',(-0.154306006,-0.025717668,0.987688341));
#554 = DIRECTION('',(-0.974249778,-0.162374963,-0.156434465));
#555 = AXIS2_PLACEMENT_3D('',#497,#553,#554);
#556 = PLANE('',#555);
#557 = FACE_SURFACE('',(#552),#556,.T.);
#558 = POLY_LOOP('',(#498,#499,#519,#518));
#559 = FACE_OUTER_BOUND('',#558,.T.);
#560 = DIRECTION('',(-0.447813470,-0.074635578,0.891006524));
#561 = DIRECTION('',(-0.878883422,-0.146480570,-0.453990500));
#562 = AXIS2_PLACEMENT_3D('',#498,#560,#561);
#563 = PLANE('',#562);
#564 = FACE_SURFACE('',(#559),#563,.T.);
#565 = POLY_LOOP('',(#499,#500,#520,#519));
#566 = FACE_OUTER_BOUND('',#565,.T.);
#567 = DIRECTION('',(-0.697485832,-0.116247639,0.707106781));
#568 = DIRECTION('',(-0.697485832,-0.116247639,-0.707106781));
#569 = AXIS2_PLACEMENT_3D('',#499,#567,#568);
#570 = PLANE('',#569);
#571 = FACE_SURFACE('',(#566),#570,.T.);
#572 = POLY_LOOP('',(#500,#501,#521,#520));
#573 = FACE_OUTER_BOUND('',#572,.T.);
#574 = DIRECTION('',(-0.878883422,-0.146480570,0.453990500));
#575 = DIRECTION('',(-0.447813470,-0.074635578,-0.891006524));
#576 = AXIS2_PLACEMENT_3D('',#500,#574,#575);
#577 = PLANE('',#576);
#578 = FACE_SURFACE('',(#573),#577,.T.);
#579 = POLY_LOOP('',(#501,#502,#522,#521));
#580 = FACE_OUTER_BOUND('',#579,.T.);
#581 = DIRECTION('',(-0.974249778,-0.162374963,0.156434465));
#582 = DIRECTION('',(-0.154306006,-0.025717668,-0.987688341));
#583 = AXIS2_PLACEMENT_3D('',#501,#581,#582);
#584 = PLANE('',#583);
#585 = FACE_SURFACE('',(#580),#584,.T.);
#586 = POLY_LOOP('',(#502,#503,#523,#522));
#587 = FACE_OUTER_BOUND('',#586,.T.);
#588 = DIRECTION('',(-0.974249778,-0.162374963,-0.156434465));
#589 = DIRECTION('',(0.154306006,0.025717668,-0.987688341));
#590 = AXIS2_PLACEMENT_3D('',#502,#588,#589);
#591 = PLANE('',#590);
#592 = FACE_SURFACE('',(#587),#591,.T.);
#593 = POLY_LOOP('',(#503,#504,#524,#523));
#594 = FACE_OUTER_BOUND('',#593,.T.);
#595 = DIRECTION('',(-0.878883422,-0.146480570,-0.453990500));
#596 = DIRECTION('',(0.447813470,0.074635578,-0.891006524));
#597 = AXIS2_PLACEMENT_3D('',#503,#595,#596);
#598 = PLANE('',#597);
#599 = FACE_SURFACE('',(#594),#598,.T.);
#600 = POLY_LOOP('',(#504,#505,#525,#524));
#601 = FACE_OUTER_BOUND('',#600,.T.);
#602 = DIRECTION('',(-0.697485832,-0.116247639,-0.707106781));
#603 = DIRECTION('',(0.697485832,0.116247639,-0.707106781));
#604 = AXIS2_PLACEMENT_3D('',#504,#602,#603);
#605 = PLANE('',#604);
#606 = FACE_SURFACE('',(#601),#605,.T.);
#607 = POLY_LOOP('',(#505,#506,#526,#525));
#608 = FACE_OUTER_BOUND('',#607,.T.);
#609 = DIRECTION('',(-0.447813470,-0.074635578,-0.891006524));
#610 = DIRECTION('',(0.878883422,0.146480570,-0.453990500));
#611 = AXIS2_PLACEMENT_3D('',#505,#609,#610);
#612 = PLANE('',#611);
#613 = FACE_SURFACE('',(#608),#612,.T.);
#614 = POLY_LOOP('',(#506,#507,#527,#526));
#615 = FACE_OUTER_BOUND('',#614,.T.);
#616 = DIRECTION('',(-0.154306006,-0.025717668,-0.987688341));
#617 = DIRECTION('',(0.974249778,0.162374963,-0.156434465));
#618 = AXIS2_PLACEMENT_3D('',#506,#616,#617);
#619 = PLANE('',#618);
#620 = FACE_SURFACE('',(#615),#619,.T.);
#621 = POLY_LOOP('',(#507,#508,#528,#527));
#622 = FACE_OUTER_BOUND('',#621,.T.);
#623 = DIRECTION('',(0.154306006,0.025717668,-0.987688341));
#624 = DIRECTION('',(0.974249778,0.162374963,0.156434465));
#625 = AXIS2_PLACEMENT_3D('',#507,#623,#624);
#626 = PLANE('',#625);
#627 = FACE_SURFACE('',(#622),#626,.T.);
#628 = POLY_LOOP('',(#508,#509,#529,#528));
#629 = FACE_OUTER_BOUND('',#628,.T.);
#630 = DIRECTION('',(0.447813470,0.074635578,-0.891006524));
#631 = DIRECTION('',(0.878883422,0.146480570,0.453990500));
#632 = AXIS2_PLACEMENT_3D('',#508,#630,#631);
#633 = PLANE('',#632);
#634 = FACE_SURFACE('',(#629),#633,.T.);
#635 = POLY_LOOP('',(#509,#510,#530,#529));
#636 = FACE_OUTER_BOUND('',#635,.T.);
#637 = DIRECTION('',(0.697485832,0.116247639,-0.707106781));
#638 = DIRECTION('',(0.697485832,0.116247639,0.707106781));
#639 = AXIS2_PLACEMENT_3D('',#509,#637,#638);
#640 = PLANE('',#639);
#641 = FACE_SURFACE('',(#636),#640,.T.);
#642 = POLY_LOOP('',(#510,#511,#531,#530));
#643 = FACE_OUTER_BOUND('',#642,.T.);
#644 = DIRECTION('',(0.878883422,0.146480570,-0.453990500));
#645 = DIRECTION('',(0.447813470,0.074635578,0.891006524));
#646 = AXIS2_PLACEMENT_3D('',#510,#644,#645);
#647 = PLANE('',#646);
#648 = FACE_SURFACE('',(#643),#647,.T.);
#649 = POLY_LOOP('',(#511,#512,#532,#531));
#650 = FACE_OUTER_BOUND('',#649,.T.);
#651 = DIRECTION('',(0.974249778,0.162374963,-0.156434465));
#652 = DIRECTION('',(0.154306006,0.025717668,0.987688341));
#653 = AXIS2_PLACEMENT_3D('',#511,#651,#652);
#654 = PLANE('',#653);
#655 = FACE_SURFACE('',(#650),#654,.T.);
#656 = POLY_LOOP('',(#512,#513,#533,#532));
#657 = FACE_OUTER_BOUND('',#656,.T.);
#658 = DIRECTION('',(0.974249778,0.162374963,0.156434465));
#659 = DIRECTION('',(-0.154306006,-0.025717668,0.987688341));
#660 = AXIS2_PLACEMENT_3D('',#512,#658,#659);
#661 = PLANE('',#660);
#662 = FACE_SURFACE('',(#657),#661,.T.);
#663 = POLY_LOOP('',(#513,#514,#534,#533));
#664 = FACE_OUTER_BOUND('',#663,.T.);
#665 = DIRECTION('',(0.878883422,0.146480570,0.453990500));
#666 = DIRECTION('',(-0.447813470,-0.074635578,0.891006524));
#667 = AXIS2_PLACEMENT_3D('',#513,#665,#666);
#668 = PLANE('',#667);
#669 = FACE_SURFACE('',(#664),#668,.T.);
#670 = POLY_LOOP('',(#514,#515,#535,#534));
#671 = FACE_OUTER_BOUND('',#670,.T.);
#672 = DIRECTION('',(0.697485832,0.116247639,0.707106781));
#673 = DIRECTION('',(-0.697485832,-0.116247639,0.707106781));
#674 = AXIS2_PLACEMENT_3D('',#514,#672,#673);
#675 = PLANE('',#674);
#676 = FACE_SURFACE('',(#671),#675,.T.);
#677 = POLY_LOOP('',(#515,#516,#536,#535));
#678 = FACE_OUTER_BOUND('',#677,.T.);
#679 = DIRECTION('',(0.447813470,0.074635578,0.891006524));
#680 = DIRECTION('',(-0.878883422,-0.146480570,0.453990500));
#681 = AXIS2_PLACEMENT_3D('',#515,#679,#680);
#682 = PLANE('',#681);
#683 = FACE_SURFACE('',(#678),#682,.T.);
#684 = POLY_LOOP('',(#516,#497,#517,#536));
#685 = FACE_OUTER_BOUND('',#684,.T.);
#686 = DIRECTION('',(0.154306006,0.025717668,0.987688341));
#687 = DIRECTION('',(-0.974249778,-0.162374963,0.156434465));
#688 = AXIS2_PLACEMENT_3D('',#516,#686,#687);
#689 = PLANE('',#688);
#690 = FACE_SURFACE('',(#685),#689,.T.);
#691 = CLOSED_SHELL('',(#543,#550,#557,#564,#571,#578,#585,#592,#599,#606,#613,#620,#627,#634,#641,#648,#655,#662,#669,#676,#683,#690));
#692 = FACETED_BREP('gold fibre tip',#691);
#693 = APPLICATION_CONTEXT('configuration controlled 3d designs of mechanical parts and assemblies');
#694 = APPLICATION_PROTOCOL_DEFINITION('international standard','config_control_design',1994,#693);
#695 = PRODUCT_CONTEXT('',#693,'mechanical');
#696 = PRODUCT('REF','Illustrative reference','NOT vendor CAD',(#695));
#697 = PRODUCT_DEFINITION_FORMATION_WITH_SPECIFIED_SOURCE('','',#696,.NOT_KNOWN.);
#698 = PRODUCT_DEFINITION_CONTEXT('part definition',#693,'design');
#699 = PRODUCT_DEFINITION('design','',#697,#698);
#700 = PRODUCT_DEFINITION_SHAPE('','',#699);
#701 = (LENGTH_UNIT()NAMED_UNIT(*)SI_UNIT(.MILLI.,.METRE.));
#702 = (NAMED_UNIT(*)PLANE_ANGLE_UNIT()SI_UNIT($,.RADIAN.));
#703 = (NAMED_UNIT(*)SI_UNIT($,.STERADIAN.)SOLID_ANGLE_UNIT());
#704 = UNCERTAINTY_MEASURE_WITH_UNIT(LENGTH_MEASURE(0.000001),#701,'distance_accuracy_value','');
#705 = (GEOMETRIC_REPRESENTATION_CONTEXT(3)GLOBAL_UNCERTAINTY_ASSIGNED_CONTEXT((#704))GLOBAL_UNIT_ASSIGNED_CONTEXT((#701,#702,#703))REPRESENTATION_CONTEXT('',''));
#706 = FACETED_BREP_SHAPE_REPRESENTATION('Illustrative reference',(#52,#248,#444,#496,#692),#705);
#707 = SHAPE_DEFINITION_REPRESENTATION(#700,#706);
ENDSEC;
END-ISO-10303-21;
