ISO-10303-21;
HEADER;
FILE_DESCRIPTION(('Illustrative CAD - NOT vendor dimensions'),'2;1');
FILE_NAME('reference.step','2026-10-07',('CORNERSTONE'),(''),'reference generator','','');
FILE_SCHEMA(('CONFIG_CONTROL_DESIGN'));
ENDSEC;
DATA;
#1 = CARTESIAN_POINT('',(-75.000000000,0.000000000,-145.000000000));
#2 = CARTESIAN_POINT('',(75.000000000,0.000000000,-145.000000000));
#3 = CARTESIAN_POINT('',(75.000000000,18.000000000,-145.000000000));
#4 = CARTESIAN_POINT('',(-75.000000000,18.000000000,-145.000000000));
#5 = CARTESIAN_POINT('',(-75.000000000,0.000000000,145.000000000));
#6 = CARTESIAN_POINT('',(75.000000000,0.000000000,145.000000000));
#7 = CARTESIAN_POINT('',(75.000000000,18.000000000,145.000000000));
#8 = CARTESIAN_POINT('',(-75.000000000,18.000000000,145.000000000));
#9 = POLY_LOOP('',(#1,#4,#3,#2));
#10 = FACE_OUTER_BOUND('',#9,.T.);
#11 = DIRECTION('',(0.000000000,0.000000000,-1.000000000));
#12 = DIRECTION('',(0.000000000,1.000000000,0.000000000));
#13 = AXIS2_PLACEMENT_3D('',#1,#11,#12);
#14 = PLANE('',#13);
#15 = FACE_SURFACE('',(#10),#14,.T.);
#16 = POLY_LOOP('',(#5,#6,#7,#8));
#17 = FACE_OUTER_BOUND('',#16,.T.);
#18 = DIRECTION('',(0.000000000,0.000000000,1.000000000));
#19 = DIRECTION('',(1.000000000,0.000000000,0.000000000));
#20 = AXIS2_PLACEMENT_3D('',#5,#18,#19);
#21 = PLANE('',#20);
#22 = FACE_SURFACE('',(#17),#21,.T.);
#23 = POLY_LOOP('',(#1,#2,#6,#5));
#24 = FACE_OUTER_BOUND('',#23,.T.);
#25 = DIRECTION('',(0.000000000,-1.000000000,0.000000000));
#26 = DIRECTION('',(1.000000000,0.000000000,0.000000000));
#27 = AXIS2_PLACEMENT_3D('',#1,#25,#26);
#28 = PLANE('',#27);
#29 = FACE_SURFACE('',(#24),#28,.T.);
#30 = POLY_LOOP('',(#2,#3,#7,#6));
#31 = FACE_OUTER_BOUND('',#30,.T.);
#32 = DIRECTION('',(1.000000000,0.000000000,0.000000000));
#33 = DIRECTION('',(0.000000000,1.000000000,0.000000000));
#34 = AXIS2_PLACEMENT_3D('',#2,#32,#33);
#35 = PLANE('',#34);
#36 = FACE_SURFACE('',(#31),#35,.T.);
#37 = POLY_LOOP('',(#3,#4,#8,#7));
#38 = FACE_OUTER_BOUND('',#37,.T.);
#39 = DIRECTION('',(0.000000000,1.000000000,0.000000000));
#40 = DIRECTION('',(-1.000000000,0.000000000,0.000000000));
#41 = AXIS2_PLACEMENT_3D('',#3,#39,#40);
#42 = PLANE('',#41);
#43 = FACE_SURFACE('',(#38),#42,.T.);
#44 = POLY_LOOP('',(#4,#1,#5,#8));
#45 = FACE_OUTER_BOUND('',#44,.T.);
#46 = DIRECTION('',(-1.000000000,0.000000000,0.000000000));
#47 = DIRECTION('',(0.000000000,-1.000000000,0.000000000));
#48 = AXIS2_PLACEMENT_3D('',#4,#46,#47);
#49 = PLANE('',#48);
#50 = FACE_SURFACE('',(#45),#49,.T.);
#51 = CLOSED_SHELL('',(#15,#22,#29,#36,#43,#50));
#52 = FACETED_BREP('black base',#51);
#53 = CARTESIAN_POINT('',(-62.000000000,26.000000000,-125.000000000));
#54 = CARTESIAN_POINT('',(-61.755282581,24.454915028,-125.000000000));
#55 = CARTESIAN_POINT('',(-61.045084972,23.061073739,-125.000000000));
#56 = CARTESIAN_POINT('',(-59.938926261,21.954915028,-125.000000000));
#57 = CARTESIAN_POINT('',(-58.545084972,21.244717419,-125.000000000));
#58 = CARTESIAN_POINT('',(-57.000000000,21.000000000,-125.000000000));
#59 = CARTESIAN_POINT('',(-55.454915028,21.244717419,-125.000000000));
#60 = CARTESIAN_POINT('',(-54.061073739,21.954915028,-125.000000000));
#61 = CARTESIAN_POINT('',(-52.954915028,23.061073739,-125.000000000));
#62 = CARTESIAN_POINT('',(-52.244717419,24.454915028,-125.000000000));
#63 = CARTESIAN_POINT('',(-52.000000000,26.000000000,-125.000000000));
#64 = CARTESIAN_POINT('',(-52.244717419,27.545084972,-125.000000000));
#65 = CARTESIAN_POINT('',(-52.954915028,28.938926261,-125.000000000));
#66 = CARTESIAN_POINT('',(-54.061073739,30.045084972,-125.000000000));
#67 = CARTESIAN_POINT('',(-55.454915028,30.755282581,-125.000000000));
#68 = CARTESIAN_POINT('',(-57.000000000,31.000000000,-125.000000000));
#69 = CARTESIAN_POINT('',(-58.545084972,30.755282581,-125.000000000));
#70 = CARTESIAN_POINT('',(-59.938926261,30.045084972,-125.000000000));
#71 = CARTESIAN_POINT('',(-61.045084972,28.938926261,-125.000000000));
#72 = CARTESIAN_POINT('',(-61.755282581,27.545084972,-125.000000000));
#73 = CARTESIAN_POINT('',(-62.000000000,26.000000000,120.000000000));
#74 = CARTESIAN_POINT('',(-61.755282581,24.454915028,120.000000000));
#75 = CARTESIAN_POINT('',(-61.045084972,23.061073739,120.000000000));
#76 = CARTESIAN_POINT('',(-59.938926261,21.954915028,120.000000000));
#77 = CARTESIAN_POINT('',(-58.545084972,21.244717419,120.000000000));
#78 = CARTESIAN_POINT('',(-57.000000000,21.000000000,120.000000000));
#79 = CARTESIAN_POINT('',(-55.454915028,21.244717419,120.000000000));
#80 = CARTESIAN_POINT('',(-54.061073739,21.954915028,120.000000000));
#81 = CARTESIAN_POINT('',(-52.954915028,23.061073739,120.000000000));
#82 = CARTESIAN_POINT('',(-52.244717419,24.454915028,120.000000000));
#83 = CARTESIAN_POINT('',(-52.000000000,26.000000000,120.000000000));
#84 = CARTESIAN_POINT('',(-52.244717419,27.545084972,120.000000000));
#85 = CARTESIAN_POINT('',(-52.954915028,28.938926261,120.000000000));
#86 = CARTESIAN_POINT('',(-54.061073739,30.045084972,120.000000000));
#87 = CARTESIAN_POINT('',(-55.454915028,30.755282581,120.000000000));
#88 = CARTESIAN_POINT('',(-57.000000000,31.000000000,120.000000000));
#89 = CARTESIAN_POINT('',(-58.545084972,30.755282581,120.000000000));
#90 = CARTESIAN_POINT('',(-59.938926261,30.045084972,120.000000000));
#91 = CARTESIAN_POINT('',(-61.045084972,28.938926261,120.000000000));
#92 = CARTESIAN_POINT('',(-61.755282581,27.545084972,120.000000000));
#93 = POLY_LOOP('',(#72,#71,#70,#69,#68,#67,#66,#65,#64,#63,#62,#61,#60,#59,#58,#57,#56,#55,#54,#53));
#94 = FACE_OUTER_BOUND('',#93,.T.);
#95 = DIRECTION('',(0.000000000,0.000000000,-1.000000000));
#96 = DIRECTION('',(0.453990500,0.891006524,0.000000000));
#97 = AXIS2_PLACEMENT_3D('',#72,#95,#96);
#98 = PLANE('',#97);
#99 = FACE_SURFACE('',(#94),#98,.T.);
#100 = POLY_LOOP('',(#73,#74,#75,#76,#77,#78,#79,#80,#81,#82,#83,#84,#85,#86,#87,#88,#89,#90,#91,#92));
#101 = FACE_OUTER_BOUND('',#100,.T.);
#102 = DIRECTION('',(0.000000000,0.000000000,1.000000000));
#103 = DIRECTION('',(0.156434465,-0.987688341,0.000000000));
#104 = AXIS2_PLACEMENT_3D('',#73,#102,#103);
#105 = PLANE('',#104);
#106 = FACE_SURFACE('',(#101),#105,.T.);
#107 = POLY_LOOP('',(#53,#54,#74,#73));
#108 = FACE_OUTER_BOUND('',#107,.T.);
#109 = DIRECTION('',(-0.987688341,-0.156434465,0.000000000));
#110 = DIRECTION('',(0.156434465,-0.987688341,0.000000000));
#111 = AXIS2_PLACEMENT_3D('',#53,#109,#110);
#112 = PLANE('',#111);
#113 = FACE_SURFACE('',(#108),#112,.T.);
#114 = POLY_LOOP('',(#54,#55,#75,#74));
#115 = FACE_OUTER_BOUND('',#114,.T.);
#116 = DIRECTION('',(-0.891006524,-0.453990500,0.000000000));
#117 = DIRECTION('',(0.453990500,-0.891006524,0.000000000));
#118 = AXIS2_PLACEMENT_3D('',#54,#116,#117);
#119 = PLANE('',#118);
#120 = FACE_SURFACE('',(#115),#119,.T.);
#121 = POLY_LOOP('',(#55,#56,#76,#75));
#122 = FACE_OUTER_BOUND('',#121,.T.);
#123 = DIRECTION('',(-0.707106781,-0.707106781,0.000000000));
#124 = DIRECTION('',(0.707106781,-0.707106781,0.000000000));
#125 = AXIS2_PLACEMENT_3D('',#55,#123,#124);
#126 = PLANE('',#125);
#127 = FACE_SURFACE('',(#122),#126,.T.);
#128 = POLY_LOOP('',(#56,#57,#77,#76));
#129 = FACE_OUTER_BOUND('',#128,.T.);
#130 = DIRECTION('',(-0.453990500,-0.891006524,0.000000000));
#131 = DIRECTION('',(0.891006524,-0.453990500,0.000000000));
#132 = AXIS2_PLACEMENT_3D('',#56,#130,#131);
#133 = PLANE('',#132);
#134 = FACE_SURFACE('',(#129),#133,.T.);
#135 = POLY_LOOP('',(#57,#58,#78,#77));
#136 = FACE_OUTER_BOUND('',#135,.T.);
#137 = DIRECTION('',(-0.156434465,-0.987688341,0.000000000));
#138 = DIRECTION('',(0.987688341,-0.156434465,0.000000000));
#139 = AXIS2_PLACEMENT_3D('',#57,#137,#138);
#140 = PLANE('',#139);
#141 = FACE_SURFACE('',(#136),#140,.T.);
#142 = POLY_LOOP('',(#58,#59,#79,#78));
#143 = FACE_OUTER_BOUND('',#142,.T.);
#144 = DIRECTION('',(0.156434465,-0.987688341,0.000000000));
#145 = DIRECTION('',(0.987688341,0.156434465,0.000000000));
#146 = AXIS2_PLACEMENT_3D('',#58,#144,#145);
#147 = PLANE('',#146);
#148 = FACE_SURFACE('',(#143),#147,.T.);
#149 = POLY_LOOP('',(#59,#60,#80,#79));
#150 = FACE_OUTER_BOUND('',#149,.T.);
#151 = DIRECTION('',(0.453990500,-0.891006524,0.000000000));
#152 = DIRECTION('',(0.891006524,0.453990500,0.000000000));
#153 = AXIS2_PLACEMENT_3D('',#59,#151,#152);
#154 = PLANE('',#153);
#155 = FACE_SURFACE('',(#150),#154,.T.);
#156 = POLY_LOOP('',(#60,#61,#81,#80));
#157 = FACE_OUTER_BOUND('',#156,.T.);
#158 = DIRECTION('',(0.707106781,-0.707106781,0.000000000));
#159 = DIRECTION('',(0.707106781,0.707106781,0.000000000));
#160 = AXIS2_PLACEMENT_3D('',#60,#158,#159);
#161 = PLANE('',#160);
#162 = FACE_SURFACE('',(#157),#161,.T.);
#163 = POLY_LOOP('',(#61,#62,#82,#81));
#164 = FACE_OUTER_BOUND('',#163,.T.);
#165 = DIRECTION('',(0.891006524,-0.453990500,0.000000000));
#166 = DIRECTION('',(0.453990500,0.891006524,0.000000000));
#167 = AXIS2_PLACEMENT_3D('',#61,#165,#166);
#168 = PLANE('',#167);
#169 = FACE_SURFACE('',(#164),#168,.T.);
#170 = POLY_LOOP('',(#62,#63,#83,#82));
#171 = FACE_OUTER_BOUND('',#170,.T.);
#172 = DIRECTION('',(0.987688341,-0.156434465,0.000000000));
#173 = DIRECTION('',(0.156434465,0.987688341,0.000000000));
#174 = AXIS2_PLACEMENT_3D('',#62,#172,#173);
#175 = PLANE('',#174);
#176 = FACE_SURFACE('',(#171),#175,.T.);
#177 = POLY_LOOP('',(#63,#64,#84,#83));
#178 = FACE_OUTER_BOUND('',#177,.T.);
#179 = DIRECTION('',(0.987688341,0.156434465,0.000000000));
#180 = DIRECTION('',(-0.156434465,0.987688341,0.000000000));
#181 = AXIS2_PLACEMENT_3D('',#63,#179,#180);
#182 = PLANE('',#181);
#183 = FACE_SURFACE('',(#178),#182,.T.);
#184 = POLY_LOOP('',(#64,#65,#85,#84));
#185 = FACE_OUTER_BOUND('',#184,.T.);
#186 = DIRECTION('',(0.891006524,0.453990500,0.000000000));
#187 = DIRECTION('',(-0.453990500,0.891006524,0.000000000));
#188 = AXIS2_PLACEMENT_3D('',#64,#186,#187);
#189 = PLANE('',#188);
#190 = FACE_SURFACE('',(#185),#189,.T.);
#191 = POLY_LOOP('',(#65,#66,#86,#85));
#192 = FACE_OUTER_BOUND('',#191,.T.);
#193 = DIRECTION('',(0.707106781,0.707106781,0.000000000));
#194 = DIRECTION('',(-0.707106781,0.707106781,0.000000000));
#195 = AXIS2_PLACEMENT_3D('',#65,#193,#194);
#196 = PLANE('',#195);
#197 = FACE_SURFACE('',(#192),#196,.T.);
#198 = POLY_LOOP('',(#66,#67,#87,#86));
#199 = FACE_OUTER_BOUND('',#198,.T.);
#200 = DIRECTION('',(0.453990500,0.891006524,0.000000000));
#201 = DIRECTION('',(-0.891006524,0.453990500,0.000000000));
#202 = AXIS2_PLACEMENT_3D('',#66,#200,#201);
#203 = PLANE('',#202);
#204 = FACE_SURFACE('',(#199),#203,.T.);
#205 = POLY_LOOP('',(#67,#68,#88,#87));
#206 = FACE_OUTER_BOUND('',#205,.T.);
#207 = DIRECTION('',(0.156434465,0.987688341,0.000000000));
#208 = DIRECTION('',(-0.987688341,0.156434465,0.000000000));
#209 = AXIS2_PLACEMENT_3D('',#67,#207,#208);
#210 = PLANE('',#209);
#211 = FACE_SURFACE('',(#206),#210,.T.);
#212 = POLY_LOOP('',(#68,#69,#89,#88));
#213 = FACE_OUTER_BOUND('',#212,.T.);
#214 = DIRECTION('',(-0.156434465,0.987688341,0.000000000));
#215 = DIRECTION('',(-0.987688341,-0.156434465,0.000000000));
#216 = AXIS2_PLACEMENT_3D('',#68,#214,#215);
#217 = PLANE('',#216);
#218 = FACE_SURFACE('',(#213),#217,.T.);
#219 = POLY_LOOP('',(#69,#70,#90,#89));
#220 = FACE_OUTER_BOUND('',#219,.T.);
#221 = DIRECTION('',(-0.453990500,0.891006524,0.000000000));
#222 = DIRECTION('',(-0.891006524,-0.453990500,0.000000000));
#223 = AXIS2_PLACEMENT_3D('',#69,#221,#222);
#224 = PLANE('',#223);
#225 = FACE_SURFACE('',(#220),#224,.T.);
#226 = POLY_LOOP('',(#70,#71,#91,#90));
#227 = FACE_OUTER_BOUND('',#226,.T.);
#228 = DIRECTION('',(-0.707106781,0.707106781,0.000000000));
#229 = DIRECTION('',(-0.707106781,-0.707106781,0.000000000));
#230 = AXIS2_PLACEMENT_3D('',#70,#228,#229);
#231 = PLANE('',#230);
#232 = FACE_SURFACE('',(#227),#231,.T.);
#233 = POLY_LOOP('',(#71,#72,#92,#91));
#234 = FACE_OUTER_BOUND('',#233,.T.);
#235 = DIRECTION('',(-0.891006524,0.453990500,0.000000000));
#236 = DIRECTION('',(-0.453990500,-0.891006524,0.000000000));
#237 = AXIS2_PLACEMENT_3D('',#71,#235,#236);
#238 = PLANE('',#237);
#239 = FACE_SURFACE('',(#234),#238,.T.);
#240 = POLY_LOOP('',(#72,#53,#73,#92));
#241 = FACE_OUTER_BOUND('',#240,.T.);
#242 = DIRECTION('',(-0.987688341,0.156434465,0.000000000));
#243 = DIRECTION('',(-0.156434465,-0.987688341,0.000000000));
#244 = AXIS2_PLACEMENT_3D('',#72,#242,#243);
#245 = PLANE('',#244);
#246 = FACE_SURFACE('',(#241),#245,.T.);
#247 = CLOSED_SHELL('',(#99,#106,#113,#120,#127,#134,#141,#148,#155,#162,#169,#176,#183,#190,#197,#204,#211,#218,#225,#232,#239,#246));
#248 = FACETED_BREP('silver guide rail',#247);
#249 = CARTESIAN_POINT('',(52.000000000,26.000000000,-125.000000000));
#250 = CARTESIAN_POINT('',(52.244717419,24.454915028,-125.000000000));
#251 = CARTESIAN_POINT('',(52.954915028,23.061073739,-125.000000000));
#252 = CARTESIAN_POINT('',(54.061073739,21.954915028,-125.000000000));
#253 = CARTESIAN_POINT('',(55.454915028,21.244717419,-125.000000000));
#254 = CARTESIAN_POINT('',(57.000000000,21.000000000,-125.000000000));
#255 = CARTESIAN_POINT('',(58.545084972,21.244717419,-125.000000000));
#256 = CARTESIAN_POINT('',(59.938926261,21.954915028,-125.000000000));
#257 = CARTESIAN_POINT('',(61.045084972,23.061073739,-125.000000000));
#258 = CARTESIAN_POINT('',(61.755282581,24.454915028,-125.000000000));
#259 = CARTESIAN_POINT('',(62.000000000,26.000000000,-125.000000000));
#260 = CARTESIAN_POINT('',(61.755282581,27.545084972,-125.000000000));
#261 = CARTESIAN_POINT('',(61.045084972,28.938926261,-125.000000000));
#262 = CARTESIAN_POINT('',(59.938926261,30.045084972,-125.000000000));
#263 = CARTESIAN_POINT('',(58.545084972,30.755282581,-125.000000000));
#264 = CARTESIAN_POINT('',(57.000000000,31.000000000,-125.000000000));
#265 = CARTESIAN_POINT('',(55.454915028,30.755282581,-125.000000000));
#266 = CARTESIAN_POINT('',(54.061073739,30.045084972,-125.000000000));
#267 = CARTESIAN_POINT('',(52.954915028,28.938926261,-125.000000000));
#268 = CARTESIAN_POINT('',(52.244717419,27.545084972,-125.000000000));
#269 = CARTESIAN_POINT('',(52.000000000,26.000000000,120.000000000));
#270 = CARTESIAN_POINT('',(52.244717419,24.454915028,120.000000000));
#271 = CARTESIAN_POINT('',(52.954915028,23.061073739,120.000000000));
#272 = CARTESIAN_POINT('',(54.061073739,21.954915028,120.000000000));
#273 = CARTESIAN_POINT('',(55.454915028,21.244717419,120.000000000));
#274 = CARTESIAN_POINT('',(57.000000000,21.000000000,120.000000000));
#275 = CARTESIAN_POINT('',(58.545084972,21.244717419,120.000000000));
#276 = CARTESIAN_POINT('',(59.938926261,21.954915028,120.000000000));
#277 = CARTESIAN_POINT('',(61.045084972,23.061073739,120.000000000));
#278 = CARTESIAN_POINT('',(61.755282581,24.454915028,120.000000000));
#279 = CARTESIAN_POINT('',(62.000000000,26.000000000,120.000000000));
#280 = CARTESIAN_POINT('',(61.755282581,27.545084972,120.000000000));
#281 = CARTESIAN_POINT('',(61.045084972,28.938926261,120.000000000));
#282 = CARTESIAN_POINT('',(59.938926261,30.045084972,120.000000000));
#283 = CARTESIAN_POINT('',(58.545084972,30.755282581,120.000000000));
#284 = CARTESIAN_POINT('',(57.000000000,31.000000000,120.000000000));
#285 = CARTESIAN_POINT('',(55.454915028,30.755282581,120.000000000));
#286 = CARTESIAN_POINT('',(54.061073739,30.045084972,120.000000000));
#287 = CARTESIAN_POINT('',(52.954915028,28.938926261,120.000000000));
#288 = CARTESIAN_POINT('',(52.244717419,27.545084972,120.000000000));
#289 = POLY_LOOP('',(#268,#267,#266,#265,#264,#263,#262,#261,#260,#259,#258,#257,#256,#255,#254,#253,#252,#251,#250,#249));
#290 = FACE_OUTER_BOUND('',#289,.T.);
#291 = DIRECTION('',(0.000000000,0.000000000,-1.000000000));
#292 = DIRECTION('',(0.453990500,0.891006524,0.000000000));
#293 = AXIS2_PLACEMENT_3D('',#268,#291,#292);
#294 = PLANE('',#293);
#295 = FACE_SURFACE('',(#290),#294,.T.);
#296 = POLY_LOOP('',(#269,#270,#271,#272,#273,#274,#275,#276,#277,#278,#279,#280,#281,#282,#283,#284,#285,#286,#287,#288));
#297 = FACE_OUTER_BOUND('',#296,.T.);
#298 = DIRECTION('',(0.000000000,0.000000000,1.000000000));
#299 = DIRECTION('',(0.156434465,-0.987688341,0.000000000));
#300 = AXIS2_PLACEMENT_3D('',#269,#298,#299);
#301 = PLANE('',#300);
#302 = FACE_SURFACE('',(#297),#301,.T.);
#303 = POLY_LOOP('',(#249,#250,#270,#269));
#304 = FACE_OUTER_BOUND('',#303,.T.);
#305 = DIRECTION('',(-0.987688341,-0.156434465,0.000000000));
#306 = DIRECTION('',(0.156434465,-0.987688341,0.000000000));
#307 = AXIS2_PLACEMENT_3D('',#249,#305,#306);
#308 = PLANE('',#307);
#309 = FACE_SURFACE('',(#304),#308,.T.);
#310 = POLY_LOOP('',(#250,#251,#271,#270));
#311 = FACE_OUTER_BOUND('',#310,.T.);
#312 = DIRECTION('',(-0.891006524,-0.453990500,0.000000000));
#313 = DIRECTION('',(0.453990500,-0.891006524,0.000000000));
#314 = AXIS2_PLACEMENT_3D('',#250,#312,#313);
#315 = PLANE('',#314);
#316 = FACE_SURFACE('',(#311),#315,.T.);
#317 = POLY_LOOP('',(#251,#252,#272,#271));
#318 = FACE_OUTER_BOUND('',#317,.T.);
#319 = DIRECTION('',(-0.707106781,-0.707106781,0.000000000));
#320 = DIRECTION('',(0.707106781,-0.707106781,0.000000000));
#321 = AXIS2_PLACEMENT_3D('',#251,#319,#320);
#322 = PLANE('',#321);
#323 = FACE_SURFACE('',(#318),#322,.T.);
#324 = POLY_LOOP('',(#252,#253,#273,#272));
#325 = FACE_OUTER_BOUND('',#324,.T.);
#326 = DIRECTION('',(-0.453990500,-0.891006524,0.000000000));
#327 = DIRECTION('',(0.891006524,-0.453990500,0.000000000));
#328 = AXIS2_PLACEMENT_3D('',#252,#326,#327);
#329 = PLANE('',#328);
#330 = FACE_SURFACE('',(#325),#329,.T.);
#331 = POLY_LOOP('',(#253,#254,#274,#273));
#332 = FACE_OUTER_BOUND('',#331,.T.);
#333 = DIRECTION('',(-0.156434465,-0.987688341,0.000000000));
#334 = DIRECTION('',(0.987688341,-0.156434465,0.000000000));
#335 = AXIS2_PLACEMENT_3D('',#253,#333,#334);
#336 = PLANE('',#335);
#337 = FACE_SURFACE('',(#332),#336,.T.);
#338 = POLY_LOOP('',(#254,#255,#275,#274));
#339 = FACE_OUTER_BOUND('',#338,.T.);
#340 = DIRECTION('',(0.156434465,-0.987688341,0.000000000));
#341 = DIRECTION('',(0.987688341,0.156434465,0.000000000));
#342 = AXIS2_PLACEMENT_3D('',#254,#340,#341);
#343 = PLANE('',#342);
#344 = FACE_SURFACE('',(#339),#343,.T.);
#345 = POLY_LOOP('',(#255,#256,#276,#275));
#346 = FACE_OUTER_BOUND('',#345,.T.);
#347 = DIRECTION('',(0.453990500,-0.891006524,0.000000000));
#348 = DIRECTION('',(0.891006524,0.453990500,0.000000000));
#349 = AXIS2_PLACEMENT_3D('',#255,#347,#348);
#350 = PLANE('',#349);
#351 = FACE_SURFACE('',(#346),#350,.T.);
#352 = POLY_LOOP('',(#256,#257,#277,#276));
#353 = FACE_OUTER_BOUND('',#352,.T.);
#354 = DIRECTION('',(0.707106781,-0.707106781,0.000000000));
#355 = DIRECTION('',(0.707106781,0.707106781,0.000000000));
#356 = AXIS2_PLACEMENT_3D('',#256,#354,#355);
#357 = PLANE('',#356);
#358 = FACE_SURFACE('',(#353),#357,.T.);
#359 = POLY_LOOP('',(#257,#258,#278,#277));
#360 = FACE_OUTER_BOUND('',#359,.T.);
#361 = DIRECTION('',(0.891006524,-0.453990500,0.000000000));
#362 = DIRECTION('',(0.453990500,0.891006524,0.000000000));
#363 = AXIS2_PLACEMENT_3D('',#257,#361,#362);
#364 = PLANE('',#363);
#365 = FACE_SURFACE('',(#360),#364,.T.);
#366 = POLY_LOOP('',(#258,#259,#279,#278));
#367 = FACE_OUTER_BOUND('',#366,.T.);
#368 = DIRECTION('',(0.987688341,-0.156434465,0.000000000));
#369 = DIRECTION('',(0.156434465,0.987688341,0.000000000));
#370 = AXIS2_PLACEMENT_3D('',#258,#368,#369);
#371 = PLANE('',#370);
#372 = FACE_SURFACE('',(#367),#371,.T.);
#373 = POLY_LOOP('',(#259,#260,#280,#279));
#374 = FACE_OUTER_BOUND('',#373,.T.);
#375 = DIRECTION('',(0.987688341,0.156434465,0.000000000));
#376 = DIRECTION('',(-0.156434465,0.987688341,0.000000000));
#377 = AXIS2_PLACEMENT_3D('',#259,#375,#376);
#378 = PLANE('',#377);
#379 = FACE_SURFACE('',(#374),#378,.T.);
#380 = POLY_LOOP('',(#260,#261,#281,#280));
#381 = FACE_OUTER_BOUND('',#380,.T.);
#382 = DIRECTION('',(0.891006524,0.453990500,0.000000000));
#383 = DIRECTION('',(-0.453990500,0.891006524,0.000000000));
#384 = AXIS2_PLACEMENT_3D('',#260,#382,#383);
#385 = PLANE('',#384);
#386 = FACE_SURFACE('',(#381),#385,.T.);
#387 = POLY_LOOP('',(#261,#262,#282,#281));
#388 = FACE_OUTER_BOUND('',#387,.T.);
#389 = DIRECTION('',(0.707106781,0.707106781,0.000000000));
#390 = DIRECTION('',(-0.707106781,0.707106781,0.000000000));
#391 = AXIS2_PLACEMENT_3D('',#261,#389,#390);
#392 = PLANE('',#391);
#393 = FACE_SURFACE('',(#388),#392,.T.);
#394 = POLY_LOOP('',(#262,#263,#283,#282));
#395 = FACE_OUTER_BOUND('',#394,.T.);
#396 = DIRECTION('',(0.453990500,0.891006524,0.000000000));
#397 = DIRECTION('',(-0.891006524,0.453990500,0.000000000));
#398 = AXIS2_PLACEMENT_3D('',#262,#396,#397);
#399 = PLANE('',#398);
#400 = FACE_SURFACE('',(#395),#399,.T.);
#401 = POLY_LOOP('',(#263,#264,#284,#283));
#402 = FACE_OUTER_BOUND('',#401,.T.);
#403 = DIRECTION('',(0.156434465,0.987688341,0.000000000));
#404 = DIRECTION('',(-0.987688341,0.156434465,0.000000000));
#405 = AXIS2_PLACEMENT_3D('',#263,#403,#404);
#406 = PLANE('',#405);
#407 = FACE_SURFACE('',(#402),#406,.T.);
#408 = POLY_LOOP('',(#264,#265,#285,#284));
#409 = FACE_OUTER_BOUND('',#408,.T.);
#410 = DIRECTION('',(-0.156434465,0.987688341,0.000000000));
#411 = DIRECTION('',(-0.987688341,-0.156434465,0.000000000));
#412 = AXIS2_PLACEMENT_3D('',#264,#410,#411);
#413 = PLANE('',#412);
#414 = FACE_SURFACE('',(#409),#413,.T.);
#415 = POLY_LOOP('',(#265,#266,#286,#285));
#416 = FACE_OUTER_BOUND('',#415,.T.);
#417 = DIRECTION('',(-0.453990500,0.891006524,0.000000000));
#418 = DIRECTION('',(-0.891006524,-0.453990500,0.000000000));
#419 = AXIS2_PLACEMENT_3D('',#265,#417,#418);
#420 = PLANE('',#419);
#421 = FACE_SURFACE('',(#416),#420,.T.);
#422 = POLY_LOOP('',(#266,#267,#287,#286));
#423 = FACE_OUTER_BOUND('',#422,.T.);
#424 = DIRECTION('',(-0.707106781,0.707106781,0.000000000));
#425 = DIRECTION('',(-0.707106781,-0.707106781,0.000000000));
#426 = AXIS2_PLACEMENT_3D('',#266,#424,#425);
#427 = PLANE('',#426);
#428 = FACE_SURFACE('',(#423),#427,.T.);
#429 = POLY_LOOP('',(#267,#268,#288,#287));
#430 = FACE_OUTER_BOUND('',#429,.T.);
#431 = DIRECTION('',(-0.891006524,0.453990500,0.000000000));
#432 = DIRECTION('',(-0.453990500,-0.891006524,0.000000000));
#433 = AXIS2_PLACEMENT_3D('',#267,#431,#432);
#434 = PLANE('',#433);
#435 = FACE_SURFACE('',(#430),#434,.T.);
#436 = POLY_LOOP('',(#268,#249,#269,#288));
#437 = FACE_OUTER_BOUND('',#436,.T.);
#438 = DIRECTION('',(-0.987688341,0.156434465,0.000000000));
#439 = DIRECTION('',(-0.156434465,-0.987688341,0.000000000));
#440 = AXIS2_PLACEMENT_3D('',#268,#438,#439);
#441 = PLANE('',#440);
#442 = FACE_SURFACE('',(#437),#441,.T.);
#443 = CLOSED_SHELL('',(#295,#302,#309,#316,#323,#330,#337,#344,#351,#358,#365,#372,#379,#386,#393,#400,#407,#414,#421,#428,#435,#442));
#444 = FACETED_BREP('silver guide rail',#443);
#445 = CARTESIAN_POINT('',(-58.000000000,25.000000000,-75.000000000));
#446 = CARTESIAN_POINT('',(58.000000000,25.000000000,-75.000000000));
#447 = CARTESIAN_POINT('',(58.000000000,60.000000000,-75.000000000));
#448 = CARTESIAN_POINT('',(-58.000000000,60.000000000,-75.000000000));
#449 = CARTESIAN_POINT('',(-58.000000000,25.000000000,45.000000000));
#450 = CARTESIAN_POINT('',(58.000000000,25.000000000,45.000000000));
#451 = CARTESIAN_POINT('',(58.000000000,60.000000000,45.000000000));
#452 = CARTESIAN_POINT('',(-58.000000000,60.000000000,45.000000000));
#453 = POLY_LOOP('',(#445,#448,#447,#446));
#454 = FACE_OUTER_BOUND('',#453,.T.);
#455 = DIRECTION('',(0.000000000,0.000000000,-1.000000000));
#456 = DIRECTION('',(0.000000000,1.000000000,0.000000000));
#457 = AXIS2_PLACEMENT_3D('',#445,#455,#456);
#458 = PLANE('',#457);
#459 = FACE_SURFACE('',(#454),#458,.T.);
#460 = POLY_LOOP('',(#449,#450,#451,#452));
#461 = FACE_OUTER_BOUND('',#460,.T.);
#462 = DIRECTION('',(0.000000000,0.000000000,1.000000000));
#463 = DIRECTION('',(1.000000000,0.000000000,0.000000000));
#464 = AXIS2_PLACEMENT_3D('',#449,#462,#463);
#465 = PLANE('',#464);
#466 = FACE_SURFACE('',(#461),#465,.T.);
#467 = POLY_LOOP('',(#445,#446,#450,#449));
#468 = FACE_OUTER_BOUND('',#467,.T.);
#469 = DIRECTION('',(0.000000000,-1.000000000,0.000000000));
#470 = DIRECTION('',(1.000000000,0.000000000,0.000000000));
#471 = AXIS2_PLACEMENT_3D('',#445,#469,#470);
#472 = PLANE('',#471);
#473 = FACE_SURFACE('',(#468),#472,.T.);
#474 = POLY_LOOP('',(#446,#447,#451,#450));
#475 = FACE_OUTER_BOUND('',#474,.T.);
#476 = DIRECTION('',(1.000000000,0.000000000,0.000000000));
#477 = DIRECTION('',(0.000000000,1.000000000,0.000000000));
#478 = AXIS2_PLACEMENT_3D('',#446,#476,#477);
#479 = PLANE('',#478);
#480 = FACE_SURFACE('',(#475),#479,.T.);
#481 = POLY_LOOP('',(#447,#448,#452,#451));
#482 = FACE_OUTER_BOUND('',#481,.T.);
#483 = DIRECTION('',(0.000000000,1.000000000,0.000000000));
#484 = DIRECTION('',(-1.000000000,0.000000000,0.000000000));
#485 = AXIS2_PLACEMENT_3D('',#447,#483,#484);
#486 = PLANE('',#485);
#487 = FACE_SURFACE('',(#482),#486,.T.);
#488 = POLY_LOOP('',(#448,#445,#449,#452));
#489 = FACE_OUTER_BOUND('',#488,.T.);
#490 = DIRECTION('',(-1.000000000,0.000000000,0.000000000));
#491 = DIRECTION('',(0.000000000,-1.000000000,0.000000000));
#492 = AXIS2_PLACEMENT_3D('',#448,#490,#491);
#493 = PLANE('',#492);
#494 = FACE_SURFACE('',(#489),#493,.T.);
#495 = CLOSED_SHELL('',(#459,#466,#473,#480,#487,#494));
#496 = FACETED_BREP('black carriage',#495);
#497 = CARTESIAN_POINT('',(-50.000000000,60.000000000,-80.000000000));
#498 = CARTESIAN_POINT('',(50.000000000,60.000000000,-80.000000000));
#499 = CARTESIAN_POINT('',(50.000000000,75.000000000,-80.000000000));
#500 = CARTESIAN_POINT('',(-50.000000000,75.000000000,-80.000000000));
#501 = CARTESIAN_POINT('',(-50.000000000,60.000000000,15.000000000));
#502 = CARTESIAN_POINT('',(50.000000000,60.000000000,15.000000000));
#503 = CARTESIAN_POINT('',(50.000000000,75.000000000,15.000000000));
#504 = CARTESIAN_POINT('',(-50.000000000,75.000000000,15.000000000));
#505 = POLY_LOOP('',(#497,#500,#499,#498));
#506 = FACE_OUTER_BOUND('',#505,.T.);
#507 = DIRECTION('',(0.000000000,0.000000000,-1.000000000));
#508 = DIRECTION('',(0.000000000,1.000000000,0.000000000));
#509 = AXIS2_PLACEMENT_3D('',#497,#507,#508);
#510 = PLANE('',#509);
#511 = FACE_SURFACE('',(#506),#510,.T.);
#512 = POLY_LOOP('',(#501,#502,#503,#504));
#513 = FACE_OUTER_BOUND('',#512,.T.);
#514 = DIRECTION('',(0.000000000,0.000000000,1.000000000));
#515 = DIRECTION('',(1.000000000,0.000000000,0.000000000));
#516 = AXIS2_PLACEMENT_3D('',#501,#514,#515);
#517 = PLANE('',#516);
#518 = FACE_SURFACE('',(#513),#517,.T.);
#519 = POLY_LOOP('',(#497,#498,#502,#501));
#520 = FACE_OUTER_BOUND('',#519,.T.);
#521 = DIRECTION('',(0.000000000,-1.000000000,0.000000000));
#522 = DIRECTION('',(1.000000000,0.000000000,0.000000000));
#523 = AXIS2_PLACEMENT_3D('',#497,#521,#522);
#524 = PLANE('',#523);
#525 = FACE_SURFACE('',(#520),#524,.T.);
#526 = POLY_LOOP('',(#498,#499,#503,#502));
#527 = FACE_OUTER_BOUND('',#526,.T.);
#528 = DIRECTION('',(1.000000000,0.000000000,0.000000000));
#529 = DIRECTION('',(0.000000000,1.000000000,0.000000000));
#530 = AXIS2_PLACEMENT_3D('',#498,#528,#529);
#531 = PLANE('',#530);
#532 = FACE_SURFACE('',(#527),#531,.T.);
#533 = POLY_LOOP('',(#499,#500,#504,#503));
#534 = FACE_OUTER_BOUND('',#533,.T.);
#535 = DIRECTION('',(0.000000000,1.000000000,0.000000000));
#536 = DIRECTION('',(-1.000000000,0.000000000,0.000000000));
#537 = AXIS2_PLACEMENT_3D('',#499,#535,#536);
#538 = PLANE('',#537);
#539 = FACE_SURFACE('',(#534),#538,.T.);
#540 = POLY_LOOP('',(#500,#497,#501,#504));
#541 = FACE_OUTER_BOUND('',#540,.T.);
#542 = DIRECTION('',(-1.000000000,0.000000000,0.000000000));
#543 = DIRECTION('',(0.000000000,-1.000000000,0.000000000));
#544 = AXIS2_PLACEMENT_3D('',#500,#542,#543);
#545 = PLANE('',#544);
#546 = FACE_SURFACE('',(#541),#545,.T.);
#547 = CLOSED_SHELL('',(#511,#518,#525,#532,#539,#546));
#548 = FACETED_BREP('silver DUT mounting deck',#547);
#549 = CARTESIAN_POINT('',(-40.000000000,35.000000000,112.000000000));
#550 = CARTESIAN_POINT('',(-39.608452130,32.527864045,112.000000000));
#551 = CARTESIAN_POINT('',(-38.472135955,30.297717982,112.000000000));
#552 = CARTESIAN_POINT('',(-36.702282018,28.527864045,112.000000000));
#553 = CARTESIAN_POINT('',(-34.472135955,27.391547870,112.000000000));
#554 = CARTESIAN_POINT('',(-32.000000000,27.000000000,112.000000000));
#555 = CARTESIAN_POINT('',(-29.527864045,27.391547870,112.000000000));
#556 = CARTESIAN_POINT('',(-27.297717982,28.527864045,112.000000000));
#557 = CARTESIAN_POINT('',(-25.527864045,30.297717982,112.000000000));
#558 = CARTESIAN_POINT('',(-24.391547870,32.527864045,112.000000000));
#559 = CARTESIAN_POINT('',(-24.000000000,35.000000000,112.000000000));
#560 = CARTESIAN_POINT('',(-24.391547870,37.472135955,112.000000000));
#561 = CARTESIAN_POINT('',(-25.527864045,39.702282018,112.000000000));
#562 = CARTESIAN_POINT('',(-27.297717982,41.472135955,112.000000000));
#563 = CARTESIAN_POINT('',(-29.527864045,42.608452130,112.000000000));
#564 = CARTESIAN_POINT('',(-32.000000000,43.000000000,112.000000000));
#565 = CARTESIAN_POINT('',(-34.472135955,42.608452130,112.000000000));
#566 = CARTESIAN_POINT('',(-36.702282018,41.472135955,112.000000000));
#567 = CARTESIAN_POINT('',(-38.472135955,39.702282018,112.000000000));
#568 = CARTESIAN_POINT('',(-39.608452130,37.472135955,112.000000000));
#569 = CARTESIAN_POINT('',(-40.000000000,35.000000000,165.000000000));
#570 = CARTESIAN_POINT('',(-39.608452130,32.527864045,165.000000000));
#571 = CARTESIAN_POINT('',(-38.472135955,30.297717982,165.000000000));
#572 = CARTESIAN_POINT('',(-36.702282018,28.527864045,165.000000000));
#573 = CARTESIAN_POINT('',(-34.472135955,27.391547870,165.000000000));
#574 = CARTESIAN_POINT('',(-32.000000000,27.000000000,165.000000000));
#575 = CARTESIAN_POINT('',(-29.527864045,27.391547870,165.000000000));
#576 = CARTESIAN_POINT('',(-27.297717982,28.527864045,165.000000000));
#577 = CARTESIAN_POINT('',(-25.527864045,30.297717982,165.000000000));
#578 = CARTESIAN_POINT('',(-24.391547870,32.527864045,165.000000000));
#579 = CARTESIAN_POINT('',(-24.000000000,35.000000000,165.000000000));
#580 = CARTESIAN_POINT('',(-24.391547870,37.472135955,165.000000000));
#581 = CARTESIAN_POINT('',(-25.527864045,39.702282018,165.000000000));
#582 = CARTESIAN_POINT('',(-27.297717982,41.472135955,165.000000000));
#583 = CARTESIAN_POINT('',(-29.527864045,42.608452130,165.000000000));
#584 = CARTESIAN_POINT('',(-32.000000000,43.000000000,165.000000000));
#585 = CARTESIAN_POINT('',(-34.472135955,42.608452130,165.000000000));
#586 = CARTESIAN_POINT('',(-36.702282018,41.472135955,165.000000000));
#587 = CARTESIAN_POINT('',(-38.472135955,39.702282018,165.000000000));
#588 = CARTESIAN_POINT('',(-39.608452130,37.472135955,165.000000000));
#589 = POLY_LOOP('',(#568,#567,#566,#565,#564,#563,#562,#561,#560,#559,#558,#557,#556,#555,#554,#553,#552,#551,#550,#549));
#590 = FACE_OUTER_BOUND('',#589,.T.);
#591 = DIRECTION('',(0.000000000,0.000000000,-1.000000000));
#592 = DIRECTION('',(0.453990500,0.891006524,0.000000000));
#593 = AXIS2_PLACEMENT_3D('',#568,#591,#592);
#594 = PLANE('',#593);
#595 = FACE_SURFACE('',(#590),#594,.T.);
#596 = POLY_LOOP('',(#569,#570,#571,#572,#573,#574,#575,#576,#577,#578,#579,#580,#581,#582,#583,#584,#585,#586,#587,#588));
#597 = FACE_OUTER_BOUND('',#596,.T.);
#598 = DIRECTION('',(0.000000000,0.000000000,1.000000000));
#599 = DIRECTION('',(0.156434465,-0.987688341,0.000000000));
#600 = AXIS2_PLACEMENT_3D('',#569,#598,#599);
#601 = PLANE('',#600);
#602 = FACE_SURFACE('',(#597),#601,.T.);
#603 = POLY_LOOP('',(#549,#550,#570,#569));
#604 = FACE_OUTER_BOUND('',#603,.T.);
#605 = DIRECTION('',(-0.987688341,-0.156434465,0.000000000));
#606 = DIRECTION('',(0.156434465,-0.987688341,0.000000000));
#607 = AXIS2_PLACEMENT_3D('',#549,#605,#606);
#608 = PLANE('',#607);
#609 = FACE_SURFACE('',(#604),#608,.T.);
#610 = POLY_LOOP('',(#550,#551,#571,#570));
#611 = FACE_OUTER_BOUND('',#610,.T.);
#612 = DIRECTION('',(-0.891006524,-0.453990500,0.000000000));
#613 = DIRECTION('',(0.453990500,-0.891006524,0.000000000));
#614 = AXIS2_PLACEMENT_3D('',#550,#612,#613);
#615 = PLANE('',#614);
#616 = FACE_SURFACE('',(#611),#615,.T.);
#617 = POLY_LOOP('',(#551,#552,#572,#571));
#618 = FACE_OUTER_BOUND('',#617,.T.);
#619 = DIRECTION('',(-0.707106781,-0.707106781,0.000000000));
#620 = DIRECTION('',(0.707106781,-0.707106781,0.000000000));
#621 = AXIS2_PLACEMENT_3D('',#551,#619,#620);
#622 = PLANE('',#621);
#623 = FACE_SURFACE('',(#618),#622,.T.);
#624 = POLY_LOOP('',(#552,#553,#573,#572));
#625 = FACE_OUTER_BOUND('',#624,.T.);
#626 = DIRECTION('',(-0.453990500,-0.891006524,0.000000000));
#627 = DIRECTION('',(0.891006524,-0.453990500,0.000000000));
#628 = AXIS2_PLACEMENT_3D('',#552,#626,#627);
#629 = PLANE('',#628);
#630 = FACE_SURFACE('',(#625),#629,.T.);
#631 = POLY_LOOP('',(#553,#554,#574,#573));
#632 = FACE_OUTER_BOUND('',#631,.T.);
#633 = DIRECTION('',(-0.156434465,-0.987688341,0.000000000));
#634 = DIRECTION('',(0.987688341,-0.156434465,0.000000000));
#635 = AXIS2_PLACEMENT_3D('',#553,#633,#634);
#636 = PLANE('',#635);
#637 = FACE_SURFACE('',(#632),#636,.T.);
#638 = POLY_LOOP('',(#554,#555,#575,#574));
#639 = FACE_OUTER_BOUND('',#638,.T.);
#640 = DIRECTION('',(0.156434465,-0.987688341,0.000000000));
#641 = DIRECTION('',(0.987688341,0.156434465,0.000000000));
#642 = AXIS2_PLACEMENT_3D('',#554,#640,#641);
#643 = PLANE('',#642);
#644 = FACE_SURFACE('',(#639),#643,.T.);
#645 = POLY_LOOP('',(#555,#556,#576,#575));
#646 = FACE_OUTER_BOUND('',#645,.T.);
#647 = DIRECTION('',(0.453990500,-0.891006524,0.000000000));
#648 = DIRECTION('',(0.891006524,0.453990500,0.000000000));
#649 = AXIS2_PLACEMENT_3D('',#555,#647,#648);
#650 = PLANE('',#649);
#651 = FACE_SURFACE('',(#646),#650,.T.);
#652 = POLY_LOOP('',(#556,#557,#577,#576));
#653 = FACE_OUTER_BOUND('',#652,.T.);
#654 = DIRECTION('',(0.707106781,-0.707106781,0.000000000));
#655 = DIRECTION('',(0.707106781,0.707106781,0.000000000));
#656 = AXIS2_PLACEMENT_3D('',#556,#654,#655);
#657 = PLANE('',#656);
#658 = FACE_SURFACE('',(#653),#657,.T.);
#659 = POLY_LOOP('',(#557,#558,#578,#577));
#660 = FACE_OUTER_BOUND('',#659,.T.);
#661 = DIRECTION('',(0.891006524,-0.453990500,0.000000000));
#662 = DIRECTION('',(0.453990500,0.891006524,0.000000000));
#663 = AXIS2_PLACEMENT_3D('',#557,#661,#662);
#664 = PLANE('',#663);
#665 = FACE_SURFACE('',(#660),#664,.T.);
#666 = POLY_LOOP('',(#558,#559,#579,#578));
#667 = FACE_OUTER_BOUND('',#666,.T.);
#668 = DIRECTION('',(0.987688341,-0.156434465,0.000000000));
#669 = DIRECTION('',(0.156434465,0.987688341,0.000000000));
#670 = AXIS2_PLACEMENT_3D('',#558,#668,#669);
#671 = PLANE('',#670);
#672 = FACE_SURFACE('',(#667),#671,.T.);
#673 = POLY_LOOP('',(#559,#560,#580,#579));
#674 = FACE_OUTER_BOUND('',#673,.T.);
#675 = DIRECTION('',(0.987688341,0.156434465,0.000000000));
#676 = DIRECTION('',(-0.156434465,0.987688341,0.000000000));
#677 = AXIS2_PLACEMENT_3D('',#559,#675,#676);
#678 = PLANE('',#677);
#679 = FACE_SURFACE('',(#674),#678,.T.);
#680 = POLY_LOOP('',(#560,#561,#581,#580));
#681 = FACE_OUTER_BOUND('',#680,.T.);
#682 = DIRECTION('',(0.891006524,0.453990500,0.000000000));
#683 = DIRECTION('',(-0.453990500,0.891006524,0.000000000));
#684 = AXIS2_PLACEMENT_3D('',#560,#682,#683);
#685 = PLANE('',#684);
#686 = FACE_SURFACE('',(#681),#685,.T.);
#687 = POLY_LOOP('',(#561,#562,#582,#581));
#688 = FACE_OUTER_BOUND('',#687,.T.);
#689 = DIRECTION('',(0.707106781,0.707106781,0.000000000));
#690 = DIRECTION('',(-0.707106781,0.707106781,0.000000000));
#691 = AXIS2_PLACEMENT_3D('',#561,#689,#690);
#692 = PLANE('',#691);
#693 = FACE_SURFACE('',(#688),#692,.T.);
#694 = POLY_LOOP('',(#562,#563,#583,#582));
#695 = FACE_OUTER_BOUND('',#694,.T.);
#696 = DIRECTION('',(0.453990500,0.891006524,0.000000000));
#697 = DIRECTION('',(-0.891006524,0.453990500,0.000000000));
#698 = AXIS2_PLACEMENT_3D('',#562,#696,#697);
#699 = PLANE('',#698);
#700 = FACE_SURFACE('',(#695),#699,.T.);
#701 = POLY_LOOP('',(#563,#564,#584,#583));
#702 = FACE_OUTER_BOUND('',#701,.T.);
#703 = DIRECTION('',(0.156434465,0.987688341,0.000000000));
#704 = DIRECTION('',(-0.987688341,0.156434465,0.000000000));
#705 = AXIS2_PLACEMENT_3D('',#563,#703,#704);
#706 = PLANE('',#705);
#707 = FACE_SURFACE('',(#702),#706,.T.);
#708 = POLY_LOOP('',(#564,#565,#585,#584));
#709 = FACE_OUTER_BOUND('',#708,.T.);
#710 = DIRECTION('',(-0.156434465,0.987688341,0.000000000));
#711 = DIRECTION('',(-0.987688341,-0.156434465,0.000000000));
#712 = AXIS2_PLACEMENT_3D('',#564,#710,#711);
#713 = PLANE('',#712);
#714 = FACE_SURFACE('',(#709),#713,.T.);
#715 = POLY_LOOP('',(#565,#566,#586,#585));
#716 = FACE_OUTER_BOUND('',#715,.T.);
#717 = DIRECTION('',(-0.453990500,0.891006524,0.000000000));
#718 = DIRECTION('',(-0.891006524,-0.453990500,0.000000000));
#719 = AXIS2_PLACEMENT_3D('',#565,#717,#718);
#720 = PLANE('',#719);
#721 = FACE_SURFACE('',(#716),#720,.T.);
#722 = POLY_LOOP('',(#566,#567,#587,#586));
#723 = FACE_OUTER_BOUND('',#722,.T.);
#724 = DIRECTION('',(-0.707106781,0.707106781,0.000000000));
#725 = DIRECTION('',(-0.707106781,-0.707106781,0.000000000));
#726 = AXIS2_PLACEMENT_3D('',#566,#724,#725);
#727 = PLANE('',#726);
#728 = FACE_SURFACE('',(#723),#727,.T.);
#729 = POLY_LOOP('',(#567,#568,#588,#587));
#730 = FACE_OUTER_BOUND('',#729,.T.);
#731 = DIRECTION('',(-0.891006524,0.453990500,0.000000000));
#732 = DIRECTION('',(-0.453990500,-0.891006524,0.000000000));
#733 = AXIS2_PLACEMENT_3D('',#567,#731,#732);
#734 = PLANE('',#733);
#735 = FACE_SURFACE('',(#730),#734,.T.);
#736 = POLY_LOOP('',(#568,#549,#569,#588));
#737 = FACE_OUTER_BOUND('',#736,.T.);
#738 = DIRECTION('',(-0.987688341,0.156434465,0.000000000));
#739 = DIRECTION('',(-0.156434465,-0.987688341,0.000000000));
#740 = AXIS2_PLACEMENT_3D('',#568,#738,#739);
#741 = PLANE('',#740);
#742 = FACE_SURFACE('',(#737),#741,.T.);
#743 = CLOSED_SHELL('',(#595,#602,#609,#616,#623,#630,#637,#644,#651,#658,#665,#672,#679,#686,#693,#700,#707,#714,#721,#728,#735,#742));
#744 = FACETED_BREP('silver differential drive',#743);
#745 = CARTESIAN_POINT('',(24.000000000,35.000000000,112.000000000));
#746 = CARTESIAN_POINT('',(24.391547870,32.527864045,112.000000000));
#747 = CARTESIAN_POINT('',(25.527864045,30.297717982,112.000000000));
#748 = CARTESIAN_POINT('',(27.297717982,28.527864045,112.000000000));
#749 = CARTESIAN_POINT('',(29.527864045,27.391547870,112.000000000));
#750 = CARTESIAN_POINT('',(32.000000000,27.000000000,112.000000000));
#751 = CARTESIAN_POINT('',(34.472135955,27.391547870,112.000000000));
#752 = CARTESIAN_POINT('',(36.702282018,28.527864045,112.000000000));
#753 = CARTESIAN_POINT('',(38.472135955,30.297717982,112.000000000));
#754 = CARTESIAN_POINT('',(39.608452130,32.527864045,112.000000000));
#755 = CARTESIAN_POINT('',(40.000000000,35.000000000,112.000000000));
#756 = CARTESIAN_POINT('',(39.608452130,37.472135955,112.000000000));
#757 = CARTESIAN_POINT('',(38.472135955,39.702282018,112.000000000));
#758 = CARTESIAN_POINT('',(36.702282018,41.472135955,112.000000000));
#759 = CARTESIAN_POINT('',(34.472135955,42.608452130,112.000000000));
#760 = CARTESIAN_POINT('',(32.000000000,43.000000000,112.000000000));
#761 = CARTESIAN_POINT('',(29.527864045,42.608452130,112.000000000));
#762 = CARTESIAN_POINT('',(27.297717982,41.472135955,112.000000000));
#763 = CARTESIAN_POINT('',(25.527864045,39.702282018,112.000000000));
#764 = CARTESIAN_POINT('',(24.391547870,37.472135955,112.000000000));
#765 = CARTESIAN_POINT('',(24.000000000,35.000000000,165.000000000));
#766 = CARTESIAN_POINT('',(24.391547870,32.527864045,165.000000000));
#767 = CARTESIAN_POINT('',(25.527864045,30.297717982,165.000000000));
#768 = CARTESIAN_POINT('',(27.297717982,28.527864045,165.000000000));
#769 = CARTESIAN_POINT('',(29.527864045,27.391547870,165.000000000));
#770 = CARTESIAN_POINT('',(32.000000000,27.000000000,165.000000000));
#771 = CARTESIAN_POINT('',(34.472135955,27.391547870,165.000000000));
#772 = CARTESIAN_POINT('',(36.702282018,28.527864045,165.000000000));
#773 = CARTESIAN_POINT('',(38.472135955,30.297717982,165.000000000));
#774 = CARTESIAN_POINT('',(39.608452130,32.527864045,165.000000000));
#775 = CARTESIAN_POINT('',(40.000000000,35.000000000,165.000000000));
#776 = CARTESIAN_POINT('',(39.608452130,37.472135955,165.000000000));
#777 = CARTESIAN_POINT('',(38.472135955,39.702282018,165.000000000));
#778 = CARTESIAN_POINT('',(36.702282018,41.472135955,165.000000000));
#779 = CARTESIAN_POINT('',(34.472135955,42.608452130,165.000000000));
#780 = CARTESIAN_POINT('',(32.000000000,43.000000000,165.000000000));
#781 = CARTESIAN_POINT('',(29.527864045,42.608452130,165.000000000));
#782 = CARTESIAN_POINT('',(27.297717982,41.472135955,165.000000000));
#783 = CARTESIAN_POINT('',(25.527864045,39.702282018,165.000000000));
#784 = CARTESIAN_POINT('',(24.391547870,37.472135955,165.000000000));
#785 = POLY_LOOP('',(#764,#763,#762,#761,#760,#759,#758,#757,#756,#755,#754,#753,#752,#751,#750,#749,#748,#747,#746,#745));
#786 = FACE_OUTER_BOUND('',#785,.T.);
#787 = DIRECTION('',(0.000000000,0.000000000,-1.000000000));
#788 = DIRECTION('',(0.453990500,0.891006524,0.000000000));
#789 = AXIS2_PLACEMENT_3D('',#764,#787,#788);
#790 = PLANE('',#789);
#791 = FACE_SURFACE('',(#786),#790,.T.);
#792 = POLY_LOOP('',(#765,#766,#767,#768,#769,#770,#771,#772,#773,#774,#775,#776,#777,#778,#779,#780,#781,#782,#783,#784));
#793 = FACE_OUTER_BOUND('',#792,.T.);
#794 = DIRECTION('',(0.000000000,0.000000000,1.000000000));
#795 = DIRECTION('',(0.156434465,-0.987688341,0.000000000));
#796 = AXIS2_PLACEMENT_3D('',#765,#794,#795);
#797 = PLANE('',#796);
#798 = FACE_SURFACE('',(#793),#797,.T.);
#799 = POLY_LOOP('',(#745,#746,#766,#765));
#800 = FACE_OUTER_BOUND('',#799,.T.);
#801 = DIRECTION('',(-0.987688341,-0.156434465,0.000000000));
#802 = DIRECTION('',(0.156434465,-0.987688341,0.000000000));
#803 = AXIS2_PLACEMENT_3D('',#745,#801,#802);
#804 = PLANE('',#803);
#805 = FACE_SURFACE('',(#800),#804,.T.);
#806 = POLY_LOOP('',(#746,#747,#767,#766));
#807 = FACE_OUTER_BOUND('',#806,.T.);
#808 = DIRECTION('',(-0.891006524,-0.453990500,0.000000000));
#809 = DIRECTION('',(0.453990500,-0.891006524,0.000000000));
#810 = AXIS2_PLACEMENT_3D('',#746,#808,#809);
#811 = PLANE('',#810);
#812 = FACE_SURFACE('',(#807),#811,.T.);
#813 = POLY_LOOP('',(#747,#748,#768,#767));
#814 = FACE_OUTER_BOUND('',#813,.T.);
#815 = DIRECTION('',(-0.707106781,-0.707106781,0.000000000));
#816 = DIRECTION('',(0.707106781,-0.707106781,0.000000000));
#817 = AXIS2_PLACEMENT_3D('',#747,#815,#816);
#818 = PLANE('',#817);
#819 = FACE_SURFACE('',(#814),#818,.T.);
#820 = POLY_LOOP('',(#748,#749,#769,#768));
#821 = FACE_OUTER_BOUND('',#820,.T.);
#822 = DIRECTION('',(-0.453990500,-0.891006524,0.000000000));
#823 = DIRECTION('',(0.891006524,-0.453990500,0.000000000));
#824 = AXIS2_PLACEMENT_3D('',#748,#822,#823);
#825 = PLANE('',#824);
#826 = FACE_SURFACE('',(#821),#825,.T.);
#827 = POLY_LOOP('',(#749,#750,#770,#769));
#828 = FACE_OUTER_BOUND('',#827,.T.);
#829 = DIRECTION('',(-0.156434465,-0.987688341,0.000000000));
#830 = DIRECTION('',(0.987688341,-0.156434465,0.000000000));
#831 = AXIS2_PLACEMENT_3D('',#749,#829,#830);
#832 = PLANE('',#831);
#833 = FACE_SURFACE('',(#828),#832,.T.);
#834 = POLY_LOOP('',(#750,#751,#771,#770));
#835 = FACE_OUTER_BOUND('',#834,.T.);
#836 = DIRECTION('',(0.156434465,-0.987688341,0.000000000));
#837 = DIRECTION('',(0.987688341,0.156434465,0.000000000));
#838 = AXIS2_PLACEMENT_3D('',#750,#836,#837);
#839 = PLANE('',#838);
#840 = FACE_SURFACE('',(#835),#839,.T.);
#841 = POLY_LOOP('',(#751,#752,#772,#771));
#842 = FACE_OUTER_BOUND('',#841,.T.);
#843 = DIRECTION('',(0.453990500,-0.891006524,0.000000000));
#844 = DIRECTION('',(0.891006524,0.453990500,0.000000000));
#845 = AXIS2_PLACEMENT_3D('',#751,#843,#844);
#846 = PLANE('',#845);
#847 = FACE_SURFACE('',(#842),#846,.T.);
#848 = POLY_LOOP('',(#752,#753,#773,#772));
#849 = FACE_OUTER_BOUND('',#848,.T.);
#850 = DIRECTION('',(0.707106781,-0.707106781,0.000000000));
#851 = DIRECTION('',(0.707106781,0.707106781,0.000000000));
#852 = AXIS2_PLACEMENT_3D('',#752,#850,#851);
#853 = PLANE('',#852);
#854 = FACE_SURFACE('',(#849),#853,.T.);
#855 = POLY_LOOP('',(#753,#754,#774,#773));
#856 = FACE_OUTER_BOUND('',#855,.T.);
#857 = DIRECTION('',(0.891006524,-0.453990500,0.000000000));
#858 = DIRECTION('',(0.453990500,0.891006524,0.000000000));
#859 = AXIS2_PLACEMENT_3D('',#753,#857,#858);
#860 = PLANE('',#859);
#861 = FACE_SURFACE('',(#856),#860,.T.);
#862 = POLY_LOOP('',(#754,#755,#775,#774));
#863 = FACE_OUTER_BOUND('',#862,.T.);
#864 = DIRECTION('',(0.987688341,-0.156434465,0.000000000));
#865 = DIRECTION('',(0.156434465,0.987688341,0.000000000));
#866 = AXIS2_PLACEMENT_3D('',#754,#864,#865);
#867 = PLANE('',#866);
#868 = FACE_SURFACE('',(#863),#867,.T.);
#869 = POLY_LOOP('',(#755,#756,#776,#775));
#870 = FACE_OUTER_BOUND('',#869,.T.);
#871 = DIRECTION('',(0.987688341,0.156434465,0.000000000));
#872 = DIRECTION('',(-0.156434465,0.987688341,0.000000000));
#873 = AXIS2_PLACEMENT_3D('',#755,#871,#872);
#874 = PLANE('',#873);
#875 = FACE_SURFACE('',(#870),#874,.T.);
#876 = POLY_LOOP('',(#756,#757,#777,#776));
#877 = FACE_OUTER_BOUND('',#876,.T.);
#878 = DIRECTION('',(0.891006524,0.453990500,0.000000000));
#879 = DIRECTION('',(-0.453990500,0.891006524,0.000000000));
#880 = AXIS2_PLACEMENT_3D('',#756,#878,#879);
#881 = PLANE('',#880);
#882 = FACE_SURFACE('',(#877),#881,.T.);
#883 = POLY_LOOP('',(#757,#758,#778,#777));
#884 = FACE_OUTER_BOUND('',#883,.T.);
#885 = DIRECTION('',(0.707106781,0.707106781,0.000000000));
#886 = DIRECTION('',(-0.707106781,0.707106781,0.000000000));
#887 = AXIS2_PLACEMENT_3D('',#757,#885,#886);
#888 = PLANE('',#887);
#889 = FACE_SURFACE('',(#884),#888,.T.);
#890 = POLY_LOOP('',(#758,#759,#779,#778));
#891 = FACE_OUTER_BOUND('',#890,.T.);
#892 = DIRECTION('',(0.453990500,0.891006524,0.000000000));
#893 = DIRECTION('',(-0.891006524,0.453990500,0.000000000));
#894 = AXIS2_PLACEMENT_3D('',#758,#892,#893);
#895 = PLANE('',#894);
#896 = FACE_SURFACE('',(#891),#895,.T.);
#897 = POLY_LOOP('',(#759,#760,#780,#779));
#898 = FACE_OUTER_BOUND('',#897,.T.);
#899 = DIRECTION('',(0.156434465,0.987688341,0.000000000));
#900 = DIRECTION('',(-0.987688341,0.156434465,0.000000000));
#901 = AXIS2_PLACEMENT_3D('',#759,#899,#900);
#902 = PLANE('',#901);
#903 = FACE_SURFACE('',(#898),#902,.T.);
#904 = POLY_LOOP('',(#760,#761,#781,#780));
#905 = FACE_OUTER_BOUND('',#904,.T.);
#906 = DIRECTION('',(-0.156434465,0.987688341,0.000000000));
#907 = DIRECTION('',(-0.987688341,-0.156434465,0.000000000));
#908 = AXIS2_PLACEMENT_3D('',#760,#906,#907);
#909 = PLANE('',#908);
#910 = FACE_SURFACE('',(#905),#909,.T.);
#911 = POLY_LOOP('',(#761,#762,#782,#781));
#912 = FACE_OUTER_BOUND('',#911,.T.);
#913 = DIRECTION('',(-0.453990500,0.891006524,0.000000000));
#914 = DIRECTION('',(-0.891006524,-0.453990500,0.000000000));
#915 = AXIS2_PLACEMENT_3D('',#761,#913,#914);
#916 = PLANE('',#915);
#917 = FACE_SURFACE('',(#912),#916,.T.);
#918 = POLY_LOOP('',(#762,#763,#783,#782));
#919 = FACE_OUTER_BOUND('',#918,.T.);
#920 = DIRECTION('',(-0.707106781,0.707106781,0.000000000));
#921 = DIRECTION('',(-0.707106781,-0.707106781,0.000000000));
#922 = AXIS2_PLACEMENT_3D('',#762,#920,#921);
#923 = PLANE('',#922);
#924 = FACE_SURFACE('',(#919),#923,.T.);
#925 = POLY_LOOP('',(#763,#764,#784,#783));
#926 = FACE_OUTER_BOUND('',#925,.T.);
#927 = DIRECTION('',(-0.891006524,0.453990500,0.000000000));
#928 = DIRECTION('',(-0.453990500,-0.891006524,0.000000000));
#929 = AXIS2_PLACEMENT_3D('',#763,#927,#928);
#930 = PLANE('',#929);
#931 = FACE_SURFACE('',(#926),#930,.T.);
#932 = POLY_LOOP('',(#764,#745,#765,#784));
#933 = FACE_OUTER_BOUND('',#932,.T.);
#934 = DIRECTION('',(-0.987688341,0.156434465,0.000000000));
#935 = DIRECTION('',(-0.156434465,-0.987688341,0.000000000));
#936 = AXIS2_PLACEMENT_3D('',#764,#934,#935);
#937 = PLANE('',#936);
#938 = FACE_SURFACE('',(#933),#937,.T.);
#939 = CLOSED_SHELL('',(#791,#798,#805,#812,#819,#826,#833,#840,#847,#854,#861,#868,#875,#882,#889,#896,#903,#910,#917,#924,#931,#938));
#940 = FACETED_BREP('silver differential drive',#939);
#941 = CARTESIAN_POINT('',(55.000000000,58.000000000,-12.000000000));
#942 = CARTESIAN_POINT('',(55.000000000,55.527864045,-12.391547870));
#943 = CARTESIAN_POINT('',(55.000000000,53.297717982,-13.527864045));
#944 = CARTESIAN_POINT('',(55.000000000,51.527864045,-15.297717982));
#945 = CARTESIAN_POINT('',(55.000000000,50.391547870,-17.527864045));
#946 = CARTESIAN_POINT('',(55.000000000,50.000000000,-20.000000000));
#947 = CARTESIAN_POINT('',(55.000000000,50.391547870,-22.472135955));
#948 = CARTESIAN_POINT('',(55.000000000,51.527864045,-24.702282018));
#949 = CARTESIAN_POINT('',(55.000000000,53.297717982,-26.472135955));
#950 = CARTESIAN_POINT('',(55.000000000,55.527864045,-27.608452130));
#951 = CARTESIAN_POINT('',(55.000000000,58.000000000,-28.000000000));
#952 = CARTESIAN_POINT('',(55.000000000,60.472135955,-27.608452130));
#953 = CARTESIAN_POINT('',(55.000000000,62.702282018,-26.472135955));
#954 = CARTESIAN_POINT('',(55.000000000,64.472135955,-24.702282018));
#955 = CARTESIAN_POINT('',(55.000000000,65.608452130,-22.472135955));
#956 = CARTESIAN_POINT('',(55.000000000,66.000000000,-20.000000000));
#957 = CARTESIAN_POINT('',(55.000000000,65.608452130,-17.527864045));
#958 = CARTESIAN_POINT('',(55.000000000,64.472135955,-15.297717982));
#959 = CARTESIAN_POINT('',(55.000000000,62.702282018,-13.527864045));
#960 = CARTESIAN_POINT('',(55.000000000,60.472135955,-12.391547870));
#961 = CARTESIAN_POINT('',(95.000000000,58.000000000,-12.000000000));
#962 = CARTESIAN_POINT('',(95.000000000,55.527864045,-12.391547870));
#963 = CARTESIAN_POINT('',(95.000000000,53.297717982,-13.527864045));
#964 = CARTESIAN_POINT('',(95.000000000,51.527864045,-15.297717982));
#965 = CARTESIAN_POINT('',(95.000000000,50.391547870,-17.527864045));
#966 = CARTESIAN_POINT('',(95.000000000,50.000000000,-20.000000000));
#967 = CARTESIAN_POINT('',(95.000000000,50.391547870,-22.472135955));
#968 = CARTESIAN_POINT('',(95.000000000,51.527864045,-24.702282018));
#969 = CARTESIAN_POINT('',(95.000000000,53.297717982,-26.472135955));
#970 = CARTESIAN_POINT('',(95.000000000,55.527864045,-27.608452130));
#971 = CARTESIAN_POINT('',(95.000000000,58.000000000,-28.000000000));
#972 = CARTESIAN_POINT('',(95.000000000,60.472135955,-27.608452130));
#973 = CARTESIAN_POINT('',(95.000000000,62.702282018,-26.472135955));
#974 = CARTESIAN_POINT('',(95.000000000,64.472135955,-24.702282018));
#975 = CARTESIAN_POINT('',(95.000000000,65.608452130,-22.472135955));
#976 = CARTESIAN_POINT('',(95.000000000,66.000000000,-20.000000000));
#977 = CARTESIAN_POINT('',(95.000000000,65.608452130,-17.527864045));
#978 = CARTESIAN_POINT('',(95.000000000,64.472135955,-15.297717982));
#979 = CARTESIAN_POINT('',(95.000000000,62.702282018,-13.527864045));
#980 = CARTESIAN_POINT('',(95.000000000,60.472135955,-12.391547870));
#981 = POLY_LOOP('',(#960,#959,#958,#957,#956,#955,#954,#953,#952,#951,#950,#949,#948,#947,#946,#945,#944,#943,#942,#941));
#982 = FACE_OUTER_BOUND('',#981,.T.);
#983 = DIRECTION('',(-1.000000000,0.000000000,0.000000000));
#984 = DIRECTION('',(0.000000000,0.891006524,-0.453990500));
#985 = AXIS2_PLACEMENT_3D('',#960,#983,#984);
#986 = PLANE('',#985);
#987 = FACE_SURFACE('',(#982),#986,.T.);
#988 = POLY_LOOP('',(#961,#962,#963,#964,#965,#966,#967,#968,#969,#970,#971,#972,#973,#974,#975,#976,#977,#978,#979,#980));
#989 = FACE_OUTER_BOUND('',#988,.T.);
#990 = DIRECTION('',(1.000000000,0.000000000,0.000000000));
#991 = DIRECTION('',(0.000000000,-0.987688341,-0.156434465));
#992 = AXIS2_PLACEMENT_3D('',#961,#990,#991);
#993 = PLANE('',#992);
#994 = FACE_SURFACE('',(#989),#993,.T.);
#995 = POLY_LOOP('',(#941,#942,#962,#961));
#996 = FACE_OUTER_BOUND('',#995,.T.);
#997 = DIRECTION('',(0.000000000,-0.156434465,0.987688341));
#998 = DIRECTION('',(0.000000000,-0.987688341,-0.156434465));
#999 = AXIS2_PLACEMENT_3D('',#941,#997,#998);
#1000 = PLANE('',#999);
#1001 = FACE_SURFACE('',(#996),#1000,.T.);
#1002 = POLY_LOOP('',(#942,#943,#963,#962));
#1003 = FACE_OUTER_BOUND('',#1002,.T.);
#1004 = DIRECTION('',(0.000000000,-0.453990500,0.891006524));
#1005 = DIRECTION('',(0.000000000,-0.891006524,-0.453990500));
#1006 = AXIS2_PLACEMENT_3D('',#942,#1004,#1005);
#1007 = PLANE('',#1006);
#1008 = FACE_SURFACE('',(#1003),#1007,.T.);
#1009 = POLY_LOOP('',(#943,#944,#964,#963));
#1010 = FACE_OUTER_BOUND('',#1009,.T.);
#1011 = DIRECTION('',(0.000000000,-0.707106781,0.707106781));
#1012 = DIRECTION('',(0.000000000,-0.707106781,-0.707106781));
#1013 = AXIS2_PLACEMENT_3D('',#943,#1011,#1012);
#1014 = PLANE('',#1013);
#1015 = FACE_SURFACE('',(#1010),#1014,.T.);
#1016 = POLY_LOOP('',(#944,#945,#965,#964));
#1017 = FACE_OUTER_BOUND('',#1016,.T.);
#1018 = DIRECTION('',(0.000000000,-0.891006524,0.453990500));
#1019 = DIRECTION('',(0.000000000,-0.453990500,-0.891006524));
#1020 = AXIS2_PLACEMENT_3D('',#944,#1018,#1019);
#1021 = PLANE('',#1020);
#1022 = FACE_SURFACE('',(#1017),#1021,.T.);
#1023 = POLY_LOOP('',(#945,#946,#966,#965));
#1024 = FACE_OUTER_BOUND('',#1023,.T.);
#1025 = DIRECTION('',(0.000000000,-0.987688341,0.156434465));
#1026 = DIRECTION('',(0.000000000,-0.156434465,-0.987688341));
#1027 = AXIS2_PLACEMENT_3D('',#945,#1025,#1026);
#1028 = PLANE('',#1027);
#1029 = FACE_SURFACE('',(#1024),#1028,.T.);
#1030 = POLY_LOOP('',(#946,#947,#967,#966));
#1031 = FACE_OUTER_BOUND('',#1030,.T.);
#1032 = DIRECTION('',(0.000000000,-0.987688341,-0.156434465));
#1033 = DIRECTION('',(0.000000000,0.156434465,-0.987688341));
#1034 = AXIS2_PLACEMENT_3D('',#946,#1032,#1033);
#1035 = PLANE('',#1034);
#1036 = FACE_SURFACE('',(#1031),#1035,.T.);
#1037 = POLY_LOOP('',(#947,#948,#968,#967));
#1038 = FACE_OUTER_BOUND('',#1037,.T.);
#1039 = DIRECTION('',(0.000000000,-0.891006524,-0.453990500));
#1040 = DIRECTION('',(0.000000000,0.453990500,-0.891006524));
#1041 = AXIS2_PLACEMENT_3D('',#947,#1039,#1040);
#1042 = PLANE('',#1041);
#1043 = FACE_SURFACE('',(#1038),#1042,.T.);
#1044 = POLY_LOOP('',(#948,#949,#969,#968));
#1045 = FACE_OUTER_BOUND('',#1044,.T.);
#1046 = DIRECTION('',(0.000000000,-0.707106781,-0.707106781));
#1047 = DIRECTION('',(0.000000000,0.707106781,-0.707106781));
#1048 = AXIS2_PLACEMENT_3D('',#948,#1046,#1047);
#1049 = PLANE('',#1048);
#1050 = FACE_SURFACE('',(#1045),#1049,.T.);
#1051 = POLY_LOOP('',(#949,#950,#970,#969));
#1052 = FACE_OUTER_BOUND('',#1051,.T.);
#1053 = DIRECTION('',(0.000000000,-0.453990500,-0.891006524));
#1054 = DIRECTION('',(0.000000000,0.891006524,-0.453990500));
#1055 = AXIS2_PLACEMENT_3D('',#949,#1053,#1054);
#1056 = PLANE('',#1055);
#1057 = FACE_SURFACE('',(#1052),#1056,.T.);
#1058 = POLY_LOOP('',(#950,#951,#971,#970));
#1059 = FACE_OUTER_BOUND('',#1058,.T.);
#1060 = DIRECTION('',(0.000000000,-0.156434465,-0.987688341));
#1061 = DIRECTION('',(0.000000000,0.987688341,-0.156434465));
#1062 = AXIS2_PLACEMENT_3D('',#950,#1060,#1061);
#1063 = PLANE('',#1062);
#1064 = FACE_SURFACE('',(#1059),#1063,.T.);
#1065 = POLY_LOOP('',(#951,#952,#972,#971));
#1066 = FACE_OUTER_BOUND('',#1065,.T.);
#1067 = DIRECTION('',(0.000000000,0.156434465,-0.987688341));
#1068 = DIRECTION('',(0.000000000,0.987688341,0.156434465));
#1069 = AXIS2_PLACEMENT_3D('',#951,#1067,#1068);
#1070 = PLANE('',#1069);
#1071 = FACE_SURFACE('',(#1066),#1070,.T.);
#1072 = POLY_LOOP('',(#952,#953,#973,#972));
#1073 = FACE_OUTER_BOUND('',#1072,.T.);
#1074 = DIRECTION('',(0.000000000,0.453990500,-0.891006524));
#1075 = DIRECTION('',(0.000000000,0.891006524,0.453990500));
#1076 = AXIS2_PLACEMENT_3D('',#952,#1074,#1075);
#1077 = PLANE('',#1076);
#1078 = FACE_SURFACE('',(#1073),#1077,.T.);
#1079 = POLY_LOOP('',(#953,#954,#974,#973));
#1080 = FACE_OUTER_BOUND('',#1079,.T.);
#1081 = DIRECTION('',(0.000000000,0.707106781,-0.707106781));
#1082 = DIRECTION('',(0.000000000,0.707106781,0.707106781));
#1083 = AXIS2_PLACEMENT_3D('',#953,#1081,#1082);
#1084 = PLANE('',#1083);
#1085 = FACE_SURFACE('',(#1080),#1084,.T.);
#1086 = POLY_LOOP('',(#954,#955,#975,#974));
#1087 = FACE_OUTER_BOUND('',#1086,.T.);
#1088 = DIRECTION('',(0.000000000,0.891006524,-0.453990500));
#1089 = DIRECTION('',(0.000000000,0.453990500,0.891006524));
#1090 = AXIS2_PLACEMENT_3D('',#954,#1088,#1089);
#1091 = PLANE('',#1090);
#1092 = FACE_SURFACE('',(#1087),#1091,.T.);
#1093 = POLY_LOOP('',(#955,#956,#976,#975));
#1094 = FACE_OUTER_BOUND('',#1093,.T.);
#1095 = DIRECTION('',(0.000000000,0.987688341,-0.156434465));
#1096 = DIRECTION('',(0.000000000,0.156434465,0.987688341));
#1097 = AXIS2_PLACEMENT_3D('',#955,#1095,#1096);
#1098 = PLANE('',#1097);
#1099 = FACE_SURFACE('',(#1094),#1098,.T.);
#1100 = POLY_LOOP('',(#956,#957,#977,#976));
#1101 = FACE_OUTER_BOUND('',#1100,.T.);
#1102 = DIRECTION('',(0.000000000,0.987688341,0.156434465));
#1103 = DIRECTION('',(0.000000000,-0.156434465,0.987688341));
#1104 = AXIS2_PLACEMENT_3D('',#956,#1102,#1103);
#1105 = PLANE('',#1104);
#1106 = FACE_SURFACE('',(#1101),#1105,.T.);
#1107 = POLY_LOOP('',(#957,#958,#978,#977));
#1108 = FACE_OUTER_BOUND('',#1107,.T.);
#1109 = DIRECTION('',(0.000000000,0.891006524,0.453990500));
#1110 = DIRECTION('',(0.000000000,-0.453990500,0.891006524));
#1111 = AXIS2_PLACEMENT_3D('',#957,#1109,#1110);
#1112 = PLANE('',#1111);
#1113 = FACE_SURFACE('',(#1108),#1112,.T.);
#1114 = POLY_LOOP('',(#958,#959,#979,#978));
#1115 = FACE_OUTER_BOUND('',#1114,.T.);
#1116 = DIRECTION('',(0.000000000,0.707106781,0.707106781));
#1117 = DIRECTION('',(0.000000000,-0.707106781,0.707106781));
#1118 = AXIS2_PLACEMENT_3D('',#958,#1116,#1117);
#1119 = PLANE('',#1118);
#1120 = FACE_SURFACE('',(#1115),#1119,.T.);
#1121 = POLY_LOOP('',(#959,#960,#980,#979));
#1122 = FACE_OUTER_BOUND('',#1121,.T.);
#1123 = DIRECTION('',(0.000000000,0.453990500,0.891006524));
#1124 = DIRECTION('',(0.000000000,-0.891006524,0.453990500));
#1125 = AXIS2_PLACEMENT_3D('',#959,#1123,#1124);
#1126 = PLANE('',#1125);
#1127 = FACE_SURFACE('',(#1122),#1126,.T.);
#1128 = POLY_LOOP('',(#960,#941,#961,#980));
#1129 = FACE_OUTER_BOUND('',#1128,.T.);
#1130 = DIRECTION('',(0.000000000,0.156434465,0.987688341));
#1131 = DIRECTION('',(0.000000000,-0.987688341,0.156434465));
#1132 = AXIS2_PLACEMENT_3D('',#960,#1130,#1131);
#1133 = PLANE('',#1132);
#1134 = FACE_SURFACE('',(#1129),#1133,.T.);
#1135 = CLOSED_SHELL('',(#987,#994,#1001,#1008,#1015,#1022,#1029,#1036,#1043,#1050,#1057,#1064,#1071,#1078,#1085,#1092,#1099,#1106,#1113,#1120,#1127,#1134));
#1136 = FACETED_BREP('silver side micrometer',#1135);
#1137 = APPLICATION_CONTEXT('configuration controlled 3d designs of mechanical parts and assemblies');
#1138 = APPLICATION_PROTOCOL_DEFINITION('international standard','config_control_design',1994,#1137);
#1139 = PRODUCT_CONTEXT('',#1137,'mechanical');
#1140 = PRODUCT('REF','Illustrative reference','NOT vendor CAD',(#1139));
#1141 = PRODUCT_DEFINITION_FORMATION_WITH_SPECIFIED_SOURCE('','',#1140,.NOT_KNOWN.);
#1142 = PRODUCT_DEFINITION_CONTEXT('part definition',#1137,'design');
#1143 = PRODUCT_DEFINITION('design','',#1141,#1142);
#1144 = PRODUCT_DEFINITION_SHAPE('','',#1143);
#1145 = (LENGTH_UNIT()NAMED_UNIT(*)SI_UNIT(.MILLI.,.METRE.));
#1146 = (NAMED_UNIT(*)PLANE_ANGLE_UNIT()SI_UNIT($,.RADIAN.));
#1147 = (NAMED_UNIT(*)SI_UNIT($,.STERADIAN.)SOLID_ANGLE_UNIT());
#1148 = UNCERTAINTY_MEASURE_WITH_UNIT(LENGTH_MEASURE(0.000001),#1145,'distance_accuracy_value','');
#1149 = (GEOMETRIC_REPRESENTATION_CONTEXT(3)GLOBAL_UNCERTAINTY_ASSIGNED_CONTEXT((#1148))GLOBAL_UNIT_ASSIGNED_CONTEXT((#1145,#1146,#1147))REPRESENTATION_CONTEXT('',''));
#1150 = FACETED_BREP_SHAPE_REPRESENTATION('Illustrative reference',(#52,#248,#444,#496,#548,#744,#940,#1136),#1149);
#1151 = SHAPE_DEFINITION_REPRESENTATION(#1144,#1150);
ENDSEC;
END-ISO-10303-21;
