ISO-10303-21;
HEADER;
FILE_DESCRIPTION(('Illustrative CAD - NOT vendor dimensions'),'2;1');
FILE_NAME('reference.step','2026-10-07',('CORNERSTONE'),(''),'reference generator','','');
FILE_SCHEMA(('CONFIG_CONTROL_DESIGN'));
ENDSEC;
DATA;
#1 = CARTESIAN_POINT('',(0.000000000,0.000000000,-90.000000000));
#2 = CARTESIAN_POINT('',(-8.821542630,0.000000000,-89.566625400));
#3 = CARTESIAN_POINT('',(-17.558128981,0.000000000,-88.270675236));
#4 = CARTESIAN_POINT('',(-26.125620953,0.000000000,-86.124630216));
#5 = CARTESIAN_POINT('',(-34.441508913,0.000000000,-83.149157926));
#6 = CARTESIAN_POINT('',(-42.425706314,0.000000000,-79.372913791));
#7 = CARTESIAN_POINT('',(-50.001320972,0.000000000,-74.832265107));
#8 = CARTESIAN_POINT('',(-57.095395575,0.000000000,-69.570940803));
#9 = CARTESIAN_POINT('',(-63.639610307,0.000000000,-63.639610307));
#10 = CARTESIAN_POINT('',(-69.570940803,0.000000000,-57.095395575));
#11 = CARTESIAN_POINT('',(-74.832265107,0.000000000,-50.001320972));
#12 = CARTESIAN_POINT('',(-79.372913791,0.000000000,-42.425706314));
#13 = CARTESIAN_POINT('',(-83.149157926,0.000000000,-34.441508913));
#14 = CARTESIAN_POINT('',(-86.124630216,0.000000000,-26.125620953));
#15 = CARTESIAN_POINT('',(-88.270675236,0.000000000,-17.558128981));
#16 = CARTESIAN_POINT('',(-89.566625400,0.000000000,-8.821542630));
#17 = CARTESIAN_POINT('',(-90.000000000,0.000000000,-0.000000000));
#18 = CARTESIAN_POINT('',(-89.566625400,0.000000000,8.821542630));
#19 = CARTESIAN_POINT('',(-88.270675236,0.000000000,17.558128981));
#20 = CARTESIAN_POINT('',(-86.124630216,0.000000000,26.125620953));
#21 = CARTESIAN_POINT('',(-83.149157926,0.000000000,34.441508913));
#22 = CARTESIAN_POINT('',(-79.372913791,0.000000000,42.425706314));
#23 = CARTESIAN_POINT('',(-74.832265107,0.000000000,50.001320972));
#24 = CARTESIAN_POINT('',(-69.570940803,0.000000000,57.095395575));
#25 = CARTESIAN_POINT('',(-63.639610307,0.000000000,63.639610307));
#26 = CARTESIAN_POINT('',(-57.095395575,0.000000000,69.570940803));
#27 = CARTESIAN_POINT('',(-50.001320972,0.000000000,74.832265107));
#28 = CARTESIAN_POINT('',(-42.425706314,0.000000000,79.372913791));
#29 = CARTESIAN_POINT('',(-34.441508913,0.000000000,83.149157926));
#30 = CARTESIAN_POINT('',(-26.125620953,0.000000000,86.124630216));
#31 = CARTESIAN_POINT('',(-17.558128981,0.000000000,88.270675236));
#32 = CARTESIAN_POINT('',(-8.821542630,0.000000000,89.566625400));
#33 = CARTESIAN_POINT('',(-0.000000000,0.000000000,90.000000000));
#34 = CARTESIAN_POINT('',(8.821542630,0.000000000,89.566625400));
#35 = CARTESIAN_POINT('',(17.558128981,0.000000000,88.270675236));
#36 = CARTESIAN_POINT('',(26.125620953,0.000000000,86.124630216));
#37 = CARTESIAN_POINT('',(34.441508913,0.000000000,83.149157926));
#38 = CARTESIAN_POINT('',(42.425706314,0.000000000,79.372913791));
#39 = CARTESIAN_POINT('',(50.001320972,0.000000000,74.832265107));
#40 = CARTESIAN_POINT('',(57.095395575,0.000000000,69.570940803));
#41 = CARTESIAN_POINT('',(63.639610307,0.000000000,63.639610307));
#42 = CARTESIAN_POINT('',(69.570940803,0.000000000,57.095395575));
#43 = CARTESIAN_POINT('',(74.832265107,0.000000000,50.001320972));
#44 = CARTESIAN_POINT('',(79.372913791,0.000000000,42.425706314));
#45 = CARTESIAN_POINT('',(83.149157926,0.000000000,34.441508913));
#46 = CARTESIAN_POINT('',(86.124630216,0.000000000,26.125620953));
#47 = CARTESIAN_POINT('',(88.270675236,0.000000000,17.558128981));
#48 = CARTESIAN_POINT('',(89.566625400,0.000000000,8.821542630));
#49 = CARTESIAN_POINT('',(90.000000000,0.000000000,0.000000000));
#50 = CARTESIAN_POINT('',(89.566625400,0.000000000,-8.821542630));
#51 = CARTESIAN_POINT('',(88.270675236,0.000000000,-17.558128981));
#52 = CARTESIAN_POINT('',(86.124630216,0.000000000,-26.125620953));
#53 = CARTESIAN_POINT('',(83.149157926,0.000000000,-34.441508913));
#54 = CARTESIAN_POINT('',(79.372913791,0.000000000,-42.425706314));
#55 = CARTESIAN_POINT('',(74.832265107,0.000000000,-50.001320972));
#56 = CARTESIAN_POINT('',(69.570940803,0.000000000,-57.095395575));
#57 = CARTESIAN_POINT('',(63.639610307,0.000000000,-63.639610307));
#58 = CARTESIAN_POINT('',(57.095395575,0.000000000,-69.570940803));
#59 = CARTESIAN_POINT('',(50.001320972,0.000000000,-74.832265107));
#60 = CARTESIAN_POINT('',(42.425706314,0.000000000,-79.372913791));
#61 = CARTESIAN_POINT('',(34.441508913,0.000000000,-83.149157926));
#62 = CARTESIAN_POINT('',(26.125620953,0.000000000,-86.124630216));
#63 = CARTESIAN_POINT('',(17.558128981,0.000000000,-88.270675236));
#64 = CARTESIAN_POINT('',(8.821542630,0.000000000,-89.566625400));
#65 = CARTESIAN_POINT('',(0.000000000,10.000000000,-90.000000000));
#66 = CARTESIAN_POINT('',(-8.821542630,10.000000000,-89.566625400));
#67 = CARTESIAN_POINT('',(-17.558128981,10.000000000,-88.270675236));
#68 = CARTESIAN_POINT('',(-26.125620953,10.000000000,-86.124630216));
#69 = CARTESIAN_POINT('',(-34.441508913,10.000000000,-83.149157926));
#70 = CARTESIAN_POINT('',(-42.425706314,10.000000000,-79.372913791));
#71 = CARTESIAN_POINT('',(-50.001320972,10.000000000,-74.832265107));
#72 = CARTESIAN_POINT('',(-57.095395575,10.000000000,-69.570940803));
#73 = CARTESIAN_POINT('',(-63.639610307,10.000000000,-63.639610307));
#74 = CARTESIAN_POINT('',(-69.570940803,10.000000000,-57.095395575));
#75 = CARTESIAN_POINT('',(-74.832265107,10.000000000,-50.001320972));
#76 = CARTESIAN_POINT('',(-79.372913791,10.000000000,-42.425706314));
#77 = CARTESIAN_POINT('',(-83.149157926,10.000000000,-34.441508913));
#78 = CARTESIAN_POINT('',(-86.124630216,10.000000000,-26.125620953));
#79 = CARTESIAN_POINT('',(-88.270675236,10.000000000,-17.558128981));
#80 = CARTESIAN_POINT('',(-89.566625400,10.000000000,-8.821542630));
#81 = CARTESIAN_POINT('',(-90.000000000,10.000000000,-0.000000000));
#82 = CARTESIAN_POINT('',(-89.566625400,10.000000000,8.821542630));
#83 = CARTESIAN_POINT('',(-88.270675236,10.000000000,17.558128981));
#84 = CARTESIAN_POINT('',(-86.124630216,10.000000000,26.125620953));
#85 = CARTESIAN_POINT('',(-83.149157926,10.000000000,34.441508913));
#86 = CARTESIAN_POINT('',(-79.372913791,10.000000000,42.425706314));
#87 = CARTESIAN_POINT('',(-74.832265107,10.000000000,50.001320972));
#88 = CARTESIAN_POINT('',(-69.570940803,10.000000000,57.095395575));
#89 = CARTESIAN_POINT('',(-63.639610307,10.000000000,63.639610307));
#90 = CARTESIAN_POINT('',(-57.095395575,10.000000000,69.570940803));
#91 = CARTESIAN_POINT('',(-50.001320972,10.000000000,74.832265107));
#92 = CARTESIAN_POINT('',(-42.425706314,10.000000000,79.372913791));
#93 = CARTESIAN_POINT('',(-34.441508913,10.000000000,83.149157926));
#94 = CARTESIAN_POINT('',(-26.125620953,10.000000000,86.124630216));
#95 = CARTESIAN_POINT('',(-17.558128981,10.000000000,88.270675236));
#96 = CARTESIAN_POINT('',(-8.821542630,10.000000000,89.566625400));
#97 = CARTESIAN_POINT('',(-0.000000000,10.000000000,90.000000000));
#98 = CARTESIAN_POINT('',(8.821542630,10.000000000,89.566625400));
#99 = CARTESIAN_POINT('',(17.558128981,10.000000000,88.270675236));
#100 = CARTESIAN_POINT('',(26.125620953,10.000000000,86.124630216));
#101 = CARTESIAN_POINT('',(34.441508913,10.000000000,83.149157926));
#102 = CARTESIAN_POINT('',(42.425706314,10.000000000,79.372913791));
#103 = CARTESIAN_POINT('',(50.001320972,10.000000000,74.832265107));
#104 = CARTESIAN_POINT('',(57.095395575,10.000000000,69.570940803));
#105 = CARTESIAN_POINT('',(63.639610307,10.000000000,63.639610307));
#106 = CARTESIAN_POINT('',(69.570940803,10.000000000,57.095395575));
#107 = CARTESIAN_POINT('',(74.832265107,10.000000000,50.001320972));
#108 = CARTESIAN_POINT('',(79.372913791,10.000000000,42.425706314));
#109 = CARTESIAN_POINT('',(83.149157926,10.000000000,34.441508913));
#110 = CARTESIAN_POINT('',(86.124630216,10.000000000,26.125620953));
#111 = CARTESIAN_POINT('',(88.270675236,10.000000000,17.558128981));
#112 = CARTESIAN_POINT('',(89.566625400,10.000000000,8.821542630));
#113 = CARTESIAN_POINT('',(90.000000000,10.000000000,0.000000000));
#114 = CARTESIAN_POINT('',(89.566625400,10.000000000,-8.821542630));
#115 = CARTESIAN_POINT('',(88.270675236,10.000000000,-17.558128981));
#116 = CARTESIAN_POINT('',(86.124630216,10.000000000,-26.125620953));
#117 = CARTESIAN_POINT('',(83.149157926,10.000000000,-34.441508913));
#118 = CARTESIAN_POINT('',(79.372913791,10.000000000,-42.425706314));
#119 = CARTESIAN_POINT('',(74.832265107,10.000000000,-50.001320972));
#120 = CARTESIAN_POINT('',(69.570940803,10.000000000,-57.095395575));
#121 = CARTESIAN_POINT('',(63.639610307,10.000000000,-63.639610307));
#122 = CARTESIAN_POINT('',(57.095395575,10.000000000,-69.570940803));
#123 = CARTESIAN_POINT('',(50.001320972,10.000000000,-74.832265107));
#124 = CARTESIAN_POINT('',(42.425706314,10.000000000,-79.372913791));
#125 = CARTESIAN_POINT('',(34.441508913,10.000000000,-83.149157926));
#126 = CARTESIAN_POINT('',(26.125620953,10.000000000,-86.124630216));
#127 = CARTESIAN_POINT('',(17.558128981,10.000000000,-88.270675236));
#128 = CARTESIAN_POINT('',(8.821542630,10.000000000,-89.566625400));
#129 = POLY_LOOP('',(#64,#63,#62,#61,#60,#59,#58,#57,#56,#55,#54,#53,#52,#51,#50,#49,#48,#47,#46,#45,#44,#43,#42,#41,#40,#39,#38,#37,#36,#35,#34,#33,#32,#31,#30,#29,#28,#27,#26,#25,#24,#23,#22,#21,#20,#19,#18,#17,#16,#15,#14,#13,#12,#11,#10,#9,#8,#7,#6,#5,#4,#3,#2,#1));
#130 = FACE_OUTER_BOUND('',#129,.T.);
#131 = DIRECTION('',(0.000000000,-1.000000000,0.000000000));
#132 = DIRECTION('',(0.989176510,0.000000000,0.146730474));
#133 = AXIS2_PLACEMENT_3D('',#64,#131,#132);
#134 = PLANE('',#133);
#135 = FACE_SURFACE('',(#130),#134,.T.);
#136 = POLY_LOOP('',(#65,#66,#67,#68,#69,#70,#71,#72,#73,#74,#75,#76,#77,#78,#79,#80,#81,#82,#83,#84,#85,#86,#87,#88,#89,#90,#91,#92,#93,#94,#95,#96,#97,#98,#99,#100,#101,#102,#103,#104,#105,#106,#107,#108,#109,#110,#111,#112,#113,#114,#115,#116,#117,#118,#119,#120,#121,#122,#123,#124,#125,#126,#127,#128));
#137 = FACE_OUTER_BOUND('',#136,.T.);
#138 = DIRECTION('',(0.000000000,1.000000000,0.000000000));
#139 = DIRECTION('',(-0.998795456,0.000000000,0.049067674));
#140 = AXIS2_PLACEMENT_3D('',#65,#138,#139);
#141 = PLANE('',#140);
#142 = FACE_SURFACE('',(#137),#141,.T.);
#143 = POLY_LOOP('',(#1,#2,#66,#65));
#144 = FACE_OUTER_BOUND('',#143,.T.);
#145 = DIRECTION('',(-0.049067674,0.000000000,-0.998795456));
#146 = DIRECTION('',(-0.998795456,0.000000000,0.049067674));
#147 = AXIS2_PLACEMENT_3D('',#1,#145,#146);
#148 = PLANE('',#147);
#149 = FACE_SURFACE('',(#144),#148,.T.);
#150 = POLY_LOOP('',(#2,#3,#67,#66));
#151 = FACE_OUTER_BOUND('',#150,.T.);
#152 = DIRECTION('',(-0.146730474,0.000000000,-0.989176510));
#153 = DIRECTION('',(-0.989176510,0.000000000,0.146730474));
#154 = AXIS2_PLACEMENT_3D('',#2,#152,#153);
#155 = PLANE('',#154);
#156 = FACE_SURFACE('',(#151),#155,.T.);
#157 = POLY_LOOP('',(#3,#4,#68,#67));
#158 = FACE_OUTER_BOUND('',#157,.T.);
#159 = DIRECTION('',(-0.242980180,0.000000000,-0.970031253));
#160 = DIRECTION('',(-0.970031253,0.000000000,0.242980180));
#161 = AXIS2_PLACEMENT_3D('',#3,#159,#160);
#162 = PLANE('',#161);
#163 = FACE_SURFACE('',(#158),#162,.T.);
#164 = POLY_LOOP('',(#4,#5,#69,#68));
#165 = FACE_OUTER_BOUND('',#164,.T.);
#166 = DIRECTION('',(-0.336889853,0.000000000,-0.941544065));
#167 = DIRECTION('',(-0.941544065,0.000000000,0.336889853));
#168 = AXIS2_PLACEMENT_3D('',#4,#166,#167);
#169 = PLANE('',#168);
#170 = FACE_SURFACE('',(#165),#169,.T.);
#171 = POLY_LOOP('',(#5,#6,#70,#69));
#172 = FACE_OUTER_BOUND('',#171,.T.);
#173 = DIRECTION('',(-0.427555093,0.000000000,-0.903989293));
#174 = DIRECTION('',(-0.903989293,0.000000000,0.427555093));
#175 = AXIS2_PLACEMENT_3D('',#5,#173,#174);
#176 = PLANE('',#175);
#177 = FACE_SURFACE('',(#172),#176,.T.);
#178 = POLY_LOOP('',(#6,#7,#71,#70));
#179 = FACE_OUTER_BOUND('',#178,.T.);
#180 = DIRECTION('',(-0.514102744,0.000000000,-0.857728610));
#181 = DIRECTION('',(-0.857728610,0.000000000,0.514102744));
#182 = AXIS2_PLACEMENT_3D('',#6,#180,#181);
#183 = PLANE('',#182);
#184 = FACE_SURFACE('',(#179),#183,.T.);
#185 = POLY_LOOP('',(#7,#8,#72,#71));
#186 = FACE_OUTER_BOUND('',#185,.T.);
#187 = DIRECTION('',(-0.595699304,0.000000000,-0.803207531));
#188 = DIRECTION('',(-0.803207531,0.000000000,0.595699304));
#189 = AXIS2_PLACEMENT_3D('',#7,#187,#188);
#190 = PLANE('',#189);
#191 = FACE_SURFACE('',(#186),#190,.T.);
#192 = POLY_LOOP('',(#8,#9,#73,#72));
#193 = FACE_OUTER_BOUND('',#192,.T.);
#194 = DIRECTION('',(-0.671558955,0.000000000,-0.740951125));
#195 = DIRECTION('',(-0.740951125,0.000000000,0.671558955));
#196 = AXIS2_PLACEMENT_3D('',#8,#194,#195);
#197 = PLANE('',#196);
#198 = FACE_SURFACE('',(#193),#197,.T.);
#199 = POLY_LOOP('',(#9,#10,#74,#73));
#200 = FACE_OUTER_BOUND('',#199,.T.);
#201 = DIRECTION('',(-0.740951125,0.000000000,-0.671558955));
#202 = DIRECTION('',(-0.671558955,0.000000000,0.740951125));
#203 = AXIS2_PLACEMENT_3D('',#9,#201,#202);
#204 = PLANE('',#203);
#205 = FACE_SURFACE('',(#200),#204,.T.);
#206 = POLY_LOOP('',(#10,#11,#75,#74));
#207 = FACE_OUTER_BOUND('',#206,.T.);
#208 = DIRECTION('',(-0.803207531,0.000000000,-0.595699304));
#209 = DIRECTION('',(-0.595699304,0.000000000,0.803207531));
#210 = AXIS2_PLACEMENT_3D('',#10,#208,#209);
#211 = PLANE('',#210);
#212 = FACE_SURFACE('',(#207),#211,.T.);
#213 = POLY_LOOP('',(#11,#12,#76,#75));
#214 = FACE_OUTER_BOUND('',#213,.T.);
#215 = DIRECTION('',(-0.857728610,0.000000000,-0.514102744));
#216 = DIRECTION('',(-0.514102744,0.000000000,0.857728610));
#217 = AXIS2_PLACEMENT_3D('',#11,#215,#216);
#218 = PLANE('',#217);
#219 = FACE_SURFACE('',(#214),#218,.T.);
#220 = POLY_LOOP('',(#12,#13,#77,#76));
#221 = FACE_OUTER_BOUND('',#220,.T.);
#222 = DIRECTION('',(-0.903989293,0.000000000,-0.427555093));
#223 = DIRECTION('',(-0.427555093,0.000000000,0.903989293));
#224 = AXIS2_PLACEMENT_3D('',#12,#222,#223);
#225 = PLANE('',#224);
#226 = FACE_SURFACE('',(#221),#225,.T.);
#227 = POLY_LOOP('',(#13,#14,#78,#77));
#228 = FACE_OUTER_BOUND('',#227,.T.);
#229 = DIRECTION('',(-0.941544065,0.000000000,-0.336889853));
#230 = DIRECTION('',(-0.336889853,0.000000000,0.941544065));
#231 = AXIS2_PLACEMENT_3D('',#13,#229,#230);
#232 = PLANE('',#231);
#233 = FACE_SURFACE('',(#228),#232,.T.);
#234 = POLY_LOOP('',(#14,#15,#79,#78));
#235 = FACE_OUTER_BOUND('',#234,.T.);
#236 = DIRECTION('',(-0.970031253,0.000000000,-0.242980180));
#237 = DIRECTION('',(-0.242980180,0.000000000,0.970031253));
#238 = AXIS2_PLACEMENT_3D('',#14,#236,#237);
#239 = PLANE('',#238);
#240 = FACE_SURFACE('',(#235),#239,.T.);
#241 = POLY_LOOP('',(#15,#16,#80,#79));
#242 = FACE_OUTER_BOUND('',#241,.T.);
#243 = DIRECTION('',(-0.989176510,0.000000000,-0.146730474));
#244 = DIRECTION('',(-0.146730474,0.000000000,0.989176510));
#245 = AXIS2_PLACEMENT_3D('',#15,#243,#244);
#246 = PLANE('',#245);
#247 = FACE_SURFACE('',(#242),#246,.T.);
#248 = POLY_LOOP('',(#16,#17,#81,#80));
#249 = FACE_OUTER_BOUND('',#248,.T.);
#250 = DIRECTION('',(-0.998795456,0.000000000,-0.049067674));
#251 = DIRECTION('',(-0.049067674,0.000000000,0.998795456));
#252 = AXIS2_PLACEMENT_3D('',#16,#250,#251);
#253 = PLANE('',#252);
#254 = FACE_SURFACE('',(#249),#253,.T.);
#255 = POLY_LOOP('',(#17,#18,#82,#81));
#256 = FACE_OUTER_BOUND('',#255,.T.);
#257 = DIRECTION('',(-0.998795456,0.000000000,0.049067674));
#258 = DIRECTION('',(0.049067674,0.000000000,0.998795456));
#259 = AXIS2_PLACEMENT_3D('',#17,#257,#258);
#260 = PLANE('',#259);
#261 = FACE_SURFACE('',(#256),#260,.T.);
#262 = POLY_LOOP('',(#18,#19,#83,#82));
#263 = FACE_OUTER_BOUND('',#262,.T.);
#264 = DIRECTION('',(-0.989176510,0.000000000,0.146730474));
#265 = DIRECTION('',(0.146730474,0.000000000,0.989176510));
#266 = AXIS2_PLACEMENT_3D('',#18,#264,#265);
#267 = PLANE('',#266);
#268 = FACE_SURFACE('',(#263),#267,.T.);
#269 = POLY_LOOP('',(#19,#20,#84,#83));
#270 = FACE_OUTER_BOUND('',#269,.T.);
#271 = DIRECTION('',(-0.970031253,0.000000000,0.242980180));
#272 = DIRECTION('',(0.242980180,0.000000000,0.970031253));
#273 = AXIS2_PLACEMENT_3D('',#19,#271,#272);
#274 = PLANE('',#273);
#275 = FACE_SURFACE('',(#270),#274,.T.);
#276 = POLY_LOOP('',(#20,#21,#85,#84));
#277 = FACE_OUTER_BOUND('',#276,.T.);
#278 = DIRECTION('',(-0.941544065,0.000000000,0.336889853));
#279 = DIRECTION('',(0.336889853,0.000000000,0.941544065));
#280 = AXIS2_PLACEMENT_3D('',#20,#278,#279);
#281 = PLANE('',#280);
#282 = FACE_SURFACE('',(#277),#281,.T.);
#283 = POLY_LOOP('',(#21,#22,#86,#85));
#284 = FACE_OUTER_BOUND('',#283,.T.);
#285 = DIRECTION('',(-0.903989293,0.000000000,0.427555093));
#286 = DIRECTION('',(0.427555093,0.000000000,0.903989293));
#287 = AXIS2_PLACEMENT_3D('',#21,#285,#286);
#288 = PLANE('',#287);
#289 = FACE_SURFACE('',(#284),#288,.T.);
#290 = POLY_LOOP('',(#22,#23,#87,#86));
#291 = FACE_OUTER_BOUND('',#290,.T.);
#292 = DIRECTION('',(-0.857728610,0.000000000,0.514102744));
#293 = DIRECTION('',(0.514102744,0.000000000,0.857728610));
#294 = AXIS2_PLACEMENT_3D('',#22,#292,#293);
#295 = PLANE('',#294);
#296 = FACE_SURFACE('',(#291),#295,.T.);
#297 = POLY_LOOP('',(#23,#24,#88,#87));
#298 = FACE_OUTER_BOUND('',#297,.T.);
#299 = DIRECTION('',(-0.803207531,0.000000000,0.595699304));
#300 = DIRECTION('',(0.595699304,0.000000000,0.803207531));
#301 = AXIS2_PLACEMENT_3D('',#23,#299,#300);
#302 = PLANE('',#301);
#303 = FACE_SURFACE('',(#298),#302,.T.);
#304 = POLY_LOOP('',(#24,#25,#89,#88));
#305 = FACE_OUTER_BOUND('',#304,.T.);
#306 = DIRECTION('',(-0.740951125,0.000000000,0.671558955));
#307 = DIRECTION('',(0.671558955,0.000000000,0.740951125));
#308 = AXIS2_PLACEMENT_3D('',#24,#306,#307);
#309 = PLANE('',#308);
#310 = FACE_SURFACE('',(#305),#309,.T.);
#311 = POLY_LOOP('',(#25,#26,#90,#89));
#312 = FACE_OUTER_BOUND('',#311,.T.);
#313 = DIRECTION('',(-0.671558955,0.000000000,0.740951125));
#314 = DIRECTION('',(0.740951125,0.000000000,0.671558955));
#315 = AXIS2_PLACEMENT_3D('',#25,#313,#314);
#316 = PLANE('',#315);
#317 = FACE_SURFACE('',(#312),#316,.T.);
#318 = POLY_LOOP('',(#26,#27,#91,#90));
#319 = FACE_OUTER_BOUND('',#318,.T.);
#320 = DIRECTION('',(-0.595699304,0.000000000,0.803207531));
#321 = DIRECTION('',(0.803207531,0.000000000,0.595699304));
#322 = AXIS2_PLACEMENT_3D('',#26,#320,#321);
#323 = PLANE('',#322);
#324 = FACE_SURFACE('',(#319),#323,.T.);
#325 = POLY_LOOP('',(#27,#28,#92,#91));
#326 = FACE_OUTER_BOUND('',#325,.T.);
#327 = DIRECTION('',(-0.514102744,0.000000000,0.857728610));
#328 = DIRECTION('',(0.857728610,0.000000000,0.514102744));
#329 = AXIS2_PLACEMENT_3D('',#27,#327,#328);
#330 = PLANE('',#329);
#331 = FACE_SURFACE('',(#326),#330,.T.);
#332 = POLY_LOOP('',(#28,#29,#93,#92));
#333 = FACE_OUTER_BOUND('',#332,.T.);
#334 = DIRECTION('',(-0.427555093,0.000000000,0.903989293));
#335 = DIRECTION('',(0.903989293,0.000000000,0.427555093));
#336 = AXIS2_PLACEMENT_3D('',#28,#334,#335);
#337 = PLANE('',#336);
#338 = FACE_SURFACE('',(#333),#337,.T.);
#339 = POLY_LOOP('',(#29,#30,#94,#93));
#340 = FACE_OUTER_BOUND('',#339,.T.);
#341 = DIRECTION('',(-0.336889853,0.000000000,0.941544065));
#342 = DIRECTION('',(0.941544065,0.000000000,0.336889853));
#343 = AXIS2_PLACEMENT_3D('',#29,#341,#342);
#344 = PLANE('',#343);
#345 = FACE_SURFACE('',(#340),#344,.T.);
#346 = POLY_LOOP('',(#30,#31,#95,#94));
#347 = FACE_OUTER_BOUND('',#346,.T.);
#348 = DIRECTION('',(-0.242980180,0.000000000,0.970031253));
#349 = DIRECTION('',(0.970031253,0.000000000,0.242980180));
#350 = AXIS2_PLACEMENT_3D('',#30,#348,#349);
#351 = PLANE('',#350);
#352 = FACE_SURFACE('',(#347),#351,.T.);
#353 = POLY_LOOP('',(#31,#32,#96,#95));
#354 = FACE_OUTER_BOUND('',#353,.T.);
#355 = DIRECTION('',(-0.146730474,0.000000000,0.989176510));
#356 = DIRECTION('',(0.989176510,0.000000000,0.146730474));
#357 = AXIS2_PLACEMENT_3D('',#31,#355,#356);
#358 = PLANE('',#357);
#359 = FACE_SURFACE('',(#354),#358,.T.);
#360 = POLY_LOOP('',(#32,#33,#97,#96));
#361 = FACE_OUTER_BOUND('',#360,.T.);
#362 = DIRECTION('',(-0.049067674,0.000000000,0.998795456));
#363 = DIRECTION('',(0.998795456,0.000000000,0.049067674));
#364 = AXIS2_PLACEMENT_3D('',#32,#362,#363);
#365 = PLANE('',#364);
#366 = FACE_SURFACE('',(#361),#365,.T.);
#367 = POLY_LOOP('',(#33,#34,#98,#97));
#368 = FACE_OUTER_BOUND('',#367,.T.);
#369 = DIRECTION('',(0.049067674,0.000000000,0.998795456));
#370 = DIRECTION('',(0.998795456,0.000000000,-0.049067674));
#371 = AXIS2_PLACEMENT_3D('',#33,#369,#370);
#372 = PLANE('',#371);
#373 = FACE_SURFACE('',(#368),#372,.T.);
#374 = POLY_LOOP('',(#34,#35,#99,#98));
#375 = FACE_OUTER_BOUND('',#374,.T.);
#376 = DIRECTION('',(0.146730474,0.000000000,0.989176510));
#377 = DIRECTION('',(0.989176510,0.000000000,-0.146730474));
#378 = AXIS2_PLACEMENT_3D('',#34,#376,#377);
#379 = PLANE('',#378);
#380 = FACE_SURFACE('',(#375),#379,.T.);
#381 = POLY_LOOP('',(#35,#36,#100,#99));
#382 = FACE_OUTER_BOUND('',#381,.T.);
#383 = DIRECTION('',(0.242980180,0.000000000,0.970031253));
#384 = DIRECTION('',(0.970031253,0.000000000,-0.242980180));
#385 = AXIS2_PLACEMENT_3D('',#35,#383,#384);
#386 = PLANE('',#385);
#387 = FACE_SURFACE('',(#382),#386,.T.);
#388 = POLY_LOOP('',(#36,#37,#101,#100));
#389 = FACE_OUTER_BOUND('',#388,.T.);
#390 = DIRECTION('',(0.336889853,0.000000000,0.941544065));
#391 = DIRECTION('',(0.941544065,0.000000000,-0.336889853));
#392 = AXIS2_PLACEMENT_3D('',#36,#390,#391);
#393 = PLANE('',#392);
#394 = FACE_SURFACE('',(#389),#393,.T.);
#395 = POLY_LOOP('',(#37,#38,#102,#101));
#396 = FACE_OUTER_BOUND('',#395,.T.);
#397 = DIRECTION('',(0.427555093,0.000000000,0.903989293));
#398 = DIRECTION('',(0.903989293,0.000000000,-0.427555093));
#399 = AXIS2_PLACEMENT_3D('',#37,#397,#398);
#400 = PLANE('',#399);
#401 = FACE_SURFACE('',(#396),#400,.T.);
#402 = POLY_LOOP('',(#38,#39,#103,#102));
#403 = FACE_OUTER_BOUND('',#402,.T.);
#404 = DIRECTION('',(0.514102744,0.000000000,0.857728610));
#405 = DIRECTION('',(0.857728610,0.000000000,-0.514102744));
#406 = AXIS2_PLACEMENT_3D('',#38,#404,#405);
#407 = PLANE('',#406);
#408 = FACE_SURFACE('',(#403),#407,.T.);
#409 = POLY_LOOP('',(#39,#40,#104,#103));
#410 = FACE_OUTER_BOUND('',#409,.T.);
#411 = DIRECTION('',(0.595699304,0.000000000,0.803207531));
#412 = DIRECTION('',(0.803207531,0.000000000,-0.595699304));
#413 = AXIS2_PLACEMENT_3D('',#39,#411,#412);
#414 = PLANE('',#413);
#415 = FACE_SURFACE('',(#410),#414,.T.);
#416 = POLY_LOOP('',(#40,#41,#105,#104));
#417 = FACE_OUTER_BOUND('',#416,.T.);
#418 = DIRECTION('',(0.671558955,0.000000000,0.740951125));
#419 = DIRECTION('',(0.740951125,0.000000000,-0.671558955));
#420 = AXIS2_PLACEMENT_3D('',#40,#418,#419);
#421 = PLANE('',#420);
#422 = FACE_SURFACE('',(#417),#421,.T.);
#423 = POLY_LOOP('',(#41,#42,#106,#105));
#424 = FACE_OUTER_BOUND('',#423,.T.);
#425 = DIRECTION('',(0.740951125,0.000000000,0.671558955));
#426 = DIRECTION('',(0.671558955,0.000000000,-0.740951125));
#427 = AXIS2_PLACEMENT_3D('',#41,#425,#426);
#428 = PLANE('',#427);
#429 = FACE_SURFACE('',(#424),#428,.T.);
#430 = POLY_LOOP('',(#42,#43,#107,#106));
#431 = FACE_OUTER_BOUND('',#430,.T.);
#432 = DIRECTION('',(0.803207531,0.000000000,0.595699304));
#433 = DIRECTION('',(0.595699304,0.000000000,-0.803207531));
#434 = AXIS2_PLACEMENT_3D('',#42,#432,#433);
#435 = PLANE('',#434);
#436 = FACE_SURFACE('',(#431),#435,.T.);
#437 = POLY_LOOP('',(#43,#44,#108,#107));
#438 = FACE_OUTER_BOUND('',#437,.T.);
#439 = DIRECTION('',(0.857728610,0.000000000,0.514102744));
#440 = DIRECTION('',(0.514102744,0.000000000,-0.857728610));
#441 = AXIS2_PLACEMENT_3D('',#43,#439,#440);
#442 = PLANE('',#441);
#443 = FACE_SURFACE('',(#438),#442,.T.);
#444 = POLY_LOOP('',(#44,#45,#109,#108));
#445 = FACE_OUTER_BOUND('',#444,.T.);
#446 = DIRECTION('',(0.903989293,0.000000000,0.427555093));
#447 = DIRECTION('',(0.427555093,0.000000000,-0.903989293));
#448 = AXIS2_PLACEMENT_3D('',#44,#446,#447);
#449 = PLANE('',#448);
#450 = FACE_SURFACE('',(#445),#449,.T.);
#451 = POLY_LOOP('',(#45,#46,#110,#109));
#452 = FACE_OUTER_BOUND('',#451,.T.);
#453 = DIRECTION('',(0.941544065,0.000000000,0.336889853));
#454 = DIRECTION('',(0.336889853,0.000000000,-0.941544065));
#455 = AXIS2_PLACEMENT_3D('',#45,#453,#454);
#456 = PLANE('',#455);
#457 = FACE_SURFACE('',(#452),#456,.T.);
#458 = POLY_LOOP('',(#46,#47,#111,#110));
#459 = FACE_OUTER_BOUND('',#458,.T.);
#460 = DIRECTION('',(0.970031253,0.000000000,0.242980180));
#461 = DIRECTION('',(0.242980180,0.000000000,-0.970031253));
#462 = AXIS2_PLACEMENT_3D('',#46,#460,#461);
#463 = PLANE('',#462);
#464 = FACE_SURFACE('',(#459),#463,.T.);
#465 = POLY_LOOP('',(#47,#48,#112,#111));
#466 = FACE_OUTER_BOUND('',#465,.T.);
#467 = DIRECTION('',(0.989176510,0.000000000,0.146730474));
#468 = DIRECTION('',(0.146730474,0.000000000,-0.989176510));
#469 = AXIS2_PLACEMENT_3D('',#47,#467,#468);
#470 = PLANE('',#469);
#471 = FACE_SURFACE('',(#466),#470,.T.);
#472 = POLY_LOOP('',(#48,#49,#113,#112));
#473 = FACE_OUTER_BOUND('',#472,.T.);
#474 = DIRECTION('',(0.998795456,0.000000000,0.049067674));
#475 = DIRECTION('',(0.049067674,0.000000000,-0.998795456));
#476 = AXIS2_PLACEMENT_3D('',#48,#474,#475);
#477 = PLANE('',#476);
#478 = FACE_SURFACE('',(#473),#477,.T.);
#479 = POLY_LOOP('',(#49,#50,#114,#113));
#480 = FACE_OUTER_BOUND('',#479,.T.);
#481 = DIRECTION('',(0.998795456,0.000000000,-0.049067674));
#482 = DIRECTION('',(-0.049067674,0.000000000,-0.998795456));
#483 = AXIS2_PLACEMENT_3D('',#49,#481,#482);
#484 = PLANE('',#483);
#485 = FACE_SURFACE('',(#480),#484,.T.);
#486 = POLY_LOOP('',(#50,#51,#115,#114));
#487 = FACE_OUTER_BOUND('',#486,.T.);
#488 = DIRECTION('',(0.989176510,0.000000000,-0.146730474));
#489 = DIRECTION('',(-0.146730474,0.000000000,-0.989176510));
#490 = AXIS2_PLACEMENT_3D('',#50,#488,#489);
#491 = PLANE('',#490);
#492 = FACE_SURFACE('',(#487),#491,.T.);
#493 = POLY_LOOP('',(#51,#52,#116,#115));
#494 = FACE_OUTER_BOUND('',#493,.T.);
#495 = DIRECTION('',(0.970031253,0.000000000,-0.242980180));
#496 = DIRECTION('',(-0.242980180,0.000000000,-0.970031253));
#497 = AXIS2_PLACEMENT_3D('',#51,#495,#496);
#498 = PLANE('',#497);
#499 = FACE_SURFACE('',(#494),#498,.T.);
#500 = POLY_LOOP('',(#52,#53,#117,#116));
#501 = FACE_OUTER_BOUND('',#500,.T.);
#502 = DIRECTION('',(0.941544065,0.000000000,-0.336889853));
#503 = DIRECTION('',(-0.336889853,0.000000000,-0.941544065));
#504 = AXIS2_PLACEMENT_3D('',#52,#502,#503);
#505 = PLANE('',#504);
#506 = FACE_SURFACE('',(#501),#505,.T.);
#507 = POLY_LOOP('',(#53,#54,#118,#117));
#508 = FACE_OUTER_BOUND('',#507,.T.);
#509 = DIRECTION('',(0.903989293,0.000000000,-0.427555093));
#510 = DIRECTION('',(-0.427555093,0.000000000,-0.903989293));
#511 = AXIS2_PLACEMENT_3D('',#53,#509,#510);
#512 = PLANE('',#511);
#513 = FACE_SURFACE('',(#508),#512,.T.);
#514 = POLY_LOOP('',(#54,#55,#119,#118));
#515 = FACE_OUTER_BOUND('',#514,.T.);
#516 = DIRECTION('',(0.857728610,0.000000000,-0.514102744));
#517 = DIRECTION('',(-0.514102744,0.000000000,-0.857728610));
#518 = AXIS2_PLACEMENT_3D('',#54,#516,#517);
#519 = PLANE('',#518);
#520 = FACE_SURFACE('',(#515),#519,.T.);
#521 = POLY_LOOP('',(#55,#56,#120,#119));
#522 = FACE_OUTER_BOUND('',#521,.T.);
#523 = DIRECTION('',(0.803207531,0.000000000,-0.595699304));
#524 = DIRECTION('',(-0.595699304,0.000000000,-0.803207531));
#525 = AXIS2_PLACEMENT_3D('',#55,#523,#524);
#526 = PLANE('',#525);
#527 = FACE_SURFACE('',(#522),#526,.T.);
#528 = POLY_LOOP('',(#56,#57,#121,#120));
#529 = FACE_OUTER_BOUND('',#528,.T.);
#530 = DIRECTION('',(0.740951125,0.000000000,-0.671558955));
#531 = DIRECTION('',(-0.671558955,0.000000000,-0.740951125));
#532 = AXIS2_PLACEMENT_3D('',#56,#530,#531);
#533 = PLANE('',#532);
#534 = FACE_SURFACE('',(#529),#533,.T.);
#535 = POLY_LOOP('',(#57,#58,#122,#121));
#536 = FACE_OUTER_BOUND('',#535,.T.);
#537 = DIRECTION('',(0.671558955,0.000000000,-0.740951125));
#538 = DIRECTION('',(-0.740951125,0.000000000,-0.671558955));
#539 = AXIS2_PLACEMENT_3D('',#57,#537,#538);
#540 = PLANE('',#539);
#541 = FACE_SURFACE('',(#536),#540,.T.);
#542 = POLY_LOOP('',(#58,#59,#123,#122));
#543 = FACE_OUTER_BOUND('',#542,.T.);
#544 = DIRECTION('',(0.595699304,0.000000000,-0.803207531));
#545 = DIRECTION('',(-0.803207531,0.000000000,-0.595699304));
#546 = AXIS2_PLACEMENT_3D('',#58,#544,#545);
#547 = PLANE('',#546);
#548 = FACE_SURFACE('',(#543),#547,.T.);
#549 = POLY_LOOP('',(#59,#60,#124,#123));
#550 = FACE_OUTER_BOUND('',#549,.T.);
#551 = DIRECTION('',(0.514102744,0.000000000,-0.857728610));
#552 = DIRECTION('',(-0.857728610,0.000000000,-0.514102744));
#553 = AXIS2_PLACEMENT_3D('',#59,#551,#552);
#554 = PLANE('',#553);
#555 = FACE_SURFACE('',(#550),#554,.T.);
#556 = POLY_LOOP('',(#60,#61,#125,#124));
#557 = FACE_OUTER_BOUND('',#556,.T.);
#558 = DIRECTION('',(0.427555093,0.000000000,-0.903989293));
#559 = DIRECTION('',(-0.903989293,0.000000000,-0.427555093));
#560 = AXIS2_PLACEMENT_3D('',#60,#558,#559);
#561 = PLANE('',#560);
#562 = FACE_SURFACE('',(#557),#561,.T.);
#563 = POLY_LOOP('',(#61,#62,#126,#125));
#564 = FACE_OUTER_BOUND('',#563,.T.);
#565 = DIRECTION('',(0.336889853,0.000000000,-0.941544065));
#566 = DIRECTION('',(-0.941544065,0.000000000,-0.336889853));
#567 = AXIS2_PLACEMENT_3D('',#61,#565,#566);
#568 = PLANE('',#567);
#569 = FACE_SURFACE('',(#564),#568,.T.);
#570 = POLY_LOOP('',(#62,#63,#127,#126));
#571 = FACE_OUTER_BOUND('',#570,.T.);
#572 = DIRECTION('',(0.242980180,0.000000000,-0.970031253));
#573 = DIRECTION('',(-0.970031253,0.000000000,-0.242980180));
#574 = AXIS2_PLACEMENT_3D('',#62,#572,#573);
#575 = PLANE('',#574);
#576 = FACE_SURFACE('',(#571),#575,.T.);
#577 = POLY_LOOP('',(#63,#64,#128,#127));
#578 = FACE_OUTER_BOUND('',#577,.T.);
#579 = DIRECTION('',(0.146730474,0.000000000,-0.989176510));
#580 = DIRECTION('',(-0.989176510,0.000000000,-0.146730474));
#581 = AXIS2_PLACEMENT_3D('',#63,#579,#580);
#582 = PLANE('',#581);
#583 = FACE_SURFACE('',(#578),#582,.T.);
#584 = POLY_LOOP('',(#64,#1,#65,#128));
#585 = FACE_OUTER_BOUND('',#584,.T.);
#586 = DIRECTION('',(0.049067674,0.000000000,-0.998795456));
#587 = DIRECTION('',(-0.998795456,0.000000000,-0.049067674));
#588 = AXIS2_PLACEMENT_3D('',#64,#586,#587);
#589 = PLANE('',#588);
#590 = FACE_SURFACE('',(#585),#589,.T.);
#591 = CLOSED_SHELL('',(#135,#142,#149,#156,#163,#170,#177,#184,#191,#198,#205,#212,#219,#226,#233,#240,#247,#254,#261,#268,#275,#282,#289,#296,#303,#310,#317,#324,#331,#338,#345,#352,#359,#366,#373,#380,#387,#394,#401,#408,#415,#422,#429,#436,#443,#450,#457,#464,#471,#478,#485,#492,#499,#506,#513,#520,#527,#534,#541,#548,#555,#562,#569,#576,#583,#590));
#592 = FACETED_BREP('black printed wafer holder',#591);
#593 = CARTESIAN_POINT('',(0.000000000,10.000000000,-76.000000000));
#594 = CARTESIAN_POINT('',(-7.449302665,10.000000000,-75.634039227));
#595 = CARTESIAN_POINT('',(-14.826864473,10.000000000,-74.539681311));
#596 = CARTESIAN_POINT('',(-22.061635471,10.000000000,-72.727465516));
#597 = CARTESIAN_POINT('',(-29.083940860,10.000000000,-70.214844471));
#598 = CARTESIAN_POINT('',(-35.826151999,10.000000000,-67.026016090));
#599 = CARTESIAN_POINT('',(-42.223337709,10.000000000,-63.191690535));
#600 = CARTESIAN_POINT('',(-48.213889596,10.000000000,-58.748794456));
#601 = CARTESIAN_POINT('',(-53.740115370,10.000000000,-53.740115370));
#602 = CARTESIAN_POINT('',(-58.748794456,10.000000000,-48.213889596));
#603 = CARTESIAN_POINT('',(-63.191690535,10.000000000,-42.223337709));
#604 = CARTESIAN_POINT('',(-67.026016090,10.000000000,-35.826151999));
#605 = CARTESIAN_POINT('',(-70.214844471,10.000000000,-29.083940860));
#606 = CARTESIAN_POINT('',(-72.727465516,10.000000000,-22.061635471));
#607 = CARTESIAN_POINT('',(-74.539681311,10.000000000,-14.826864473));
#608 = CARTESIAN_POINT('',(-75.634039227,10.000000000,-7.449302665));
#609 = CARTESIAN_POINT('',(-76.000000000,10.000000000,-0.000000000));
#610 = CARTESIAN_POINT('',(-75.634039227,10.000000000,7.449302665));
#611 = CARTESIAN_POINT('',(-74.539681311,10.000000000,14.826864473));
#612 = CARTESIAN_POINT('',(-72.727465516,10.000000000,22.061635471));
#613 = CARTESIAN_POINT('',(-70.214844471,10.000000000,29.083940860));
#614 = CARTESIAN_POINT('',(-67.026016090,10.000000000,35.826151999));
#615 = CARTESIAN_POINT('',(-63.191690535,10.000000000,42.223337709));
#616 = CARTESIAN_POINT('',(-58.748794456,10.000000000,48.213889596));
#617 = CARTESIAN_POINT('',(-53.740115370,10.000000000,53.740115370));
#618 = CARTESIAN_POINT('',(-48.213889596,10.000000000,58.748794456));
#619 = CARTESIAN_POINT('',(-42.223337709,10.000000000,63.191690535));
#620 = CARTESIAN_POINT('',(-35.826151999,10.000000000,67.026016090));
#621 = CARTESIAN_POINT('',(-29.083940860,10.000000000,70.214844471));
#622 = CARTESIAN_POINT('',(-22.061635471,10.000000000,72.727465516));
#623 = CARTESIAN_POINT('',(-14.826864473,10.000000000,74.539681311));
#624 = CARTESIAN_POINT('',(-7.449302665,10.000000000,75.634039227));
#625 = CARTESIAN_POINT('',(-0.000000000,10.000000000,76.000000000));
#626 = CARTESIAN_POINT('',(7.449302665,10.000000000,75.634039227));
#627 = CARTESIAN_POINT('',(14.826864473,10.000000000,74.539681311));
#628 = CARTESIAN_POINT('',(22.061635471,10.000000000,72.727465516));
#629 = CARTESIAN_POINT('',(29.083940860,10.000000000,70.214844471));
#630 = CARTESIAN_POINT('',(35.826151999,10.000000000,67.026016090));
#631 = CARTESIAN_POINT('',(42.223337709,10.000000000,63.191690535));
#632 = CARTESIAN_POINT('',(48.213889596,10.000000000,58.748794456));
#633 = CARTESIAN_POINT('',(53.740115370,10.000000000,53.740115370));
#634 = CARTESIAN_POINT('',(58.748794456,10.000000000,48.213889596));
#635 = CARTESIAN_POINT('',(63.191690535,10.000000000,42.223337709));
#636 = CARTESIAN_POINT('',(67.026016090,10.000000000,35.826151999));
#637 = CARTESIAN_POINT('',(70.214844471,10.000000000,29.083940860));
#638 = CARTESIAN_POINT('',(72.727465516,10.000000000,22.061635471));
#639 = CARTESIAN_POINT('',(74.539681311,10.000000000,14.826864473));
#640 = CARTESIAN_POINT('',(75.634039227,10.000000000,7.449302665));
#641 = CARTESIAN_POINT('',(76.000000000,10.000000000,0.000000000));
#642 = CARTESIAN_POINT('',(75.634039227,10.000000000,-7.449302665));
#643 = CARTESIAN_POINT('',(74.539681311,10.000000000,-14.826864473));
#644 = CARTESIAN_POINT('',(72.727465516,10.000000000,-22.061635471));
#645 = CARTESIAN_POINT('',(70.214844471,10.000000000,-29.083940860));
#646 = CARTESIAN_POINT('',(67.026016090,10.000000000,-35.826151999));
#647 = CARTESIAN_POINT('',(63.191690535,10.000000000,-42.223337709));
#648 = CARTESIAN_POINT('',(58.748794456,10.000000000,-48.213889596));
#649 = CARTESIAN_POINT('',(53.740115370,10.000000000,-53.740115370));
#650 = CARTESIAN_POINT('',(48.213889596,10.000000000,-58.748794456));
#651 = CARTESIAN_POINT('',(42.223337709,10.000000000,-63.191690535));
#652 = CARTESIAN_POINT('',(35.826151999,10.000000000,-67.026016090));
#653 = CARTESIAN_POINT('',(29.083940860,10.000000000,-70.214844471));
#654 = CARTESIAN_POINT('',(22.061635471,10.000000000,-72.727465516));
#655 = CARTESIAN_POINT('',(14.826864473,10.000000000,-74.539681311));
#656 = CARTESIAN_POINT('',(7.449302665,10.000000000,-75.634039227));
#657 = CARTESIAN_POINT('',(0.000000000,11.000000000,-76.000000000));
#658 = CARTESIAN_POINT('',(-7.449302665,11.000000000,-75.634039227));
#659 = CARTESIAN_POINT('',(-14.826864473,11.000000000,-74.539681311));
#660 = CARTESIAN_POINT('',(-22.061635471,11.000000000,-72.727465516));
#661 = CARTESIAN_POINT('',(-29.083940860,11.000000000,-70.214844471));
#662 = CARTESIAN_POINT('',(-35.826151999,11.000000000,-67.026016090));
#663 = CARTESIAN_POINT('',(-42.223337709,11.000000000,-63.191690535));
#664 = CARTESIAN_POINT('',(-48.213889596,11.000000000,-58.748794456));
#665 = CARTESIAN_POINT('',(-53.740115370,11.000000000,-53.740115370));
#666 = CARTESIAN_POINT('',(-58.748794456,11.000000000,-48.213889596));
#667 = CARTESIAN_POINT('',(-63.191690535,11.000000000,-42.223337709));
#668 = CARTESIAN_POINT('',(-67.026016090,11.000000000,-35.826151999));
#669 = CARTESIAN_POINT('',(-70.214844471,11.000000000,-29.083940860));
#670 = CARTESIAN_POINT('',(-72.727465516,11.000000000,-22.061635471));
#671 = CARTESIAN_POINT('',(-74.539681311,11.000000000,-14.826864473));
#672 = CARTESIAN_POINT('',(-75.634039227,11.000000000,-7.449302665));
#673 = CARTESIAN_POINT('',(-76.000000000,11.000000000,-0.000000000));
#674 = CARTESIAN_POINT('',(-75.634039227,11.000000000,7.449302665));
#675 = CARTESIAN_POINT('',(-74.539681311,11.000000000,14.826864473));
#676 = CARTESIAN_POINT('',(-72.727465516,11.000000000,22.061635471));
#677 = CARTESIAN_POINT('',(-70.214844471,11.000000000,29.083940860));
#678 = CARTESIAN_POINT('',(-67.026016090,11.000000000,35.826151999));
#679 = CARTESIAN_POINT('',(-63.191690535,11.000000000,42.223337709));
#680 = CARTESIAN_POINT('',(-58.748794456,11.000000000,48.213889596));
#681 = CARTESIAN_POINT('',(-53.740115370,11.000000000,53.740115370));
#682 = CARTESIAN_POINT('',(-48.213889596,11.000000000,58.748794456));
#683 = CARTESIAN_POINT('',(-42.223337709,11.000000000,63.191690535));
#684 = CARTESIAN_POINT('',(-35.826151999,11.000000000,67.026016090));
#685 = CARTESIAN_POINT('',(-29.083940860,11.000000000,70.214844471));
#686 = CARTESIAN_POINT('',(-22.061635471,11.000000000,72.727465516));
#687 = CARTESIAN_POINT('',(-14.826864473,11.000000000,74.539681311));
#688 = CARTESIAN_POINT('',(-7.449302665,11.000000000,75.634039227));
#689 = CARTESIAN_POINT('',(-0.000000000,11.000000000,76.000000000));
#690 = CARTESIAN_POINT('',(7.449302665,11.000000000,75.634039227));
#691 = CARTESIAN_POINT('',(14.826864473,11.000000000,74.539681311));
#692 = CARTESIAN_POINT('',(22.061635471,11.000000000,72.727465516));
#693 = CARTESIAN_POINT('',(29.083940860,11.000000000,70.214844471));
#694 = CARTESIAN_POINT('',(35.826151999,11.000000000,67.026016090));
#695 = CARTESIAN_POINT('',(42.223337709,11.000000000,63.191690535));
#696 = CARTESIAN_POINT('',(48.213889596,11.000000000,58.748794456));
#697 = CARTESIAN_POINT('',(53.740115370,11.000000000,53.740115370));
#698 = CARTESIAN_POINT('',(58.748794456,11.000000000,48.213889596));
#699 = CARTESIAN_POINT('',(63.191690535,11.000000000,42.223337709));
#700 = CARTESIAN_POINT('',(67.026016090,11.000000000,35.826151999));
#701 = CARTESIAN_POINT('',(70.214844471,11.000000000,29.083940860));
#702 = CARTESIAN_POINT('',(72.727465516,11.000000000,22.061635471));
#703 = CARTESIAN_POINT('',(74.539681311,11.000000000,14.826864473));
#704 = CARTESIAN_POINT('',(75.634039227,11.000000000,7.449302665));
#705 = CARTESIAN_POINT('',(76.000000000,11.000000000,0.000000000));
#706 = CARTESIAN_POINT('',(75.634039227,11.000000000,-7.449302665));
#707 = CARTESIAN_POINT('',(74.539681311,11.000000000,-14.826864473));
#708 = CARTESIAN_POINT('',(72.727465516,11.000000000,-22.061635471));
#709 = CARTESIAN_POINT('',(70.214844471,11.000000000,-29.083940860));
#710 = CARTESIAN_POINT('',(67.026016090,11.000000000,-35.826151999));
#711 = CARTESIAN_POINT('',(63.191690535,11.000000000,-42.223337709));
#712 = CARTESIAN_POINT('',(58.748794456,11.000000000,-48.213889596));
#713 = CARTESIAN_POINT('',(53.740115370,11.000000000,-53.740115370));
#714 = CARTESIAN_POINT('',(48.213889596,11.000000000,-58.748794456));
#715 = CARTESIAN_POINT('',(42.223337709,11.000000000,-63.191690535));
#716 = CARTESIAN_POINT('',(35.826151999,11.000000000,-67.026016090));
#717 = CARTESIAN_POINT('',(29.083940860,11.000000000,-70.214844471));
#718 = CARTESIAN_POINT('',(22.061635471,11.000000000,-72.727465516));
#719 = CARTESIAN_POINT('',(14.826864473,11.000000000,-74.539681311));
#720 = CARTESIAN_POINT('',(7.449302665,11.000000000,-75.634039227));
#721 = POLY_LOOP('',(#656,#655,#654,#653,#652,#651,#650,#649,#648,#647,#646,#645,#644,#643,#642,#641,#640,#639,#638,#637,#636,#635,#634,#633,#632,#631,#630,#629,#628,#627,#626,#625,#624,#623,#622,#621,#620,#619,#618,#617,#616,#615,#614,#613,#612,#611,#610,#609,#608,#607,#606,#605,#604,#603,#602,#601,#600,#599,#598,#597,#596,#595,#594,#593));
#722 = FACE_OUTER_BOUND('',#721,.T.);
#723 = DIRECTION('',(0.000000000,-1.000000000,0.000000000));
#724 = DIRECTION('',(0.989176510,0.000000000,0.146730474));
#725 = AXIS2_PLACEMENT_3D('',#656,#723,#724);
#726 = PLANE('',#725);
#727 = FACE_SURFACE('',(#722),#726,.T.);
#728 = POLY_LOOP('',(#657,#658,#659,#660,#661,#662,#663,#664,#665,#666,#667,#668,#669,#670,#671,#672,#673,#674,#675,#676,#677,#678,#679,#680,#681,#682,#683,#684,#685,#686,#687,#688,#689,#690,#691,#692,#693,#694,#695,#696,#697,#698,#699,#700,#701,#702,#703,#704,#705,#706,#707,#708,#709,#710,#711,#712,#713,#714,#715,#716,#717,#718,#719,#720));
#729 = FACE_OUTER_BOUND('',#728,.T.);
#730 = DIRECTION('',(0.000000000,1.000000000,0.000000000));
#731 = DIRECTION('',(-0.998795456,0.000000000,0.049067674));
#732 = AXIS2_PLACEMENT_3D('',#657,#730,#731);
#733 = PLANE('',#732);
#734 = FACE_SURFACE('',(#729),#733,.T.);
#735 = POLY_LOOP('',(#593,#594,#658,#657));
#736 = FACE_OUTER_BOUND('',#735,.T.);
#737 = DIRECTION('',(-0.049067674,0.000000000,-0.998795456));
#738 = DIRECTION('',(-0.998795456,0.000000000,0.049067674));
#739 = AXIS2_PLACEMENT_3D('',#593,#737,#738);
#740 = PLANE('',#739);
#741 = FACE_SURFACE('',(#736),#740,.T.);
#742 = POLY_LOOP('',(#594,#595,#659,#658));
#743 = FACE_OUTER_BOUND('',#742,.T.);
#744 = DIRECTION('',(-0.146730474,0.000000000,-0.989176510));
#745 = DIRECTION('',(-0.989176510,0.000000000,0.146730474));
#746 = AXIS2_PLACEMENT_3D('',#594,#744,#745);
#747 = PLANE('',#746);
#748 = FACE_SURFACE('',(#743),#747,.T.);
#749 = POLY_LOOP('',(#595,#596,#660,#659));
#750 = FACE_OUTER_BOUND('',#749,.T.);
#751 = DIRECTION('',(-0.242980180,0.000000000,-0.970031253));
#752 = DIRECTION('',(-0.970031253,0.000000000,0.242980180));
#753 = AXIS2_PLACEMENT_3D('',#595,#751,#752);
#754 = PLANE('',#753);
#755 = FACE_SURFACE('',(#750),#754,.T.);
#756 = POLY_LOOP('',(#596,#597,#661,#660));
#757 = FACE_OUTER_BOUND('',#756,.T.);
#758 = DIRECTION('',(-0.336889853,0.000000000,-0.941544065));
#759 = DIRECTION('',(-0.941544065,0.000000000,0.336889853));
#760 = AXIS2_PLACEMENT_3D('',#596,#758,#759);
#761 = PLANE('',#760);
#762 = FACE_SURFACE('',(#757),#761,.T.);
#763 = POLY_LOOP('',(#597,#598,#662,#661));
#764 = FACE_OUTER_BOUND('',#763,.T.);
#765 = DIRECTION('',(-0.427555093,0.000000000,-0.903989293));
#766 = DIRECTION('',(-0.903989293,0.000000000,0.427555093));
#767 = AXIS2_PLACEMENT_3D('',#597,#765,#766);
#768 = PLANE('',#767);
#769 = FACE_SURFACE('',(#764),#768,.T.);
#770 = POLY_LOOP('',(#598,#599,#663,#662));
#771 = FACE_OUTER_BOUND('',#770,.T.);
#772 = DIRECTION('',(-0.514102744,0.000000000,-0.857728610));
#773 = DIRECTION('',(-0.857728610,0.000000000,0.514102744));
#774 = AXIS2_PLACEMENT_3D('',#598,#772,#773);
#775 = PLANE('',#774);
#776 = FACE_SURFACE('',(#771),#775,.T.);
#777 = POLY_LOOP('',(#599,#600,#664,#663));
#778 = FACE_OUTER_BOUND('',#777,.T.);
#779 = DIRECTION('',(-0.595699304,0.000000000,-0.803207531));
#780 = DIRECTION('',(-0.803207531,0.000000000,0.595699304));
#781 = AXIS2_PLACEMENT_3D('',#599,#779,#780);
#782 = PLANE('',#781);
#783 = FACE_SURFACE('',(#778),#782,.T.);
#784 = POLY_LOOP('',(#600,#601,#665,#664));
#785 = FACE_OUTER_BOUND('',#784,.T.);
#786 = DIRECTION('',(-0.671558955,0.000000000,-0.740951125));
#787 = DIRECTION('',(-0.740951125,0.000000000,0.671558955));
#788 = AXIS2_PLACEMENT_3D('',#600,#786,#787);
#789 = PLANE('',#788);
#790 = FACE_SURFACE('',(#785),#789,.T.);
#791 = POLY_LOOP('',(#601,#602,#666,#665));
#792 = FACE_OUTER_BOUND('',#791,.T.);
#793 = DIRECTION('',(-0.740951125,0.000000000,-0.671558955));
#794 = DIRECTION('',(-0.671558955,0.000000000,0.740951125));
#795 = AXIS2_PLACEMENT_3D('',#601,#793,#794);
#796 = PLANE('',#795);
#797 = FACE_SURFACE('',(#792),#796,.T.);
#798 = POLY_LOOP('',(#602,#603,#667,#666));
#799 = FACE_OUTER_BOUND('',#798,.T.);
#800 = DIRECTION('',(-0.803207531,0.000000000,-0.595699304));
#801 = DIRECTION('',(-0.595699304,0.000000000,0.803207531));
#802 = AXIS2_PLACEMENT_3D('',#602,#800,#801);
#803 = PLANE('',#802);
#804 = FACE_SURFACE('',(#799),#803,.T.);
#805 = POLY_LOOP('',(#603,#604,#668,#667));
#806 = FACE_OUTER_BOUND('',#805,.T.);
#807 = DIRECTION('',(-0.857728610,0.000000000,-0.514102744));
#808 = DIRECTION('',(-0.514102744,0.000000000,0.857728610));
#809 = AXIS2_PLACEMENT_3D('',#603,#807,#808);
#810 = PLANE('',#809);
#811 = FACE_SURFACE('',(#806),#810,.T.);
#812 = POLY_LOOP('',(#604,#605,#669,#668));
#813 = FACE_OUTER_BOUND('',#812,.T.);
#814 = DIRECTION('',(-0.903989293,0.000000000,-0.427555093));
#815 = DIRECTION('',(-0.427555093,0.000000000,0.903989293));
#816 = AXIS2_PLACEMENT_3D('',#604,#814,#815);
#817 = PLANE('',#816);
#818 = FACE_SURFACE('',(#813),#817,.T.);
#819 = POLY_LOOP('',(#605,#606,#670,#669));
#820 = FACE_OUTER_BOUND('',#819,.T.);
#821 = DIRECTION('',(-0.941544065,0.000000000,-0.336889853));
#822 = DIRECTION('',(-0.336889853,0.000000000,0.941544065));
#823 = AXIS2_PLACEMENT_3D('',#605,#821,#822);
#824 = PLANE('',#823);
#825 = FACE_SURFACE('',(#820),#824,.T.);
#826 = POLY_LOOP('',(#606,#607,#671,#670));
#827 = FACE_OUTER_BOUND('',#826,.T.);
#828 = DIRECTION('',(-0.970031253,0.000000000,-0.242980180));
#829 = DIRECTION('',(-0.242980180,0.000000000,0.970031253));
#830 = AXIS2_PLACEMENT_3D('',#606,#828,#829);
#831 = PLANE('',#830);
#832 = FACE_SURFACE('',(#827),#831,.T.);
#833 = POLY_LOOP('',(#607,#608,#672,#671));
#834 = FACE_OUTER_BOUND('',#833,.T.);
#835 = DIRECTION('',(-0.989176510,0.000000000,-0.146730474));
#836 = DIRECTION('',(-0.146730474,0.000000000,0.989176510));
#837 = AXIS2_PLACEMENT_3D('',#607,#835,#836);
#838 = PLANE('',#837);
#839 = FACE_SURFACE('',(#834),#838,.T.);
#840 = POLY_LOOP('',(#608,#609,#673,#672));
#841 = FACE_OUTER_BOUND('',#840,.T.);
#842 = DIRECTION('',(-0.998795456,0.000000000,-0.049067674));
#843 = DIRECTION('',(-0.049067674,0.000000000,0.998795456));
#844 = AXIS2_PLACEMENT_3D('',#608,#842,#843);
#845 = PLANE('',#844);
#846 = FACE_SURFACE('',(#841),#845,.T.);
#847 = POLY_LOOP('',(#609,#610,#674,#673));
#848 = FACE_OUTER_BOUND('',#847,.T.);
#849 = DIRECTION('',(-0.998795456,0.000000000,0.049067674));
#850 = DIRECTION('',(0.049067674,0.000000000,0.998795456));
#851 = AXIS2_PLACEMENT_3D('',#609,#849,#850);
#852 = PLANE('',#851);
#853 = FACE_SURFACE('',(#848),#852,.T.);
#854 = POLY_LOOP('',(#610,#611,#675,#674));
#855 = FACE_OUTER_BOUND('',#854,.T.);
#856 = DIRECTION('',(-0.989176510,0.000000000,0.146730474));
#857 = DIRECTION('',(0.146730474,0.000000000,0.989176510));
#858 = AXIS2_PLACEMENT_3D('',#610,#856,#857);
#859 = PLANE('',#858);
#860 = FACE_SURFACE('',(#855),#859,.T.);
#861 = POLY_LOOP('',(#611,#612,#676,#675));
#862 = FACE_OUTER_BOUND('',#861,.T.);
#863 = DIRECTION('',(-0.970031253,0.000000000,0.242980180));
#864 = DIRECTION('',(0.242980180,0.000000000,0.970031253));
#865 = AXIS2_PLACEMENT_3D('',#611,#863,#864);
#866 = PLANE('',#865);
#867 = FACE_SURFACE('',(#862),#866,.T.);
#868 = POLY_LOOP('',(#612,#613,#677,#676));
#869 = FACE_OUTER_BOUND('',#868,.T.);
#870 = DIRECTION('',(-0.941544065,0.000000000,0.336889853));
#871 = DIRECTION('',(0.336889853,0.000000000,0.941544065));
#872 = AXIS2_PLACEMENT_3D('',#612,#870,#871);
#873 = PLANE('',#872);
#874 = FACE_SURFACE('',(#869),#873,.T.);
#875 = POLY_LOOP('',(#613,#614,#678,#677));
#876 = FACE_OUTER_BOUND('',#875,.T.);
#877 = DIRECTION('',(-0.903989293,0.000000000,0.427555093));
#878 = DIRECTION('',(0.427555093,0.000000000,0.903989293));
#879 = AXIS2_PLACEMENT_3D('',#613,#877,#878);
#880 = PLANE('',#879);
#881 = FACE_SURFACE('',(#876),#880,.T.);
#882 = POLY_LOOP('',(#614,#615,#679,#678));
#883 = FACE_OUTER_BOUND('',#882,.T.);
#884 = DIRECTION('',(-0.857728610,0.000000000,0.514102744));
#885 = DIRECTION('',(0.514102744,0.000000000,0.857728610));
#886 = AXIS2_PLACEMENT_3D('',#614,#884,#885);
#887 = PLANE('',#886);
#888 = FACE_SURFACE('',(#883),#887,.T.);
#889 = POLY_LOOP('',(#615,#616,#680,#679));
#890 = FACE_OUTER_BOUND('',#889,.T.);
#891 = DIRECTION('',(-0.803207531,0.000000000,0.595699304));
#892 = DIRECTION('',(0.595699304,0.000000000,0.803207531));
#893 = AXIS2_PLACEMENT_3D('',#615,#891,#892);
#894 = PLANE('',#893);
#895 = FACE_SURFACE('',(#890),#894,.T.);
#896 = POLY_LOOP('',(#616,#617,#681,#680));
#897 = FACE_OUTER_BOUND('',#896,.T.);
#898 = DIRECTION('',(-0.740951125,0.000000000,0.671558955));
#899 = DIRECTION('',(0.671558955,0.000000000,0.740951125));
#900 = AXIS2_PLACEMENT_3D('',#616,#898,#899);
#901 = PLANE('',#900);
#902 = FACE_SURFACE('',(#897),#901,.T.);
#903 = POLY_LOOP('',(#617,#618,#682,#681));
#904 = FACE_OUTER_BOUND('',#903,.T.);
#905 = DIRECTION('',(-0.671558955,0.000000000,0.740951125));
#906 = DIRECTION('',(0.740951125,0.000000000,0.671558955));
#907 = AXIS2_PLACEMENT_3D('',#617,#905,#906);
#908 = PLANE('',#907);
#909 = FACE_SURFACE('',(#904),#908,.T.);
#910 = POLY_LOOP('',(#618,#619,#683,#682));
#911 = FACE_OUTER_BOUND('',#910,.T.);
#912 = DIRECTION('',(-0.595699304,0.000000000,0.803207531));
#913 = DIRECTION('',(0.803207531,0.000000000,0.595699304));
#914 = AXIS2_PLACEMENT_3D('',#618,#912,#913);
#915 = PLANE('',#914);
#916 = FACE_SURFACE('',(#911),#915,.T.);
#917 = POLY_LOOP('',(#619,#620,#684,#683));
#918 = FACE_OUTER_BOUND('',#917,.T.);
#919 = DIRECTION('',(-0.514102744,0.000000000,0.857728610));
#920 = DIRECTION('',(0.857728610,0.000000000,0.514102744));
#921 = AXIS2_PLACEMENT_3D('',#619,#919,#920);
#922 = PLANE('',#921);
#923 = FACE_SURFACE('',(#918),#922,.T.);
#924 = POLY_LOOP('',(#620,#621,#685,#684));
#925 = FACE_OUTER_BOUND('',#924,.T.);
#926 = DIRECTION('',(-0.427555093,0.000000000,0.903989293));
#927 = DIRECTION('',(0.903989293,0.000000000,0.427555093));
#928 = AXIS2_PLACEMENT_3D('',#620,#926,#927);
#929 = PLANE('',#928);
#930 = FACE_SURFACE('',(#925),#929,.T.);
#931 = POLY_LOOP('',(#621,#622,#686,#685));
#932 = FACE_OUTER_BOUND('',#931,.T.);
#933 = DIRECTION('',(-0.336889853,0.000000000,0.941544065));
#934 = DIRECTION('',(0.941544065,0.000000000,0.336889853));
#935 = AXIS2_PLACEMENT_3D('',#621,#933,#934);
#936 = PLANE('',#935);
#937 = FACE_SURFACE('',(#932),#936,.T.);
#938 = POLY_LOOP('',(#622,#623,#687,#686));
#939 = FACE_OUTER_BOUND('',#938,.T.);
#940 = DIRECTION('',(-0.242980180,0.000000000,0.970031253));
#941 = DIRECTION('',(0.970031253,0.000000000,0.242980180));
#942 = AXIS2_PLACEMENT_3D('',#622,#940,#941);
#943 = PLANE('',#942);
#944 = FACE_SURFACE('',(#939),#943,.T.);
#945 = POLY_LOOP('',(#623,#624,#688,#687));
#946 = FACE_OUTER_BOUND('',#945,.T.);
#947 = DIRECTION('',(-0.146730474,0.000000000,0.989176510));
#948 = DIRECTION('',(0.989176510,0.000000000,0.146730474));
#949 = AXIS2_PLACEMENT_3D('',#623,#947,#948);
#950 = PLANE('',#949);
#951 = FACE_SURFACE('',(#946),#950,.T.);
#952 = POLY_LOOP('',(#624,#625,#689,#688));
#953 = FACE_OUTER_BOUND('',#952,.T.);
#954 = DIRECTION('',(-0.049067674,0.000000000,0.998795456));
#955 = DIRECTION('',(0.998795456,0.000000000,0.049067674));
#956 = AXIS2_PLACEMENT_3D('',#624,#954,#955);
#957 = PLANE('',#956);
#958 = FACE_SURFACE('',(#953),#957,.T.);
#959 = POLY_LOOP('',(#625,#626,#690,#689));
#960 = FACE_OUTER_BOUND('',#959,.T.);
#961 = DIRECTION('',(0.049067674,0.000000000,0.998795456));
#962 = DIRECTION('',(0.998795456,0.000000000,-0.049067674));
#963 = AXIS2_PLACEMENT_3D('',#625,#961,#962);
#964 = PLANE('',#963);
#965 = FACE_SURFACE('',(#960),#964,.T.);
#966 = POLY_LOOP('',(#626,#627,#691,#690));
#967 = FACE_OUTER_BOUND('',#966,.T.);
#968 = DIRECTION('',(0.146730474,0.000000000,0.989176510));
#969 = DIRECTION('',(0.989176510,0.000000000,-0.146730474));
#970 = AXIS2_PLACEMENT_3D('',#626,#968,#969);
#971 = PLANE('',#970);
#972 = FACE_SURFACE('',(#967),#971,.T.);
#973 = POLY_LOOP('',(#627,#628,#692,#691));
#974 = FACE_OUTER_BOUND('',#973,.T.);
#975 = DIRECTION('',(0.242980180,0.000000000,0.970031253));
#976 = DIRECTION('',(0.970031253,0.000000000,-0.242980180));
#977 = AXIS2_PLACEMENT_3D('',#627,#975,#976);
#978 = PLANE('',#977);
#979 = FACE_SURFACE('',(#974),#978,.T.);
#980 = POLY_LOOP('',(#628,#629,#693,#692));
#981 = FACE_OUTER_BOUND('',#980,.T.);
#982 = DIRECTION('',(0.336889853,0.000000000,0.941544065));
#983 = DIRECTION('',(0.941544065,0.000000000,-0.336889853));
#984 = AXIS2_PLACEMENT_3D('',#628,#982,#983);
#985 = PLANE('',#984);
#986 = FACE_SURFACE('',(#981),#985,.T.);
#987 = POLY_LOOP('',(#629,#630,#694,#693));
#988 = FACE_OUTER_BOUND('',#987,.T.);
#989 = DIRECTION('',(0.427555093,0.000000000,0.903989293));
#990 = DIRECTION('',(0.903989293,0.000000000,-0.427555093));
#991 = AXIS2_PLACEMENT_3D('',#629,#989,#990);
#992 = PLANE('',#991);
#993 = FACE_SURFACE('',(#988),#992,.T.);
#994 = POLY_LOOP('',(#630,#631,#695,#694));
#995 = FACE_OUTER_BOUND('',#994,.T.);
#996 = DIRECTION('',(0.514102744,0.000000000,0.857728610));
#997 = DIRECTION('',(0.857728610,0.000000000,-0.514102744));
#998 = AXIS2_PLACEMENT_3D('',#630,#996,#997);
#999 = PLANE('',#998);
#1000 = FACE_SURFACE('',(#995),#999,.T.);
#1001 = POLY_LOOP('',(#631,#632,#696,#695));
#1002 = FACE_OUTER_BOUND('',#1001,.T.);
#1003 = DIRECTION('',(0.595699304,0.000000000,0.803207531));
#1004 = DIRECTION('',(0.803207531,0.000000000,-0.595699304));
#1005 = AXIS2_PLACEMENT_3D('',#631,#1003,#1004);
#1006 = PLANE('',#1005);
#1007 = FACE_SURFACE('',(#1002),#1006,.T.);
#1008 = POLY_LOOP('',(#632,#633,#697,#696));
#1009 = FACE_OUTER_BOUND('',#1008,.T.);
#1010 = DIRECTION('',(0.671558955,0.000000000,0.740951125));
#1011 = DIRECTION('',(0.740951125,0.000000000,-0.671558955));
#1012 = AXIS2_PLACEMENT_3D('',#632,#1010,#1011);
#1013 = PLANE('',#1012);
#1014 = FACE_SURFACE('',(#1009),#1013,.T.);
#1015 = POLY_LOOP('',(#633,#634,#698,#697));
#1016 = FACE_OUTER_BOUND('',#1015,.T.);
#1017 = DIRECTION('',(0.740951125,0.000000000,0.671558955));
#1018 = DIRECTION('',(0.671558955,0.000000000,-0.740951125));
#1019 = AXIS2_PLACEMENT_3D('',#633,#1017,#1018);
#1020 = PLANE('',#1019);
#1021 = FACE_SURFACE('',(#1016),#1020,.T.);
#1022 = POLY_LOOP('',(#634,#635,#699,#698));
#1023 = FACE_OUTER_BOUND('',#1022,.T.);
#1024 = DIRECTION('',(0.803207531,0.000000000,0.595699304));
#1025 = DIRECTION('',(0.595699304,0.000000000,-0.803207531));
#1026 = AXIS2_PLACEMENT_3D('',#634,#1024,#1025);
#1027 = PLANE('',#1026);
#1028 = FACE_SURFACE('',(#1023),#1027,.T.);
#1029 = POLY_LOOP('',(#635,#636,#700,#699));
#1030 = FACE_OUTER_BOUND('',#1029,.T.);
#1031 = DIRECTION('',(0.857728610,0.000000000,0.514102744));
#1032 = DIRECTION('',(0.514102744,0.000000000,-0.857728610));
#1033 = AXIS2_PLACEMENT_3D('',#635,#1031,#1032);
#1034 = PLANE('',#1033);
#1035 = FACE_SURFACE('',(#1030),#1034,.T.);
#1036 = POLY_LOOP('',(#636,#637,#701,#700));
#1037 = FACE_OUTER_BOUND('',#1036,.T.);
#1038 = DIRECTION('',(0.903989293,0.000000000,0.427555093));
#1039 = DIRECTION('',(0.427555093,0.000000000,-0.903989293));
#1040 = AXIS2_PLACEMENT_3D('',#636,#1038,#1039);
#1041 = PLANE('',#1040);
#1042 = FACE_SURFACE('',(#1037),#1041,.T.);
#1043 = POLY_LOOP('',(#637,#638,#702,#701));
#1044 = FACE_OUTER_BOUND('',#1043,.T.);
#1045 = DIRECTION('',(0.941544065,0.000000000,0.336889853));
#1046 = DIRECTION('',(0.336889853,0.000000000,-0.941544065));
#1047 = AXIS2_PLACEMENT_3D('',#637,#1045,#1046);
#1048 = PLANE('',#1047);
#1049 = FACE_SURFACE('',(#1044),#1048,.T.);
#1050 = POLY_LOOP('',(#638,#639,#703,#702));
#1051 = FACE_OUTER_BOUND('',#1050,.T.);
#1052 = DIRECTION('',(0.970031253,0.000000000,0.242980180));
#1053 = DIRECTION('',(0.242980180,0.000000000,-0.970031253));
#1054 = AXIS2_PLACEMENT_3D('',#638,#1052,#1053);
#1055 = PLANE('',#1054);
#1056 = FACE_SURFACE('',(#1051),#1055,.T.);
#1057 = POLY_LOOP('',(#639,#640,#704,#703));
#1058 = FACE_OUTER_BOUND('',#1057,.T.);
#1059 = DIRECTION('',(0.989176510,0.000000000,0.146730474));
#1060 = DIRECTION('',(0.146730474,0.000000000,-0.989176510));
#1061 = AXIS2_PLACEMENT_3D('',#639,#1059,#1060);
#1062 = PLANE('',#1061);
#1063 = FACE_SURFACE('',(#1058),#1062,.T.);
#1064 = POLY_LOOP('',(#640,#641,#705,#704));
#1065 = FACE_OUTER_BOUND('',#1064,.T.);
#1066 = DIRECTION('',(0.998795456,0.000000000,0.049067674));
#1067 = DIRECTION('',(0.049067674,0.000000000,-0.998795456));
#1068 = AXIS2_PLACEMENT_3D('',#640,#1066,#1067);
#1069 = PLANE('',#1068);
#1070 = FACE_SURFACE('',(#1065),#1069,.T.);
#1071 = POLY_LOOP('',(#641,#642,#706,#705));
#1072 = FACE_OUTER_BOUND('',#1071,.T.);
#1073 = DIRECTION('',(0.998795456,0.000000000,-0.049067674));
#1074 = DIRECTION('',(-0.049067674,0.000000000,-0.998795456));
#1075 = AXIS2_PLACEMENT_3D('',#641,#1073,#1074);
#1076 = PLANE('',#1075);
#1077 = FACE_SURFACE('',(#1072),#1076,.T.);
#1078 = POLY_LOOP('',(#642,#643,#707,#706));
#1079 = FACE_OUTER_BOUND('',#1078,.T.);
#1080 = DIRECTION('',(0.989176510,0.000000000,-0.146730474));
#1081 = DIRECTION('',(-0.146730474,0.000000000,-0.989176510));
#1082 = AXIS2_PLACEMENT_3D('',#642,#1080,#1081);
#1083 = PLANE('',#1082);
#1084 = FACE_SURFACE('',(#1079),#1083,.T.);
#1085 = POLY_LOOP('',(#643,#644,#708,#707));
#1086 = FACE_OUTER_BOUND('',#1085,.T.);
#1087 = DIRECTION('',(0.970031253,0.000000000,-0.242980180));
#1088 = DIRECTION('',(-0.242980180,0.000000000,-0.970031253));
#1089 = AXIS2_PLACEMENT_3D('',#643,#1087,#1088);
#1090 = PLANE('',#1089);
#1091 = FACE_SURFACE('',(#1086),#1090,.T.);
#1092 = POLY_LOOP('',(#644,#645,#709,#708));
#1093 = FACE_OUTER_BOUND('',#1092,.T.);
#1094 = DIRECTION('',(0.941544065,0.000000000,-0.336889853));
#1095 = DIRECTION('',(-0.336889853,0.000000000,-0.941544065));
#1096 = AXIS2_PLACEMENT_3D('',#644,#1094,#1095);
#1097 = PLANE('',#1096);
#1098 = FACE_SURFACE('',(#1093),#1097,.T.);
#1099 = POLY_LOOP('',(#645,#646,#710,#709));
#1100 = FACE_OUTER_BOUND('',#1099,.T.);
#1101 = DIRECTION('',(0.903989293,0.000000000,-0.427555093));
#1102 = DIRECTION('',(-0.427555093,0.000000000,-0.903989293));
#1103 = AXIS2_PLACEMENT_3D('',#645,#1101,#1102);
#1104 = PLANE('',#1103);
#1105 = FACE_SURFACE('',(#1100),#1104,.T.);
#1106 = POLY_LOOP('',(#646,#647,#711,#710));
#1107 = FACE_OUTER_BOUND('',#1106,.T.);
#1108 = DIRECTION('',(0.857728610,0.000000000,-0.514102744));
#1109 = DIRECTION('',(-0.514102744,0.000000000,-0.857728610));
#1110 = AXIS2_PLACEMENT_3D('',#646,#1108,#1109);
#1111 = PLANE('',#1110);
#1112 = FACE_SURFACE('',(#1107),#1111,.T.);
#1113 = POLY_LOOP('',(#647,#648,#712,#711));
#1114 = FACE_OUTER_BOUND('',#1113,.T.);
#1115 = DIRECTION('',(0.803207531,0.000000000,-0.595699304));
#1116 = DIRECTION('',(-0.595699304,0.000000000,-0.803207531));
#1117 = AXIS2_PLACEMENT_3D('',#647,#1115,#1116);
#1118 = PLANE('',#1117);
#1119 = FACE_SURFACE('',(#1114),#1118,.T.);
#1120 = POLY_LOOP('',(#648,#649,#713,#712));
#1121 = FACE_OUTER_BOUND('',#1120,.T.);
#1122 = DIRECTION('',(0.740951125,0.000000000,-0.671558955));
#1123 = DIRECTION('',(-0.671558955,0.000000000,-0.740951125));
#1124 = AXIS2_PLACEMENT_3D('',#648,#1122,#1123);
#1125 = PLANE('',#1124);
#1126 = FACE_SURFACE('',(#1121),#1125,.T.);
#1127 = POLY_LOOP('',(#649,#650,#714,#713));
#1128 = FACE_OUTER_BOUND('',#1127,.T.);
#1129 = DIRECTION('',(0.671558955,0.000000000,-0.740951125));
#1130 = DIRECTION('',(-0.740951125,0.000000000,-0.671558955));
#1131 = AXIS2_PLACEMENT_3D('',#649,#1129,#1130);
#1132 = PLANE('',#1131);
#1133 = FACE_SURFACE('',(#1128),#1132,.T.);
#1134 = POLY_LOOP('',(#650,#651,#715,#714));
#1135 = FACE_OUTER_BOUND('',#1134,.T.);
#1136 = DIRECTION('',(0.595699304,0.000000000,-0.803207531));
#1137 = DIRECTION('',(-0.803207531,0.000000000,-0.595699304));
#1138 = AXIS2_PLACEMENT_3D('',#650,#1136,#1137);
#1139 = PLANE('',#1138);
#1140 = FACE_SURFACE('',(#1135),#1139,.T.);
#1141 = POLY_LOOP('',(#651,#652,#716,#715));
#1142 = FACE_OUTER_BOUND('',#1141,.T.);
#1143 = DIRECTION('',(0.514102744,0.000000000,-0.857728610));
#1144 = DIRECTION('',(-0.857728610,0.000000000,-0.514102744));
#1145 = AXIS2_PLACEMENT_3D('',#651,#1143,#1144);
#1146 = PLANE('',#1145);
#1147 = FACE_SURFACE('',(#1142),#1146,.T.);
#1148 = POLY_LOOP('',(#652,#653,#717,#716));
#1149 = FACE_OUTER_BOUND('',#1148,.T.);
#1150 = DIRECTION('',(0.427555093,0.000000000,-0.903989293));
#1151 = DIRECTION('',(-0.903989293,0.000000000,-0.427555093));
#1152 = AXIS2_PLACEMENT_3D('',#652,#1150,#1151);
#1153 = PLANE('',#1152);
#1154 = FACE_SURFACE('',(#1149),#1153,.T.);
#1155 = POLY_LOOP('',(#653,#654,#718,#717));
#1156 = FACE_OUTER_BOUND('',#1155,.T.);
#1157 = DIRECTION('',(0.336889853,0.000000000,-0.941544065));
#1158 = DIRECTION('',(-0.941544065,0.000000000,-0.336889853));
#1159 = AXIS2_PLACEMENT_3D('',#653,#1157,#1158);
#1160 = PLANE('',#1159);
#1161 = FACE_SURFACE('',(#1156),#1160,.T.);
#1162 = POLY_LOOP('',(#654,#655,#719,#718));
#1163 = FACE_OUTER_BOUND('',#1162,.T.);
#1164 = DIRECTION('',(0.242980180,0.000000000,-0.970031253));
#1165 = DIRECTION('',(-0.970031253,0.000000000,-0.242980180));
#1166 = AXIS2_PLACEMENT_3D('',#654,#1164,#1165);
#1167 = PLANE('',#1166);
#1168 = FACE_SURFACE('',(#1163),#1167,.T.);
#1169 = POLY_LOOP('',(#655,#656,#720,#719));
#1170 = FACE_OUTER_BOUND('',#1169,.T.);
#1171 = DIRECTION('',(0.146730474,0.000000000,-0.989176510));
#1172 = DIRECTION('',(-0.989176510,0.000000000,-0.146730474));
#1173 = AXIS2_PLACEMENT_3D('',#655,#1171,#1172);
#1174 = PLANE('',#1173);
#1175 = FACE_SURFACE('',(#1170),#1174,.T.);
#1176 = POLY_LOOP('',(#656,#593,#657,#720));
#1177 = FACE_OUTER_BOUND('',#1176,.T.);
#1178 = DIRECTION('',(0.049067674,0.000000000,-0.998795456));
#1179 = DIRECTION('',(-0.998795456,0.000000000,-0.049067674));
#1180 = AXIS2_PLACEMENT_3D('',#656,#1178,#1179);
#1181 = PLANE('',#1180);
#1182 = FACE_SURFACE('',(#1177),#1181,.T.);
#1183 = CLOSED_SHELL('',(#727,#734,#741,#748,#755,#762,#769,#776,#783,#790,#797,#804,#811,#818,#825,#832,#839,#846,#853,#860,#867,#874,#881,#888,#895,#902,#909,#916,#923,#930,#937,#944,#951,#958,#965,#972,#979,#986,#993,#1000,#1007,#1014,#1021,#1028,#1035,#1042,#1049,#1056,#1063,#1070,#1077,#1084,#1091,#1098,#1105,#1112,#1119,#1126,#1133,#1140,#1147,#1154,#1161,#1168,#1175,#1182));
#1184 = FACETED_BREP('wafer illustrative',#1183);
#1185 = APPLICATION_CONTEXT('configuration controlled 3d designs of mechanical parts and assemblies');
#1186 = APPLICATION_PROTOCOL_DEFINITION('international standard','config_control_design',1994,#1185);
#1187 = PRODUCT_CONTEXT('',#1185,'mechanical');
#1188 = PRODUCT('REF','Illustrative reference','NOT vendor CAD',(#1187));
#1189 = PRODUCT_DEFINITION_FORMATION_WITH_SPECIFIED_SOURCE('','',#1188,.NOT_KNOWN.);
#1190 = PRODUCT_DEFINITION_CONTEXT('part definition',#1185,'design');
#1191 = PRODUCT_DEFINITION('design','',#1189,#1190);
#1192 = PRODUCT_DEFINITION_SHAPE('','',#1191);
#1193 = (LENGTH_UNIT()NAMED_UNIT(*)SI_UNIT(.MILLI.,.METRE.));
#1194 = (NAMED_UNIT(*)PLANE_ANGLE_UNIT()SI_UNIT($,.RADIAN.));
#1195 = (NAMED_UNIT(*)SI_UNIT($,.STERADIAN.)SOLID_ANGLE_UNIT());
#1196 = UNCERTAINTY_MEASURE_WITH_UNIT(LENGTH_MEASURE(0.000001),#1193,'distance_accuracy_value','');
#1197 = (GEOMETRIC_REPRESENTATION_CONTEXT(3)GLOBAL_UNCERTAINTY_ASSIGNED_CONTEXT((#1196))GLOBAL_UNIT_ASSIGNED_CONTEXT((#1193,#1194,#1195))REPRESENTATION_CONTEXT('',''));
#1198 = FACETED_BREP_SHAPE_REPRESENTATION('Illustrative reference',(#592,#1184),#1197);
#1199 = SHAPE_DEFINITION_REPRESENTATION(#1192,#1198);
ENDSEC;
END-ISO-10303-21;
