ISO-10303-21;
HEADER;
FILE_DESCRIPTION(('Illustrative CAD - NOT vendor dimensions'),'2;1');
FILE_NAME('reference.step','2026-10-07',('CORNERSTONE'),(''),'reference generator','','');
FILE_SCHEMA(('CONFIG_CONTROL_DESIGN'));
ENDSEC;
DATA;
#1 = CARTESIAN_POINT('',(-106.500000000,8.000000000,-190.000000000));
#2 = CARTESIAN_POINT('',(106.500000000,8.000000000,-190.000000000));
#3 = CARTESIAN_POINT('',(106.500000000,96.000000000,-190.000000000));
#4 = CARTESIAN_POINT('',(-106.500000000,96.000000000,-190.000000000));
#5 = CARTESIAN_POINT('',(-106.500000000,8.000000000,190.000000000));
#6 = CARTESIAN_POINT('',(106.500000000,8.000000000,190.000000000));
#7 = CARTESIAN_POINT('',(106.500000000,96.000000000,190.000000000));
#8 = CARTESIAN_POINT('',(-106.500000000,96.000000000,190.000000000));
#9 = POLY_LOOP('',(#1,#4,#3,#2));
#10 = FACE_OUTER_BOUND('',#9,.T.);
#11 = DIRECTION('',(0.000000000,0.000000000,-1.000000000));
#12 = DIRECTION('',(0.000000000,1.000000000,0.000000000));
#13 = AXIS2_PLACEMENT_3D('',#1,#11,#12);
#14 = PLANE('',#13);
#15 = FACE_SURFACE('',(#10),#14,.T.);
#16 = POLY_LOOP('',(#5,#6,#7,#8));
#17 = FACE_OUTER_BOUND('',#16,.T.);
#18 = DIRECTION('',(0.000000000,0.000000000,1.000000000));
#19 = DIRECTION('',(1.000000000,0.000000000,0.000000000));
#20 = AXIS2_PLACEMENT_3D('',#5,#18,#19);
#21 = PLANE('',#20);
#22 = FACE_SURFACE('',(#17),#21,.T.);
#23 = POLY_LOOP('',(#1,#2,#6,#5));
#24 = FACE_OUTER_BOUND('',#23,.T.);
#25 = DIRECTION('',(0.000000000,-1.000000000,0.000000000));
#26 = DIRECTION('',(1.000000000,0.000000000,0.000000000));
#27 = AXIS2_PLACEMENT_3D('',#1,#25,#26);
#28 = PLANE('',#27);
#29 = FACE_SURFACE('',(#24),#28,.T.);
#30 = POLY_LOOP('',(#2,#3,#7,#6));
#31 = FACE_OUTER_BOUND('',#30,.T.);
#32 = DIRECTION('',(1.000000000,0.000000000,0.000000000));
#33 = DIRECTION('',(0.000000000,1.000000000,0.000000000));
#34 = AXIS2_PLACEMENT_3D('',#2,#32,#33);
#35 = PLANE('',#34);
#36 = FACE_SURFACE('',(#31),#35,.T.);
#37 = POLY_LOOP('',(#3,#4,#8,#7));
#38 = FACE_OUTER_BOUND('',#37,.T.);
#39 = DIRECTION('',(0.000000000,1.000000000,0.000000000));
#40 = DIRECTION('',(-1.000000000,0.000000000,0.000000000));
#41 = AXIS2_PLACEMENT_3D('',#3,#39,#40);
#42 = PLANE('',#41);
#43 = FACE_SURFACE('',(#38),#42,.T.);
#44 = POLY_LOOP('',(#4,#1,#5,#8));
#45 = FACE_OUTER_BOUND('',#44,.T.);
#46 = DIRECTION('',(-1.000000000,0.000000000,0.000000000));
#47 = DIRECTION('',(0.000000000,-1.000000000,0.000000000));
#48 = AXIS2_PLACEMENT_3D('',#4,#46,#47);
#49 = PLANE('',#48);
#50 = FACE_SURFACE('',(#45),#49,.T.);
#51 = CLOSED_SHELL('',(#15,#22,#29,#36,#43,#50));
#52 = FACETED_BREP('silver enclosure',#51);
#53 = CARTESIAN_POINT('',(-104.500000000,10.000000000,-193.000000000));
#54 = CARTESIAN_POINT('',(104.500000000,10.000000000,-193.000000000));
#55 = CARTESIAN_POINT('',(104.500000000,94.000000000,-193.000000000));
#56 = CARTESIAN_POINT('',(-104.500000000,94.000000000,-193.000000000));
#57 = CARTESIAN_POINT('',(-104.500000000,10.000000000,-190.000000000));
#58 = CARTESIAN_POINT('',(104.500000000,10.000000000,-190.000000000));
#59 = CARTESIAN_POINT('',(104.500000000,94.000000000,-190.000000000));
#60 = CARTESIAN_POINT('',(-104.500000000,94.000000000,-190.000000000));
#61 = POLY_LOOP('',(#53,#56,#55,#54));
#62 = FACE_OUTER_BOUND('',#61,.T.);
#63 = DIRECTION('',(0.000000000,0.000000000,-1.000000000));
#64 = DIRECTION('',(0.000000000,1.000000000,0.000000000));
#65 = AXIS2_PLACEMENT_3D('',#53,#63,#64);
#66 = PLANE('',#65);
#67 = FACE_SURFACE('',(#62),#66,.T.);
#68 = POLY_LOOP('',(#57,#58,#59,#60));
#69 = FACE_OUTER_BOUND('',#68,.T.);
#70 = DIRECTION('',(0.000000000,0.000000000,1.000000000));
#71 = DIRECTION('',(1.000000000,0.000000000,0.000000000));
#72 = AXIS2_PLACEMENT_3D('',#57,#70,#71);
#73 = PLANE('',#72);
#74 = FACE_SURFACE('',(#69),#73,.T.);
#75 = POLY_LOOP('',(#53,#54,#58,#57));
#76 = FACE_OUTER_BOUND('',#75,.T.);
#77 = DIRECTION('',(0.000000000,-1.000000000,0.000000000));
#78 = DIRECTION('',(1.000000000,0.000000000,0.000000000));
#79 = AXIS2_PLACEMENT_3D('',#53,#77,#78);
#80 = PLANE('',#79);
#81 = FACE_SURFACE('',(#76),#80,.T.);
#82 = POLY_LOOP('',(#54,#55,#59,#58));
#83 = FACE_OUTER_BOUND('',#82,.T.);
#84 = DIRECTION('',(1.000000000,0.000000000,0.000000000));
#85 = DIRECTION('',(0.000000000,1.000000000,0.000000000));
#86 = AXIS2_PLACEMENT_3D('',#54,#84,#85);
#87 = PLANE('',#86);
#88 = FACE_SURFACE('',(#83),#87,.T.);
#89 = POLY_LOOP('',(#55,#56,#60,#59));
#90 = FACE_OUTER_BOUND('',#89,.T.);
#91 = DIRECTION('',(0.000000000,1.000000000,0.000000000));
#92 = DIRECTION('',(-1.000000000,0.000000000,0.000000000));
#93 = AXIS2_PLACEMENT_3D('',#55,#91,#92);
#94 = PLANE('',#93);
#95 = FACE_SURFACE('',(#90),#94,.T.);
#96 = POLY_LOOP('',(#56,#53,#57,#60));
#97 = FACE_OUTER_BOUND('',#96,.T.);
#98 = DIRECTION('',(-1.000000000,0.000000000,0.000000000));
#99 = DIRECTION('',(0.000000000,-1.000000000,0.000000000));
#100 = AXIS2_PLACEMENT_3D('',#56,#98,#99);
#101 = PLANE('',#100);
#102 = FACE_SURFACE('',(#97),#101,.T.);
#103 = CLOSED_SHELL('',(#67,#74,#81,#88,#95,#102));
#104 = FACETED_BREP('front panel',#103);
#105 = CARTESIAN_POINT('',(-91.590000000,35.200000000,-195.000000000));
#106 = CARTESIAN_POINT('',(8.520000000,35.200000000,-195.000000000));
#107 = CARTESIAN_POINT('',(8.520000000,72.160000000,-195.000000000));
#108 = CARTESIAN_POINT('',(-91.590000000,72.160000000,-195.000000000));
#109 = CARTESIAN_POINT('',(-91.590000000,35.200000000,-193.000000000));
#110 = CARTESIAN_POINT('',(8.520000000,35.200000000,-193.000000000));
#111 = CARTESIAN_POINT('',(8.520000000,72.160000000,-193.000000000));
#112 = CARTESIAN_POINT('',(-91.590000000,72.160000000,-193.000000000));
#113 = POLY_LOOP('',(#105,#108,#107,#106));
#114 = FACE_OUTER_BOUND('',#113,.T.);
#115 = DIRECTION('',(0.000000000,0.000000000,-1.000000000));
#116 = DIRECTION('',(0.000000000,1.000000000,0.000000000));
#117 = AXIS2_PLACEMENT_3D('',#105,#115,#116);
#118 = PLANE('',#117);
#119 = FACE_SURFACE('',(#114),#118,.T.);
#120 = POLY_LOOP('',(#109,#110,#111,#112));
#121 = FACE_OUTER_BOUND('',#120,.T.);
#122 = DIRECTION('',(0.000000000,0.000000000,1.000000000));
#123 = DIRECTION('',(1.000000000,0.000000000,0.000000000));
#124 = AXIS2_PLACEMENT_3D('',#109,#122,#123);
#125 = PLANE('',#124);
#126 = FACE_SURFACE('',(#121),#125,.T.);
#127 = POLY_LOOP('',(#105,#106,#110,#109));
#128 = FACE_OUTER_BOUND('',#127,.T.);
#129 = DIRECTION('',(0.000000000,-1.000000000,0.000000000));
#130 = DIRECTION('',(1.000000000,0.000000000,0.000000000));
#131 = AXIS2_PLACEMENT_3D('',#105,#129,#130);
#132 = PLANE('',#131);
#133 = FACE_SURFACE('',(#128),#132,.T.);
#134 = POLY_LOOP('',(#106,#107,#111,#110));
#135 = FACE_OUTER_BOUND('',#134,.T.);
#136 = DIRECTION('',(1.000000000,0.000000000,0.000000000));
#137 = DIRECTION('',(0.000000000,1.000000000,0.000000000));
#138 = AXIS2_PLACEMENT_3D('',#106,#136,#137);
#139 = PLANE('',#138);
#140 = FACE_SURFACE('',(#135),#139,.T.);
#141 = POLY_LOOP('',(#107,#108,#112,#111));
#142 = FACE_OUTER_BOUND('',#141,.T.);
#143 = DIRECTION('',(0.000000000,1.000000000,0.000000000));
#144 = DIRECTION('',(-1.000000000,0.000000000,0.000000000));
#145 = AXIS2_PLACEMENT_3D('',#107,#143,#144);
#146 = PLANE('',#145);
#147 = FACE_SURFACE('',(#142),#146,.T.);
#148 = POLY_LOOP('',(#108,#105,#109,#112));
#149 = FACE_OUTER_BOUND('',#148,.T.);
#150 = DIRECTION('',(-1.000000000,0.000000000,0.000000000));
#151 = DIRECTION('',(0.000000000,-1.000000000,0.000000000));
#152 = AXIS2_PLACEMENT_3D('',#108,#150,#151);
#153 = PLANE('',#152);
#154 = FACE_SURFACE('',(#149),#153,.T.);
#155 = CLOSED_SHELL('',(#119,#126,#133,#140,#147,#154));
#156 = FACETED_BREP('black display bezel',#155);
#157 = CARTESIAN_POINT('',(-83.070000000,40.480000000,-197.000000000));
#158 = CARTESIAN_POINT('',(0.000000000,40.480000000,-197.000000000));
#159 = CARTESIAN_POINT('',(0.000000000,66.880000000,-197.000000000));
#160 = CARTESIAN_POINT('',(-83.070000000,66.880000000,-197.000000000));
#161 = CARTESIAN_POINT('',(-83.070000000,40.480000000,-196.000000000));
#162 = CARTESIAN_POINT('',(0.000000000,40.480000000,-196.000000000));
#163 = CARTESIAN_POINT('',(0.000000000,66.880000000,-196.000000000));
#164 = CARTESIAN_POINT('',(-83.070000000,66.880000000,-196.000000000));
#165 = POLY_LOOP('',(#157,#160,#159,#158));
#166 = FACE_OUTER_BOUND('',#165,.T.);
#167 = DIRECTION('',(0.000000000,0.000000000,-1.000000000));
#168 = DIRECTION('',(0.000000000,1.000000000,0.000000000));
#169 = AXIS2_PLACEMENT_3D('',#157,#167,#168);
#170 = PLANE('',#169);
#171 = FACE_SURFACE('',(#166),#170,.T.);
#172 = POLY_LOOP('',(#161,#162,#163,#164));
#173 = FACE_OUTER_BOUND('',#172,.T.);
#174 = DIRECTION('',(0.000000000,0.000000000,1.000000000));
#175 = DIRECTION('',(1.000000000,0.000000000,0.000000000));
#176 = AXIS2_PLACEMENT_3D('',#161,#174,#175);
#177 = PLANE('',#176);
#178 = FACE_SURFACE('',(#173),#177,.T.);
#179 = POLY_LOOP('',(#157,#158,#162,#161));
#180 = FACE_OUTER_BOUND('',#179,.T.);
#181 = DIRECTION('',(0.000000000,-1.000000000,0.000000000));
#182 = DIRECTION('',(1.000000000,0.000000000,0.000000000));
#183 = AXIS2_PLACEMENT_3D('',#157,#181,#182);
#184 = PLANE('',#183);
#185 = FACE_SURFACE('',(#180),#184,.T.);
#186 = POLY_LOOP('',(#158,#159,#163,#162));
#187 = FACE_OUTER_BOUND('',#186,.T.);
#188 = DIRECTION('',(1.000000000,0.000000000,0.000000000));
#189 = DIRECTION('',(0.000000000,1.000000000,0.000000000));
#190 = AXIS2_PLACEMENT_3D('',#158,#188,#189);
#191 = PLANE('',#190);
#192 = FACE_SURFACE('',(#187),#191,.T.);
#193 = POLY_LOOP('',(#159,#160,#164,#163));
#194 = FACE_OUTER_BOUND('',#193,.T.);
#195 = DIRECTION('',(0.000000000,1.000000000,0.000000000));
#196 = DIRECTION('',(-1.000000000,0.000000000,0.000000000));
#197 = AXIS2_PLACEMENT_3D('',#159,#195,#196);
#198 = PLANE('',#197);
#199 = FACE_SURFACE('',(#194),#198,.T.);
#200 = POLY_LOOP('',(#160,#157,#161,#164));
#201 = FACE_OUTER_BOUND('',#200,.T.);
#202 = DIRECTION('',(-1.000000000,0.000000000,0.000000000));
#203 = DIRECTION('',(0.000000000,-1.000000000,0.000000000));
#204 = AXIS2_PLACEMENT_3D('',#160,#202,#203);
#205 = PLANE('',#204);
#206 = FACE_SURFACE('',(#201),#205,.T.);
#207 = CLOSED_SHELL('',(#171,#178,#185,#192,#199,#206));
#208 = FACETED_BREP('screen glass',#207);
#209 = CARTESIAN_POINT('',(25.560000000,22.000000000,-197.000000000));
#210 = CARTESIAN_POINT('',(37.275000000,22.000000000,-197.000000000));
#211 = CARTESIAN_POINT('',(37.275000000,28.000000000,-197.000000000));
#212 = CARTESIAN_POINT('',(25.560000000,28.000000000,-197.000000000));
#213 = CARTESIAN_POINT('',(25.560000000,22.000000000,-194.000000000));
#214 = CARTESIAN_POINT('',(37.275000000,22.000000000,-194.000000000));
#215 = CARTESIAN_POINT('',(37.275000000,28.000000000,-194.000000000));
#216 = CARTESIAN_POINT('',(25.560000000,28.000000000,-194.000000000));
#217 = POLY_LOOP('',(#209,#212,#211,#210));
#218 = FACE_OUTER_BOUND('',#217,.T.);
#219 = DIRECTION('',(0.000000000,0.000000000,-1.000000000));
#220 = DIRECTION('',(0.000000000,1.000000000,0.000000000));
#221 = AXIS2_PLACEMENT_3D('',#209,#219,#220);
#222 = PLANE('',#221);
#223 = FACE_SURFACE('',(#218),#222,.T.);
#224 = POLY_LOOP('',(#213,#214,#215,#216));
#225 = FACE_OUTER_BOUND('',#224,.T.);
#226 = DIRECTION('',(0.000000000,0.000000000,1.000000000));
#227 = DIRECTION('',(1.000000000,0.000000000,0.000000000));
#228 = AXIS2_PLACEMENT_3D('',#213,#226,#227);
#229 = PLANE('',#228);
#230 = FACE_SURFACE('',(#225),#229,.T.);
#231 = POLY_LOOP('',(#209,#210,#214,#213));
#232 = FACE_OUTER_BOUND('',#231,.T.);
#233 = DIRECTION('',(0.000000000,-1.000000000,0.000000000));
#234 = DIRECTION('',(1.000000000,0.000000000,0.000000000));
#235 = AXIS2_PLACEMENT_3D('',#209,#233,#234);
#236 = PLANE('',#235);
#237 = FACE_SURFACE('',(#232),#236,.T.);
#238 = POLY_LOOP('',(#210,#211,#215,#214));
#239 = FACE_OUTER_BOUND('',#238,.T.);
#240 = DIRECTION('',(1.000000000,0.000000000,0.000000000));
#241 = DIRECTION('',(0.000000000,1.000000000,0.000000000));
#242 = AXIS2_PLACEMENT_3D('',#210,#240,#241);
#243 = PLANE('',#242);
#244 = FACE_SURFACE('',(#239),#243,.T.);
#245 = POLY_LOOP('',(#211,#212,#216,#215));
#246 = FACE_OUTER_BOUND('',#245,.T.);
#247 = DIRECTION('',(0.000000000,1.000000000,0.000000000));
#248 = DIRECTION('',(-1.000000000,0.000000000,0.000000000));
#249 = AXIS2_PLACEMENT_3D('',#211,#247,#248);
#250 = PLANE('',#249);
#251 = FACE_SURFACE('',(#246),#250,.T.);
#252 = POLY_LOOP('',(#212,#209,#213,#216));
#253 = FACE_OUTER_BOUND('',#252,.T.);
#254 = DIRECTION('',(-1.000000000,0.000000000,0.000000000));
#255 = DIRECTION('',(0.000000000,-1.000000000,0.000000000));
#256 = AXIS2_PLACEMENT_3D('',#212,#254,#255);
#257 = PLANE('',#256);
#258 = FACE_SURFACE('',(#253),#257,.T.);
#259 = CLOSED_SHELL('',(#223,#230,#237,#244,#251,#258));
#260 = FACETED_BREP('black control key',#259);
#261 = CARTESIAN_POINT('',(40.470000000,22.000000000,-197.000000000));
#262 = CARTESIAN_POINT('',(52.185000000,22.000000000,-197.000000000));
#263 = CARTESIAN_POINT('',(52.185000000,28.000000000,-197.000000000));
#264 = CARTESIAN_POINT('',(40.470000000,28.000000000,-197.000000000));
#265 = CARTESIAN_POINT('',(40.470000000,22.000000000,-194.000000000));
#266 = CARTESIAN_POINT('',(52.185000000,22.000000000,-194.000000000));
#267 = CARTESIAN_POINT('',(52.185000000,28.000000000,-194.000000000));
#268 = CARTESIAN_POINT('',(40.470000000,28.000000000,-194.000000000));
#269 = POLY_LOOP('',(#261,#264,#263,#262));
#270 = FACE_OUTER_BOUND('',#269,.T.);
#271 = DIRECTION('',(0.000000000,0.000000000,-1.000000000));
#272 = DIRECTION('',(0.000000000,1.000000000,0.000000000));
#273 = AXIS2_PLACEMENT_3D('',#261,#271,#272);
#274 = PLANE('',#273);
#275 = FACE_SURFACE('',(#270),#274,.T.);
#276 = POLY_LOOP('',(#265,#266,#267,#268));
#277 = FACE_OUTER_BOUND('',#276,.T.);
#278 = DIRECTION('',(0.000000000,0.000000000,1.000000000));
#279 = DIRECTION('',(1.000000000,0.000000000,0.000000000));
#280 = AXIS2_PLACEMENT_3D('',#265,#278,#279);
#281 = PLANE('',#280);
#282 = FACE_SURFACE('',(#277),#281,.T.);
#283 = POLY_LOOP('',(#261,#262,#266,#265));
#284 = FACE_OUTER_BOUND('',#283,.T.);
#285 = DIRECTION('',(0.000000000,-1.000000000,0.000000000));
#286 = DIRECTION('',(1.000000000,0.000000000,0.000000000));
#287 = AXIS2_PLACEMENT_3D('',#261,#285,#286);
#288 = PLANE('',#287);
#289 = FACE_SURFACE('',(#284),#288,.T.);
#290 = POLY_LOOP('',(#262,#263,#267,#266));
#291 = FACE_OUTER_BOUND('',#290,.T.);
#292 = DIRECTION('',(1.000000000,0.000000000,0.000000000));
#293 = DIRECTION('',(0.000000000,1.000000000,0.000000000));
#294 = AXIS2_PLACEMENT_3D('',#262,#292,#293);
#295 = PLANE('',#294);
#296 = FACE_SURFACE('',(#291),#295,.T.);
#297 = POLY_LOOP('',(#263,#264,#268,#267));
#298 = FACE_OUTER_BOUND('',#297,.T.);
#299 = DIRECTION('',(0.000000000,1.000000000,0.000000000));
#300 = DIRECTION('',(-1.000000000,0.000000000,0.000000000));
#301 = AXIS2_PLACEMENT_3D('',#263,#299,#300);
#302 = PLANE('',#301);
#303 = FACE_SURFACE('',(#298),#302,.T.);
#304 = POLY_LOOP('',(#264,#261,#265,#268));
#305 = FACE_OUTER_BOUND('',#304,.T.);
#306 = DIRECTION('',(-1.000000000,0.000000000,0.000000000));
#307 = DIRECTION('',(0.000000000,-1.000000000,0.000000000));
#308 = AXIS2_PLACEMENT_3D('',#264,#306,#307);
#309 = PLANE('',#308);
#310 = FACE_SURFACE('',(#305),#309,.T.);
#311 = CLOSED_SHELL('',(#275,#282,#289,#296,#303,#310));
#312 = FACETED_BREP('black control key',#311);
#313 = CARTESIAN_POINT('',(55.380000000,22.000000000,-197.000000000));
#314 = CARTESIAN_POINT('',(67.095000000,22.000000000,-197.000000000));
#315 = CARTESIAN_POINT('',(67.095000000,28.000000000,-197.000000000));
#316 = CARTESIAN_POINT('',(55.380000000,28.000000000,-197.000000000));
#317 = CARTESIAN_POINT('',(55.380000000,22.000000000,-194.000000000));
#318 = CARTESIAN_POINT('',(67.095000000,22.000000000,-194.000000000));
#319 = CARTESIAN_POINT('',(67.095000000,28.000000000,-194.000000000));
#320 = CARTESIAN_POINT('',(55.380000000,28.000000000,-194.000000000));
#321 = POLY_LOOP('',(#313,#316,#315,#314));
#322 = FACE_OUTER_BOUND('',#321,.T.);
#323 = DIRECTION('',(0.000000000,0.000000000,-1.000000000));
#324 = DIRECTION('',(0.000000000,1.000000000,0.000000000));
#325 = AXIS2_PLACEMENT_3D('',#313,#323,#324);
#326 = PLANE('',#325);
#327 = FACE_SURFACE('',(#322),#326,.T.);
#328 = POLY_LOOP('',(#317,#318,#319,#320));
#329 = FACE_OUTER_BOUND('',#328,.T.);
#330 = DIRECTION('',(0.000000000,0.000000000,1.000000000));
#331 = DIRECTION('',(1.000000000,0.000000000,0.000000000));
#332 = AXIS2_PLACEMENT_3D('',#317,#330,#331);
#333 = PLANE('',#332);
#334 = FACE_SURFACE('',(#329),#333,.T.);
#335 = POLY_LOOP('',(#313,#314,#318,#317));
#336 = FACE_OUTER_BOUND('',#335,.T.);
#337 = DIRECTION('',(0.000000000,-1.000000000,0.000000000));
#338 = DIRECTION('',(1.000000000,0.000000000,0.000000000));
#339 = AXIS2_PLACEMENT_3D('',#313,#337,#338);
#340 = PLANE('',#339);
#341 = FACE_SURFACE('',(#336),#340,.T.);
#342 = POLY_LOOP('',(#314,#315,#319,#318));
#343 = FACE_OUTER_BOUND('',#342,.T.);
#344 = DIRECTION('',(1.000000000,0.000000000,0.000000000));
#345 = DIRECTION('',(0.000000000,1.000000000,0.000000000));
#346 = AXIS2_PLACEMENT_3D('',#314,#344,#345);
#347 = PLANE('',#346);
#348 = FACE_SURFACE('',(#343),#347,.T.);
#349 = POLY_LOOP('',(#315,#316,#320,#319));
#350 = FACE_OUTER_BOUND('',#349,.T.);
#351 = DIRECTION('',(0.000000000,1.000000000,0.000000000));
#352 = DIRECTION('',(-1.000000000,0.000000000,0.000000000));
#353 = AXIS2_PLACEMENT_3D('',#315,#351,#352);
#354 = PLANE('',#353);
#355 = FACE_SURFACE('',(#350),#354,.T.);
#356 = POLY_LOOP('',(#316,#313,#317,#320));
#357 = FACE_OUTER_BOUND('',#356,.T.);
#358 = DIRECTION('',(-1.000000000,0.000000000,0.000000000));
#359 = DIRECTION('',(0.000000000,-1.000000000,0.000000000));
#360 = AXIS2_PLACEMENT_3D('',#316,#358,#359);
#361 = PLANE('',#360);
#362 = FACE_SURFACE('',(#357),#361,.T.);
#363 = CLOSED_SHELL('',(#327,#334,#341,#348,#355,#362));
#364 = FACETED_BREP('black control key',#363);
#365 = CARTESIAN_POINT('',(70.290000000,22.000000000,-197.000000000));
#366 = CARTESIAN_POINT('',(82.005000000,22.000000000,-197.000000000));
#367 = CARTESIAN_POINT('',(82.005000000,28.000000000,-197.000000000));
#368 = CARTESIAN_POINT('',(70.290000000,28.000000000,-197.000000000));
#369 = CARTESIAN_POINT('',(70.290000000,22.000000000,-194.000000000));
#370 = CARTESIAN_POINT('',(82.005000000,22.000000000,-194.000000000));
#371 = CARTESIAN_POINT('',(82.005000000,28.000000000,-194.000000000));
#372 = CARTESIAN_POINT('',(70.290000000,28.000000000,-194.000000000));
#373 = POLY_LOOP('',(#365,#368,#367,#366));
#374 = FACE_OUTER_BOUND('',#373,.T.);
#375 = DIRECTION('',(0.000000000,0.000000000,-1.000000000));
#376 = DIRECTION('',(0.000000000,1.000000000,0.000000000));
#377 = AXIS2_PLACEMENT_3D('',#365,#375,#376);
#378 = PLANE('',#377);
#379 = FACE_SURFACE('',(#374),#378,.T.);
#380 = POLY_LOOP('',(#369,#370,#371,#372));
#381 = FACE_OUTER_BOUND('',#380,.T.);
#382 = DIRECTION('',(0.000000000,0.000000000,1.000000000));
#383 = DIRECTION('',(1.000000000,0.000000000,0.000000000));
#384 = AXIS2_PLACEMENT_3D('',#369,#382,#383);
#385 = PLANE('',#384);
#386 = FACE_SURFACE('',(#381),#385,.T.);
#387 = POLY_LOOP('',(#365,#366,#370,#369));
#388 = FACE_OUTER_BOUND('',#387,.T.);
#389 = DIRECTION('',(0.000000000,-1.000000000,0.000000000));
#390 = DIRECTION('',(1.000000000,0.000000000,0.000000000));
#391 = AXIS2_PLACEMENT_3D('',#365,#389,#390);
#392 = PLANE('',#391);
#393 = FACE_SURFACE('',(#388),#392,.T.);
#394 = POLY_LOOP('',(#366,#367,#371,#370));
#395 = FACE_OUTER_BOUND('',#394,.T.);
#396 = DIRECTION('',(1.000000000,0.000000000,0.000000000));
#397 = DIRECTION('',(0.000000000,1.000000000,0.000000000));
#398 = AXIS2_PLACEMENT_3D('',#366,#396,#397);
#399 = PLANE('',#398);
#400 = FACE_SURFACE('',(#395),#399,.T.);
#401 = POLY_LOOP('',(#367,#368,#372,#371));
#402 = FACE_OUTER_BOUND('',#401,.T.);
#403 = DIRECTION('',(0.000000000,1.000000000,0.000000000));
#404 = DIRECTION('',(-1.000000000,0.000000000,0.000000000));
#405 = AXIS2_PLACEMENT_3D('',#367,#403,#404);
#406 = PLANE('',#405);
#407 = FACE_SURFACE('',(#402),#406,.T.);
#408 = POLY_LOOP('',(#368,#365,#369,#372));
#409 = FACE_OUTER_BOUND('',#408,.T.);
#410 = DIRECTION('',(-1.000000000,0.000000000,0.000000000));
#411 = DIRECTION('',(0.000000000,-1.000000000,0.000000000));
#412 = AXIS2_PLACEMENT_3D('',#368,#410,#411);
#413 = PLANE('',#412);
#414 = FACE_SURFACE('',(#409),#413,.T.);
#415 = CLOSED_SHELL('',(#379,#386,#393,#400,#407,#414));
#416 = FACETED_BREP('black control key',#415);
#417 = CARTESIAN_POINT('',(73.580000000,57.200000000,-194.000000000));
#418 = CARTESIAN_POINT('',(73.106227078,54.208715494,-194.000000000));
#419 = CARTESIAN_POINT('',(71.731284506,51.510238758,-194.000000000));
#420 = CARTESIAN_POINT('',(69.589761242,49.368715494,-194.000000000));
#421 = CARTESIAN_POINT('',(66.891284506,47.993772922,-194.000000000));
#422 = CARTESIAN_POINT('',(63.900000000,47.520000000,-194.000000000));
#423 = CARTESIAN_POINT('',(60.908715494,47.993772922,-194.000000000));
#424 = CARTESIAN_POINT('',(58.210238758,49.368715494,-194.000000000));
#425 = CARTESIAN_POINT('',(56.068715494,51.510238758,-194.000000000));
#426 = CARTESIAN_POINT('',(54.693772922,54.208715494,-194.000000000));
#427 = CARTESIAN_POINT('',(54.220000000,57.200000000,-194.000000000));
#428 = CARTESIAN_POINT('',(54.693772922,60.191284506,-194.000000000));
#429 = CARTESIAN_POINT('',(56.068715494,62.889761242,-194.000000000));
#430 = CARTESIAN_POINT('',(58.210238758,65.031284506,-194.000000000));
#431 = CARTESIAN_POINT('',(60.908715494,66.406227078,-194.000000000));
#432 = CARTESIAN_POINT('',(63.900000000,66.880000000,-194.000000000));
#433 = CARTESIAN_POINT('',(66.891284506,66.406227078,-194.000000000));
#434 = CARTESIAN_POINT('',(69.589761242,65.031284506,-194.000000000));
#435 = CARTESIAN_POINT('',(71.731284506,62.889761242,-194.000000000));
#436 = CARTESIAN_POINT('',(73.106227078,60.191284506,-194.000000000));
#437 = CARTESIAN_POINT('',(73.580000000,57.200000000,-204.000000000));
#438 = CARTESIAN_POINT('',(73.106227078,54.208715494,-204.000000000));
#439 = CARTESIAN_POINT('',(71.731284506,51.510238758,-204.000000000));
#440 = CARTESIAN_POINT('',(69.589761242,49.368715494,-204.000000000));
#441 = CARTESIAN_POINT('',(66.891284506,47.993772922,-204.000000000));
#442 = CARTESIAN_POINT('',(63.900000000,47.520000000,-204.000000000));
#443 = CARTESIAN_POINT('',(60.908715494,47.993772922,-204.000000000));
#444 = CARTESIAN_POINT('',(58.210238758,49.368715494,-204.000000000));
#445 = CARTESIAN_POINT('',(56.068715494,51.510238758,-204.000000000));
#446 = CARTESIAN_POINT('',(54.693772922,54.208715494,-204.000000000));
#447 = CARTESIAN_POINT('',(54.220000000,57.200000000,-204.000000000));
#448 = CARTESIAN_POINT('',(54.693772922,60.191284506,-204.000000000));
#449 = CARTESIAN_POINT('',(56.068715494,62.889761242,-204.000000000));
#450 = CARTESIAN_POINT('',(58.210238758,65.031284506,-204.000000000));
#451 = CARTESIAN_POINT('',(60.908715494,66.406227078,-204.000000000));
#452 = CARTESIAN_POINT('',(63.900000000,66.880000000,-204.000000000));
#453 = CARTESIAN_POINT('',(66.891284506,66.406227078,-204.000000000));
#454 = CARTESIAN_POINT('',(69.589761242,65.031284506,-204.000000000));
#455 = CARTESIAN_POINT('',(71.731284506,62.889761242,-204.000000000));
#456 = CARTESIAN_POINT('',(73.106227078,60.191284506,-204.000000000));
#457 = POLY_LOOP('',(#436,#435,#434,#433,#432,#431,#430,#429,#428,#427,#426,#425,#424,#423,#422,#421,#420,#419,#418,#417));
#458 = FACE_OUTER_BOUND('',#457,.T.);
#459 = DIRECTION('',(0.000000000,0.000000000,1.000000000));
#460 = DIRECTION('',(-0.453990500,0.891006524,0.000000000));
#461 = AXIS2_PLACEMENT_3D('',#436,#459,#460);
#462 = PLANE('',#461);
#463 = FACE_SURFACE('',(#458),#462,.T.);
#464 = POLY_LOOP('',(#437,#438,#439,#440,#441,#442,#443,#444,#445,#446,#447,#448,#449,#450,#451,#452,#453,#454,#455,#456));
#465 = FACE_OUTER_BOUND('',#464,.T.);
#466 = DIRECTION('',(0.000000000,0.000000000,-1.000000000));
#467 = DIRECTION('',(-0.156434465,-0.987688341,0.000000000));
#468 = AXIS2_PLACEMENT_3D('',#437,#466,#467);
#469 = PLANE('',#468);
#470 = FACE_SURFACE('',(#465),#469,.T.);
#471 = POLY_LOOP('',(#417,#418,#438,#437));
#472 = FACE_OUTER_BOUND('',#471,.T.);
#473 = DIRECTION('',(0.987688341,-0.156434465,0.000000000));
#474 = DIRECTION('',(-0.156434465,-0.987688341,0.000000000));
#475 = AXIS2_PLACEMENT_3D('',#417,#473,#474);
#476 = PLANE('',#475);
#477 = FACE_SURFACE('',(#472),#476,.T.);
#478 = POLY_LOOP('',(#418,#419,#439,#438));
#479 = FACE_OUTER_BOUND('',#478,.T.);
#480 = DIRECTION('',(0.891006524,-0.453990500,0.000000000));
#481 = DIRECTION('',(-0.453990500,-0.891006524,0.000000000));
#482 = AXIS2_PLACEMENT_3D('',#418,#480,#481);
#483 = PLANE('',#482);
#484 = FACE_SURFACE('',(#479),#483,.T.);
#485 = POLY_LOOP('',(#419,#420,#440,#439));
#486 = FACE_OUTER_BOUND('',#485,.T.);
#487 = DIRECTION('',(0.707106781,-0.707106781,0.000000000));
#488 = DIRECTION('',(-0.707106781,-0.707106781,0.000000000));
#489 = AXIS2_PLACEMENT_3D('',#419,#487,#488);
#490 = PLANE('',#489);
#491 = FACE_SURFACE('',(#486),#490,.T.);
#492 = POLY_LOOP('',(#420,#421,#441,#440));
#493 = FACE_OUTER_BOUND('',#492,.T.);
#494 = DIRECTION('',(0.453990500,-0.891006524,0.000000000));
#495 = DIRECTION('',(-0.891006524,-0.453990500,0.000000000));
#496 = AXIS2_PLACEMENT_3D('',#420,#494,#495);
#497 = PLANE('',#496);
#498 = FACE_SURFACE('',(#493),#497,.T.);
#499 = POLY_LOOP('',(#421,#422,#442,#441));
#500 = FACE_OUTER_BOUND('',#499,.T.);
#501 = DIRECTION('',(0.156434465,-0.987688341,0.000000000));
#502 = DIRECTION('',(-0.987688341,-0.156434465,0.000000000));
#503 = AXIS2_PLACEMENT_3D('',#421,#501,#502);
#504 = PLANE('',#503);
#505 = FACE_SURFACE('',(#500),#504,.T.);
#506 = POLY_LOOP('',(#422,#423,#443,#442));
#507 = FACE_OUTER_BOUND('',#506,.T.);
#508 = DIRECTION('',(-0.156434465,-0.987688341,0.000000000));
#509 = DIRECTION('',(-0.987688341,0.156434465,0.000000000));
#510 = AXIS2_PLACEMENT_3D('',#422,#508,#509);
#511 = PLANE('',#510);
#512 = FACE_SURFACE('',(#507),#511,.T.);
#513 = POLY_LOOP('',(#423,#424,#444,#443));
#514 = FACE_OUTER_BOUND('',#513,.T.);
#515 = DIRECTION('',(-0.453990500,-0.891006524,0.000000000));
#516 = DIRECTION('',(-0.891006524,0.453990500,0.000000000));
#517 = AXIS2_PLACEMENT_3D('',#423,#515,#516);
#518 = PLANE('',#517);
#519 = FACE_SURFACE('',(#514),#518,.T.);
#520 = POLY_LOOP('',(#424,#425,#445,#444));
#521 = FACE_OUTER_BOUND('',#520,.T.);
#522 = DIRECTION('',(-0.707106781,-0.707106781,0.000000000));
#523 = DIRECTION('',(-0.707106781,0.707106781,0.000000000));
#524 = AXIS2_PLACEMENT_3D('',#424,#522,#523);
#525 = PLANE('',#524);
#526 = FACE_SURFACE('',(#521),#525,.T.);
#527 = POLY_LOOP('',(#425,#426,#446,#445));
#528 = FACE_OUTER_BOUND('',#527,.T.);
#529 = DIRECTION('',(-0.891006524,-0.453990500,0.000000000));
#530 = DIRECTION('',(-0.453990500,0.891006524,0.000000000));
#531 = AXIS2_PLACEMENT_3D('',#425,#529,#530);
#532 = PLANE('',#531);
#533 = FACE_SURFACE('',(#528),#532,.T.);
#534 = POLY_LOOP('',(#426,#427,#447,#446));
#535 = FACE_OUTER_BOUND('',#534,.T.);
#536 = DIRECTION('',(-0.987688341,-0.156434465,0.000000000));
#537 = DIRECTION('',(-0.156434465,0.987688341,0.000000000));
#538 = AXIS2_PLACEMENT_3D('',#426,#536,#537);
#539 = PLANE('',#538);
#540 = FACE_SURFACE('',(#535),#539,.T.);
#541 = POLY_LOOP('',(#427,#428,#448,#447));
#542 = FACE_OUTER_BOUND('',#541,.T.);
#543 = DIRECTION('',(-0.987688341,0.156434465,0.000000000));
#544 = DIRECTION('',(0.156434465,0.987688341,0.000000000));
#545 = AXIS2_PLACEMENT_3D('',#427,#543,#544);
#546 = PLANE('',#545);
#547 = FACE_SURFACE('',(#542),#546,.T.);
#548 = POLY_LOOP('',(#428,#429,#449,#448));
#549 = FACE_OUTER_BOUND('',#548,.T.);
#550 = DIRECTION('',(-0.891006524,0.453990500,0.000000000));
#551 = DIRECTION('',(0.453990500,0.891006524,0.000000000));
#552 = AXIS2_PLACEMENT_3D('',#428,#550,#551);
#553 = PLANE('',#552);
#554 = FACE_SURFACE('',(#549),#553,.T.);
#555 = POLY_LOOP('',(#429,#430,#450,#449));
#556 = FACE_OUTER_BOUND('',#555,.T.);
#557 = DIRECTION('',(-0.707106781,0.707106781,0.000000000));
#558 = DIRECTION('',(0.707106781,0.707106781,0.000000000));
#559 = AXIS2_PLACEMENT_3D('',#429,#557,#558);
#560 = PLANE('',#559);
#561 = FACE_SURFACE('',(#556),#560,.T.);
#562 = POLY_LOOP('',(#430,#431,#451,#450));
#563 = FACE_OUTER_BOUND('',#562,.T.);
#564 = DIRECTION('',(-0.453990500,0.891006524,0.000000000));
#565 = DIRECTION('',(0.891006524,0.453990500,0.000000000));
#566 = AXIS2_PLACEMENT_3D('',#430,#564,#565);
#567 = PLANE('',#566);
#568 = FACE_SURFACE('',(#563),#567,.T.);
#569 = POLY_LOOP('',(#431,#432,#452,#451));
#570 = FACE_OUTER_BOUND('',#569,.T.);
#571 = DIRECTION('',(-0.156434465,0.987688341,0.000000000));
#572 = DIRECTION('',(0.987688341,0.156434465,0.000000000));
#573 = AXIS2_PLACEMENT_3D('',#431,#571,#572);
#574 = PLANE('',#573);
#575 = FACE_SURFACE('',(#570),#574,.T.);
#576 = POLY_LOOP('',(#432,#433,#453,#452));
#577 = FACE_OUTER_BOUND('',#576,.T.);
#578 = DIRECTION('',(0.156434465,0.987688341,0.000000000));
#579 = DIRECTION('',(0.987688341,-0.156434465,0.000000000));
#580 = AXIS2_PLACEMENT_3D('',#432,#578,#579);
#581 = PLANE('',#580);
#582 = FACE_SURFACE('',(#577),#581,.T.);
#583 = POLY_LOOP('',(#433,#434,#454,#453));
#584 = FACE_OUTER_BOUND('',#583,.T.);
#585 = DIRECTION('',(0.453990500,0.891006524,0.000000000));
#586 = DIRECTION('',(0.891006524,-0.453990500,0.000000000));
#587 = AXIS2_PLACEMENT_3D('',#433,#585,#586);
#588 = PLANE('',#587);
#589 = FACE_SURFACE('',(#584),#588,.T.);
#590 = POLY_LOOP('',(#434,#435,#455,#454));
#591 = FACE_OUTER_BOUND('',#590,.T.);
#592 = DIRECTION('',(0.707106781,0.707106781,0.000000000));
#593 = DIRECTION('',(0.707106781,-0.707106781,0.000000000));
#594 = AXIS2_PLACEMENT_3D('',#434,#592,#593);
#595 = PLANE('',#594);
#596 = FACE_SURFACE('',(#591),#595,.T.);
#597 = POLY_LOOP('',(#435,#436,#456,#455));
#598 = FACE_OUTER_BOUND('',#597,.T.);
#599 = DIRECTION('',(0.891006524,0.453990500,0.000000000));
#600 = DIRECTION('',(0.453990500,-0.891006524,0.000000000));
#601 = AXIS2_PLACEMENT_3D('',#435,#599,#600);
#602 = PLANE('',#601);
#603 = FACE_SURFACE('',(#598),#602,.T.);
#604 = POLY_LOOP('',(#436,#417,#437,#456));
#605 = FACE_OUTER_BOUND('',#604,.T.);
#606 = DIRECTION('',(0.987688341,0.156434465,0.000000000));
#607 = DIRECTION('',(0.156434465,-0.987688341,0.000000000));
#608 = AXIS2_PLACEMENT_3D('',#436,#606,#607);
#609 = PLANE('',#608);
#610 = FACE_SURFACE('',(#605),#609,.T.);
#611 = CLOSED_SHELL('',(#463,#470,#477,#484,#491,#498,#505,#512,#519,#526,#533,#540,#547,#554,#561,#568,#575,#582,#589,#596,#603,#610));
#612 = FACETED_BREP('silver rotary control',#611);
#613 = CARTESIAN_POINT('',(-83.550000000,0.000000000,-142.000000000));
#614 = CARTESIAN_POINT('',(-65.550000000,0.000000000,-142.000000000));
#615 = CARTESIAN_POINT('',(-65.550000000,8.000000000,-142.000000000));
#616 = CARTESIAN_POINT('',(-83.550000000,8.000000000,-142.000000000));
#617 = CARTESIAN_POINT('',(-83.550000000,0.000000000,-124.000000000));
#618 = CARTESIAN_POINT('',(-65.550000000,0.000000000,-124.000000000));
#619 = CARTESIAN_POINT('',(-65.550000000,8.000000000,-124.000000000));
#620 = CARTESIAN_POINT('',(-83.550000000,8.000000000,-124.000000000));
#621 = POLY_LOOP('',(#613,#616,#615,#614));
#622 = FACE_OUTER_BOUND('',#621,.T.);
#623 = DIRECTION('',(0.000000000,0.000000000,-1.000000000));
#624 = DIRECTION('',(0.000000000,1.000000000,0.000000000));
#625 = AXIS2_PLACEMENT_3D('',#613,#623,#624);
#626 = PLANE('',#625);
#627 = FACE_SURFACE('',(#622),#626,.T.);
#628 = POLY_LOOP('',(#617,#618,#619,#620));
#629 = FACE_OUTER_BOUND('',#628,.T.);
#630 = DIRECTION('',(0.000000000,0.000000000,1.000000000));
#631 = DIRECTION('',(1.000000000,0.000000000,0.000000000));
#632 = AXIS2_PLACEMENT_3D('',#617,#630,#631);
#633 = PLANE('',#632);
#634 = FACE_SURFACE('',(#629),#633,.T.);
#635 = POLY_LOOP('',(#613,#614,#618,#617));
#636 = FACE_OUTER_BOUND('',#635,.T.);
#637 = DIRECTION('',(0.000000000,-1.000000000,0.000000000));
#638 = DIRECTION('',(1.000000000,0.000000000,0.000000000));
#639 = AXIS2_PLACEMENT_3D('',#613,#637,#638);
#640 = PLANE('',#639);
#641 = FACE_SURFACE('',(#636),#640,.T.);
#642 = POLY_LOOP('',(#614,#615,#619,#618));
#643 = FACE_OUTER_BOUND('',#642,.T.);
#644 = DIRECTION('',(1.000000000,0.000000000,0.000000000));
#645 = DIRECTION('',(0.000000000,1.000000000,0.000000000));
#646 = AXIS2_PLACEMENT_3D('',#614,#644,#645);
#647 = PLANE('',#646);
#648 = FACE_SURFACE('',(#643),#647,.T.);
#649 = POLY_LOOP('',(#615,#616,#620,#619));
#650 = FACE_OUTER_BOUND('',#649,.T.);
#651 = DIRECTION('',(0.000000000,1.000000000,0.000000000));
#652 = DIRECTION('',(-1.000000000,0.000000000,0.000000000));
#653 = AXIS2_PLACEMENT_3D('',#615,#651,#652);
#654 = PLANE('',#653);
#655 = FACE_SURFACE('',(#650),#654,.T.);
#656 = POLY_LOOP('',(#616,#613,#617,#620));
#657 = FACE_OUTER_BOUND('',#656,.T.);
#658 = DIRECTION('',(-1.000000000,0.000000000,0.000000000));
#659 = DIRECTION('',(0.000000000,-1.000000000,0.000000000));
#660 = AXIS2_PLACEMENT_3D('',#616,#658,#659);
#661 = PLANE('',#660);
#662 = FACE_SURFACE('',(#657),#661,.T.);
#663 = CLOSED_SHELL('',(#627,#634,#641,#648,#655,#662));
#664 = FACETED_BREP('black foot',#663);
#665 = CARTESIAN_POINT('',(-83.550000000,0.000000000,124.000000000));
#666 = CARTESIAN_POINT('',(-65.550000000,0.000000000,124.000000000));
#667 = CARTESIAN_POINT('',(-65.550000000,8.000000000,124.000000000));
#668 = CARTESIAN_POINT('',(-83.550000000,8.000000000,124.000000000));
#669 = CARTESIAN_POINT('',(-83.550000000,0.000000000,142.000000000));
#670 = CARTESIAN_POINT('',(-65.550000000,0.000000000,142.000000000));
#671 = CARTESIAN_POINT('',(-65.550000000,8.000000000,142.000000000));
#672 = CARTESIAN_POINT('',(-83.550000000,8.000000000,142.000000000));
#673 = POLY_LOOP('',(#665,#668,#667,#666));
#674 = FACE_OUTER_BOUND('',#673,.T.);
#675 = DIRECTION('',(0.000000000,0.000000000,-1.000000000));
#676 = DIRECTION('',(0.000000000,1.000000000,0.000000000));
#677 = AXIS2_PLACEMENT_3D('',#665,#675,#676);
#678 = PLANE('',#677);
#679 = FACE_SURFACE('',(#674),#678,.T.);
#680 = POLY_LOOP('',(#669,#670,#671,#672));
#681 = FACE_OUTER_BOUND('',#680,.T.);
#682 = DIRECTION('',(0.000000000,0.000000000,1.000000000));
#683 = DIRECTION('',(1.000000000,0.000000000,0.000000000));
#684 = AXIS2_PLACEMENT_3D('',#669,#682,#683);
#685 = PLANE('',#684);
#686 = FACE_SURFACE('',(#681),#685,.T.);
#687 = POLY_LOOP('',(#665,#666,#670,#669));
#688 = FACE_OUTER_BOUND('',#687,.T.);
#689 = DIRECTION('',(0.000000000,-1.000000000,0.000000000));
#690 = DIRECTION('',(1.000000000,0.000000000,0.000000000));
#691 = AXIS2_PLACEMENT_3D('',#665,#689,#690);
#692 = PLANE('',#691);
#693 = FACE_SURFACE('',(#688),#692,.T.);
#694 = POLY_LOOP('',(#666,#667,#671,#670));
#695 = FACE_OUTER_BOUND('',#694,.T.);
#696 = DIRECTION('',(1.000000000,0.000000000,0.000000000));
#697 = DIRECTION('',(0.000000000,1.000000000,0.000000000));
#698 = AXIS2_PLACEMENT_3D('',#666,#696,#697);
#699 = PLANE('',#698);
#700 = FACE_SURFACE('',(#695),#699,.T.);
#701 = POLY_LOOP('',(#667,#668,#672,#671));
#702 = FACE_OUTER_BOUND('',#701,.T.);
#703 = DIRECTION('',(0.000000000,1.000000000,0.000000000));
#704 = DIRECTION('',(-1.000000000,0.000000000,0.000000000));
#705 = AXIS2_PLACEMENT_3D('',#667,#703,#704);
#706 = PLANE('',#705);
#707 = FACE_SURFACE('',(#702),#706,.T.);
#708 = POLY_LOOP('',(#668,#665,#669,#672));
#709 = FACE_OUTER_BOUND('',#708,.T.);
#710 = DIRECTION('',(-1.000000000,0.000000000,0.000000000));
#711 = DIRECTION('',(0.000000000,-1.000000000,0.000000000));
#712 = AXIS2_PLACEMENT_3D('',#668,#710,#711);
#713 = PLANE('',#712);
#714 = FACE_SURFACE('',(#709),#713,.T.);
#715 = CLOSED_SHELL('',(#679,#686,#693,#700,#707,#714));
#716 = FACETED_BREP('black foot',#715);
#717 = CARTESIAN_POINT('',(65.550000000,0.000000000,-142.000000000));
#718 = CARTESIAN_POINT('',(83.550000000,0.000000000,-142.000000000));
#719 = CARTESIAN_POINT('',(83.550000000,8.000000000,-142.000000000));
#720 = CARTESIAN_POINT('',(65.550000000,8.000000000,-142.000000000));
#721 = CARTESIAN_POINT('',(65.550000000,0.000000000,-124.000000000));
#722 = CARTESIAN_POINT('',(83.550000000,0.000000000,-124.000000000));
#723 = CARTESIAN_POINT('',(83.550000000,8.000000000,-124.000000000));
#724 = CARTESIAN_POINT('',(65.550000000,8.000000000,-124.000000000));
#725 = POLY_LOOP('',(#717,#720,#719,#718));
#726 = FACE_OUTER_BOUND('',#725,.T.);
#727 = DIRECTION('',(0.000000000,0.000000000,-1.000000000));
#728 = DIRECTION('',(0.000000000,1.000000000,0.000000000));
#729 = AXIS2_PLACEMENT_3D('',#717,#727,#728);
#730 = PLANE('',#729);
#731 = FACE_SURFACE('',(#726),#730,.T.);
#732 = POLY_LOOP('',(#721,#722,#723,#724));
#733 = FACE_OUTER_BOUND('',#732,.T.);
#734 = DIRECTION('',(0.000000000,0.000000000,1.000000000));
#735 = DIRECTION('',(1.000000000,0.000000000,0.000000000));
#736 = AXIS2_PLACEMENT_3D('',#721,#734,#735);
#737 = PLANE('',#736);
#738 = FACE_SURFACE('',(#733),#737,.T.);
#739 = POLY_LOOP('',(#717,#718,#722,#721));
#740 = FACE_OUTER_BOUND('',#739,.T.);
#741 = DIRECTION('',(0.000000000,-1.000000000,0.000000000));
#742 = DIRECTION('',(1.000000000,0.000000000,0.000000000));
#743 = AXIS2_PLACEMENT_3D('',#717,#741,#742);
#744 = PLANE('',#743);
#745 = FACE_SURFACE('',(#740),#744,.T.);
#746 = POLY_LOOP('',(#718,#719,#723,#722));
#747 = FACE_OUTER_BOUND('',#746,.T.);
#748 = DIRECTION('',(1.000000000,0.000000000,0.000000000));
#749 = DIRECTION('',(0.000000000,1.000000000,0.000000000));
#750 = AXIS2_PLACEMENT_3D('',#718,#748,#749);
#751 = PLANE('',#750);
#752 = FACE_SURFACE('',(#747),#751,.T.);
#753 = POLY_LOOP('',(#719,#720,#724,#723));
#754 = FACE_OUTER_BOUND('',#753,.T.);
#755 = DIRECTION('',(0.000000000,1.000000000,0.000000000));
#756 = DIRECTION('',(-1.000000000,0.000000000,0.000000000));
#757 = AXIS2_PLACEMENT_3D('',#719,#755,#756);
#758 = PLANE('',#757);
#759 = FACE_SURFACE('',(#754),#758,.T.);
#760 = POLY_LOOP('',(#720,#717,#721,#724));
#761 = FACE_OUTER_BOUND('',#760,.T.);
#762 = DIRECTION('',(-1.000000000,0.000000000,0.000000000));
#763 = DIRECTION('',(0.000000000,-1.000000000,0.000000000));
#764 = AXIS2_PLACEMENT_3D('',#720,#762,#763);
#765 = PLANE('',#764);
#766 = FACE_SURFACE('',(#761),#765,.T.);
#767 = CLOSED_SHELL('',(#731,#738,#745,#752,#759,#766));
#768 = FACETED_BREP('black foot',#767);
#769 = CARTESIAN_POINT('',(65.550000000,0.000000000,124.000000000));
#770 = CARTESIAN_POINT('',(83.550000000,0.000000000,124.000000000));
#771 = CARTESIAN_POINT('',(83.550000000,8.000000000,124.000000000));
#772 = CARTESIAN_POINT('',(65.550000000,8.000000000,124.000000000));
#773 = CARTESIAN_POINT('',(65.550000000,0.000000000,142.000000000));
#774 = CARTESIAN_POINT('',(83.550000000,0.000000000,142.000000000));
#775 = CARTESIAN_POINT('',(83.550000000,8.000000000,142.000000000));
#776 = CARTESIAN_POINT('',(65.550000000,8.000000000,142.000000000));
#777 = POLY_LOOP('',(#769,#772,#771,#770));
#778 = FACE_OUTER_BOUND('',#777,.T.);
#779 = DIRECTION('',(0.000000000,0.000000000,-1.000000000));
#780 = DIRECTION('',(0.000000000,1.000000000,0.000000000));
#781 = AXIS2_PLACEMENT_3D('',#769,#779,#780);
#782 = PLANE('',#781);
#783 = FACE_SURFACE('',(#778),#782,.T.);
#784 = POLY_LOOP('',(#773,#774,#775,#776));
#785 = FACE_OUTER_BOUND('',#784,.T.);
#786 = DIRECTION('',(0.000000000,0.000000000,1.000000000));
#787 = DIRECTION('',(1.000000000,0.000000000,0.000000000));
#788 = AXIS2_PLACEMENT_3D('',#773,#786,#787);
#789 = PLANE('',#788);
#790 = FACE_SURFACE('',(#785),#789,.T.);
#791 = POLY_LOOP('',(#769,#770,#774,#773));
#792 = FACE_OUTER_BOUND('',#791,.T.);
#793 = DIRECTION('',(0.000000000,-1.000000000,0.000000000));
#794 = DIRECTION('',(1.000000000,0.000000000,0.000000000));
#795 = AXIS2_PLACEMENT_3D('',#769,#793,#794);
#796 = PLANE('',#795);
#797 = FACE_SURFACE('',(#792),#796,.T.);
#798 = POLY_LOOP('',(#770,#771,#775,#774));
#799 = FACE_OUTER_BOUND('',#798,.T.);
#800 = DIRECTION('',(1.000000000,0.000000000,0.000000000));
#801 = DIRECTION('',(0.000000000,1.000000000,0.000000000));
#802 = AXIS2_PLACEMENT_3D('',#770,#800,#801);
#803 = PLANE('',#802);
#804 = FACE_SURFACE('',(#799),#803,.T.);
#805 = POLY_LOOP('',(#771,#772,#776,#775));
#806 = FACE_OUTER_BOUND('',#805,.T.);
#807 = DIRECTION('',(0.000000000,1.000000000,0.000000000));
#808 = DIRECTION('',(-1.000000000,0.000000000,0.000000000));
#809 = AXIS2_PLACEMENT_3D('',#771,#807,#808);
#810 = PLANE('',#809);
#811 = FACE_SURFACE('',(#806),#810,.T.);
#812 = POLY_LOOP('',(#772,#769,#773,#776));
#813 = FACE_OUTER_BOUND('',#812,.T.);
#814 = DIRECTION('',(-1.000000000,0.000000000,0.000000000));
#815 = DIRECTION('',(0.000000000,-1.000000000,0.000000000));
#816 = AXIS2_PLACEMENT_3D('',#772,#814,#815);
#817 = PLANE('',#816);
#818 = FACE_SURFACE('',(#813),#817,.T.);
#819 = CLOSED_SHELL('',(#783,#790,#797,#804,#811,#818));
#820 = FACETED_BREP('black foot',#819);
#821 = APPLICATION_CONTEXT('configuration controlled 3d designs of mechanical parts and assemblies');
#822 = APPLICATION_PROTOCOL_DEFINITION('international standard','config_control_design',1994,#821);
#823 = PRODUCT_CONTEXT('',#821,'mechanical');
#824 = PRODUCT('REF','Illustrative reference','NOT vendor CAD',(#823));
#825 = PRODUCT_DEFINITION_FORMATION_WITH_SPECIFIED_SOURCE('','',#824,.NOT_KNOWN.);
#826 = PRODUCT_DEFINITION_CONTEXT('part definition',#821,'design');
#827 = PRODUCT_DEFINITION('design','',#825,#826);
#828 = PRODUCT_DEFINITION_SHAPE('','',#827);
#829 = (LENGTH_UNIT()NAMED_UNIT(*)SI_UNIT(.MILLI.,.METRE.));
#830 = (NAMED_UNIT(*)PLANE_ANGLE_UNIT()SI_UNIT($,.RADIAN.));
#831 = (NAMED_UNIT(*)SI_UNIT($,.STERADIAN.)SOLID_ANGLE_UNIT());
#832 = UNCERTAINTY_MEASURE_WITH_UNIT(LENGTH_MEASURE(0.000001),#829,'distance_accuracy_value','');
#833 = (GEOMETRIC_REPRESENTATION_CONTEXT(3)GLOBAL_UNCERTAINTY_ASSIGNED_CONTEXT((#832))GLOBAL_UNIT_ASSIGNED_CONTEXT((#829,#830,#831))REPRESENTATION_CONTEXT('',''));
#834 = FACETED_BREP_SHAPE_REPRESENTATION('Illustrative reference',(#52,#104,#156,#208,#260,#312,#364,#416,#612,#664,#716,#768,#820),#833);
#835 = SHAPE_DEFINITION_REPRESENTATION(#828,#834);
ENDSEC;
END-ISO-10303-21;
