ISO-10303-21;
HEADER;
FILE_DESCRIPTION(('Illustrative CAD - NOT vendor dimensions'),'2;1');
FILE_NAME('reference.step','2026-10-07',('CORNERSTONE'),(''),'reference generator','','');
FILE_SCHEMA(('CONFIG_CONTROL_DESIGN'));
ENDSEC;
DATA;
#1 = CARTESIAN_POINT('',(-60.000000000,0.000000000,-50.000000000));
#2 = CARTESIAN_POINT('',(60.000000000,0.000000000,-50.000000000));
#3 = CARTESIAN_POINT('',(60.000000000,125.000000000,-50.000000000));
#4 = CARTESIAN_POINT('',(-60.000000000,125.000000000,-50.000000000));
#5 = CARTESIAN_POINT('',(-60.000000000,0.000000000,50.000000000));
#6 = CARTESIAN_POINT('',(60.000000000,0.000000000,50.000000000));
#7 = CARTESIAN_POINT('',(60.000000000,125.000000000,50.000000000));
#8 = CARTESIAN_POINT('',(-60.000000000,125.000000000,50.000000000));
#9 = POLY_LOOP('',(#1,#4,#3,#2));
#10 = FACE_OUTER_BOUND('',#9,.T.);
#11 = DIRECTION('',(0.000000000,0.000000000,-1.000000000));
#12 = DIRECTION('',(0.000000000,1.000000000,0.000000000));
#13 = AXIS2_PLACEMENT_3D('',#1,#11,#12);
#14 = PLANE('',#13);
#15 = FACE_SURFACE('',(#10),#14,.T.);
#16 = POLY_LOOP('',(#5,#6,#7,#8));
#17 = FACE_OUTER_BOUND('',#16,.T.);
#18 = DIRECTION('',(0.000000000,0.000000000,1.000000000));
#19 = DIRECTION('',(1.000000000,0.000000000,0.000000000));
#20 = AXIS2_PLACEMENT_3D('',#5,#18,#19);
#21 = PLANE('',#20);
#22 = FACE_SURFACE('',(#17),#21,.T.);
#23 = POLY_LOOP('',(#1,#2,#6,#5));
#24 = FACE_OUTER_BOUND('',#23,.T.);
#25 = DIRECTION('',(0.000000000,-1.000000000,0.000000000));
#26 = DIRECTION('',(1.000000000,0.000000000,0.000000000));
#27 = AXIS2_PLACEMENT_3D('',#1,#25,#26);
#28 = PLANE('',#27);
#29 = FACE_SURFACE('',(#24),#28,.T.);
#30 = POLY_LOOP('',(#2,#3,#7,#6));
#31 = FACE_OUTER_BOUND('',#30,.T.);
#32 = DIRECTION('',(1.000000000,0.000000000,0.000000000));
#33 = DIRECTION('',(0.000000000,1.000000000,0.000000000));
#34 = AXIS2_PLACEMENT_3D('',#2,#32,#33);
#35 = PLANE('',#34);
#36 = FACE_SURFACE('',(#31),#35,.T.);
#37 = POLY_LOOP('',(#3,#4,#8,#7));
#38 = FACE_OUTER_BOUND('',#37,.T.);
#39 = DIRECTION('',(0.000000000,1.000000000,0.000000000));
#40 = DIRECTION('',(-1.000000000,0.000000000,0.000000000));
#41 = AXIS2_PLACEMENT_3D('',#3,#39,#40);
#42 = PLANE('',#41);
#43 = FACE_SURFACE('',(#38),#42,.T.);
#44 = POLY_LOOP('',(#4,#1,#5,#8));
#45 = FACE_OUTER_BOUND('',#44,.T.);
#46 = DIRECTION('',(-1.000000000,0.000000000,0.000000000));
#47 = DIRECTION('',(0.000000000,-1.000000000,0.000000000));
#48 = AXIS2_PLACEMENT_3D('',#4,#46,#47);
#49 = PLANE('',#48);
#50 = FACE_SURFACE('',(#45),#49,.T.);
#51 = CLOSED_SHELL('',(#15,#22,#29,#36,#43,#50));
#52 = FACETED_BREP('blue illuminator enclosure',#51);
#53 = CARTESIAN_POINT('',(20.000000000,65.000000000,-50.000000000));
#54 = CARTESIAN_POINT('',(19.021130326,58.819660113,-50.000000000));
#55 = CARTESIAN_POINT('',(16.180339887,53.244294954,-50.000000000));
#56 = CARTESIAN_POINT('',(11.755705046,48.819660113,-50.000000000));
#57 = CARTESIAN_POINT('',(6.180339887,45.978869674,-50.000000000));
#58 = CARTESIAN_POINT('',(0.000000000,45.000000000,-50.000000000));
#59 = CARTESIAN_POINT('',(-6.180339887,45.978869674,-50.000000000));
#60 = CARTESIAN_POINT('',(-11.755705046,48.819660113,-50.000000000));
#61 = CARTESIAN_POINT('',(-16.180339887,53.244294954,-50.000000000));
#62 = CARTESIAN_POINT('',(-19.021130326,58.819660113,-50.000000000));
#63 = CARTESIAN_POINT('',(-20.000000000,65.000000000,-50.000000000));
#64 = CARTESIAN_POINT('',(-19.021130326,71.180339887,-50.000000000));
#65 = CARTESIAN_POINT('',(-16.180339887,76.755705046,-50.000000000));
#66 = CARTESIAN_POINT('',(-11.755705046,81.180339887,-50.000000000));
#67 = CARTESIAN_POINT('',(-6.180339887,84.021130326,-50.000000000));
#68 = CARTESIAN_POINT('',(-0.000000000,85.000000000,-50.000000000));
#69 = CARTESIAN_POINT('',(6.180339887,84.021130326,-50.000000000));
#70 = CARTESIAN_POINT('',(11.755705046,81.180339887,-50.000000000));
#71 = CARTESIAN_POINT('',(16.180339887,76.755705046,-50.000000000));
#72 = CARTESIAN_POINT('',(19.021130326,71.180339887,-50.000000000));
#73 = CARTESIAN_POINT('',(20.000000000,65.000000000,-82.000000000));
#74 = CARTESIAN_POINT('',(19.021130326,58.819660113,-82.000000000));
#75 = CARTESIAN_POINT('',(16.180339887,53.244294954,-82.000000000));
#76 = CARTESIAN_POINT('',(11.755705046,48.819660113,-82.000000000));
#77 = CARTESIAN_POINT('',(6.180339887,45.978869674,-82.000000000));
#78 = CARTESIAN_POINT('',(0.000000000,45.000000000,-82.000000000));
#79 = CARTESIAN_POINT('',(-6.180339887,45.978869674,-82.000000000));
#80 = CARTESIAN_POINT('',(-11.755705046,48.819660113,-82.000000000));
#81 = CARTESIAN_POINT('',(-16.180339887,53.244294954,-82.000000000));
#82 = CARTESIAN_POINT('',(-19.021130326,58.819660113,-82.000000000));
#83 = CARTESIAN_POINT('',(-20.000000000,65.000000000,-82.000000000));
#84 = CARTESIAN_POINT('',(-19.021130326,71.180339887,-82.000000000));
#85 = CARTESIAN_POINT('',(-16.180339887,76.755705046,-82.000000000));
#86 = CARTESIAN_POINT('',(-11.755705046,81.180339887,-82.000000000));
#87 = CARTESIAN_POINT('',(-6.180339887,84.021130326,-82.000000000));
#88 = CARTESIAN_POINT('',(-0.000000000,85.000000000,-82.000000000));
#89 = CARTESIAN_POINT('',(6.180339887,84.021130326,-82.000000000));
#90 = CARTESIAN_POINT('',(11.755705046,81.180339887,-82.000000000));
#91 = CARTESIAN_POINT('',(16.180339887,76.755705046,-82.000000000));
#92 = CARTESIAN_POINT('',(19.021130326,71.180339887,-82.000000000));
#93 = POLY_LOOP('',(#72,#71,#70,#69,#68,#67,#66,#65,#64,#63,#62,#61,#60,#59,#58,#57,#56,#55,#54,#53));
#94 = FACE_OUTER_BOUND('',#93,.T.);
#95 = DIRECTION('',(0.000000000,0.000000000,1.000000000));
#96 = DIRECTION('',(-0.453990500,0.891006524,0.000000000));
#97 = AXIS2_PLACEMENT_3D('',#72,#95,#96);
#98 = PLANE('',#97);
#99 = FACE_SURFACE('',(#94),#98,.T.);
#100 = POLY_LOOP('',(#73,#74,#75,#76,#77,#78,#79,#80,#81,#82,#83,#84,#85,#86,#87,#88,#89,#90,#91,#92));
#101 = FACE_OUTER_BOUND('',#100,.T.);
#102 = DIRECTION('',(0.000000000,0.000000000,-1.000000000));
#103 = DIRECTION('',(-0.156434465,-0.987688341,0.000000000));
#104 = AXIS2_PLACEMENT_3D('',#73,#102,#103);
#105 = PLANE('',#104);
#106 = FACE_SURFACE('',(#101),#105,.T.);
#107 = POLY_LOOP('',(#53,#54,#74,#73));
#108 = FACE_OUTER_BOUND('',#107,.T.);
#109 = DIRECTION('',(0.987688341,-0.156434465,0.000000000));
#110 = DIRECTION('',(-0.156434465,-0.987688341,0.000000000));
#111 = AXIS2_PLACEMENT_3D('',#53,#109,#110);
#112 = PLANE('',#111);
#113 = FACE_SURFACE('',(#108),#112,.T.);
#114 = POLY_LOOP('',(#54,#55,#75,#74));
#115 = FACE_OUTER_BOUND('',#114,.T.);
#116 = DIRECTION('',(0.891006524,-0.453990500,0.000000000));
#117 = DIRECTION('',(-0.453990500,-0.891006524,0.000000000));
#118 = AXIS2_PLACEMENT_3D('',#54,#116,#117);
#119 = PLANE('',#118);
#120 = FACE_SURFACE('',(#115),#119,.T.);
#121 = POLY_LOOP('',(#55,#56,#76,#75));
#122 = FACE_OUTER_BOUND('',#121,.T.);
#123 = DIRECTION('',(0.707106781,-0.707106781,0.000000000));
#124 = DIRECTION('',(-0.707106781,-0.707106781,0.000000000));
#125 = AXIS2_PLACEMENT_3D('',#55,#123,#124);
#126 = PLANE('',#125);
#127 = FACE_SURFACE('',(#122),#126,.T.);
#128 = POLY_LOOP('',(#56,#57,#77,#76));
#129 = FACE_OUTER_BOUND('',#128,.T.);
#130 = DIRECTION('',(0.453990500,-0.891006524,0.000000000));
#131 = DIRECTION('',(-0.891006524,-0.453990500,0.000000000));
#132 = AXIS2_PLACEMENT_3D('',#56,#130,#131);
#133 = PLANE('',#132);
#134 = FACE_SURFACE('',(#129),#133,.T.);
#135 = POLY_LOOP('',(#57,#58,#78,#77));
#136 = FACE_OUTER_BOUND('',#135,.T.);
#137 = DIRECTION('',(0.156434465,-0.987688341,0.000000000));
#138 = DIRECTION('',(-0.987688341,-0.156434465,0.000000000));
#139 = AXIS2_PLACEMENT_3D('',#57,#137,#138);
#140 = PLANE('',#139);
#141 = FACE_SURFACE('',(#136),#140,.T.);
#142 = POLY_LOOP('',(#58,#59,#79,#78));
#143 = FACE_OUTER_BOUND('',#142,.T.);
#144 = DIRECTION('',(-0.156434465,-0.987688341,0.000000000));
#145 = DIRECTION('',(-0.987688341,0.156434465,0.000000000));
#146 = AXIS2_PLACEMENT_3D('',#58,#144,#145);
#147 = PLANE('',#146);
#148 = FACE_SURFACE('',(#143),#147,.T.);
#149 = POLY_LOOP('',(#59,#60,#80,#79));
#150 = FACE_OUTER_BOUND('',#149,.T.);
#151 = DIRECTION('',(-0.453990500,-0.891006524,0.000000000));
#152 = DIRECTION('',(-0.891006524,0.453990500,0.000000000));
#153 = AXIS2_PLACEMENT_3D('',#59,#151,#152);
#154 = PLANE('',#153);
#155 = FACE_SURFACE('',(#150),#154,.T.);
#156 = POLY_LOOP('',(#60,#61,#81,#80));
#157 = FACE_OUTER_BOUND('',#156,.T.);
#158 = DIRECTION('',(-0.707106781,-0.707106781,0.000000000));
#159 = DIRECTION('',(-0.707106781,0.707106781,0.000000000));
#160 = AXIS2_PLACEMENT_3D('',#60,#158,#159);
#161 = PLANE('',#160);
#162 = FACE_SURFACE('',(#157),#161,.T.);
#163 = POLY_LOOP('',(#61,#62,#82,#81));
#164 = FACE_OUTER_BOUND('',#163,.T.);
#165 = DIRECTION('',(-0.891006524,-0.453990500,0.000000000));
#166 = DIRECTION('',(-0.453990500,0.891006524,0.000000000));
#167 = AXIS2_PLACEMENT_3D('',#61,#165,#166);
#168 = PLANE('',#167);
#169 = FACE_SURFACE('',(#164),#168,.T.);
#170 = POLY_LOOP('',(#62,#63,#83,#82));
#171 = FACE_OUTER_BOUND('',#170,.T.);
#172 = DIRECTION('',(-0.987688341,-0.156434465,0.000000000));
#173 = DIRECTION('',(-0.156434465,0.987688341,0.000000000));
#174 = AXIS2_PLACEMENT_3D('',#62,#172,#173);
#175 = PLANE('',#174);
#176 = FACE_SURFACE('',(#171),#175,.T.);
#177 = POLY_LOOP('',(#63,#64,#84,#83));
#178 = FACE_OUTER_BOUND('',#177,.T.);
#179 = DIRECTION('',(-0.987688341,0.156434465,0.000000000));
#180 = DIRECTION('',(0.156434465,0.987688341,0.000000000));
#181 = AXIS2_PLACEMENT_3D('',#63,#179,#180);
#182 = PLANE('',#181);
#183 = FACE_SURFACE('',(#178),#182,.T.);
#184 = POLY_LOOP('',(#64,#65,#85,#84));
#185 = FACE_OUTER_BOUND('',#184,.T.);
#186 = DIRECTION('',(-0.891006524,0.453990500,0.000000000));
#187 = DIRECTION('',(0.453990500,0.891006524,0.000000000));
#188 = AXIS2_PLACEMENT_3D('',#64,#186,#187);
#189 = PLANE('',#188);
#190 = FACE_SURFACE('',(#185),#189,.T.);
#191 = POLY_LOOP('',(#65,#66,#86,#85));
#192 = FACE_OUTER_BOUND('',#191,.T.);
#193 = DIRECTION('',(-0.707106781,0.707106781,0.000000000));
#194 = DIRECTION('',(0.707106781,0.707106781,0.000000000));
#195 = AXIS2_PLACEMENT_3D('',#65,#193,#194);
#196 = PLANE('',#195);
#197 = FACE_SURFACE('',(#192),#196,.T.);
#198 = POLY_LOOP('',(#66,#67,#87,#86));
#199 = FACE_OUTER_BOUND('',#198,.T.);
#200 = DIRECTION('',(-0.453990500,0.891006524,0.000000000));
#201 = DIRECTION('',(0.891006524,0.453990500,0.000000000));
#202 = AXIS2_PLACEMENT_3D('',#66,#200,#201);
#203 = PLANE('',#202);
#204 = FACE_SURFACE('',(#199),#203,.T.);
#205 = POLY_LOOP('',(#67,#68,#88,#87));
#206 = FACE_OUTER_BOUND('',#205,.T.);
#207 = DIRECTION('',(-0.156434465,0.987688341,0.000000000));
#208 = DIRECTION('',(0.987688341,0.156434465,0.000000000));
#209 = AXIS2_PLACEMENT_3D('',#67,#207,#208);
#210 = PLANE('',#209);
#211 = FACE_SURFACE('',(#206),#210,.T.);
#212 = POLY_LOOP('',(#68,#69,#89,#88));
#213 = FACE_OUTER_BOUND('',#212,.T.);
#214 = DIRECTION('',(0.156434465,0.987688341,0.000000000));
#215 = DIRECTION('',(0.987688341,-0.156434465,0.000000000));
#216 = AXIS2_PLACEMENT_3D('',#68,#214,#215);
#217 = PLANE('',#216);
#218 = FACE_SURFACE('',(#213),#217,.T.);
#219 = POLY_LOOP('',(#69,#70,#90,#89));
#220 = FACE_OUTER_BOUND('',#219,.T.);
#221 = DIRECTION('',(0.453990500,0.891006524,0.000000000));
#222 = DIRECTION('',(0.891006524,-0.453990500,0.000000000));
#223 = AXIS2_PLACEMENT_3D('',#69,#221,#222);
#224 = PLANE('',#223);
#225 = FACE_SURFACE('',(#220),#224,.T.);
#226 = POLY_LOOP('',(#70,#71,#91,#90));
#227 = FACE_OUTER_BOUND('',#226,.T.);
#228 = DIRECTION('',(0.707106781,0.707106781,0.000000000));
#229 = DIRECTION('',(0.707106781,-0.707106781,0.000000000));
#230 = AXIS2_PLACEMENT_3D('',#70,#228,#229);
#231 = PLANE('',#230);
#232 = FACE_SURFACE('',(#227),#231,.T.);
#233 = POLY_LOOP('',(#71,#72,#92,#91));
#234 = FACE_OUTER_BOUND('',#233,.T.);
#235 = DIRECTION('',(0.891006524,0.453990500,0.000000000));
#236 = DIRECTION('',(0.453990500,-0.891006524,0.000000000));
#237 = AXIS2_PLACEMENT_3D('',#71,#235,#236);
#238 = PLANE('',#237);
#239 = FACE_SURFACE('',(#234),#238,.T.);
#240 = POLY_LOOP('',(#72,#53,#73,#92));
#241 = FACE_OUTER_BOUND('',#240,.T.);
#242 = DIRECTION('',(0.987688341,0.156434465,0.000000000));
#243 = DIRECTION('',(0.156434465,-0.987688341,0.000000000));
#244 = AXIS2_PLACEMENT_3D('',#72,#242,#243);
#245 = PLANE('',#244);
#246 = FACE_SURFACE('',(#241),#245,.T.);
#247 = CLOSED_SHELL('',(#99,#106,#113,#120,#127,#134,#141,#148,#155,#162,#169,#176,#183,#190,#197,#204,#211,#218,#225,#232,#239,#246));
#248 = FACETED_BREP('silver optical fitting',#247);
#249 = CARTESIAN_POINT('',(9.000000000,65.000000000,-82.000000000));
#250 = CARTESIAN_POINT('',(8.559508647,62.218847051,-82.000000000));
#251 = CARTESIAN_POINT('',(7.281152949,59.709932729,-82.000000000));
#252 = CARTESIAN_POINT('',(5.290067271,57.718847051,-82.000000000));
#253 = CARTESIAN_POINT('',(2.781152949,56.440491353,-82.000000000));
#254 = CARTESIAN_POINT('',(0.000000000,56.000000000,-82.000000000));
#255 = CARTESIAN_POINT('',(-2.781152949,56.440491353,-82.000000000));
#256 = CARTESIAN_POINT('',(-5.290067271,57.718847051,-82.000000000));
#257 = CARTESIAN_POINT('',(-7.281152949,59.709932729,-82.000000000));
#258 = CARTESIAN_POINT('',(-8.559508647,62.218847051,-82.000000000));
#259 = CARTESIAN_POINT('',(-9.000000000,65.000000000,-82.000000000));
#260 = CARTESIAN_POINT('',(-8.559508647,67.781152949,-82.000000000));
#261 = CARTESIAN_POINT('',(-7.281152949,70.290067271,-82.000000000));
#262 = CARTESIAN_POINT('',(-5.290067271,72.281152949,-82.000000000));
#263 = CARTESIAN_POINT('',(-2.781152949,73.559508647,-82.000000000));
#264 = CARTESIAN_POINT('',(-0.000000000,74.000000000,-82.000000000));
#265 = CARTESIAN_POINT('',(2.781152949,73.559508647,-82.000000000));
#266 = CARTESIAN_POINT('',(5.290067271,72.281152949,-82.000000000));
#267 = CARTESIAN_POINT('',(7.281152949,70.290067271,-82.000000000));
#268 = CARTESIAN_POINT('',(8.559508647,67.781152949,-82.000000000));
#269 = CARTESIAN_POINT('',(9.000000000,65.000000000,-84.000000000));
#270 = CARTESIAN_POINT('',(8.559508647,62.218847051,-84.000000000));
#271 = CARTESIAN_POINT('',(7.281152949,59.709932729,-84.000000000));
#272 = CARTESIAN_POINT('',(5.290067271,57.718847051,-84.000000000));
#273 = CARTESIAN_POINT('',(2.781152949,56.440491353,-84.000000000));
#274 = CARTESIAN_POINT('',(0.000000000,56.000000000,-84.000000000));
#275 = CARTESIAN_POINT('',(-2.781152949,56.440491353,-84.000000000));
#276 = CARTESIAN_POINT('',(-5.290067271,57.718847051,-84.000000000));
#277 = CARTESIAN_POINT('',(-7.281152949,59.709932729,-84.000000000));
#278 = CARTESIAN_POINT('',(-8.559508647,62.218847051,-84.000000000));
#279 = CARTESIAN_POINT('',(-9.000000000,65.000000000,-84.000000000));
#280 = CARTESIAN_POINT('',(-8.559508647,67.781152949,-84.000000000));
#281 = CARTESIAN_POINT('',(-7.281152949,70.290067271,-84.000000000));
#282 = CARTESIAN_POINT('',(-5.290067271,72.281152949,-84.000000000));
#283 = CARTESIAN_POINT('',(-2.781152949,73.559508647,-84.000000000));
#284 = CARTESIAN_POINT('',(-0.000000000,74.000000000,-84.000000000));
#285 = CARTESIAN_POINT('',(2.781152949,73.559508647,-84.000000000));
#286 = CARTESIAN_POINT('',(5.290067271,72.281152949,-84.000000000));
#287 = CARTESIAN_POINT('',(7.281152949,70.290067271,-84.000000000));
#288 = CARTESIAN_POINT('',(8.559508647,67.781152949,-84.000000000));
#289 = POLY_LOOP('',(#268,#267,#266,#265,#264,#263,#262,#261,#260,#259,#258,#257,#256,#255,#254,#253,#252,#251,#250,#249));
#290 = FACE_OUTER_BOUND('',#289,.T.);
#291 = DIRECTION('',(0.000000000,0.000000000,1.000000000));
#292 = DIRECTION('',(-0.453990500,0.891006524,0.000000000));
#293 = AXIS2_PLACEMENT_3D('',#268,#291,#292);
#294 = PLANE('',#293);
#295 = FACE_SURFACE('',(#290),#294,.T.);
#296 = POLY_LOOP('',(#269,#270,#271,#272,#273,#274,#275,#276,#277,#278,#279,#280,#281,#282,#283,#284,#285,#286,#287,#288));
#297 = FACE_OUTER_BOUND('',#296,.T.);
#298 = DIRECTION('',(0.000000000,0.000000000,-1.000000000));
#299 = DIRECTION('',(-0.156434465,-0.987688341,0.000000000));
#300 = AXIS2_PLACEMENT_3D('',#269,#298,#299);
#301 = PLANE('',#300);
#302 = FACE_SURFACE('',(#297),#301,.T.);
#303 = POLY_LOOP('',(#249,#250,#270,#269));
#304 = FACE_OUTER_BOUND('',#303,.T.);
#305 = DIRECTION('',(0.987688341,-0.156434465,0.000000000));
#306 = DIRECTION('',(-0.156434465,-0.987688341,0.000000000));
#307 = AXIS2_PLACEMENT_3D('',#249,#305,#306);
#308 = PLANE('',#307);
#309 = FACE_SURFACE('',(#304),#308,.T.);
#310 = POLY_LOOP('',(#250,#251,#271,#270));
#311 = FACE_OUTER_BOUND('',#310,.T.);
#312 = DIRECTION('',(0.891006524,-0.453990500,0.000000000));
#313 = DIRECTION('',(-0.453990500,-0.891006524,0.000000000));
#314 = AXIS2_PLACEMENT_3D('',#250,#312,#313);
#315 = PLANE('',#314);
#316 = FACE_SURFACE('',(#311),#315,.T.);
#317 = POLY_LOOP('',(#251,#252,#272,#271));
#318 = FACE_OUTER_BOUND('',#317,.T.);
#319 = DIRECTION('',(0.707106781,-0.707106781,0.000000000));
#320 = DIRECTION('',(-0.707106781,-0.707106781,0.000000000));
#321 = AXIS2_PLACEMENT_3D('',#251,#319,#320);
#322 = PLANE('',#321);
#323 = FACE_SURFACE('',(#318),#322,.T.);
#324 = POLY_LOOP('',(#252,#253,#273,#272));
#325 = FACE_OUTER_BOUND('',#324,.T.);
#326 = DIRECTION('',(0.453990500,-0.891006524,0.000000000));
#327 = DIRECTION('',(-0.891006524,-0.453990500,0.000000000));
#328 = AXIS2_PLACEMENT_3D('',#252,#326,#327);
#329 = PLANE('',#328);
#330 = FACE_SURFACE('',(#325),#329,.T.);
#331 = POLY_LOOP('',(#253,#254,#274,#273));
#332 = FACE_OUTER_BOUND('',#331,.T.);
#333 = DIRECTION('',(0.156434465,-0.987688341,0.000000000));
#334 = DIRECTION('',(-0.987688341,-0.156434465,0.000000000));
#335 = AXIS2_PLACEMENT_3D('',#253,#333,#334);
#336 = PLANE('',#335);
#337 = FACE_SURFACE('',(#332),#336,.T.);
#338 = POLY_LOOP('',(#254,#255,#275,#274));
#339 = FACE_OUTER_BOUND('',#338,.T.);
#340 = DIRECTION('',(-0.156434465,-0.987688341,0.000000000));
#341 = DIRECTION('',(-0.987688341,0.156434465,0.000000000));
#342 = AXIS2_PLACEMENT_3D('',#254,#340,#341);
#343 = PLANE('',#342);
#344 = FACE_SURFACE('',(#339),#343,.T.);
#345 = POLY_LOOP('',(#255,#256,#276,#275));
#346 = FACE_OUTER_BOUND('',#345,.T.);
#347 = DIRECTION('',(-0.453990500,-0.891006524,0.000000000));
#348 = DIRECTION('',(-0.891006524,0.453990500,0.000000000));
#349 = AXIS2_PLACEMENT_3D('',#255,#347,#348);
#350 = PLANE('',#349);
#351 = FACE_SURFACE('',(#346),#350,.T.);
#352 = POLY_LOOP('',(#256,#257,#277,#276));
#353 = FACE_OUTER_BOUND('',#352,.T.);
#354 = DIRECTION('',(-0.707106781,-0.707106781,0.000000000));
#355 = DIRECTION('',(-0.707106781,0.707106781,0.000000000));
#356 = AXIS2_PLACEMENT_3D('',#256,#354,#355);
#357 = PLANE('',#356);
#358 = FACE_SURFACE('',(#353),#357,.T.);
#359 = POLY_LOOP('',(#257,#258,#278,#277));
#360 = FACE_OUTER_BOUND('',#359,.T.);
#361 = DIRECTION('',(-0.891006524,-0.453990500,0.000000000));
#362 = DIRECTION('',(-0.453990500,0.891006524,0.000000000));
#363 = AXIS2_PLACEMENT_3D('',#257,#361,#362);
#364 = PLANE('',#363);
#365 = FACE_SURFACE('',(#360),#364,.T.);
#366 = POLY_LOOP('',(#258,#259,#279,#278));
#367 = FACE_OUTER_BOUND('',#366,.T.);
#368 = DIRECTION('',(-0.987688341,-0.156434465,0.000000000));
#369 = DIRECTION('',(-0.156434465,0.987688341,0.000000000));
#370 = AXIS2_PLACEMENT_3D('',#258,#368,#369);
#371 = PLANE('',#370);
#372 = FACE_SURFACE('',(#367),#371,.T.);
#373 = POLY_LOOP('',(#259,#260,#280,#279));
#374 = FACE_OUTER_BOUND('',#373,.T.);
#375 = DIRECTION('',(-0.987688341,0.156434465,0.000000000));
#376 = DIRECTION('',(0.156434465,0.987688341,0.000000000));
#377 = AXIS2_PLACEMENT_3D('',#259,#375,#376);
#378 = PLANE('',#377);
#379 = FACE_SURFACE('',(#374),#378,.T.);
#380 = POLY_LOOP('',(#260,#261,#281,#280));
#381 = FACE_OUTER_BOUND('',#380,.T.);
#382 = DIRECTION('',(-0.891006524,0.453990500,0.000000000));
#383 = DIRECTION('',(0.453990500,0.891006524,0.000000000));
#384 = AXIS2_PLACEMENT_3D('',#260,#382,#383);
#385 = PLANE('',#384);
#386 = FACE_SURFACE('',(#381),#385,.T.);
#387 = POLY_LOOP('',(#261,#262,#282,#281));
#388 = FACE_OUTER_BOUND('',#387,.T.);
#389 = DIRECTION('',(-0.707106781,0.707106781,0.000000000));
#390 = DIRECTION('',(0.707106781,0.707106781,0.000000000));
#391 = AXIS2_PLACEMENT_3D('',#261,#389,#390);
#392 = PLANE('',#391);
#393 = FACE_SURFACE('',(#388),#392,.T.);
#394 = POLY_LOOP('',(#262,#263,#283,#282));
#395 = FACE_OUTER_BOUND('',#394,.T.);
#396 = DIRECTION('',(-0.453990500,0.891006524,0.000000000));
#397 = DIRECTION('',(0.891006524,0.453990500,0.000000000));
#398 = AXIS2_PLACEMENT_3D('',#262,#396,#397);
#399 = PLANE('',#398);
#400 = FACE_SURFACE('',(#395),#399,.T.);
#401 = POLY_LOOP('',(#263,#264,#284,#283));
#402 = FACE_OUTER_BOUND('',#401,.T.);
#403 = DIRECTION('',(-0.156434465,0.987688341,0.000000000));
#404 = DIRECTION('',(0.987688341,0.156434465,0.000000000));
#405 = AXIS2_PLACEMENT_3D('',#263,#403,#404);
#406 = PLANE('',#405);
#407 = FACE_SURFACE('',(#402),#406,.T.);
#408 = POLY_LOOP('',(#264,#265,#285,#284));
#409 = FACE_OUTER_BOUND('',#408,.T.);
#410 = DIRECTION('',(0.156434465,0.987688341,0.000000000));
#411 = DIRECTION('',(0.987688341,-0.156434465,0.000000000));
#412 = AXIS2_PLACEMENT_3D('',#264,#410,#411);
#413 = PLANE('',#412);
#414 = FACE_SURFACE('',(#409),#413,.T.);
#415 = POLY_LOOP('',(#265,#266,#286,#285));
#416 = FACE_OUTER_BOUND('',#415,.T.);
#417 = DIRECTION('',(0.453990500,0.891006524,0.000000000));
#418 = DIRECTION('',(0.891006524,-0.453990500,0.000000000));
#419 = AXIS2_PLACEMENT_3D('',#265,#417,#418);
#420 = PLANE('',#419);
#421 = FACE_SURFACE('',(#416),#420,.T.);
#422 = POLY_LOOP('',(#266,#267,#287,#286));
#423 = FACE_OUTER_BOUND('',#422,.T.);
#424 = DIRECTION('',(0.707106781,0.707106781,0.000000000));
#425 = DIRECTION('',(0.707106781,-0.707106781,0.000000000));
#426 = AXIS2_PLACEMENT_3D('',#266,#424,#425);
#427 = PLANE('',#426);
#428 = FACE_SURFACE('',(#423),#427,.T.);
#429 = POLY_LOOP('',(#267,#268,#288,#287));
#430 = FACE_OUTER_BOUND('',#429,.T.);
#431 = DIRECTION('',(0.891006524,0.453990500,0.000000000));
#432 = DIRECTION('',(0.453990500,-0.891006524,0.000000000));
#433 = AXIS2_PLACEMENT_3D('',#267,#431,#432);
#434 = PLANE('',#433);
#435 = FACE_SURFACE('',(#430),#434,.T.);
#436 = POLY_LOOP('',(#268,#249,#269,#288));
#437 = FACE_OUTER_BOUND('',#436,.T.);
#438 = DIRECTION('',(0.987688341,0.156434465,0.000000000));
#439 = DIRECTION('',(0.156434465,-0.987688341,0.000000000));
#440 = AXIS2_PLACEMENT_3D('',#268,#438,#439);
#441 = PLANE('',#440);
#442 = FACE_SURFACE('',(#437),#441,.T.);
#443 = CLOSED_SHELL('',(#295,#302,#309,#316,#323,#330,#337,#344,#351,#358,#365,#372,#379,#386,#393,#400,#407,#414,#421,#428,#435,#442));
#444 = FACETED_BREP('black fitting aperture',#443);
#445 = CARTESIAN_POINT('',(45.000000000,40.000000000,-50.000000000));
#446 = CARTESIAN_POINT('',(44.510565163,36.909830056,-50.000000000));
#447 = CARTESIAN_POINT('',(43.090169944,34.122147477,-50.000000000));
#448 = CARTESIAN_POINT('',(40.877852523,31.909830056,-50.000000000));
#449 = CARTESIAN_POINT('',(38.090169944,30.489434837,-50.000000000));
#450 = CARTESIAN_POINT('',(35.000000000,30.000000000,-50.000000000));
#451 = CARTESIAN_POINT('',(31.909830056,30.489434837,-50.000000000));
#452 = CARTESIAN_POINT('',(29.122147477,31.909830056,-50.000000000));
#453 = CARTESIAN_POINT('',(26.909830056,34.122147477,-50.000000000));
#454 = CARTESIAN_POINT('',(25.489434837,36.909830056,-50.000000000));
#455 = CARTESIAN_POINT('',(25.000000000,40.000000000,-50.000000000));
#456 = CARTESIAN_POINT('',(25.489434837,43.090169944,-50.000000000));
#457 = CARTESIAN_POINT('',(26.909830056,45.877852523,-50.000000000));
#458 = CARTESIAN_POINT('',(29.122147477,48.090169944,-50.000000000));
#459 = CARTESIAN_POINT('',(31.909830056,49.510565163,-50.000000000));
#460 = CARTESIAN_POINT('',(35.000000000,50.000000000,-50.000000000));
#461 = CARTESIAN_POINT('',(38.090169944,49.510565163,-50.000000000));
#462 = CARTESIAN_POINT('',(40.877852523,48.090169944,-50.000000000));
#463 = CARTESIAN_POINT('',(43.090169944,45.877852523,-50.000000000));
#464 = CARTESIAN_POINT('',(44.510565163,43.090169944,-50.000000000));
#465 = CARTESIAN_POINT('',(45.000000000,40.000000000,-65.000000000));
#466 = CARTESIAN_POINT('',(44.510565163,36.909830056,-65.000000000));
#467 = CARTESIAN_POINT('',(43.090169944,34.122147477,-65.000000000));
#468 = CARTESIAN_POINT('',(40.877852523,31.909830056,-65.000000000));
#469 = CARTESIAN_POINT('',(38.090169944,30.489434837,-65.000000000));
#470 = CARTESIAN_POINT('',(35.000000000,30.000000000,-65.000000000));
#471 = CARTESIAN_POINT('',(31.909830056,30.489434837,-65.000000000));
#472 = CARTESIAN_POINT('',(29.122147477,31.909830056,-65.000000000));
#473 = CARTESIAN_POINT('',(26.909830056,34.122147477,-65.000000000));
#474 = CARTESIAN_POINT('',(25.489434837,36.909830056,-65.000000000));
#475 = CARTESIAN_POINT('',(25.000000000,40.000000000,-65.000000000));
#476 = CARTESIAN_POINT('',(25.489434837,43.090169944,-65.000000000));
#477 = CARTESIAN_POINT('',(26.909830056,45.877852523,-65.000000000));
#478 = CARTESIAN_POINT('',(29.122147477,48.090169944,-65.000000000));
#479 = CARTESIAN_POINT('',(31.909830056,49.510565163,-65.000000000));
#480 = CARTESIAN_POINT('',(35.000000000,50.000000000,-65.000000000));
#481 = CARTESIAN_POINT('',(38.090169944,49.510565163,-65.000000000));
#482 = CARTESIAN_POINT('',(40.877852523,48.090169944,-65.000000000));
#483 = CARTESIAN_POINT('',(43.090169944,45.877852523,-65.000000000));
#484 = CARTESIAN_POINT('',(44.510565163,43.090169944,-65.000000000));
#485 = POLY_LOOP('',(#464,#463,#462,#461,#460,#459,#458,#457,#456,#455,#454,#453,#452,#451,#450,#449,#448,#447,#446,#445));
#486 = FACE_OUTER_BOUND('',#485,.T.);
#487 = DIRECTION('',(0.000000000,0.000000000,1.000000000));
#488 = DIRECTION('',(-0.453990500,0.891006524,0.000000000));
#489 = AXIS2_PLACEMENT_3D('',#464,#487,#488);
#490 = PLANE('',#489);
#491 = FACE_SURFACE('',(#486),#490,.T.);
#492 = POLY_LOOP('',(#465,#466,#467,#468,#469,#470,#471,#472,#473,#474,#475,#476,#477,#478,#479,#480,#481,#482,#483,#484));
#493 = FACE_OUTER_BOUND('',#492,.T.);
#494 = DIRECTION('',(0.000000000,0.000000000,-1.000000000));
#495 = DIRECTION('',(-0.156434465,-0.987688341,0.000000000));
#496 = AXIS2_PLACEMENT_3D('',#465,#494,#495);
#497 = PLANE('',#496);
#498 = FACE_SURFACE('',(#493),#497,.T.);
#499 = POLY_LOOP('',(#445,#446,#466,#465));
#500 = FACE_OUTER_BOUND('',#499,.T.);
#501 = DIRECTION('',(0.987688341,-0.156434465,0.000000000));
#502 = DIRECTION('',(-0.156434465,-0.987688341,0.000000000));
#503 = AXIS2_PLACEMENT_3D('',#445,#501,#502);
#504 = PLANE('',#503);
#505 = FACE_SURFACE('',(#500),#504,.T.);
#506 = POLY_LOOP('',(#446,#447,#467,#466));
#507 = FACE_OUTER_BOUND('',#506,.T.);
#508 = DIRECTION('',(0.891006524,-0.453990500,0.000000000));
#509 = DIRECTION('',(-0.453990500,-0.891006524,0.000000000));
#510 = AXIS2_PLACEMENT_3D('',#446,#508,#509);
#511 = PLANE('',#510);
#512 = FACE_SURFACE('',(#507),#511,.T.);
#513 = POLY_LOOP('',(#447,#448,#468,#467));
#514 = FACE_OUTER_BOUND('',#513,.T.);
#515 = DIRECTION('',(0.707106781,-0.707106781,0.000000000));
#516 = DIRECTION('',(-0.707106781,-0.707106781,0.000000000));
#517 = AXIS2_PLACEMENT_3D('',#447,#515,#516);
#518 = PLANE('',#517);
#519 = FACE_SURFACE('',(#514),#518,.T.);
#520 = POLY_LOOP('',(#448,#449,#469,#468));
#521 = FACE_OUTER_BOUND('',#520,.T.);
#522 = DIRECTION('',(0.453990500,-0.891006524,0.000000000));
#523 = DIRECTION('',(-0.891006524,-0.453990500,0.000000000));
#524 = AXIS2_PLACEMENT_3D('',#448,#522,#523);
#525 = PLANE('',#524);
#526 = FACE_SURFACE('',(#521),#525,.T.);
#527 = POLY_LOOP('',(#449,#450,#470,#469));
#528 = FACE_OUTER_BOUND('',#527,.T.);
#529 = DIRECTION('',(0.156434465,-0.987688341,0.000000000));
#530 = DIRECTION('',(-0.987688341,-0.156434465,0.000000000));
#531 = AXIS2_PLACEMENT_3D('',#449,#529,#530);
#532 = PLANE('',#531);
#533 = FACE_SURFACE('',(#528),#532,.T.);
#534 = POLY_LOOP('',(#450,#451,#471,#470));
#535 = FACE_OUTER_BOUND('',#534,.T.);
#536 = DIRECTION('',(-0.156434465,-0.987688341,0.000000000));
#537 = DIRECTION('',(-0.987688341,0.156434465,0.000000000));
#538 = AXIS2_PLACEMENT_3D('',#450,#536,#537);
#539 = PLANE('',#538);
#540 = FACE_SURFACE('',(#535),#539,.T.);
#541 = POLY_LOOP('',(#451,#452,#472,#471));
#542 = FACE_OUTER_BOUND('',#541,.T.);
#543 = DIRECTION('',(-0.453990500,-0.891006524,0.000000000));
#544 = DIRECTION('',(-0.891006524,0.453990500,0.000000000));
#545 = AXIS2_PLACEMENT_3D('',#451,#543,#544);
#546 = PLANE('',#545);
#547 = FACE_SURFACE('',(#542),#546,.T.);
#548 = POLY_LOOP('',(#452,#453,#473,#472));
#549 = FACE_OUTER_BOUND('',#548,.T.);
#550 = DIRECTION('',(-0.707106781,-0.707106781,0.000000000));
#551 = DIRECTION('',(-0.707106781,0.707106781,0.000000000));
#552 = AXIS2_PLACEMENT_3D('',#452,#550,#551);
#553 = PLANE('',#552);
#554 = FACE_SURFACE('',(#549),#553,.T.);
#555 = POLY_LOOP('',(#453,#454,#474,#473));
#556 = FACE_OUTER_BOUND('',#555,.T.);
#557 = DIRECTION('',(-0.891006524,-0.453990500,0.000000000));
#558 = DIRECTION('',(-0.453990500,0.891006524,0.000000000));
#559 = AXIS2_PLACEMENT_3D('',#453,#557,#558);
#560 = PLANE('',#559);
#561 = FACE_SURFACE('',(#556),#560,.T.);
#562 = POLY_LOOP('',(#454,#455,#475,#474));
#563 = FACE_OUTER_BOUND('',#562,.T.);
#564 = DIRECTION('',(-0.987688341,-0.156434465,0.000000000));
#565 = DIRECTION('',(-0.156434465,0.987688341,0.000000000));
#566 = AXIS2_PLACEMENT_3D('',#454,#564,#565);
#567 = PLANE('',#566);
#568 = FACE_SURFACE('',(#563),#567,.T.);
#569 = POLY_LOOP('',(#455,#456,#476,#475));
#570 = FACE_OUTER_BOUND('',#569,.T.);
#571 = DIRECTION('',(-0.987688341,0.156434465,0.000000000));
#572 = DIRECTION('',(0.156434465,0.987688341,0.000000000));
#573 = AXIS2_PLACEMENT_3D('',#455,#571,#572);
#574 = PLANE('',#573);
#575 = FACE_SURFACE('',(#570),#574,.T.);
#576 = POLY_LOOP('',(#456,#457,#477,#476));
#577 = FACE_OUTER_BOUND('',#576,.T.);
#578 = DIRECTION('',(-0.891006524,0.453990500,0.000000000));
#579 = DIRECTION('',(0.453990500,0.891006524,0.000000000));
#580 = AXIS2_PLACEMENT_3D('',#456,#578,#579);
#581 = PLANE('',#580);
#582 = FACE_SURFACE('',(#577),#581,.T.);
#583 = POLY_LOOP('',(#457,#458,#478,#477));
#584 = FACE_OUTER_BOUND('',#583,.T.);
#585 = DIRECTION('',(-0.707106781,0.707106781,0.000000000));
#586 = DIRECTION('',(0.707106781,0.707106781,0.000000000));
#587 = AXIS2_PLACEMENT_3D('',#457,#585,#586);
#588 = PLANE('',#587);
#589 = FACE_SURFACE('',(#584),#588,.T.);
#590 = POLY_LOOP('',(#458,#459,#479,#478));
#591 = FACE_OUTER_BOUND('',#590,.T.);
#592 = DIRECTION('',(-0.453990500,0.891006524,0.000000000));
#593 = DIRECTION('',(0.891006524,0.453990500,0.000000000));
#594 = AXIS2_PLACEMENT_3D('',#458,#592,#593);
#595 = PLANE('',#594);
#596 = FACE_SURFACE('',(#591),#595,.T.);
#597 = POLY_LOOP('',(#459,#460,#480,#479));
#598 = FACE_OUTER_BOUND('',#597,.T.);
#599 = DIRECTION('',(-0.156434465,0.987688341,0.000000000));
#600 = DIRECTION('',(0.987688341,0.156434465,0.000000000));
#601 = AXIS2_PLACEMENT_3D('',#459,#599,#600);
#602 = PLANE('',#601);
#603 = FACE_SURFACE('',(#598),#602,.T.);
#604 = POLY_LOOP('',(#460,#461,#481,#480));
#605 = FACE_OUTER_BOUND('',#604,.T.);
#606 = DIRECTION('',(0.156434465,0.987688341,0.000000000));
#607 = DIRECTION('',(0.987688341,-0.156434465,0.000000000));
#608 = AXIS2_PLACEMENT_3D('',#460,#606,#607);
#609 = PLANE('',#608);
#610 = FACE_SURFACE('',(#605),#609,.T.);
#611 = POLY_LOOP('',(#461,#462,#482,#481));
#612 = FACE_OUTER_BOUND('',#611,.T.);
#613 = DIRECTION('',(0.453990500,0.891006524,0.000000000));
#614 = DIRECTION('',(0.891006524,-0.453990500,0.000000000));
#615 = AXIS2_PLACEMENT_3D('',#461,#613,#614);
#616 = PLANE('',#615);
#617 = FACE_SURFACE('',(#612),#616,.T.);
#618 = POLY_LOOP('',(#462,#463,#483,#482));
#619 = FACE_OUTER_BOUND('',#618,.T.);
#620 = DIRECTION('',(0.707106781,0.707106781,0.000000000));
#621 = DIRECTION('',(0.707106781,-0.707106781,0.000000000));
#622 = AXIS2_PLACEMENT_3D('',#462,#620,#621);
#623 = PLANE('',#622);
#624 = FACE_SURFACE('',(#619),#623,.T.);
#625 = POLY_LOOP('',(#463,#464,#484,#483));
#626 = FACE_OUTER_BOUND('',#625,.T.);
#627 = DIRECTION('',(0.891006524,0.453990500,0.000000000));
#628 = DIRECTION('',(0.453990500,-0.891006524,0.000000000));
#629 = AXIS2_PLACEMENT_3D('',#463,#627,#628);
#630 = PLANE('',#629);
#631 = FACE_SURFACE('',(#626),#630,.T.);
#632 = POLY_LOOP('',(#464,#445,#465,#484));
#633 = FACE_OUTER_BOUND('',#632,.T.);
#634 = DIRECTION('',(0.987688341,0.156434465,0.000000000));
#635 = DIRECTION('',(0.156434465,-0.987688341,0.000000000));
#636 = AXIS2_PLACEMENT_3D('',#464,#634,#635);
#637 = PLANE('',#636);
#638 = FACE_SURFACE('',(#633),#637,.T.);
#639 = CLOSED_SHELL('',(#491,#498,#505,#512,#519,#526,#533,#540,#547,#554,#561,#568,#575,#582,#589,#596,#603,#610,#617,#624,#631,#638));
#640 = FACETED_BREP('black intensity knob',#639);
#641 = APPLICATION_CONTEXT('configuration controlled 3d designs of mechanical parts and assemblies');
#642 = APPLICATION_PROTOCOL_DEFINITION('international standard','config_control_design',1994,#641);
#643 = PRODUCT_CONTEXT('',#641,'mechanical');
#644 = PRODUCT('REF','Illustrative reference','NOT vendor CAD',(#643));
#645 = PRODUCT_DEFINITION_FORMATION_WITH_SPECIFIED_SOURCE('','',#644,.NOT_KNOWN.);
#646 = PRODUCT_DEFINITION_CONTEXT('part definition',#641,'design');
#647 = PRODUCT_DEFINITION('design','',#645,#646);
#648 = PRODUCT_DEFINITION_SHAPE('','',#647);
#649 = (LENGTH_UNIT()NAMED_UNIT(*)SI_UNIT(.MILLI.,.METRE.));
#650 = (NAMED_UNIT(*)PLANE_ANGLE_UNIT()SI_UNIT($,.RADIAN.));
#651 = (NAMED_UNIT(*)SI_UNIT($,.STERADIAN.)SOLID_ANGLE_UNIT());
#652 = UNCERTAINTY_MEASURE_WITH_UNIT(LENGTH_MEASURE(0.000001),#649,'distance_accuracy_value','');
#653 = (GEOMETRIC_REPRESENTATION_CONTEXT(3)GLOBAL_UNCERTAINTY_ASSIGNED_CONTEXT((#652))GLOBAL_UNIT_ASSIGNED_CONTEXT((#649,#650,#651))REPRESENTATION_CONTEXT('',''));
#654 = FACETED_BREP_SHAPE_REPRESENTATION('Illustrative reference',(#52,#248,#444,#640),#653);
#655 = SHAPE_DEFINITION_REPRESENTATION(#648,#654);
ENDSEC;
END-ISO-10303-21;
