ISO-10303-21;
HEADER;
FILE_DESCRIPTION(('Illustrative CAD - NOT vendor dimensions'),'2;1');
FILE_NAME('reference.step','2026-10-07',('CORNERSTONE'),(''),'reference generator','','');
FILE_SCHEMA(('CONFIG_CONTROL_DESIGN'));
ENDSEC;
DATA;
#1 = CARTESIAN_POINT('',(0.000000000,0.000000000,-28.000000000));
#2 = CARTESIAN_POINT('',(-8.652475842,0.000000000,-26.629582456));
#3 = CARTESIAN_POINT('',(-16.457987064,0.000000000,-22.652475842));
#4 = CARTESIAN_POINT('',(-22.652475842,0.000000000,-16.457987064));
#5 = CARTESIAN_POINT('',(-26.629582456,0.000000000,-8.652475842));
#6 = CARTESIAN_POINT('',(-28.000000000,0.000000000,-0.000000000));
#7 = CARTESIAN_POINT('',(-26.629582456,0.000000000,8.652475842));
#8 = CARTESIAN_POINT('',(-22.652475842,0.000000000,16.457987064));
#9 = CARTESIAN_POINT('',(-16.457987064,0.000000000,22.652475842));
#10 = CARTESIAN_POINT('',(-8.652475842,0.000000000,26.629582456));
#11 = CARTESIAN_POINT('',(-0.000000000,0.000000000,28.000000000));
#12 = CARTESIAN_POINT('',(8.652475842,0.000000000,26.629582456));
#13 = CARTESIAN_POINT('',(16.457987064,0.000000000,22.652475842));
#14 = CARTESIAN_POINT('',(22.652475842,0.000000000,16.457987064));
#15 = CARTESIAN_POINT('',(26.629582456,0.000000000,8.652475842));
#16 = CARTESIAN_POINT('',(28.000000000,0.000000000,0.000000000));
#17 = CARTESIAN_POINT('',(26.629582456,0.000000000,-8.652475842));
#18 = CARTESIAN_POINT('',(22.652475842,0.000000000,-16.457987064));
#19 = CARTESIAN_POINT('',(16.457987064,0.000000000,-22.652475842));
#20 = CARTESIAN_POINT('',(8.652475842,0.000000000,-26.629582456));
#21 = CARTESIAN_POINT('',(0.000000000,55.000000000,-28.000000000));
#22 = CARTESIAN_POINT('',(-8.652475842,55.000000000,-26.629582456));
#23 = CARTESIAN_POINT('',(-16.457987064,55.000000000,-22.652475842));
#24 = CARTESIAN_POINT('',(-22.652475842,55.000000000,-16.457987064));
#25 = CARTESIAN_POINT('',(-26.629582456,55.000000000,-8.652475842));
#26 = CARTESIAN_POINT('',(-28.000000000,55.000000000,-0.000000000));
#27 = CARTESIAN_POINT('',(-26.629582456,55.000000000,8.652475842));
#28 = CARTESIAN_POINT('',(-22.652475842,55.000000000,16.457987064));
#29 = CARTESIAN_POINT('',(-16.457987064,55.000000000,22.652475842));
#30 = CARTESIAN_POINT('',(-8.652475842,55.000000000,26.629582456));
#31 = CARTESIAN_POINT('',(-0.000000000,55.000000000,28.000000000));
#32 = CARTESIAN_POINT('',(8.652475842,55.000000000,26.629582456));
#33 = CARTESIAN_POINT('',(16.457987064,55.000000000,22.652475842));
#34 = CARTESIAN_POINT('',(22.652475842,55.000000000,16.457987064));
#35 = CARTESIAN_POINT('',(26.629582456,55.000000000,8.652475842));
#36 = CARTESIAN_POINT('',(28.000000000,55.000000000,0.000000000));
#37 = CARTESIAN_POINT('',(26.629582456,55.000000000,-8.652475842));
#38 = CARTESIAN_POINT('',(22.652475842,55.000000000,-16.457987064));
#39 = CARTESIAN_POINT('',(16.457987064,55.000000000,-22.652475842));
#40 = CARTESIAN_POINT('',(8.652475842,55.000000000,-26.629582456));
#41 = POLY_LOOP('',(#20,#19,#18,#17,#16,#15,#14,#13,#12,#11,#10,#9,#8,#7,#6,#5,#4,#3,#2,#1));
#42 = FACE_OUTER_BOUND('',#41,.T.);
#43 = DIRECTION('',(0.000000000,-1.000000000,0.000000000));
#44 = DIRECTION('',(0.891006524,0.000000000,0.453990500));
#45 = AXIS2_PLACEMENT_3D('',#20,#43,#44);
#46 = PLANE('',#45);
#47 = FACE_SURFACE('',(#42),#46,.T.);
#48 = POLY_LOOP('',(#21,#22,#23,#24,#25,#26,#27,#28,#29,#30,#31,#32,#33,#34,#35,#36,#37,#38,#39,#40));
#49 = FACE_OUTER_BOUND('',#48,.T.);
#50 = DIRECTION('',(0.000000000,1.000000000,0.000000000));
#51 = DIRECTION('',(-0.987688341,0.000000000,0.156434465));
#52 = AXIS2_PLACEMENT_3D('',#21,#50,#51);
#53 = PLANE('',#52);
#54 = FACE_SURFACE('',(#49),#53,.T.);
#55 = POLY_LOOP('',(#1,#2,#22,#21));
#56 = FACE_OUTER_BOUND('',#55,.T.);
#57 = DIRECTION('',(-0.156434465,0.000000000,-0.987688341));
#58 = DIRECTION('',(-0.987688341,0.000000000,0.156434465));
#59 = AXIS2_PLACEMENT_3D('',#1,#57,#58);
#60 = PLANE('',#59);
#61 = FACE_SURFACE('',(#56),#60,.T.);
#62 = POLY_LOOP('',(#2,#3,#23,#22));
#63 = FACE_OUTER_BOUND('',#62,.T.);
#64 = DIRECTION('',(-0.453990500,0.000000000,-0.891006524));
#65 = DIRECTION('',(-0.891006524,0.000000000,0.453990500));
#66 = AXIS2_PLACEMENT_3D('',#2,#64,#65);
#67 = PLANE('',#66);
#68 = FACE_SURFACE('',(#63),#67,.T.);
#69 = POLY_LOOP('',(#3,#4,#24,#23));
#70 = FACE_OUTER_BOUND('',#69,.T.);
#71 = DIRECTION('',(-0.707106781,0.000000000,-0.707106781));
#72 = DIRECTION('',(-0.707106781,0.000000000,0.707106781));
#73 = AXIS2_PLACEMENT_3D('',#3,#71,#72);
#74 = PLANE('',#73);
#75 = FACE_SURFACE('',(#70),#74,.T.);
#76 = POLY_LOOP('',(#4,#5,#25,#24));
#77 = FACE_OUTER_BOUND('',#76,.T.);
#78 = DIRECTION('',(-0.891006524,0.000000000,-0.453990500));
#79 = DIRECTION('',(-0.453990500,0.000000000,0.891006524));
#80 = AXIS2_PLACEMENT_3D('',#4,#78,#79);
#81 = PLANE('',#80);
#82 = FACE_SURFACE('',(#77),#81,.T.);
#83 = POLY_LOOP('',(#5,#6,#26,#25));
#84 = FACE_OUTER_BOUND('',#83,.T.);
#85 = DIRECTION('',(-0.987688341,0.000000000,-0.156434465));
#86 = DIRECTION('',(-0.156434465,0.000000000,0.987688341));
#87 = AXIS2_PLACEMENT_3D('',#5,#85,#86);
#88 = PLANE('',#87);
#89 = FACE_SURFACE('',(#84),#88,.T.);
#90 = POLY_LOOP('',(#6,#7,#27,#26));
#91 = FACE_OUTER_BOUND('',#90,.T.);
#92 = DIRECTION('',(-0.987688341,0.000000000,0.156434465));
#93 = DIRECTION('',(0.156434465,0.000000000,0.987688341));
#94 = AXIS2_PLACEMENT_3D('',#6,#92,#93);
#95 = PLANE('',#94);
#96 = FACE_SURFACE('',(#91),#95,.T.);
#97 = POLY_LOOP('',(#7,#8,#28,#27));
#98 = FACE_OUTER_BOUND('',#97,.T.);
#99 = DIRECTION('',(-0.891006524,0.000000000,0.453990500));
#100 = DIRECTION('',(0.453990500,0.000000000,0.891006524));
#101 = AXIS2_PLACEMENT_3D('',#7,#99,#100);
#102 = PLANE('',#101);
#103 = FACE_SURFACE('',(#98),#102,.T.);
#104 = POLY_LOOP('',(#8,#9,#29,#28));
#105 = FACE_OUTER_BOUND('',#104,.T.);
#106 = DIRECTION('',(-0.707106781,0.000000000,0.707106781));
#107 = DIRECTION('',(0.707106781,0.000000000,0.707106781));
#108 = AXIS2_PLACEMENT_3D('',#8,#106,#107);
#109 = PLANE('',#108);
#110 = FACE_SURFACE('',(#105),#109,.T.);
#111 = POLY_LOOP('',(#9,#10,#30,#29));
#112 = FACE_OUTER_BOUND('',#111,.T.);
#113 = DIRECTION('',(-0.453990500,0.000000000,0.891006524));
#114 = DIRECTION('',(0.891006524,0.000000000,0.453990500));
#115 = AXIS2_PLACEMENT_3D('',#9,#113,#114);
#116 = PLANE('',#115);
#117 = FACE_SURFACE('',(#112),#116,.T.);
#118 = POLY_LOOP('',(#10,#11,#31,#30));
#119 = FACE_OUTER_BOUND('',#118,.T.);
#120 = DIRECTION('',(-0.156434465,0.000000000,0.987688341));
#121 = DIRECTION('',(0.987688341,0.000000000,0.156434465));
#122 = AXIS2_PLACEMENT_3D('',#10,#120,#121);
#123 = PLANE('',#122);
#124 = FACE_SURFACE('',(#119),#123,.T.);
#125 = POLY_LOOP('',(#11,#12,#32,#31));
#126 = FACE_OUTER_BOUND('',#125,.T.);
#127 = DIRECTION('',(0.156434465,0.000000000,0.987688341));
#128 = DIRECTION('',(0.987688341,0.000000000,-0.156434465));
#129 = AXIS2_PLACEMENT_3D('',#11,#127,#128);
#130 = PLANE('',#129);
#131 = FACE_SURFACE('',(#126),#130,.T.);
#132 = POLY_LOOP('',(#12,#13,#33,#32));
#133 = FACE_OUTER_BOUND('',#132,.T.);
#134 = DIRECTION('',(0.453990500,0.000000000,0.891006524));
#135 = DIRECTION('',(0.891006524,0.000000000,-0.453990500));
#136 = AXIS2_PLACEMENT_3D('',#12,#134,#135);
#137 = PLANE('',#136);
#138 = FACE_SURFACE('',(#133),#137,.T.);
#139 = POLY_LOOP('',(#13,#14,#34,#33));
#140 = FACE_OUTER_BOUND('',#139,.T.);
#141 = DIRECTION('',(0.707106781,0.000000000,0.707106781));
#142 = DIRECTION('',(0.707106781,0.000000000,-0.707106781));
#143 = AXIS2_PLACEMENT_3D('',#13,#141,#142);
#144 = PLANE('',#143);
#145 = FACE_SURFACE('',(#140),#144,.T.);
#146 = POLY_LOOP('',(#14,#15,#35,#34));
#147 = FACE_OUTER_BOUND('',#146,.T.);
#148 = DIRECTION('',(0.891006524,0.000000000,0.453990500));
#149 = DIRECTION('',(0.453990500,0.000000000,-0.891006524));
#150 = AXIS2_PLACEMENT_3D('',#14,#148,#149);
#151 = PLANE('',#150);
#152 = FACE_SURFACE('',(#147),#151,.T.);
#153 = POLY_LOOP('',(#15,#16,#36,#35));
#154 = FACE_OUTER_BOUND('',#153,.T.);
#155 = DIRECTION('',(0.987688341,0.000000000,0.156434465));
#156 = DIRECTION('',(0.156434465,0.000000000,-0.987688341));
#157 = AXIS2_PLACEMENT_3D('',#15,#155,#156);
#158 = PLANE('',#157);
#159 = FACE_SURFACE('',(#154),#158,.T.);
#160 = POLY_LOOP('',(#16,#17,#37,#36));
#161 = FACE_OUTER_BOUND('',#160,.T.);
#162 = DIRECTION('',(0.987688341,0.000000000,-0.156434465));
#163 = DIRECTION('',(-0.156434465,0.000000000,-0.987688341));
#164 = AXIS2_PLACEMENT_3D('',#16,#162,#163);
#165 = PLANE('',#164);
#166 = FACE_SURFACE('',(#161),#165,.T.);
#167 = POLY_LOOP('',(#17,#18,#38,#37));
#168 = FACE_OUTER_BOUND('',#167,.T.);
#169 = DIRECTION('',(0.891006524,0.000000000,-0.453990500));
#170 = DIRECTION('',(-0.453990500,0.000000000,-0.891006524));
#171 = AXIS2_PLACEMENT_3D('',#17,#169,#170);
#172 = PLANE('',#171);
#173 = FACE_SURFACE('',(#168),#172,.T.);
#174 = POLY_LOOP('',(#18,#19,#39,#38));
#175 = FACE_OUTER_BOUND('',#174,.T.);
#176 = DIRECTION('',(0.707106781,0.000000000,-0.707106781));
#177 = DIRECTION('',(-0.707106781,0.000000000,-0.707106781));
#178 = AXIS2_PLACEMENT_3D('',#18,#176,#177);
#179 = PLANE('',#178);
#180 = FACE_SURFACE('',(#175),#179,.T.);
#181 = POLY_LOOP('',(#19,#20,#40,#39));
#182 = FACE_OUTER_BOUND('',#181,.T.);
#183 = DIRECTION('',(0.453990500,0.000000000,-0.891006524));
#184 = DIRECTION('',(-0.891006524,0.000000000,-0.453990500));
#185 = AXIS2_PLACEMENT_3D('',#19,#183,#184);
#186 = PLANE('',#185);
#187 = FACE_SURFACE('',(#182),#186,.T.);
#188 = POLY_LOOP('',(#20,#1,#21,#40));
#189 = FACE_OUTER_BOUND('',#188,.T.);
#190 = DIRECTION('',(0.156434465,0.000000000,-0.987688341));
#191 = DIRECTION('',(-0.987688341,0.000000000,-0.156434465));
#192 = AXIS2_PLACEMENT_3D('',#20,#190,#191);
#193 = PLANE('',#192);
#194 = FACE_SURFACE('',(#189),#193,.T.);
#195 = CLOSED_SHELL('',(#47,#54,#61,#68,#75,#82,#89,#96,#103,#110,#117,#124,#131,#138,#145,#152,#159,#166,#173,#180,#187,#194));
#196 = FACETED_BREP('black optical head',#195);
#197 = CARTESIAN_POINT('',(8.000000000,28.000000000,-26.000000000));
#198 = CARTESIAN_POINT('',(7.608452130,25.527864045,-26.000000000));
#199 = CARTESIAN_POINT('',(6.472135955,23.297717982,-26.000000000));
#200 = CARTESIAN_POINT('',(4.702282018,21.527864045,-26.000000000));
#201 = CARTESIAN_POINT('',(2.472135955,20.391547870,-26.000000000));
#202 = CARTESIAN_POINT('',(0.000000000,20.000000000,-26.000000000));
#203 = CARTESIAN_POINT('',(-2.472135955,20.391547870,-26.000000000));
#204 = CARTESIAN_POINT('',(-4.702282018,21.527864045,-26.000000000));
#205 = CARTESIAN_POINT('',(-6.472135955,23.297717982,-26.000000000));
#206 = CARTESIAN_POINT('',(-7.608452130,25.527864045,-26.000000000));
#207 = CARTESIAN_POINT('',(-8.000000000,28.000000000,-26.000000000));
#208 = CARTESIAN_POINT('',(-7.608452130,30.472135955,-26.000000000));
#209 = CARTESIAN_POINT('',(-6.472135955,32.702282018,-26.000000000));
#210 = CARTESIAN_POINT('',(-4.702282018,34.472135955,-26.000000000));
#211 = CARTESIAN_POINT('',(-2.472135955,35.608452130,-26.000000000));
#212 = CARTESIAN_POINT('',(-0.000000000,36.000000000,-26.000000000));
#213 = CARTESIAN_POINT('',(2.472135955,35.608452130,-26.000000000));
#214 = CARTESIAN_POINT('',(4.702282018,34.472135955,-26.000000000));
#215 = CARTESIAN_POINT('',(6.472135955,32.702282018,-26.000000000));
#216 = CARTESIAN_POINT('',(7.608452130,30.472135955,-26.000000000));
#217 = CARTESIAN_POINT('',(8.000000000,28.000000000,-42.000000000));
#218 = CARTESIAN_POINT('',(7.608452130,25.527864045,-42.000000000));
#219 = CARTESIAN_POINT('',(6.472135955,23.297717982,-42.000000000));
#220 = CARTESIAN_POINT('',(4.702282018,21.527864045,-42.000000000));
#221 = CARTESIAN_POINT('',(2.472135955,20.391547870,-42.000000000));
#222 = CARTESIAN_POINT('',(0.000000000,20.000000000,-42.000000000));
#223 = CARTESIAN_POINT('',(-2.472135955,20.391547870,-42.000000000));
#224 = CARTESIAN_POINT('',(-4.702282018,21.527864045,-42.000000000));
#225 = CARTESIAN_POINT('',(-6.472135955,23.297717982,-42.000000000));
#226 = CARTESIAN_POINT('',(-7.608452130,25.527864045,-42.000000000));
#227 = CARTESIAN_POINT('',(-8.000000000,28.000000000,-42.000000000));
#228 = CARTESIAN_POINT('',(-7.608452130,30.472135955,-42.000000000));
#229 = CARTESIAN_POINT('',(-6.472135955,32.702282018,-42.000000000));
#230 = CARTESIAN_POINT('',(-4.702282018,34.472135955,-42.000000000));
#231 = CARTESIAN_POINT('',(-2.472135955,35.608452130,-42.000000000));
#232 = CARTESIAN_POINT('',(-0.000000000,36.000000000,-42.000000000));
#233 = CARTESIAN_POINT('',(2.472135955,35.608452130,-42.000000000));
#234 = CARTESIAN_POINT('',(4.702282018,34.472135955,-42.000000000));
#235 = CARTESIAN_POINT('',(6.472135955,32.702282018,-42.000000000));
#236 = CARTESIAN_POINT('',(7.608452130,30.472135955,-42.000000000));
#237 = POLY_LOOP('',(#216,#215,#214,#213,#212,#211,#210,#209,#208,#207,#206,#205,#204,#203,#202,#201,#200,#199,#198,#197));
#238 = FACE_OUTER_BOUND('',#237,.T.);
#239 = DIRECTION('',(0.000000000,0.000000000,1.000000000));
#240 = DIRECTION('',(-0.453990500,0.891006524,0.000000000));
#241 = AXIS2_PLACEMENT_3D('',#216,#239,#240);
#242 = PLANE('',#241);
#243 = FACE_SURFACE('',(#238),#242,.T.);
#244 = POLY_LOOP('',(#217,#218,#219,#220,#221,#222,#223,#224,#225,#226,#227,#228,#229,#230,#231,#232,#233,#234,#235,#236));
#245 = FACE_OUTER_BOUND('',#244,.T.);
#246 = DIRECTION('',(0.000000000,0.000000000,-1.000000000));
#247 = DIRECTION('',(-0.156434465,-0.987688341,0.000000000));
#248 = AXIS2_PLACEMENT_3D('',#217,#246,#247);
#249 = PLANE('',#248);
#250 = FACE_SURFACE('',(#245),#249,.T.);
#251 = POLY_LOOP('',(#197,#198,#218,#217));
#252 = FACE_OUTER_BOUND('',#251,.T.);
#253 = DIRECTION('',(0.987688341,-0.156434465,0.000000000));
#254 = DIRECTION('',(-0.156434465,-0.987688341,0.000000000));
#255 = AXIS2_PLACEMENT_3D('',#197,#253,#254);
#256 = PLANE('',#255);
#257 = FACE_SURFACE('',(#252),#256,.T.);
#258 = POLY_LOOP('',(#198,#199,#219,#218));
#259 = FACE_OUTER_BOUND('',#258,.T.);
#260 = DIRECTION('',(0.891006524,-0.453990500,0.000000000));
#261 = DIRECTION('',(-0.453990500,-0.891006524,0.000000000));
#262 = AXIS2_PLACEMENT_3D('',#198,#260,#261);
#263 = PLANE('',#262);
#264 = FACE_SURFACE('',(#259),#263,.T.);
#265 = POLY_LOOP('',(#199,#200,#220,#219));
#266 = FACE_OUTER_BOUND('',#265,.T.);
#267 = DIRECTION('',(0.707106781,-0.707106781,0.000000000));
#268 = DIRECTION('',(-0.707106781,-0.707106781,0.000000000));
#269 = AXIS2_PLACEMENT_3D('',#199,#267,#268);
#270 = PLANE('',#269);
#271 = FACE_SURFACE('',(#266),#270,.T.);
#272 = POLY_LOOP('',(#200,#201,#221,#220));
#273 = FACE_OUTER_BOUND('',#272,.T.);
#274 = DIRECTION('',(0.453990500,-0.891006524,0.000000000));
#275 = DIRECTION('',(-0.891006524,-0.453990500,0.000000000));
#276 = AXIS2_PLACEMENT_3D('',#200,#274,#275);
#277 = PLANE('',#276);
#278 = FACE_SURFACE('',(#273),#277,.T.);
#279 = POLY_LOOP('',(#201,#202,#222,#221));
#280 = FACE_OUTER_BOUND('',#279,.T.);
#281 = DIRECTION('',(0.156434465,-0.987688341,0.000000000));
#282 = DIRECTION('',(-0.987688341,-0.156434465,0.000000000));
#283 = AXIS2_PLACEMENT_3D('',#201,#281,#282);
#284 = PLANE('',#283);
#285 = FACE_SURFACE('',(#280),#284,.T.);
#286 = POLY_LOOP('',(#202,#203,#223,#222));
#287 = FACE_OUTER_BOUND('',#286,.T.);
#288 = DIRECTION('',(-0.156434465,-0.987688341,0.000000000));
#289 = DIRECTION('',(-0.987688341,0.156434465,0.000000000));
#290 = AXIS2_PLACEMENT_3D('',#202,#288,#289);
#291 = PLANE('',#290);
#292 = FACE_SURFACE('',(#287),#291,.T.);
#293 = POLY_LOOP('',(#203,#204,#224,#223));
#294 = FACE_OUTER_BOUND('',#293,.T.);
#295 = DIRECTION('',(-0.453990500,-0.891006524,0.000000000));
#296 = DIRECTION('',(-0.891006524,0.453990500,0.000000000));
#297 = AXIS2_PLACEMENT_3D('',#203,#295,#296);
#298 = PLANE('',#297);
#299 = FACE_SURFACE('',(#294),#298,.T.);
#300 = POLY_LOOP('',(#204,#205,#225,#224));
#301 = FACE_OUTER_BOUND('',#300,.T.);
#302 = DIRECTION('',(-0.707106781,-0.707106781,0.000000000));
#303 = DIRECTION('',(-0.707106781,0.707106781,0.000000000));
#304 = AXIS2_PLACEMENT_3D('',#204,#302,#303);
#305 = PLANE('',#304);
#306 = FACE_SURFACE('',(#301),#305,.T.);
#307 = POLY_LOOP('',(#205,#206,#226,#225));
#308 = FACE_OUTER_BOUND('',#307,.T.);
#309 = DIRECTION('',(-0.891006524,-0.453990500,0.000000000));
#310 = DIRECTION('',(-0.453990500,0.891006524,0.000000000));
#311 = AXIS2_PLACEMENT_3D('',#205,#309,#310);
#312 = PLANE('',#311);
#313 = FACE_SURFACE('',(#308),#312,.T.);
#314 = POLY_LOOP('',(#206,#207,#227,#226));
#315 = FACE_OUTER_BOUND('',#314,.T.);
#316 = DIRECTION('',(-0.987688341,-0.156434465,0.000000000));
#317 = DIRECTION('',(-0.156434465,0.987688341,0.000000000));
#318 = AXIS2_PLACEMENT_3D('',#206,#316,#317);
#319 = PLANE('',#318);
#320 = FACE_SURFACE('',(#315),#319,.T.);
#321 = POLY_LOOP('',(#207,#208,#228,#227));
#322 = FACE_OUTER_BOUND('',#321,.T.);
#323 = DIRECTION('',(-0.987688341,0.156434465,0.000000000));
#324 = DIRECTION('',(0.156434465,0.987688341,0.000000000));
#325 = AXIS2_PLACEMENT_3D('',#207,#323,#324);
#326 = PLANE('',#325);
#327 = FACE_SURFACE('',(#322),#326,.T.);
#328 = POLY_LOOP('',(#208,#209,#229,#228));
#329 = FACE_OUTER_BOUND('',#328,.T.);
#330 = DIRECTION('',(-0.891006524,0.453990500,0.000000000));
#331 = DIRECTION('',(0.453990500,0.891006524,0.000000000));
#332 = AXIS2_PLACEMENT_3D('',#208,#330,#331);
#333 = PLANE('',#332);
#334 = FACE_SURFACE('',(#329),#333,.T.);
#335 = POLY_LOOP('',(#209,#210,#230,#229));
#336 = FACE_OUTER_BOUND('',#335,.T.);
#337 = DIRECTION('',(-0.707106781,0.707106781,0.000000000));
#338 = DIRECTION('',(0.707106781,0.707106781,0.000000000));
#339 = AXIS2_PLACEMENT_3D('',#209,#337,#338);
#340 = PLANE('',#339);
#341 = FACE_SURFACE('',(#336),#340,.T.);
#342 = POLY_LOOP('',(#210,#211,#231,#230));
#343 = FACE_OUTER_BOUND('',#342,.T.);
#344 = DIRECTION('',(-0.453990500,0.891006524,0.000000000));
#345 = DIRECTION('',(0.891006524,0.453990500,0.000000000));
#346 = AXIS2_PLACEMENT_3D('',#210,#344,#345);
#347 = PLANE('',#346);
#348 = FACE_SURFACE('',(#343),#347,.T.);
#349 = POLY_LOOP('',(#211,#212,#232,#231));
#350 = FACE_OUTER_BOUND('',#349,.T.);
#351 = DIRECTION('',(-0.156434465,0.987688341,0.000000000));
#352 = DIRECTION('',(0.987688341,0.156434465,0.000000000));
#353 = AXIS2_PLACEMENT_3D('',#211,#351,#352);
#354 = PLANE('',#353);
#355 = FACE_SURFACE('',(#350),#354,.T.);
#356 = POLY_LOOP('',(#212,#213,#233,#232));
#357 = FACE_OUTER_BOUND('',#356,.T.);
#358 = DIRECTION('',(0.156434465,0.987688341,0.000000000));
#359 = DIRECTION('',(0.987688341,-0.156434465,0.000000000));
#360 = AXIS2_PLACEMENT_3D('',#212,#358,#359);
#361 = PLANE('',#360);
#362 = FACE_SURFACE('',(#357),#361,.T.);
#363 = POLY_LOOP('',(#213,#214,#234,#233));
#364 = FACE_OUTER_BOUND('',#363,.T.);
#365 = DIRECTION('',(0.453990500,0.891006524,0.000000000));
#366 = DIRECTION('',(0.891006524,-0.453990500,0.000000000));
#367 = AXIS2_PLACEMENT_3D('',#213,#365,#366);
#368 = PLANE('',#367);
#369 = FACE_SURFACE('',(#364),#368,.T.);
#370 = POLY_LOOP('',(#214,#215,#235,#234));
#371 = FACE_OUTER_BOUND('',#370,.T.);
#372 = DIRECTION('',(0.707106781,0.707106781,0.000000000));
#373 = DIRECTION('',(0.707106781,-0.707106781,0.000000000));
#374 = AXIS2_PLACEMENT_3D('',#214,#372,#373);
#375 = PLANE('',#374);
#376 = FACE_SURFACE('',(#371),#375,.T.);
#377 = POLY_LOOP('',(#215,#216,#236,#235));
#378 = FACE_OUTER_BOUND('',#377,.T.);
#379 = DIRECTION('',(0.891006524,0.453990500,0.000000000));
#380 = DIRECTION('',(0.453990500,-0.891006524,0.000000000));
#381 = AXIS2_PLACEMENT_3D('',#215,#379,#380);
#382 = PLANE('',#381);
#383 = FACE_SURFACE('',(#378),#382,.T.);
#384 = POLY_LOOP('',(#216,#197,#217,#236));
#385 = FACE_OUTER_BOUND('',#384,.T.);
#386 = DIRECTION('',(0.987688341,0.156434465,0.000000000));
#387 = DIRECTION('',(0.156434465,-0.987688341,0.000000000));
#388 = AXIS2_PLACEMENT_3D('',#216,#386,#387);
#389 = PLANE('',#388);
#390 = FACE_SURFACE('',(#385),#389,.T.);
#391 = CLOSED_SHELL('',(#243,#250,#257,#264,#271,#278,#285,#292,#299,#306,#313,#320,#327,#334,#341,#348,#355,#362,#369,#376,#383,#390));
#392 = FACETED_BREP('silver optical port',#391);
#393 = APPLICATION_CONTEXT('configuration controlled 3d designs of mechanical parts and assemblies');
#394 = APPLICATION_PROTOCOL_DEFINITION('international standard','config_control_design',1994,#393);
#395 = PRODUCT_CONTEXT('',#393,'mechanical');
#396 = PRODUCT('REF','Illustrative reference','NOT vendor CAD',(#395));
#397 = PRODUCT_DEFINITION_FORMATION_WITH_SPECIFIED_SOURCE('','',#396,.NOT_KNOWN.);
#398 = PRODUCT_DEFINITION_CONTEXT('part definition',#393,'design');
#399 = PRODUCT_DEFINITION('design','',#397,#398);
#400 = PRODUCT_DEFINITION_SHAPE('','',#399);
#401 = (LENGTH_UNIT()NAMED_UNIT(*)SI_UNIT(.MILLI.,.METRE.));
#402 = (NAMED_UNIT(*)PLANE_ANGLE_UNIT()SI_UNIT($,.RADIAN.));
#403 = (NAMED_UNIT(*)SI_UNIT($,.STERADIAN.)SOLID_ANGLE_UNIT());
#404 = UNCERTAINTY_MEASURE_WITH_UNIT(LENGTH_MEASURE(0.000001),#401,'distance_accuracy_value','');
#405 = (GEOMETRIC_REPRESENTATION_CONTEXT(3)GLOBAL_UNCERTAINTY_ASSIGNED_CONTEXT((#404))GLOBAL_UNIT_ASSIGNED_CONTEXT((#401,#402,#403))REPRESENTATION_CONTEXT('',''));
#406 = FACETED_BREP_SHAPE_REPRESENTATION('Illustrative reference',(#196,#392),#405);
#407 = SHAPE_DEFINITION_REPRESENTATION(#400,#406);
ENDSEC;
END-ISO-10303-21;
