ISO-10303-21;
HEADER;
FILE_DESCRIPTION(('Illustrative CAD - NOT vendor dimensions'),'2;1');
FILE_NAME('reference.step','2026-10-07',('CORNERSTONE'),(''),'reference generator','','');
FILE_SCHEMA(('CONFIG_CONTROL_DESIGN'));
ENDSEC;
DATA;
#1 = CARTESIAN_POINT('',(-33.500000000,8.000000000,-190.000000000));
#2 = CARTESIAN_POINT('',(106.500000000,8.000000000,-190.000000000));
#3 = CARTESIAN_POINT('',(106.500000000,96.000000000,-190.000000000));
#4 = CARTESIAN_POINT('',(-33.500000000,96.000000000,-190.000000000));
#5 = CARTESIAN_POINT('',(-33.500000000,8.000000000,190.000000000));
#6 = CARTESIAN_POINT('',(106.500000000,8.000000000,190.000000000));
#7 = CARTESIAN_POINT('',(106.500000000,96.000000000,190.000000000));
#8 = CARTESIAN_POINT('',(-33.500000000,96.000000000,190.000000000));
#9 = POLY_LOOP('',(#1,#4,#3,#2));
#10 = FACE_OUTER_BOUND('',#9,.T.);
#11 = DIRECTION('',(0.000000000,0.000000000,-1.000000000));
#12 = DIRECTION('',(0.000000000,1.000000000,0.000000000));
#13 = AXIS2_PLACEMENT_3D('',#1,#11,#12);
#14 = PLANE('',#13);
#15 = FACE_SURFACE('',(#10),#14,.T.);
#16 = POLY_LOOP('',(#5,#6,#7,#8));
#17 = FACE_OUTER_BOUND('',#16,.T.);
#18 = DIRECTION('',(0.000000000,0.000000000,1.000000000));
#19 = DIRECTION('',(1.000000000,0.000000000,0.000000000));
#20 = AXIS2_PLACEMENT_3D('',#5,#18,#19);
#21 = PLANE('',#20);
#22 = FACE_SURFACE('',(#17),#21,.T.);
#23 = POLY_LOOP('',(#1,#2,#6,#5));
#24 = FACE_OUTER_BOUND('',#23,.T.);
#25 = DIRECTION('',(0.000000000,-1.000000000,0.000000000));
#26 = DIRECTION('',(1.000000000,0.000000000,0.000000000));
#27 = AXIS2_PLACEMENT_3D('',#1,#25,#26);
#28 = PLANE('',#27);
#29 = FACE_SURFACE('',(#24),#28,.T.);
#30 = POLY_LOOP('',(#2,#3,#7,#6));
#31 = FACE_OUTER_BOUND('',#30,.T.);
#32 = DIRECTION('',(1.000000000,0.000000000,0.000000000));
#33 = DIRECTION('',(0.000000000,1.000000000,0.000000000));
#34 = AXIS2_PLACEMENT_3D('',#2,#32,#33);
#35 = PLANE('',#34);
#36 = FACE_SURFACE('',(#31),#35,.T.);
#37 = POLY_LOOP('',(#3,#4,#8,#7));
#38 = FACE_OUTER_BOUND('',#37,.T.);
#39 = DIRECTION('',(0.000000000,1.000000000,0.000000000));
#40 = DIRECTION('',(-1.000000000,0.000000000,0.000000000));
#41 = AXIS2_PLACEMENT_3D('',#3,#39,#40);
#42 = PLANE('',#41);
#43 = FACE_SURFACE('',(#38),#42,.T.);
#44 = POLY_LOOP('',(#4,#1,#5,#8));
#45 = FACE_OUTER_BOUND('',#44,.T.);
#46 = DIRECTION('',(-1.000000000,0.000000000,0.000000000));
#47 = DIRECTION('',(0.000000000,-1.000000000,0.000000000));
#48 = AXIS2_PLACEMENT_3D('',#4,#46,#47);
#49 = PLANE('',#48);
#50 = FACE_SURFACE('',(#45),#49,.T.);
#51 = CLOSED_SHELL('',(#15,#22,#29,#36,#43,#50));
#52 = FACETED_BREP('silver left electronics enclosure',#51);
#53 = CARTESIAN_POINT('',(-106.500000000,8.000000000,-190.000000000));
#54 = CARTESIAN_POINT('',(-33.500000000,8.000000000,-190.000000000));
#55 = CARTESIAN_POINT('',(-33.500000000,11.000000000,-190.000000000));
#56 = CARTESIAN_POINT('',(-106.500000000,11.000000000,-190.000000000));
#57 = CARTESIAN_POINT('',(-106.500000000,8.000000000,190.000000000));
#58 = CARTESIAN_POINT('',(-33.500000000,8.000000000,190.000000000));
#59 = CARTESIAN_POINT('',(-33.500000000,11.000000000,190.000000000));
#60 = CARTESIAN_POINT('',(-106.500000000,11.000000000,190.000000000));
#61 = POLY_LOOP('',(#53,#56,#55,#54));
#62 = FACE_OUTER_BOUND('',#61,.T.);
#63 = DIRECTION('',(0.000000000,0.000000000,-1.000000000));
#64 = DIRECTION('',(0.000000000,1.000000000,0.000000000));
#65 = AXIS2_PLACEMENT_3D('',#53,#63,#64);
#66 = PLANE('',#65);
#67 = FACE_SURFACE('',(#62),#66,.T.);
#68 = POLY_LOOP('',(#57,#58,#59,#60));
#69 = FACE_OUTER_BOUND('',#68,.T.);
#70 = DIRECTION('',(0.000000000,0.000000000,1.000000000));
#71 = DIRECTION('',(1.000000000,0.000000000,0.000000000));
#72 = AXIS2_PLACEMENT_3D('',#57,#70,#71);
#73 = PLANE('',#72);
#74 = FACE_SURFACE('',(#69),#73,.T.);
#75 = POLY_LOOP('',(#53,#54,#58,#57));
#76 = FACE_OUTER_BOUND('',#75,.T.);
#77 = DIRECTION('',(0.000000000,-1.000000000,0.000000000));
#78 = DIRECTION('',(1.000000000,0.000000000,0.000000000));
#79 = AXIS2_PLACEMENT_3D('',#53,#77,#78);
#80 = PLANE('',#79);
#81 = FACE_SURFACE('',(#76),#80,.T.);
#82 = POLY_LOOP('',(#54,#55,#59,#58));
#83 = FACE_OUTER_BOUND('',#82,.T.);
#84 = DIRECTION('',(1.000000000,0.000000000,0.000000000));
#85 = DIRECTION('',(0.000000000,1.000000000,0.000000000));
#86 = AXIS2_PLACEMENT_3D('',#54,#84,#85);
#87 = PLANE('',#86);
#88 = FACE_SURFACE('',(#83),#87,.T.);
#89 = POLY_LOOP('',(#55,#56,#60,#59));
#90 = FACE_OUTER_BOUND('',#89,.T.);
#91 = DIRECTION('',(0.000000000,1.000000000,0.000000000));
#92 = DIRECTION('',(-1.000000000,0.000000000,0.000000000));
#93 = AXIS2_PLACEMENT_3D('',#55,#91,#92);
#94 = PLANE('',#93);
#95 = FACE_SURFACE('',(#90),#94,.T.);
#96 = POLY_LOOP('',(#56,#53,#57,#60));
#97 = FACE_OUTER_BOUND('',#96,.T.);
#98 = DIRECTION('',(-1.000000000,0.000000000,0.000000000));
#99 = DIRECTION('',(0.000000000,-1.000000000,0.000000000));
#100 = AXIS2_PLACEMENT_3D('',#56,#98,#99);
#101 = PLANE('',#100);
#102 = FACE_SURFACE('',(#97),#101,.T.);
#103 = CLOSED_SHELL('',(#67,#74,#81,#88,#95,#102));
#104 = FACETED_BREP('silver bottom plate',#103);
#105 = CARTESIAN_POINT('',(-106.500000000,93.000000000,-190.000000000));
#106 = CARTESIAN_POINT('',(-33.500000000,93.000000000,-190.000000000));
#107 = CARTESIAN_POINT('',(-33.500000000,96.000000000,-190.000000000));
#108 = CARTESIAN_POINT('',(-106.500000000,96.000000000,-190.000000000));
#109 = CARTESIAN_POINT('',(-106.500000000,93.000000000,190.000000000));
#110 = CARTESIAN_POINT('',(-33.500000000,93.000000000,190.000000000));
#111 = CARTESIAN_POINT('',(-33.500000000,96.000000000,190.000000000));
#112 = CARTESIAN_POINT('',(-106.500000000,96.000000000,190.000000000));
#113 = POLY_LOOP('',(#105,#108,#107,#106));
#114 = FACE_OUTER_BOUND('',#113,.T.);
#115 = DIRECTION('',(0.000000000,0.000000000,-1.000000000));
#116 = DIRECTION('',(0.000000000,1.000000000,0.000000000));
#117 = AXIS2_PLACEMENT_3D('',#105,#115,#116);
#118 = PLANE('',#117);
#119 = FACE_SURFACE('',(#114),#118,.T.);
#120 = POLY_LOOP('',(#109,#110,#111,#112));
#121 = FACE_OUTER_BOUND('',#120,.T.);
#122 = DIRECTION('',(0.000000000,0.000000000,1.000000000));
#123 = DIRECTION('',(1.000000000,0.000000000,0.000000000));
#124 = AXIS2_PLACEMENT_3D('',#109,#122,#123);
#125 = PLANE('',#124);
#126 = FACE_SURFACE('',(#121),#125,.T.);
#127 = POLY_LOOP('',(#105,#106,#110,#109));
#128 = FACE_OUTER_BOUND('',#127,.T.);
#129 = DIRECTION('',(0.000000000,-1.000000000,0.000000000));
#130 = DIRECTION('',(1.000000000,0.000000000,0.000000000));
#131 = AXIS2_PLACEMENT_3D('',#105,#129,#130);
#132 = PLANE('',#131);
#133 = FACE_SURFACE('',(#128),#132,.T.);
#134 = POLY_LOOP('',(#106,#107,#111,#110));
#135 = FACE_OUTER_BOUND('',#134,.T.);
#136 = DIRECTION('',(1.000000000,0.000000000,0.000000000));
#137 = DIRECTION('',(0.000000000,1.000000000,0.000000000));
#138 = AXIS2_PLACEMENT_3D('',#106,#136,#137);
#139 = PLANE('',#138);
#140 = FACE_SURFACE('',(#135),#139,.T.);
#141 = POLY_LOOP('',(#107,#108,#112,#111));
#142 = FACE_OUTER_BOUND('',#141,.T.);
#143 = DIRECTION('',(0.000000000,1.000000000,0.000000000));
#144 = DIRECTION('',(-1.000000000,0.000000000,0.000000000));
#145 = AXIS2_PLACEMENT_3D('',#107,#143,#144);
#146 = PLANE('',#145);
#147 = FACE_SURFACE('',(#142),#146,.T.);
#148 = POLY_LOOP('',(#108,#105,#109,#112));
#149 = FACE_OUTER_BOUND('',#148,.T.);
#150 = DIRECTION('',(-1.000000000,0.000000000,0.000000000));
#151 = DIRECTION('',(0.000000000,-1.000000000,0.000000000));
#152 = AXIS2_PLACEMENT_3D('',#108,#150,#151);
#153 = PLANE('',#152);
#154 = FACE_SURFACE('',(#149),#153,.T.);
#155 = CLOSED_SHELL('',(#119,#126,#133,#140,#147,#154));
#156 = FACETED_BREP('silver removable top cover',#155);
#157 = CARTESIAN_POINT('',(-106.500000000,11.000000000,-190.000000000));
#158 = CARTESIAN_POINT('',(-103.500000000,11.000000000,-190.000000000));
#159 = CARTESIAN_POINT('',(-103.500000000,93.000000000,-190.000000000));
#160 = CARTESIAN_POINT('',(-106.500000000,93.000000000,-190.000000000));
#161 = CARTESIAN_POINT('',(-106.500000000,11.000000000,190.000000000));
#162 = CARTESIAN_POINT('',(-103.500000000,11.000000000,190.000000000));
#163 = CARTESIAN_POINT('',(-103.500000000,93.000000000,190.000000000));
#164 = CARTESIAN_POINT('',(-106.500000000,93.000000000,190.000000000));
#165 = POLY_LOOP('',(#157,#160,#159,#158));
#166 = FACE_OUTER_BOUND('',#165,.T.);
#167 = DIRECTION('',(0.000000000,0.000000000,-1.000000000));
#168 = DIRECTION('',(0.000000000,1.000000000,0.000000000));
#169 = AXIS2_PLACEMENT_3D('',#157,#167,#168);
#170 = PLANE('',#169);
#171 = FACE_SURFACE('',(#166),#170,.T.);
#172 = POLY_LOOP('',(#161,#162,#163,#164));
#173 = FACE_OUTER_BOUND('',#172,.T.);
#174 = DIRECTION('',(0.000000000,0.000000000,1.000000000));
#175 = DIRECTION('',(1.000000000,0.000000000,0.000000000));
#176 = AXIS2_PLACEMENT_3D('',#161,#174,#175);
#177 = PLANE('',#176);
#178 = FACE_SURFACE('',(#173),#177,.T.);
#179 = POLY_LOOP('',(#157,#158,#162,#161));
#180 = FACE_OUTER_BOUND('',#179,.T.);
#181 = DIRECTION('',(0.000000000,-1.000000000,0.000000000));
#182 = DIRECTION('',(1.000000000,0.000000000,0.000000000));
#183 = AXIS2_PLACEMENT_3D('',#157,#181,#182);
#184 = PLANE('',#183);
#185 = FACE_SURFACE('',(#180),#184,.T.);
#186 = POLY_LOOP('',(#158,#159,#163,#162));
#187 = FACE_OUTER_BOUND('',#186,.T.);
#188 = DIRECTION('',(1.000000000,0.000000000,0.000000000));
#189 = DIRECTION('',(0.000000000,1.000000000,0.000000000));
#190 = AXIS2_PLACEMENT_3D('',#158,#188,#189);
#191 = PLANE('',#190);
#192 = FACE_SURFACE('',(#187),#191,.T.);
#193 = POLY_LOOP('',(#159,#160,#164,#163));
#194 = FACE_OUTER_BOUND('',#193,.T.);
#195 = DIRECTION('',(0.000000000,1.000000000,0.000000000));
#196 = DIRECTION('',(-1.000000000,0.000000000,0.000000000));
#197 = AXIS2_PLACEMENT_3D('',#159,#195,#196);
#198 = PLANE('',#197);
#199 = FACE_SURFACE('',(#194),#198,.T.);
#200 = POLY_LOOP('',(#160,#157,#161,#164));
#201 = FACE_OUTER_BOUND('',#200,.T.);
#202 = DIRECTION('',(-1.000000000,0.000000000,0.000000000));
#203 = DIRECTION('',(0.000000000,-1.000000000,0.000000000));
#204 = AXIS2_PLACEMENT_3D('',#160,#202,#203);
#205 = PLANE('',#204);
#206 = FACE_SURFACE('',(#201),#205,.T.);
#207 = CLOSED_SHELL('',(#171,#178,#185,#192,#199,#206));
#208 = FACETED_BREP('silver right wall',#207);
#209 = CARTESIAN_POINT('',(-103.500000000,11.000000000,182.000000000));
#210 = CARTESIAN_POINT('',(-33.500000000,11.000000000,182.000000000));
#211 = CARTESIAN_POINT('',(-33.500000000,93.000000000,182.000000000));
#212 = CARTESIAN_POINT('',(-103.500000000,93.000000000,182.000000000));
#213 = CARTESIAN_POINT('',(-103.500000000,11.000000000,190.000000000));
#214 = CARTESIAN_POINT('',(-33.500000000,11.000000000,190.000000000));
#215 = CARTESIAN_POINT('',(-33.500000000,93.000000000,190.000000000));
#216 = CARTESIAN_POINT('',(-103.500000000,93.000000000,190.000000000));
#217 = POLY_LOOP('',(#209,#212,#211,#210));
#218 = FACE_OUTER_BOUND('',#217,.T.);
#219 = DIRECTION('',(0.000000000,0.000000000,-1.000000000));
#220 = DIRECTION('',(0.000000000,1.000000000,0.000000000));
#221 = AXIS2_PLACEMENT_3D('',#209,#219,#220);
#222 = PLANE('',#221);
#223 = FACE_SURFACE('',(#218),#222,.T.);
#224 = POLY_LOOP('',(#213,#214,#215,#216));
#225 = FACE_OUTER_BOUND('',#224,.T.);
#226 = DIRECTION('',(0.000000000,0.000000000,1.000000000));
#227 = DIRECTION('',(1.000000000,0.000000000,0.000000000));
#228 = AXIS2_PLACEMENT_3D('',#213,#226,#227);
#229 = PLANE('',#228);
#230 = FACE_SURFACE('',(#225),#229,.T.);
#231 = POLY_LOOP('',(#209,#210,#214,#213));
#232 = FACE_OUTER_BOUND('',#231,.T.);
#233 = DIRECTION('',(0.000000000,-1.000000000,0.000000000));
#234 = DIRECTION('',(1.000000000,0.000000000,0.000000000));
#235 = AXIS2_PLACEMENT_3D('',#209,#233,#234);
#236 = PLANE('',#235);
#237 = FACE_SURFACE('',(#232),#236,.T.);
#238 = POLY_LOOP('',(#210,#211,#215,#214));
#239 = FACE_OUTER_BOUND('',#238,.T.);
#240 = DIRECTION('',(1.000000000,0.000000000,0.000000000));
#241 = DIRECTION('',(0.000000000,1.000000000,0.000000000));
#242 = AXIS2_PLACEMENT_3D('',#210,#240,#241);
#243 = PLANE('',#242);
#244 = FACE_SURFACE('',(#239),#243,.T.);
#245 = POLY_LOOP('',(#211,#212,#216,#215));
#246 = FACE_OUTER_BOUND('',#245,.T.);
#247 = DIRECTION('',(0.000000000,1.000000000,0.000000000));
#248 = DIRECTION('',(-1.000000000,0.000000000,0.000000000));
#249 = AXIS2_PLACEMENT_3D('',#211,#247,#248);
#250 = PLANE('',#249);
#251 = FACE_SURFACE('',(#246),#250,.T.);
#252 = POLY_LOOP('',(#212,#209,#213,#216));
#253 = FACE_OUTER_BOUND('',#252,.T.);
#254 = DIRECTION('',(-1.000000000,0.000000000,0.000000000));
#255 = DIRECTION('',(0.000000000,-1.000000000,0.000000000));
#256 = AXIS2_PLACEMENT_3D('',#212,#254,#255);
#257 = PLANE('',#256);
#258 = FACE_SURFACE('',(#253),#257,.T.);
#259 = CLOSED_SHELL('',(#223,#230,#237,#244,#251,#258));
#260 = FACETED_BREP('silver rear wall',#259);
#261 = CARTESIAN_POINT('',(-70.500000000,11.000000000,-190.000000000));
#262 = CARTESIAN_POINT('',(-68.500000000,11.000000000,-190.000000000));
#263 = CARTESIAN_POINT('',(-68.500000000,93.000000000,-190.000000000));
#264 = CARTESIAN_POINT('',(-70.500000000,93.000000000,-190.000000000));
#265 = CARTESIAN_POINT('',(-70.500000000,11.000000000,182.000000000));
#266 = CARTESIAN_POINT('',(-68.500000000,11.000000000,182.000000000));
#267 = CARTESIAN_POINT('',(-68.500000000,93.000000000,182.000000000));
#268 = CARTESIAN_POINT('',(-70.500000000,93.000000000,182.000000000));
#269 = POLY_LOOP('',(#261,#264,#263,#262));
#270 = FACE_OUTER_BOUND('',#269,.T.);
#271 = DIRECTION('',(0.000000000,0.000000000,-1.000000000));
#272 = DIRECTION('',(0.000000000,1.000000000,0.000000000));
#273 = AXIS2_PLACEMENT_3D('',#261,#271,#272);
#274 = PLANE('',#273);
#275 = FACE_SURFACE('',(#270),#274,.T.);
#276 = POLY_LOOP('',(#265,#266,#267,#268));
#277 = FACE_OUTER_BOUND('',#276,.T.);
#278 = DIRECTION('',(0.000000000,0.000000000,1.000000000));
#279 = DIRECTION('',(1.000000000,0.000000000,0.000000000));
#280 = AXIS2_PLACEMENT_3D('',#265,#278,#279);
#281 = PLANE('',#280);
#282 = FACE_SURFACE('',(#277),#281,.T.);
#283 = POLY_LOOP('',(#261,#262,#266,#265));
#284 = FACE_OUTER_BOUND('',#283,.T.);
#285 = DIRECTION('',(0.000000000,-1.000000000,0.000000000));
#286 = DIRECTION('',(1.000000000,0.000000000,0.000000000));
#287 = AXIS2_PLACEMENT_3D('',#261,#285,#286);
#288 = PLANE('',#287);
#289 = FACE_SURFACE('',(#284),#288,.T.);
#290 = POLY_LOOP('',(#262,#263,#267,#266));
#291 = FACE_OUTER_BOUND('',#290,.T.);
#292 = DIRECTION('',(1.000000000,0.000000000,0.000000000));
#293 = DIRECTION('',(0.000000000,1.000000000,0.000000000));
#294 = AXIS2_PLACEMENT_3D('',#262,#292,#293);
#295 = PLANE('',#294);
#296 = FACE_SURFACE('',(#291),#295,.T.);
#297 = POLY_LOOP('',(#263,#264,#268,#267));
#298 = FACE_OUTER_BOUND('',#297,.T.);
#299 = DIRECTION('',(0.000000000,1.000000000,0.000000000));
#300 = DIRECTION('',(-1.000000000,0.000000000,0.000000000));
#301 = AXIS2_PLACEMENT_3D('',#263,#299,#300);
#302 = PLANE('',#301);
#303 = FACE_SURFACE('',(#298),#302,.T.);
#304 = POLY_LOOP('',(#264,#261,#265,#268));
#305 = FACE_OUTER_BOUND('',#304,.T.);
#306 = DIRECTION('',(-1.000000000,0.000000000,0.000000000));
#307 = DIRECTION('',(0.000000000,-1.000000000,0.000000000));
#308 = AXIS2_PLACEMENT_3D('',#264,#306,#307);
#309 = PLANE('',#308);
#310 = FACE_SURFACE('',(#305),#309,.T.);
#311 = CLOSED_SHELL('',(#275,#282,#289,#296,#303,#310));
#312 = FACETED_BREP('silver slot divider',#311);
#313 = CARTESIAN_POINT('',(-31.500000000,10.000000000,-193.000000000));
#314 = CARTESIAN_POINT('',(104.500000000,10.000000000,-193.000000000));
#315 = CARTESIAN_POINT('',(104.500000000,94.000000000,-193.000000000));
#316 = CARTESIAN_POINT('',(-31.500000000,94.000000000,-193.000000000));
#317 = CARTESIAN_POINT('',(-31.500000000,10.000000000,-190.000000000));
#318 = CARTESIAN_POINT('',(104.500000000,10.000000000,-190.000000000));
#319 = CARTESIAN_POINT('',(104.500000000,94.000000000,-190.000000000));
#320 = CARTESIAN_POINT('',(-31.500000000,94.000000000,-190.000000000));
#321 = POLY_LOOP('',(#313,#316,#315,#314));
#322 = FACE_OUTER_BOUND('',#321,.T.);
#323 = DIRECTION('',(0.000000000,0.000000000,-1.000000000));
#324 = DIRECTION('',(0.000000000,1.000000000,0.000000000));
#325 = AXIS2_PLACEMENT_3D('',#313,#323,#324);
#326 = PLANE('',#325);
#327 = FACE_SURFACE('',(#322),#326,.T.);
#328 = POLY_LOOP('',(#317,#318,#319,#320));
#329 = FACE_OUTER_BOUND('',#328,.T.);
#330 = DIRECTION('',(0.000000000,0.000000000,1.000000000));
#331 = DIRECTION('',(1.000000000,0.000000000,0.000000000));
#332 = AXIS2_PLACEMENT_3D('',#317,#330,#331);
#333 = PLANE('',#332);
#334 = FACE_SURFACE('',(#329),#333,.T.);
#335 = POLY_LOOP('',(#313,#314,#318,#317));
#336 = FACE_OUTER_BOUND('',#335,.T.);
#337 = DIRECTION('',(0.000000000,-1.000000000,0.000000000));
#338 = DIRECTION('',(1.000000000,0.000000000,0.000000000));
#339 = AXIS2_PLACEMENT_3D('',#313,#337,#338);
#340 = PLANE('',#339);
#341 = FACE_SURFACE('',(#336),#340,.T.);
#342 = POLY_LOOP('',(#314,#315,#319,#318));
#343 = FACE_OUTER_BOUND('',#342,.T.);
#344 = DIRECTION('',(1.000000000,0.000000000,0.000000000));
#345 = DIRECTION('',(0.000000000,1.000000000,0.000000000));
#346 = AXIS2_PLACEMENT_3D('',#314,#344,#345);
#347 = PLANE('',#346);
#348 = FACE_SURFACE('',(#343),#347,.T.);
#349 = POLY_LOOP('',(#315,#316,#320,#319));
#350 = FACE_OUTER_BOUND('',#349,.T.);
#351 = DIRECTION('',(0.000000000,1.000000000,0.000000000));
#352 = DIRECTION('',(-1.000000000,0.000000000,0.000000000));
#353 = AXIS2_PLACEMENT_3D('',#315,#351,#352);
#354 = PLANE('',#353);
#355 = FACE_SURFACE('',(#350),#354,.T.);
#356 = POLY_LOOP('',(#316,#313,#317,#320));
#357 = FACE_OUTER_BOUND('',#356,.T.);
#358 = DIRECTION('',(-1.000000000,0.000000000,0.000000000));
#359 = DIRECTION('',(0.000000000,-1.000000000,0.000000000));
#360 = AXIS2_PLACEMENT_3D('',#316,#358,#359);
#361 = PLANE('',#360);
#362 = FACE_SURFACE('',(#357),#361,.T.);
#363 = CLOSED_SHELL('',(#327,#334,#341,#348,#355,#362));
#364 = FACETED_BREP('silver left front panel',#363);
#365 = CARTESIAN_POINT('',(16.000000000,40.000000000,-195.000000000));
#366 = CARTESIAN_POINT('',(96.000000000,40.000000000,-195.000000000));
#367 = CARTESIAN_POINT('',(96.000000000,80.000000000,-195.000000000));
#368 = CARTESIAN_POINT('',(16.000000000,80.000000000,-195.000000000));
#369 = CARTESIAN_POINT('',(16.000000000,40.000000000,-193.000000000));
#370 = CARTESIAN_POINT('',(96.000000000,40.000000000,-193.000000000));
#371 = CARTESIAN_POINT('',(96.000000000,80.000000000,-193.000000000));
#372 = CARTESIAN_POINT('',(16.000000000,80.000000000,-193.000000000));
#373 = POLY_LOOP('',(#365,#368,#367,#366));
#374 = FACE_OUTER_BOUND('',#373,.T.);
#375 = DIRECTION('',(0.000000000,0.000000000,-1.000000000));
#376 = DIRECTION('',(0.000000000,1.000000000,0.000000000));
#377 = AXIS2_PLACEMENT_3D('',#365,#375,#376);
#378 = PLANE('',#377);
#379 = FACE_SURFACE('',(#374),#378,.T.);
#380 = POLY_LOOP('',(#369,#370,#371,#372));
#381 = FACE_OUTER_BOUND('',#380,.T.);
#382 = DIRECTION('',(0.000000000,0.000000000,1.000000000));
#383 = DIRECTION('',(1.000000000,0.000000000,0.000000000));
#384 = AXIS2_PLACEMENT_3D('',#369,#382,#383);
#385 = PLANE('',#384);
#386 = FACE_SURFACE('',(#381),#385,.T.);
#387 = POLY_LOOP('',(#365,#366,#370,#369));
#388 = FACE_OUTER_BOUND('',#387,.T.);
#389 = DIRECTION('',(0.000000000,-1.000000000,0.000000000));
#390 = DIRECTION('',(1.000000000,0.000000000,0.000000000));
#391 = AXIS2_PLACEMENT_3D('',#365,#389,#390);
#392 = PLANE('',#391);
#393 = FACE_SURFACE('',(#388),#392,.T.);
#394 = POLY_LOOP('',(#366,#367,#371,#370));
#395 = FACE_OUTER_BOUND('',#394,.T.);
#396 = DIRECTION('',(1.000000000,0.000000000,0.000000000));
#397 = DIRECTION('',(0.000000000,1.000000000,0.000000000));
#398 = AXIS2_PLACEMENT_3D('',#366,#396,#397);
#399 = PLANE('',#398);
#400 = FACE_SURFACE('',(#395),#399,.T.);
#401 = POLY_LOOP('',(#367,#368,#372,#371));
#402 = FACE_OUTER_BOUND('',#401,.T.);
#403 = DIRECTION('',(0.000000000,1.000000000,0.000000000));
#404 = DIRECTION('',(-1.000000000,0.000000000,0.000000000));
#405 = AXIS2_PLACEMENT_3D('',#367,#403,#404);
#406 = PLANE('',#405);
#407 = FACE_SURFACE('',(#402),#406,.T.);
#408 = POLY_LOOP('',(#368,#365,#369,#372));
#409 = FACE_OUTER_BOUND('',#408,.T.);
#410 = DIRECTION('',(-1.000000000,0.000000000,0.000000000));
#411 = DIRECTION('',(0.000000000,-1.000000000,0.000000000));
#412 = AXIS2_PLACEMENT_3D('',#368,#410,#411);
#413 = PLANE('',#412);
#414 = FACE_SURFACE('',(#409),#413,.T.);
#415 = CLOSED_SHELL('',(#379,#386,#393,#400,#407,#414));
#416 = FACETED_BREP('black display bezel',#415);
#417 = CARTESIAN_POINT('',(21.000000000,45.000000000,-197.000000000));
#418 = CARTESIAN_POINT('',(90.000000000,45.000000000,-197.000000000));
#419 = CARTESIAN_POINT('',(90.000000000,75.000000000,-197.000000000));
#420 = CARTESIAN_POINT('',(21.000000000,75.000000000,-197.000000000));
#421 = CARTESIAN_POINT('',(21.000000000,45.000000000,-196.000000000));
#422 = CARTESIAN_POINT('',(90.000000000,45.000000000,-196.000000000));
#423 = CARTESIAN_POINT('',(90.000000000,75.000000000,-196.000000000));
#424 = CARTESIAN_POINT('',(21.000000000,75.000000000,-196.000000000));
#425 = POLY_LOOP('',(#417,#420,#419,#418));
#426 = FACE_OUTER_BOUND('',#425,.T.);
#427 = DIRECTION('',(0.000000000,0.000000000,-1.000000000));
#428 = DIRECTION('',(0.000000000,1.000000000,0.000000000));
#429 = AXIS2_PLACEMENT_3D('',#417,#427,#428);
#430 = PLANE('',#429);
#431 = FACE_SURFACE('',(#426),#430,.T.);
#432 = POLY_LOOP('',(#421,#422,#423,#424));
#433 = FACE_OUTER_BOUND('',#432,.T.);
#434 = DIRECTION('',(0.000000000,0.000000000,1.000000000));
#435 = DIRECTION('',(1.000000000,0.000000000,0.000000000));
#436 = AXIS2_PLACEMENT_3D('',#421,#434,#435);
#437 = PLANE('',#436);
#438 = FACE_SURFACE('',(#433),#437,.T.);
#439 = POLY_LOOP('',(#417,#418,#422,#421));
#440 = FACE_OUTER_BOUND('',#439,.T.);
#441 = DIRECTION('',(0.000000000,-1.000000000,0.000000000));
#442 = DIRECTION('',(1.000000000,0.000000000,0.000000000));
#443 = AXIS2_PLACEMENT_3D('',#417,#441,#442);
#444 = PLANE('',#443);
#445 = FACE_SURFACE('',(#440),#444,.T.);
#446 = POLY_LOOP('',(#418,#419,#423,#422));
#447 = FACE_OUTER_BOUND('',#446,.T.);
#448 = DIRECTION('',(1.000000000,0.000000000,0.000000000));
#449 = DIRECTION('',(0.000000000,1.000000000,0.000000000));
#450 = AXIS2_PLACEMENT_3D('',#418,#448,#449);
#451 = PLANE('',#450);
#452 = FACE_SURFACE('',(#447),#451,.T.);
#453 = POLY_LOOP('',(#419,#420,#424,#423));
#454 = FACE_OUTER_BOUND('',#453,.T.);
#455 = DIRECTION('',(0.000000000,1.000000000,0.000000000));
#456 = DIRECTION('',(-1.000000000,0.000000000,0.000000000));
#457 = AXIS2_PLACEMENT_3D('',#419,#455,#456);
#458 = PLANE('',#457);
#459 = FACE_SURFACE('',(#454),#458,.T.);
#460 = POLY_LOOP('',(#420,#417,#421,#424));
#461 = FACE_OUTER_BOUND('',#460,.T.);
#462 = DIRECTION('',(-1.000000000,0.000000000,0.000000000));
#463 = DIRECTION('',(0.000000000,-1.000000000,0.000000000));
#464 = AXIS2_PLACEMENT_3D('',#420,#462,#463);
#465 = PLANE('',#464);
#466 = FACE_SURFACE('',(#461),#465,.T.);
#467 = CLOSED_SHELL('',(#431,#438,#445,#452,#459,#466));
#468 = FACETED_BREP('screen glass',#467);
#469 = CARTESIAN_POINT('',(14.000000000,21.000000000,-197.000000000));
#470 = CARTESIAN_POINT('',(26.000000000,21.000000000,-197.000000000));
#471 = CARTESIAN_POINT('',(26.000000000,27.000000000,-197.000000000));
#472 = CARTESIAN_POINT('',(14.000000000,27.000000000,-197.000000000));
#473 = CARTESIAN_POINT('',(14.000000000,21.000000000,-194.000000000));
#474 = CARTESIAN_POINT('',(26.000000000,21.000000000,-194.000000000));
#475 = CARTESIAN_POINT('',(26.000000000,27.000000000,-194.000000000));
#476 = CARTESIAN_POINT('',(14.000000000,27.000000000,-194.000000000));
#477 = POLY_LOOP('',(#469,#472,#471,#470));
#478 = FACE_OUTER_BOUND('',#477,.T.);
#479 = DIRECTION('',(0.000000000,0.000000000,-1.000000000));
#480 = DIRECTION('',(0.000000000,1.000000000,0.000000000));
#481 = AXIS2_PLACEMENT_3D('',#469,#479,#480);
#482 = PLANE('',#481);
#483 = FACE_SURFACE('',(#478),#482,.T.);
#484 = POLY_LOOP('',(#473,#474,#475,#476));
#485 = FACE_OUTER_BOUND('',#484,.T.);
#486 = DIRECTION('',(0.000000000,0.000000000,1.000000000));
#487 = DIRECTION('',(1.000000000,0.000000000,0.000000000));
#488 = AXIS2_PLACEMENT_3D('',#473,#486,#487);
#489 = PLANE('',#488);
#490 = FACE_SURFACE('',(#485),#489,.T.);
#491 = POLY_LOOP('',(#469,#470,#474,#473));
#492 = FACE_OUTER_BOUND('',#491,.T.);
#493 = DIRECTION('',(0.000000000,-1.000000000,0.000000000));
#494 = DIRECTION('',(1.000000000,0.000000000,0.000000000));
#495 = AXIS2_PLACEMENT_3D('',#469,#493,#494);
#496 = PLANE('',#495);
#497 = FACE_SURFACE('',(#492),#496,.T.);
#498 = POLY_LOOP('',(#470,#471,#475,#474));
#499 = FACE_OUTER_BOUND('',#498,.T.);
#500 = DIRECTION('',(1.000000000,0.000000000,0.000000000));
#501 = DIRECTION('',(0.000000000,1.000000000,0.000000000));
#502 = AXIS2_PLACEMENT_3D('',#470,#500,#501);
#503 = PLANE('',#502);
#504 = FACE_SURFACE('',(#499),#503,.T.);
#505 = POLY_LOOP('',(#471,#472,#476,#475));
#506 = FACE_OUTER_BOUND('',#505,.T.);
#507 = DIRECTION('',(0.000000000,1.000000000,0.000000000));
#508 = DIRECTION('',(-1.000000000,0.000000000,0.000000000));
#509 = AXIS2_PLACEMENT_3D('',#471,#507,#508);
#510 = PLANE('',#509);
#511 = FACE_SURFACE('',(#506),#510,.T.);
#512 = POLY_LOOP('',(#472,#469,#473,#476));
#513 = FACE_OUTER_BOUND('',#512,.T.);
#514 = DIRECTION('',(-1.000000000,0.000000000,0.000000000));
#515 = DIRECTION('',(0.000000000,-1.000000000,0.000000000));
#516 = AXIS2_PLACEMENT_3D('',#472,#514,#515);
#517 = PLANE('',#516);
#518 = FACE_SURFACE('',(#513),#517,.T.);
#519 = CLOSED_SHELL('',(#483,#490,#497,#504,#511,#518));
#520 = FACETED_BREP('black control key',#519);
#521 = CARTESIAN_POINT('',(34.000000000,21.000000000,-197.000000000));
#522 = CARTESIAN_POINT('',(46.000000000,21.000000000,-197.000000000));
#523 = CARTESIAN_POINT('',(46.000000000,27.000000000,-197.000000000));
#524 = CARTESIAN_POINT('',(34.000000000,27.000000000,-197.000000000));
#525 = CARTESIAN_POINT('',(34.000000000,21.000000000,-194.000000000));
#526 = CARTESIAN_POINT('',(46.000000000,21.000000000,-194.000000000));
#527 = CARTESIAN_POINT('',(46.000000000,27.000000000,-194.000000000));
#528 = CARTESIAN_POINT('',(34.000000000,27.000000000,-194.000000000));
#529 = POLY_LOOP('',(#521,#524,#523,#522));
#530 = FACE_OUTER_BOUND('',#529,.T.);
#531 = DIRECTION('',(0.000000000,0.000000000,-1.000000000));
#532 = DIRECTION('',(0.000000000,1.000000000,0.000000000));
#533 = AXIS2_PLACEMENT_3D('',#521,#531,#532);
#534 = PLANE('',#533);
#535 = FACE_SURFACE('',(#530),#534,.T.);
#536 = POLY_LOOP('',(#525,#526,#527,#528));
#537 = FACE_OUTER_BOUND('',#536,.T.);
#538 = DIRECTION('',(0.000000000,0.000000000,1.000000000));
#539 = DIRECTION('',(1.000000000,0.000000000,0.000000000));
#540 = AXIS2_PLACEMENT_3D('',#525,#538,#539);
#541 = PLANE('',#540);
#542 = FACE_SURFACE('',(#537),#541,.T.);
#543 = POLY_LOOP('',(#521,#522,#526,#525));
#544 = FACE_OUTER_BOUND('',#543,.T.);
#545 = DIRECTION('',(0.000000000,-1.000000000,0.000000000));
#546 = DIRECTION('',(1.000000000,0.000000000,0.000000000));
#547 = AXIS2_PLACEMENT_3D('',#521,#545,#546);
#548 = PLANE('',#547);
#549 = FACE_SURFACE('',(#544),#548,.T.);
#550 = POLY_LOOP('',(#522,#523,#527,#526));
#551 = FACE_OUTER_BOUND('',#550,.T.);
#552 = DIRECTION('',(1.000000000,0.000000000,0.000000000));
#553 = DIRECTION('',(0.000000000,1.000000000,0.000000000));
#554 = AXIS2_PLACEMENT_3D('',#522,#552,#553);
#555 = PLANE('',#554);
#556 = FACE_SURFACE('',(#551),#555,.T.);
#557 = POLY_LOOP('',(#523,#524,#528,#527));
#558 = FACE_OUTER_BOUND('',#557,.T.);
#559 = DIRECTION('',(0.000000000,1.000000000,0.000000000));
#560 = DIRECTION('',(-1.000000000,0.000000000,0.000000000));
#561 = AXIS2_PLACEMENT_3D('',#523,#559,#560);
#562 = PLANE('',#561);
#563 = FACE_SURFACE('',(#558),#562,.T.);
#564 = POLY_LOOP('',(#524,#521,#525,#528));
#565 = FACE_OUTER_BOUND('',#564,.T.);
#566 = DIRECTION('',(-1.000000000,0.000000000,0.000000000));
#567 = DIRECTION('',(0.000000000,-1.000000000,0.000000000));
#568 = AXIS2_PLACEMENT_3D('',#524,#566,#567);
#569 = PLANE('',#568);
#570 = FACE_SURFACE('',(#565),#569,.T.);
#571 = CLOSED_SHELL('',(#535,#542,#549,#556,#563,#570));
#572 = FACETED_BREP('black control key',#571);
#573 = CARTESIAN_POINT('',(54.000000000,21.000000000,-197.000000000));
#574 = CARTESIAN_POINT('',(66.000000000,21.000000000,-197.000000000));
#575 = CARTESIAN_POINT('',(66.000000000,27.000000000,-197.000000000));
#576 = CARTESIAN_POINT('',(54.000000000,27.000000000,-197.000000000));
#577 = CARTESIAN_POINT('',(54.000000000,21.000000000,-194.000000000));
#578 = CARTESIAN_POINT('',(66.000000000,21.000000000,-194.000000000));
#579 = CARTESIAN_POINT('',(66.000000000,27.000000000,-194.000000000));
#580 = CARTESIAN_POINT('',(54.000000000,27.000000000,-194.000000000));
#581 = POLY_LOOP('',(#573,#576,#575,#574));
#582 = FACE_OUTER_BOUND('',#581,.T.);
#583 = DIRECTION('',(0.000000000,0.000000000,-1.000000000));
#584 = DIRECTION('',(0.000000000,1.000000000,0.000000000));
#585 = AXIS2_PLACEMENT_3D('',#573,#583,#584);
#586 = PLANE('',#585);
#587 = FACE_SURFACE('',(#582),#586,.T.);
#588 = POLY_LOOP('',(#577,#578,#579,#580));
#589 = FACE_OUTER_BOUND('',#588,.T.);
#590 = DIRECTION('',(0.000000000,0.000000000,1.000000000));
#591 = DIRECTION('',(1.000000000,0.000000000,0.000000000));
#592 = AXIS2_PLACEMENT_3D('',#577,#590,#591);
#593 = PLANE('',#592);
#594 = FACE_SURFACE('',(#589),#593,.T.);
#595 = POLY_LOOP('',(#573,#574,#578,#577));
#596 = FACE_OUTER_BOUND('',#595,.T.);
#597 = DIRECTION('',(0.000000000,-1.000000000,0.000000000));
#598 = DIRECTION('',(1.000000000,0.000000000,0.000000000));
#599 = AXIS2_PLACEMENT_3D('',#573,#597,#598);
#600 = PLANE('',#599);
#601 = FACE_SURFACE('',(#596),#600,.T.);
#602 = POLY_LOOP('',(#574,#575,#579,#578));
#603 = FACE_OUTER_BOUND('',#602,.T.);
#604 = DIRECTION('',(1.000000000,0.000000000,0.000000000));
#605 = DIRECTION('',(0.000000000,1.000000000,0.000000000));
#606 = AXIS2_PLACEMENT_3D('',#574,#604,#605);
#607 = PLANE('',#606);
#608 = FACE_SURFACE('',(#603),#607,.T.);
#609 = POLY_LOOP('',(#575,#576,#580,#579));
#610 = FACE_OUTER_BOUND('',#609,.T.);
#611 = DIRECTION('',(0.000000000,1.000000000,0.000000000));
#612 = DIRECTION('',(-1.000000000,0.000000000,0.000000000));
#613 = AXIS2_PLACEMENT_3D('',#575,#611,#612);
#614 = PLANE('',#613);
#615 = FACE_SURFACE('',(#610),#614,.T.);
#616 = POLY_LOOP('',(#576,#573,#577,#580));
#617 = FACE_OUTER_BOUND('',#616,.T.);
#618 = DIRECTION('',(-1.000000000,0.000000000,0.000000000));
#619 = DIRECTION('',(0.000000000,-1.000000000,0.000000000));
#620 = AXIS2_PLACEMENT_3D('',#576,#618,#619);
#621 = PLANE('',#620);
#622 = FACE_SURFACE('',(#617),#621,.T.);
#623 = CLOSED_SHELL('',(#587,#594,#601,#608,#615,#622));
#624 = FACETED_BREP('black control key',#623);
#625 = CARTESIAN_POINT('',(74.000000000,21.000000000,-197.000000000));
#626 = CARTESIAN_POINT('',(86.000000000,21.000000000,-197.000000000));
#627 = CARTESIAN_POINT('',(86.000000000,27.000000000,-197.000000000));
#628 = CARTESIAN_POINT('',(74.000000000,27.000000000,-197.000000000));
#629 = CARTESIAN_POINT('',(74.000000000,21.000000000,-194.000000000));
#630 = CARTESIAN_POINT('',(86.000000000,21.000000000,-194.000000000));
#631 = CARTESIAN_POINT('',(86.000000000,27.000000000,-194.000000000));
#632 = CARTESIAN_POINT('',(74.000000000,27.000000000,-194.000000000));
#633 = POLY_LOOP('',(#625,#628,#627,#626));
#634 = FACE_OUTER_BOUND('',#633,.T.);
#635 = DIRECTION('',(0.000000000,0.000000000,-1.000000000));
#636 = DIRECTION('',(0.000000000,1.000000000,0.000000000));
#637 = AXIS2_PLACEMENT_3D('',#625,#635,#636);
#638 = PLANE('',#637);
#639 = FACE_SURFACE('',(#634),#638,.T.);
#640 = POLY_LOOP('',(#629,#630,#631,#632));
#641 = FACE_OUTER_BOUND('',#640,.T.);
#642 = DIRECTION('',(0.000000000,0.000000000,1.000000000));
#643 = DIRECTION('',(1.000000000,0.000000000,0.000000000));
#644 = AXIS2_PLACEMENT_3D('',#629,#642,#643);
#645 = PLANE('',#644);
#646 = FACE_SURFACE('',(#641),#645,.T.);
#647 = POLY_LOOP('',(#625,#626,#630,#629));
#648 = FACE_OUTER_BOUND('',#647,.T.);
#649 = DIRECTION('',(0.000000000,-1.000000000,0.000000000));
#650 = DIRECTION('',(1.000000000,0.000000000,0.000000000));
#651 = AXIS2_PLACEMENT_3D('',#625,#649,#650);
#652 = PLANE('',#651);
#653 = FACE_SURFACE('',(#648),#652,.T.);
#654 = POLY_LOOP('',(#626,#627,#631,#630));
#655 = FACE_OUTER_BOUND('',#654,.T.);
#656 = DIRECTION('',(1.000000000,0.000000000,0.000000000));
#657 = DIRECTION('',(0.000000000,1.000000000,0.000000000));
#658 = AXIS2_PLACEMENT_3D('',#626,#656,#657);
#659 = PLANE('',#658);
#660 = FACE_SURFACE('',(#655),#659,.T.);
#661 = POLY_LOOP('',(#627,#628,#632,#631));
#662 = FACE_OUTER_BOUND('',#661,.T.);
#663 = DIRECTION('',(0.000000000,1.000000000,0.000000000));
#664 = DIRECTION('',(-1.000000000,0.000000000,0.000000000));
#665 = AXIS2_PLACEMENT_3D('',#627,#663,#664);
#666 = PLANE('',#665);
#667 = FACE_SURFACE('',(#662),#666,.T.);
#668 = POLY_LOOP('',(#628,#625,#629,#632));
#669 = FACE_OUTER_BOUND('',#668,.T.);
#670 = DIRECTION('',(-1.000000000,0.000000000,0.000000000));
#671 = DIRECTION('',(0.000000000,-1.000000000,0.000000000));
#672 = AXIS2_PLACEMENT_3D('',#628,#670,#671);
#673 = PLANE('',#672);
#674 = FACE_SURFACE('',(#669),#673,.T.);
#675 = CLOSED_SHELL('',(#639,#646,#653,#660,#667,#674));
#676 = FACETED_BREP('black control key',#675);
#677 = CARTESIAN_POINT('',(-4.000000000,65.000000000,-194.000000000));
#678 = CARTESIAN_POINT('',(-4.489434837,61.909830056,-194.000000000));
#679 = CARTESIAN_POINT('',(-5.909830056,59.122147477,-194.000000000));
#680 = CARTESIAN_POINT('',(-8.122147477,56.909830056,-194.000000000));
#681 = CARTESIAN_POINT('',(-10.909830056,55.489434837,-194.000000000));
#682 = CARTESIAN_POINT('',(-14.000000000,55.000000000,-194.000000000));
#683 = CARTESIAN_POINT('',(-17.090169944,55.489434837,-194.000000000));
#684 = CARTESIAN_POINT('',(-19.877852523,56.909830056,-194.000000000));
#685 = CARTESIAN_POINT('',(-22.090169944,59.122147477,-194.000000000));
#686 = CARTESIAN_POINT('',(-23.510565163,61.909830056,-194.000000000));
#687 = CARTESIAN_POINT('',(-24.000000000,65.000000000,-194.000000000));
#688 = CARTESIAN_POINT('',(-23.510565163,68.090169944,-194.000000000));
#689 = CARTESIAN_POINT('',(-22.090169944,70.877852523,-194.000000000));
#690 = CARTESIAN_POINT('',(-19.877852523,73.090169944,-194.000000000));
#691 = CARTESIAN_POINT('',(-17.090169944,74.510565163,-194.000000000));
#692 = CARTESIAN_POINT('',(-14.000000000,75.000000000,-194.000000000));
#693 = CARTESIAN_POINT('',(-10.909830056,74.510565163,-194.000000000));
#694 = CARTESIAN_POINT('',(-8.122147477,73.090169944,-194.000000000));
#695 = CARTESIAN_POINT('',(-5.909830056,70.877852523,-194.000000000));
#696 = CARTESIAN_POINT('',(-4.489434837,68.090169944,-194.000000000));
#697 = CARTESIAN_POINT('',(-4.000000000,65.000000000,-202.000000000));
#698 = CARTESIAN_POINT('',(-4.489434837,61.909830056,-202.000000000));
#699 = CARTESIAN_POINT('',(-5.909830056,59.122147477,-202.000000000));
#700 = CARTESIAN_POINT('',(-8.122147477,56.909830056,-202.000000000));
#701 = CARTESIAN_POINT('',(-10.909830056,55.489434837,-202.000000000));
#702 = CARTESIAN_POINT('',(-14.000000000,55.000000000,-202.000000000));
#703 = CARTESIAN_POINT('',(-17.090169944,55.489434837,-202.000000000));
#704 = CARTESIAN_POINT('',(-19.877852523,56.909830056,-202.000000000));
#705 = CARTESIAN_POINT('',(-22.090169944,59.122147477,-202.000000000));
#706 = CARTESIAN_POINT('',(-23.510565163,61.909830056,-202.000000000));
#707 = CARTESIAN_POINT('',(-24.000000000,65.000000000,-202.000000000));
#708 = CARTESIAN_POINT('',(-23.510565163,68.090169944,-202.000000000));
#709 = CARTESIAN_POINT('',(-22.090169944,70.877852523,-202.000000000));
#710 = CARTESIAN_POINT('',(-19.877852523,73.090169944,-202.000000000));
#711 = CARTESIAN_POINT('',(-17.090169944,74.510565163,-202.000000000));
#712 = CARTESIAN_POINT('',(-14.000000000,75.000000000,-202.000000000));
#713 = CARTESIAN_POINT('',(-10.909830056,74.510565163,-202.000000000));
#714 = CARTESIAN_POINT('',(-8.122147477,73.090169944,-202.000000000));
#715 = CARTESIAN_POINT('',(-5.909830056,70.877852523,-202.000000000));
#716 = CARTESIAN_POINT('',(-4.489434837,68.090169944,-202.000000000));
#717 = POLY_LOOP('',(#696,#695,#694,#693,#692,#691,#690,#689,#688,#687,#686,#685,#684,#683,#682,#681,#680,#679,#678,#677));
#718 = FACE_OUTER_BOUND('',#717,.T.);
#719 = DIRECTION('',(0.000000000,0.000000000,1.000000000));
#720 = DIRECTION('',(-0.453990500,0.891006524,0.000000000));
#721 = AXIS2_PLACEMENT_3D('',#696,#719,#720);
#722 = PLANE('',#721);
#723 = FACE_SURFACE('',(#718),#722,.T.);
#724 = POLY_LOOP('',(#697,#698,#699,#700,#701,#702,#703,#704,#705,#706,#707,#708,#709,#710,#711,#712,#713,#714,#715,#716));
#725 = FACE_OUTER_BOUND('',#724,.T.);
#726 = DIRECTION('',(0.000000000,0.000000000,-1.000000000));
#727 = DIRECTION('',(-0.156434465,-0.987688341,0.000000000));
#728 = AXIS2_PLACEMENT_3D('',#697,#726,#727);
#729 = PLANE('',#728);
#730 = FACE_SURFACE('',(#725),#729,.T.);
#731 = POLY_LOOP('',(#677,#678,#698,#697));
#732 = FACE_OUTER_BOUND('',#731,.T.);
#733 = DIRECTION('',(0.987688341,-0.156434465,0.000000000));
#734 = DIRECTION('',(-0.156434465,-0.987688341,0.000000000));
#735 = AXIS2_PLACEMENT_3D('',#677,#733,#734);
#736 = PLANE('',#735);
#737 = FACE_SURFACE('',(#732),#736,.T.);
#738 = POLY_LOOP('',(#678,#679,#699,#698));
#739 = FACE_OUTER_BOUND('',#738,.T.);
#740 = DIRECTION('',(0.891006524,-0.453990500,0.000000000));
#741 = DIRECTION('',(-0.453990500,-0.891006524,0.000000000));
#742 = AXIS2_PLACEMENT_3D('',#678,#740,#741);
#743 = PLANE('',#742);
#744 = FACE_SURFACE('',(#739),#743,.T.);
#745 = POLY_LOOP('',(#679,#680,#700,#699));
#746 = FACE_OUTER_BOUND('',#745,.T.);
#747 = DIRECTION('',(0.707106781,-0.707106781,0.000000000));
#748 = DIRECTION('',(-0.707106781,-0.707106781,0.000000000));
#749 = AXIS2_PLACEMENT_3D('',#679,#747,#748);
#750 = PLANE('',#749);
#751 = FACE_SURFACE('',(#746),#750,.T.);
#752 = POLY_LOOP('',(#680,#681,#701,#700));
#753 = FACE_OUTER_BOUND('',#752,.T.);
#754 = DIRECTION('',(0.453990500,-0.891006524,0.000000000));
#755 = DIRECTION('',(-0.891006524,-0.453990500,0.000000000));
#756 = AXIS2_PLACEMENT_3D('',#680,#754,#755);
#757 = PLANE('',#756);
#758 = FACE_SURFACE('',(#753),#757,.T.);
#759 = POLY_LOOP('',(#681,#682,#702,#701));
#760 = FACE_OUTER_BOUND('',#759,.T.);
#761 = DIRECTION('',(0.156434465,-0.987688341,0.000000000));
#762 = DIRECTION('',(-0.987688341,-0.156434465,0.000000000));
#763 = AXIS2_PLACEMENT_3D('',#681,#761,#762);
#764 = PLANE('',#763);
#765 = FACE_SURFACE('',(#760),#764,.T.);
#766 = POLY_LOOP('',(#682,#683,#703,#702));
#767 = FACE_OUTER_BOUND('',#766,.T.);
#768 = DIRECTION('',(-0.156434465,-0.987688341,0.000000000));
#769 = DIRECTION('',(-0.987688341,0.156434465,0.000000000));
#770 = AXIS2_PLACEMENT_3D('',#682,#768,#769);
#771 = PLANE('',#770);
#772 = FACE_SURFACE('',(#767),#771,.T.);
#773 = POLY_LOOP('',(#683,#684,#704,#703));
#774 = FACE_OUTER_BOUND('',#773,.T.);
#775 = DIRECTION('',(-0.453990500,-0.891006524,0.000000000));
#776 = DIRECTION('',(-0.891006524,0.453990500,0.000000000));
#777 = AXIS2_PLACEMENT_3D('',#683,#775,#776);
#778 = PLANE('',#777);
#779 = FACE_SURFACE('',(#774),#778,.T.);
#780 = POLY_LOOP('',(#684,#685,#705,#704));
#781 = FACE_OUTER_BOUND('',#780,.T.);
#782 = DIRECTION('',(-0.707106781,-0.707106781,0.000000000));
#783 = DIRECTION('',(-0.707106781,0.707106781,0.000000000));
#784 = AXIS2_PLACEMENT_3D('',#684,#782,#783);
#785 = PLANE('',#784);
#786 = FACE_SURFACE('',(#781),#785,.T.);
#787 = POLY_LOOP('',(#685,#686,#706,#705));
#788 = FACE_OUTER_BOUND('',#787,.T.);
#789 = DIRECTION('',(-0.891006524,-0.453990500,0.000000000));
#790 = DIRECTION('',(-0.453990500,0.891006524,0.000000000));
#791 = AXIS2_PLACEMENT_3D('',#685,#789,#790);
#792 = PLANE('',#791);
#793 = FACE_SURFACE('',(#788),#792,.T.);
#794 = POLY_LOOP('',(#686,#687,#707,#706));
#795 = FACE_OUTER_BOUND('',#794,.T.);
#796 = DIRECTION('',(-0.987688341,-0.156434465,0.000000000));
#797 = DIRECTION('',(-0.156434465,0.987688341,0.000000000));
#798 = AXIS2_PLACEMENT_3D('',#686,#796,#797);
#799 = PLANE('',#798);
#800 = FACE_SURFACE('',(#795),#799,.T.);
#801 = POLY_LOOP('',(#687,#688,#708,#707));
#802 = FACE_OUTER_BOUND('',#801,.T.);
#803 = DIRECTION('',(-0.987688341,0.156434465,0.000000000));
#804 = DIRECTION('',(0.156434465,0.987688341,0.000000000));
#805 = AXIS2_PLACEMENT_3D('',#687,#803,#804);
#806 = PLANE('',#805);
#807 = FACE_SURFACE('',(#802),#806,.T.);
#808 = POLY_LOOP('',(#688,#689,#709,#708));
#809 = FACE_OUTER_BOUND('',#808,.T.);
#810 = DIRECTION('',(-0.891006524,0.453990500,0.000000000));
#811 = DIRECTION('',(0.453990500,0.891006524,0.000000000));
#812 = AXIS2_PLACEMENT_3D('',#688,#810,#811);
#813 = PLANE('',#812);
#814 = FACE_SURFACE('',(#809),#813,.T.);
#815 = POLY_LOOP('',(#689,#690,#710,#709));
#816 = FACE_OUTER_BOUND('',#815,.T.);
#817 = DIRECTION('',(-0.707106781,0.707106781,0.000000000));
#818 = DIRECTION('',(0.707106781,0.707106781,0.000000000));
#819 = AXIS2_PLACEMENT_3D('',#689,#817,#818);
#820 = PLANE('',#819);
#821 = FACE_SURFACE('',(#816),#820,.T.);
#822 = POLY_LOOP('',(#690,#691,#711,#710));
#823 = FACE_OUTER_BOUND('',#822,.T.);
#824 = DIRECTION('',(-0.453990500,0.891006524,0.000000000));
#825 = DIRECTION('',(0.891006524,0.453990500,0.000000000));
#826 = AXIS2_PLACEMENT_3D('',#690,#824,#825);
#827 = PLANE('',#826);
#828 = FACE_SURFACE('',(#823),#827,.T.);
#829 = POLY_LOOP('',(#691,#692,#712,#711));
#830 = FACE_OUTER_BOUND('',#829,.T.);
#831 = DIRECTION('',(-0.156434465,0.987688341,0.000000000));
#832 = DIRECTION('',(0.987688341,0.156434465,0.000000000));
#833 = AXIS2_PLACEMENT_3D('',#691,#831,#832);
#834 = PLANE('',#833);
#835 = FACE_SURFACE('',(#830),#834,.T.);
#836 = POLY_LOOP('',(#692,#693,#713,#712));
#837 = FACE_OUTER_BOUND('',#836,.T.);
#838 = DIRECTION('',(0.156434465,0.987688341,0.000000000));
#839 = DIRECTION('',(0.987688341,-0.156434465,0.000000000));
#840 = AXIS2_PLACEMENT_3D('',#692,#838,#839);
#841 = PLANE('',#840);
#842 = FACE_SURFACE('',(#837),#841,.T.);
#843 = POLY_LOOP('',(#693,#694,#714,#713));
#844 = FACE_OUTER_BOUND('',#843,.T.);
#845 = DIRECTION('',(0.453990500,0.891006524,0.000000000));
#846 = DIRECTION('',(0.891006524,-0.453990500,0.000000000));
#847 = AXIS2_PLACEMENT_3D('',#693,#845,#846);
#848 = PLANE('',#847);
#849 = FACE_SURFACE('',(#844),#848,.T.);
#850 = POLY_LOOP('',(#694,#695,#715,#714));
#851 = FACE_OUTER_BOUND('',#850,.T.);
#852 = DIRECTION('',(0.707106781,0.707106781,0.000000000));
#853 = DIRECTION('',(0.707106781,-0.707106781,0.000000000));
#854 = AXIS2_PLACEMENT_3D('',#694,#852,#853);
#855 = PLANE('',#854);
#856 = FACE_SURFACE('',(#851),#855,.T.);
#857 = POLY_LOOP('',(#695,#696,#716,#715));
#858 = FACE_OUTER_BOUND('',#857,.T.);
#859 = DIRECTION('',(0.891006524,0.453990500,0.000000000));
#860 = DIRECTION('',(0.453990500,-0.891006524,0.000000000));
#861 = AXIS2_PLACEMENT_3D('',#695,#859,#860);
#862 = PLANE('',#861);
#863 = FACE_SURFACE('',(#858),#862,.T.);
#864 = POLY_LOOP('',(#696,#677,#697,#716));
#865 = FACE_OUTER_BOUND('',#864,.T.);
#866 = DIRECTION('',(0.987688341,0.156434465,0.000000000));
#867 = DIRECTION('',(0.156434465,-0.987688341,0.000000000));
#868 = AXIS2_PLACEMENT_3D('',#696,#866,#867);
#869 = PLANE('',#868);
#870 = FACE_SURFACE('',(#865),#869,.T.);
#871 = CLOSED_SHELL('',(#723,#730,#737,#744,#751,#758,#765,#772,#779,#786,#793,#800,#807,#814,#821,#828,#835,#842,#849,#856,#863,#870));
#872 = FACETED_BREP('silver rotary control',#871);
#873 = CARTESIAN_POINT('',(-83.000000000,0.000000000,-142.000000000));
#874 = CARTESIAN_POINT('',(-65.000000000,0.000000000,-142.000000000));
#875 = CARTESIAN_POINT('',(-65.000000000,8.000000000,-142.000000000));
#876 = CARTESIAN_POINT('',(-83.000000000,8.000000000,-142.000000000));
#877 = CARTESIAN_POINT('',(-83.000000000,0.000000000,-124.000000000));
#878 = CARTESIAN_POINT('',(-65.000000000,0.000000000,-124.000000000));
#879 = CARTESIAN_POINT('',(-65.000000000,8.000000000,-124.000000000));
#880 = CARTESIAN_POINT('',(-83.000000000,8.000000000,-124.000000000));
#881 = POLY_LOOP('',(#873,#876,#875,#874));
#882 = FACE_OUTER_BOUND('',#881,.T.);
#883 = DIRECTION('',(0.000000000,0.000000000,-1.000000000));
#884 = DIRECTION('',(0.000000000,1.000000000,0.000000000));
#885 = AXIS2_PLACEMENT_3D('',#873,#883,#884);
#886 = PLANE('',#885);
#887 = FACE_SURFACE('',(#882),#886,.T.);
#888 = POLY_LOOP('',(#877,#878,#879,#880));
#889 = FACE_OUTER_BOUND('',#888,.T.);
#890 = DIRECTION('',(0.000000000,0.000000000,1.000000000));
#891 = DIRECTION('',(1.000000000,0.000000000,0.000000000));
#892 = AXIS2_PLACEMENT_3D('',#877,#890,#891);
#893 = PLANE('',#892);
#894 = FACE_SURFACE('',(#889),#893,.T.);
#895 = POLY_LOOP('',(#873,#874,#878,#877));
#896 = FACE_OUTER_BOUND('',#895,.T.);
#897 = DIRECTION('',(0.000000000,-1.000000000,0.000000000));
#898 = DIRECTION('',(1.000000000,0.000000000,0.000000000));
#899 = AXIS2_PLACEMENT_3D('',#873,#897,#898);
#900 = PLANE('',#899);
#901 = FACE_SURFACE('',(#896),#900,.T.);
#902 = POLY_LOOP('',(#874,#875,#879,#878));
#903 = FACE_OUTER_BOUND('',#902,.T.);
#904 = DIRECTION('',(1.000000000,0.000000000,0.000000000));
#905 = DIRECTION('',(0.000000000,1.000000000,0.000000000));
#906 = AXIS2_PLACEMENT_3D('',#874,#904,#905);
#907 = PLANE('',#906);
#908 = FACE_SURFACE('',(#903),#907,.T.);
#909 = POLY_LOOP('',(#875,#876,#880,#879));
#910 = FACE_OUTER_BOUND('',#909,.T.);
#911 = DIRECTION('',(0.000000000,1.000000000,0.000000000));
#912 = DIRECTION('',(-1.000000000,0.000000000,0.000000000));
#913 = AXIS2_PLACEMENT_3D('',#875,#911,#912);
#914 = PLANE('',#913);
#915 = FACE_SURFACE('',(#910),#914,.T.);
#916 = POLY_LOOP('',(#876,#873,#877,#880));
#917 = FACE_OUTER_BOUND('',#916,.T.);
#918 = DIRECTION('',(-1.000000000,0.000000000,0.000000000));
#919 = DIRECTION('',(0.000000000,-1.000000000,0.000000000));
#920 = AXIS2_PLACEMENT_3D('',#876,#918,#919);
#921 = PLANE('',#920);
#922 = FACE_SURFACE('',(#917),#921,.T.);
#923 = CLOSED_SHELL('',(#887,#894,#901,#908,#915,#922));
#924 = FACETED_BREP('black foot',#923);
#925 = CARTESIAN_POINT('',(-83.000000000,0.000000000,124.000000000));
#926 = CARTESIAN_POINT('',(-65.000000000,0.000000000,124.000000000));
#927 = CARTESIAN_POINT('',(-65.000000000,8.000000000,124.000000000));
#928 = CARTESIAN_POINT('',(-83.000000000,8.000000000,124.000000000));
#929 = CARTESIAN_POINT('',(-83.000000000,0.000000000,142.000000000));
#930 = CARTESIAN_POINT('',(-65.000000000,0.000000000,142.000000000));
#931 = CARTESIAN_POINT('',(-65.000000000,8.000000000,142.000000000));
#932 = CARTESIAN_POINT('',(-83.000000000,8.000000000,142.000000000));
#933 = POLY_LOOP('',(#925,#928,#927,#926));
#934 = FACE_OUTER_BOUND('',#933,.T.);
#935 = DIRECTION('',(0.000000000,0.000000000,-1.000000000));
#936 = DIRECTION('',(0.000000000,1.000000000,0.000000000));
#937 = AXIS2_PLACEMENT_3D('',#925,#935,#936);
#938 = PLANE('',#937);
#939 = FACE_SURFACE('',(#934),#938,.T.);
#940 = POLY_LOOP('',(#929,#930,#931,#932));
#941 = FACE_OUTER_BOUND('',#940,.T.);
#942 = DIRECTION('',(0.000000000,0.000000000,1.000000000));
#943 = DIRECTION('',(1.000000000,0.000000000,0.000000000));
#944 = AXIS2_PLACEMENT_3D('',#929,#942,#943);
#945 = PLANE('',#944);
#946 = FACE_SURFACE('',(#941),#945,.T.);
#947 = POLY_LOOP('',(#925,#926,#930,#929));
#948 = FACE_OUTER_BOUND('',#947,.T.);
#949 = DIRECTION('',(0.000000000,-1.000000000,0.000000000));
#950 = DIRECTION('',(1.000000000,0.000000000,0.000000000));
#951 = AXIS2_PLACEMENT_3D('',#925,#949,#950);
#952 = PLANE('',#951);
#953 = FACE_SURFACE('',(#948),#952,.T.);
#954 = POLY_LOOP('',(#926,#927,#931,#930));
#955 = FACE_OUTER_BOUND('',#954,.T.);
#956 = DIRECTION('',(1.000000000,0.000000000,0.000000000));
#957 = DIRECTION('',(0.000000000,1.000000000,0.000000000));
#958 = AXIS2_PLACEMENT_3D('',#926,#956,#957);
#959 = PLANE('',#958);
#960 = FACE_SURFACE('',(#955),#959,.T.);
#961 = POLY_LOOP('',(#927,#928,#932,#931));
#962 = FACE_OUTER_BOUND('',#961,.T.);
#963 = DIRECTION('',(0.000000000,1.000000000,0.000000000));
#964 = DIRECTION('',(-1.000000000,0.000000000,0.000000000));
#965 = AXIS2_PLACEMENT_3D('',#927,#963,#964);
#966 = PLANE('',#965);
#967 = FACE_SURFACE('',(#962),#966,.T.);
#968 = POLY_LOOP('',(#928,#925,#929,#932));
#969 = FACE_OUTER_BOUND('',#968,.T.);
#970 = DIRECTION('',(-1.000000000,0.000000000,0.000000000));
#971 = DIRECTION('',(0.000000000,-1.000000000,0.000000000));
#972 = AXIS2_PLACEMENT_3D('',#928,#970,#971);
#973 = PLANE('',#972);
#974 = FACE_SURFACE('',(#969),#973,.T.);
#975 = CLOSED_SHELL('',(#939,#946,#953,#960,#967,#974));
#976 = FACETED_BREP('black foot',#975);
#977 = CARTESIAN_POINT('',(65.000000000,0.000000000,-142.000000000));
#978 = CARTESIAN_POINT('',(83.000000000,0.000000000,-142.000000000));
#979 = CARTESIAN_POINT('',(83.000000000,8.000000000,-142.000000000));
#980 = CARTESIAN_POINT('',(65.000000000,8.000000000,-142.000000000));
#981 = CARTESIAN_POINT('',(65.000000000,0.000000000,-124.000000000));
#982 = CARTESIAN_POINT('',(83.000000000,0.000000000,-124.000000000));
#983 = CARTESIAN_POINT('',(83.000000000,8.000000000,-124.000000000));
#984 = CARTESIAN_POINT('',(65.000000000,8.000000000,-124.000000000));
#985 = POLY_LOOP('',(#977,#980,#979,#978));
#986 = FACE_OUTER_BOUND('',#985,.T.);
#987 = DIRECTION('',(0.000000000,0.000000000,-1.000000000));
#988 = DIRECTION('',(0.000000000,1.000000000,0.000000000));
#989 = AXIS2_PLACEMENT_3D('',#977,#987,#988);
#990 = PLANE('',#989);
#991 = FACE_SURFACE('',(#986),#990,.T.);
#992 = POLY_LOOP('',(#981,#982,#983,#984));
#993 = FACE_OUTER_BOUND('',#992,.T.);
#994 = DIRECTION('',(0.000000000,0.000000000,1.000000000));
#995 = DIRECTION('',(1.000000000,0.000000000,0.000000000));
#996 = AXIS2_PLACEMENT_3D('',#981,#994,#995);
#997 = PLANE('',#996);
#998 = FACE_SURFACE('',(#993),#997,.T.);
#999 = POLY_LOOP('',(#977,#978,#982,#981));
#1000 = FACE_OUTER_BOUND('',#999,.T.);
#1001 = DIRECTION('',(0.000000000,-1.000000000,0.000000000));
#1002 = DIRECTION('',(1.000000000,0.000000000,0.000000000));
#1003 = AXIS2_PLACEMENT_3D('',#977,#1001,#1002);
#1004 = PLANE('',#1003);
#1005 = FACE_SURFACE('',(#1000),#1004,.T.);
#1006 = POLY_LOOP('',(#978,#979,#983,#982));
#1007 = FACE_OUTER_BOUND('',#1006,.T.);
#1008 = DIRECTION('',(1.000000000,0.000000000,0.000000000));
#1009 = DIRECTION('',(0.000000000,1.000000000,0.000000000));
#1010 = AXIS2_PLACEMENT_3D('',#978,#1008,#1009);
#1011 = PLANE('',#1010);
#1012 = FACE_SURFACE('',(#1007),#1011,.T.);
#1013 = POLY_LOOP('',(#979,#980,#984,#983));
#1014 = FACE_OUTER_BOUND('',#1013,.T.);
#1015 = DIRECTION('',(0.000000000,1.000000000,0.000000000));
#1016 = DIRECTION('',(-1.000000000,0.000000000,0.000000000));
#1017 = AXIS2_PLACEMENT_3D('',#979,#1015,#1016);
#1018 = PLANE('',#1017);
#1019 = FACE_SURFACE('',(#1014),#1018,.T.);
#1020 = POLY_LOOP('',(#980,#977,#981,#984));
#1021 = FACE_OUTER_BOUND('',#1020,.T.);
#1022 = DIRECTION('',(-1.000000000,0.000000000,0.000000000));
#1023 = DIRECTION('',(0.000000000,-1.000000000,0.000000000));
#1024 = AXIS2_PLACEMENT_3D('',#980,#1022,#1023);
#1025 = PLANE('',#1024);
#1026 = FACE_SURFACE('',(#1021),#1025,.T.);
#1027 = CLOSED_SHELL('',(#991,#998,#1005,#1012,#1019,#1026));
#1028 = FACETED_BREP('black foot',#1027);
#1029 = CARTESIAN_POINT('',(65.000000000,0.000000000,124.000000000));
#1030 = CARTESIAN_POINT('',(83.000000000,0.000000000,124.000000000));
#1031 = CARTESIAN_POINT('',(83.000000000,8.000000000,124.000000000));
#1032 = CARTESIAN_POINT('',(65.000000000,8.000000000,124.000000000));
#1033 = CARTESIAN_POINT('',(65.000000000,0.000000000,142.000000000));
#1034 = CARTESIAN_POINT('',(83.000000000,0.000000000,142.000000000));
#1035 = CARTESIAN_POINT('',(83.000000000,8.000000000,142.000000000));
#1036 = CARTESIAN_POINT('',(65.000000000,8.000000000,142.000000000));
#1037 = POLY_LOOP('',(#1029,#1032,#1031,#1030));
#1038 = FACE_OUTER_BOUND('',#1037,.T.);
#1039 = DIRECTION('',(0.000000000,0.000000000,-1.000000000));
#1040 = DIRECTION('',(0.000000000,1.000000000,0.000000000));
#1041 = AXIS2_PLACEMENT_3D('',#1029,#1039,#1040);
#1042 = PLANE('',#1041);
#1043 = FACE_SURFACE('',(#1038),#1042,.T.);
#1044 = POLY_LOOP('',(#1033,#1034,#1035,#1036));
#1045 = FACE_OUTER_BOUND('',#1044,.T.);
#1046 = DIRECTION('',(0.000000000,0.000000000,1.000000000));
#1047 = DIRECTION('',(1.000000000,0.000000000,0.000000000));
#1048 = AXIS2_PLACEMENT_3D('',#1033,#1046,#1047);
#1049 = PLANE('',#1048);
#1050 = FACE_SURFACE('',(#1045),#1049,.T.);
#1051 = POLY_LOOP('',(#1029,#1030,#1034,#1033));
#1052 = FACE_OUTER_BOUND('',#1051,.T.);
#1053 = DIRECTION('',(0.000000000,-1.000000000,0.000000000));
#1054 = DIRECTION('',(1.000000000,0.000000000,0.000000000));
#1055 = AXIS2_PLACEMENT_3D('',#1029,#1053,#1054);
#1056 = PLANE('',#1055);
#1057 = FACE_SURFACE('',(#1052),#1056,.T.);
#1058 = POLY_LOOP('',(#1030,#1031,#1035,#1034));
#1059 = FACE_OUTER_BOUND('',#1058,.T.);
#1060 = DIRECTION('',(1.000000000,0.000000000,0.000000000));
#1061 = DIRECTION('',(0.000000000,1.000000000,0.000000000));
#1062 = AXIS2_PLACEMENT_3D('',#1030,#1060,#1061);
#1063 = PLANE('',#1062);
#1064 = FACE_SURFACE('',(#1059),#1063,.T.);
#1065 = POLY_LOOP('',(#1031,#1032,#1036,#1035));
#1066 = FACE_OUTER_BOUND('',#1065,.T.);
#1067 = DIRECTION('',(0.000000000,1.000000000,0.000000000));
#1068 = DIRECTION('',(-1.000000000,0.000000000,0.000000000));
#1069 = AXIS2_PLACEMENT_3D('',#1031,#1067,#1068);
#1070 = PLANE('',#1069);
#1071 = FACE_SURFACE('',(#1066),#1070,.T.);
#1072 = POLY_LOOP('',(#1032,#1029,#1033,#1036));
#1073 = FACE_OUTER_BOUND('',#1072,.T.);
#1074 = DIRECTION('',(-1.000000000,0.000000000,0.000000000));
#1075 = DIRECTION('',(0.000000000,-1.000000000,0.000000000));
#1076 = AXIS2_PLACEMENT_3D('',#1032,#1074,#1075);
#1077 = PLANE('',#1076);
#1078 = FACE_SURFACE('',(#1073),#1077,.T.);
#1079 = CLOSED_SHELL('',(#1043,#1050,#1057,#1064,#1071,#1078));
#1080 = FACETED_BREP('black foot',#1079);
#1081 = APPLICATION_CONTEXT('configuration controlled 3d designs of mechanical parts and assemblies');
#1082 = APPLICATION_PROTOCOL_DEFINITION('international standard','config_control_design',1994,#1081);
#1083 = PRODUCT_CONTEXT('',#1081,'mechanical');
#1084 = PRODUCT('REF','Illustrative reference','NOT vendor CAD',(#1083));
#1085 = PRODUCT_DEFINITION_FORMATION_WITH_SPECIFIED_SOURCE('','',#1084,.NOT_KNOWN.);
#1086 = PRODUCT_DEFINITION_CONTEXT('part definition',#1081,'design');
#1087 = PRODUCT_DEFINITION('design','',#1085,#1086);
#1088 = PRODUCT_DEFINITION_SHAPE('','',#1087);
#1089 = (LENGTH_UNIT()NAMED_UNIT(*)SI_UNIT(.MILLI.,.METRE.));
#1090 = (NAMED_UNIT(*)PLANE_ANGLE_UNIT()SI_UNIT($,.RADIAN.));
#1091 = (NAMED_UNIT(*)SI_UNIT($,.STERADIAN.)SOLID_ANGLE_UNIT());
#1092 = UNCERTAINTY_MEASURE_WITH_UNIT(LENGTH_MEASURE(0.000001),#1089,'distance_accuracy_value','');
#1093 = (GEOMETRIC_REPRESENTATION_CONTEXT(3)GLOBAL_UNCERTAINTY_ASSIGNED_CONTEXT((#1092))GLOBAL_UNIT_ASSIGNED_CONTEXT((#1089,#1090,#1091))REPRESENTATION_CONTEXT('',''));
#1094 = FACETED_BREP_SHAPE_REPRESENTATION('Illustrative reference',(#52,#104,#156,#208,#260,#312,#364,#416,#468,#520,#572,#624,#676,#872,#924,#976,#1028,#1080),#1093);
#1095 = SHAPE_DEFINITION_REPRESENTATION(#1088,#1094);
ENDSEC;
END-ISO-10303-21;
