ISO-10303-21;
HEADER;
FILE_DESCRIPTION(('Illustrative CAD - NOT vendor dimensions'),'2;1');
FILE_NAME('reference.step','2026-10-07',('CORNERSTONE'),(''),'reference generator','','');
FILE_SCHEMA(('CONFIG_CONTROL_DESIGN'));
ENDSEC;
DATA;
#1 = CARTESIAN_POINT('',(-30.000000000,18.000000000,-29.000000000));
#2 = CARTESIAN_POINT('',(30.000000000,18.000000000,-29.000000000));
#3 = CARTESIAN_POINT('',(30.000000000,113.000000000,-29.000000000));
#4 = CARTESIAN_POINT('',(-30.000000000,113.000000000,-29.000000000));
#5 = CARTESIAN_POINT('',(-30.000000000,18.000000000,29.000000000));
#6 = CARTESIAN_POINT('',(30.000000000,18.000000000,29.000000000));
#7 = CARTESIAN_POINT('',(30.000000000,113.000000000,29.000000000));
#8 = CARTESIAN_POINT('',(-30.000000000,113.000000000,29.000000000));
#9 = POLY_LOOP('',(#1,#4,#3,#2));
#10 = FACE_OUTER_BOUND('',#9,.T.);
#11 = DIRECTION('',(0.000000000,0.000000000,-1.000000000));
#12 = DIRECTION('',(0.000000000,1.000000000,0.000000000));
#13 = AXIS2_PLACEMENT_3D('',#1,#11,#12);
#14 = PLANE('',#13);
#15 = FACE_SURFACE('',(#10),#14,.T.);
#16 = POLY_LOOP('',(#5,#6,#7,#8));
#17 = FACE_OUTER_BOUND('',#16,.T.);
#18 = DIRECTION('',(0.000000000,0.000000000,1.000000000));
#19 = DIRECTION('',(1.000000000,0.000000000,0.000000000));
#20 = AXIS2_PLACEMENT_3D('',#5,#18,#19);
#21 = PLANE('',#20);
#22 = FACE_SURFACE('',(#17),#21,.T.);
#23 = POLY_LOOP('',(#1,#2,#6,#5));
#24 = FACE_OUTER_BOUND('',#23,.T.);
#25 = DIRECTION('',(0.000000000,-1.000000000,0.000000000));
#26 = DIRECTION('',(1.000000000,0.000000000,0.000000000));
#27 = AXIS2_PLACEMENT_3D('',#1,#25,#26);
#28 = PLANE('',#27);
#29 = FACE_SURFACE('',(#24),#28,.T.);
#30 = POLY_LOOP('',(#2,#3,#7,#6));
#31 = FACE_OUTER_BOUND('',#30,.T.);
#32 = DIRECTION('',(1.000000000,0.000000000,0.000000000));
#33 = DIRECTION('',(0.000000000,1.000000000,0.000000000));
#34 = AXIS2_PLACEMENT_3D('',#2,#32,#33);
#35 = PLANE('',#34);
#36 = FACE_SURFACE('',(#31),#35,.T.);
#37 = POLY_LOOP('',(#3,#4,#8,#7));
#38 = FACE_OUTER_BOUND('',#37,.T.);
#39 = DIRECTION('',(0.000000000,1.000000000,0.000000000));
#40 = DIRECTION('',(-1.000000000,0.000000000,0.000000000));
#41 = AXIS2_PLACEMENT_3D('',#3,#39,#40);
#42 = PLANE('',#41);
#43 = FACE_SURFACE('',(#38),#42,.T.);
#44 = POLY_LOOP('',(#4,#1,#5,#8));
#45 = FACE_OUTER_BOUND('',#44,.T.);
#46 = DIRECTION('',(-1.000000000,0.000000000,0.000000000));
#47 = DIRECTION('',(0.000000000,-1.000000000,0.000000000));
#48 = AXIS2_PLACEMENT_3D('',#4,#46,#47);
#49 = PLANE('',#48);
#50 = FACE_SURFACE('',(#45),#49,.T.);
#51 = CLOSED_SHELL('',(#15,#22,#29,#36,#43,#50));
#52 = FACETED_BREP('black camera housing',#51);
#53 = CARTESIAN_POINT('',(0.000000000,0.000000000,-19.000000000));
#54 = CARTESIAN_POINT('',(-5.871322893,0.000000000,-18.070073810));
#55 = CARTESIAN_POINT('',(-11.167919794,0.000000000,-15.371322893));
#56 = CARTESIAN_POINT('',(-15.371322893,0.000000000,-11.167919794));
#57 = CARTESIAN_POINT('',(-18.070073810,0.000000000,-5.871322893));
#58 = CARTESIAN_POINT('',(-19.000000000,0.000000000,-0.000000000));
#59 = CARTESIAN_POINT('',(-18.070073810,0.000000000,5.871322893));
#60 = CARTESIAN_POINT('',(-15.371322893,0.000000000,11.167919794));
#61 = CARTESIAN_POINT('',(-11.167919794,0.000000000,15.371322893));
#62 = CARTESIAN_POINT('',(-5.871322893,0.000000000,18.070073810));
#63 = CARTESIAN_POINT('',(-0.000000000,0.000000000,19.000000000));
#64 = CARTESIAN_POINT('',(5.871322893,0.000000000,18.070073810));
#65 = CARTESIAN_POINT('',(11.167919794,0.000000000,15.371322893));
#66 = CARTESIAN_POINT('',(15.371322893,0.000000000,11.167919794));
#67 = CARTESIAN_POINT('',(18.070073810,0.000000000,5.871322893));
#68 = CARTESIAN_POINT('',(19.000000000,0.000000000,0.000000000));
#69 = CARTESIAN_POINT('',(18.070073810,0.000000000,-5.871322893));
#70 = CARTESIAN_POINT('',(15.371322893,0.000000000,-11.167919794));
#71 = CARTESIAN_POINT('',(11.167919794,0.000000000,-15.371322893));
#72 = CARTESIAN_POINT('',(5.871322893,0.000000000,-18.070073810));
#73 = CARTESIAN_POINT('',(0.000000000,18.000000000,-19.000000000));
#74 = CARTESIAN_POINT('',(-5.871322893,18.000000000,-18.070073810));
#75 = CARTESIAN_POINT('',(-11.167919794,18.000000000,-15.371322893));
#76 = CARTESIAN_POINT('',(-15.371322893,18.000000000,-11.167919794));
#77 = CARTESIAN_POINT('',(-18.070073810,18.000000000,-5.871322893));
#78 = CARTESIAN_POINT('',(-19.000000000,18.000000000,-0.000000000));
#79 = CARTESIAN_POINT('',(-18.070073810,18.000000000,5.871322893));
#80 = CARTESIAN_POINT('',(-15.371322893,18.000000000,11.167919794));
#81 = CARTESIAN_POINT('',(-11.167919794,18.000000000,15.371322893));
#82 = CARTESIAN_POINT('',(-5.871322893,18.000000000,18.070073810));
#83 = CARTESIAN_POINT('',(-0.000000000,18.000000000,19.000000000));
#84 = CARTESIAN_POINT('',(5.871322893,18.000000000,18.070073810));
#85 = CARTESIAN_POINT('',(11.167919794,18.000000000,15.371322893));
#86 = CARTESIAN_POINT('',(15.371322893,18.000000000,11.167919794));
#87 = CARTESIAN_POINT('',(18.070073810,18.000000000,5.871322893));
#88 = CARTESIAN_POINT('',(19.000000000,18.000000000,0.000000000));
#89 = CARTESIAN_POINT('',(18.070073810,18.000000000,-5.871322893));
#90 = CARTESIAN_POINT('',(15.371322893,18.000000000,-11.167919794));
#91 = CARTESIAN_POINT('',(11.167919794,18.000000000,-15.371322893));
#92 = CARTESIAN_POINT('',(5.871322893,18.000000000,-18.070073810));
#93 = POLY_LOOP('',(#72,#71,#70,#69,#68,#67,#66,#65,#64,#63,#62,#61,#60,#59,#58,#57,#56,#55,#54,#53));
#94 = FACE_OUTER_BOUND('',#93,.T.);
#95 = DIRECTION('',(0.000000000,-1.000000000,0.000000000));
#96 = DIRECTION('',(0.891006524,0.000000000,0.453990500));
#97 = AXIS2_PLACEMENT_3D('',#72,#95,#96);
#98 = PLANE('',#97);
#99 = FACE_SURFACE('',(#94),#98,.T.);
#100 = POLY_LOOP('',(#73,#74,#75,#76,#77,#78,#79,#80,#81,#82,#83,#84,#85,#86,#87,#88,#89,#90,#91,#92));
#101 = FACE_OUTER_BOUND('',#100,.T.);
#102 = DIRECTION('',(0.000000000,1.000000000,0.000000000));
#103 = DIRECTION('',(-0.987688341,0.000000000,0.156434465));
#104 = AXIS2_PLACEMENT_3D('',#73,#102,#103);
#105 = PLANE('',#104);
#106 = FACE_SURFACE('',(#101),#105,.T.);
#107 = POLY_LOOP('',(#53,#54,#74,#73));
#108 = FACE_OUTER_BOUND('',#107,.T.);
#109 = DIRECTION('',(-0.156434465,0.000000000,-0.987688341));
#110 = DIRECTION('',(-0.987688341,0.000000000,0.156434465));
#111 = AXIS2_PLACEMENT_3D('',#53,#109,#110);
#112 = PLANE('',#111);
#113 = FACE_SURFACE('',(#108),#112,.T.);
#114 = POLY_LOOP('',(#54,#55,#75,#74));
#115 = FACE_OUTER_BOUND('',#114,.T.);
#116 = DIRECTION('',(-0.453990500,0.000000000,-0.891006524));
#117 = DIRECTION('',(-0.891006524,0.000000000,0.453990500));
#118 = AXIS2_PLACEMENT_3D('',#54,#116,#117);
#119 = PLANE('',#118);
#120 = FACE_SURFACE('',(#115),#119,.T.);
#121 = POLY_LOOP('',(#55,#56,#76,#75));
#122 = FACE_OUTER_BOUND('',#121,.T.);
#123 = DIRECTION('',(-0.707106781,0.000000000,-0.707106781));
#124 = DIRECTION('',(-0.707106781,0.000000000,0.707106781));
#125 = AXIS2_PLACEMENT_3D('',#55,#123,#124);
#126 = PLANE('',#125);
#127 = FACE_SURFACE('',(#122),#126,.T.);
#128 = POLY_LOOP('',(#56,#57,#77,#76));
#129 = FACE_OUTER_BOUND('',#128,.T.);
#130 = DIRECTION('',(-0.891006524,0.000000000,-0.453990500));
#131 = DIRECTION('',(-0.453990500,0.000000000,0.891006524));
#132 = AXIS2_PLACEMENT_3D('',#56,#130,#131);
#133 = PLANE('',#132);
#134 = FACE_SURFACE('',(#129),#133,.T.);
#135 = POLY_LOOP('',(#57,#58,#78,#77));
#136 = FACE_OUTER_BOUND('',#135,.T.);
#137 = DIRECTION('',(-0.987688341,0.000000000,-0.156434465));
#138 = DIRECTION('',(-0.156434465,0.000000000,0.987688341));
#139 = AXIS2_PLACEMENT_3D('',#57,#137,#138);
#140 = PLANE('',#139);
#141 = FACE_SURFACE('',(#136),#140,.T.);
#142 = POLY_LOOP('',(#58,#59,#79,#78));
#143 = FACE_OUTER_BOUND('',#142,.T.);
#144 = DIRECTION('',(-0.987688341,0.000000000,0.156434465));
#145 = DIRECTION('',(0.156434465,0.000000000,0.987688341));
#146 = AXIS2_PLACEMENT_3D('',#58,#144,#145);
#147 = PLANE('',#146);
#148 = FACE_SURFACE('',(#143),#147,.T.);
#149 = POLY_LOOP('',(#59,#60,#80,#79));
#150 = FACE_OUTER_BOUND('',#149,.T.);
#151 = DIRECTION('',(-0.891006524,0.000000000,0.453990500));
#152 = DIRECTION('',(0.453990500,0.000000000,0.891006524));
#153 = AXIS2_PLACEMENT_3D('',#59,#151,#152);
#154 = PLANE('',#153);
#155 = FACE_SURFACE('',(#150),#154,.T.);
#156 = POLY_LOOP('',(#60,#61,#81,#80));
#157 = FACE_OUTER_BOUND('',#156,.T.);
#158 = DIRECTION('',(-0.707106781,0.000000000,0.707106781));
#159 = DIRECTION('',(0.707106781,0.000000000,0.707106781));
#160 = AXIS2_PLACEMENT_3D('',#60,#158,#159);
#161 = PLANE('',#160);
#162 = FACE_SURFACE('',(#157),#161,.T.);
#163 = POLY_LOOP('',(#61,#62,#82,#81));
#164 = FACE_OUTER_BOUND('',#163,.T.);
#165 = DIRECTION('',(-0.453990500,0.000000000,0.891006524));
#166 = DIRECTION('',(0.891006524,0.000000000,0.453990500));
#167 = AXIS2_PLACEMENT_3D('',#61,#165,#166);
#168 = PLANE('',#167);
#169 = FACE_SURFACE('',(#164),#168,.T.);
#170 = POLY_LOOP('',(#62,#63,#83,#82));
#171 = FACE_OUTER_BOUND('',#170,.T.);
#172 = DIRECTION('',(-0.156434465,0.000000000,0.987688341));
#173 = DIRECTION('',(0.987688341,0.000000000,0.156434465));
#174 = AXIS2_PLACEMENT_3D('',#62,#172,#173);
#175 = PLANE('',#174);
#176 = FACE_SURFACE('',(#171),#175,.T.);
#177 = POLY_LOOP('',(#63,#64,#84,#83));
#178 = FACE_OUTER_BOUND('',#177,.T.);
#179 = DIRECTION('',(0.156434465,0.000000000,0.987688341));
#180 = DIRECTION('',(0.987688341,0.000000000,-0.156434465));
#181 = AXIS2_PLACEMENT_3D('',#63,#179,#180);
#182 = PLANE('',#181);
#183 = FACE_SURFACE('',(#178),#182,.T.);
#184 = POLY_LOOP('',(#64,#65,#85,#84));
#185 = FACE_OUTER_BOUND('',#184,.T.);
#186 = DIRECTION('',(0.453990500,0.000000000,0.891006524));
#187 = DIRECTION('',(0.891006524,0.000000000,-0.453990500));
#188 = AXIS2_PLACEMENT_3D('',#64,#186,#187);
#189 = PLANE('',#188);
#190 = FACE_SURFACE('',(#185),#189,.T.);
#191 = POLY_LOOP('',(#65,#66,#86,#85));
#192 = FACE_OUTER_BOUND('',#191,.T.);
#193 = DIRECTION('',(0.707106781,0.000000000,0.707106781));
#194 = DIRECTION('',(0.707106781,0.000000000,-0.707106781));
#195 = AXIS2_PLACEMENT_3D('',#65,#193,#194);
#196 = PLANE('',#195);
#197 = FACE_SURFACE('',(#192),#196,.T.);
#198 = POLY_LOOP('',(#66,#67,#87,#86));
#199 = FACE_OUTER_BOUND('',#198,.T.);
#200 = DIRECTION('',(0.891006524,0.000000000,0.453990500));
#201 = DIRECTION('',(0.453990500,0.000000000,-0.891006524));
#202 = AXIS2_PLACEMENT_3D('',#66,#200,#201);
#203 = PLANE('',#202);
#204 = FACE_SURFACE('',(#199),#203,.T.);
#205 = POLY_LOOP('',(#67,#68,#88,#87));
#206 = FACE_OUTER_BOUND('',#205,.T.);
#207 = DIRECTION('',(0.987688341,0.000000000,0.156434465));
#208 = DIRECTION('',(0.156434465,0.000000000,-0.987688341));
#209 = AXIS2_PLACEMENT_3D('',#67,#207,#208);
#210 = PLANE('',#209);
#211 = FACE_SURFACE('',(#206),#210,.T.);
#212 = POLY_LOOP('',(#68,#69,#89,#88));
#213 = FACE_OUTER_BOUND('',#212,.T.);
#214 = DIRECTION('',(0.987688341,0.000000000,-0.156434465));
#215 = DIRECTION('',(-0.156434465,0.000000000,-0.987688341));
#216 = AXIS2_PLACEMENT_3D('',#68,#214,#215);
#217 = PLANE('',#216);
#218 = FACE_SURFACE('',(#213),#217,.T.);
#219 = POLY_LOOP('',(#69,#70,#90,#89));
#220 = FACE_OUTER_BOUND('',#219,.T.);
#221 = DIRECTION('',(0.891006524,0.000000000,-0.453990500));
#222 = DIRECTION('',(-0.453990500,0.000000000,-0.891006524));
#223 = AXIS2_PLACEMENT_3D('',#69,#221,#222);
#224 = PLANE('',#223);
#225 = FACE_SURFACE('',(#220),#224,.T.);
#226 = POLY_LOOP('',(#70,#71,#91,#90));
#227 = FACE_OUTER_BOUND('',#226,.T.);
#228 = DIRECTION('',(0.707106781,0.000000000,-0.707106781));
#229 = DIRECTION('',(-0.707106781,0.000000000,-0.707106781));
#230 = AXIS2_PLACEMENT_3D('',#70,#228,#229);
#231 = PLANE('',#230);
#232 = FACE_SURFACE('',(#227),#231,.T.);
#233 = POLY_LOOP('',(#71,#72,#92,#91));
#234 = FACE_OUTER_BOUND('',#233,.T.);
#235 = DIRECTION('',(0.453990500,0.000000000,-0.891006524));
#236 = DIRECTION('',(-0.891006524,0.000000000,-0.453990500));
#237 = AXIS2_PLACEMENT_3D('',#71,#235,#236);
#238 = PLANE('',#237);
#239 = FACE_SURFACE('',(#234),#238,.T.);
#240 = POLY_LOOP('',(#72,#53,#73,#92));
#241 = FACE_OUTER_BOUND('',#240,.T.);
#242 = DIRECTION('',(0.156434465,0.000000000,-0.987688341));
#243 = DIRECTION('',(-0.987688341,0.000000000,-0.156434465));
#244 = AXIS2_PLACEMENT_3D('',#72,#242,#243);
#245 = PLANE('',#244);
#246 = FACE_SURFACE('',(#241),#245,.T.);
#247 = CLOSED_SHELL('',(#99,#106,#113,#120,#127,#134,#141,#148,#155,#162,#169,#176,#183,#190,#197,#204,#211,#218,#225,#232,#239,#246));
#248 = FACETED_BREP('black lens mount',#247);
#249 = CARTESIAN_POINT('',(0.000000000,113.000000000,-6.000000000));
#250 = CARTESIAN_POINT('',(-1.854101966,113.000000000,-5.706339098));
#251 = CARTESIAN_POINT('',(-3.526711514,113.000000000,-4.854101966));
#252 = CARTESIAN_POINT('',(-4.854101966,113.000000000,-3.526711514));
#253 = CARTESIAN_POINT('',(-5.706339098,113.000000000,-1.854101966));
#254 = CARTESIAN_POINT('',(-6.000000000,113.000000000,-0.000000000));
#255 = CARTESIAN_POINT('',(-5.706339098,113.000000000,1.854101966));
#256 = CARTESIAN_POINT('',(-4.854101966,113.000000000,3.526711514));
#257 = CARTESIAN_POINT('',(-3.526711514,113.000000000,4.854101966));
#258 = CARTESIAN_POINT('',(-1.854101966,113.000000000,5.706339098));
#259 = CARTESIAN_POINT('',(-0.000000000,113.000000000,6.000000000));
#260 = CARTESIAN_POINT('',(1.854101966,113.000000000,5.706339098));
#261 = CARTESIAN_POINT('',(3.526711514,113.000000000,4.854101966));
#262 = CARTESIAN_POINT('',(4.854101966,113.000000000,3.526711514));
#263 = CARTESIAN_POINT('',(5.706339098,113.000000000,1.854101966));
#264 = CARTESIAN_POINT('',(6.000000000,113.000000000,0.000000000));
#265 = CARTESIAN_POINT('',(5.706339098,113.000000000,-1.854101966));
#266 = CARTESIAN_POINT('',(4.854101966,113.000000000,-3.526711514));
#267 = CARTESIAN_POINT('',(3.526711514,113.000000000,-4.854101966));
#268 = CARTESIAN_POINT('',(1.854101966,113.000000000,-5.706339098));
#269 = CARTESIAN_POINT('',(0.000000000,131.000000000,-6.000000000));
#270 = CARTESIAN_POINT('',(-1.854101966,131.000000000,-5.706339098));
#271 = CARTESIAN_POINT('',(-3.526711514,131.000000000,-4.854101966));
#272 = CARTESIAN_POINT('',(-4.854101966,131.000000000,-3.526711514));
#273 = CARTESIAN_POINT('',(-5.706339098,131.000000000,-1.854101966));
#274 = CARTESIAN_POINT('',(-6.000000000,131.000000000,-0.000000000));
#275 = CARTESIAN_POINT('',(-5.706339098,131.000000000,1.854101966));
#276 = CARTESIAN_POINT('',(-4.854101966,131.000000000,3.526711514));
#277 = CARTESIAN_POINT('',(-3.526711514,131.000000000,4.854101966));
#278 = CARTESIAN_POINT('',(-1.854101966,131.000000000,5.706339098));
#279 = CARTESIAN_POINT('',(-0.000000000,131.000000000,6.000000000));
#280 = CARTESIAN_POINT('',(1.854101966,131.000000000,5.706339098));
#281 = CARTESIAN_POINT('',(3.526711514,131.000000000,4.854101966));
#282 = CARTESIAN_POINT('',(4.854101966,131.000000000,3.526711514));
#283 = CARTESIAN_POINT('',(5.706339098,131.000000000,1.854101966));
#284 = CARTESIAN_POINT('',(6.000000000,131.000000000,0.000000000));
#285 = CARTESIAN_POINT('',(5.706339098,131.000000000,-1.854101966));
#286 = CARTESIAN_POINT('',(4.854101966,131.000000000,-3.526711514));
#287 = CARTESIAN_POINT('',(3.526711514,131.000000000,-4.854101966));
#288 = CARTESIAN_POINT('',(1.854101966,131.000000000,-5.706339098));
#289 = POLY_LOOP('',(#268,#267,#266,#265,#264,#263,#262,#261,#260,#259,#258,#257,#256,#255,#254,#253,#252,#251,#250,#249));
#290 = FACE_OUTER_BOUND('',#289,.T.);
#291 = DIRECTION('',(0.000000000,-1.000000000,0.000000000));
#292 = DIRECTION('',(0.891006524,0.000000000,0.453990500));
#293 = AXIS2_PLACEMENT_3D('',#268,#291,#292);
#294 = PLANE('',#293);
#295 = FACE_SURFACE('',(#290),#294,.T.);
#296 = POLY_LOOP('',(#269,#270,#271,#272,#273,#274,#275,#276,#277,#278,#279,#280,#281,#282,#283,#284,#285,#286,#287,#288));
#297 = FACE_OUTER_BOUND('',#296,.T.);
#298 = DIRECTION('',(0.000000000,1.000000000,0.000000000));
#299 = DIRECTION('',(-0.987688341,0.000000000,0.156434465));
#300 = AXIS2_PLACEMENT_3D('',#269,#298,#299);
#301 = PLANE('',#300);
#302 = FACE_SURFACE('',(#297),#301,.T.);
#303 = POLY_LOOP('',(#249,#250,#270,#269));
#304 = FACE_OUTER_BOUND('',#303,.T.);
#305 = DIRECTION('',(-0.156434465,0.000000000,-0.987688341));
#306 = DIRECTION('',(-0.987688341,0.000000000,0.156434465));
#307 = AXIS2_PLACEMENT_3D('',#249,#305,#306);
#308 = PLANE('',#307);
#309 = FACE_SURFACE('',(#304),#308,.T.);
#310 = POLY_LOOP('',(#250,#251,#271,#270));
#311 = FACE_OUTER_BOUND('',#310,.T.);
#312 = DIRECTION('',(-0.453990500,0.000000000,-0.891006524));
#313 = DIRECTION('',(-0.891006524,0.000000000,0.453990500));
#314 = AXIS2_PLACEMENT_3D('',#250,#312,#313);
#315 = PLANE('',#314);
#316 = FACE_SURFACE('',(#311),#315,.T.);
#317 = POLY_LOOP('',(#251,#252,#272,#271));
#318 = FACE_OUTER_BOUND('',#317,.T.);
#319 = DIRECTION('',(-0.707106781,0.000000000,-0.707106781));
#320 = DIRECTION('',(-0.707106781,0.000000000,0.707106781));
#321 = AXIS2_PLACEMENT_3D('',#251,#319,#320);
#322 = PLANE('',#321);
#323 = FACE_SURFACE('',(#318),#322,.T.);
#324 = POLY_LOOP('',(#252,#253,#273,#272));
#325 = FACE_OUTER_BOUND('',#324,.T.);
#326 = DIRECTION('',(-0.891006524,0.000000000,-0.453990500));
#327 = DIRECTION('',(-0.453990500,0.000000000,0.891006524));
#328 = AXIS2_PLACEMENT_3D('',#252,#326,#327);
#329 = PLANE('',#328);
#330 = FACE_SURFACE('',(#325),#329,.T.);
#331 = POLY_LOOP('',(#253,#254,#274,#273));
#332 = FACE_OUTER_BOUND('',#331,.T.);
#333 = DIRECTION('',(-0.987688341,0.000000000,-0.156434465));
#334 = DIRECTION('',(-0.156434465,0.000000000,0.987688341));
#335 = AXIS2_PLACEMENT_3D('',#253,#333,#334);
#336 = PLANE('',#335);
#337 = FACE_SURFACE('',(#332),#336,.T.);
#338 = POLY_LOOP('',(#254,#255,#275,#274));
#339 = FACE_OUTER_BOUND('',#338,.T.);
#340 = DIRECTION('',(-0.987688341,0.000000000,0.156434465));
#341 = DIRECTION('',(0.156434465,0.000000000,0.987688341));
#342 = AXIS2_PLACEMENT_3D('',#254,#340,#341);
#343 = PLANE('',#342);
#344 = FACE_SURFACE('',(#339),#343,.T.);
#345 = POLY_LOOP('',(#255,#256,#276,#275));
#346 = FACE_OUTER_BOUND('',#345,.T.);
#347 = DIRECTION('',(-0.891006524,0.000000000,0.453990500));
#348 = DIRECTION('',(0.453990500,0.000000000,0.891006524));
#349 = AXIS2_PLACEMENT_3D('',#255,#347,#348);
#350 = PLANE('',#349);
#351 = FACE_SURFACE('',(#346),#350,.T.);
#352 = POLY_LOOP('',(#256,#257,#277,#276));
#353 = FACE_OUTER_BOUND('',#352,.T.);
#354 = DIRECTION('',(-0.707106781,0.000000000,0.707106781));
#355 = DIRECTION('',(0.707106781,0.000000000,0.707106781));
#356 = AXIS2_PLACEMENT_3D('',#256,#354,#355);
#357 = PLANE('',#356);
#358 = FACE_SURFACE('',(#353),#357,.T.);
#359 = POLY_LOOP('',(#257,#258,#278,#277));
#360 = FACE_OUTER_BOUND('',#359,.T.);
#361 = DIRECTION('',(-0.453990500,0.000000000,0.891006524));
#362 = DIRECTION('',(0.891006524,0.000000000,0.453990500));
#363 = AXIS2_PLACEMENT_3D('',#257,#361,#362);
#364 = PLANE('',#363);
#365 = FACE_SURFACE('',(#360),#364,.T.);
#366 = POLY_LOOP('',(#258,#259,#279,#278));
#367 = FACE_OUTER_BOUND('',#366,.T.);
#368 = DIRECTION('',(-0.156434465,0.000000000,0.987688341));
#369 = DIRECTION('',(0.987688341,0.000000000,0.156434465));
#370 = AXIS2_PLACEMENT_3D('',#258,#368,#369);
#371 = PLANE('',#370);
#372 = FACE_SURFACE('',(#367),#371,.T.);
#373 = POLY_LOOP('',(#259,#260,#280,#279));
#374 = FACE_OUTER_BOUND('',#373,.T.);
#375 = DIRECTION('',(0.156434465,0.000000000,0.987688341));
#376 = DIRECTION('',(0.987688341,0.000000000,-0.156434465));
#377 = AXIS2_PLACEMENT_3D('',#259,#375,#376);
#378 = PLANE('',#377);
#379 = FACE_SURFACE('',(#374),#378,.T.);
#380 = POLY_LOOP('',(#260,#261,#281,#280));
#381 = FACE_OUTER_BOUND('',#380,.T.);
#382 = DIRECTION('',(0.453990500,0.000000000,0.891006524));
#383 = DIRECTION('',(0.891006524,0.000000000,-0.453990500));
#384 = AXIS2_PLACEMENT_3D('',#260,#382,#383);
#385 = PLANE('',#384);
#386 = FACE_SURFACE('',(#381),#385,.T.);
#387 = POLY_LOOP('',(#261,#262,#282,#281));
#388 = FACE_OUTER_BOUND('',#387,.T.);
#389 = DIRECTION('',(0.707106781,0.000000000,0.707106781));
#390 = DIRECTION('',(0.707106781,0.000000000,-0.707106781));
#391 = AXIS2_PLACEMENT_3D('',#261,#389,#390);
#392 = PLANE('',#391);
#393 = FACE_SURFACE('',(#388),#392,.T.);
#394 = POLY_LOOP('',(#262,#263,#283,#282));
#395 = FACE_OUTER_BOUND('',#394,.T.);
#396 = DIRECTION('',(0.891006524,0.000000000,0.453990500));
#397 = DIRECTION('',(0.453990500,0.000000000,-0.891006524));
#398 = AXIS2_PLACEMENT_3D('',#262,#396,#397);
#399 = PLANE('',#398);
#400 = FACE_SURFACE('',(#395),#399,.T.);
#401 = POLY_LOOP('',(#263,#264,#284,#283));
#402 = FACE_OUTER_BOUND('',#401,.T.);
#403 = DIRECTION('',(0.987688341,0.000000000,0.156434465));
#404 = DIRECTION('',(0.156434465,0.000000000,-0.987688341));
#405 = AXIS2_PLACEMENT_3D('',#263,#403,#404);
#406 = PLANE('',#405);
#407 = FACE_SURFACE('',(#402),#406,.T.);
#408 = POLY_LOOP('',(#264,#265,#285,#284));
#409 = FACE_OUTER_BOUND('',#408,.T.);
#410 = DIRECTION('',(0.987688341,0.000000000,-0.156434465));
#411 = DIRECTION('',(-0.156434465,0.000000000,-0.987688341));
#412 = AXIS2_PLACEMENT_3D('',#264,#410,#411);
#413 = PLANE('',#412);
#414 = FACE_SURFACE('',(#409),#413,.T.);
#415 = POLY_LOOP('',(#265,#266,#286,#285));
#416 = FACE_OUTER_BOUND('',#415,.T.);
#417 = DIRECTION('',(0.891006524,0.000000000,-0.453990500));
#418 = DIRECTION('',(-0.453990500,0.000000000,-0.891006524));
#419 = AXIS2_PLACEMENT_3D('',#265,#417,#418);
#420 = PLANE('',#419);
#421 = FACE_SURFACE('',(#416),#420,.T.);
#422 = POLY_LOOP('',(#266,#267,#287,#286));
#423 = FACE_OUTER_BOUND('',#422,.T.);
#424 = DIRECTION('',(0.707106781,0.000000000,-0.707106781));
#425 = DIRECTION('',(-0.707106781,0.000000000,-0.707106781));
#426 = AXIS2_PLACEMENT_3D('',#266,#424,#425);
#427 = PLANE('',#426);
#428 = FACE_SURFACE('',(#423),#427,.T.);
#429 = POLY_LOOP('',(#267,#268,#288,#287));
#430 = FACE_OUTER_BOUND('',#429,.T.);
#431 = DIRECTION('',(0.453990500,0.000000000,-0.891006524));
#432 = DIRECTION('',(-0.891006524,0.000000000,-0.453990500));
#433 = AXIS2_PLACEMENT_3D('',#267,#431,#432);
#434 = PLANE('',#433);
#435 = FACE_SURFACE('',(#430),#434,.T.);
#436 = POLY_LOOP('',(#268,#249,#269,#288));
#437 = FACE_OUTER_BOUND('',#436,.T.);
#438 = DIRECTION('',(0.156434465,0.000000000,-0.987688341));
#439 = DIRECTION('',(-0.987688341,0.000000000,-0.156434465));
#440 = AXIS2_PLACEMENT_3D('',#268,#438,#439);
#441 = PLANE('',#440);
#442 = FACE_SURFACE('',(#437),#441,.T.);
#443 = CLOSED_SHELL('',(#295,#302,#309,#316,#323,#330,#337,#344,#351,#358,#365,#372,#379,#386,#393,#400,#407,#414,#421,#428,#435,#442));
#444 = FACETED_BREP('silver top connector',#443);
#445 = APPLICATION_CONTEXT('configuration controlled 3d designs of mechanical parts and assemblies');
#446 = APPLICATION_PROTOCOL_DEFINITION('international standard','config_control_design',1994,#445);
#447 = PRODUCT_CONTEXT('',#445,'mechanical');
#448 = PRODUCT('REF','Illustrative reference','NOT vendor CAD',(#447));
#449 = PRODUCT_DEFINITION_FORMATION_WITH_SPECIFIED_SOURCE('','',#448,.NOT_KNOWN.);
#450 = PRODUCT_DEFINITION_CONTEXT('part definition',#445,'design');
#451 = PRODUCT_DEFINITION('design','',#449,#450);
#452 = PRODUCT_DEFINITION_SHAPE('','',#451);
#453 = (LENGTH_UNIT()NAMED_UNIT(*)SI_UNIT(.MILLI.,.METRE.));
#454 = (NAMED_UNIT(*)PLANE_ANGLE_UNIT()SI_UNIT($,.RADIAN.));
#455 = (NAMED_UNIT(*)SI_UNIT($,.STERADIAN.)SOLID_ANGLE_UNIT());
#456 = UNCERTAINTY_MEASURE_WITH_UNIT(LENGTH_MEASURE(0.000001),#453,'distance_accuracy_value','');
#457 = (GEOMETRIC_REPRESENTATION_CONTEXT(3)GLOBAL_UNCERTAINTY_ASSIGNED_CONTEXT((#456))GLOBAL_UNIT_ASSIGNED_CONTEXT((#453,#454,#455))REPRESENTATION_CONTEXT('',''));
#458 = FACETED_BREP_SHAPE_REPRESENTATION('Illustrative reference',(#52,#248,#444),#457);
#459 = SHAPE_DEFINITION_REPRESENTATION(#452,#458);
ENDSEC;
END-ISO-10303-21;
