ISO-10303-21;
HEADER;
FILE_DESCRIPTION(('Illustrative CAD - NOT vendor dimensions'),'2;1');
FILE_NAME('reference.step','2026-10-07',('CORNERSTONE'),(''),'reference generator','','');
FILE_SCHEMA(('CONFIG_CONTROL_DESIGN'));
ENDSEC;
DATA;
#1 = CARTESIAN_POINT('',(-35.000000000,0.000000000,-30.000000000));
#2 = CARTESIAN_POINT('',(35.000000000,0.000000000,-30.000000000));
#3 = CARTESIAN_POINT('',(35.000000000,25.000000000,-30.000000000));
#4 = CARTESIAN_POINT('',(-35.000000000,25.000000000,-30.000000000));
#5 = CARTESIAN_POINT('',(-35.000000000,0.000000000,30.000000000));
#6 = CARTESIAN_POINT('',(35.000000000,0.000000000,30.000000000));
#7 = CARTESIAN_POINT('',(35.000000000,25.000000000,30.000000000));
#8 = CARTESIAN_POINT('',(-35.000000000,25.000000000,30.000000000));
#9 = POLY_LOOP('',(#1,#4,#3,#2));
#10 = FACE_OUTER_BOUND('',#9,.T.);
#11 = DIRECTION('',(0.000000000,0.000000000,-1.000000000));
#12 = DIRECTION('',(0.000000000,1.000000000,0.000000000));
#13 = AXIS2_PLACEMENT_3D('',#1,#11,#12);
#14 = PLANE('',#13);
#15 = FACE_SURFACE('',(#10),#14,.T.);
#16 = POLY_LOOP('',(#5,#6,#7,#8));
#17 = FACE_OUTER_BOUND('',#16,.T.);
#18 = DIRECTION('',(0.000000000,0.000000000,1.000000000));
#19 = DIRECTION('',(1.000000000,0.000000000,0.000000000));
#20 = AXIS2_PLACEMENT_3D('',#5,#18,#19);
#21 = PLANE('',#20);
#22 = FACE_SURFACE('',(#17),#21,.T.);
#23 = POLY_LOOP('',(#1,#2,#6,#5));
#24 = FACE_OUTER_BOUND('',#23,.T.);
#25 = DIRECTION('',(0.000000000,-1.000000000,0.000000000));
#26 = DIRECTION('',(1.000000000,0.000000000,0.000000000));
#27 = AXIS2_PLACEMENT_3D('',#1,#25,#26);
#28 = PLANE('',#27);
#29 = FACE_SURFACE('',(#24),#28,.T.);
#30 = POLY_LOOP('',(#2,#3,#7,#6));
#31 = FACE_OUTER_BOUND('',#30,.T.);
#32 = DIRECTION('',(1.000000000,0.000000000,0.000000000));
#33 = DIRECTION('',(0.000000000,1.000000000,0.000000000));
#34 = AXIS2_PLACEMENT_3D('',#2,#32,#33);
#35 = PLANE('',#34);
#36 = FACE_SURFACE('',(#31),#35,.T.);
#37 = POLY_LOOP('',(#3,#4,#8,#7));
#38 = FACE_OUTER_BOUND('',#37,.T.);
#39 = DIRECTION('',(0.000000000,1.000000000,0.000000000));
#40 = DIRECTION('',(-1.000000000,0.000000000,0.000000000));
#41 = AXIS2_PLACEMENT_3D('',#3,#39,#40);
#42 = PLANE('',#41);
#43 = FACE_SURFACE('',(#38),#42,.T.);
#44 = POLY_LOOP('',(#4,#1,#5,#8));
#45 = FACE_OUTER_BOUND('',#44,.T.);
#46 = DIRECTION('',(-1.000000000,0.000000000,0.000000000));
#47 = DIRECTION('',(0.000000000,-1.000000000,0.000000000));
#48 = AXIS2_PLACEMENT_3D('',#4,#46,#47);
#49 = PLANE('',#48);
#50 = FACE_SURFACE('',(#45),#49,.T.);
#51 = CLOSED_SHELL('',(#15,#22,#29,#36,#43,#50));
#52 = FACETED_BREP('copper chip block',#51);
#53 = CARTESIAN_POINT('',(-6.000000000,25.000000000,-6.000000000));
#54 = CARTESIAN_POINT('',(6.000000000,25.000000000,-6.000000000));
#55 = CARTESIAN_POINT('',(6.000000000,26.000000000,-6.000000000));
#56 = CARTESIAN_POINT('',(-6.000000000,26.000000000,-6.000000000));
#57 = CARTESIAN_POINT('',(-6.000000000,25.000000000,6.000000000));
#58 = CARTESIAN_POINT('',(6.000000000,25.000000000,6.000000000));
#59 = CARTESIAN_POINT('',(6.000000000,26.000000000,6.000000000));
#60 = CARTESIAN_POINT('',(-6.000000000,26.000000000,6.000000000));
#61 = POLY_LOOP('',(#53,#56,#55,#54));
#62 = FACE_OUTER_BOUND('',#61,.T.);
#63 = DIRECTION('',(0.000000000,0.000000000,-1.000000000));
#64 = DIRECTION('',(0.000000000,1.000000000,0.000000000));
#65 = AXIS2_PLACEMENT_3D('',#53,#63,#64);
#66 = PLANE('',#65);
#67 = FACE_SURFACE('',(#62),#66,.T.);
#68 = POLY_LOOP('',(#57,#58,#59,#60));
#69 = FACE_OUTER_BOUND('',#68,.T.);
#70 = DIRECTION('',(0.000000000,0.000000000,1.000000000));
#71 = DIRECTION('',(1.000000000,0.000000000,0.000000000));
#72 = AXIS2_PLACEMENT_3D('',#57,#70,#71);
#73 = PLANE('',#72);
#74 = FACE_SURFACE('',(#69),#73,.T.);
#75 = POLY_LOOP('',(#53,#54,#58,#57));
#76 = FACE_OUTER_BOUND('',#75,.T.);
#77 = DIRECTION('',(0.000000000,-1.000000000,0.000000000));
#78 = DIRECTION('',(1.000000000,0.000000000,0.000000000));
#79 = AXIS2_PLACEMENT_3D('',#53,#77,#78);
#80 = PLANE('',#79);
#81 = FACE_SURFACE('',(#76),#80,.T.);
#82 = POLY_LOOP('',(#54,#55,#59,#58));
#83 = FACE_OUTER_BOUND('',#82,.T.);
#84 = DIRECTION('',(1.000000000,0.000000000,0.000000000));
#85 = DIRECTION('',(0.000000000,1.000000000,0.000000000));
#86 = AXIS2_PLACEMENT_3D('',#54,#84,#85);
#87 = PLANE('',#86);
#88 = FACE_SURFACE('',(#83),#87,.T.);
#89 = POLY_LOOP('',(#55,#56,#60,#59));
#90 = FACE_OUTER_BOUND('',#89,.T.);
#91 = DIRECTION('',(0.000000000,1.000000000,0.000000000));
#92 = DIRECTION('',(-1.000000000,0.000000000,0.000000000));
#93 = AXIS2_PLACEMENT_3D('',#55,#91,#92);
#94 = PLANE('',#93);
#95 = FACE_SURFACE('',(#90),#94,.T.);
#96 = POLY_LOOP('',(#56,#53,#57,#60));
#97 = FACE_OUTER_BOUND('',#96,.T.);
#98 = DIRECTION('',(-1.000000000,0.000000000,0.000000000));
#99 = DIRECTION('',(0.000000000,-1.000000000,0.000000000));
#100 = AXIS2_PLACEMENT_3D('',#56,#98,#99);
#101 = PLANE('',#100);
#102 = FACE_SURFACE('',(#97),#101,.T.);
#103 = CLOSED_SHELL('',(#67,#74,#81,#88,#95,#102));
#104 = FACETED_BREP('dark DUT',#103);
#105 = APPLICATION_CONTEXT('configuration controlled 3d designs of mechanical parts and assemblies');
#106 = APPLICATION_PROTOCOL_DEFINITION('international standard','config_control_design',1994,#105);
#107 = PRODUCT_CONTEXT('',#105,'mechanical');
#108 = PRODUCT('REF','Illustrative reference','NOT vendor CAD',(#107));
#109 = PRODUCT_DEFINITION_FORMATION_WITH_SPECIFIED_SOURCE('','',#108,.NOT_KNOWN.);
#110 = PRODUCT_DEFINITION_CONTEXT('part definition',#105,'design');
#111 = PRODUCT_DEFINITION('design','',#109,#110);
#112 = PRODUCT_DEFINITION_SHAPE('','',#111);
#113 = (LENGTH_UNIT()NAMED_UNIT(*)SI_UNIT(.MILLI.,.METRE.));
#114 = (NAMED_UNIT(*)PLANE_ANGLE_UNIT()SI_UNIT($,.RADIAN.));
#115 = (NAMED_UNIT(*)SI_UNIT($,.STERADIAN.)SOLID_ANGLE_UNIT());
#116 = UNCERTAINTY_MEASURE_WITH_UNIT(LENGTH_MEASURE(0.000001),#113,'distance_accuracy_value','');
#117 = (GEOMETRIC_REPRESENTATION_CONTEXT(3)GLOBAL_UNCERTAINTY_ASSIGNED_CONTEXT((#116))GLOBAL_UNIT_ASSIGNED_CONTEXT((#113,#114,#115))REPRESENTATION_CONTEXT('',''));
#118 = FACETED_BREP_SHAPE_REPRESENTATION('Illustrative reference',(#52,#104),#117);
#119 = SHAPE_DEFINITION_REPRESENTATION(#112,#118);
ENDSEC;
END-ISO-10303-21;
