ISO-10303-21;
HEADER;
FILE_DESCRIPTION(('Illustrative CAD - NOT vendor dimensions'),'2;1');
FILE_NAME('reference.step','2026-10-07',('CORNERSTONE'),(''),'reference generator','','');
FILE_SCHEMA(('CONFIG_CONTROL_DESIGN'));
ENDSEC;
DATA;
#1 = CARTESIAN_POINT('',(-45.000000000,0.000000000,-85.000000000));
#2 = CARTESIAN_POINT('',(45.000000000,0.000000000,-85.000000000));
#3 = CARTESIAN_POINT('',(45.000000000,28.000000000,-85.000000000));
#4 = CARTESIAN_POINT('',(-45.000000000,28.000000000,-85.000000000));
#5 = CARTESIAN_POINT('',(-45.000000000,0.000000000,85.000000000));
#6 = CARTESIAN_POINT('',(45.000000000,0.000000000,85.000000000));
#7 = CARTESIAN_POINT('',(45.000000000,28.000000000,85.000000000));
#8 = CARTESIAN_POINT('',(-45.000000000,28.000000000,85.000000000));
#9 = POLY_LOOP('',(#1,#4,#3,#2));
#10 = FACE_OUTER_BOUND('',#9,.T.);
#11 = DIRECTION('',(0.000000000,0.000000000,-1.000000000));
#12 = DIRECTION('',(0.000000000,1.000000000,0.000000000));
#13 = AXIS2_PLACEMENT_3D('',#1,#11,#12);
#14 = PLANE('',#13);
#15 = FACE_SURFACE('',(#10),#14,.T.);
#16 = POLY_LOOP('',(#5,#6,#7,#8));
#17 = FACE_OUTER_BOUND('',#16,.T.);
#18 = DIRECTION('',(0.000000000,0.000000000,1.000000000));
#19 = DIRECTION('',(1.000000000,0.000000000,0.000000000));
#20 = AXIS2_PLACEMENT_3D('',#5,#18,#19);
#21 = PLANE('',#20);
#22 = FACE_SURFACE('',(#17),#21,.T.);
#23 = POLY_LOOP('',(#1,#2,#6,#5));
#24 = FACE_OUTER_BOUND('',#23,.T.);
#25 = DIRECTION('',(0.000000000,-1.000000000,0.000000000));
#26 = DIRECTION('',(1.000000000,0.000000000,0.000000000));
#27 = AXIS2_PLACEMENT_3D('',#1,#25,#26);
#28 = PLANE('',#27);
#29 = FACE_SURFACE('',(#24),#28,.T.);
#30 = POLY_LOOP('',(#2,#3,#7,#6));
#31 = FACE_OUTER_BOUND('',#30,.T.);
#32 = DIRECTION('',(1.000000000,0.000000000,0.000000000));
#33 = DIRECTION('',(0.000000000,1.000000000,0.000000000));
#34 = AXIS2_PLACEMENT_3D('',#2,#32,#33);
#35 = PLANE('',#34);
#36 = FACE_SURFACE('',(#31),#35,.T.);
#37 = POLY_LOOP('',(#3,#4,#8,#7));
#38 = FACE_OUTER_BOUND('',#37,.T.);
#39 = DIRECTION('',(0.000000000,1.000000000,0.000000000));
#40 = DIRECTION('',(-1.000000000,0.000000000,0.000000000));
#41 = AXIS2_PLACEMENT_3D('',#3,#39,#40);
#42 = PLANE('',#41);
#43 = FACE_SURFACE('',(#38),#42,.T.);
#44 = POLY_LOOP('',(#4,#1,#5,#8));
#45 = FACE_OUTER_BOUND('',#44,.T.);
#46 = DIRECTION('',(-1.000000000,0.000000000,0.000000000));
#47 = DIRECTION('',(0.000000000,-1.000000000,0.000000000));
#48 = AXIS2_PLACEMENT_3D('',#4,#46,#47);
#49 = PLANE('',#48);
#50 = FACE_SURFACE('',(#45),#49,.T.);
#51 = CLOSED_SHELL('',(#15,#22,#29,#36,#43,#50));
#52 = FACETED_BREP('orange handheld case',#51);
#53 = CARTESIAN_POINT('',(-40.000000000,28.000000000,-79.000000000));
#54 = CARTESIAN_POINT('',(40.000000000,28.000000000,-79.000000000));
#55 = CARTESIAN_POINT('',(40.000000000,31.000000000,-79.000000000));
#56 = CARTESIAN_POINT('',(-40.000000000,31.000000000,-79.000000000));
#57 = CARTESIAN_POINT('',(-40.000000000,28.000000000,79.000000000));
#58 = CARTESIAN_POINT('',(40.000000000,28.000000000,79.000000000));
#59 = CARTESIAN_POINT('',(40.000000000,31.000000000,79.000000000));
#60 = CARTESIAN_POINT('',(-40.000000000,31.000000000,79.000000000));
#61 = POLY_LOOP('',(#53,#56,#55,#54));
#62 = FACE_OUTER_BOUND('',#61,.T.);
#63 = DIRECTION('',(0.000000000,0.000000000,-1.000000000));
#64 = DIRECTION('',(0.000000000,1.000000000,0.000000000));
#65 = AXIS2_PLACEMENT_3D('',#53,#63,#64);
#66 = PLANE('',#65);
#67 = FACE_SURFACE('',(#62),#66,.T.);
#68 = POLY_LOOP('',(#57,#58,#59,#60));
#69 = FACE_OUTER_BOUND('',#68,.T.);
#70 = DIRECTION('',(0.000000000,0.000000000,1.000000000));
#71 = DIRECTION('',(1.000000000,0.000000000,0.000000000));
#72 = AXIS2_PLACEMENT_3D('',#57,#70,#71);
#73 = PLANE('',#72);
#74 = FACE_SURFACE('',(#69),#73,.T.);
#75 = POLY_LOOP('',(#53,#54,#58,#57));
#76 = FACE_OUTER_BOUND('',#75,.T.);
#77 = DIRECTION('',(0.000000000,-1.000000000,0.000000000));
#78 = DIRECTION('',(1.000000000,0.000000000,0.000000000));
#79 = AXIS2_PLACEMENT_3D('',#53,#77,#78);
#80 = PLANE('',#79);
#81 = FACE_SURFACE('',(#76),#80,.T.);
#82 = POLY_LOOP('',(#54,#55,#59,#58));
#83 = FACE_OUTER_BOUND('',#82,.T.);
#84 = DIRECTION('',(1.000000000,0.000000000,0.000000000));
#85 = DIRECTION('',(0.000000000,1.000000000,0.000000000));
#86 = AXIS2_PLACEMENT_3D('',#54,#84,#85);
#87 = PLANE('',#86);
#88 = FACE_SURFACE('',(#83),#87,.T.);
#89 = POLY_LOOP('',(#55,#56,#60,#59));
#90 = FACE_OUTER_BOUND('',#89,.T.);
#91 = DIRECTION('',(0.000000000,1.000000000,0.000000000));
#92 = DIRECTION('',(-1.000000000,0.000000000,0.000000000));
#93 = AXIS2_PLACEMENT_3D('',#55,#91,#92);
#94 = PLANE('',#93);
#95 = FACE_SURFACE('',(#90),#94,.T.);
#96 = POLY_LOOP('',(#56,#53,#57,#60));
#97 = FACE_OUTER_BOUND('',#96,.T.);
#98 = DIRECTION('',(-1.000000000,0.000000000,0.000000000));
#99 = DIRECTION('',(0.000000000,-1.000000000,0.000000000));
#100 = AXIS2_PLACEMENT_3D('',#56,#98,#99);
#101 = PLANE('',#100);
#102 = FACE_SURFACE('',(#97),#101,.T.);
#103 = CLOSED_SHELL('',(#67,#74,#81,#88,#95,#102));
#104 = FACETED_BREP('black faceplate',#103);
#105 = CARTESIAN_POINT('',(-31.000000000,32.000000000,-58.000000000));
#106 = CARTESIAN_POINT('',(31.000000000,32.000000000,-58.000000000));
#107 = CARTESIAN_POINT('',(31.000000000,33.000000000,-58.000000000));
#108 = CARTESIAN_POINT('',(-31.000000000,33.000000000,-58.000000000));
#109 = CARTESIAN_POINT('',(-31.000000000,32.000000000,-1.000000000));
#110 = CARTESIAN_POINT('',(31.000000000,32.000000000,-1.000000000));
#111 = CARTESIAN_POINT('',(31.000000000,33.000000000,-1.000000000));
#112 = CARTESIAN_POINT('',(-31.000000000,33.000000000,-1.000000000));
#113 = POLY_LOOP('',(#105,#108,#107,#106));
#114 = FACE_OUTER_BOUND('',#113,.T.);
#115 = DIRECTION('',(0.000000000,0.000000000,-1.000000000));
#116 = DIRECTION('',(0.000000000,1.000000000,0.000000000));
#117 = AXIS2_PLACEMENT_3D('',#105,#115,#116);
#118 = PLANE('',#117);
#119 = FACE_SURFACE('',(#114),#118,.T.);
#120 = POLY_LOOP('',(#109,#110,#111,#112));
#121 = FACE_OUTER_BOUND('',#120,.T.);
#122 = DIRECTION('',(0.000000000,0.000000000,1.000000000));
#123 = DIRECTION('',(1.000000000,0.000000000,0.000000000));
#124 = AXIS2_PLACEMENT_3D('',#109,#122,#123);
#125 = PLANE('',#124);
#126 = FACE_SURFACE('',(#121),#125,.T.);
#127 = POLY_LOOP('',(#105,#106,#110,#109));
#128 = FACE_OUTER_BOUND('',#127,.T.);
#129 = DIRECTION('',(0.000000000,-1.000000000,0.000000000));
#130 = DIRECTION('',(1.000000000,0.000000000,0.000000000));
#131 = AXIS2_PLACEMENT_3D('',#105,#129,#130);
#132 = PLANE('',#131);
#133 = FACE_SURFACE('',(#128),#132,.T.);
#134 = POLY_LOOP('',(#106,#107,#111,#110));
#135 = FACE_OUTER_BOUND('',#134,.T.);
#136 = DIRECTION('',(1.000000000,0.000000000,0.000000000));
#137 = DIRECTION('',(0.000000000,1.000000000,0.000000000));
#138 = AXIS2_PLACEMENT_3D('',#106,#136,#137);
#139 = PLANE('',#138);
#140 = FACE_SURFACE('',(#135),#139,.T.);
#141 = POLY_LOOP('',(#107,#108,#112,#111));
#142 = FACE_OUTER_BOUND('',#141,.T.);
#143 = DIRECTION('',(0.000000000,1.000000000,0.000000000));
#144 = DIRECTION('',(-1.000000000,0.000000000,0.000000000));
#145 = AXIS2_PLACEMENT_3D('',#107,#143,#144);
#146 = PLANE('',#145);
#147 = FACE_SURFACE('',(#142),#146,.T.);
#148 = POLY_LOOP('',(#108,#105,#109,#112));
#149 = FACE_OUTER_BOUND('',#148,.T.);
#150 = DIRECTION('',(-1.000000000,0.000000000,0.000000000));
#151 = DIRECTION('',(0.000000000,-1.000000000,0.000000000));
#152 = AXIS2_PLACEMENT_3D('',#108,#150,#151);
#153 = PLANE('',#152);
#154 = FACE_SURFACE('',(#149),#153,.T.);
#155 = CLOSED_SHELL('',(#119,#126,#133,#140,#147,#154));
#156 = FACETED_BREP('screen glass',#155);
#157 = CARTESIAN_POINT('',(-28.000000000,32.000000000,20.000000000));
#158 = CARTESIAN_POINT('',(-16.000000000,32.000000000,20.000000000));
#159 = CARTESIAN_POINT('',(-16.000000000,36.000000000,20.000000000));
#160 = CARTESIAN_POINT('',(-28.000000000,36.000000000,20.000000000));
#161 = CARTESIAN_POINT('',(-28.000000000,32.000000000,32.000000000));
#162 = CARTESIAN_POINT('',(-16.000000000,32.000000000,32.000000000));
#163 = CARTESIAN_POINT('',(-16.000000000,36.000000000,32.000000000));
#164 = CARTESIAN_POINT('',(-28.000000000,36.000000000,32.000000000));
#165 = POLY_LOOP('',(#157,#160,#159,#158));
#166 = FACE_OUTER_BOUND('',#165,.T.);
#167 = DIRECTION('',(0.000000000,0.000000000,-1.000000000));
#168 = DIRECTION('',(0.000000000,1.000000000,0.000000000));
#169 = AXIS2_PLACEMENT_3D('',#157,#167,#168);
#170 = PLANE('',#169);
#171 = FACE_SURFACE('',(#166),#170,.T.);
#172 = POLY_LOOP('',(#161,#162,#163,#164));
#173 = FACE_OUTER_BOUND('',#172,.T.);
#174 = DIRECTION('',(0.000000000,0.000000000,1.000000000));
#175 = DIRECTION('',(1.000000000,0.000000000,0.000000000));
#176 = AXIS2_PLACEMENT_3D('',#161,#174,#175);
#177 = PLANE('',#176);
#178 = FACE_SURFACE('',(#173),#177,.T.);
#179 = POLY_LOOP('',(#157,#158,#162,#161));
#180 = FACE_OUTER_BOUND('',#179,.T.);
#181 = DIRECTION('',(0.000000000,-1.000000000,0.000000000));
#182 = DIRECTION('',(1.000000000,0.000000000,0.000000000));
#183 = AXIS2_PLACEMENT_3D('',#157,#181,#182);
#184 = PLANE('',#183);
#185 = FACE_SURFACE('',(#180),#184,.T.);
#186 = POLY_LOOP('',(#158,#159,#163,#162));
#187 = FACE_OUTER_BOUND('',#186,.T.);
#188 = DIRECTION('',(1.000000000,0.000000000,0.000000000));
#189 = DIRECTION('',(0.000000000,1.000000000,0.000000000));
#190 = AXIS2_PLACEMENT_3D('',#158,#188,#189);
#191 = PLANE('',#190);
#192 = FACE_SURFACE('',(#187),#191,.T.);
#193 = POLY_LOOP('',(#159,#160,#164,#163));
#194 = FACE_OUTER_BOUND('',#193,.T.);
#195 = DIRECTION('',(0.000000000,1.000000000,0.000000000));
#196 = DIRECTION('',(-1.000000000,0.000000000,0.000000000));
#197 = AXIS2_PLACEMENT_3D('',#159,#195,#196);
#198 = PLANE('',#197);
#199 = FACE_SURFACE('',(#194),#198,.T.);
#200 = POLY_LOOP('',(#160,#157,#161,#164));
#201 = FACE_OUTER_BOUND('',#200,.T.);
#202 = DIRECTION('',(-1.000000000,0.000000000,0.000000000));
#203 = DIRECTION('',(0.000000000,-1.000000000,0.000000000));
#204 = AXIS2_PLACEMENT_3D('',#160,#202,#203);
#205 = PLANE('',#204);
#206 = FACE_SURFACE('',(#201),#205,.T.);
#207 = CLOSED_SHELL('',(#171,#178,#185,#192,#199,#206));
#208 = FACETED_BREP('black control button',#207);
#209 = CARTESIAN_POINT('',(-6.000000000,32.000000000,20.000000000));
#210 = CARTESIAN_POINT('',(6.000000000,32.000000000,20.000000000));
#211 = CARTESIAN_POINT('',(6.000000000,36.000000000,20.000000000));
#212 = CARTESIAN_POINT('',(-6.000000000,36.000000000,20.000000000));
#213 = CARTESIAN_POINT('',(-6.000000000,32.000000000,32.000000000));
#214 = CARTESIAN_POINT('',(6.000000000,32.000000000,32.000000000));
#215 = CARTESIAN_POINT('',(6.000000000,36.000000000,32.000000000));
#216 = CARTESIAN_POINT('',(-6.000000000,36.000000000,32.000000000));
#217 = POLY_LOOP('',(#209,#212,#211,#210));
#218 = FACE_OUTER_BOUND('',#217,.T.);
#219 = DIRECTION('',(0.000000000,0.000000000,-1.000000000));
#220 = DIRECTION('',(0.000000000,1.000000000,0.000000000));
#221 = AXIS2_PLACEMENT_3D('',#209,#219,#220);
#222 = PLANE('',#221);
#223 = FACE_SURFACE('',(#218),#222,.T.);
#224 = POLY_LOOP('',(#213,#214,#215,#216));
#225 = FACE_OUTER_BOUND('',#224,.T.);
#226 = DIRECTION('',(0.000000000,0.000000000,1.000000000));
#227 = DIRECTION('',(1.000000000,0.000000000,0.000000000));
#228 = AXIS2_PLACEMENT_3D('',#213,#226,#227);
#229 = PLANE('',#228);
#230 = FACE_SURFACE('',(#225),#229,.T.);
#231 = POLY_LOOP('',(#209,#210,#214,#213));
#232 = FACE_OUTER_BOUND('',#231,.T.);
#233 = DIRECTION('',(0.000000000,-1.000000000,0.000000000));
#234 = DIRECTION('',(1.000000000,0.000000000,0.000000000));
#235 = AXIS2_PLACEMENT_3D('',#209,#233,#234);
#236 = PLANE('',#235);
#237 = FACE_SURFACE('',(#232),#236,.T.);
#238 = POLY_LOOP('',(#210,#211,#215,#214));
#239 = FACE_OUTER_BOUND('',#238,.T.);
#240 = DIRECTION('',(1.000000000,0.000000000,0.000000000));
#241 = DIRECTION('',(0.000000000,1.000000000,0.000000000));
#242 = AXIS2_PLACEMENT_3D('',#210,#240,#241);
#243 = PLANE('',#242);
#244 = FACE_SURFACE('',(#239),#243,.T.);
#245 = POLY_LOOP('',(#211,#212,#216,#215));
#246 = FACE_OUTER_BOUND('',#245,.T.);
#247 = DIRECTION('',(0.000000000,1.000000000,0.000000000));
#248 = DIRECTION('',(-1.000000000,0.000000000,0.000000000));
#249 = AXIS2_PLACEMENT_3D('',#211,#247,#248);
#250 = PLANE('',#249);
#251 = FACE_SURFACE('',(#246),#250,.T.);
#252 = POLY_LOOP('',(#212,#209,#213,#216));
#253 = FACE_OUTER_BOUND('',#252,.T.);
#254 = DIRECTION('',(-1.000000000,0.000000000,0.000000000));
#255 = DIRECTION('',(0.000000000,-1.000000000,0.000000000));
#256 = AXIS2_PLACEMENT_3D('',#212,#254,#255);
#257 = PLANE('',#256);
#258 = FACE_SURFACE('',(#253),#257,.T.);
#259 = CLOSED_SHELL('',(#223,#230,#237,#244,#251,#258));
#260 = FACETED_BREP('black control button',#259);
#261 = CARTESIAN_POINT('',(16.000000000,32.000000000,20.000000000));
#262 = CARTESIAN_POINT('',(28.000000000,32.000000000,20.000000000));
#263 = CARTESIAN_POINT('',(28.000000000,36.000000000,20.000000000));
#264 = CARTESIAN_POINT('',(16.000000000,36.000000000,20.000000000));
#265 = CARTESIAN_POINT('',(16.000000000,32.000000000,32.000000000));
#266 = CARTESIAN_POINT('',(28.000000000,32.000000000,32.000000000));
#267 = CARTESIAN_POINT('',(28.000000000,36.000000000,32.000000000));
#268 = CARTESIAN_POINT('',(16.000000000,36.000000000,32.000000000));
#269 = POLY_LOOP('',(#261,#264,#263,#262));
#270 = FACE_OUTER_BOUND('',#269,.T.);
#271 = DIRECTION('',(0.000000000,0.000000000,-1.000000000));
#272 = DIRECTION('',(0.000000000,1.000000000,0.000000000));
#273 = AXIS2_PLACEMENT_3D('',#261,#271,#272);
#274 = PLANE('',#273);
#275 = FACE_SURFACE('',(#270),#274,.T.);
#276 = POLY_LOOP('',(#265,#266,#267,#268));
#277 = FACE_OUTER_BOUND('',#276,.T.);
#278 = DIRECTION('',(0.000000000,0.000000000,1.000000000));
#279 = DIRECTION('',(1.000000000,0.000000000,0.000000000));
#280 = AXIS2_PLACEMENT_3D('',#265,#278,#279);
#281 = PLANE('',#280);
#282 = FACE_SURFACE('',(#277),#281,.T.);
#283 = POLY_LOOP('',(#261,#262,#266,#265));
#284 = FACE_OUTER_BOUND('',#283,.T.);
#285 = DIRECTION('',(0.000000000,-1.000000000,0.000000000));
#286 = DIRECTION('',(1.000000000,0.000000000,0.000000000));
#287 = AXIS2_PLACEMENT_3D('',#261,#285,#286);
#288 = PLANE('',#287);
#289 = FACE_SURFACE('',(#284),#288,.T.);
#290 = POLY_LOOP('',(#262,#263,#267,#266));
#291 = FACE_OUTER_BOUND('',#290,.T.);
#292 = DIRECTION('',(1.000000000,0.000000000,0.000000000));
#293 = DIRECTION('',(0.000000000,1.000000000,0.000000000));
#294 = AXIS2_PLACEMENT_3D('',#262,#292,#293);
#295 = PLANE('',#294);
#296 = FACE_SURFACE('',(#291),#295,.T.);
#297 = POLY_LOOP('',(#263,#264,#268,#267));
#298 = FACE_OUTER_BOUND('',#297,.T.);
#299 = DIRECTION('',(0.000000000,1.000000000,0.000000000));
#300 = DIRECTION('',(-1.000000000,0.000000000,0.000000000));
#301 = AXIS2_PLACEMENT_3D('',#263,#299,#300);
#302 = PLANE('',#301);
#303 = FACE_SURFACE('',(#298),#302,.T.);
#304 = POLY_LOOP('',(#264,#261,#265,#268));
#305 = FACE_OUTER_BOUND('',#304,.T.);
#306 = DIRECTION('',(-1.000000000,0.000000000,0.000000000));
#307 = DIRECTION('',(0.000000000,-1.000000000,0.000000000));
#308 = AXIS2_PLACEMENT_3D('',#264,#306,#307);
#309 = PLANE('',#308);
#310 = FACE_SURFACE('',(#305),#309,.T.);
#311 = CLOSED_SHELL('',(#275,#282,#289,#296,#303,#310));
#312 = FACETED_BREP('black control button',#311);
#313 = APPLICATION_CONTEXT('configuration controlled 3d designs of mechanical parts and assemblies');
#314 = APPLICATION_PROTOCOL_DEFINITION('international standard','config_control_design',1994,#313);
#315 = PRODUCT_CONTEXT('',#313,'mechanical');
#316 = PRODUCT('REF','Illustrative reference','NOT vendor CAD',(#315));
#317 = PRODUCT_DEFINITION_FORMATION_WITH_SPECIFIED_SOURCE('','',#316,.NOT_KNOWN.);
#318 = PRODUCT_DEFINITION_CONTEXT('part definition',#313,'design');
#319 = PRODUCT_DEFINITION('design','',#317,#318);
#320 = PRODUCT_DEFINITION_SHAPE('','',#319);
#321 = (LENGTH_UNIT()NAMED_UNIT(*)SI_UNIT(.MILLI.,.METRE.));
#322 = (NAMED_UNIT(*)PLANE_ANGLE_UNIT()SI_UNIT($,.RADIAN.));
#323 = (NAMED_UNIT(*)SI_UNIT($,.STERADIAN.)SOLID_ANGLE_UNIT());
#324 = UNCERTAINTY_MEASURE_WITH_UNIT(LENGTH_MEASURE(0.000001),#321,'distance_accuracy_value','');
#325 = (GEOMETRIC_REPRESENTATION_CONTEXT(3)GLOBAL_UNCERTAINTY_ASSIGNED_CONTEXT((#324))GLOBAL_UNIT_ASSIGNED_CONTEXT((#321,#322,#323))REPRESENTATION_CONTEXT('',''));
#326 = FACETED_BREP_SHAPE_REPRESENTATION('Illustrative reference',(#52,#104,#156,#208,#260,#312),#325);
#327 = SHAPE_DEFINITION_REPRESENTATION(#320,#326);
ENDSEC;
END-ISO-10303-21;
