ISO-10303-21;
HEADER;
FILE_DESCRIPTION(('Illustrative CAD - NOT vendor dimensions'),'2;1');
FILE_NAME('reference.step','2026-10-07',('CORNERSTONE'),(''),'reference generator','','');
FILE_SCHEMA(('CONFIG_CONTROL_DESIGN'));
ENDSEC;
DATA;
#1 = CARTESIAN_POINT('',(-90.000000000,0.000000000,-80.000000000));
#2 = CARTESIAN_POINT('',(90.000000000,0.000000000,-80.000000000));
#3 = CARTESIAN_POINT('',(90.000000000,18.000000000,-80.000000000));
#4 = CARTESIAN_POINT('',(-90.000000000,18.000000000,-80.000000000));
#5 = CARTESIAN_POINT('',(-90.000000000,0.000000000,80.000000000));
#6 = CARTESIAN_POINT('',(90.000000000,0.000000000,80.000000000));
#7 = CARTESIAN_POINT('',(90.000000000,18.000000000,80.000000000));
#8 = CARTESIAN_POINT('',(-90.000000000,18.000000000,80.000000000));
#9 = POLY_LOOP('',(#1,#4,#3,#2));
#10 = FACE_OUTER_BOUND('',#9,.T.);
#11 = DIRECTION('',(0.000000000,0.000000000,-1.000000000));
#12 = DIRECTION('',(0.000000000,1.000000000,0.000000000));
#13 = AXIS2_PLACEMENT_3D('',#1,#11,#12);
#14 = PLANE('',#13);
#15 = FACE_SURFACE('',(#10),#14,.T.);
#16 = POLY_LOOP('',(#5,#6,#7,#8));
#17 = FACE_OUTER_BOUND('',#16,.T.);
#18 = DIRECTION('',(0.000000000,0.000000000,1.000000000));
#19 = DIRECTION('',(1.000000000,0.000000000,0.000000000));
#20 = AXIS2_PLACEMENT_3D('',#5,#18,#19);
#21 = PLANE('',#20);
#22 = FACE_SURFACE('',(#17),#21,.T.);
#23 = POLY_LOOP('',(#1,#2,#6,#5));
#24 = FACE_OUTER_BOUND('',#23,.T.);
#25 = DIRECTION('',(0.000000000,-1.000000000,0.000000000));
#26 = DIRECTION('',(1.000000000,0.000000000,0.000000000));
#27 = AXIS2_PLACEMENT_3D('',#1,#25,#26);
#28 = PLANE('',#27);
#29 = FACE_SURFACE('',(#24),#28,.T.);
#30 = POLY_LOOP('',(#2,#3,#7,#6));
#31 = FACE_OUTER_BOUND('',#30,.T.);
#32 = DIRECTION('',(1.000000000,0.000000000,0.000000000));
#33 = DIRECTION('',(0.000000000,1.000000000,0.000000000));
#34 = AXIS2_PLACEMENT_3D('',#2,#32,#33);
#35 = PLANE('',#34);
#36 = FACE_SURFACE('',(#31),#35,.T.);
#37 = POLY_LOOP('',(#3,#4,#8,#7));
#38 = FACE_OUTER_BOUND('',#37,.T.);
#39 = DIRECTION('',(0.000000000,1.000000000,0.000000000));
#40 = DIRECTION('',(-1.000000000,0.000000000,0.000000000));
#41 = AXIS2_PLACEMENT_3D('',#3,#39,#40);
#42 = PLANE('',#41);
#43 = FACE_SURFACE('',(#38),#42,.T.);
#44 = POLY_LOOP('',(#4,#1,#5,#8));
#45 = FACE_OUTER_BOUND('',#44,.T.);
#46 = DIRECTION('',(-1.000000000,0.000000000,0.000000000));
#47 = DIRECTION('',(0.000000000,-1.000000000,0.000000000));
#48 = AXIS2_PLACEMENT_3D('',#4,#46,#47);
#49 = PLANE('',#48);
#50 = FACE_SURFACE('',(#45),#49,.T.);
#51 = CLOSED_SHELL('',(#15,#22,#29,#36,#43,#50));
#52 = FACETED_BREP('silver motion deck',#51);
#53 = CARTESIAN_POINT('',(-80.000000000,18.000000000,-70.000000000));
#54 = CARTESIAN_POINT('',(80.000000000,18.000000000,-70.000000000));
#55 = CARTESIAN_POINT('',(80.000000000,36.000000000,-70.000000000));
#56 = CARTESIAN_POINT('',(-80.000000000,36.000000000,-70.000000000));
#57 = CARTESIAN_POINT('',(-80.000000000,18.000000000,70.000000000));
#58 = CARTESIAN_POINT('',(80.000000000,18.000000000,70.000000000));
#59 = CARTESIAN_POINT('',(80.000000000,36.000000000,70.000000000));
#60 = CARTESIAN_POINT('',(-80.000000000,36.000000000,70.000000000));
#61 = POLY_LOOP('',(#53,#56,#55,#54));
#62 = FACE_OUTER_BOUND('',#61,.T.);
#63 = DIRECTION('',(0.000000000,0.000000000,-1.000000000));
#64 = DIRECTION('',(0.000000000,1.000000000,0.000000000));
#65 = AXIS2_PLACEMENT_3D('',#53,#63,#64);
#66 = PLANE('',#65);
#67 = FACE_SURFACE('',(#62),#66,.T.);
#68 = POLY_LOOP('',(#57,#58,#59,#60));
#69 = FACE_OUTER_BOUND('',#68,.T.);
#70 = DIRECTION('',(0.000000000,0.000000000,1.000000000));
#71 = DIRECTION('',(1.000000000,0.000000000,0.000000000));
#72 = AXIS2_PLACEMENT_3D('',#57,#70,#71);
#73 = PLANE('',#72);
#74 = FACE_SURFACE('',(#69),#73,.T.);
#75 = POLY_LOOP('',(#53,#54,#58,#57));
#76 = FACE_OUTER_BOUND('',#75,.T.);
#77 = DIRECTION('',(0.000000000,-1.000000000,0.000000000));
#78 = DIRECTION('',(1.000000000,0.000000000,0.000000000));
#79 = AXIS2_PLACEMENT_3D('',#53,#77,#78);
#80 = PLANE('',#79);
#81 = FACE_SURFACE('',(#76),#80,.T.);
#82 = POLY_LOOP('',(#54,#55,#59,#58));
#83 = FACE_OUTER_BOUND('',#82,.T.);
#84 = DIRECTION('',(1.000000000,0.000000000,0.000000000));
#85 = DIRECTION('',(0.000000000,1.000000000,0.000000000));
#86 = AXIS2_PLACEMENT_3D('',#54,#84,#85);
#87 = PLANE('',#86);
#88 = FACE_SURFACE('',(#83),#87,.T.);
#89 = POLY_LOOP('',(#55,#56,#60,#59));
#90 = FACE_OUTER_BOUND('',#89,.T.);
#91 = DIRECTION('',(0.000000000,1.000000000,0.000000000));
#92 = DIRECTION('',(-1.000000000,0.000000000,0.000000000));
#93 = AXIS2_PLACEMENT_3D('',#55,#91,#92);
#94 = PLANE('',#93);
#95 = FACE_SURFACE('',(#90),#94,.T.);
#96 = POLY_LOOP('',(#56,#53,#57,#60));
#97 = FACE_OUTER_BOUND('',#96,.T.);
#98 = DIRECTION('',(-1.000000000,0.000000000,0.000000000));
#99 = DIRECTION('',(0.000000000,-1.000000000,0.000000000));
#100 = AXIS2_PLACEMENT_3D('',#56,#98,#99);
#101 = PLANE('',#100);
#102 = FACE_SURFACE('',(#97),#101,.T.);
#103 = CLOSED_SHELL('',(#67,#74,#81,#88,#95,#102));
#104 = FACETED_BREP('silver motion deck',#103);
#105 = CARTESIAN_POINT('',(-67.500000000,36.000000000,-57.500000000));
#106 = CARTESIAN_POINT('',(67.500000000,36.000000000,-57.500000000));
#107 = CARTESIAN_POINT('',(67.500000000,54.000000000,-57.500000000));
#108 = CARTESIAN_POINT('',(-67.500000000,54.000000000,-57.500000000));
#109 = CARTESIAN_POINT('',(-67.500000000,36.000000000,57.500000000));
#110 = CARTESIAN_POINT('',(67.500000000,36.000000000,57.500000000));
#111 = CARTESIAN_POINT('',(67.500000000,54.000000000,57.500000000));
#112 = CARTESIAN_POINT('',(-67.500000000,54.000000000,57.500000000));
#113 = POLY_LOOP('',(#105,#108,#107,#106));
#114 = FACE_OUTER_BOUND('',#113,.T.);
#115 = DIRECTION('',(0.000000000,0.000000000,-1.000000000));
#116 = DIRECTION('',(0.000000000,1.000000000,0.000000000));
#117 = AXIS2_PLACEMENT_3D('',#105,#115,#116);
#118 = PLANE('',#117);
#119 = FACE_SURFACE('',(#114),#118,.T.);
#120 = POLY_LOOP('',(#109,#110,#111,#112));
#121 = FACE_OUTER_BOUND('',#120,.T.);
#122 = DIRECTION('',(0.000000000,0.000000000,1.000000000));
#123 = DIRECTION('',(1.000000000,0.000000000,0.000000000));
#124 = AXIS2_PLACEMENT_3D('',#109,#122,#123);
#125 = PLANE('',#124);
#126 = FACE_SURFACE('',(#121),#125,.T.);
#127 = POLY_LOOP('',(#105,#106,#110,#109));
#128 = FACE_OUTER_BOUND('',#127,.T.);
#129 = DIRECTION('',(0.000000000,-1.000000000,0.000000000));
#130 = DIRECTION('',(1.000000000,0.000000000,0.000000000));
#131 = AXIS2_PLACEMENT_3D('',#105,#129,#130);
#132 = PLANE('',#131);
#133 = FACE_SURFACE('',(#128),#132,.T.);
#134 = POLY_LOOP('',(#106,#107,#111,#110));
#135 = FACE_OUTER_BOUND('',#134,.T.);
#136 = DIRECTION('',(1.000000000,0.000000000,0.000000000));
#137 = DIRECTION('',(0.000000000,1.000000000,0.000000000));
#138 = AXIS2_PLACEMENT_3D('',#106,#136,#137);
#139 = PLANE('',#138);
#140 = FACE_SURFACE('',(#135),#139,.T.);
#141 = POLY_LOOP('',(#107,#108,#112,#111));
#142 = FACE_OUTER_BOUND('',#141,.T.);
#143 = DIRECTION('',(0.000000000,1.000000000,0.000000000));
#144 = DIRECTION('',(-1.000000000,0.000000000,0.000000000));
#145 = AXIS2_PLACEMENT_3D('',#107,#143,#144);
#146 = PLANE('',#145);
#147 = FACE_SURFACE('',(#142),#146,.T.);
#148 = POLY_LOOP('',(#108,#105,#109,#112));
#149 = FACE_OUTER_BOUND('',#148,.T.);
#150 = DIRECTION('',(-1.000000000,0.000000000,0.000000000));
#151 = DIRECTION('',(0.000000000,-1.000000000,0.000000000));
#152 = AXIS2_PLACEMENT_3D('',#108,#150,#151);
#153 = PLANE('',#152);
#154 = FACE_SURFACE('',(#149),#153,.T.);
#155 = CLOSED_SHELL('',(#119,#126,#133,#140,#147,#154));
#156 = FACETED_BREP('silver motion deck',#155);
#157 = CARTESIAN_POINT('',(80.000000000,30.000000000,8.000000000));
#158 = CARTESIAN_POINT('',(80.000000000,27.527864045,7.608452130));
#159 = CARTESIAN_POINT('',(80.000000000,25.297717982,6.472135955));
#160 = CARTESIAN_POINT('',(80.000000000,23.527864045,4.702282018));
#161 = CARTESIAN_POINT('',(80.000000000,22.391547870,2.472135955));
#162 = CARTESIAN_POINT('',(80.000000000,22.000000000,0.000000000));
#163 = CARTESIAN_POINT('',(80.000000000,22.391547870,-2.472135955));
#164 = CARTESIAN_POINT('',(80.000000000,23.527864045,-4.702282018));
#165 = CARTESIAN_POINT('',(80.000000000,25.297717982,-6.472135955));
#166 = CARTESIAN_POINT('',(80.000000000,27.527864045,-7.608452130));
#167 = CARTESIAN_POINT('',(80.000000000,30.000000000,-8.000000000));
#168 = CARTESIAN_POINT('',(80.000000000,32.472135955,-7.608452130));
#169 = CARTESIAN_POINT('',(80.000000000,34.702282018,-6.472135955));
#170 = CARTESIAN_POINT('',(80.000000000,36.472135955,-4.702282018));
#171 = CARTESIAN_POINT('',(80.000000000,37.608452130,-2.472135955));
#172 = CARTESIAN_POINT('',(80.000000000,38.000000000,-0.000000000));
#173 = CARTESIAN_POINT('',(80.000000000,37.608452130,2.472135955));
#174 = CARTESIAN_POINT('',(80.000000000,36.472135955,4.702282018));
#175 = CARTESIAN_POINT('',(80.000000000,34.702282018,6.472135955));
#176 = CARTESIAN_POINT('',(80.000000000,32.472135955,7.608452130));
#177 = CARTESIAN_POINT('',(135.000000000,30.000000000,8.000000000));
#178 = CARTESIAN_POINT('',(135.000000000,27.527864045,7.608452130));
#179 = CARTESIAN_POINT('',(135.000000000,25.297717982,6.472135955));
#180 = CARTESIAN_POINT('',(135.000000000,23.527864045,4.702282018));
#181 = CARTESIAN_POINT('',(135.000000000,22.391547870,2.472135955));
#182 = CARTESIAN_POINT('',(135.000000000,22.000000000,0.000000000));
#183 = CARTESIAN_POINT('',(135.000000000,22.391547870,-2.472135955));
#184 = CARTESIAN_POINT('',(135.000000000,23.527864045,-4.702282018));
#185 = CARTESIAN_POINT('',(135.000000000,25.297717982,-6.472135955));
#186 = CARTESIAN_POINT('',(135.000000000,27.527864045,-7.608452130));
#187 = CARTESIAN_POINT('',(135.000000000,30.000000000,-8.000000000));
#188 = CARTESIAN_POINT('',(135.000000000,32.472135955,-7.608452130));
#189 = CARTESIAN_POINT('',(135.000000000,34.702282018,-6.472135955));
#190 = CARTESIAN_POINT('',(135.000000000,36.472135955,-4.702282018));
#191 = CARTESIAN_POINT('',(135.000000000,37.608452130,-2.472135955));
#192 = CARTESIAN_POINT('',(135.000000000,38.000000000,-0.000000000));
#193 = CARTESIAN_POINT('',(135.000000000,37.608452130,2.472135955));
#194 = CARTESIAN_POINT('',(135.000000000,36.472135955,4.702282018));
#195 = CARTESIAN_POINT('',(135.000000000,34.702282018,6.472135955));
#196 = CARTESIAN_POINT('',(135.000000000,32.472135955,7.608452130));
#197 = POLY_LOOP('',(#176,#175,#174,#173,#172,#171,#170,#169,#168,#167,#166,#165,#164,#163,#162,#161,#160,#159,#158,#157));
#198 = FACE_OUTER_BOUND('',#197,.T.);
#199 = DIRECTION('',(-1.000000000,0.000000000,0.000000000));
#200 = DIRECTION('',(0.000000000,0.891006524,-0.453990500));
#201 = AXIS2_PLACEMENT_3D('',#176,#199,#200);
#202 = PLANE('',#201);
#203 = FACE_SURFACE('',(#198),#202,.T.);
#204 = POLY_LOOP('',(#177,#178,#179,#180,#181,#182,#183,#184,#185,#186,#187,#188,#189,#190,#191,#192,#193,#194,#195,#196));
#205 = FACE_OUTER_BOUND('',#204,.T.);
#206 = DIRECTION('',(1.000000000,0.000000000,0.000000000));
#207 = DIRECTION('',(0.000000000,-0.987688341,-0.156434465));
#208 = AXIS2_PLACEMENT_3D('',#177,#206,#207);
#209 = PLANE('',#208);
#210 = FACE_SURFACE('',(#205),#209,.T.);
#211 = POLY_LOOP('',(#157,#158,#178,#177));
#212 = FACE_OUTER_BOUND('',#211,.T.);
#213 = DIRECTION('',(0.000000000,-0.156434465,0.987688341));
#214 = DIRECTION('',(0.000000000,-0.987688341,-0.156434465));
#215 = AXIS2_PLACEMENT_3D('',#157,#213,#214);
#216 = PLANE('',#215);
#217 = FACE_SURFACE('',(#212),#216,.T.);
#218 = POLY_LOOP('',(#158,#159,#179,#178));
#219 = FACE_OUTER_BOUND('',#218,.T.);
#220 = DIRECTION('',(0.000000000,-0.453990500,0.891006524));
#221 = DIRECTION('',(0.000000000,-0.891006524,-0.453990500));
#222 = AXIS2_PLACEMENT_3D('',#158,#220,#221);
#223 = PLANE('',#222);
#224 = FACE_SURFACE('',(#219),#223,.T.);
#225 = POLY_LOOP('',(#159,#160,#180,#179));
#226 = FACE_OUTER_BOUND('',#225,.T.);
#227 = DIRECTION('',(0.000000000,-0.707106781,0.707106781));
#228 = DIRECTION('',(0.000000000,-0.707106781,-0.707106781));
#229 = AXIS2_PLACEMENT_3D('',#159,#227,#228);
#230 = PLANE('',#229);
#231 = FACE_SURFACE('',(#226),#230,.T.);
#232 = POLY_LOOP('',(#160,#161,#181,#180));
#233 = FACE_OUTER_BOUND('',#232,.T.);
#234 = DIRECTION('',(0.000000000,-0.891006524,0.453990500));
#235 = DIRECTION('',(0.000000000,-0.453990500,-0.891006524));
#236 = AXIS2_PLACEMENT_3D('',#160,#234,#235);
#237 = PLANE('',#236);
#238 = FACE_SURFACE('',(#233),#237,.T.);
#239 = POLY_LOOP('',(#161,#162,#182,#181));
#240 = FACE_OUTER_BOUND('',#239,.T.);
#241 = DIRECTION('',(0.000000000,-0.987688341,0.156434465));
#242 = DIRECTION('',(0.000000000,-0.156434465,-0.987688341));
#243 = AXIS2_PLACEMENT_3D('',#161,#241,#242);
#244 = PLANE('',#243);
#245 = FACE_SURFACE('',(#240),#244,.T.);
#246 = POLY_LOOP('',(#162,#163,#183,#182));
#247 = FACE_OUTER_BOUND('',#246,.T.);
#248 = DIRECTION('',(0.000000000,-0.987688341,-0.156434465));
#249 = DIRECTION('',(0.000000000,0.156434465,-0.987688341));
#250 = AXIS2_PLACEMENT_3D('',#162,#248,#249);
#251 = PLANE('',#250);
#252 = FACE_SURFACE('',(#247),#251,.T.);
#253 = POLY_LOOP('',(#163,#164,#184,#183));
#254 = FACE_OUTER_BOUND('',#253,.T.);
#255 = DIRECTION('',(0.000000000,-0.891006524,-0.453990500));
#256 = DIRECTION('',(0.000000000,0.453990500,-0.891006524));
#257 = AXIS2_PLACEMENT_3D('',#163,#255,#256);
#258 = PLANE('',#257);
#259 = FACE_SURFACE('',(#254),#258,.T.);
#260 = POLY_LOOP('',(#164,#165,#185,#184));
#261 = FACE_OUTER_BOUND('',#260,.T.);
#262 = DIRECTION('',(0.000000000,-0.707106781,-0.707106781));
#263 = DIRECTION('',(0.000000000,0.707106781,-0.707106781));
#264 = AXIS2_PLACEMENT_3D('',#164,#262,#263);
#265 = PLANE('',#264);
#266 = FACE_SURFACE('',(#261),#265,.T.);
#267 = POLY_LOOP('',(#165,#166,#186,#185));
#268 = FACE_OUTER_BOUND('',#267,.T.);
#269 = DIRECTION('',(0.000000000,-0.453990500,-0.891006524));
#270 = DIRECTION('',(0.000000000,0.891006524,-0.453990500));
#271 = AXIS2_PLACEMENT_3D('',#165,#269,#270);
#272 = PLANE('',#271);
#273 = FACE_SURFACE('',(#268),#272,.T.);
#274 = POLY_LOOP('',(#166,#167,#187,#186));
#275 = FACE_OUTER_BOUND('',#274,.T.);
#276 = DIRECTION('',(0.000000000,-0.156434465,-0.987688341));
#277 = DIRECTION('',(0.000000000,0.987688341,-0.156434465));
#278 = AXIS2_PLACEMENT_3D('',#166,#276,#277);
#279 = PLANE('',#278);
#280 = FACE_SURFACE('',(#275),#279,.T.);
#281 = POLY_LOOP('',(#167,#168,#188,#187));
#282 = FACE_OUTER_BOUND('',#281,.T.);
#283 = DIRECTION('',(0.000000000,0.156434465,-0.987688341));
#284 = DIRECTION('',(0.000000000,0.987688341,0.156434465));
#285 = AXIS2_PLACEMENT_3D('',#167,#283,#284);
#286 = PLANE('',#285);
#287 = FACE_SURFACE('',(#282),#286,.T.);
#288 = POLY_LOOP('',(#168,#169,#189,#188));
#289 = FACE_OUTER_BOUND('',#288,.T.);
#290 = DIRECTION('',(0.000000000,0.453990500,-0.891006524));
#291 = DIRECTION('',(0.000000000,0.891006524,0.453990500));
#292 = AXIS2_PLACEMENT_3D('',#168,#290,#291);
#293 = PLANE('',#292);
#294 = FACE_SURFACE('',(#289),#293,.T.);
#295 = POLY_LOOP('',(#169,#170,#190,#189));
#296 = FACE_OUTER_BOUND('',#295,.T.);
#297 = DIRECTION('',(0.000000000,0.707106781,-0.707106781));
#298 = DIRECTION('',(0.000000000,0.707106781,0.707106781));
#299 = AXIS2_PLACEMENT_3D('',#169,#297,#298);
#300 = PLANE('',#299);
#301 = FACE_SURFACE('',(#296),#300,.T.);
#302 = POLY_LOOP('',(#170,#171,#191,#190));
#303 = FACE_OUTER_BOUND('',#302,.T.);
#304 = DIRECTION('',(0.000000000,0.891006524,-0.453990500));
#305 = DIRECTION('',(0.000000000,0.453990500,0.891006524));
#306 = AXIS2_PLACEMENT_3D('',#170,#304,#305);
#307 = PLANE('',#306);
#308 = FACE_SURFACE('',(#303),#307,.T.);
#309 = POLY_LOOP('',(#171,#172,#192,#191));
#310 = FACE_OUTER_BOUND('',#309,.T.);
#311 = DIRECTION('',(0.000000000,0.987688341,-0.156434465));
#312 = DIRECTION('',(0.000000000,0.156434465,0.987688341));
#313 = AXIS2_PLACEMENT_3D('',#171,#311,#312);
#314 = PLANE('',#313);
#315 = FACE_SURFACE('',(#310),#314,.T.);
#316 = POLY_LOOP('',(#172,#173,#193,#192));
#317 = FACE_OUTER_BOUND('',#316,.T.);
#318 = DIRECTION('',(0.000000000,0.987688341,0.156434465));
#319 = DIRECTION('',(0.000000000,-0.156434465,0.987688341));
#320 = AXIS2_PLACEMENT_3D('',#172,#318,#319);
#321 = PLANE('',#320);
#322 = FACE_SURFACE('',(#317),#321,.T.);
#323 = POLY_LOOP('',(#173,#174,#194,#193));
#324 = FACE_OUTER_BOUND('',#323,.T.);
#325 = DIRECTION('',(0.000000000,0.891006524,0.453990500));
#326 = DIRECTION('',(0.000000000,-0.453990500,0.891006524));
#327 = AXIS2_PLACEMENT_3D('',#173,#325,#326);
#328 = PLANE('',#327);
#329 = FACE_SURFACE('',(#324),#328,.T.);
#330 = POLY_LOOP('',(#174,#175,#195,#194));
#331 = FACE_OUTER_BOUND('',#330,.T.);
#332 = DIRECTION('',(0.000000000,0.707106781,0.707106781));
#333 = DIRECTION('',(0.000000000,-0.707106781,0.707106781));
#334 = AXIS2_PLACEMENT_3D('',#174,#332,#333);
#335 = PLANE('',#334);
#336 = FACE_SURFACE('',(#331),#335,.T.);
#337 = POLY_LOOP('',(#175,#176,#196,#195));
#338 = FACE_OUTER_BOUND('',#337,.T.);
#339 = DIRECTION('',(0.000000000,0.453990500,0.891006524));
#340 = DIRECTION('',(0.000000000,-0.891006524,0.453990500));
#341 = AXIS2_PLACEMENT_3D('',#175,#339,#340);
#342 = PLANE('',#341);
#343 = FACE_SURFACE('',(#338),#342,.T.);
#344 = POLY_LOOP('',(#176,#157,#177,#196));
#345 = FACE_OUTER_BOUND('',#344,.T.);
#346 = DIRECTION('',(0.000000000,0.156434465,0.987688341));
#347 = DIRECTION('',(0.000000000,-0.987688341,0.156434465));
#348 = AXIS2_PLACEMENT_3D('',#176,#346,#347);
#349 = PLANE('',#348);
#350 = FACE_SURFACE('',(#345),#349,.T.);
#351 = CLOSED_SHELL('',(#203,#210,#217,#224,#231,#238,#245,#252,#259,#266,#273,#280,#287,#294,#301,#308,#315,#322,#329,#336,#343,#350));
#352 = FACETED_BREP('black micrometer',#351);
#353 = CARTESIAN_POINT('',(8.000000000,48.000000000,-50.000000000));
#354 = CARTESIAN_POINT('',(7.608452130,45.527864045,-50.000000000));
#355 = CARTESIAN_POINT('',(6.472135955,43.297717982,-50.000000000));
#356 = CARTESIAN_POINT('',(4.702282018,41.527864045,-50.000000000));
#357 = CARTESIAN_POINT('',(2.472135955,40.391547870,-50.000000000));
#358 = CARTESIAN_POINT('',(0.000000000,40.000000000,-50.000000000));
#359 = CARTESIAN_POINT('',(-2.472135955,40.391547870,-50.000000000));
#360 = CARTESIAN_POINT('',(-4.702282018,41.527864045,-50.000000000));
#361 = CARTESIAN_POINT('',(-6.472135955,43.297717982,-50.000000000));
#362 = CARTESIAN_POINT('',(-7.608452130,45.527864045,-50.000000000));
#363 = CARTESIAN_POINT('',(-8.000000000,48.000000000,-50.000000000));
#364 = CARTESIAN_POINT('',(-7.608452130,50.472135955,-50.000000000));
#365 = CARTESIAN_POINT('',(-6.472135955,52.702282018,-50.000000000));
#366 = CARTESIAN_POINT('',(-4.702282018,54.472135955,-50.000000000));
#367 = CARTESIAN_POINT('',(-2.472135955,55.608452130,-50.000000000));
#368 = CARTESIAN_POINT('',(-0.000000000,56.000000000,-50.000000000));
#369 = CARTESIAN_POINT('',(2.472135955,55.608452130,-50.000000000));
#370 = CARTESIAN_POINT('',(4.702282018,54.472135955,-50.000000000));
#371 = CARTESIAN_POINT('',(6.472135955,52.702282018,-50.000000000));
#372 = CARTESIAN_POINT('',(7.608452130,50.472135955,-50.000000000));
#373 = CARTESIAN_POINT('',(8.000000000,48.000000000,-100.000000000));
#374 = CARTESIAN_POINT('',(7.608452130,45.527864045,-100.000000000));
#375 = CARTESIAN_POINT('',(6.472135955,43.297717982,-100.000000000));
#376 = CARTESIAN_POINT('',(4.702282018,41.527864045,-100.000000000));
#377 = CARTESIAN_POINT('',(2.472135955,40.391547870,-100.000000000));
#378 = CARTESIAN_POINT('',(0.000000000,40.000000000,-100.000000000));
#379 = CARTESIAN_POINT('',(-2.472135955,40.391547870,-100.000000000));
#380 = CARTESIAN_POINT('',(-4.702282018,41.527864045,-100.000000000));
#381 = CARTESIAN_POINT('',(-6.472135955,43.297717982,-100.000000000));
#382 = CARTESIAN_POINT('',(-7.608452130,45.527864045,-100.000000000));
#383 = CARTESIAN_POINT('',(-8.000000000,48.000000000,-100.000000000));
#384 = CARTESIAN_POINT('',(-7.608452130,50.472135955,-100.000000000));
#385 = CARTESIAN_POINT('',(-6.472135955,52.702282018,-100.000000000));
#386 = CARTESIAN_POINT('',(-4.702282018,54.472135955,-100.000000000));
#387 = CARTESIAN_POINT('',(-2.472135955,55.608452130,-100.000000000));
#388 = CARTESIAN_POINT('',(-0.000000000,56.000000000,-100.000000000));
#389 = CARTESIAN_POINT('',(2.472135955,55.608452130,-100.000000000));
#390 = CARTESIAN_POINT('',(4.702282018,54.472135955,-100.000000000));
#391 = CARTESIAN_POINT('',(6.472135955,52.702282018,-100.000000000));
#392 = CARTESIAN_POINT('',(7.608452130,50.472135955,-100.000000000));
#393 = POLY_LOOP('',(#372,#371,#370,#369,#368,#367,#366,#365,#364,#363,#362,#361,#360,#359,#358,#357,#356,#355,#354,#353));
#394 = FACE_OUTER_BOUND('',#393,.T.);
#395 = DIRECTION('',(0.000000000,0.000000000,1.000000000));
#396 = DIRECTION('',(-0.453990500,0.891006524,0.000000000));
#397 = AXIS2_PLACEMENT_3D('',#372,#395,#396);
#398 = PLANE('',#397);
#399 = FACE_SURFACE('',(#394),#398,.T.);
#400 = POLY_LOOP('',(#373,#374,#375,#376,#377,#378,#379,#380,#381,#382,#383,#384,#385,#386,#387,#388,#389,#390,#391,#392));
#401 = FACE_OUTER_BOUND('',#400,.T.);
#402 = DIRECTION('',(0.000000000,0.000000000,-1.000000000));
#403 = DIRECTION('',(-0.156434465,-0.987688341,0.000000000));
#404 = AXIS2_PLACEMENT_3D('',#373,#402,#403);
#405 = PLANE('',#404);
#406 = FACE_SURFACE('',(#401),#405,.T.);
#407 = POLY_LOOP('',(#353,#354,#374,#373));
#408 = FACE_OUTER_BOUND('',#407,.T.);
#409 = DIRECTION('',(0.987688341,-0.156434465,0.000000000));
#410 = DIRECTION('',(-0.156434465,-0.987688341,0.000000000));
#411 = AXIS2_PLACEMENT_3D('',#353,#409,#410);
#412 = PLANE('',#411);
#413 = FACE_SURFACE('',(#408),#412,.T.);
#414 = POLY_LOOP('',(#354,#355,#375,#374));
#415 = FACE_OUTER_BOUND('',#414,.T.);
#416 = DIRECTION('',(0.891006524,-0.453990500,0.000000000));
#417 = DIRECTION('',(-0.453990500,-0.891006524,0.000000000));
#418 = AXIS2_PLACEMENT_3D('',#354,#416,#417);
#419 = PLANE('',#418);
#420 = FACE_SURFACE('',(#415),#419,.T.);
#421 = POLY_LOOP('',(#355,#356,#376,#375));
#422 = FACE_OUTER_BOUND('',#421,.T.);
#423 = DIRECTION('',(0.707106781,-0.707106781,0.000000000));
#424 = DIRECTION('',(-0.707106781,-0.707106781,0.000000000));
#425 = AXIS2_PLACEMENT_3D('',#355,#423,#424);
#426 = PLANE('',#425);
#427 = FACE_SURFACE('',(#422),#426,.T.);
#428 = POLY_LOOP('',(#356,#357,#377,#376));
#429 = FACE_OUTER_BOUND('',#428,.T.);
#430 = DIRECTION('',(0.453990500,-0.891006524,0.000000000));
#431 = DIRECTION('',(-0.891006524,-0.453990500,0.000000000));
#432 = AXIS2_PLACEMENT_3D('',#356,#430,#431);
#433 = PLANE('',#432);
#434 = FACE_SURFACE('',(#429),#433,.T.);
#435 = POLY_LOOP('',(#357,#358,#378,#377));
#436 = FACE_OUTER_BOUND('',#435,.T.);
#437 = DIRECTION('',(0.156434465,-0.987688341,0.000000000));
#438 = DIRECTION('',(-0.987688341,-0.156434465,0.000000000));
#439 = AXIS2_PLACEMENT_3D('',#357,#437,#438);
#440 = PLANE('',#439);
#441 = FACE_SURFACE('',(#436),#440,.T.);
#442 = POLY_LOOP('',(#358,#359,#379,#378));
#443 = FACE_OUTER_BOUND('',#442,.T.);
#444 = DIRECTION('',(-0.156434465,-0.987688341,0.000000000));
#445 = DIRECTION('',(-0.987688341,0.156434465,0.000000000));
#446 = AXIS2_PLACEMENT_3D('',#358,#444,#445);
#447 = PLANE('',#446);
#448 = FACE_SURFACE('',(#443),#447,.T.);
#449 = POLY_LOOP('',(#359,#360,#380,#379));
#450 = FACE_OUTER_BOUND('',#449,.T.);
#451 = DIRECTION('',(-0.453990500,-0.891006524,0.000000000));
#452 = DIRECTION('',(-0.891006524,0.453990500,0.000000000));
#453 = AXIS2_PLACEMENT_3D('',#359,#451,#452);
#454 = PLANE('',#453);
#455 = FACE_SURFACE('',(#450),#454,.T.);
#456 = POLY_LOOP('',(#360,#361,#381,#380));
#457 = FACE_OUTER_BOUND('',#456,.T.);
#458 = DIRECTION('',(-0.707106781,-0.707106781,0.000000000));
#459 = DIRECTION('',(-0.707106781,0.707106781,0.000000000));
#460 = AXIS2_PLACEMENT_3D('',#360,#458,#459);
#461 = PLANE('',#460);
#462 = FACE_SURFACE('',(#457),#461,.T.);
#463 = POLY_LOOP('',(#361,#362,#382,#381));
#464 = FACE_OUTER_BOUND('',#463,.T.);
#465 = DIRECTION('',(-0.891006524,-0.453990500,0.000000000));
#466 = DIRECTION('',(-0.453990500,0.891006524,0.000000000));
#467 = AXIS2_PLACEMENT_3D('',#361,#465,#466);
#468 = PLANE('',#467);
#469 = FACE_SURFACE('',(#464),#468,.T.);
#470 = POLY_LOOP('',(#362,#363,#383,#382));
#471 = FACE_OUTER_BOUND('',#470,.T.);
#472 = DIRECTION('',(-0.987688341,-0.156434465,0.000000000));
#473 = DIRECTION('',(-0.156434465,0.987688341,0.000000000));
#474 = AXIS2_PLACEMENT_3D('',#362,#472,#473);
#475 = PLANE('',#474);
#476 = FACE_SURFACE('',(#471),#475,.T.);
#477 = POLY_LOOP('',(#363,#364,#384,#383));
#478 = FACE_OUTER_BOUND('',#477,.T.);
#479 = DIRECTION('',(-0.987688341,0.156434465,0.000000000));
#480 = DIRECTION('',(0.156434465,0.987688341,0.000000000));
#481 = AXIS2_PLACEMENT_3D('',#363,#479,#480);
#482 = PLANE('',#481);
#483 = FACE_SURFACE('',(#478),#482,.T.);
#484 = POLY_LOOP('',(#364,#365,#385,#384));
#485 = FACE_OUTER_BOUND('',#484,.T.);
#486 = DIRECTION('',(-0.891006524,0.453990500,0.000000000));
#487 = DIRECTION('',(0.453990500,0.891006524,0.000000000));
#488 = AXIS2_PLACEMENT_3D('',#364,#486,#487);
#489 = PLANE('',#488);
#490 = FACE_SURFACE('',(#485),#489,.T.);
#491 = POLY_LOOP('',(#365,#366,#386,#385));
#492 = FACE_OUTER_BOUND('',#491,.T.);
#493 = DIRECTION('',(-0.707106781,0.707106781,0.000000000));
#494 = DIRECTION('',(0.707106781,0.707106781,0.000000000));
#495 = AXIS2_PLACEMENT_3D('',#365,#493,#494);
#496 = PLANE('',#495);
#497 = FACE_SURFACE('',(#492),#496,.T.);
#498 = POLY_LOOP('',(#366,#367,#387,#386));
#499 = FACE_OUTER_BOUND('',#498,.T.);
#500 = DIRECTION('',(-0.453990500,0.891006524,0.000000000));
#501 = DIRECTION('',(0.891006524,0.453990500,0.000000000));
#502 = AXIS2_PLACEMENT_3D('',#366,#500,#501);
#503 = PLANE('',#502);
#504 = FACE_SURFACE('',(#499),#503,.T.);
#505 = POLY_LOOP('',(#367,#368,#388,#387));
#506 = FACE_OUTER_BOUND('',#505,.T.);
#507 = DIRECTION('',(-0.156434465,0.987688341,0.000000000));
#508 = DIRECTION('',(0.987688341,0.156434465,0.000000000));
#509 = AXIS2_PLACEMENT_3D('',#367,#507,#508);
#510 = PLANE('',#509);
#511 = FACE_SURFACE('',(#506),#510,.T.);
#512 = POLY_LOOP('',(#368,#369,#389,#388));
#513 = FACE_OUTER_BOUND('',#512,.T.);
#514 = DIRECTION('',(0.156434465,0.987688341,0.000000000));
#515 = DIRECTION('',(0.987688341,-0.156434465,0.000000000));
#516 = AXIS2_PLACEMENT_3D('',#368,#514,#515);
#517 = PLANE('',#516);
#518 = FACE_SURFACE('',(#513),#517,.T.);
#519 = POLY_LOOP('',(#369,#370,#390,#389));
#520 = FACE_OUTER_BOUND('',#519,.T.);
#521 = DIRECTION('',(0.453990500,0.891006524,0.000000000));
#522 = DIRECTION('',(0.891006524,-0.453990500,0.000000000));
#523 = AXIS2_PLACEMENT_3D('',#369,#521,#522);
#524 = PLANE('',#523);
#525 = FACE_SURFACE('',(#520),#524,.T.);
#526 = POLY_LOOP('',(#370,#371,#391,#390));
#527 = FACE_OUTER_BOUND('',#526,.T.);
#528 = DIRECTION('',(0.707106781,0.707106781,0.000000000));
#529 = DIRECTION('',(0.707106781,-0.707106781,0.000000000));
#530 = AXIS2_PLACEMENT_3D('',#370,#528,#529);
#531 = PLANE('',#530);
#532 = FACE_SURFACE('',(#527),#531,.T.);
#533 = POLY_LOOP('',(#371,#372,#392,#391));
#534 = FACE_OUTER_BOUND('',#533,.T.);
#535 = DIRECTION('',(0.891006524,0.453990500,0.000000000));
#536 = DIRECTION('',(0.453990500,-0.891006524,0.000000000));
#537 = AXIS2_PLACEMENT_3D('',#371,#535,#536);
#538 = PLANE('',#537);
#539 = FACE_SURFACE('',(#534),#538,.T.);
#540 = POLY_LOOP('',(#372,#353,#373,#392));
#541 = FACE_OUTER_BOUND('',#540,.T.);
#542 = DIRECTION('',(0.987688341,0.156434465,0.000000000));
#543 = DIRECTION('',(0.156434465,-0.987688341,0.000000000));
#544 = AXIS2_PLACEMENT_3D('',#372,#542,#543);
#545 = PLANE('',#544);
#546 = FACE_SURFACE('',(#541),#545,.T.);
#547 = CLOSED_SHELL('',(#399,#406,#413,#420,#427,#434,#441,#448,#455,#462,#469,#476,#483,#490,#497,#504,#511,#518,#525,#532,#539,#546));
#548 = FACETED_BREP('black micrometer',#547);
#549 = CARTESIAN_POINT('',(-60.000000000,40.000000000,22.000000000));
#550 = CARTESIAN_POINT('',(-60.000000000,37.527864045,22.391547870));
#551 = CARTESIAN_POINT('',(-60.000000000,35.297717982,23.527864045));
#552 = CARTESIAN_POINT('',(-60.000000000,33.527864045,25.297717982));
#553 = CARTESIAN_POINT('',(-60.000000000,32.391547870,27.527864045));
#554 = CARTESIAN_POINT('',(-60.000000000,32.000000000,30.000000000));
#555 = CARTESIAN_POINT('',(-60.000000000,32.391547870,32.472135955));
#556 = CARTESIAN_POINT('',(-60.000000000,33.527864045,34.702282018));
#557 = CARTESIAN_POINT('',(-60.000000000,35.297717982,36.472135955));
#558 = CARTESIAN_POINT('',(-60.000000000,37.527864045,37.608452130));
#559 = CARTESIAN_POINT('',(-60.000000000,40.000000000,38.000000000));
#560 = CARTESIAN_POINT('',(-60.000000000,42.472135955,37.608452130));
#561 = CARTESIAN_POINT('',(-60.000000000,44.702282018,36.472135955));
#562 = CARTESIAN_POINT('',(-60.000000000,46.472135955,34.702282018));
#563 = CARTESIAN_POINT('',(-60.000000000,47.608452130,32.472135955));
#564 = CARTESIAN_POINT('',(-60.000000000,48.000000000,30.000000000));
#565 = CARTESIAN_POINT('',(-60.000000000,47.608452130,27.527864045));
#566 = CARTESIAN_POINT('',(-60.000000000,46.472135955,25.297717982));
#567 = CARTESIAN_POINT('',(-60.000000000,44.702282018,23.527864045));
#568 = CARTESIAN_POINT('',(-60.000000000,42.472135955,22.391547870));
#569 = CARTESIAN_POINT('',(-95.000000000,40.000000000,22.000000000));
#570 = CARTESIAN_POINT('',(-95.000000000,37.527864045,22.391547870));
#571 = CARTESIAN_POINT('',(-95.000000000,35.297717982,23.527864045));
#572 = CARTESIAN_POINT('',(-95.000000000,33.527864045,25.297717982));
#573 = CARTESIAN_POINT('',(-95.000000000,32.391547870,27.527864045));
#574 = CARTESIAN_POINT('',(-95.000000000,32.000000000,30.000000000));
#575 = CARTESIAN_POINT('',(-95.000000000,32.391547870,32.472135955));
#576 = CARTESIAN_POINT('',(-95.000000000,33.527864045,34.702282018));
#577 = CARTESIAN_POINT('',(-95.000000000,35.297717982,36.472135955));
#578 = CARTESIAN_POINT('',(-95.000000000,37.527864045,37.608452130));
#579 = CARTESIAN_POINT('',(-95.000000000,40.000000000,38.000000000));
#580 = CARTESIAN_POINT('',(-95.000000000,42.472135955,37.608452130));
#581 = CARTESIAN_POINT('',(-95.000000000,44.702282018,36.472135955));
#582 = CARTESIAN_POINT('',(-95.000000000,46.472135955,34.702282018));
#583 = CARTESIAN_POINT('',(-95.000000000,47.608452130,32.472135955));
#584 = CARTESIAN_POINT('',(-95.000000000,48.000000000,30.000000000));
#585 = CARTESIAN_POINT('',(-95.000000000,47.608452130,27.527864045));
#586 = CARTESIAN_POINT('',(-95.000000000,46.472135955,25.297717982));
#587 = CARTESIAN_POINT('',(-95.000000000,44.702282018,23.527864045));
#588 = CARTESIAN_POINT('',(-95.000000000,42.472135955,22.391547870));
#589 = POLY_LOOP('',(#568,#567,#566,#565,#564,#563,#562,#561,#560,#559,#558,#557,#556,#555,#554,#553,#552,#551,#550,#549));
#590 = FACE_OUTER_BOUND('',#589,.T.);
#591 = DIRECTION('',(1.000000000,0.000000000,0.000000000));
#592 = DIRECTION('',(0.000000000,0.891006524,0.453990500));
#593 = AXIS2_PLACEMENT_3D('',#568,#591,#592);
#594 = PLANE('',#593);
#595 = FACE_SURFACE('',(#590),#594,.T.);
#596 = POLY_LOOP('',(#569,#570,#571,#572,#573,#574,#575,#576,#577,#578,#579,#580,#581,#582,#583,#584,#585,#586,#587,#588));
#597 = FACE_OUTER_BOUND('',#596,.T.);
#598 = DIRECTION('',(-1.000000000,0.000000000,0.000000000));
#599 = DIRECTION('',(0.000000000,-0.987688341,0.156434465));
#600 = AXIS2_PLACEMENT_3D('',#569,#598,#599);
#601 = PLANE('',#600);
#602 = FACE_SURFACE('',(#597),#601,.T.);
#603 = POLY_LOOP('',(#549,#550,#570,#569));
#604 = FACE_OUTER_BOUND('',#603,.T.);
#605 = DIRECTION('',(0.000000000,-0.156434465,-0.987688341));
#606 = DIRECTION('',(0.000000000,-0.987688341,0.156434465));
#607 = AXIS2_PLACEMENT_3D('',#549,#605,#606);
#608 = PLANE('',#607);
#609 = FACE_SURFACE('',(#604),#608,.T.);
#610 = POLY_LOOP('',(#550,#551,#571,#570));
#611 = FACE_OUTER_BOUND('',#610,.T.);
#612 = DIRECTION('',(0.000000000,-0.453990500,-0.891006524));
#613 = DIRECTION('',(0.000000000,-0.891006524,0.453990500));
#614 = AXIS2_PLACEMENT_3D('',#550,#612,#613);
#615 = PLANE('',#614);
#616 = FACE_SURFACE('',(#611),#615,.T.);
#617 = POLY_LOOP('',(#551,#552,#572,#571));
#618 = FACE_OUTER_BOUND('',#617,.T.);
#619 = DIRECTION('',(0.000000000,-0.707106781,-0.707106781));
#620 = DIRECTION('',(0.000000000,-0.707106781,0.707106781));
#621 = AXIS2_PLACEMENT_3D('',#551,#619,#620);
#622 = PLANE('',#621);
#623 = FACE_SURFACE('',(#618),#622,.T.);
#624 = POLY_LOOP('',(#552,#553,#573,#572));
#625 = FACE_OUTER_BOUND('',#624,.T.);
#626 = DIRECTION('',(0.000000000,-0.891006524,-0.453990500));
#627 = DIRECTION('',(0.000000000,-0.453990500,0.891006524));
#628 = AXIS2_PLACEMENT_3D('',#552,#626,#627);
#629 = PLANE('',#628);
#630 = FACE_SURFACE('',(#625),#629,.T.);
#631 = POLY_LOOP('',(#553,#554,#574,#573));
#632 = FACE_OUTER_BOUND('',#631,.T.);
#633 = DIRECTION('',(0.000000000,-0.987688341,-0.156434465));
#634 = DIRECTION('',(0.000000000,-0.156434465,0.987688341));
#635 = AXIS2_PLACEMENT_3D('',#553,#633,#634);
#636 = PLANE('',#635);
#637 = FACE_SURFACE('',(#632),#636,.T.);
#638 = POLY_LOOP('',(#554,#555,#575,#574));
#639 = FACE_OUTER_BOUND('',#638,.T.);
#640 = DIRECTION('',(0.000000000,-0.987688341,0.156434465));
#641 = DIRECTION('',(0.000000000,0.156434465,0.987688341));
#642 = AXIS2_PLACEMENT_3D('',#554,#640,#641);
#643 = PLANE('',#642);
#644 = FACE_SURFACE('',(#639),#643,.T.);
#645 = POLY_LOOP('',(#555,#556,#576,#575));
#646 = FACE_OUTER_BOUND('',#645,.T.);
#647 = DIRECTION('',(0.000000000,-0.891006524,0.453990500));
#648 = DIRECTION('',(0.000000000,0.453990500,0.891006524));
#649 = AXIS2_PLACEMENT_3D('',#555,#647,#648);
#650 = PLANE('',#649);
#651 = FACE_SURFACE('',(#646),#650,.T.);
#652 = POLY_LOOP('',(#556,#557,#577,#576));
#653 = FACE_OUTER_BOUND('',#652,.T.);
#654 = DIRECTION('',(0.000000000,-0.707106781,0.707106781));
#655 = DIRECTION('',(0.000000000,0.707106781,0.707106781));
#656 = AXIS2_PLACEMENT_3D('',#556,#654,#655);
#657 = PLANE('',#656);
#658 = FACE_SURFACE('',(#653),#657,.T.);
#659 = POLY_LOOP('',(#557,#558,#578,#577));
#660 = FACE_OUTER_BOUND('',#659,.T.);
#661 = DIRECTION('',(0.000000000,-0.453990500,0.891006524));
#662 = DIRECTION('',(0.000000000,0.891006524,0.453990500));
#663 = AXIS2_PLACEMENT_3D('',#557,#661,#662);
#664 = PLANE('',#663);
#665 = FACE_SURFACE('',(#660),#664,.T.);
#666 = POLY_LOOP('',(#558,#559,#579,#578));
#667 = FACE_OUTER_BOUND('',#666,.T.);
#668 = DIRECTION('',(0.000000000,-0.156434465,0.987688341));
#669 = DIRECTION('',(0.000000000,0.987688341,0.156434465));
#670 = AXIS2_PLACEMENT_3D('',#558,#668,#669);
#671 = PLANE('',#670);
#672 = FACE_SURFACE('',(#667),#671,.T.);
#673 = POLY_LOOP('',(#559,#560,#580,#579));
#674 = FACE_OUTER_BOUND('',#673,.T.);
#675 = DIRECTION('',(0.000000000,0.156434465,0.987688341));
#676 = DIRECTION('',(0.000000000,0.987688341,-0.156434465));
#677 = AXIS2_PLACEMENT_3D('',#559,#675,#676);
#678 = PLANE('',#677);
#679 = FACE_SURFACE('',(#674),#678,.T.);
#680 = POLY_LOOP('',(#560,#561,#581,#580));
#681 = FACE_OUTER_BOUND('',#680,.T.);
#682 = DIRECTION('',(0.000000000,0.453990500,0.891006524));
#683 = DIRECTION('',(0.000000000,0.891006524,-0.453990500));
#684 = AXIS2_PLACEMENT_3D('',#560,#682,#683);
#685 = PLANE('',#684);
#686 = FACE_SURFACE('',(#681),#685,.T.);
#687 = POLY_LOOP('',(#561,#562,#582,#581));
#688 = FACE_OUTER_BOUND('',#687,.T.);
#689 = DIRECTION('',(0.000000000,0.707106781,0.707106781));
#690 = DIRECTION('',(0.000000000,0.707106781,-0.707106781));
#691 = AXIS2_PLACEMENT_3D('',#561,#689,#690);
#692 = PLANE('',#691);
#693 = FACE_SURFACE('',(#688),#692,.T.);
#694 = POLY_LOOP('',(#562,#563,#583,#582));
#695 = FACE_OUTER_BOUND('',#694,.T.);
#696 = DIRECTION('',(0.000000000,0.891006524,0.453990500));
#697 = DIRECTION('',(0.000000000,0.453990500,-0.891006524));
#698 = AXIS2_PLACEMENT_3D('',#562,#696,#697);
#699 = PLANE('',#698);
#700 = FACE_SURFACE('',(#695),#699,.T.);
#701 = POLY_LOOP('',(#563,#564,#584,#583));
#702 = FACE_OUTER_BOUND('',#701,.T.);
#703 = DIRECTION('',(0.000000000,0.987688341,0.156434465));
#704 = DIRECTION('',(0.000000000,0.156434465,-0.987688341));
#705 = AXIS2_PLACEMENT_3D('',#563,#703,#704);
#706 = PLANE('',#705);
#707 = FACE_SURFACE('',(#702),#706,.T.);
#708 = POLY_LOOP('',(#564,#565,#585,#584));
#709 = FACE_OUTER_BOUND('',#708,.T.);
#710 = DIRECTION('',(0.000000000,0.987688341,-0.156434465));
#711 = DIRECTION('',(0.000000000,-0.156434465,-0.987688341));
#712 = AXIS2_PLACEMENT_3D('',#564,#710,#711);
#713 = PLANE('',#712);
#714 = FACE_SURFACE('',(#709),#713,.T.);
#715 = POLY_LOOP('',(#565,#566,#586,#585));
#716 = FACE_OUTER_BOUND('',#715,.T.);
#717 = DIRECTION('',(0.000000000,0.891006524,-0.453990500));
#718 = DIRECTION('',(0.000000000,-0.453990500,-0.891006524));
#719 = AXIS2_PLACEMENT_3D('',#565,#717,#718);
#720 = PLANE('',#719);
#721 = FACE_SURFACE('',(#716),#720,.T.);
#722 = POLY_LOOP('',(#566,#567,#587,#586));
#723 = FACE_OUTER_BOUND('',#722,.T.);
#724 = DIRECTION('',(0.000000000,0.707106781,-0.707106781));
#725 = DIRECTION('',(0.000000000,-0.707106781,-0.707106781));
#726 = AXIS2_PLACEMENT_3D('',#566,#724,#725);
#727 = PLANE('',#726);
#728 = FACE_SURFACE('',(#723),#727,.T.);
#729 = POLY_LOOP('',(#567,#568,#588,#587));
#730 = FACE_OUTER_BOUND('',#729,.T.);
#731 = DIRECTION('',(0.000000000,0.453990500,-0.891006524));
#732 = DIRECTION('',(0.000000000,-0.891006524,-0.453990500));
#733 = AXIS2_PLACEMENT_3D('',#567,#731,#732);
#734 = PLANE('',#733);
#735 = FACE_SURFACE('',(#730),#734,.T.);
#736 = POLY_LOOP('',(#568,#549,#569,#588));
#737 = FACE_OUTER_BOUND('',#736,.T.);
#738 = DIRECTION('',(0.000000000,0.156434465,-0.987688341));
#739 = DIRECTION('',(0.000000000,-0.987688341,-0.156434465));
#740 = AXIS2_PLACEMENT_3D('',#568,#738,#739);
#741 = PLANE('',#740);
#742 = FACE_SURFACE('',(#737),#741,.T.);
#743 = CLOSED_SHELL('',(#595,#602,#609,#616,#623,#630,#637,#644,#651,#658,#665,#672,#679,#686,#693,#700,#707,#714,#721,#728,#735,#742));
#744 = FACETED_BREP('black micrometer',#743);
#745 = APPLICATION_CONTEXT('configuration controlled 3d designs of mechanical parts and assemblies');
#746 = APPLICATION_PROTOCOL_DEFINITION('international standard','config_control_design',1994,#745);
#747 = PRODUCT_CONTEXT('',#745,'mechanical');
#748 = PRODUCT('REF','Illustrative reference','NOT vendor CAD',(#747));
#749 = PRODUCT_DEFINITION_FORMATION_WITH_SPECIFIED_SOURCE('','',#748,.NOT_KNOWN.);
#750 = PRODUCT_DEFINITION_CONTEXT('part definition',#745,'design');
#751 = PRODUCT_DEFINITION('design','',#749,#750);
#752 = PRODUCT_DEFINITION_SHAPE('','',#751);
#753 = (LENGTH_UNIT()NAMED_UNIT(*)SI_UNIT(.MILLI.,.METRE.));
#754 = (NAMED_UNIT(*)PLANE_ANGLE_UNIT()SI_UNIT($,.RADIAN.));
#755 = (NAMED_UNIT(*)SI_UNIT($,.STERADIAN.)SOLID_ANGLE_UNIT());
#756 = UNCERTAINTY_MEASURE_WITH_UNIT(LENGTH_MEASURE(0.000001),#753,'distance_accuracy_value','');
#757 = (GEOMETRIC_REPRESENTATION_CONTEXT(3)GLOBAL_UNCERTAINTY_ASSIGNED_CONTEXT((#756))GLOBAL_UNIT_ASSIGNED_CONTEXT((#753,#754,#755))REPRESENTATION_CONTEXT('',''));
#758 = FACETED_BREP_SHAPE_REPRESENTATION('Illustrative reference',(#52,#104,#156,#352,#548,#744),#757);
#759 = SHAPE_DEFINITION_REPRESENTATION(#752,#758);
ENDSEC;
END-ISO-10303-21;
