ISO-10303-21;
HEADER;
FILE_DESCRIPTION(('Illustrative CAD - NOT vendor dimensions'),'2;1');
FILE_NAME('reference.step','2026-10-07',('CORNERSTONE'),(''),'reference generator','','');
FILE_SCHEMA(('CONFIG_CONTROL_DESIGN'));
ENDSEC;
DATA;
#1 = CARTESIAN_POINT('',(-135.000000000,0.000000000,-100.000000000));
#2 = CARTESIAN_POINT('',(135.000000000,0.000000000,-100.000000000));
#3 = CARTESIAN_POINT('',(135.000000000,80.000000000,-100.000000000));
#4 = CARTESIAN_POINT('',(-135.000000000,80.000000000,-100.000000000));
#5 = CARTESIAN_POINT('',(-135.000000000,0.000000000,100.000000000));
#6 = CARTESIAN_POINT('',(135.000000000,0.000000000,100.000000000));
#7 = CARTESIAN_POINT('',(135.000000000,80.000000000,100.000000000));
#8 = CARTESIAN_POINT('',(-135.000000000,80.000000000,100.000000000));
#9 = POLY_LOOP('',(#1,#4,#3,#2));
#10 = FACE_OUTER_BOUND('',#9,.T.);
#11 = DIRECTION('',(0.000000000,0.000000000,-1.000000000));
#12 = DIRECTION('',(0.000000000,1.000000000,0.000000000));
#13 = AXIS2_PLACEMENT_3D('',#1,#11,#12);
#14 = PLANE('',#13);
#15 = FACE_SURFACE('',(#10),#14,.T.);
#16 = POLY_LOOP('',(#5,#6,#7,#8));
#17 = FACE_OUTER_BOUND('',#16,.T.);
#18 = DIRECTION('',(0.000000000,0.000000000,1.000000000));
#19 = DIRECTION('',(1.000000000,0.000000000,0.000000000));
#20 = AXIS2_PLACEMENT_3D('',#5,#18,#19);
#21 = PLANE('',#20);
#22 = FACE_SURFACE('',(#17),#21,.T.);
#23 = POLY_LOOP('',(#1,#2,#6,#5));
#24 = FACE_OUTER_BOUND('',#23,.T.);
#25 = DIRECTION('',(0.000000000,-1.000000000,0.000000000));
#26 = DIRECTION('',(1.000000000,0.000000000,0.000000000));
#27 = AXIS2_PLACEMENT_3D('',#1,#25,#26);
#28 = PLANE('',#27);
#29 = FACE_SURFACE('',(#24),#28,.T.);
#30 = POLY_LOOP('',(#2,#3,#7,#6));
#31 = FACE_OUTER_BOUND('',#30,.T.);
#32 = DIRECTION('',(1.000000000,0.000000000,0.000000000));
#33 = DIRECTION('',(0.000000000,1.000000000,0.000000000));
#34 = AXIS2_PLACEMENT_3D('',#2,#32,#33);
#35 = PLANE('',#34);
#36 = FACE_SURFACE('',(#31),#35,.T.);
#37 = POLY_LOOP('',(#3,#4,#8,#7));
#38 = FACE_OUTER_BOUND('',#37,.T.);
#39 = DIRECTION('',(0.000000000,1.000000000,0.000000000));
#40 = DIRECTION('',(-1.000000000,0.000000000,0.000000000));
#41 = AXIS2_PLACEMENT_3D('',#3,#39,#40);
#42 = PLANE('',#41);
#43 = FACE_SURFACE('',(#38),#42,.T.);
#44 = POLY_LOOP('',(#4,#1,#5,#8));
#45 = FACE_OUTER_BOUND('',#44,.T.);
#46 = DIRECTION('',(-1.000000000,0.000000000,0.000000000));
#47 = DIRECTION('',(0.000000000,-1.000000000,0.000000000));
#48 = AXIS2_PLACEMENT_3D('',#4,#46,#47);
#49 = PLANE('',#48);
#50 = FACE_SURFACE('',(#45),#49,.T.);
#51 = CLOSED_SHELL('',(#15,#22,#29,#36,#43,#50));
#52 = FACETED_BREP('silver controller enclosure',#51);
#53 = CARTESIAN_POINT('',(-108.000000000,35.000000000,-103.000000000));
#54 = CARTESIAN_POINT('',(-23.000000000,35.000000000,-103.000000000));
#55 = CARTESIAN_POINT('',(-23.000000000,62.000000000,-103.000000000));
#56 = CARTESIAN_POINT('',(-108.000000000,62.000000000,-103.000000000));
#57 = CARTESIAN_POINT('',(-108.000000000,35.000000000,-101.000000000));
#58 = CARTESIAN_POINT('',(-23.000000000,35.000000000,-101.000000000));
#59 = CARTESIAN_POINT('',(-23.000000000,62.000000000,-101.000000000));
#60 = CARTESIAN_POINT('',(-108.000000000,62.000000000,-101.000000000));
#61 = POLY_LOOP('',(#53,#56,#55,#54));
#62 = FACE_OUTER_BOUND('',#61,.T.);
#63 = DIRECTION('',(0.000000000,0.000000000,-1.000000000));
#64 = DIRECTION('',(0.000000000,1.000000000,0.000000000));
#65 = AXIS2_PLACEMENT_3D('',#53,#63,#64);
#66 = PLANE('',#65);
#67 = FACE_SURFACE('',(#62),#66,.T.);
#68 = POLY_LOOP('',(#57,#58,#59,#60));
#69 = FACE_OUTER_BOUND('',#68,.T.);
#70 = DIRECTION('',(0.000000000,0.000000000,1.000000000));
#71 = DIRECTION('',(1.000000000,0.000000000,0.000000000));
#72 = AXIS2_PLACEMENT_3D('',#57,#70,#71);
#73 = PLANE('',#72);
#74 = FACE_SURFACE('',(#69),#73,.T.);
#75 = POLY_LOOP('',(#53,#54,#58,#57));
#76 = FACE_OUTER_BOUND('',#75,.T.);
#77 = DIRECTION('',(0.000000000,-1.000000000,0.000000000));
#78 = DIRECTION('',(1.000000000,0.000000000,0.000000000));
#79 = AXIS2_PLACEMENT_3D('',#53,#77,#78);
#80 = PLANE('',#79);
#81 = FACE_SURFACE('',(#76),#80,.T.);
#82 = POLY_LOOP('',(#54,#55,#59,#58));
#83 = FACE_OUTER_BOUND('',#82,.T.);
#84 = DIRECTION('',(1.000000000,0.000000000,0.000000000));
#85 = DIRECTION('',(0.000000000,1.000000000,0.000000000));
#86 = AXIS2_PLACEMENT_3D('',#54,#84,#85);
#87 = PLANE('',#86);
#88 = FACE_SURFACE('',(#83),#87,.T.);
#89 = POLY_LOOP('',(#55,#56,#60,#59));
#90 = FACE_OUTER_BOUND('',#89,.T.);
#91 = DIRECTION('',(0.000000000,1.000000000,0.000000000));
#92 = DIRECTION('',(-1.000000000,0.000000000,0.000000000));
#93 = AXIS2_PLACEMENT_3D('',#55,#91,#92);
#94 = PLANE('',#93);
#95 = FACE_SURFACE('',(#90),#94,.T.);
#96 = POLY_LOOP('',(#56,#53,#57,#60));
#97 = FACE_OUTER_BOUND('',#96,.T.);
#98 = DIRECTION('',(-1.000000000,0.000000000,0.000000000));
#99 = DIRECTION('',(0.000000000,-1.000000000,0.000000000));
#100 = AXIS2_PLACEMENT_3D('',#56,#98,#99);
#101 = PLANE('',#100);
#102 = FACE_SURFACE('',(#97),#101,.T.);
#103 = CLOSED_SHELL('',(#67,#74,#81,#88,#95,#102));
#104 = FACETED_BREP('black display',#103);
#105 = CARTESIAN_POINT('',(35.000000000,35.000000000,-100.000000000));
#106 = CARTESIAN_POINT('',(34.510565163,31.909830056,-100.000000000));
#107 = CARTESIAN_POINT('',(33.090169944,29.122147477,-100.000000000));
#108 = CARTESIAN_POINT('',(30.877852523,26.909830056,-100.000000000));
#109 = CARTESIAN_POINT('',(28.090169944,25.489434837,-100.000000000));
#110 = CARTESIAN_POINT('',(25.000000000,25.000000000,-100.000000000));
#111 = CARTESIAN_POINT('',(21.909830056,25.489434837,-100.000000000));
#112 = CARTESIAN_POINT('',(19.122147477,26.909830056,-100.000000000));
#113 = CARTESIAN_POINT('',(16.909830056,29.122147477,-100.000000000));
#114 = CARTESIAN_POINT('',(15.489434837,31.909830056,-100.000000000));
#115 = CARTESIAN_POINT('',(15.000000000,35.000000000,-100.000000000));
#116 = CARTESIAN_POINT('',(15.489434837,38.090169944,-100.000000000));
#117 = CARTESIAN_POINT('',(16.909830056,40.877852523,-100.000000000));
#118 = CARTESIAN_POINT('',(19.122147477,43.090169944,-100.000000000));
#119 = CARTESIAN_POINT('',(21.909830056,44.510565163,-100.000000000));
#120 = CARTESIAN_POINT('',(25.000000000,45.000000000,-100.000000000));
#121 = CARTESIAN_POINT('',(28.090169944,44.510565163,-100.000000000));
#122 = CARTESIAN_POINT('',(30.877852523,43.090169944,-100.000000000));
#123 = CARTESIAN_POINT('',(33.090169944,40.877852523,-100.000000000));
#124 = CARTESIAN_POINT('',(34.510565163,38.090169944,-100.000000000));
#125 = CARTESIAN_POINT('',(35.000000000,35.000000000,-115.000000000));
#126 = CARTESIAN_POINT('',(34.510565163,31.909830056,-115.000000000));
#127 = CARTESIAN_POINT('',(33.090169944,29.122147477,-115.000000000));
#128 = CARTESIAN_POINT('',(30.877852523,26.909830056,-115.000000000));
#129 = CARTESIAN_POINT('',(28.090169944,25.489434837,-115.000000000));
#130 = CARTESIAN_POINT('',(25.000000000,25.000000000,-115.000000000));
#131 = CARTESIAN_POINT('',(21.909830056,25.489434837,-115.000000000));
#132 = CARTESIAN_POINT('',(19.122147477,26.909830056,-115.000000000));
#133 = CARTESIAN_POINT('',(16.909830056,29.122147477,-115.000000000));
#134 = CARTESIAN_POINT('',(15.489434837,31.909830056,-115.000000000));
#135 = CARTESIAN_POINT('',(15.000000000,35.000000000,-115.000000000));
#136 = CARTESIAN_POINT('',(15.489434837,38.090169944,-115.000000000));
#137 = CARTESIAN_POINT('',(16.909830056,40.877852523,-115.000000000));
#138 = CARTESIAN_POINT('',(19.122147477,43.090169944,-115.000000000));
#139 = CARTESIAN_POINT('',(21.909830056,44.510565163,-115.000000000));
#140 = CARTESIAN_POINT('',(25.000000000,45.000000000,-115.000000000));
#141 = CARTESIAN_POINT('',(28.090169944,44.510565163,-115.000000000));
#142 = CARTESIAN_POINT('',(30.877852523,43.090169944,-115.000000000));
#143 = CARTESIAN_POINT('',(33.090169944,40.877852523,-115.000000000));
#144 = CARTESIAN_POINT('',(34.510565163,38.090169944,-115.000000000));
#145 = POLY_LOOP('',(#124,#123,#122,#121,#120,#119,#118,#117,#116,#115,#114,#113,#112,#111,#110,#109,#108,#107,#106,#105));
#146 = FACE_OUTER_BOUND('',#145,.T.);
#147 = DIRECTION('',(0.000000000,0.000000000,1.000000000));
#148 = DIRECTION('',(-0.453990500,0.891006524,0.000000000));
#149 = AXIS2_PLACEMENT_3D('',#124,#147,#148);
#150 = PLANE('',#149);
#151 = FACE_SURFACE('',(#146),#150,.T.);
#152 = POLY_LOOP('',(#125,#126,#127,#128,#129,#130,#131,#132,#133,#134,#135,#136,#137,#138,#139,#140,#141,#142,#143,#144));
#153 = FACE_OUTER_BOUND('',#152,.T.);
#154 = DIRECTION('',(0.000000000,0.000000000,-1.000000000));
#155 = DIRECTION('',(-0.156434465,-0.987688341,0.000000000));
#156 = AXIS2_PLACEMENT_3D('',#125,#154,#155);
#157 = PLANE('',#156);
#158 = FACE_SURFACE('',(#153),#157,.T.);
#159 = POLY_LOOP('',(#105,#106,#126,#125));
#160 = FACE_OUTER_BOUND('',#159,.T.);
#161 = DIRECTION('',(0.987688341,-0.156434465,0.000000000));
#162 = DIRECTION('',(-0.156434465,-0.987688341,0.000000000));
#163 = AXIS2_PLACEMENT_3D('',#105,#161,#162);
#164 = PLANE('',#163);
#165 = FACE_SURFACE('',(#160),#164,.T.);
#166 = POLY_LOOP('',(#106,#107,#127,#126));
#167 = FACE_OUTER_BOUND('',#166,.T.);
#168 = DIRECTION('',(0.891006524,-0.453990500,0.000000000));
#169 = DIRECTION('',(-0.453990500,-0.891006524,0.000000000));
#170 = AXIS2_PLACEMENT_3D('',#106,#168,#169);
#171 = PLANE('',#170);
#172 = FACE_SURFACE('',(#167),#171,.T.);
#173 = POLY_LOOP('',(#107,#108,#128,#127));
#174 = FACE_OUTER_BOUND('',#173,.T.);
#175 = DIRECTION('',(0.707106781,-0.707106781,0.000000000));
#176 = DIRECTION('',(-0.707106781,-0.707106781,0.000000000));
#177 = AXIS2_PLACEMENT_3D('',#107,#175,#176);
#178 = PLANE('',#177);
#179 = FACE_SURFACE('',(#174),#178,.T.);
#180 = POLY_LOOP('',(#108,#109,#129,#128));
#181 = FACE_OUTER_BOUND('',#180,.T.);
#182 = DIRECTION('',(0.453990500,-0.891006524,0.000000000));
#183 = DIRECTION('',(-0.891006524,-0.453990500,0.000000000));
#184 = AXIS2_PLACEMENT_3D('',#108,#182,#183);
#185 = PLANE('',#184);
#186 = FACE_SURFACE('',(#181),#185,.T.);
#187 = POLY_LOOP('',(#109,#110,#130,#129));
#188 = FACE_OUTER_BOUND('',#187,.T.);
#189 = DIRECTION('',(0.156434465,-0.987688341,0.000000000));
#190 = DIRECTION('',(-0.987688341,-0.156434465,0.000000000));
#191 = AXIS2_PLACEMENT_3D('',#109,#189,#190);
#192 = PLANE('',#191);
#193 = FACE_SURFACE('',(#188),#192,.T.);
#194 = POLY_LOOP('',(#110,#111,#131,#130));
#195 = FACE_OUTER_BOUND('',#194,.T.);
#196 = DIRECTION('',(-0.156434465,-0.987688341,0.000000000));
#197 = DIRECTION('',(-0.987688341,0.156434465,0.000000000));
#198 = AXIS2_PLACEMENT_3D('',#110,#196,#197);
#199 = PLANE('',#198);
#200 = FACE_SURFACE('',(#195),#199,.T.);
#201 = POLY_LOOP('',(#111,#112,#132,#131));
#202 = FACE_OUTER_BOUND('',#201,.T.);
#203 = DIRECTION('',(-0.453990500,-0.891006524,0.000000000));
#204 = DIRECTION('',(-0.891006524,0.453990500,0.000000000));
#205 = AXIS2_PLACEMENT_3D('',#111,#203,#204);
#206 = PLANE('',#205);
#207 = FACE_SURFACE('',(#202),#206,.T.);
#208 = POLY_LOOP('',(#112,#113,#133,#132));
#209 = FACE_OUTER_BOUND('',#208,.T.);
#210 = DIRECTION('',(-0.707106781,-0.707106781,0.000000000));
#211 = DIRECTION('',(-0.707106781,0.707106781,0.000000000));
#212 = AXIS2_PLACEMENT_3D('',#112,#210,#211);
#213 = PLANE('',#212);
#214 = FACE_SURFACE('',(#209),#213,.T.);
#215 = POLY_LOOP('',(#113,#114,#134,#133));
#216 = FACE_OUTER_BOUND('',#215,.T.);
#217 = DIRECTION('',(-0.891006524,-0.453990500,0.000000000));
#218 = DIRECTION('',(-0.453990500,0.891006524,0.000000000));
#219 = AXIS2_PLACEMENT_3D('',#113,#217,#218);
#220 = PLANE('',#219);
#221 = FACE_SURFACE('',(#216),#220,.T.);
#222 = POLY_LOOP('',(#114,#115,#135,#134));
#223 = FACE_OUTER_BOUND('',#222,.T.);
#224 = DIRECTION('',(-0.987688341,-0.156434465,0.000000000));
#225 = DIRECTION('',(-0.156434465,0.987688341,0.000000000));
#226 = AXIS2_PLACEMENT_3D('',#114,#224,#225);
#227 = PLANE('',#226);
#228 = FACE_SURFACE('',(#223),#227,.T.);
#229 = POLY_LOOP('',(#115,#116,#136,#135));
#230 = FACE_OUTER_BOUND('',#229,.T.);
#231 = DIRECTION('',(-0.987688341,0.156434465,0.000000000));
#232 = DIRECTION('',(0.156434465,0.987688341,0.000000000));
#233 = AXIS2_PLACEMENT_3D('',#115,#231,#232);
#234 = PLANE('',#233);
#235 = FACE_SURFACE('',(#230),#234,.T.);
#236 = POLY_LOOP('',(#116,#117,#137,#136));
#237 = FACE_OUTER_BOUND('',#236,.T.);
#238 = DIRECTION('',(-0.891006524,0.453990500,0.000000000));
#239 = DIRECTION('',(0.453990500,0.891006524,0.000000000));
#240 = AXIS2_PLACEMENT_3D('',#116,#238,#239);
#241 = PLANE('',#240);
#242 = FACE_SURFACE('',(#237),#241,.T.);
#243 = POLY_LOOP('',(#117,#118,#138,#137));
#244 = FACE_OUTER_BOUND('',#243,.T.);
#245 = DIRECTION('',(-0.707106781,0.707106781,0.000000000));
#246 = DIRECTION('',(0.707106781,0.707106781,0.000000000));
#247 = AXIS2_PLACEMENT_3D('',#117,#245,#246);
#248 = PLANE('',#247);
#249 = FACE_SURFACE('',(#244),#248,.T.);
#250 = POLY_LOOP('',(#118,#119,#139,#138));
#251 = FACE_OUTER_BOUND('',#250,.T.);
#252 = DIRECTION('',(-0.453990500,0.891006524,0.000000000));
#253 = DIRECTION('',(0.891006524,0.453990500,0.000000000));
#254 = AXIS2_PLACEMENT_3D('',#118,#252,#253);
#255 = PLANE('',#254);
#256 = FACE_SURFACE('',(#251),#255,.T.);
#257 = POLY_LOOP('',(#119,#120,#140,#139));
#258 = FACE_OUTER_BOUND('',#257,.T.);
#259 = DIRECTION('',(-0.156434465,0.987688341,0.000000000));
#260 = DIRECTION('',(0.987688341,0.156434465,0.000000000));
#261 = AXIS2_PLACEMENT_3D('',#119,#259,#260);
#262 = PLANE('',#261);
#263 = FACE_SURFACE('',(#258),#262,.T.);
#264 = POLY_LOOP('',(#120,#121,#141,#140));
#265 = FACE_OUTER_BOUND('',#264,.T.);
#266 = DIRECTION('',(0.156434465,0.987688341,0.000000000));
#267 = DIRECTION('',(0.987688341,-0.156434465,0.000000000));
#268 = AXIS2_PLACEMENT_3D('',#120,#266,#267);
#269 = PLANE('',#268);
#270 = FACE_SURFACE('',(#265),#269,.T.);
#271 = POLY_LOOP('',(#121,#122,#142,#141));
#272 = FACE_OUTER_BOUND('',#271,.T.);
#273 = DIRECTION('',(0.453990500,0.891006524,0.000000000));
#274 = DIRECTION('',(0.891006524,-0.453990500,0.000000000));
#275 = AXIS2_PLACEMENT_3D('',#121,#273,#274);
#276 = PLANE('',#275);
#277 = FACE_SURFACE('',(#272),#276,.T.);
#278 = POLY_LOOP('',(#122,#123,#143,#142));
#279 = FACE_OUTER_BOUND('',#278,.T.);
#280 = DIRECTION('',(0.707106781,0.707106781,0.000000000));
#281 = DIRECTION('',(0.707106781,-0.707106781,0.000000000));
#282 = AXIS2_PLACEMENT_3D('',#122,#280,#281);
#283 = PLANE('',#282);
#284 = FACE_SURFACE('',(#279),#283,.T.);
#285 = POLY_LOOP('',(#123,#124,#144,#143));
#286 = FACE_OUTER_BOUND('',#285,.T.);
#287 = DIRECTION('',(0.891006524,0.453990500,0.000000000));
#288 = DIRECTION('',(0.453990500,-0.891006524,0.000000000));
#289 = AXIS2_PLACEMENT_3D('',#123,#287,#288);
#290 = PLANE('',#289);
#291 = FACE_SURFACE('',(#286),#290,.T.);
#292 = POLY_LOOP('',(#124,#105,#125,#144));
#293 = FACE_OUTER_BOUND('',#292,.T.);
#294 = DIRECTION('',(0.987688341,0.156434465,0.000000000));
#295 = DIRECTION('',(0.156434465,-0.987688341,0.000000000));
#296 = AXIS2_PLACEMENT_3D('',#124,#294,#295);
#297 = PLANE('',#296);
#298 = FACE_SURFACE('',(#293),#297,.T.);
#299 = CLOSED_SHELL('',(#151,#158,#165,#172,#179,#186,#193,#200,#207,#214,#221,#228,#235,#242,#249,#256,#263,#270,#277,#284,#291,#298));
#300 = FACETED_BREP('silver control knob',#299);
#301 = CARTESIAN_POINT('',(90.000000000,35.000000000,-100.000000000));
#302 = CARTESIAN_POINT('',(89.510565163,31.909830056,-100.000000000));
#303 = CARTESIAN_POINT('',(88.090169944,29.122147477,-100.000000000));
#304 = CARTESIAN_POINT('',(85.877852523,26.909830056,-100.000000000));
#305 = CARTESIAN_POINT('',(83.090169944,25.489434837,-100.000000000));
#306 = CARTESIAN_POINT('',(80.000000000,25.000000000,-100.000000000));
#307 = CARTESIAN_POINT('',(76.909830056,25.489434837,-100.000000000));
#308 = CARTESIAN_POINT('',(74.122147477,26.909830056,-100.000000000));
#309 = CARTESIAN_POINT('',(71.909830056,29.122147477,-100.000000000));
#310 = CARTESIAN_POINT('',(70.489434837,31.909830056,-100.000000000));
#311 = CARTESIAN_POINT('',(70.000000000,35.000000000,-100.000000000));
#312 = CARTESIAN_POINT('',(70.489434837,38.090169944,-100.000000000));
#313 = CARTESIAN_POINT('',(71.909830056,40.877852523,-100.000000000));
#314 = CARTESIAN_POINT('',(74.122147477,43.090169944,-100.000000000));
#315 = CARTESIAN_POINT('',(76.909830056,44.510565163,-100.000000000));
#316 = CARTESIAN_POINT('',(80.000000000,45.000000000,-100.000000000));
#317 = CARTESIAN_POINT('',(83.090169944,44.510565163,-100.000000000));
#318 = CARTESIAN_POINT('',(85.877852523,43.090169944,-100.000000000));
#319 = CARTESIAN_POINT('',(88.090169944,40.877852523,-100.000000000));
#320 = CARTESIAN_POINT('',(89.510565163,38.090169944,-100.000000000));
#321 = CARTESIAN_POINT('',(90.000000000,35.000000000,-115.000000000));
#322 = CARTESIAN_POINT('',(89.510565163,31.909830056,-115.000000000));
#323 = CARTESIAN_POINT('',(88.090169944,29.122147477,-115.000000000));
#324 = CARTESIAN_POINT('',(85.877852523,26.909830056,-115.000000000));
#325 = CARTESIAN_POINT('',(83.090169944,25.489434837,-115.000000000));
#326 = CARTESIAN_POINT('',(80.000000000,25.000000000,-115.000000000));
#327 = CARTESIAN_POINT('',(76.909830056,25.489434837,-115.000000000));
#328 = CARTESIAN_POINT('',(74.122147477,26.909830056,-115.000000000));
#329 = CARTESIAN_POINT('',(71.909830056,29.122147477,-115.000000000));
#330 = CARTESIAN_POINT('',(70.489434837,31.909830056,-115.000000000));
#331 = CARTESIAN_POINT('',(70.000000000,35.000000000,-115.000000000));
#332 = CARTESIAN_POINT('',(70.489434837,38.090169944,-115.000000000));
#333 = CARTESIAN_POINT('',(71.909830056,40.877852523,-115.000000000));
#334 = CARTESIAN_POINT('',(74.122147477,43.090169944,-115.000000000));
#335 = CARTESIAN_POINT('',(76.909830056,44.510565163,-115.000000000));
#336 = CARTESIAN_POINT('',(80.000000000,45.000000000,-115.000000000));
#337 = CARTESIAN_POINT('',(83.090169944,44.510565163,-115.000000000));
#338 = CARTESIAN_POINT('',(85.877852523,43.090169944,-115.000000000));
#339 = CARTESIAN_POINT('',(88.090169944,40.877852523,-115.000000000));
#340 = CARTESIAN_POINT('',(89.510565163,38.090169944,-115.000000000));
#341 = POLY_LOOP('',(#320,#319,#318,#317,#316,#315,#314,#313,#312,#311,#310,#309,#308,#307,#306,#305,#304,#303,#302,#301));
#342 = FACE_OUTER_BOUND('',#341,.T.);
#343 = DIRECTION('',(0.000000000,0.000000000,1.000000000));
#344 = DIRECTION('',(-0.453990500,0.891006524,0.000000000));
#345 = AXIS2_PLACEMENT_3D('',#320,#343,#344);
#346 = PLANE('',#345);
#347 = FACE_SURFACE('',(#342),#346,.T.);
#348 = POLY_LOOP('',(#321,#322,#323,#324,#325,#326,#327,#328,#329,#330,#331,#332,#333,#334,#335,#336,#337,#338,#339,#340));
#349 = FACE_OUTER_BOUND('',#348,.T.);
#350 = DIRECTION('',(0.000000000,0.000000000,-1.000000000));
#351 = DIRECTION('',(-0.156434465,-0.987688341,0.000000000));
#352 = AXIS2_PLACEMENT_3D('',#321,#350,#351);
#353 = PLANE('',#352);
#354 = FACE_SURFACE('',(#349),#353,.T.);
#355 = POLY_LOOP('',(#301,#302,#322,#321));
#356 = FACE_OUTER_BOUND('',#355,.T.);
#357 = DIRECTION('',(0.987688341,-0.156434465,0.000000000));
#358 = DIRECTION('',(-0.156434465,-0.987688341,0.000000000));
#359 = AXIS2_PLACEMENT_3D('',#301,#357,#358);
#360 = PLANE('',#359);
#361 = FACE_SURFACE('',(#356),#360,.T.);
#362 = POLY_LOOP('',(#302,#303,#323,#322));
#363 = FACE_OUTER_BOUND('',#362,.T.);
#364 = DIRECTION('',(0.891006524,-0.453990500,0.000000000));
#365 = DIRECTION('',(-0.453990500,-0.891006524,0.000000000));
#366 = AXIS2_PLACEMENT_3D('',#302,#364,#365);
#367 = PLANE('',#366);
#368 = FACE_SURFACE('',(#363),#367,.T.);
#369 = POLY_LOOP('',(#303,#304,#324,#323));
#370 = FACE_OUTER_BOUND('',#369,.T.);
#371 = DIRECTION('',(0.707106781,-0.707106781,0.000000000));
#372 = DIRECTION('',(-0.707106781,-0.707106781,0.000000000));
#373 = AXIS2_PLACEMENT_3D('',#303,#371,#372);
#374 = PLANE('',#373);
#375 = FACE_SURFACE('',(#370),#374,.T.);
#376 = POLY_LOOP('',(#304,#305,#325,#324));
#377 = FACE_OUTER_BOUND('',#376,.T.);
#378 = DIRECTION('',(0.453990500,-0.891006524,0.000000000));
#379 = DIRECTION('',(-0.891006524,-0.453990500,0.000000000));
#380 = AXIS2_PLACEMENT_3D('',#304,#378,#379);
#381 = PLANE('',#380);
#382 = FACE_SURFACE('',(#377),#381,.T.);
#383 = POLY_LOOP('',(#305,#306,#326,#325));
#384 = FACE_OUTER_BOUND('',#383,.T.);
#385 = DIRECTION('',(0.156434465,-0.987688341,0.000000000));
#386 = DIRECTION('',(-0.987688341,-0.156434465,0.000000000));
#387 = AXIS2_PLACEMENT_3D('',#305,#385,#386);
#388 = PLANE('',#387);
#389 = FACE_SURFACE('',(#384),#388,.T.);
#390 = POLY_LOOP('',(#306,#307,#327,#326));
#391 = FACE_OUTER_BOUND('',#390,.T.);
#392 = DIRECTION('',(-0.156434465,-0.987688341,0.000000000));
#393 = DIRECTION('',(-0.987688341,0.156434465,0.000000000));
#394 = AXIS2_PLACEMENT_3D('',#306,#392,#393);
#395 = PLANE('',#394);
#396 = FACE_SURFACE('',(#391),#395,.T.);
#397 = POLY_LOOP('',(#307,#308,#328,#327));
#398 = FACE_OUTER_BOUND('',#397,.T.);
#399 = DIRECTION('',(-0.453990500,-0.891006524,0.000000000));
#400 = DIRECTION('',(-0.891006524,0.453990500,0.000000000));
#401 = AXIS2_PLACEMENT_3D('',#307,#399,#400);
#402 = PLANE('',#401);
#403 = FACE_SURFACE('',(#398),#402,.T.);
#404 = POLY_LOOP('',(#308,#309,#329,#328));
#405 = FACE_OUTER_BOUND('',#404,.T.);
#406 = DIRECTION('',(-0.707106781,-0.707106781,0.000000000));
#407 = DIRECTION('',(-0.707106781,0.707106781,0.000000000));
#408 = AXIS2_PLACEMENT_3D('',#308,#406,#407);
#409 = PLANE('',#408);
#410 = FACE_SURFACE('',(#405),#409,.T.);
#411 = POLY_LOOP('',(#309,#310,#330,#329));
#412 = FACE_OUTER_BOUND('',#411,.T.);
#413 = DIRECTION('',(-0.891006524,-0.453990500,0.000000000));
#414 = DIRECTION('',(-0.453990500,0.891006524,0.000000000));
#415 = AXIS2_PLACEMENT_3D('',#309,#413,#414);
#416 = PLANE('',#415);
#417 = FACE_SURFACE('',(#412),#416,.T.);
#418 = POLY_LOOP('',(#310,#311,#331,#330));
#419 = FACE_OUTER_BOUND('',#418,.T.);
#420 = DIRECTION('',(-0.987688341,-0.156434465,0.000000000));
#421 = DIRECTION('',(-0.156434465,0.987688341,0.000000000));
#422 = AXIS2_PLACEMENT_3D('',#310,#420,#421);
#423 = PLANE('',#422);
#424 = FACE_SURFACE('',(#419),#423,.T.);
#425 = POLY_LOOP('',(#311,#312,#332,#331));
#426 = FACE_OUTER_BOUND('',#425,.T.);
#427 = DIRECTION('',(-0.987688341,0.156434465,0.000000000));
#428 = DIRECTION('',(0.156434465,0.987688341,0.000000000));
#429 = AXIS2_PLACEMENT_3D('',#311,#427,#428);
#430 = PLANE('',#429);
#431 = FACE_SURFACE('',(#426),#430,.T.);
#432 = POLY_LOOP('',(#312,#313,#333,#332));
#433 = FACE_OUTER_BOUND('',#432,.T.);
#434 = DIRECTION('',(-0.891006524,0.453990500,0.000000000));
#435 = DIRECTION('',(0.453990500,0.891006524,0.000000000));
#436 = AXIS2_PLACEMENT_3D('',#312,#434,#435);
#437 = PLANE('',#436);
#438 = FACE_SURFACE('',(#433),#437,.T.);
#439 = POLY_LOOP('',(#313,#314,#334,#333));
#440 = FACE_OUTER_BOUND('',#439,.T.);
#441 = DIRECTION('',(-0.707106781,0.707106781,0.000000000));
#442 = DIRECTION('',(0.707106781,0.707106781,0.000000000));
#443 = AXIS2_PLACEMENT_3D('',#313,#441,#442);
#444 = PLANE('',#443);
#445 = FACE_SURFACE('',(#440),#444,.T.);
#446 = POLY_LOOP('',(#314,#315,#335,#334));
#447 = FACE_OUTER_BOUND('',#446,.T.);
#448 = DIRECTION('',(-0.453990500,0.891006524,0.000000000));
#449 = DIRECTION('',(0.891006524,0.453990500,0.000000000));
#450 = AXIS2_PLACEMENT_3D('',#314,#448,#449);
#451 = PLANE('',#450);
#452 = FACE_SURFACE('',(#447),#451,.T.);
#453 = POLY_LOOP('',(#315,#316,#336,#335));
#454 = FACE_OUTER_BOUND('',#453,.T.);
#455 = DIRECTION('',(-0.156434465,0.987688341,0.000000000));
#456 = DIRECTION('',(0.987688341,0.156434465,0.000000000));
#457 = AXIS2_PLACEMENT_3D('',#315,#455,#456);
#458 = PLANE('',#457);
#459 = FACE_SURFACE('',(#454),#458,.T.);
#460 = POLY_LOOP('',(#316,#317,#337,#336));
#461 = FACE_OUTER_BOUND('',#460,.T.);
#462 = DIRECTION('',(0.156434465,0.987688341,0.000000000));
#463 = DIRECTION('',(0.987688341,-0.156434465,0.000000000));
#464 = AXIS2_PLACEMENT_3D('',#316,#462,#463);
#465 = PLANE('',#464);
#466 = FACE_SURFACE('',(#461),#465,.T.);
#467 = POLY_LOOP('',(#317,#318,#338,#337));
#468 = FACE_OUTER_BOUND('',#467,.T.);
#469 = DIRECTION('',(0.453990500,0.891006524,0.000000000));
#470 = DIRECTION('',(0.891006524,-0.453990500,0.000000000));
#471 = AXIS2_PLACEMENT_3D('',#317,#469,#470);
#472 = PLANE('',#471);
#473 = FACE_SURFACE('',(#468),#472,.T.);
#474 = POLY_LOOP('',(#318,#319,#339,#338));
#475 = FACE_OUTER_BOUND('',#474,.T.);
#476 = DIRECTION('',(0.707106781,0.707106781,0.000000000));
#477 = DIRECTION('',(0.707106781,-0.707106781,0.000000000));
#478 = AXIS2_PLACEMENT_3D('',#318,#476,#477);
#479 = PLANE('',#478);
#480 = FACE_SURFACE('',(#475),#479,.T.);
#481 = POLY_LOOP('',(#319,#320,#340,#339));
#482 = FACE_OUTER_BOUND('',#481,.T.);
#483 = DIRECTION('',(0.891006524,0.453990500,0.000000000));
#484 = DIRECTION('',(0.453990500,-0.891006524,0.000000000));
#485 = AXIS2_PLACEMENT_3D('',#319,#483,#484);
#486 = PLANE('',#485);
#487 = FACE_SURFACE('',(#482),#486,.T.);
#488 = POLY_LOOP('',(#320,#301,#321,#340));
#489 = FACE_OUTER_BOUND('',#488,.T.);
#490 = DIRECTION('',(0.987688341,0.156434465,0.000000000));
#491 = DIRECTION('',(0.156434465,-0.987688341,0.000000000));
#492 = AXIS2_PLACEMENT_3D('',#320,#490,#491);
#493 = PLANE('',#492);
#494 = FACE_SURFACE('',(#489),#493,.T.);
#495 = CLOSED_SHELL('',(#347,#354,#361,#368,#375,#382,#389,#396,#403,#410,#417,#424,#431,#438,#445,#452,#459,#466,#473,#480,#487,#494));
#496 = FACETED_BREP('silver control knob',#495);
#497 = CARTESIAN_POINT('',(-112.000000000,52.000000000,101.000000000));
#498 = CARTESIAN_POINT('',(-107.000000000,52.000000000,101.000000000));
#499 = CARTESIAN_POINT('',(-107.000000000,72.000000000,101.000000000));
#500 = CARTESIAN_POINT('',(-112.000000000,72.000000000,101.000000000));
#501 = CARTESIAN_POINT('',(-112.000000000,52.000000000,102.000000000));
#502 = CARTESIAN_POINT('',(-107.000000000,52.000000000,102.000000000));
#503 = CARTESIAN_POINT('',(-107.000000000,72.000000000,102.000000000));
#504 = CARTESIAN_POINT('',(-112.000000000,72.000000000,102.000000000));
#505 = POLY_LOOP('',(#497,#500,#499,#498));
#506 = FACE_OUTER_BOUND('',#505,.T.);
#507 = DIRECTION('',(0.000000000,0.000000000,-1.000000000));
#508 = DIRECTION('',(0.000000000,1.000000000,0.000000000));
#509 = AXIS2_PLACEMENT_3D('',#497,#507,#508);
#510 = PLANE('',#509);
#511 = FACE_SURFACE('',(#506),#510,.T.);
#512 = POLY_LOOP('',(#501,#502,#503,#504));
#513 = FACE_OUTER_BOUND('',#512,.T.);
#514 = DIRECTION('',(0.000000000,0.000000000,1.000000000));
#515 = DIRECTION('',(1.000000000,0.000000000,0.000000000));
#516 = AXIS2_PLACEMENT_3D('',#501,#514,#515);
#517 = PLANE('',#516);
#518 = FACE_SURFACE('',(#513),#517,.T.);
#519 = POLY_LOOP('',(#497,#498,#502,#501));
#520 = FACE_OUTER_BOUND('',#519,.T.);
#521 = DIRECTION('',(0.000000000,-1.000000000,0.000000000));
#522 = DIRECTION('',(1.000000000,0.000000000,0.000000000));
#523 = AXIS2_PLACEMENT_3D('',#497,#521,#522);
#524 = PLANE('',#523);
#525 = FACE_SURFACE('',(#520),#524,.T.);
#526 = POLY_LOOP('',(#498,#499,#503,#502));
#527 = FACE_OUTER_BOUND('',#526,.T.);
#528 = DIRECTION('',(1.000000000,0.000000000,0.000000000));
#529 = DIRECTION('',(0.000000000,1.000000000,0.000000000));
#530 = AXIS2_PLACEMENT_3D('',#498,#528,#529);
#531 = PLANE('',#530);
#532 = FACE_SURFACE('',(#527),#531,.T.);
#533 = POLY_LOOP('',(#499,#500,#504,#503));
#534 = FACE_OUTER_BOUND('',#533,.T.);
#535 = DIRECTION('',(0.000000000,1.000000000,0.000000000));
#536 = DIRECTION('',(-1.000000000,0.000000000,0.000000000));
#537 = AXIS2_PLACEMENT_3D('',#499,#535,#536);
#538 = PLANE('',#537);
#539 = FACE_SURFACE('',(#534),#538,.T.);
#540 = POLY_LOOP('',(#500,#497,#501,#504));
#541 = FACE_OUTER_BOUND('',#540,.T.);
#542 = DIRECTION('',(-1.000000000,0.000000000,0.000000000));
#543 = DIRECTION('',(0.000000000,-1.000000000,0.000000000));
#544 = AXIS2_PLACEMENT_3D('',#500,#542,#543);
#545 = PLANE('',#544);
#546 = FACE_SURFACE('',(#541),#545,.T.);
#547 = CLOSED_SHELL('',(#511,#518,#525,#532,#539,#546));
#548 = FACETED_BREP('black ventilation',#547);
#549 = CARTESIAN_POINT('',(-94.000000000,52.000000000,101.000000000));
#550 = CARTESIAN_POINT('',(-89.000000000,52.000000000,101.000000000));
#551 = CARTESIAN_POINT('',(-89.000000000,72.000000000,101.000000000));
#552 = CARTESIAN_POINT('',(-94.000000000,72.000000000,101.000000000));
#553 = CARTESIAN_POINT('',(-94.000000000,52.000000000,102.000000000));
#554 = CARTESIAN_POINT('',(-89.000000000,52.000000000,102.000000000));
#555 = CARTESIAN_POINT('',(-89.000000000,72.000000000,102.000000000));
#556 = CARTESIAN_POINT('',(-94.000000000,72.000000000,102.000000000));
#557 = POLY_LOOP('',(#549,#552,#551,#550));
#558 = FACE_OUTER_BOUND('',#557,.T.);
#559 = DIRECTION('',(0.000000000,0.000000000,-1.000000000));
#560 = DIRECTION('',(0.000000000,1.000000000,0.000000000));
#561 = AXIS2_PLACEMENT_3D('',#549,#559,#560);
#562 = PLANE('',#561);
#563 = FACE_SURFACE('',(#558),#562,.T.);
#564 = POLY_LOOP('',(#553,#554,#555,#556));
#565 = FACE_OUTER_BOUND('',#564,.T.);
#566 = DIRECTION('',(0.000000000,0.000000000,1.000000000));
#567 = DIRECTION('',(1.000000000,0.000000000,0.000000000));
#568 = AXIS2_PLACEMENT_3D('',#553,#566,#567);
#569 = PLANE('',#568);
#570 = FACE_SURFACE('',(#565),#569,.T.);
#571 = POLY_LOOP('',(#549,#550,#554,#553));
#572 = FACE_OUTER_BOUND('',#571,.T.);
#573 = DIRECTION('',(0.000000000,-1.000000000,0.000000000));
#574 = DIRECTION('',(1.000000000,0.000000000,0.000000000));
#575 = AXIS2_PLACEMENT_3D('',#549,#573,#574);
#576 = PLANE('',#575);
#577 = FACE_SURFACE('',(#572),#576,.T.);
#578 = POLY_LOOP('',(#550,#551,#555,#554));
#579 = FACE_OUTER_BOUND('',#578,.T.);
#580 = DIRECTION('',(1.000000000,0.000000000,0.000000000));
#581 = DIRECTION('',(0.000000000,1.000000000,0.000000000));
#582 = AXIS2_PLACEMENT_3D('',#550,#580,#581);
#583 = PLANE('',#582);
#584 = FACE_SURFACE('',(#579),#583,.T.);
#585 = POLY_LOOP('',(#551,#552,#556,#555));
#586 = FACE_OUTER_BOUND('',#585,.T.);
#587 = DIRECTION('',(0.000000000,1.000000000,0.000000000));
#588 = DIRECTION('',(-1.000000000,0.000000000,0.000000000));
#589 = AXIS2_PLACEMENT_3D('',#551,#587,#588);
#590 = PLANE('',#589);
#591 = FACE_SURFACE('',(#586),#590,.T.);
#592 = POLY_LOOP('',(#552,#549,#553,#556));
#593 = FACE_OUTER_BOUND('',#592,.T.);
#594 = DIRECTION('',(-1.000000000,0.000000000,0.000000000));
#595 = DIRECTION('',(0.000000000,-1.000000000,0.000000000));
#596 = AXIS2_PLACEMENT_3D('',#552,#594,#595);
#597 = PLANE('',#596);
#598 = FACE_SURFACE('',(#593),#597,.T.);
#599 = CLOSED_SHELL('',(#563,#570,#577,#584,#591,#598));
#600 = FACETED_BREP('black ventilation',#599);
#601 = CARTESIAN_POINT('',(-76.000000000,52.000000000,101.000000000));
#602 = CARTESIAN_POINT('',(-71.000000000,52.000000000,101.000000000));
#603 = CARTESIAN_POINT('',(-71.000000000,72.000000000,101.000000000));
#604 = CARTESIAN_POINT('',(-76.000000000,72.000000000,101.000000000));
#605 = CARTESIAN_POINT('',(-76.000000000,52.000000000,102.000000000));
#606 = CARTESIAN_POINT('',(-71.000000000,52.000000000,102.000000000));
#607 = CARTESIAN_POINT('',(-71.000000000,72.000000000,102.000000000));
#608 = CARTESIAN_POINT('',(-76.000000000,72.000000000,102.000000000));
#609 = POLY_LOOP('',(#601,#604,#603,#602));
#610 = FACE_OUTER_BOUND('',#609,.T.);
#611 = DIRECTION('',(0.000000000,0.000000000,-1.000000000));
#612 = DIRECTION('',(0.000000000,1.000000000,0.000000000));
#613 = AXIS2_PLACEMENT_3D('',#601,#611,#612);
#614 = PLANE('',#613);
#615 = FACE_SURFACE('',(#610),#614,.T.);
#616 = POLY_LOOP('',(#605,#606,#607,#608));
#617 = FACE_OUTER_BOUND('',#616,.T.);
#618 = DIRECTION('',(0.000000000,0.000000000,1.000000000));
#619 = DIRECTION('',(1.000000000,0.000000000,0.000000000));
#620 = AXIS2_PLACEMENT_3D('',#605,#618,#619);
#621 = PLANE('',#620);
#622 = FACE_SURFACE('',(#617),#621,.T.);
#623 = POLY_LOOP('',(#601,#602,#606,#605));
#624 = FACE_OUTER_BOUND('',#623,.T.);
#625 = DIRECTION('',(0.000000000,-1.000000000,0.000000000));
#626 = DIRECTION('',(1.000000000,0.000000000,0.000000000));
#627 = AXIS2_PLACEMENT_3D('',#601,#625,#626);
#628 = PLANE('',#627);
#629 = FACE_SURFACE('',(#624),#628,.T.);
#630 = POLY_LOOP('',(#602,#603,#607,#606));
#631 = FACE_OUTER_BOUND('',#630,.T.);
#632 = DIRECTION('',(1.000000000,0.000000000,0.000000000));
#633 = DIRECTION('',(0.000000000,1.000000000,0.000000000));
#634 = AXIS2_PLACEMENT_3D('',#602,#632,#633);
#635 = PLANE('',#634);
#636 = FACE_SURFACE('',(#631),#635,.T.);
#637 = POLY_LOOP('',(#603,#604,#608,#607));
#638 = FACE_OUTER_BOUND('',#637,.T.);
#639 = DIRECTION('',(0.000000000,1.000000000,0.000000000));
#640 = DIRECTION('',(-1.000000000,0.000000000,0.000000000));
#641 = AXIS2_PLACEMENT_3D('',#603,#639,#640);
#642 = PLANE('',#641);
#643 = FACE_SURFACE('',(#638),#642,.T.);
#644 = POLY_LOOP('',(#604,#601,#605,#608));
#645 = FACE_OUTER_BOUND('',#644,.T.);
#646 = DIRECTION('',(-1.000000000,0.000000000,0.000000000));
#647 = DIRECTION('',(0.000000000,-1.000000000,0.000000000));
#648 = AXIS2_PLACEMENT_3D('',#604,#646,#647);
#649 = PLANE('',#648);
#650 = FACE_SURFACE('',(#645),#649,.T.);
#651 = CLOSED_SHELL('',(#615,#622,#629,#636,#643,#650));
#652 = FACETED_BREP('black ventilation',#651);
#653 = CARTESIAN_POINT('',(-58.000000000,52.000000000,101.000000000));
#654 = CARTESIAN_POINT('',(-53.000000000,52.000000000,101.000000000));
#655 = CARTESIAN_POINT('',(-53.000000000,72.000000000,101.000000000));
#656 = CARTESIAN_POINT('',(-58.000000000,72.000000000,101.000000000));
#657 = CARTESIAN_POINT('',(-58.000000000,52.000000000,102.000000000));
#658 = CARTESIAN_POINT('',(-53.000000000,52.000000000,102.000000000));
#659 = CARTESIAN_POINT('',(-53.000000000,72.000000000,102.000000000));
#660 = CARTESIAN_POINT('',(-58.000000000,72.000000000,102.000000000));
#661 = POLY_LOOP('',(#653,#656,#655,#654));
#662 = FACE_OUTER_BOUND('',#661,.T.);
#663 = DIRECTION('',(0.000000000,0.000000000,-1.000000000));
#664 = DIRECTION('',(0.000000000,1.000000000,0.000000000));
#665 = AXIS2_PLACEMENT_3D('',#653,#663,#664);
#666 = PLANE('',#665);
#667 = FACE_SURFACE('',(#662),#666,.T.);
#668 = POLY_LOOP('',(#657,#658,#659,#660));
#669 = FACE_OUTER_BOUND('',#668,.T.);
#670 = DIRECTION('',(0.000000000,0.000000000,1.000000000));
#671 = DIRECTION('',(1.000000000,0.000000000,0.000000000));
#672 = AXIS2_PLACEMENT_3D('',#657,#670,#671);
#673 = PLANE('',#672);
#674 = FACE_SURFACE('',(#669),#673,.T.);
#675 = POLY_LOOP('',(#653,#654,#658,#657));
#676 = FACE_OUTER_BOUND('',#675,.T.);
#677 = DIRECTION('',(0.000000000,-1.000000000,0.000000000));
#678 = DIRECTION('',(1.000000000,0.000000000,0.000000000));
#679 = AXIS2_PLACEMENT_3D('',#653,#677,#678);
#680 = PLANE('',#679);
#681 = FACE_SURFACE('',(#676),#680,.T.);
#682 = POLY_LOOP('',(#654,#655,#659,#658));
#683 = FACE_OUTER_BOUND('',#682,.T.);
#684 = DIRECTION('',(1.000000000,0.000000000,0.000000000));
#685 = DIRECTION('',(0.000000000,1.000000000,0.000000000));
#686 = AXIS2_PLACEMENT_3D('',#654,#684,#685);
#687 = PLANE('',#686);
#688 = FACE_SURFACE('',(#683),#687,.T.);
#689 = POLY_LOOP('',(#655,#656,#660,#659));
#690 = FACE_OUTER_BOUND('',#689,.T.);
#691 = DIRECTION('',(0.000000000,1.000000000,0.000000000));
#692 = DIRECTION('',(-1.000000000,0.000000000,0.000000000));
#693 = AXIS2_PLACEMENT_3D('',#655,#691,#692);
#694 = PLANE('',#693);
#695 = FACE_SURFACE('',(#690),#694,.T.);
#696 = POLY_LOOP('',(#656,#653,#657,#660));
#697 = FACE_OUTER_BOUND('',#696,.T.);
#698 = DIRECTION('',(-1.000000000,0.000000000,0.000000000));
#699 = DIRECTION('',(0.000000000,-1.000000000,0.000000000));
#700 = AXIS2_PLACEMENT_3D('',#656,#698,#699);
#701 = PLANE('',#700);
#702 = FACE_SURFACE('',(#697),#701,.T.);
#703 = CLOSED_SHELL('',(#667,#674,#681,#688,#695,#702));
#704 = FACETED_BREP('black ventilation',#703);
#705 = CARTESIAN_POINT('',(-40.000000000,52.000000000,101.000000000));
#706 = CARTESIAN_POINT('',(-35.000000000,52.000000000,101.000000000));
#707 = CARTESIAN_POINT('',(-35.000000000,72.000000000,101.000000000));
#708 = CARTESIAN_POINT('',(-40.000000000,72.000000000,101.000000000));
#709 = CARTESIAN_POINT('',(-40.000000000,52.000000000,102.000000000));
#710 = CARTESIAN_POINT('',(-35.000000000,52.000000000,102.000000000));
#711 = CARTESIAN_POINT('',(-35.000000000,72.000000000,102.000000000));
#712 = CARTESIAN_POINT('',(-40.000000000,72.000000000,102.000000000));
#713 = POLY_LOOP('',(#705,#708,#707,#706));
#714 = FACE_OUTER_BOUND('',#713,.T.);
#715 = DIRECTION('',(0.000000000,0.000000000,-1.000000000));
#716 = DIRECTION('',(0.000000000,1.000000000,0.000000000));
#717 = AXIS2_PLACEMENT_3D('',#705,#715,#716);
#718 = PLANE('',#717);
#719 = FACE_SURFACE('',(#714),#718,.T.);
#720 = POLY_LOOP('',(#709,#710,#711,#712));
#721 = FACE_OUTER_BOUND('',#720,.T.);
#722 = DIRECTION('',(0.000000000,0.000000000,1.000000000));
#723 = DIRECTION('',(1.000000000,0.000000000,0.000000000));
#724 = AXIS2_PLACEMENT_3D('',#709,#722,#723);
#725 = PLANE('',#724);
#726 = FACE_SURFACE('',(#721),#725,.T.);
#727 = POLY_LOOP('',(#705,#706,#710,#709));
#728 = FACE_OUTER_BOUND('',#727,.T.);
#729 = DIRECTION('',(0.000000000,-1.000000000,0.000000000));
#730 = DIRECTION('',(1.000000000,0.000000000,0.000000000));
#731 = AXIS2_PLACEMENT_3D('',#705,#729,#730);
#732 = PLANE('',#731);
#733 = FACE_SURFACE('',(#728),#732,.T.);
#734 = POLY_LOOP('',(#706,#707,#711,#710));
#735 = FACE_OUTER_BOUND('',#734,.T.);
#736 = DIRECTION('',(1.000000000,0.000000000,0.000000000));
#737 = DIRECTION('',(0.000000000,1.000000000,0.000000000));
#738 = AXIS2_PLACEMENT_3D('',#706,#736,#737);
#739 = PLANE('',#738);
#740 = FACE_SURFACE('',(#735),#739,.T.);
#741 = POLY_LOOP('',(#707,#708,#712,#711));
#742 = FACE_OUTER_BOUND('',#741,.T.);
#743 = DIRECTION('',(0.000000000,1.000000000,0.000000000));
#744 = DIRECTION('',(-1.000000000,0.000000000,0.000000000));
#745 = AXIS2_PLACEMENT_3D('',#707,#743,#744);
#746 = PLANE('',#745);
#747 = FACE_SURFACE('',(#742),#746,.T.);
#748 = POLY_LOOP('',(#708,#705,#709,#712));
#749 = FACE_OUTER_BOUND('',#748,.T.);
#750 = DIRECTION('',(-1.000000000,0.000000000,0.000000000));
#751 = DIRECTION('',(0.000000000,-1.000000000,0.000000000));
#752 = AXIS2_PLACEMENT_3D('',#708,#750,#751);
#753 = PLANE('',#752);
#754 = FACE_SURFACE('',(#749),#753,.T.);
#755 = CLOSED_SHELL('',(#719,#726,#733,#740,#747,#754));
#756 = FACETED_BREP('black ventilation',#755);
#757 = CARTESIAN_POINT('',(-22.000000000,52.000000000,101.000000000));
#758 = CARTESIAN_POINT('',(-17.000000000,52.000000000,101.000000000));
#759 = CARTESIAN_POINT('',(-17.000000000,72.000000000,101.000000000));
#760 = CARTESIAN_POINT('',(-22.000000000,72.000000000,101.000000000));
#761 = CARTESIAN_POINT('',(-22.000000000,52.000000000,102.000000000));
#762 = CARTESIAN_POINT('',(-17.000000000,52.000000000,102.000000000));
#763 = CARTESIAN_POINT('',(-17.000000000,72.000000000,102.000000000));
#764 = CARTESIAN_POINT('',(-22.000000000,72.000000000,102.000000000));
#765 = POLY_LOOP('',(#757,#760,#759,#758));
#766 = FACE_OUTER_BOUND('',#765,.T.);
#767 = DIRECTION('',(0.000000000,0.000000000,-1.000000000));
#768 = DIRECTION('',(0.000000000,1.000000000,0.000000000));
#769 = AXIS2_PLACEMENT_3D('',#757,#767,#768);
#770 = PLANE('',#769);
#771 = FACE_SURFACE('',(#766),#770,.T.);
#772 = POLY_LOOP('',(#761,#762,#763,#764));
#773 = FACE_OUTER_BOUND('',#772,.T.);
#774 = DIRECTION('',(0.000000000,0.000000000,1.000000000));
#775 = DIRECTION('',(1.000000000,0.000000000,0.000000000));
#776 = AXIS2_PLACEMENT_3D('',#761,#774,#775);
#777 = PLANE('',#776);
#778 = FACE_SURFACE('',(#773),#777,.T.);
#779 = POLY_LOOP('',(#757,#758,#762,#761));
#780 = FACE_OUTER_BOUND('',#779,.T.);
#781 = DIRECTION('',(0.000000000,-1.000000000,0.000000000));
#782 = DIRECTION('',(1.000000000,0.000000000,0.000000000));
#783 = AXIS2_PLACEMENT_3D('',#757,#781,#782);
#784 = PLANE('',#783);
#785 = FACE_SURFACE('',(#780),#784,.T.);
#786 = POLY_LOOP('',(#758,#759,#763,#762));
#787 = FACE_OUTER_BOUND('',#786,.T.);
#788 = DIRECTION('',(1.000000000,0.000000000,0.000000000));
#789 = DIRECTION('',(0.000000000,1.000000000,0.000000000));
#790 = AXIS2_PLACEMENT_3D('',#758,#788,#789);
#791 = PLANE('',#790);
#792 = FACE_SURFACE('',(#787),#791,.T.);
#793 = POLY_LOOP('',(#759,#760,#764,#763));
#794 = FACE_OUTER_BOUND('',#793,.T.);
#795 = DIRECTION('',(0.000000000,1.000000000,0.000000000));
#796 = DIRECTION('',(-1.000000000,0.000000000,0.000000000));
#797 = AXIS2_PLACEMENT_3D('',#759,#795,#796);
#798 = PLANE('',#797);
#799 = FACE_SURFACE('',(#794),#798,.T.);
#800 = POLY_LOOP('',(#760,#757,#761,#764));
#801 = FACE_OUTER_BOUND('',#800,.T.);
#802 = DIRECTION('',(-1.000000000,0.000000000,0.000000000));
#803 = DIRECTION('',(0.000000000,-1.000000000,0.000000000));
#804 = AXIS2_PLACEMENT_3D('',#760,#802,#803);
#805 = PLANE('',#804);
#806 = FACE_SURFACE('',(#801),#805,.T.);
#807 = CLOSED_SHELL('',(#771,#778,#785,#792,#799,#806));
#808 = FACETED_BREP('black ventilation',#807);
#809 = CARTESIAN_POINT('',(-4.000000000,52.000000000,101.000000000));
#810 = CARTESIAN_POINT('',(1.000000000,52.000000000,101.000000000));
#811 = CARTESIAN_POINT('',(1.000000000,72.000000000,101.000000000));
#812 = CARTESIAN_POINT('',(-4.000000000,72.000000000,101.000000000));
#813 = CARTESIAN_POINT('',(-4.000000000,52.000000000,102.000000000));
#814 = CARTESIAN_POINT('',(1.000000000,52.000000000,102.000000000));
#815 = CARTESIAN_POINT('',(1.000000000,72.000000000,102.000000000));
#816 = CARTESIAN_POINT('',(-4.000000000,72.000000000,102.000000000));
#817 = POLY_LOOP('',(#809,#812,#811,#810));
#818 = FACE_OUTER_BOUND('',#817,.T.);
#819 = DIRECTION('',(0.000000000,0.000000000,-1.000000000));
#820 = DIRECTION('',(0.000000000,1.000000000,0.000000000));
#821 = AXIS2_PLACEMENT_3D('',#809,#819,#820);
#822 = PLANE('',#821);
#823 = FACE_SURFACE('',(#818),#822,.T.);
#824 = POLY_LOOP('',(#813,#814,#815,#816));
#825 = FACE_OUTER_BOUND('',#824,.T.);
#826 = DIRECTION('',(0.000000000,0.000000000,1.000000000));
#827 = DIRECTION('',(1.000000000,0.000000000,0.000000000));
#828 = AXIS2_PLACEMENT_3D('',#813,#826,#827);
#829 = PLANE('',#828);
#830 = FACE_SURFACE('',(#825),#829,.T.);
#831 = POLY_LOOP('',(#809,#810,#814,#813));
#832 = FACE_OUTER_BOUND('',#831,.T.);
#833 = DIRECTION('',(0.000000000,-1.000000000,0.000000000));
#834 = DIRECTION('',(1.000000000,0.000000000,0.000000000));
#835 = AXIS2_PLACEMENT_3D('',#809,#833,#834);
#836 = PLANE('',#835);
#837 = FACE_SURFACE('',(#832),#836,.T.);
#838 = POLY_LOOP('',(#810,#811,#815,#814));
#839 = FACE_OUTER_BOUND('',#838,.T.);
#840 = DIRECTION('',(1.000000000,0.000000000,0.000000000));
#841 = DIRECTION('',(0.000000000,1.000000000,0.000000000));
#842 = AXIS2_PLACEMENT_3D('',#810,#840,#841);
#843 = PLANE('',#842);
#844 = FACE_SURFACE('',(#839),#843,.T.);
#845 = POLY_LOOP('',(#811,#812,#816,#815));
#846 = FACE_OUTER_BOUND('',#845,.T.);
#847 = DIRECTION('',(0.000000000,1.000000000,0.000000000));
#848 = DIRECTION('',(-1.000000000,0.000000000,0.000000000));
#849 = AXIS2_PLACEMENT_3D('',#811,#847,#848);
#850 = PLANE('',#849);
#851 = FACE_SURFACE('',(#846),#850,.T.);
#852 = POLY_LOOP('',(#812,#809,#813,#816));
#853 = FACE_OUTER_BOUND('',#852,.T.);
#854 = DIRECTION('',(-1.000000000,0.000000000,0.000000000));
#855 = DIRECTION('',(0.000000000,-1.000000000,0.000000000));
#856 = AXIS2_PLACEMENT_3D('',#812,#854,#855);
#857 = PLANE('',#856);
#858 = FACE_SURFACE('',(#853),#857,.T.);
#859 = CLOSED_SHELL('',(#823,#830,#837,#844,#851,#858));
#860 = FACETED_BREP('black ventilation',#859);
#861 = CARTESIAN_POINT('',(14.000000000,52.000000000,101.000000000));
#862 = CARTESIAN_POINT('',(19.000000000,52.000000000,101.000000000));
#863 = CARTESIAN_POINT('',(19.000000000,72.000000000,101.000000000));
#864 = CARTESIAN_POINT('',(14.000000000,72.000000000,101.000000000));
#865 = CARTESIAN_POINT('',(14.000000000,52.000000000,102.000000000));
#866 = CARTESIAN_POINT('',(19.000000000,52.000000000,102.000000000));
#867 = CARTESIAN_POINT('',(19.000000000,72.000000000,102.000000000));
#868 = CARTESIAN_POINT('',(14.000000000,72.000000000,102.000000000));
#869 = POLY_LOOP('',(#861,#864,#863,#862));
#870 = FACE_OUTER_BOUND('',#869,.T.);
#871 = DIRECTION('',(0.000000000,0.000000000,-1.000000000));
#872 = DIRECTION('',(0.000000000,1.000000000,0.000000000));
#873 = AXIS2_PLACEMENT_3D('',#861,#871,#872);
#874 = PLANE('',#873);
#875 = FACE_SURFACE('',(#870),#874,.T.);
#876 = POLY_LOOP('',(#865,#866,#867,#868));
#877 = FACE_OUTER_BOUND('',#876,.T.);
#878 = DIRECTION('',(0.000000000,0.000000000,1.000000000));
#879 = DIRECTION('',(1.000000000,0.000000000,0.000000000));
#880 = AXIS2_PLACEMENT_3D('',#865,#878,#879);
#881 = PLANE('',#880);
#882 = FACE_SURFACE('',(#877),#881,.T.);
#883 = POLY_LOOP('',(#861,#862,#866,#865));
#884 = FACE_OUTER_BOUND('',#883,.T.);
#885 = DIRECTION('',(0.000000000,-1.000000000,0.000000000));
#886 = DIRECTION('',(1.000000000,0.000000000,0.000000000));
#887 = AXIS2_PLACEMENT_3D('',#861,#885,#886);
#888 = PLANE('',#887);
#889 = FACE_SURFACE('',(#884),#888,.T.);
#890 = POLY_LOOP('',(#862,#863,#867,#866));
#891 = FACE_OUTER_BOUND('',#890,.T.);
#892 = DIRECTION('',(1.000000000,0.000000000,0.000000000));
#893 = DIRECTION('',(0.000000000,1.000000000,0.000000000));
#894 = AXIS2_PLACEMENT_3D('',#862,#892,#893);
#895 = PLANE('',#894);
#896 = FACE_SURFACE('',(#891),#895,.T.);
#897 = POLY_LOOP('',(#863,#864,#868,#867));
#898 = FACE_OUTER_BOUND('',#897,.T.);
#899 = DIRECTION('',(0.000000000,1.000000000,0.000000000));
#900 = DIRECTION('',(-1.000000000,0.000000000,0.000000000));
#901 = AXIS2_PLACEMENT_3D('',#863,#899,#900);
#902 = PLANE('',#901);
#903 = FACE_SURFACE('',(#898),#902,.T.);
#904 = POLY_LOOP('',(#864,#861,#865,#868));
#905 = FACE_OUTER_BOUND('',#904,.T.);
#906 = DIRECTION('',(-1.000000000,0.000000000,0.000000000));
#907 = DIRECTION('',(0.000000000,-1.000000000,0.000000000));
#908 = AXIS2_PLACEMENT_3D('',#864,#906,#907);
#909 = PLANE('',#908);
#910 = FACE_SURFACE('',(#905),#909,.T.);
#911 = CLOSED_SHELL('',(#875,#882,#889,#896,#903,#910));
#912 = FACETED_BREP('black ventilation',#911);
#913 = CARTESIAN_POINT('',(32.000000000,52.000000000,101.000000000));
#914 = CARTESIAN_POINT('',(37.000000000,52.000000000,101.000000000));
#915 = CARTESIAN_POINT('',(37.000000000,72.000000000,101.000000000));
#916 = CARTESIAN_POINT('',(32.000000000,72.000000000,101.000000000));
#917 = CARTESIAN_POINT('',(32.000000000,52.000000000,102.000000000));
#918 = CARTESIAN_POINT('',(37.000000000,52.000000000,102.000000000));
#919 = CARTESIAN_POINT('',(37.000000000,72.000000000,102.000000000));
#920 = CARTESIAN_POINT('',(32.000000000,72.000000000,102.000000000));
#921 = POLY_LOOP('',(#913,#916,#915,#914));
#922 = FACE_OUTER_BOUND('',#921,.T.);
#923 = DIRECTION('',(0.000000000,0.000000000,-1.000000000));
#924 = DIRECTION('',(0.000000000,1.000000000,0.000000000));
#925 = AXIS2_PLACEMENT_3D('',#913,#923,#924);
#926 = PLANE('',#925);
#927 = FACE_SURFACE('',(#922),#926,.T.);
#928 = POLY_LOOP('',(#917,#918,#919,#920));
#929 = FACE_OUTER_BOUND('',#928,.T.);
#930 = DIRECTION('',(0.000000000,0.000000000,1.000000000));
#931 = DIRECTION('',(1.000000000,0.000000000,0.000000000));
#932 = AXIS2_PLACEMENT_3D('',#917,#930,#931);
#933 = PLANE('',#932);
#934 = FACE_SURFACE('',(#929),#933,.T.);
#935 = POLY_LOOP('',(#913,#914,#918,#917));
#936 = FACE_OUTER_BOUND('',#935,.T.);
#937 = DIRECTION('',(0.000000000,-1.000000000,0.000000000));
#938 = DIRECTION('',(1.000000000,0.000000000,0.000000000));
#939 = AXIS2_PLACEMENT_3D('',#913,#937,#938);
#940 = PLANE('',#939);
#941 = FACE_SURFACE('',(#936),#940,.T.);
#942 = POLY_LOOP('',(#914,#915,#919,#918));
#943 = FACE_OUTER_BOUND('',#942,.T.);
#944 = DIRECTION('',(1.000000000,0.000000000,0.000000000));
#945 = DIRECTION('',(0.000000000,1.000000000,0.000000000));
#946 = AXIS2_PLACEMENT_3D('',#914,#944,#945);
#947 = PLANE('',#946);
#948 = FACE_SURFACE('',(#943),#947,.T.);
#949 = POLY_LOOP('',(#915,#916,#920,#919));
#950 = FACE_OUTER_BOUND('',#949,.T.);
#951 = DIRECTION('',(0.000000000,1.000000000,0.000000000));
#952 = DIRECTION('',(-1.000000000,0.000000000,0.000000000));
#953 = AXIS2_PLACEMENT_3D('',#915,#951,#952);
#954 = PLANE('',#953);
#955 = FACE_SURFACE('',(#950),#954,.T.);
#956 = POLY_LOOP('',(#916,#913,#917,#920));
#957 = FACE_OUTER_BOUND('',#956,.T.);
#958 = DIRECTION('',(-1.000000000,0.000000000,0.000000000));
#959 = DIRECTION('',(0.000000000,-1.000000000,0.000000000));
#960 = AXIS2_PLACEMENT_3D('',#916,#958,#959);
#961 = PLANE('',#960);
#962 = FACE_SURFACE('',(#957),#961,.T.);
#963 = CLOSED_SHELL('',(#927,#934,#941,#948,#955,#962));
#964 = FACETED_BREP('black ventilation',#963);
#965 = CARTESIAN_POINT('',(50.000000000,52.000000000,101.000000000));
#966 = CARTESIAN_POINT('',(55.000000000,52.000000000,101.000000000));
#967 = CARTESIAN_POINT('',(55.000000000,72.000000000,101.000000000));
#968 = CARTESIAN_POINT('',(50.000000000,72.000000000,101.000000000));
#969 = CARTESIAN_POINT('',(50.000000000,52.000000000,102.000000000));
#970 = CARTESIAN_POINT('',(55.000000000,52.000000000,102.000000000));
#971 = CARTESIAN_POINT('',(55.000000000,72.000000000,102.000000000));
#972 = CARTESIAN_POINT('',(50.000000000,72.000000000,102.000000000));
#973 = POLY_LOOP('',(#965,#968,#967,#966));
#974 = FACE_OUTER_BOUND('',#973,.T.);
#975 = DIRECTION('',(0.000000000,0.000000000,-1.000000000));
#976 = DIRECTION('',(0.000000000,1.000000000,0.000000000));
#977 = AXIS2_PLACEMENT_3D('',#965,#975,#976);
#978 = PLANE('',#977);
#979 = FACE_SURFACE('',(#974),#978,.T.);
#980 = POLY_LOOP('',(#969,#970,#971,#972));
#981 = FACE_OUTER_BOUND('',#980,.T.);
#982 = DIRECTION('',(0.000000000,0.000000000,1.000000000));
#983 = DIRECTION('',(1.000000000,0.000000000,0.000000000));
#984 = AXIS2_PLACEMENT_3D('',#969,#982,#983);
#985 = PLANE('',#984);
#986 = FACE_SURFACE('',(#981),#985,.T.);
#987 = POLY_LOOP('',(#965,#966,#970,#969));
#988 = FACE_OUTER_BOUND('',#987,.T.);
#989 = DIRECTION('',(0.000000000,-1.000000000,0.000000000));
#990 = DIRECTION('',(1.000000000,0.000000000,0.000000000));
#991 = AXIS2_PLACEMENT_3D('',#965,#989,#990);
#992 = PLANE('',#991);
#993 = FACE_SURFACE('',(#988),#992,.T.);
#994 = POLY_LOOP('',(#966,#967,#971,#970));
#995 = FACE_OUTER_BOUND('',#994,.T.);
#996 = DIRECTION('',(1.000000000,0.000000000,0.000000000));
#997 = DIRECTION('',(0.000000000,1.000000000,0.000000000));
#998 = AXIS2_PLACEMENT_3D('',#966,#996,#997);
#999 = PLANE('',#998);
#1000 = FACE_SURFACE('',(#995),#999,.T.);
#1001 = POLY_LOOP('',(#967,#968,#972,#971));
#1002 = FACE_OUTER_BOUND('',#1001,.T.);
#1003 = DIRECTION('',(0.000000000,1.000000000,0.000000000));
#1004 = DIRECTION('',(-1.000000000,0.000000000,0.000000000));
#1005 = AXIS2_PLACEMENT_3D('',#967,#1003,#1004);
#1006 = PLANE('',#1005);
#1007 = FACE_SURFACE('',(#1002),#1006,.T.);
#1008 = POLY_LOOP('',(#968,#965,#969,#972));
#1009 = FACE_OUTER_BOUND('',#1008,.T.);
#1010 = DIRECTION('',(-1.000000000,0.000000000,0.000000000));
#1011 = DIRECTION('',(0.000000000,-1.000000000,0.000000000));
#1012 = AXIS2_PLACEMENT_3D('',#968,#1010,#1011);
#1013 = PLANE('',#1012);
#1014 = FACE_SURFACE('',(#1009),#1013,.T.);
#1015 = CLOSED_SHELL('',(#979,#986,#993,#1000,#1007,#1014));
#1016 = FACETED_BREP('black ventilation',#1015);
#1017 = CARTESIAN_POINT('',(68.000000000,52.000000000,101.000000000));
#1018 = CARTESIAN_POINT('',(73.000000000,52.000000000,101.000000000));
#1019 = CARTESIAN_POINT('',(73.000000000,72.000000000,101.000000000));
#1020 = CARTESIAN_POINT('',(68.000000000,72.000000000,101.000000000));
#1021 = CARTESIAN_POINT('',(68.000000000,52.000000000,102.000000000));
#1022 = CARTESIAN_POINT('',(73.000000000,52.000000000,102.000000000));
#1023 = CARTESIAN_POINT('',(73.000000000,72.000000000,102.000000000));
#1024 = CARTESIAN_POINT('',(68.000000000,72.000000000,102.000000000));
#1025 = POLY_LOOP('',(#1017,#1020,#1019,#1018));
#1026 = FACE_OUTER_BOUND('',#1025,.T.);
#1027 = DIRECTION('',(0.000000000,0.000000000,-1.000000000));
#1028 = DIRECTION('',(0.000000000,1.000000000,0.000000000));
#1029 = AXIS2_PLACEMENT_3D('',#1017,#1027,#1028);
#1030 = PLANE('',#1029);
#1031 = FACE_SURFACE('',(#1026),#1030,.T.);
#1032 = POLY_LOOP('',(#1021,#1022,#1023,#1024));
#1033 = FACE_OUTER_BOUND('',#1032,.T.);
#1034 = DIRECTION('',(0.000000000,0.000000000,1.000000000));
#1035 = DIRECTION('',(1.000000000,0.000000000,0.000000000));
#1036 = AXIS2_PLACEMENT_3D('',#1021,#1034,#1035);
#1037 = PLANE('',#1036);
#1038 = FACE_SURFACE('',(#1033),#1037,.T.);
#1039 = POLY_LOOP('',(#1017,#1018,#1022,#1021));
#1040 = FACE_OUTER_BOUND('',#1039,.T.);
#1041 = DIRECTION('',(0.000000000,-1.000000000,0.000000000));
#1042 = DIRECTION('',(1.000000000,0.000000000,0.000000000));
#1043 = AXIS2_PLACEMENT_3D('',#1017,#1041,#1042);
#1044 = PLANE('',#1043);
#1045 = FACE_SURFACE('',(#1040),#1044,.T.);
#1046 = POLY_LOOP('',(#1018,#1019,#1023,#1022));
#1047 = FACE_OUTER_BOUND('',#1046,.T.);
#1048 = DIRECTION('',(1.000000000,0.000000000,0.000000000));
#1049 = DIRECTION('',(0.000000000,1.000000000,0.000000000));
#1050 = AXIS2_PLACEMENT_3D('',#1018,#1048,#1049);
#1051 = PLANE('',#1050);
#1052 = FACE_SURFACE('',(#1047),#1051,.T.);
#1053 = POLY_LOOP('',(#1019,#1020,#1024,#1023));
#1054 = FACE_OUTER_BOUND('',#1053,.T.);
#1055 = DIRECTION('',(0.000000000,1.000000000,0.000000000));
#1056 = DIRECTION('',(-1.000000000,0.000000000,0.000000000));
#1057 = AXIS2_PLACEMENT_3D('',#1019,#1055,#1056);
#1058 = PLANE('',#1057);
#1059 = FACE_SURFACE('',(#1054),#1058,.T.);
#1060 = POLY_LOOP('',(#1020,#1017,#1021,#1024));
#1061 = FACE_OUTER_BOUND('',#1060,.T.);
#1062 = DIRECTION('',(-1.000000000,0.000000000,0.000000000));
#1063 = DIRECTION('',(0.000000000,-1.000000000,0.000000000));
#1064 = AXIS2_PLACEMENT_3D('',#1020,#1062,#1063);
#1065 = PLANE('',#1064);
#1066 = FACE_SURFACE('',(#1061),#1065,.T.);
#1067 = CLOSED_SHELL('',(#1031,#1038,#1045,#1052,#1059,#1066));
#1068 = FACETED_BREP('black ventilation',#1067);
#1069 = CARTESIAN_POINT('',(86.000000000,52.000000000,101.000000000));
#1070 = CARTESIAN_POINT('',(91.000000000,52.000000000,101.000000000));
#1071 = CARTESIAN_POINT('',(91.000000000,72.000000000,101.000000000));
#1072 = CARTESIAN_POINT('',(86.000000000,72.000000000,101.000000000));
#1073 = CARTESIAN_POINT('',(86.000000000,52.000000000,102.000000000));
#1074 = CARTESIAN_POINT('',(91.000000000,52.000000000,102.000000000));
#1075 = CARTESIAN_POINT('',(91.000000000,72.000000000,102.000000000));
#1076 = CARTESIAN_POINT('',(86.000000000,72.000000000,102.000000000));
#1077 = POLY_LOOP('',(#1069,#1072,#1071,#1070));
#1078 = FACE_OUTER_BOUND('',#1077,.T.);
#1079 = DIRECTION('',(0.000000000,0.000000000,-1.000000000));
#1080 = DIRECTION('',(0.000000000,1.000000000,0.000000000));
#1081 = AXIS2_PLACEMENT_3D('',#1069,#1079,#1080);
#1082 = PLANE('',#1081);
#1083 = FACE_SURFACE('',(#1078),#1082,.T.);
#1084 = POLY_LOOP('',(#1073,#1074,#1075,#1076));
#1085 = FACE_OUTER_BOUND('',#1084,.T.);
#1086 = DIRECTION('',(0.000000000,0.000000000,1.000000000));
#1087 = DIRECTION('',(1.000000000,0.000000000,0.000000000));
#1088 = AXIS2_PLACEMENT_3D('',#1073,#1086,#1087);
#1089 = PLANE('',#1088);
#1090 = FACE_SURFACE('',(#1085),#1089,.T.);
#1091 = POLY_LOOP('',(#1069,#1070,#1074,#1073));
#1092 = FACE_OUTER_BOUND('',#1091,.T.);
#1093 = DIRECTION('',(0.000000000,-1.000000000,0.000000000));
#1094 = DIRECTION('',(1.000000000,0.000000000,0.000000000));
#1095 = AXIS2_PLACEMENT_3D('',#1069,#1093,#1094);
#1096 = PLANE('',#1095);
#1097 = FACE_SURFACE('',(#1092),#1096,.T.);
#1098 = POLY_LOOP('',(#1070,#1071,#1075,#1074));
#1099 = FACE_OUTER_BOUND('',#1098,.T.);
#1100 = DIRECTION('',(1.000000000,0.000000000,0.000000000));
#1101 = DIRECTION('',(0.000000000,1.000000000,0.000000000));
#1102 = AXIS2_PLACEMENT_3D('',#1070,#1100,#1101);
#1103 = PLANE('',#1102);
#1104 = FACE_SURFACE('',(#1099),#1103,.T.);
#1105 = POLY_LOOP('',(#1071,#1072,#1076,#1075));
#1106 = FACE_OUTER_BOUND('',#1105,.T.);
#1107 = DIRECTION('',(0.000000000,1.000000000,0.000000000));
#1108 = DIRECTION('',(-1.000000000,0.000000000,0.000000000));
#1109 = AXIS2_PLACEMENT_3D('',#1071,#1107,#1108);
#1110 = PLANE('',#1109);
#1111 = FACE_SURFACE('',(#1106),#1110,.T.);
#1112 = POLY_LOOP('',(#1072,#1069,#1073,#1076));
#1113 = FACE_OUTER_BOUND('',#1112,.T.);
#1114 = DIRECTION('',(-1.000000000,0.000000000,0.000000000));
#1115 = DIRECTION('',(0.000000000,-1.000000000,0.000000000));
#1116 = AXIS2_PLACEMENT_3D('',#1072,#1114,#1115);
#1117 = PLANE('',#1116);
#1118 = FACE_SURFACE('',(#1113),#1117,.T.);
#1119 = CLOSED_SHELL('',(#1083,#1090,#1097,#1104,#1111,#1118));
#1120 = FACETED_BREP('black ventilation',#1119);
#1121 = CARTESIAN_POINT('',(104.000000000,52.000000000,101.000000000));
#1122 = CARTESIAN_POINT('',(109.000000000,52.000000000,101.000000000));
#1123 = CARTESIAN_POINT('',(109.000000000,72.000000000,101.000000000));
#1124 = CARTESIAN_POINT('',(104.000000000,72.000000000,101.000000000));
#1125 = CARTESIAN_POINT('',(104.000000000,52.000000000,102.000000000));
#1126 = CARTESIAN_POINT('',(109.000000000,52.000000000,102.000000000));
#1127 = CARTESIAN_POINT('',(109.000000000,72.000000000,102.000000000));
#1128 = CARTESIAN_POINT('',(104.000000000,72.000000000,102.000000000));
#1129 = POLY_LOOP('',(#1121,#1124,#1123,#1122));
#1130 = FACE_OUTER_BOUND('',#1129,.T.);
#1131 = DIRECTION('',(0.000000000,0.000000000,-1.000000000));
#1132 = DIRECTION('',(0.000000000,1.000000000,0.000000000));
#1133 = AXIS2_PLACEMENT_3D('',#1121,#1131,#1132);
#1134 = PLANE('',#1133);
#1135 = FACE_SURFACE('',(#1130),#1134,.T.);
#1136 = POLY_LOOP('',(#1125,#1126,#1127,#1128));
#1137 = FACE_OUTER_BOUND('',#1136,.T.);
#1138 = DIRECTION('',(0.000000000,0.000000000,1.000000000));
#1139 = DIRECTION('',(1.000000000,0.000000000,0.000000000));
#1140 = AXIS2_PLACEMENT_3D('',#1125,#1138,#1139);
#1141 = PLANE('',#1140);
#1142 = FACE_SURFACE('',(#1137),#1141,.T.);
#1143 = POLY_LOOP('',(#1121,#1122,#1126,#1125));
#1144 = FACE_OUTER_BOUND('',#1143,.T.);
#1145 = DIRECTION('',(0.000000000,-1.000000000,0.000000000));
#1146 = DIRECTION('',(1.000000000,0.000000000,0.000000000));
#1147 = AXIS2_PLACEMENT_3D('',#1121,#1145,#1146);
#1148 = PLANE('',#1147);
#1149 = FACE_SURFACE('',(#1144),#1148,.T.);
#1150 = POLY_LOOP('',(#1122,#1123,#1127,#1126));
#1151 = FACE_OUTER_BOUND('',#1150,.T.);
#1152 = DIRECTION('',(1.000000000,0.000000000,0.000000000));
#1153 = DIRECTION('',(0.000000000,1.000000000,0.000000000));
#1154 = AXIS2_PLACEMENT_3D('',#1122,#1152,#1153);
#1155 = PLANE('',#1154);
#1156 = FACE_SURFACE('',(#1151),#1155,.T.);
#1157 = POLY_LOOP('',(#1123,#1124,#1128,#1127));
#1158 = FACE_OUTER_BOUND('',#1157,.T.);
#1159 = DIRECTION('',(0.000000000,1.000000000,0.000000000));
#1160 = DIRECTION('',(-1.000000000,0.000000000,0.000000000));
#1161 = AXIS2_PLACEMENT_3D('',#1123,#1159,#1160);
#1162 = PLANE('',#1161);
#1163 = FACE_SURFACE('',(#1158),#1162,.T.);
#1164 = POLY_LOOP('',(#1124,#1121,#1125,#1128));
#1165 = FACE_OUTER_BOUND('',#1164,.T.);
#1166 = DIRECTION('',(-1.000000000,0.000000000,0.000000000));
#1167 = DIRECTION('',(0.000000000,-1.000000000,0.000000000));
#1168 = AXIS2_PLACEMENT_3D('',#1124,#1166,#1167);
#1169 = PLANE('',#1168);
#1170 = FACE_SURFACE('',(#1165),#1169,.T.);
#1171 = CLOSED_SHELL('',(#1135,#1142,#1149,#1156,#1163,#1170));
#1172 = FACETED_BREP('black ventilation',#1171);
#1173 = APPLICATION_CONTEXT('configuration controlled 3d designs of mechanical parts and assemblies');
#1174 = APPLICATION_PROTOCOL_DEFINITION('international standard','config_control_design',1994,#1173);
#1175 = PRODUCT_CONTEXT('',#1173,'mechanical');
#1176 = PRODUCT('REF','Illustrative reference','NOT vendor CAD',(#1175));
#1177 = PRODUCT_DEFINITION_FORMATION_WITH_SPECIFIED_SOURCE('','',#1176,.NOT_KNOWN.);
#1178 = PRODUCT_DEFINITION_CONTEXT('part definition',#1173,'design');
#1179 = PRODUCT_DEFINITION('design','',#1177,#1178);
#1180 = PRODUCT_DEFINITION_SHAPE('','',#1179);
#1181 = (LENGTH_UNIT()NAMED_UNIT(*)SI_UNIT(.MILLI.,.METRE.));
#1182 = (NAMED_UNIT(*)PLANE_ANGLE_UNIT()SI_UNIT($,.RADIAN.));
#1183 = (NAMED_UNIT(*)SI_UNIT($,.STERADIAN.)SOLID_ANGLE_UNIT());
#1184 = UNCERTAINTY_MEASURE_WITH_UNIT(LENGTH_MEASURE(0.000001),#1181,'distance_accuracy_value','');
#1185 = (GEOMETRIC_REPRESENTATION_CONTEXT(3)GLOBAL_UNCERTAINTY_ASSIGNED_CONTEXT((#1184))GLOBAL_UNIT_ASSIGNED_CONTEXT((#1181,#1182,#1183))REPRESENTATION_CONTEXT('',''));
#1186 = FACETED_BREP_SHAPE_REPRESENTATION('Illustrative reference',(#52,#104,#300,#496,#548,#600,#652,#704,#756,#808,#860,#912,#964,#1016,#1068,#1120,#1172),#1185);
#1187 = SHAPE_DEFINITION_REPRESENTATION(#1180,#1186);
ENDSEC;
END-ISO-10303-21;
