ISO-10303-21;
HEADER;
FILE_DESCRIPTION(('Illustrative CAD - NOT vendor dimensions'),'2;1');
FILE_NAME('reference.step','2026-10-07',('CORNERSTONE'),(''),'reference generator','','');
FILE_SCHEMA(('CONFIG_CONTROL_DESIGN'));
ENDSEC;
DATA;
#1 = CARTESIAN_POINT('',(-16.000000000,8.000000000,-65.000000000));
#2 = CARTESIAN_POINT('',(16.000000000,8.000000000,-65.000000000));
#3 = CARTESIAN_POINT('',(16.000000000,83.000000000,-65.000000000));
#4 = CARTESIAN_POINT('',(-16.000000000,83.000000000,-65.000000000));
#5 = CARTESIAN_POINT('',(-16.000000000,8.000000000,65.000000000));
#6 = CARTESIAN_POINT('',(16.000000000,8.000000000,65.000000000));
#7 = CARTESIAN_POINT('',(16.000000000,83.000000000,65.000000000));
#8 = CARTESIAN_POINT('',(-16.000000000,83.000000000,65.000000000));
#9 = POLY_LOOP('',(#1,#4,#3,#2));
#10 = FACE_OUTER_BOUND('',#9,.T.);
#11 = DIRECTION('',(0.000000000,0.000000000,-1.000000000));
#12 = DIRECTION('',(0.000000000,1.000000000,0.000000000));
#13 = AXIS2_PLACEMENT_3D('',#1,#11,#12);
#14 = PLANE('',#13);
#15 = FACE_SURFACE('',(#10),#14,.T.);
#16 = POLY_LOOP('',(#5,#6,#7,#8));
#17 = FACE_OUTER_BOUND('',#16,.T.);
#18 = DIRECTION('',(0.000000000,0.000000000,1.000000000));
#19 = DIRECTION('',(1.000000000,0.000000000,0.000000000));
#20 = AXIS2_PLACEMENT_3D('',#5,#18,#19);
#21 = PLANE('',#20);
#22 = FACE_SURFACE('',(#17),#21,.T.);
#23 = POLY_LOOP('',(#1,#2,#6,#5));
#24 = FACE_OUTER_BOUND('',#23,.T.);
#25 = DIRECTION('',(0.000000000,-1.000000000,0.000000000));
#26 = DIRECTION('',(1.000000000,0.000000000,0.000000000));
#27 = AXIS2_PLACEMENT_3D('',#1,#25,#26);
#28 = PLANE('',#27);
#29 = FACE_SURFACE('',(#24),#28,.T.);
#30 = POLY_LOOP('',(#2,#3,#7,#6));
#31 = FACE_OUTER_BOUND('',#30,.T.);
#32 = DIRECTION('',(1.000000000,0.000000000,0.000000000));
#33 = DIRECTION('',(0.000000000,1.000000000,0.000000000));
#34 = AXIS2_PLACEMENT_3D('',#2,#32,#33);
#35 = PLANE('',#34);
#36 = FACE_SURFACE('',(#31),#35,.T.);
#37 = POLY_LOOP('',(#3,#4,#8,#7));
#38 = FACE_OUTER_BOUND('',#37,.T.);
#39 = DIRECTION('',(0.000000000,1.000000000,0.000000000));
#40 = DIRECTION('',(-1.000000000,0.000000000,0.000000000));
#41 = AXIS2_PLACEMENT_3D('',#3,#39,#40);
#42 = PLANE('',#41);
#43 = FACE_SURFACE('',(#38),#42,.T.);
#44 = POLY_LOOP('',(#4,#1,#5,#8));
#45 = FACE_OUTER_BOUND('',#44,.T.);
#46 = DIRECTION('',(-1.000000000,0.000000000,0.000000000));
#47 = DIRECTION('',(0.000000000,-1.000000000,0.000000000));
#48 = AXIS2_PLACEMENT_3D('',#4,#46,#47);
#49 = PLANE('',#48);
#50 = FACE_SURFACE('',(#45),#49,.T.);
#51 = CLOSED_SHELL('',(#15,#22,#29,#36,#43,#50));
#52 = FACETED_BREP('silver enclosure',#51);
#53 = CARTESIAN_POINT('',(-14.000000000,10.000000000,-68.000000000));
#54 = CARTESIAN_POINT('',(14.000000000,10.000000000,-68.000000000));
#55 = CARTESIAN_POINT('',(14.000000000,81.000000000,-68.000000000));
#56 = CARTESIAN_POINT('',(-14.000000000,81.000000000,-68.000000000));
#57 = CARTESIAN_POINT('',(-14.000000000,10.000000000,-65.000000000));
#58 = CARTESIAN_POINT('',(14.000000000,10.000000000,-65.000000000));
#59 = CARTESIAN_POINT('',(14.000000000,81.000000000,-65.000000000));
#60 = CARTESIAN_POINT('',(-14.000000000,81.000000000,-65.000000000));
#61 = POLY_LOOP('',(#53,#56,#55,#54));
#62 = FACE_OUTER_BOUND('',#61,.T.);
#63 = DIRECTION('',(0.000000000,0.000000000,-1.000000000));
#64 = DIRECTION('',(0.000000000,1.000000000,0.000000000));
#65 = AXIS2_PLACEMENT_3D('',#53,#63,#64);
#66 = PLANE('',#65);
#67 = FACE_SURFACE('',(#62),#66,.T.);
#68 = POLY_LOOP('',(#57,#58,#59,#60));
#69 = FACE_OUTER_BOUND('',#68,.T.);
#70 = DIRECTION('',(0.000000000,0.000000000,1.000000000));
#71 = DIRECTION('',(1.000000000,0.000000000,0.000000000));
#72 = AXIS2_PLACEMENT_3D('',#57,#70,#71);
#73 = PLANE('',#72);
#74 = FACE_SURFACE('',(#69),#73,.T.);
#75 = POLY_LOOP('',(#53,#54,#58,#57));
#76 = FACE_OUTER_BOUND('',#75,.T.);
#77 = DIRECTION('',(0.000000000,-1.000000000,0.000000000));
#78 = DIRECTION('',(1.000000000,0.000000000,0.000000000));
#79 = AXIS2_PLACEMENT_3D('',#53,#77,#78);
#80 = PLANE('',#79);
#81 = FACE_SURFACE('',(#76),#80,.T.);
#82 = POLY_LOOP('',(#54,#55,#59,#58));
#83 = FACE_OUTER_BOUND('',#82,.T.);
#84 = DIRECTION('',(1.000000000,0.000000000,0.000000000));
#85 = DIRECTION('',(0.000000000,1.000000000,0.000000000));
#86 = AXIS2_PLACEMENT_3D('',#54,#84,#85);
#87 = PLANE('',#86);
#88 = FACE_SURFACE('',(#83),#87,.T.);
#89 = POLY_LOOP('',(#55,#56,#60,#59));
#90 = FACE_OUTER_BOUND('',#89,.T.);
#91 = DIRECTION('',(0.000000000,1.000000000,0.000000000));
#92 = DIRECTION('',(-1.000000000,0.000000000,0.000000000));
#93 = AXIS2_PLACEMENT_3D('',#55,#91,#92);
#94 = PLANE('',#93);
#95 = FACE_SURFACE('',(#90),#94,.T.);
#96 = POLY_LOOP('',(#56,#53,#57,#60));
#97 = FACE_OUTER_BOUND('',#96,.T.);
#98 = DIRECTION('',(-1.000000000,0.000000000,0.000000000));
#99 = DIRECTION('',(0.000000000,-1.000000000,0.000000000));
#100 = AXIS2_PLACEMENT_3D('',#56,#98,#99);
#101 = PLANE('',#100);
#102 = FACE_SURFACE('',(#97),#101,.T.);
#103 = CLOSED_SHELL('',(#67,#74,#81,#88,#95,#102));
#104 = FACETED_BREP('front panel',#103);
#105 = CARTESIAN_POINT('',(-12.000000000,65.000000000,-69.000000000));
#106 = CARTESIAN_POINT('',(12.000000000,65.000000000,-69.000000000));
#107 = CARTESIAN_POINT('',(12.000000000,77.000000000,-69.000000000));
#108 = CARTESIAN_POINT('',(-12.000000000,77.000000000,-69.000000000));
#109 = CARTESIAN_POINT('',(-12.000000000,65.000000000,-68.000000000));
#110 = CARTESIAN_POINT('',(12.000000000,65.000000000,-68.000000000));
#111 = CARTESIAN_POINT('',(12.000000000,77.000000000,-68.000000000));
#112 = CARTESIAN_POINT('',(-12.000000000,77.000000000,-68.000000000));
#113 = POLY_LOOP('',(#105,#108,#107,#106));
#114 = FACE_OUTER_BOUND('',#113,.T.);
#115 = DIRECTION('',(0.000000000,0.000000000,-1.000000000));
#116 = DIRECTION('',(0.000000000,1.000000000,0.000000000));
#117 = AXIS2_PLACEMENT_3D('',#105,#115,#116);
#118 = PLANE('',#117);
#119 = FACE_SURFACE('',(#114),#118,.T.);
#120 = POLY_LOOP('',(#109,#110,#111,#112));
#121 = FACE_OUTER_BOUND('',#120,.T.);
#122 = DIRECTION('',(0.000000000,0.000000000,1.000000000));
#123 = DIRECTION('',(1.000000000,0.000000000,0.000000000));
#124 = AXIS2_PLACEMENT_3D('',#109,#122,#123);
#125 = PLANE('',#124);
#126 = FACE_SURFACE('',(#121),#125,.T.);
#127 = POLY_LOOP('',(#105,#106,#110,#109));
#128 = FACE_OUTER_BOUND('',#127,.T.);
#129 = DIRECTION('',(0.000000000,-1.000000000,0.000000000));
#130 = DIRECTION('',(1.000000000,0.000000000,0.000000000));
#131 = AXIS2_PLACEMENT_3D('',#105,#129,#130);
#132 = PLANE('',#131);
#133 = FACE_SURFACE('',(#128),#132,.T.);
#134 = POLY_LOOP('',(#106,#107,#111,#110));
#135 = FACE_OUTER_BOUND('',#134,.T.);
#136 = DIRECTION('',(1.000000000,0.000000000,0.000000000));
#137 = DIRECTION('',(0.000000000,1.000000000,0.000000000));
#138 = AXIS2_PLACEMENT_3D('',#106,#136,#137);
#139 = PLANE('',#138);
#140 = FACE_SURFACE('',(#135),#139,.T.);
#141 = POLY_LOOP('',(#107,#108,#112,#111));
#142 = FACE_OUTER_BOUND('',#141,.T.);
#143 = DIRECTION('',(0.000000000,1.000000000,0.000000000));
#144 = DIRECTION('',(-1.000000000,0.000000000,0.000000000));
#145 = AXIS2_PLACEMENT_3D('',#107,#143,#144);
#146 = PLANE('',#145);
#147 = FACE_SURFACE('',(#142),#146,.T.);
#148 = POLY_LOOP('',(#108,#105,#109,#112));
#149 = FACE_OUTER_BOUND('',#148,.T.);
#150 = DIRECTION('',(-1.000000000,0.000000000,0.000000000));
#151 = DIRECTION('',(0.000000000,-1.000000000,0.000000000));
#152 = AXIS2_PLACEMENT_3D('',#108,#150,#151);
#153 = PLANE('',#152);
#154 = FACE_SURFACE('',(#149),#153,.T.);
#155 = CLOSED_SHELL('',(#119,#126,#133,#140,#147,#154));
#156 = FACETED_BREP('black name plate',#155);
#157 = CARTESIAN_POINT('',(7.000000000,25.000000000,-69.000000000));
#158 = CARTESIAN_POINT('',(6.657395614,22.836881039,-69.000000000));
#159 = CARTESIAN_POINT('',(5.663118961,20.885503234,-69.000000000));
#160 = CARTESIAN_POINT('',(4.114496766,19.336881039,-69.000000000));
#161 = CARTESIAN_POINT('',(2.163118961,18.342604386,-69.000000000));
#162 = CARTESIAN_POINT('',(0.000000000,18.000000000,-69.000000000));
#163 = CARTESIAN_POINT('',(-2.163118961,18.342604386,-69.000000000));
#164 = CARTESIAN_POINT('',(-4.114496766,19.336881039,-69.000000000));
#165 = CARTESIAN_POINT('',(-5.663118961,20.885503234,-69.000000000));
#166 = CARTESIAN_POINT('',(-6.657395614,22.836881039,-69.000000000));
#167 = CARTESIAN_POINT('',(-7.000000000,25.000000000,-69.000000000));
#168 = CARTESIAN_POINT('',(-6.657395614,27.163118961,-69.000000000));
#169 = CARTESIAN_POINT('',(-5.663118961,29.114496766,-69.000000000));
#170 = CARTESIAN_POINT('',(-4.114496766,30.663118961,-69.000000000));
#171 = CARTESIAN_POINT('',(-2.163118961,31.657395614,-69.000000000));
#172 = CARTESIAN_POINT('',(-0.000000000,32.000000000,-69.000000000));
#173 = CARTESIAN_POINT('',(2.163118961,31.657395614,-69.000000000));
#174 = CARTESIAN_POINT('',(4.114496766,30.663118961,-69.000000000));
#175 = CARTESIAN_POINT('',(5.663118961,29.114496766,-69.000000000));
#176 = CARTESIAN_POINT('',(6.657395614,27.163118961,-69.000000000));
#177 = CARTESIAN_POINT('',(7.000000000,25.000000000,-78.000000000));
#178 = CARTESIAN_POINT('',(6.657395614,22.836881039,-78.000000000));
#179 = CARTESIAN_POINT('',(5.663118961,20.885503234,-78.000000000));
#180 = CARTESIAN_POINT('',(4.114496766,19.336881039,-78.000000000));
#181 = CARTESIAN_POINT('',(2.163118961,18.342604386,-78.000000000));
#182 = CARTESIAN_POINT('',(0.000000000,18.000000000,-78.000000000));
#183 = CARTESIAN_POINT('',(-2.163118961,18.342604386,-78.000000000));
#184 = CARTESIAN_POINT('',(-4.114496766,19.336881039,-78.000000000));
#185 = CARTESIAN_POINT('',(-5.663118961,20.885503234,-78.000000000));
#186 = CARTESIAN_POINT('',(-6.657395614,22.836881039,-78.000000000));
#187 = CARTESIAN_POINT('',(-7.000000000,25.000000000,-78.000000000));
#188 = CARTESIAN_POINT('',(-6.657395614,27.163118961,-78.000000000));
#189 = CARTESIAN_POINT('',(-5.663118961,29.114496766,-78.000000000));
#190 = CARTESIAN_POINT('',(-4.114496766,30.663118961,-78.000000000));
#191 = CARTESIAN_POINT('',(-2.163118961,31.657395614,-78.000000000));
#192 = CARTESIAN_POINT('',(-0.000000000,32.000000000,-78.000000000));
#193 = CARTESIAN_POINT('',(2.163118961,31.657395614,-78.000000000));
#194 = CARTESIAN_POINT('',(4.114496766,30.663118961,-78.000000000));
#195 = CARTESIAN_POINT('',(5.663118961,29.114496766,-78.000000000));
#196 = CARTESIAN_POINT('',(6.657395614,27.163118961,-78.000000000));
#197 = POLY_LOOP('',(#176,#175,#174,#173,#172,#171,#170,#169,#168,#167,#166,#165,#164,#163,#162,#161,#160,#159,#158,#157));
#198 = FACE_OUTER_BOUND('',#197,.T.);
#199 = DIRECTION('',(0.000000000,0.000000000,1.000000000));
#200 = DIRECTION('',(-0.453990500,0.891006524,0.000000000));
#201 = AXIS2_PLACEMENT_3D('',#176,#199,#200);
#202 = PLANE('',#201);
#203 = FACE_SURFACE('',(#198),#202,.T.);
#204 = POLY_LOOP('',(#177,#178,#179,#180,#181,#182,#183,#184,#185,#186,#187,#188,#189,#190,#191,#192,#193,#194,#195,#196));
#205 = FACE_OUTER_BOUND('',#204,.T.);
#206 = DIRECTION('',(0.000000000,0.000000000,-1.000000000));
#207 = DIRECTION('',(-0.156434465,-0.987688341,0.000000000));
#208 = AXIS2_PLACEMENT_3D('',#177,#206,#207);
#209 = PLANE('',#208);
#210 = FACE_SURFACE('',(#205),#209,.T.);
#211 = POLY_LOOP('',(#157,#158,#178,#177));
#212 = FACE_OUTER_BOUND('',#211,.T.);
#213 = DIRECTION('',(0.987688341,-0.156434465,0.000000000));
#214 = DIRECTION('',(-0.156434465,-0.987688341,0.000000000));
#215 = AXIS2_PLACEMENT_3D('',#157,#213,#214);
#216 = PLANE('',#215);
#217 = FACE_SURFACE('',(#212),#216,.T.);
#218 = POLY_LOOP('',(#158,#159,#179,#178));
#219 = FACE_OUTER_BOUND('',#218,.T.);
#220 = DIRECTION('',(0.891006524,-0.453990500,0.000000000));
#221 = DIRECTION('',(-0.453990500,-0.891006524,0.000000000));
#222 = AXIS2_PLACEMENT_3D('',#158,#220,#221);
#223 = PLANE('',#222);
#224 = FACE_SURFACE('',(#219),#223,.T.);
#225 = POLY_LOOP('',(#159,#160,#180,#179));
#226 = FACE_OUTER_BOUND('',#225,.T.);
#227 = DIRECTION('',(0.707106781,-0.707106781,0.000000000));
#228 = DIRECTION('',(-0.707106781,-0.707106781,0.000000000));
#229 = AXIS2_PLACEMENT_3D('',#159,#227,#228);
#230 = PLANE('',#229);
#231 = FACE_SURFACE('',(#226),#230,.T.);
#232 = POLY_LOOP('',(#160,#161,#181,#180));
#233 = FACE_OUTER_BOUND('',#232,.T.);
#234 = DIRECTION('',(0.453990500,-0.891006524,0.000000000));
#235 = DIRECTION('',(-0.891006524,-0.453990500,0.000000000));
#236 = AXIS2_PLACEMENT_3D('',#160,#234,#235);
#237 = PLANE('',#236);
#238 = FACE_SURFACE('',(#233),#237,.T.);
#239 = POLY_LOOP('',(#161,#162,#182,#181));
#240 = FACE_OUTER_BOUND('',#239,.T.);
#241 = DIRECTION('',(0.156434465,-0.987688341,0.000000000));
#242 = DIRECTION('',(-0.987688341,-0.156434465,0.000000000));
#243 = AXIS2_PLACEMENT_3D('',#161,#241,#242);
#244 = PLANE('',#243);
#245 = FACE_SURFACE('',(#240),#244,.T.);
#246 = POLY_LOOP('',(#162,#163,#183,#182));
#247 = FACE_OUTER_BOUND('',#246,.T.);
#248 = DIRECTION('',(-0.156434465,-0.987688341,0.000000000));
#249 = DIRECTION('',(-0.987688341,0.156434465,0.000000000));
#250 = AXIS2_PLACEMENT_3D('',#162,#248,#249);
#251 = PLANE('',#250);
#252 = FACE_SURFACE('',(#247),#251,.T.);
#253 = POLY_LOOP('',(#163,#164,#184,#183));
#254 = FACE_OUTER_BOUND('',#253,.T.);
#255 = DIRECTION('',(-0.453990500,-0.891006524,0.000000000));
#256 = DIRECTION('',(-0.891006524,0.453990500,0.000000000));
#257 = AXIS2_PLACEMENT_3D('',#163,#255,#256);
#258 = PLANE('',#257);
#259 = FACE_SURFACE('',(#254),#258,.T.);
#260 = POLY_LOOP('',(#164,#165,#185,#184));
#261 = FACE_OUTER_BOUND('',#260,.T.);
#262 = DIRECTION('',(-0.707106781,-0.707106781,0.000000000));
#263 = DIRECTION('',(-0.707106781,0.707106781,0.000000000));
#264 = AXIS2_PLACEMENT_3D('',#164,#262,#263);
#265 = PLANE('',#264);
#266 = FACE_SURFACE('',(#261),#265,.T.);
#267 = POLY_LOOP('',(#165,#166,#186,#185));
#268 = FACE_OUTER_BOUND('',#267,.T.);
#269 = DIRECTION('',(-0.891006524,-0.453990500,0.000000000));
#270 = DIRECTION('',(-0.453990500,0.891006524,0.000000000));
#271 = AXIS2_PLACEMENT_3D('',#165,#269,#270);
#272 = PLANE('',#271);
#273 = FACE_SURFACE('',(#268),#272,.T.);
#274 = POLY_LOOP('',(#166,#167,#187,#186));
#275 = FACE_OUTER_BOUND('',#274,.T.);
#276 = DIRECTION('',(-0.987688341,-0.156434465,0.000000000));
#277 = DIRECTION('',(-0.156434465,0.987688341,0.000000000));
#278 = AXIS2_PLACEMENT_3D('',#166,#276,#277);
#279 = PLANE('',#278);
#280 = FACE_SURFACE('',(#275),#279,.T.);
#281 = POLY_LOOP('',(#167,#168,#188,#187));
#282 = FACE_OUTER_BOUND('',#281,.T.);
#283 = DIRECTION('',(-0.987688341,0.156434465,0.000000000));
#284 = DIRECTION('',(0.156434465,0.987688341,0.000000000));
#285 = AXIS2_PLACEMENT_3D('',#167,#283,#284);
#286 = PLANE('',#285);
#287 = FACE_SURFACE('',(#282),#286,.T.);
#288 = POLY_LOOP('',(#168,#169,#189,#188));
#289 = FACE_OUTER_BOUND('',#288,.T.);
#290 = DIRECTION('',(-0.891006524,0.453990500,0.000000000));
#291 = DIRECTION('',(0.453990500,0.891006524,0.000000000));
#292 = AXIS2_PLACEMENT_3D('',#168,#290,#291);
#293 = PLANE('',#292);
#294 = FACE_SURFACE('',(#289),#293,.T.);
#295 = POLY_LOOP('',(#169,#170,#190,#189));
#296 = FACE_OUTER_BOUND('',#295,.T.);
#297 = DIRECTION('',(-0.707106781,0.707106781,0.000000000));
#298 = DIRECTION('',(0.707106781,0.707106781,0.000000000));
#299 = AXIS2_PLACEMENT_3D('',#169,#297,#298);
#300 = PLANE('',#299);
#301 = FACE_SURFACE('',(#296),#300,.T.);
#302 = POLY_LOOP('',(#170,#171,#191,#190));
#303 = FACE_OUTER_BOUND('',#302,.T.);
#304 = DIRECTION('',(-0.453990500,0.891006524,0.000000000));
#305 = DIRECTION('',(0.891006524,0.453990500,0.000000000));
#306 = AXIS2_PLACEMENT_3D('',#170,#304,#305);
#307 = PLANE('',#306);
#308 = FACE_SURFACE('',(#303),#307,.T.);
#309 = POLY_LOOP('',(#171,#172,#192,#191));
#310 = FACE_OUTER_BOUND('',#309,.T.);
#311 = DIRECTION('',(-0.156434465,0.987688341,0.000000000));
#312 = DIRECTION('',(0.987688341,0.156434465,0.000000000));
#313 = AXIS2_PLACEMENT_3D('',#171,#311,#312);
#314 = PLANE('',#313);
#315 = FACE_SURFACE('',(#310),#314,.T.);
#316 = POLY_LOOP('',(#172,#173,#193,#192));
#317 = FACE_OUTER_BOUND('',#316,.T.);
#318 = DIRECTION('',(0.156434465,0.987688341,0.000000000));
#319 = DIRECTION('',(0.987688341,-0.156434465,0.000000000));
#320 = AXIS2_PLACEMENT_3D('',#172,#318,#319);
#321 = PLANE('',#320);
#322 = FACE_SURFACE('',(#317),#321,.T.);
#323 = POLY_LOOP('',(#173,#174,#194,#193));
#324 = FACE_OUTER_BOUND('',#323,.T.);
#325 = DIRECTION('',(0.453990500,0.891006524,0.000000000));
#326 = DIRECTION('',(0.891006524,-0.453990500,0.000000000));
#327 = AXIS2_PLACEMENT_3D('',#173,#325,#326);
#328 = PLANE('',#327);
#329 = FACE_SURFACE('',(#324),#328,.T.);
#330 = POLY_LOOP('',(#174,#175,#195,#194));
#331 = FACE_OUTER_BOUND('',#330,.T.);
#332 = DIRECTION('',(0.707106781,0.707106781,0.000000000));
#333 = DIRECTION('',(0.707106781,-0.707106781,0.000000000));
#334 = AXIS2_PLACEMENT_3D('',#174,#332,#333);
#335 = PLANE('',#334);
#336 = FACE_SURFACE('',(#331),#335,.T.);
#337 = POLY_LOOP('',(#175,#176,#196,#195));
#338 = FACE_OUTER_BOUND('',#337,.T.);
#339 = DIRECTION('',(0.891006524,0.453990500,0.000000000));
#340 = DIRECTION('',(0.453990500,-0.891006524,0.000000000));
#341 = AXIS2_PLACEMENT_3D('',#175,#339,#340);
#342 = PLANE('',#341);
#343 = FACE_SURFACE('',(#338),#342,.T.);
#344 = POLY_LOOP('',(#176,#157,#177,#196));
#345 = FACE_OUTER_BOUND('',#344,.T.);
#346 = DIRECTION('',(0.987688341,0.156434465,0.000000000));
#347 = DIRECTION('',(0.156434465,-0.987688341,0.000000000));
#348 = AXIS2_PLACEMENT_3D('',#176,#346,#347);
#349 = PLANE('',#348);
#350 = FACE_SURFACE('',(#345),#349,.T.);
#351 = CLOSED_SHELL('',(#203,#210,#217,#224,#231,#238,#245,#252,#259,#266,#273,#280,#287,#294,#301,#308,#315,#322,#329,#336,#343,#350));
#352 = FACETED_BREP('gold optical port',#351);
#353 = CARTESIAN_POINT('',(3.000000000,25.000000000,-78.000000000));
#354 = CARTESIAN_POINT('',(2.853169549,24.072949017,-78.000000000));
#355 = CARTESIAN_POINT('',(2.427050983,23.236644243,-78.000000000));
#356 = CARTESIAN_POINT('',(1.763355757,22.572949017,-78.000000000));
#357 = CARTESIAN_POINT('',(0.927050983,22.146830451,-78.000000000));
#358 = CARTESIAN_POINT('',(0.000000000,22.000000000,-78.000000000));
#359 = CARTESIAN_POINT('',(-0.927050983,22.146830451,-78.000000000));
#360 = CARTESIAN_POINT('',(-1.763355757,22.572949017,-78.000000000));
#361 = CARTESIAN_POINT('',(-2.427050983,23.236644243,-78.000000000));
#362 = CARTESIAN_POINT('',(-2.853169549,24.072949017,-78.000000000));
#363 = CARTESIAN_POINT('',(-3.000000000,25.000000000,-78.000000000));
#364 = CARTESIAN_POINT('',(-2.853169549,25.927050983,-78.000000000));
#365 = CARTESIAN_POINT('',(-2.427050983,26.763355757,-78.000000000));
#366 = CARTESIAN_POINT('',(-1.763355757,27.427050983,-78.000000000));
#367 = CARTESIAN_POINT('',(-0.927050983,27.853169549,-78.000000000));
#368 = CARTESIAN_POINT('',(-0.000000000,28.000000000,-78.000000000));
#369 = CARTESIAN_POINT('',(0.927050983,27.853169549,-78.000000000));
#370 = CARTESIAN_POINT('',(1.763355757,27.427050983,-78.000000000));
#371 = CARTESIAN_POINT('',(2.427050983,26.763355757,-78.000000000));
#372 = CARTESIAN_POINT('',(2.853169549,25.927050983,-78.000000000));
#373 = CARTESIAN_POINT('',(3.000000000,25.000000000,-79.000000000));
#374 = CARTESIAN_POINT('',(2.853169549,24.072949017,-79.000000000));
#375 = CARTESIAN_POINT('',(2.427050983,23.236644243,-79.000000000));
#376 = CARTESIAN_POINT('',(1.763355757,22.572949017,-79.000000000));
#377 = CARTESIAN_POINT('',(0.927050983,22.146830451,-79.000000000));
#378 = CARTESIAN_POINT('',(0.000000000,22.000000000,-79.000000000));
#379 = CARTESIAN_POINT('',(-0.927050983,22.146830451,-79.000000000));
#380 = CARTESIAN_POINT('',(-1.763355757,22.572949017,-79.000000000));
#381 = CARTESIAN_POINT('',(-2.427050983,23.236644243,-79.000000000));
#382 = CARTESIAN_POINT('',(-2.853169549,24.072949017,-79.000000000));
#383 = CARTESIAN_POINT('',(-3.000000000,25.000000000,-79.000000000));
#384 = CARTESIAN_POINT('',(-2.853169549,25.927050983,-79.000000000));
#385 = CARTESIAN_POINT('',(-2.427050983,26.763355757,-79.000000000));
#386 = CARTESIAN_POINT('',(-1.763355757,27.427050983,-79.000000000));
#387 = CARTESIAN_POINT('',(-0.927050983,27.853169549,-79.000000000));
#388 = CARTESIAN_POINT('',(-0.000000000,28.000000000,-79.000000000));
#389 = CARTESIAN_POINT('',(0.927050983,27.853169549,-79.000000000));
#390 = CARTESIAN_POINT('',(1.763355757,27.427050983,-79.000000000));
#391 = CARTESIAN_POINT('',(2.427050983,26.763355757,-79.000000000));
#392 = CARTESIAN_POINT('',(2.853169549,25.927050983,-79.000000000));
#393 = POLY_LOOP('',(#372,#371,#370,#369,#368,#367,#366,#365,#364,#363,#362,#361,#360,#359,#358,#357,#356,#355,#354,#353));
#394 = FACE_OUTER_BOUND('',#393,.T.);
#395 = DIRECTION('',(0.000000000,0.000000000,1.000000000));
#396 = DIRECTION('',(-0.453990500,0.891006524,0.000000000));
#397 = AXIS2_PLACEMENT_3D('',#372,#395,#396);
#398 = PLANE('',#397);
#399 = FACE_SURFACE('',(#394),#398,.T.);
#400 = POLY_LOOP('',(#373,#374,#375,#376,#377,#378,#379,#380,#381,#382,#383,#384,#385,#386,#387,#388,#389,#390,#391,#392));
#401 = FACE_OUTER_BOUND('',#400,.T.);
#402 = DIRECTION('',(0.000000000,0.000000000,-1.000000000));
#403 = DIRECTION('',(-0.156434465,-0.987688341,0.000000000));
#404 = AXIS2_PLACEMENT_3D('',#373,#402,#403);
#405 = PLANE('',#404);
#406 = FACE_SURFACE('',(#401),#405,.T.);
#407 = POLY_LOOP('',(#353,#354,#374,#373));
#408 = FACE_OUTER_BOUND('',#407,.T.);
#409 = DIRECTION('',(0.987688341,-0.156434465,0.000000000));
#410 = DIRECTION('',(-0.156434465,-0.987688341,0.000000000));
#411 = AXIS2_PLACEMENT_3D('',#353,#409,#410);
#412 = PLANE('',#411);
#413 = FACE_SURFACE('',(#408),#412,.T.);
#414 = POLY_LOOP('',(#354,#355,#375,#374));
#415 = FACE_OUTER_BOUND('',#414,.T.);
#416 = DIRECTION('',(0.891006524,-0.453990500,0.000000000));
#417 = DIRECTION('',(-0.453990500,-0.891006524,0.000000000));
#418 = AXIS2_PLACEMENT_3D('',#354,#416,#417);
#419 = PLANE('',#418);
#420 = FACE_SURFACE('',(#415),#419,.T.);
#421 = POLY_LOOP('',(#355,#356,#376,#375));
#422 = FACE_OUTER_BOUND('',#421,.T.);
#423 = DIRECTION('',(0.707106781,-0.707106781,0.000000000));
#424 = DIRECTION('',(-0.707106781,-0.707106781,0.000000000));
#425 = AXIS2_PLACEMENT_3D('',#355,#423,#424);
#426 = PLANE('',#425);
#427 = FACE_SURFACE('',(#422),#426,.T.);
#428 = POLY_LOOP('',(#356,#357,#377,#376));
#429 = FACE_OUTER_BOUND('',#428,.T.);
#430 = DIRECTION('',(0.453990500,-0.891006524,0.000000000));
#431 = DIRECTION('',(-0.891006524,-0.453990500,0.000000000));
#432 = AXIS2_PLACEMENT_3D('',#356,#430,#431);
#433 = PLANE('',#432);
#434 = FACE_SURFACE('',(#429),#433,.T.);
#435 = POLY_LOOP('',(#357,#358,#378,#377));
#436 = FACE_OUTER_BOUND('',#435,.T.);
#437 = DIRECTION('',(0.156434465,-0.987688341,0.000000000));
#438 = DIRECTION('',(-0.987688341,-0.156434465,0.000000000));
#439 = AXIS2_PLACEMENT_3D('',#357,#437,#438);
#440 = PLANE('',#439);
#441 = FACE_SURFACE('',(#436),#440,.T.);
#442 = POLY_LOOP('',(#358,#359,#379,#378));
#443 = FACE_OUTER_BOUND('',#442,.T.);
#444 = DIRECTION('',(-0.156434465,-0.987688341,0.000000000));
#445 = DIRECTION('',(-0.987688341,0.156434465,0.000000000));
#446 = AXIS2_PLACEMENT_3D('',#358,#444,#445);
#447 = PLANE('',#446);
#448 = FACE_SURFACE('',(#443),#447,.T.);
#449 = POLY_LOOP('',(#359,#360,#380,#379));
#450 = FACE_OUTER_BOUND('',#449,.T.);
#451 = DIRECTION('',(-0.453990500,-0.891006524,0.000000000));
#452 = DIRECTION('',(-0.891006524,0.453990500,0.000000000));
#453 = AXIS2_PLACEMENT_3D('',#359,#451,#452);
#454 = PLANE('',#453);
#455 = FACE_SURFACE('',(#450),#454,.T.);
#456 = POLY_LOOP('',(#360,#361,#381,#380));
#457 = FACE_OUTER_BOUND('',#456,.T.);
#458 = DIRECTION('',(-0.707106781,-0.707106781,0.000000000));
#459 = DIRECTION('',(-0.707106781,0.707106781,0.000000000));
#460 = AXIS2_PLACEMENT_3D('',#360,#458,#459);
#461 = PLANE('',#460);
#462 = FACE_SURFACE('',(#457),#461,.T.);
#463 = POLY_LOOP('',(#361,#362,#382,#381));
#464 = FACE_OUTER_BOUND('',#463,.T.);
#465 = DIRECTION('',(-0.891006524,-0.453990500,0.000000000));
#466 = DIRECTION('',(-0.453990500,0.891006524,0.000000000));
#467 = AXIS2_PLACEMENT_3D('',#361,#465,#466);
#468 = PLANE('',#467);
#469 = FACE_SURFACE('',(#464),#468,.T.);
#470 = POLY_LOOP('',(#362,#363,#383,#382));
#471 = FACE_OUTER_BOUND('',#470,.T.);
#472 = DIRECTION('',(-0.987688341,-0.156434465,0.000000000));
#473 = DIRECTION('',(-0.156434465,0.987688341,0.000000000));
#474 = AXIS2_PLACEMENT_3D('',#362,#472,#473);
#475 = PLANE('',#474);
#476 = FACE_SURFACE('',(#471),#475,.T.);
#477 = POLY_LOOP('',(#363,#364,#384,#383));
#478 = FACE_OUTER_BOUND('',#477,.T.);
#479 = DIRECTION('',(-0.987688341,0.156434465,0.000000000));
#480 = DIRECTION('',(0.156434465,0.987688341,0.000000000));
#481 = AXIS2_PLACEMENT_3D('',#363,#479,#480);
#482 = PLANE('',#481);
#483 = FACE_SURFACE('',(#478),#482,.T.);
#484 = POLY_LOOP('',(#364,#365,#385,#384));
#485 = FACE_OUTER_BOUND('',#484,.T.);
#486 = DIRECTION('',(-0.891006524,0.453990500,0.000000000));
#487 = DIRECTION('',(0.453990500,0.891006524,0.000000000));
#488 = AXIS2_PLACEMENT_3D('',#364,#486,#487);
#489 = PLANE('',#488);
#490 = FACE_SURFACE('',(#485),#489,.T.);
#491 = POLY_LOOP('',(#365,#366,#386,#385));
#492 = FACE_OUTER_BOUND('',#491,.T.);
#493 = DIRECTION('',(-0.707106781,0.707106781,0.000000000));
#494 = DIRECTION('',(0.707106781,0.707106781,0.000000000));
#495 = AXIS2_PLACEMENT_3D('',#365,#493,#494);
#496 = PLANE('',#495);
#497 = FACE_SURFACE('',(#492),#496,.T.);
#498 = POLY_LOOP('',(#366,#367,#387,#386));
#499 = FACE_OUTER_BOUND('',#498,.T.);
#500 = DIRECTION('',(-0.453990500,0.891006524,0.000000000));
#501 = DIRECTION('',(0.891006524,0.453990500,0.000000000));
#502 = AXIS2_PLACEMENT_3D('',#366,#500,#501);
#503 = PLANE('',#502);
#504 = FACE_SURFACE('',(#499),#503,.T.);
#505 = POLY_LOOP('',(#367,#368,#388,#387));
#506 = FACE_OUTER_BOUND('',#505,.T.);
#507 = DIRECTION('',(-0.156434465,0.987688341,0.000000000));
#508 = DIRECTION('',(0.987688341,0.156434465,0.000000000));
#509 = AXIS2_PLACEMENT_3D('',#367,#507,#508);
#510 = PLANE('',#509);
#511 = FACE_SURFACE('',(#506),#510,.T.);
#512 = POLY_LOOP('',(#368,#369,#389,#388));
#513 = FACE_OUTER_BOUND('',#512,.T.);
#514 = DIRECTION('',(0.156434465,0.987688341,0.000000000));
#515 = DIRECTION('',(0.987688341,-0.156434465,0.000000000));
#516 = AXIS2_PLACEMENT_3D('',#368,#514,#515);
#517 = PLANE('',#516);
#518 = FACE_SURFACE('',(#513),#517,.T.);
#519 = POLY_LOOP('',(#369,#370,#390,#389));
#520 = FACE_OUTER_BOUND('',#519,.T.);
#521 = DIRECTION('',(0.453990500,0.891006524,0.000000000));
#522 = DIRECTION('',(0.891006524,-0.453990500,0.000000000));
#523 = AXIS2_PLACEMENT_3D('',#369,#521,#522);
#524 = PLANE('',#523);
#525 = FACE_SURFACE('',(#520),#524,.T.);
#526 = POLY_LOOP('',(#370,#371,#391,#390));
#527 = FACE_OUTER_BOUND('',#526,.T.);
#528 = DIRECTION('',(0.707106781,0.707106781,0.000000000));
#529 = DIRECTION('',(0.707106781,-0.707106781,0.000000000));
#530 = AXIS2_PLACEMENT_3D('',#370,#528,#529);
#531 = PLANE('',#530);
#532 = FACE_SURFACE('',(#527),#531,.T.);
#533 = POLY_LOOP('',(#371,#372,#392,#391));
#534 = FACE_OUTER_BOUND('',#533,.T.);
#535 = DIRECTION('',(0.891006524,0.453990500,0.000000000));
#536 = DIRECTION('',(0.453990500,-0.891006524,0.000000000));
#537 = AXIS2_PLACEMENT_3D('',#371,#535,#536);
#538 = PLANE('',#537);
#539 = FACE_SURFACE('',(#534),#538,.T.);
#540 = POLY_LOOP('',(#372,#353,#373,#392));
#541 = FACE_OUTER_BOUND('',#540,.T.);
#542 = DIRECTION('',(0.987688341,0.156434465,0.000000000));
#543 = DIRECTION('',(0.156434465,-0.987688341,0.000000000));
#544 = AXIS2_PLACEMENT_3D('',#372,#542,#543);
#545 = PLANE('',#544);
#546 = FACE_SURFACE('',(#541),#545,.T.);
#547 = CLOSED_SHELL('',(#399,#406,#413,#420,#427,#434,#441,#448,#455,#462,#469,#476,#483,#490,#497,#504,#511,#518,#525,#532,#539,#546));
#548 = FACETED_BREP('black port aperture',#547);
#549 = CARTESIAN_POINT('',(-6.000000000,9.000000000,-81.000000000));
#550 = CARTESIAN_POINT('',(6.000000000,9.000000000,-81.000000000));
#551 = CARTESIAN_POINT('',(6.000000000,19.000000000,-81.000000000));
#552 = CARTESIAN_POINT('',(-6.000000000,19.000000000,-81.000000000));
#553 = CARTESIAN_POINT('',(-6.000000000,9.000000000,-69.000000000));
#554 = CARTESIAN_POINT('',(6.000000000,9.000000000,-69.000000000));
#555 = CARTESIAN_POINT('',(6.000000000,19.000000000,-69.000000000));
#556 = CARTESIAN_POINT('',(-6.000000000,19.000000000,-69.000000000));
#557 = POLY_LOOP('',(#549,#552,#551,#550));
#558 = FACE_OUTER_BOUND('',#557,.T.);
#559 = DIRECTION('',(0.000000000,0.000000000,-1.000000000));
#560 = DIRECTION('',(0.000000000,1.000000000,0.000000000));
#561 = AXIS2_PLACEMENT_3D('',#549,#559,#560);
#562 = PLANE('',#561);
#563 = FACE_SURFACE('',(#558),#562,.T.);
#564 = POLY_LOOP('',(#553,#554,#555,#556));
#565 = FACE_OUTER_BOUND('',#564,.T.);
#566 = DIRECTION('',(0.000000000,0.000000000,1.000000000));
#567 = DIRECTION('',(1.000000000,0.000000000,0.000000000));
#568 = AXIS2_PLACEMENT_3D('',#553,#566,#567);
#569 = PLANE('',#568);
#570 = FACE_SURFACE('',(#565),#569,.T.);
#571 = POLY_LOOP('',(#549,#550,#554,#553));
#572 = FACE_OUTER_BOUND('',#571,.T.);
#573 = DIRECTION('',(0.000000000,-1.000000000,0.000000000));
#574 = DIRECTION('',(1.000000000,0.000000000,0.000000000));
#575 = AXIS2_PLACEMENT_3D('',#549,#573,#574);
#576 = PLANE('',#575);
#577 = FACE_SURFACE('',(#572),#576,.T.);
#578 = POLY_LOOP('',(#550,#551,#555,#554));
#579 = FACE_OUTER_BOUND('',#578,.T.);
#580 = DIRECTION('',(1.000000000,0.000000000,0.000000000));
#581 = DIRECTION('',(0.000000000,1.000000000,0.000000000));
#582 = AXIS2_PLACEMENT_3D('',#550,#580,#581);
#583 = PLANE('',#582);
#584 = FACE_SURFACE('',(#579),#583,.T.);
#585 = POLY_LOOP('',(#551,#552,#556,#555));
#586 = FACE_OUTER_BOUND('',#585,.T.);
#587 = DIRECTION('',(0.000000000,1.000000000,0.000000000));
#588 = DIRECTION('',(-1.000000000,0.000000000,0.000000000));
#589 = AXIS2_PLACEMENT_3D('',#551,#587,#588);
#590 = PLANE('',#589);
#591 = FACE_SURFACE('',(#586),#590,.T.);
#592 = POLY_LOOP('',(#552,#549,#553,#556));
#593 = FACE_OUTER_BOUND('',#592,.T.);
#594 = DIRECTION('',(-1.000000000,0.000000000,0.000000000));
#595 = DIRECTION('',(0.000000000,-1.000000000,0.000000000));
#596 = AXIS2_PLACEMENT_3D('',#552,#594,#595);
#597 = PLANE('',#596);
#598 = FACE_SURFACE('',(#593),#597,.T.);
#599 = CLOSED_SHELL('',(#563,#570,#577,#584,#591,#598));
#600 = FACETED_BREP('silver extraction latch',#599);
#601 = CARTESIAN_POINT('',(16.000000000,24.000000000,-47.000000000));
#602 = CARTESIAN_POINT('',(17.000000000,24.000000000,-47.000000000));
#603 = CARTESIAN_POINT('',(17.000000000,36.000000000,-47.000000000));
#604 = CARTESIAN_POINT('',(16.000000000,36.000000000,-47.000000000));
#605 = CARTESIAN_POINT('',(16.000000000,24.000000000,-39.000000000));
#606 = CARTESIAN_POINT('',(17.000000000,24.000000000,-39.000000000));
#607 = CARTESIAN_POINT('',(17.000000000,36.000000000,-39.000000000));
#608 = CARTESIAN_POINT('',(16.000000000,36.000000000,-39.000000000));
#609 = POLY_LOOP('',(#601,#604,#603,#602));
#610 = FACE_OUTER_BOUND('',#609,.T.);
#611 = DIRECTION('',(0.000000000,0.000000000,-1.000000000));
#612 = DIRECTION('',(0.000000000,1.000000000,0.000000000));
#613 = AXIS2_PLACEMENT_3D('',#601,#611,#612);
#614 = PLANE('',#613);
#615 = FACE_SURFACE('',(#610),#614,.T.);
#616 = POLY_LOOP('',(#605,#606,#607,#608));
#617 = FACE_OUTER_BOUND('',#616,.T.);
#618 = DIRECTION('',(0.000000000,0.000000000,1.000000000));
#619 = DIRECTION('',(1.000000000,0.000000000,0.000000000));
#620 = AXIS2_PLACEMENT_3D('',#605,#618,#619);
#621 = PLANE('',#620);
#622 = FACE_SURFACE('',(#617),#621,.T.);
#623 = POLY_LOOP('',(#601,#602,#606,#605));
#624 = FACE_OUTER_BOUND('',#623,.T.);
#625 = DIRECTION('',(0.000000000,-1.000000000,0.000000000));
#626 = DIRECTION('',(1.000000000,0.000000000,0.000000000));
#627 = AXIS2_PLACEMENT_3D('',#601,#625,#626);
#628 = PLANE('',#627);
#629 = FACE_SURFACE('',(#624),#628,.T.);
#630 = POLY_LOOP('',(#602,#603,#607,#606));
#631 = FACE_OUTER_BOUND('',#630,.T.);
#632 = DIRECTION('',(1.000000000,0.000000000,0.000000000));
#633 = DIRECTION('',(0.000000000,1.000000000,0.000000000));
#634 = AXIS2_PLACEMENT_3D('',#602,#632,#633);
#635 = PLANE('',#634);
#636 = FACE_SURFACE('',(#631),#635,.T.);
#637 = POLY_LOOP('',(#603,#604,#608,#607));
#638 = FACE_OUTER_BOUND('',#637,.T.);
#639 = DIRECTION('',(0.000000000,1.000000000,0.000000000));
#640 = DIRECTION('',(-1.000000000,0.000000000,0.000000000));
#641 = AXIS2_PLACEMENT_3D('',#603,#639,#640);
#642 = PLANE('',#641);
#643 = FACE_SURFACE('',(#638),#642,.T.);
#644 = POLY_LOOP('',(#604,#601,#605,#608));
#645 = FACE_OUTER_BOUND('',#644,.T.);
#646 = DIRECTION('',(-1.000000000,0.000000000,0.000000000));
#647 = DIRECTION('',(0.000000000,-1.000000000,0.000000000));
#648 = AXIS2_PLACEMENT_3D('',#604,#646,#647);
#649 = PLANE('',#648);
#650 = FACE_SURFACE('',(#645),#649,.T.);
#651 = CLOSED_SHELL('',(#615,#622,#629,#636,#643,#650));
#652 = FACETED_BREP('black vent',#651);
#653 = CARTESIAN_POINT('',(16.000000000,46.000000000,-47.000000000));
#654 = CARTESIAN_POINT('',(17.000000000,46.000000000,-47.000000000));
#655 = CARTESIAN_POINT('',(17.000000000,58.000000000,-47.000000000));
#656 = CARTESIAN_POINT('',(16.000000000,58.000000000,-47.000000000));
#657 = CARTESIAN_POINT('',(16.000000000,46.000000000,-39.000000000));
#658 = CARTESIAN_POINT('',(17.000000000,46.000000000,-39.000000000));
#659 = CARTESIAN_POINT('',(17.000000000,58.000000000,-39.000000000));
#660 = CARTESIAN_POINT('',(16.000000000,58.000000000,-39.000000000));
#661 = POLY_LOOP('',(#653,#656,#655,#654));
#662 = FACE_OUTER_BOUND('',#661,.T.);
#663 = DIRECTION('',(0.000000000,0.000000000,-1.000000000));
#664 = DIRECTION('',(0.000000000,1.000000000,0.000000000));
#665 = AXIS2_PLACEMENT_3D('',#653,#663,#664);
#666 = PLANE('',#665);
#667 = FACE_SURFACE('',(#662),#666,.T.);
#668 = POLY_LOOP('',(#657,#658,#659,#660));
#669 = FACE_OUTER_BOUND('',#668,.T.);
#670 = DIRECTION('',(0.000000000,0.000000000,1.000000000));
#671 = DIRECTION('',(1.000000000,0.000000000,0.000000000));
#672 = AXIS2_PLACEMENT_3D('',#657,#670,#671);
#673 = PLANE('',#672);
#674 = FACE_SURFACE('',(#669),#673,.T.);
#675 = POLY_LOOP('',(#653,#654,#658,#657));
#676 = FACE_OUTER_BOUND('',#675,.T.);
#677 = DIRECTION('',(0.000000000,-1.000000000,0.000000000));
#678 = DIRECTION('',(1.000000000,0.000000000,0.000000000));
#679 = AXIS2_PLACEMENT_3D('',#653,#677,#678);
#680 = PLANE('',#679);
#681 = FACE_SURFACE('',(#676),#680,.T.);
#682 = POLY_LOOP('',(#654,#655,#659,#658));
#683 = FACE_OUTER_BOUND('',#682,.T.);
#684 = DIRECTION('',(1.000000000,0.000000000,0.000000000));
#685 = DIRECTION('',(0.000000000,1.000000000,0.000000000));
#686 = AXIS2_PLACEMENT_3D('',#654,#684,#685);
#687 = PLANE('',#686);
#688 = FACE_SURFACE('',(#683),#687,.T.);
#689 = POLY_LOOP('',(#655,#656,#660,#659));
#690 = FACE_OUTER_BOUND('',#689,.T.);
#691 = DIRECTION('',(0.000000000,1.000000000,0.000000000));
#692 = DIRECTION('',(-1.000000000,0.000000000,0.000000000));
#693 = AXIS2_PLACEMENT_3D('',#655,#691,#692);
#694 = PLANE('',#693);
#695 = FACE_SURFACE('',(#690),#694,.T.);
#696 = POLY_LOOP('',(#656,#653,#657,#660));
#697 = FACE_OUTER_BOUND('',#696,.T.);
#698 = DIRECTION('',(-1.000000000,0.000000000,0.000000000));
#699 = DIRECTION('',(0.000000000,-1.000000000,0.000000000));
#700 = AXIS2_PLACEMENT_3D('',#656,#698,#699);
#701 = PLANE('',#700);
#702 = FACE_SURFACE('',(#697),#701,.T.);
#703 = CLOSED_SHELL('',(#667,#674,#681,#688,#695,#702));
#704 = FACETED_BREP('black vent',#703);
#705 = CARTESIAN_POINT('',(16.000000000,67.000000000,-47.000000000));
#706 = CARTESIAN_POINT('',(17.000000000,67.000000000,-47.000000000));
#707 = CARTESIAN_POINT('',(17.000000000,79.000000000,-47.000000000));
#708 = CARTESIAN_POINT('',(16.000000000,79.000000000,-47.000000000));
#709 = CARTESIAN_POINT('',(16.000000000,67.000000000,-39.000000000));
#710 = CARTESIAN_POINT('',(17.000000000,67.000000000,-39.000000000));
#711 = CARTESIAN_POINT('',(17.000000000,79.000000000,-39.000000000));
#712 = CARTESIAN_POINT('',(16.000000000,79.000000000,-39.000000000));
#713 = POLY_LOOP('',(#705,#708,#707,#706));
#714 = FACE_OUTER_BOUND('',#713,.T.);
#715 = DIRECTION('',(0.000000000,0.000000000,-1.000000000));
#716 = DIRECTION('',(0.000000000,1.000000000,0.000000000));
#717 = AXIS2_PLACEMENT_3D('',#705,#715,#716);
#718 = PLANE('',#717);
#719 = FACE_SURFACE('',(#714),#718,.T.);
#720 = POLY_LOOP('',(#709,#710,#711,#712));
#721 = FACE_OUTER_BOUND('',#720,.T.);
#722 = DIRECTION('',(0.000000000,0.000000000,1.000000000));
#723 = DIRECTION('',(1.000000000,0.000000000,0.000000000));
#724 = AXIS2_PLACEMENT_3D('',#709,#722,#723);
#725 = PLANE('',#724);
#726 = FACE_SURFACE('',(#721),#725,.T.);
#727 = POLY_LOOP('',(#705,#706,#710,#709));
#728 = FACE_OUTER_BOUND('',#727,.T.);
#729 = DIRECTION('',(0.000000000,-1.000000000,0.000000000));
#730 = DIRECTION('',(1.000000000,0.000000000,0.000000000));
#731 = AXIS2_PLACEMENT_3D('',#705,#729,#730);
#732 = PLANE('',#731);
#733 = FACE_SURFACE('',(#728),#732,.T.);
#734 = POLY_LOOP('',(#706,#707,#711,#710));
#735 = FACE_OUTER_BOUND('',#734,.T.);
#736 = DIRECTION('',(1.000000000,0.000000000,0.000000000));
#737 = DIRECTION('',(0.000000000,1.000000000,0.000000000));
#738 = AXIS2_PLACEMENT_3D('',#706,#736,#737);
#739 = PLANE('',#738);
#740 = FACE_SURFACE('',(#735),#739,.T.);
#741 = POLY_LOOP('',(#707,#708,#712,#711));
#742 = FACE_OUTER_BOUND('',#741,.T.);
#743 = DIRECTION('',(0.000000000,1.000000000,0.000000000));
#744 = DIRECTION('',(-1.000000000,0.000000000,0.000000000));
#745 = AXIS2_PLACEMENT_3D('',#707,#743,#744);
#746 = PLANE('',#745);
#747 = FACE_SURFACE('',(#742),#746,.T.);
#748 = POLY_LOOP('',(#708,#705,#709,#712));
#749 = FACE_OUTER_BOUND('',#748,.T.);
#750 = DIRECTION('',(-1.000000000,0.000000000,0.000000000));
#751 = DIRECTION('',(0.000000000,-1.000000000,0.000000000));
#752 = AXIS2_PLACEMENT_3D('',#708,#750,#751);
#753 = PLANE('',#752);
#754 = FACE_SURFACE('',(#749),#753,.T.);
#755 = CLOSED_SHELL('',(#719,#726,#733,#740,#747,#754));
#756 = FACETED_BREP('black vent',#755);
#757 = CARTESIAN_POINT('',(16.000000000,24.000000000,-23.000000000));
#758 = CARTESIAN_POINT('',(17.000000000,24.000000000,-23.000000000));
#759 = CARTESIAN_POINT('',(17.000000000,36.000000000,-23.000000000));
#760 = CARTESIAN_POINT('',(16.000000000,36.000000000,-23.000000000));
#761 = CARTESIAN_POINT('',(16.000000000,24.000000000,-15.000000000));
#762 = CARTESIAN_POINT('',(17.000000000,24.000000000,-15.000000000));
#763 = CARTESIAN_POINT('',(17.000000000,36.000000000,-15.000000000));
#764 = CARTESIAN_POINT('',(16.000000000,36.000000000,-15.000000000));
#765 = POLY_LOOP('',(#757,#760,#759,#758));
#766 = FACE_OUTER_BOUND('',#765,.T.);
#767 = DIRECTION('',(0.000000000,0.000000000,-1.000000000));
#768 = DIRECTION('',(0.000000000,1.000000000,0.000000000));
#769 = AXIS2_PLACEMENT_3D('',#757,#767,#768);
#770 = PLANE('',#769);
#771 = FACE_SURFACE('',(#766),#770,.T.);
#772 = POLY_LOOP('',(#761,#762,#763,#764));
#773 = FACE_OUTER_BOUND('',#772,.T.);
#774 = DIRECTION('',(0.000000000,0.000000000,1.000000000));
#775 = DIRECTION('',(1.000000000,0.000000000,0.000000000));
#776 = AXIS2_PLACEMENT_3D('',#761,#774,#775);
#777 = PLANE('',#776);
#778 = FACE_SURFACE('',(#773),#777,.T.);
#779 = POLY_LOOP('',(#757,#758,#762,#761));
#780 = FACE_OUTER_BOUND('',#779,.T.);
#781 = DIRECTION('',(0.000000000,-1.000000000,0.000000000));
#782 = DIRECTION('',(1.000000000,0.000000000,0.000000000));
#783 = AXIS2_PLACEMENT_3D('',#757,#781,#782);
#784 = PLANE('',#783);
#785 = FACE_SURFACE('',(#780),#784,.T.);
#786 = POLY_LOOP('',(#758,#759,#763,#762));
#787 = FACE_OUTER_BOUND('',#786,.T.);
#788 = DIRECTION('',(1.000000000,0.000000000,0.000000000));
#789 = DIRECTION('',(0.000000000,1.000000000,0.000000000));
#790 = AXIS2_PLACEMENT_3D('',#758,#788,#789);
#791 = PLANE('',#790);
#792 = FACE_SURFACE('',(#787),#791,.T.);
#793 = POLY_LOOP('',(#759,#760,#764,#763));
#794 = FACE_OUTER_BOUND('',#793,.T.);
#795 = DIRECTION('',(0.000000000,1.000000000,0.000000000));
#796 = DIRECTION('',(-1.000000000,0.000000000,0.000000000));
#797 = AXIS2_PLACEMENT_3D('',#759,#795,#796);
#798 = PLANE('',#797);
#799 = FACE_SURFACE('',(#794),#798,.T.);
#800 = POLY_LOOP('',(#760,#757,#761,#764));
#801 = FACE_OUTER_BOUND('',#800,.T.);
#802 = DIRECTION('',(-1.000000000,0.000000000,0.000000000));
#803 = DIRECTION('',(0.000000000,-1.000000000,0.000000000));
#804 = AXIS2_PLACEMENT_3D('',#760,#802,#803);
#805 = PLANE('',#804);
#806 = FACE_SURFACE('',(#801),#805,.T.);
#807 = CLOSED_SHELL('',(#771,#778,#785,#792,#799,#806));
#808 = FACETED_BREP('black vent',#807);
#809 = CARTESIAN_POINT('',(16.000000000,46.000000000,-23.000000000));
#810 = CARTESIAN_POINT('',(17.000000000,46.000000000,-23.000000000));
#811 = CARTESIAN_POINT('',(17.000000000,58.000000000,-23.000000000));
#812 = CARTESIAN_POINT('',(16.000000000,58.000000000,-23.000000000));
#813 = CARTESIAN_POINT('',(16.000000000,46.000000000,-15.000000000));
#814 = CARTESIAN_POINT('',(17.000000000,46.000000000,-15.000000000));
#815 = CARTESIAN_POINT('',(17.000000000,58.000000000,-15.000000000));
#816 = CARTESIAN_POINT('',(16.000000000,58.000000000,-15.000000000));
#817 = POLY_LOOP('',(#809,#812,#811,#810));
#818 = FACE_OUTER_BOUND('',#817,.T.);
#819 = DIRECTION('',(0.000000000,0.000000000,-1.000000000));
#820 = DIRECTION('',(0.000000000,1.000000000,0.000000000));
#821 = AXIS2_PLACEMENT_3D('',#809,#819,#820);
#822 = PLANE('',#821);
#823 = FACE_SURFACE('',(#818),#822,.T.);
#824 = POLY_LOOP('',(#813,#814,#815,#816));
#825 = FACE_OUTER_BOUND('',#824,.T.);
#826 = DIRECTION('',(0.000000000,0.000000000,1.000000000));
#827 = DIRECTION('',(1.000000000,0.000000000,0.000000000));
#828 = AXIS2_PLACEMENT_3D('',#813,#826,#827);
#829 = PLANE('',#828);
#830 = FACE_SURFACE('',(#825),#829,.T.);
#831 = POLY_LOOP('',(#809,#810,#814,#813));
#832 = FACE_OUTER_BOUND('',#831,.T.);
#833 = DIRECTION('',(0.000000000,-1.000000000,0.000000000));
#834 = DIRECTION('',(1.000000000,0.000000000,0.000000000));
#835 = AXIS2_PLACEMENT_3D('',#809,#833,#834);
#836 = PLANE('',#835);
#837 = FACE_SURFACE('',(#832),#836,.T.);
#838 = POLY_LOOP('',(#810,#811,#815,#814));
#839 = FACE_OUTER_BOUND('',#838,.T.);
#840 = DIRECTION('',(1.000000000,0.000000000,0.000000000));
#841 = DIRECTION('',(0.000000000,1.000000000,0.000000000));
#842 = AXIS2_PLACEMENT_3D('',#810,#840,#841);
#843 = PLANE('',#842);
#844 = FACE_SURFACE('',(#839),#843,.T.);
#845 = POLY_LOOP('',(#811,#812,#816,#815));
#846 = FACE_OUTER_BOUND('',#845,.T.);
#847 = DIRECTION('',(0.000000000,1.000000000,0.000000000));
#848 = DIRECTION('',(-1.000000000,0.000000000,0.000000000));
#849 = AXIS2_PLACEMENT_3D('',#811,#847,#848);
#850 = PLANE('',#849);
#851 = FACE_SURFACE('',(#846),#850,.T.);
#852 = POLY_LOOP('',(#812,#809,#813,#816));
#853 = FACE_OUTER_BOUND('',#852,.T.);
#854 = DIRECTION('',(-1.000000000,0.000000000,0.000000000));
#855 = DIRECTION('',(0.000000000,-1.000000000,0.000000000));
#856 = AXIS2_PLACEMENT_3D('',#812,#854,#855);
#857 = PLANE('',#856);
#858 = FACE_SURFACE('',(#853),#857,.T.);
#859 = CLOSED_SHELL('',(#823,#830,#837,#844,#851,#858));
#860 = FACETED_BREP('black vent',#859);
#861 = CARTESIAN_POINT('',(16.000000000,67.000000000,-23.000000000));
#862 = CARTESIAN_POINT('',(17.000000000,67.000000000,-23.000000000));
#863 = CARTESIAN_POINT('',(17.000000000,79.000000000,-23.000000000));
#864 = CARTESIAN_POINT('',(16.000000000,79.000000000,-23.000000000));
#865 = CARTESIAN_POINT('',(16.000000000,67.000000000,-15.000000000));
#866 = CARTESIAN_POINT('',(17.000000000,67.000000000,-15.000000000));
#867 = CARTESIAN_POINT('',(17.000000000,79.000000000,-15.000000000));
#868 = CARTESIAN_POINT('',(16.000000000,79.000000000,-15.000000000));
#869 = POLY_LOOP('',(#861,#864,#863,#862));
#870 = FACE_OUTER_BOUND('',#869,.T.);
#871 = DIRECTION('',(0.000000000,0.000000000,-1.000000000));
#872 = DIRECTION('',(0.000000000,1.000000000,0.000000000));
#873 = AXIS2_PLACEMENT_3D('',#861,#871,#872);
#874 = PLANE('',#873);
#875 = FACE_SURFACE('',(#870),#874,.T.);
#876 = POLY_LOOP('',(#865,#866,#867,#868));
#877 = FACE_OUTER_BOUND('',#876,.T.);
#878 = DIRECTION('',(0.000000000,0.000000000,1.000000000));
#879 = DIRECTION('',(1.000000000,0.000000000,0.000000000));
#880 = AXIS2_PLACEMENT_3D('',#865,#878,#879);
#881 = PLANE('',#880);
#882 = FACE_SURFACE('',(#877),#881,.T.);
#883 = POLY_LOOP('',(#861,#862,#866,#865));
#884 = FACE_OUTER_BOUND('',#883,.T.);
#885 = DIRECTION('',(0.000000000,-1.000000000,0.000000000));
#886 = DIRECTION('',(1.000000000,0.000000000,0.000000000));
#887 = AXIS2_PLACEMENT_3D('',#861,#885,#886);
#888 = PLANE('',#887);
#889 = FACE_SURFACE('',(#884),#888,.T.);
#890 = POLY_LOOP('',(#862,#863,#867,#866));
#891 = FACE_OUTER_BOUND('',#890,.T.);
#892 = DIRECTION('',(1.000000000,0.000000000,0.000000000));
#893 = DIRECTION('',(0.000000000,1.000000000,0.000000000));
#894 = AXIS2_PLACEMENT_3D('',#862,#892,#893);
#895 = PLANE('',#894);
#896 = FACE_SURFACE('',(#891),#895,.T.);
#897 = POLY_LOOP('',(#863,#864,#868,#867));
#898 = FACE_OUTER_BOUND('',#897,.T.);
#899 = DIRECTION('',(0.000000000,1.000000000,0.000000000));
#900 = DIRECTION('',(-1.000000000,0.000000000,0.000000000));
#901 = AXIS2_PLACEMENT_3D('',#863,#899,#900);
#902 = PLANE('',#901);
#903 = FACE_SURFACE('',(#898),#902,.T.);
#904 = POLY_LOOP('',(#864,#861,#865,#868));
#905 = FACE_OUTER_BOUND('',#904,.T.);
#906 = DIRECTION('',(-1.000000000,0.000000000,0.000000000));
#907 = DIRECTION('',(0.000000000,-1.000000000,0.000000000));
#908 = AXIS2_PLACEMENT_3D('',#864,#906,#907);
#909 = PLANE('',#908);
#910 = FACE_SURFACE('',(#905),#909,.T.);
#911 = CLOSED_SHELL('',(#875,#882,#889,#896,#903,#910));
#912 = FACETED_BREP('black vent',#911);
#913 = CARTESIAN_POINT('',(16.000000000,24.000000000,1.000000000));
#914 = CARTESIAN_POINT('',(17.000000000,24.000000000,1.000000000));
#915 = CARTESIAN_POINT('',(17.000000000,36.000000000,1.000000000));
#916 = CARTESIAN_POINT('',(16.000000000,36.000000000,1.000000000));
#917 = CARTESIAN_POINT('',(16.000000000,24.000000000,9.000000000));
#918 = CARTESIAN_POINT('',(17.000000000,24.000000000,9.000000000));
#919 = CARTESIAN_POINT('',(17.000000000,36.000000000,9.000000000));
#920 = CARTESIAN_POINT('',(16.000000000,36.000000000,9.000000000));
#921 = POLY_LOOP('',(#913,#916,#915,#914));
#922 = FACE_OUTER_BOUND('',#921,.T.);
#923 = DIRECTION('',(0.000000000,0.000000000,-1.000000000));
#924 = DIRECTION('',(0.000000000,1.000000000,0.000000000));
#925 = AXIS2_PLACEMENT_3D('',#913,#923,#924);
#926 = PLANE('',#925);
#927 = FACE_SURFACE('',(#922),#926,.T.);
#928 = POLY_LOOP('',(#917,#918,#919,#920));
#929 = FACE_OUTER_BOUND('',#928,.T.);
#930 = DIRECTION('',(0.000000000,0.000000000,1.000000000));
#931 = DIRECTION('',(1.000000000,0.000000000,0.000000000));
#932 = AXIS2_PLACEMENT_3D('',#917,#930,#931);
#933 = PLANE('',#932);
#934 = FACE_SURFACE('',(#929),#933,.T.);
#935 = POLY_LOOP('',(#913,#914,#918,#917));
#936 = FACE_OUTER_BOUND('',#935,.T.);
#937 = DIRECTION('',(0.000000000,-1.000000000,0.000000000));
#938 = DIRECTION('',(1.000000000,0.000000000,0.000000000));
#939 = AXIS2_PLACEMENT_3D('',#913,#937,#938);
#940 = PLANE('',#939);
#941 = FACE_SURFACE('',(#936),#940,.T.);
#942 = POLY_LOOP('',(#914,#915,#919,#918));
#943 = FACE_OUTER_BOUND('',#942,.T.);
#944 = DIRECTION('',(1.000000000,0.000000000,0.000000000));
#945 = DIRECTION('',(0.000000000,1.000000000,0.000000000));
#946 = AXIS2_PLACEMENT_3D('',#914,#944,#945);
#947 = PLANE('',#946);
#948 = FACE_SURFACE('',(#943),#947,.T.);
#949 = POLY_LOOP('',(#915,#916,#920,#919));
#950 = FACE_OUTER_BOUND('',#949,.T.);
#951 = DIRECTION('',(0.000000000,1.000000000,0.000000000));
#952 = DIRECTION('',(-1.000000000,0.000000000,0.000000000));
#953 = AXIS2_PLACEMENT_3D('',#915,#951,#952);
#954 = PLANE('',#953);
#955 = FACE_SURFACE('',(#950),#954,.T.);
#956 = POLY_LOOP('',(#916,#913,#917,#920));
#957 = FACE_OUTER_BOUND('',#956,.T.);
#958 = DIRECTION('',(-1.000000000,0.000000000,0.000000000));
#959 = DIRECTION('',(0.000000000,-1.000000000,0.000000000));
#960 = AXIS2_PLACEMENT_3D('',#916,#958,#959);
#961 = PLANE('',#960);
#962 = FACE_SURFACE('',(#957),#961,.T.);
#963 = CLOSED_SHELL('',(#927,#934,#941,#948,#955,#962));
#964 = FACETED_BREP('black vent',#963);
#965 = CARTESIAN_POINT('',(16.000000000,46.000000000,1.000000000));
#966 = CARTESIAN_POINT('',(17.000000000,46.000000000,1.000000000));
#967 = CARTESIAN_POINT('',(17.000000000,58.000000000,1.000000000));
#968 = CARTESIAN_POINT('',(16.000000000,58.000000000,1.000000000));
#969 = CARTESIAN_POINT('',(16.000000000,46.000000000,9.000000000));
#970 = CARTESIAN_POINT('',(17.000000000,46.000000000,9.000000000));
#971 = CARTESIAN_POINT('',(17.000000000,58.000000000,9.000000000));
#972 = CARTESIAN_POINT('',(16.000000000,58.000000000,9.000000000));
#973 = POLY_LOOP('',(#965,#968,#967,#966));
#974 = FACE_OUTER_BOUND('',#973,.T.);
#975 = DIRECTION('',(0.000000000,0.000000000,-1.000000000));
#976 = DIRECTION('',(0.000000000,1.000000000,0.000000000));
#977 = AXIS2_PLACEMENT_3D('',#965,#975,#976);
#978 = PLANE('',#977);
#979 = FACE_SURFACE('',(#974),#978,.T.);
#980 = POLY_LOOP('',(#969,#970,#971,#972));
#981 = FACE_OUTER_BOUND('',#980,.T.);
#982 = DIRECTION('',(0.000000000,0.000000000,1.000000000));
#983 = DIRECTION('',(1.000000000,0.000000000,0.000000000));
#984 = AXIS2_PLACEMENT_3D('',#969,#982,#983);
#985 = PLANE('',#984);
#986 = FACE_SURFACE('',(#981),#985,.T.);
#987 = POLY_LOOP('',(#965,#966,#970,#969));
#988 = FACE_OUTER_BOUND('',#987,.T.);
#989 = DIRECTION('',(0.000000000,-1.000000000,0.000000000));
#990 = DIRECTION('',(1.000000000,0.000000000,0.000000000));
#991 = AXIS2_PLACEMENT_3D('',#965,#989,#990);
#992 = PLANE('',#991);
#993 = FACE_SURFACE('',(#988),#992,.T.);
#994 = POLY_LOOP('',(#966,#967,#971,#970));
#995 = FACE_OUTER_BOUND('',#994,.T.);
#996 = DIRECTION('',(1.000000000,0.000000000,0.000000000));
#997 = DIRECTION('',(0.000000000,1.000000000,0.000000000));
#998 = AXIS2_PLACEMENT_3D('',#966,#996,#997);
#999 = PLANE('',#998);
#1000 = FACE_SURFACE('',(#995),#999,.T.);
#1001 = POLY_LOOP('',(#967,#968,#972,#971));
#1002 = FACE_OUTER_BOUND('',#1001,.T.);
#1003 = DIRECTION('',(0.000000000,1.000000000,0.000000000));
#1004 = DIRECTION('',(-1.000000000,0.000000000,0.000000000));
#1005 = AXIS2_PLACEMENT_3D('',#967,#1003,#1004);
#1006 = PLANE('',#1005);
#1007 = FACE_SURFACE('',(#1002),#1006,.T.);
#1008 = POLY_LOOP('',(#968,#965,#969,#972));
#1009 = FACE_OUTER_BOUND('',#1008,.T.);
#1010 = DIRECTION('',(-1.000000000,0.000000000,0.000000000));
#1011 = DIRECTION('',(0.000000000,-1.000000000,0.000000000));
#1012 = AXIS2_PLACEMENT_3D('',#968,#1010,#1011);
#1013 = PLANE('',#1012);
#1014 = FACE_SURFACE('',(#1009),#1013,.T.);
#1015 = CLOSED_SHELL('',(#979,#986,#993,#1000,#1007,#1014));
#1016 = FACETED_BREP('black vent',#1015);
#1017 = CARTESIAN_POINT('',(16.000000000,67.000000000,1.000000000));
#1018 = CARTESIAN_POINT('',(17.000000000,67.000000000,1.000000000));
#1019 = CARTESIAN_POINT('',(17.000000000,79.000000000,1.000000000));
#1020 = CARTESIAN_POINT('',(16.000000000,79.000000000,1.000000000));
#1021 = CARTESIAN_POINT('',(16.000000000,67.000000000,9.000000000));
#1022 = CARTESIAN_POINT('',(17.000000000,67.000000000,9.000000000));
#1023 = CARTESIAN_POINT('',(17.000000000,79.000000000,9.000000000));
#1024 = CARTESIAN_POINT('',(16.000000000,79.000000000,9.000000000));
#1025 = POLY_LOOP('',(#1017,#1020,#1019,#1018));
#1026 = FACE_OUTER_BOUND('',#1025,.T.);
#1027 = DIRECTION('',(0.000000000,0.000000000,-1.000000000));
#1028 = DIRECTION('',(0.000000000,1.000000000,0.000000000));
#1029 = AXIS2_PLACEMENT_3D('',#1017,#1027,#1028);
#1030 = PLANE('',#1029);
#1031 = FACE_SURFACE('',(#1026),#1030,.T.);
#1032 = POLY_LOOP('',(#1021,#1022,#1023,#1024));
#1033 = FACE_OUTER_BOUND('',#1032,.T.);
#1034 = DIRECTION('',(0.000000000,0.000000000,1.000000000));
#1035 = DIRECTION('',(1.000000000,0.000000000,0.000000000));
#1036 = AXIS2_PLACEMENT_3D('',#1021,#1034,#1035);
#1037 = PLANE('',#1036);
#1038 = FACE_SURFACE('',(#1033),#1037,.T.);
#1039 = POLY_LOOP('',(#1017,#1018,#1022,#1021));
#1040 = FACE_OUTER_BOUND('',#1039,.T.);
#1041 = DIRECTION('',(0.000000000,-1.000000000,0.000000000));
#1042 = DIRECTION('',(1.000000000,0.000000000,0.000000000));
#1043 = AXIS2_PLACEMENT_3D('',#1017,#1041,#1042);
#1044 = PLANE('',#1043);
#1045 = FACE_SURFACE('',(#1040),#1044,.T.);
#1046 = POLY_LOOP('',(#1018,#1019,#1023,#1022));
#1047 = FACE_OUTER_BOUND('',#1046,.T.);
#1048 = DIRECTION('',(1.000000000,0.000000000,0.000000000));
#1049 = DIRECTION('',(0.000000000,1.000000000,0.000000000));
#1050 = AXIS2_PLACEMENT_3D('',#1018,#1048,#1049);
#1051 = PLANE('',#1050);
#1052 = FACE_SURFACE('',(#1047),#1051,.T.);
#1053 = POLY_LOOP('',(#1019,#1020,#1024,#1023));
#1054 = FACE_OUTER_BOUND('',#1053,.T.);
#1055 = DIRECTION('',(0.000000000,1.000000000,0.000000000));
#1056 = DIRECTION('',(-1.000000000,0.000000000,0.000000000));
#1057 = AXIS2_PLACEMENT_3D('',#1019,#1055,#1056);
#1058 = PLANE('',#1057);
#1059 = FACE_SURFACE('',(#1054),#1058,.T.);
#1060 = POLY_LOOP('',(#1020,#1017,#1021,#1024));
#1061 = FACE_OUTER_BOUND('',#1060,.T.);
#1062 = DIRECTION('',(-1.000000000,0.000000000,0.000000000));
#1063 = DIRECTION('',(0.000000000,-1.000000000,0.000000000));
#1064 = AXIS2_PLACEMENT_3D('',#1020,#1062,#1063);
#1065 = PLANE('',#1064);
#1066 = FACE_SURFACE('',(#1061),#1065,.T.);
#1067 = CLOSED_SHELL('',(#1031,#1038,#1045,#1052,#1059,#1066));
#1068 = FACETED_BREP('black vent',#1067);
#1069 = CARTESIAN_POINT('',(16.000000000,24.000000000,25.000000000));
#1070 = CARTESIAN_POINT('',(17.000000000,24.000000000,25.000000000));
#1071 = CARTESIAN_POINT('',(17.000000000,36.000000000,25.000000000));
#1072 = CARTESIAN_POINT('',(16.000000000,36.000000000,25.000000000));
#1073 = CARTESIAN_POINT('',(16.000000000,24.000000000,33.000000000));
#1074 = CARTESIAN_POINT('',(17.000000000,24.000000000,33.000000000));
#1075 = CARTESIAN_POINT('',(17.000000000,36.000000000,33.000000000));
#1076 = CARTESIAN_POINT('',(16.000000000,36.000000000,33.000000000));
#1077 = POLY_LOOP('',(#1069,#1072,#1071,#1070));
#1078 = FACE_OUTER_BOUND('',#1077,.T.);
#1079 = DIRECTION('',(0.000000000,0.000000000,-1.000000000));
#1080 = DIRECTION('',(0.000000000,1.000000000,0.000000000));
#1081 = AXIS2_PLACEMENT_3D('',#1069,#1079,#1080);
#1082 = PLANE('',#1081);
#1083 = FACE_SURFACE('',(#1078),#1082,.T.);
#1084 = POLY_LOOP('',(#1073,#1074,#1075,#1076));
#1085 = FACE_OUTER_BOUND('',#1084,.T.);
#1086 = DIRECTION('',(0.000000000,0.000000000,1.000000000));
#1087 = DIRECTION('',(1.000000000,0.000000000,0.000000000));
#1088 = AXIS2_PLACEMENT_3D('',#1073,#1086,#1087);
#1089 = PLANE('',#1088);
#1090 = FACE_SURFACE('',(#1085),#1089,.T.);
#1091 = POLY_LOOP('',(#1069,#1070,#1074,#1073));
#1092 = FACE_OUTER_BOUND('',#1091,.T.);
#1093 = DIRECTION('',(0.000000000,-1.000000000,0.000000000));
#1094 = DIRECTION('',(1.000000000,0.000000000,0.000000000));
#1095 = AXIS2_PLACEMENT_3D('',#1069,#1093,#1094);
#1096 = PLANE('',#1095);
#1097 = FACE_SURFACE('',(#1092),#1096,.T.);
#1098 = POLY_LOOP('',(#1070,#1071,#1075,#1074));
#1099 = FACE_OUTER_BOUND('',#1098,.T.);
#1100 = DIRECTION('',(1.000000000,0.000000000,0.000000000));
#1101 = DIRECTION('',(0.000000000,1.000000000,0.000000000));
#1102 = AXIS2_PLACEMENT_3D('',#1070,#1100,#1101);
#1103 = PLANE('',#1102);
#1104 = FACE_SURFACE('',(#1099),#1103,.T.);
#1105 = POLY_LOOP('',(#1071,#1072,#1076,#1075));
#1106 = FACE_OUTER_BOUND('',#1105,.T.);
#1107 = DIRECTION('',(0.000000000,1.000000000,0.000000000));
#1108 = DIRECTION('',(-1.000000000,0.000000000,0.000000000));
#1109 = AXIS2_PLACEMENT_3D('',#1071,#1107,#1108);
#1110 = PLANE('',#1109);
#1111 = FACE_SURFACE('',(#1106),#1110,.T.);
#1112 = POLY_LOOP('',(#1072,#1069,#1073,#1076));
#1113 = FACE_OUTER_BOUND('',#1112,.T.);
#1114 = DIRECTION('',(-1.000000000,0.000000000,0.000000000));
#1115 = DIRECTION('',(0.000000000,-1.000000000,0.000000000));
#1116 = AXIS2_PLACEMENT_3D('',#1072,#1114,#1115);
#1117 = PLANE('',#1116);
#1118 = FACE_SURFACE('',(#1113),#1117,.T.);
#1119 = CLOSED_SHELL('',(#1083,#1090,#1097,#1104,#1111,#1118));
#1120 = FACETED_BREP('black vent',#1119);
#1121 = CARTESIAN_POINT('',(16.000000000,46.000000000,25.000000000));
#1122 = CARTESIAN_POINT('',(17.000000000,46.000000000,25.000000000));
#1123 = CARTESIAN_POINT('',(17.000000000,58.000000000,25.000000000));
#1124 = CARTESIAN_POINT('',(16.000000000,58.000000000,25.000000000));
#1125 = CARTESIAN_POINT('',(16.000000000,46.000000000,33.000000000));
#1126 = CARTESIAN_POINT('',(17.000000000,46.000000000,33.000000000));
#1127 = CARTESIAN_POINT('',(17.000000000,58.000000000,33.000000000));
#1128 = CARTESIAN_POINT('',(16.000000000,58.000000000,33.000000000));
#1129 = POLY_LOOP('',(#1121,#1124,#1123,#1122));
#1130 = FACE_OUTER_BOUND('',#1129,.T.);
#1131 = DIRECTION('',(0.000000000,0.000000000,-1.000000000));
#1132 = DIRECTION('',(0.000000000,1.000000000,0.000000000));
#1133 = AXIS2_PLACEMENT_3D('',#1121,#1131,#1132);
#1134 = PLANE('',#1133);
#1135 = FACE_SURFACE('',(#1130),#1134,.T.);
#1136 = POLY_LOOP('',(#1125,#1126,#1127,#1128));
#1137 = FACE_OUTER_BOUND('',#1136,.T.);
#1138 = DIRECTION('',(0.000000000,0.000000000,1.000000000));
#1139 = DIRECTION('',(1.000000000,0.000000000,0.000000000));
#1140 = AXIS2_PLACEMENT_3D('',#1125,#1138,#1139);
#1141 = PLANE('',#1140);
#1142 = FACE_SURFACE('',(#1137),#1141,.T.);
#1143 = POLY_LOOP('',(#1121,#1122,#1126,#1125));
#1144 = FACE_OUTER_BOUND('',#1143,.T.);
#1145 = DIRECTION('',(0.000000000,-1.000000000,0.000000000));
#1146 = DIRECTION('',(1.000000000,0.000000000,0.000000000));
#1147 = AXIS2_PLACEMENT_3D('',#1121,#1145,#1146);
#1148 = PLANE('',#1147);
#1149 = FACE_SURFACE('',(#1144),#1148,.T.);
#1150 = POLY_LOOP('',(#1122,#1123,#1127,#1126));
#1151 = FACE_OUTER_BOUND('',#1150,.T.);
#1152 = DIRECTION('',(1.000000000,0.000000000,0.000000000));
#1153 = DIRECTION('',(0.000000000,1.000000000,0.000000000));
#1154 = AXIS2_PLACEMENT_3D('',#1122,#1152,#1153);
#1155 = PLANE('',#1154);
#1156 = FACE_SURFACE('',(#1151),#1155,.T.);
#1157 = POLY_LOOP('',(#1123,#1124,#1128,#1127));
#1158 = FACE_OUTER_BOUND('',#1157,.T.);
#1159 = DIRECTION('',(0.000000000,1.000000000,0.000000000));
#1160 = DIRECTION('',(-1.000000000,0.000000000,0.000000000));
#1161 = AXIS2_PLACEMENT_3D('',#1123,#1159,#1160);
#1162 = PLANE('',#1161);
#1163 = FACE_SURFACE('',(#1158),#1162,.T.);
#1164 = POLY_LOOP('',(#1124,#1121,#1125,#1128));
#1165 = FACE_OUTER_BOUND('',#1164,.T.);
#1166 = DIRECTION('',(-1.000000000,0.000000000,0.000000000));
#1167 = DIRECTION('',(0.000000000,-1.000000000,0.000000000));
#1168 = AXIS2_PLACEMENT_3D('',#1124,#1166,#1167);
#1169 = PLANE('',#1168);
#1170 = FACE_SURFACE('',(#1165),#1169,.T.);
#1171 = CLOSED_SHELL('',(#1135,#1142,#1149,#1156,#1163,#1170));
#1172 = FACETED_BREP('black vent',#1171);
#1173 = CARTESIAN_POINT('',(16.000000000,67.000000000,25.000000000));
#1174 = CARTESIAN_POINT('',(17.000000000,67.000000000,25.000000000));
#1175 = CARTESIAN_POINT('',(17.000000000,79.000000000,25.000000000));
#1176 = CARTESIAN_POINT('',(16.000000000,79.000000000,25.000000000));
#1177 = CARTESIAN_POINT('',(16.000000000,67.000000000,33.000000000));
#1178 = CARTESIAN_POINT('',(17.000000000,67.000000000,33.000000000));
#1179 = CARTESIAN_POINT('',(17.000000000,79.000000000,33.000000000));
#1180 = CARTESIAN_POINT('',(16.000000000,79.000000000,33.000000000));
#1181 = POLY_LOOP('',(#1173,#1176,#1175,#1174));
#1182 = FACE_OUTER_BOUND('',#1181,.T.);
#1183 = DIRECTION('',(0.000000000,0.000000000,-1.000000000));
#1184 = DIRECTION('',(0.000000000,1.000000000,0.000000000));
#1185 = AXIS2_PLACEMENT_3D('',#1173,#1183,#1184);
#1186 = PLANE('',#1185);
#1187 = FACE_SURFACE('',(#1182),#1186,.T.);
#1188 = POLY_LOOP('',(#1177,#1178,#1179,#1180));
#1189 = FACE_OUTER_BOUND('',#1188,.T.);
#1190 = DIRECTION('',(0.000000000,0.000000000,1.000000000));
#1191 = DIRECTION('',(1.000000000,0.000000000,0.000000000));
#1192 = AXIS2_PLACEMENT_3D('',#1177,#1190,#1191);
#1193 = PLANE('',#1192);
#1194 = FACE_SURFACE('',(#1189),#1193,.T.);
#1195 = POLY_LOOP('',(#1173,#1174,#1178,#1177));
#1196 = FACE_OUTER_BOUND('',#1195,.T.);
#1197 = DIRECTION('',(0.000000000,-1.000000000,0.000000000));
#1198 = DIRECTION('',(1.000000000,0.000000000,0.000000000));
#1199 = AXIS2_PLACEMENT_3D('',#1173,#1197,#1198);
#1200 = PLANE('',#1199);
#1201 = FACE_SURFACE('',(#1196),#1200,.T.);
#1202 = POLY_LOOP('',(#1174,#1175,#1179,#1178));
#1203 = FACE_OUTER_BOUND('',#1202,.T.);
#1204 = DIRECTION('',(1.000000000,0.000000000,0.000000000));
#1205 = DIRECTION('',(0.000000000,1.000000000,0.000000000));
#1206 = AXIS2_PLACEMENT_3D('',#1174,#1204,#1205);
#1207 = PLANE('',#1206);
#1208 = FACE_SURFACE('',(#1203),#1207,.T.);
#1209 = POLY_LOOP('',(#1175,#1176,#1180,#1179));
#1210 = FACE_OUTER_BOUND('',#1209,.T.);
#1211 = DIRECTION('',(0.000000000,1.000000000,0.000000000));
#1212 = DIRECTION('',(-1.000000000,0.000000000,0.000000000));
#1213 = AXIS2_PLACEMENT_3D('',#1175,#1211,#1212);
#1214 = PLANE('',#1213);
#1215 = FACE_SURFACE('',(#1210),#1214,.T.);
#1216 = POLY_LOOP('',(#1176,#1173,#1177,#1180));
#1217 = FACE_OUTER_BOUND('',#1216,.T.);
#1218 = DIRECTION('',(-1.000000000,0.000000000,0.000000000));
#1219 = DIRECTION('',(0.000000000,-1.000000000,0.000000000));
#1220 = AXIS2_PLACEMENT_3D('',#1176,#1218,#1219);
#1221 = PLANE('',#1220);
#1222 = FACE_SURFACE('',(#1217),#1221,.T.);
#1223 = CLOSED_SHELL('',(#1187,#1194,#1201,#1208,#1215,#1222));
#1224 = FACETED_BREP('black vent',#1223);
#1225 = APPLICATION_CONTEXT('configuration controlled 3d designs of mechanical parts and assemblies');
#1226 = APPLICATION_PROTOCOL_DEFINITION('international standard','config_control_design',1994,#1225);
#1227 = PRODUCT_CONTEXT('',#1225,'mechanical');
#1228 = PRODUCT('REF','Illustrative reference','NOT vendor CAD',(#1227));
#1229 = PRODUCT_DEFINITION_FORMATION_WITH_SPECIFIED_SOURCE('','',#1228,.NOT_KNOWN.);
#1230 = PRODUCT_DEFINITION_CONTEXT('part definition',#1225,'design');
#1231 = PRODUCT_DEFINITION('design','',#1229,#1230);
#1232 = PRODUCT_DEFINITION_SHAPE('','',#1231);
#1233 = (LENGTH_UNIT()NAMED_UNIT(*)SI_UNIT(.MILLI.,.METRE.));
#1234 = (NAMED_UNIT(*)PLANE_ANGLE_UNIT()SI_UNIT($,.RADIAN.));
#1235 = (NAMED_UNIT(*)SI_UNIT($,.STERADIAN.)SOLID_ANGLE_UNIT());
#1236 = UNCERTAINTY_MEASURE_WITH_UNIT(LENGTH_MEASURE(0.000001),#1233,'distance_accuracy_value','');
#1237 = (GEOMETRIC_REPRESENTATION_CONTEXT(3)GLOBAL_UNCERTAINTY_ASSIGNED_CONTEXT((#1236))GLOBAL_UNIT_ASSIGNED_CONTEXT((#1233,#1234,#1235))REPRESENTATION_CONTEXT('',''));
#1238 = FACETED_BREP_SHAPE_REPRESENTATION('Illustrative reference',(#52,#104,#156,#352,#548,#600,#652,#704,#756,#808,#860,#912,#964,#1016,#1068,#1120,#1172,#1224),#1237);
#1239 = SHAPE_DEFINITION_REPRESENTATION(#1232,#1238);
ENDSEC;
END-ISO-10303-21;
